<svg width="331" height="317" viewBox="0 0 331 317" fill="none" xmlns="http://www.w3.org/2000/svg">
<path d="M244.496 278.925C281.548 263.292 296.301 247.058 318.081 216.171C277.926 190.668 229.985 192.43 212.689 201.438C195.394 210.445 166.028 222.075 151.175 261.569C169.931 272.566 214.854 291.432 244.496 278.925Z" stroke="white" stroke-width="3"/>
<path d="M223.761 21.0011C238.914 87.6194 226.682 139.184 202.941 168.65C179.2 198.115 111.521 237.028 68.4229 238.709M223.761 21.0011C139.027 24.8236 93.7672 71.6032 83.3579 86.7963C72.9486 101.989 38.1175 164.103 68.4229 238.709M223.761 21.0011C212.951 70.6045 206.585 95.9059 176.398 145.829C152.249 185.768 94.3524 224.39 68.4229 238.709" stroke="white" stroke-width="3"/>
</svg>
