<svg width="149" height="171" viewBox="0 0 149 171" fill="none" xmlns="http://www.w3.org/2000/svg">
<path d="M119.032 31.5566C105.458 18.125 95.6525 14.6001 78.1344 10.6573C74.1844 32.9451 83.6297 53.6873 90.7178 59.6453C97.806 65.6034 108.23 76.387 128.28 75.7191C129.722 65.4755 129.892 42.302 119.032 31.5566Z" stroke="#C8F154" stroke-width="3"/>
<path d="M9.40184 87.631C35.9238 68.899 60.8103 64.9335 78.0778 70.0322C95.3453 75.1309 124.756 97.8348 133.333 116.478M9.40184 87.631C26.4925 124.191 55.2831 135.613 63.8535 137.436C72.4238 139.26 106.057 143.319 133.333 116.478M9.40184 87.631C33.1678 83.3959 45.4453 81.6104 72.876 85.8363C94.8205 89.217 122.324 107.672 133.333 116.478" stroke="#C8F154" stroke-width="3"/>
</svg>
