<svg width="845" height="845" viewBox="0 0 845 845" fill="none" xmlns="http://www.w3.org/2000/svg">
<path d="M683.269 358.112C683.269 469.563 634.679 551.505 471.034 594.768C307.388 638.031 22.2686 691.082 22.2686 503.041C22.2686 315 338.619 5.16743 445.08 17.6345C551.541 30.1016 683.269 246.661 683.269 358.112Z" fill="url(#paint0_linear)"/>
<path d="M617.293 205.012C542.85 166.563 417.286 173.727 306.614 193.535C244.914 202.918 158.958 264.093 130.117 334.236C101.276 404.379 131.734 497.828 159.925 568.762C188.116 639.696 246.308 688.889 294.846 703.682C343.383 718.475 418.43 726.032 499.083 703.202C579.736 680.372 612.221 634.119 703.953 536.881C795.684 439.642 768.131 387.345 748.083 335.802C728.036 284.259 691.737 243.461 617.293 205.012Z" stroke="#C8F154" stroke-width="3"/>
<defs>
<linearGradient id="paint0_linear" x1="-20.4651" y1="304.018" x2="710.713" y2="305.977" gradientUnits="userSpaceOnUse">
<stop stop-color="#C8F154"/>
<stop offset="1" stop-color="#6BBF5F"/>
</linearGradient>
</defs>
</svg>
