<svg width="140" height="216" viewBox="0 0 140 216" fill="none" xmlns="http://www.w3.org/2000/svg">
<path d="M174.658 91.5412C174.658 120.03 162.237 140.977 120.406 152.036C78.5749 163.094 5.69238 176.655 5.69238 128.588C5.69238 80.5208 86.5582 1.321 113.772 4.50784C140.986 7.6947 174.658 63.0519 174.658 91.5412Z" fill="url(#paint0_linear)"/>
<path d="M157.794 52.4052C138.765 42.5768 106.668 44.4081 78.3776 49.4714C62.6057 51.8699 40.6335 67.5075 33.2612 85.4376C25.8888 103.368 33.6745 127.255 40.8807 145.387C48.0869 163.52 62.9621 176.094 75.3694 179.876C87.7765 183.657 106.96 185.589 127.577 179.753C148.193 173.917 156.497 162.094 179.946 137.238C203.394 112.382 196.351 99.0134 191.226 85.8379C186.102 72.6624 176.823 62.2336 157.794 52.4052Z" stroke="#C8F154" stroke-width="3"/>
<defs>
<linearGradient id="paint0_linear" x1="-5.23126" y1="77.7136" x2="181.673" y2="78.2144" gradientUnits="userSpaceOnUse">
<stop stop-color="#C8F154"/>
<stop offset="1" stop-color="#6BBF5F"/>
</linearGradient>
</defs>
</svg>
