<svg width="32" height="32" viewBox="0 0 32 32" fill="none" xmlns="http://www.w3.org/2000/svg">
<path d="M29.4617 20.3132C28.4011 19.3813 27.115 18.5762 25.6387 17.9202C25.0076 17.6399 24.269 17.9241 23.9888 18.5549C23.7085 19.1858 23.9927 19.9243 24.6235 20.2048C25.8684 20.7581 26.9412 21.4263 27.8115 22.1912C28.8845 23.134 29.5 24.4993 29.5 25.9375V28.25C29.5 28.9392 28.9392 29.5 28.25 29.5H3.75C3.06079 29.5 2.5 28.9392 2.5 28.25V25.9375C2.5 24.4993 3.11548 23.134 4.18848 22.1912C5.45142 21.0813 9.1311 18.5 16 18.5C21.1003 18.5 25.25 14.3503 25.25 9.25C25.25 4.14966 21.1003 0 16 0C10.8997 0 6.75 4.14966 6.75 9.25C6.75 12.2317 8.16846 14.8879 10.3657 16.5806C6.34521 17.4644 3.84424 19.1655 2.53833 20.3132C0.925293 21.7305 0 23.7803 0 25.9375V28.25C0 30.3179 1.68213 32 3.75 32H28.25C30.3179 32 32 30.3179 32 28.25V25.9375C32 23.7803 31.0747 21.7305 29.4617 20.3132ZM9.25 9.25C9.25 5.52808 12.2781 2.5 16 2.5C19.7219 2.5 22.75 5.52808 22.75 9.25C22.75 12.9719 19.7219 16 16 16C12.2781 16 9.25 12.9719 9.25 9.25Z" fill="#8676FB"/>
</svg>
