<svg width="128" height="128" viewBox="0 0 128 128" fill="none" xmlns="http://www.w3.org/2000/svg">
<path d="M90.4142 123.584C107.815 116.242 114.744 108.618 124.972 94.1126C106.114 82.1353 83.5993 82.9629 75.4769 87.1932C67.3545 91.4234 53.5633 96.8852 46.5876 115.433C55.3961 120.597 76.4934 129.457 90.4142 123.584Z" stroke="#6BBF5F" stroke-width="3"/>
<path d="M80.6771 2.45391C87.7931 33.7401 82.0489 57.9567 70.8993 71.7947C59.7496 85.6326 27.965 103.907 7.72491 104.697M80.6771 2.45391C40.8832 4.24905 19.6274 26.2184 14.7389 33.3536C9.85031 40.4888 -6.50755 69.6596 7.72491 104.697M80.6771 2.45391C75.6004 25.7493 72.6106 37.6318 58.4338 61.0774C47.0923 79.8339 19.9022 97.9722 7.72491 104.697" stroke="#6BBF5F" stroke-width="3"/>
</svg>
