<svg width="28" height="28" viewBox="0 0 28 28" fill="none" xmlns="http://www.w3.org/2000/svg">
<path fill-rule="evenodd" clip-rule="evenodd" d="M3.5 0H24.5C26.4297 0 28 1.56917 28 3.5V24.5C28 26.4297 26.4297 28 24.5 28H19.25V18.375H21.875L23.625 14H19.25V10.5C19.25 9.61207 19.9124 9.6172 20.7697 9.62382C20.845 9.62441 20.9219 9.625 21 9.625H22.75V5.25H19.25C16.3497 5.25 14 7.59967 14 10.5V14H10.5V18.375H14V28H3.5C1.56917 28 0 26.4297 0 24.5V3.5C0 1.56917 1.56917 0 3.5 0Z" fill="#8676FB"/>
</svg>
