<svg width="38" height="38" viewBox="0 0 38 38" fill="none" xmlns="http://www.w3.org/2000/svg">
<path d="M18.9972 4.97008C13.2481 4.97008 7.78877 4.45867 5.70352 9.81033C4.84219 12.0207 4.96727 14.8913 4.96727 19.0016C4.96727 22.6084 4.85169 25.9983 5.70352 28.1913C7.78402 33.5461 13.2877 33.0331 18.994 33.0331C24.4993 33.0331 30.1755 33.6063 32.2861 28.1913C33.149 25.9588 33.0224 23.1309 33.0224 19.0016C33.0224 13.5201 33.3248 9.98133 30.6664 7.3245C27.9747 4.63283 24.3346 4.97008 18.9909 4.97008H18.9972ZM17.74 7.49867C29.7322 7.47967 31.2585 6.1465 30.4162 24.6668C30.1169 31.217 25.1294 30.4982 18.9988 30.4982C7.82044 30.4982 7.49902 30.1783 7.49902 18.9953C7.49902 7.68233 8.38569 7.505 17.74 7.4955V7.49867ZM26.4864 9.82775C25.5569 9.82775 24.8033 10.5814 24.8033 11.5108C24.8033 12.4403 25.5569 13.1939 26.4864 13.1939C27.4158 13.1939 28.1694 12.4403 28.1694 11.5108C28.1694 10.5814 27.4158 9.82775 26.4864 9.82775ZM18.9972 11.7958C15.0183 11.7958 11.793 15.0227 11.793 19.0016C11.793 22.9805 15.0183 26.2058 18.9972 26.2058C22.9761 26.2058 26.1998 22.9805 26.1998 19.0016C26.1998 15.0227 22.9761 11.7958 18.9972 11.7958ZM18.9972 14.3244C25.1801 14.3244 25.188 23.6788 18.9972 23.6788C12.8159 23.6788 12.8064 14.3244 18.9972 14.3244Z" fill="#8676FB"/>
</svg>
