<svg width="236" height="249" viewBox="0 0 236 249" fill="none" xmlns="http://www.w3.org/2000/svg">
<path d="M113.697 6.14274C82.0456 1.47164 65.3095 6.41807 37.7445 18.4266C54.5175 52.3515 87.8449 70.9513 103.325 71.9686C118.806 72.9858 143.577 77.2048 169.987 56.483C161.774 41.26 139.018 9.87961 113.697 6.14274Z" fill="#C8F154"/>
<path d="M142.581 203.454C155.975 197.515 205.507 170.012 216.155 106.839C192.618 105.701 137.284 107.664 104.248 124.616C62.954 145.807 48.0738 160.278 20.0326 189.346C78.9993 222.156 129.186 209.392 142.581 203.454Z" fill="#6BBF5F"/>
<path d="M95.8107 98.0769C67.4271 108.109 37.6041 137.911 20.0328 189.346C48.074 160.278 62.9542 145.806 104.248 124.616C137.284 107.664 192.618 105.701 216.156 106.839C186.274 89.9724 124.194 88.0451 95.8107 98.0769Z" fill="#4C8C42"/>
</svg>
