<svg width="249" height="64" viewBox="0 0 249 64" fill="none" xmlns="http://www.w3.org/2000/svg">
<g clip-path="url(#clip0)">
<path d="M20.5879 58.6679C19.4243 56.7295 18.8029 54.5142 18.7885 52.2536C16.4287 51.751 14.1656 50.8705 12.0866 49.6461C10.1352 48.6065 8.42122 47.1725 7.05371 45.4351C8.12288 52.6447 13.2471 58.5766 21.5658 61.4318C22.8741 61.8943 24.2467 62.1495 25.6339 62.188C23.7286 61.3724 22.0111 60.1743 20.5879 58.6679Z" fill="#6BBF5F"/>
<path d="M9.73987 31.3547C20.1839 10.9123 35.2044 12.203 40.4199 20.6772C43.2747 19.3496 46.4 18.7067 49.547 18.7998C49.4704 18.2676 49.3438 17.7438 49.1689 17.2354C44.0708 2.73791 20.0665 3.35067 9.29656 17.2354C-3.74317e-05 29.1775 2.33389 39.5291 7.0539 45.4089C6.46421 40.5589 7.40319 35.6457 9.73987 31.3547Z" fill="#6BBF5F"/>
<path d="M12.0867 49.6196C14.1657 50.844 16.4288 51.7245 18.7886 52.2271C18.74 51.3586 18.74 50.4881 18.7886 49.6196C18.2706 49.3223 17.8386 48.8957 17.5347 48.3816C17.2308 47.8675 17.0653 47.2834 17.0545 46.6863C16.8198 43.44 24.0041 21.5765 27.016 20.2336C30.028 18.8908 33.9787 17.8087 37.1471 22.3326C38.2036 21.7152 39.2965 21.1623 40.4198 20.6769C35.2043 12.2027 20.1446 10.912 9.70063 31.3544C7.37744 35.6497 6.45217 40.5626 7.05378 45.4086C8.42129 47.146 10.1352 48.5801 12.0867 49.6196Z" fill="#C8F154"/>
<path d="M46.1045 48.9026C44.6442 49.3068 43.1317 48.003 41.5671 46.0605C39.9242 50.9234 35.0477 62.3701 25.6338 62.1615C30.8493 64.5213 39.3505 65.7337 50.0813 58.6545C64.6847 49.046 67.0317 34.8745 63.5634 27.7822C59.052 35.2004 50.9419 47.5467 46.1045 48.9026Z" fill="#A8BFA3"/>
<path d="M45.1396 33.7796C45.6113 34.0822 46.1571 34.2491 46.7173 34.262C49.1947 34.262 52.9107 25.4227 55.3359 20.2209C53.5168 19.3756 51.5505 18.8929 49.5467 18.7998C50.1856 22.9848 48.3081 28.4865 45.1396 33.7796Z" fill="#A8BFA3"/>
<path d="M41.5677 46.0605C40.655 44.9263 39.7292 43.5704 38.7774 42.2275C36.6035 44.6078 34.1471 46.7137 31.4627 48.4985C25.8821 52.0576 21.9444 52.7356 18.7891 52.2402C18.8011 54.5053 19.4226 56.7254 20.5884 58.6675C22.0129 60.1692 23.7303 61.3628 25.6344 62.1746C35.0614 62.3701 39.9248 50.9234 41.5677 46.0605Z" fill="#4C8C42"/>
<path d="M40.4199 20.6773C41.3374 22.1682 41.9367 23.8327 42.1801 25.5663C42.42 27.4519 42.5506 29.3498 42.5713 31.2505C43.2458 32.2469 44.1043 33.1053 45.1008 33.7798C48.2692 28.4866 50.1468 22.9849 49.4949 18.7999C46.3653 18.7149 43.2588 19.3576 40.4199 20.6773Z" fill="#4C8C42"/>
<path d="M42.6104 31.2896C42.5898 29.3889 42.4592 27.491 42.2193 25.6053C41.9691 23.8553 41.3563 22.1768 40.4199 20.6772C39.2725 21.1856 38.1577 21.7647 37.082 22.4112C37.1863 22.5677 37.3037 22.7241 37.408 22.8936C39.2465 25.7487 40.9154 28.969 42.6104 31.2896Z" fill="#32592C"/>
<path d="M30.8499 35.4743C26.2994 36.2957 29.3113 46.5039 24.9042 48.9549C22.2965 50.3759 20.1712 50.4933 18.763 49.698C18.7144 50.5665 18.7144 51.437 18.763 52.3054C21.9184 52.8009 25.8561 52.1229 31.4366 48.5637C34.1211 46.7789 36.5775 44.673 38.7513 42.2928C36.2479 38.6033 33.601 34.9789 30.8499 35.4743Z" fill="#32592C"/>
<path d="M64.1244 13.8845C63.2206 14.1327 62.3714 14.5484 61.621 15.11C60.2959 16.1119 59.1871 17.3713 58.3613 18.8126C58.3613 18.8126 62.1556 21.1984 65.8064 20.2337C66.1063 20.1424 66.4062 20.0381 66.6931 19.9208C68.7424 18.903 70.4407 17.2958 71.5695 15.3056C71.5695 15.3056 67.8013 12.9198 64.1244 13.8845Z" fill="#C8F154"/>
<path d="M51.6465 17.0528C51.6465 17.0528 58.5309 16.3748 62.2209 11.6684C65.9108 6.96191 64.0593 0 64.0593 0C63.5287 3.93566 62.0079 7.67231 59.6392 10.8601C57.4757 13.5002 54.7434 15.6172 51.6465 17.0528Z" fill="#4C8C42"/>
<path d="M59.6389 10.8601C62.0076 7.67231 63.5284 3.93566 64.059 0C64.059 0 56.9921 0.156447 53.3021 4.84987C49.6122 9.54329 51.6462 17.0397 51.6462 17.0528C54.7431 15.6172 57.4755 13.5002 59.6389 10.8601Z" fill="#6BBF5F"/>
<path d="M0.404169 45.7349C0.214208 45.9652 0.0864369 46.2404 0.0330469 46.5341C-0.0203431 46.8278 0.00242937 47.1303 0.0991914 47.4127C0.195953 47.6951 0.363477 47.948 0.585778 48.1473C0.808078 48.3465 1.07774 48.4855 1.36903 48.551C1.97785 48.6582 2.60258 48.6333 3.20096 48.4781C3.79933 48.3229 4.35738 48.041 4.83733 47.6514C8.39689 45.2134 1.5255 44.4573 0.404169 45.7349Z" fill="#32592C"/>
<path d="M4.39378 48.8377C3.794 49.4635 3.66362 50.311 4.09389 50.7151C4.52417 51.1193 5.39776 50.9237 5.95843 50.2849C6.51909 49.6461 6.67556 48.8117 6.24528 48.4075C5.815 48.0034 4.98053 48.238 4.39378 48.8377Z" fill="#A8BFA3"/>
<path d="M94.9348 31.8241L86.9942 19.7646H84.0996V36.8826H86.9942V24.8231L94.9348 36.8826H97.8294V19.7646H94.9348V31.8241Z" fill="#32592C"/>
<path d="M111.273 26.0744C110.881 25.2461 110.192 24.5949 109.343 24.2492C108.389 23.8552 107.363 23.6643 106.331 23.6886C105.052 23.6203 103.785 23.9679 102.719 24.6795C101.842 25.3228 101.204 26.2403 100.907 27.2869L103.515 28.1083C103.597 27.8101 103.741 27.5322 103.936 27.2921C104.131 27.052 104.374 26.855 104.649 26.7133C105.167 26.4528 105.738 26.3145 106.318 26.3091C106.685 26.2739 107.055 26.3122 107.406 26.4219C107.758 26.5316 108.084 26.7105 108.365 26.9479C108.731 27.3721 108.935 27.9129 108.939 28.4733L107.439 28.6819C106.631 28.7992 105.875 28.9296 105.184 29.06C104.57 29.1733 103.965 29.3257 103.371 29.5163C102.769 29.6996 102.207 29.996 101.715 30.3898C101.294 30.7381 100.967 31.1863 100.764 31.6935C100.531 32.2196 100.407 32.7871 100.399 33.3623C100.394 34.0374 100.565 34.7022 100.894 35.2918C101.235 35.8909 101.736 36.3831 102.341 36.7129C103.072 37.0814 103.883 37.2607 104.701 37.2344C105.706 37.2686 106.703 37.0442 107.596 36.5825C108.237 36.24 108.8 35.7697 109.252 35.2005V36.9345H111.768V28.9948C111.77 28.481 111.744 27.9674 111.69 27.4564C111.638 26.9738 111.496 26.5052 111.273 26.0744ZM108.665 32.8278C108.536 33.169 108.351 33.4862 108.117 33.7664C107.808 34.1192 107.431 34.4073 107.009 34.6139C106.49 34.8503 105.924 34.9662 105.353 34.9528C104.964 34.9688 104.577 34.8976 104.219 34.7442C103.931 34.6226 103.686 34.4185 103.515 34.1576C103.354 33.9096 103.272 33.6186 103.28 33.3232C103.275 33.0721 103.338 32.8243 103.463 32.6061C103.599 32.3869 103.781 32.2 103.997 32.0586C104.256 31.8835 104.536 31.7432 104.832 31.6414C105.221 31.5183 105.617 31.4182 106.018 31.3415C106.462 31.2502 106.983 31.1459 107.609 31.0416L108.913 30.833C108.913 31.0416 108.913 31.2894 108.913 31.5762C108.895 32.0061 108.803 32.4297 108.639 32.8278H108.665Z" fill="#32592C"/>
<path d="M123.516 30.6374C123.532 31.2903 123.444 31.9416 123.255 32.5669C123.12 33.0109 122.884 33.4172 122.564 33.7533C122.293 34.0349 121.957 34.2454 121.586 34.3661C121.239 34.491 120.873 34.5528 120.504 34.5486C119.931 34.5828 119.362 34.427 118.887 34.1053C118.488 33.8232 118.176 33.4347 117.987 32.9841C117.78 32.535 117.648 32.0549 117.596 31.563C117.548 31.1301 117.522 30.6949 117.518 30.2593V24.0405H114.61V31.211C114.616 31.6119 114.642 32.0123 114.689 32.4105C114.751 32.946 114.864 33.4743 115.028 33.988C115.21 34.5541 115.483 35.0869 115.836 35.5655C116.233 36.0724 116.736 36.4862 117.309 36.778C118.049 37.1162 118.857 37.2769 119.669 37.2473C120.733 37.3009 121.789 37.0426 122.707 36.5042C123.139 36.2301 123.526 35.8915 123.855 35.5003V36.9344H126.463V24.0405H123.516V30.6374Z" fill="#32592C"/>
<path d="M143.596 23.7276C142.787 23.7148 141.988 23.9077 141.275 24.2882C140.627 24.641 140.08 25.1524 139.684 25.7745C139.381 25.1916 138.932 24.6975 138.38 24.3404C137.652 23.9065 136.814 23.6937 135.968 23.7276C135.145 23.7115 134.332 23.9092 133.608 24.3013C133.106 24.5936 132.663 24.9785 132.304 25.4355V24.0405H129.696V36.8822H132.578V28.9816C132.544 28.2691 132.781 27.5702 133.243 27.026C133.473 26.7915 133.748 26.6052 134.052 26.4781C134.355 26.3509 134.681 26.2854 135.01 26.2854C135.338 26.2854 135.664 26.3509 135.967 26.4781C136.271 26.6052 136.546 26.7915 136.776 27.026C137.247 27.6204 137.479 28.3687 137.428 29.125V36.8822H140.284V28.9816C140.267 28.4751 140.379 27.9726 140.61 27.5215C140.799 27.1351 141.099 26.8131 141.47 26.5958C141.868 26.373 142.319 26.2647 142.774 26.2829C143.106 26.2685 143.437 26.3276 143.744 26.4561C144.05 26.5846 144.325 26.7792 144.547 27.026C145.011 27.609 145.243 28.3425 145.199 29.0859V36.9083H148.068V28.3558C148.125 27.136 147.72 25.9395 146.933 25.0053C146.508 24.5569 145.987 24.2094 145.409 23.9884C144.832 23.7673 144.212 23.6782 143.596 23.7276Z" fill="#32592C"/>
<path d="M162.254 24.0409H158.681L153.987 30.2205V19.7646H151.092L151.066 36.8826H153.987V30.7029L158.89 36.8826H162.684L157.273 30.4683L162.254 24.0409Z" fill="#32592C"/>
<path d="M166.974 19.4648H164.105V22.0853H166.974V19.4648Z" fill="#32592C"/>
<path d="M166.974 24.0405H164.105V36.8692H166.974V24.0405Z" fill="#32592C"/>
<path d="M181.903 26.9349C181.724 26.3713 181.451 25.8423 181.094 25.3704C180.705 24.8565 180.2 24.4412 179.621 24.1579C178.884 23.81 178.075 23.6445 177.261 23.6756C176.192 23.6376 175.136 23.9142 174.223 24.4708C173.791 24.7449 173.404 25.0835 173.076 25.4747V24.0406H170.468V36.8823H173.415V30.2855C173.398 29.6325 173.486 28.981 173.675 28.3559C173.81 27.912 174.047 27.5057 174.366 27.1695C174.637 26.8879 174.973 26.6775 175.344 26.5568C175.693 26.4383 176.058 26.3766 176.426 26.3743C176.999 26.3401 177.568 26.4959 178.043 26.8175C178.442 27.0996 178.754 27.4881 178.943 27.9387C179.15 28.3879 179.282 28.8679 179.334 29.3598C179.383 29.7928 179.409 30.2279 179.412 30.6635V36.8432H182.32V29.6727C182.314 29.2718 182.288 28.8715 182.242 28.4733C182.177 27.951 182.064 27.4359 181.903 26.9349Z" fill="#32592C"/>
<path d="M195.58 26.0744C195.188 25.246 194.5 24.5948 193.651 24.2492C192.697 23.8552 191.671 23.6642 190.639 23.6886C189.363 23.6183 188.1 23.9662 187.04 24.6794C186.155 25.3154 185.515 26.2359 185.228 27.2869L187.835 28.1082C187.918 27.81 188.062 27.5321 188.257 27.2921C188.452 27.052 188.695 26.8549 188.97 26.7132C189.488 26.4527 190.059 26.3145 190.639 26.3091C191.005 26.2738 191.375 26.3122 191.727 26.4219C192.078 26.5316 192.404 26.7104 192.686 26.9479C193.052 27.3721 193.256 27.9128 193.26 28.4732L191.669 28.6818C190.86 28.7992 190.104 28.9295 189.413 29.0599C188.8 29.1733 188.195 29.3257 187.601 29.5162C186.998 29.6995 186.436 29.996 185.945 30.3897C185.524 30.738 185.196 31.1862 184.993 31.6935C184.778 32.2232 184.672 32.7906 184.68 33.3622C184.676 34.0374 184.847 34.7021 185.176 35.2917C185.516 35.8909 186.018 36.383 186.623 36.7128C187.354 37.0814 188.165 37.2607 188.983 37.2343C189.988 37.2686 190.984 37.0441 191.877 36.5824C192.506 36.2377 193.056 35.7673 193.494 35.2005V36.9344H196.011V28.9947C196.012 28.4809 195.986 27.9674 195.933 27.4563C195.906 26.9771 195.787 26.5076 195.58 26.0744ZM192.973 32.8277C192.849 33.1713 192.663 33.4894 192.425 33.7664C192.115 34.1192 191.739 34.4072 191.317 34.6138C190.797 34.8503 190.231 34.9662 189.661 34.9528C189.272 34.9688 188.884 34.8975 188.527 34.7442C188.239 34.6226 187.994 34.4184 187.822 34.1575C187.662 33.9095 187.58 33.6186 187.588 33.3231C187.583 33.072 187.646 32.8243 187.77 32.6061C187.907 32.3868 188.089 32.1999 188.305 32.0585C188.564 31.8834 188.844 31.7432 189.139 31.6413C189.529 31.5182 189.925 31.4181 190.326 31.3414C190.769 31.2502 191.291 31.1459 191.917 31.0416L193.22 30.833C193.22 31.0416 193.22 31.2893 193.22 31.5761C193.176 32.0089 193.062 32.4316 192.881 32.8277H192.973Z" fill="#32592C"/>
<path d="M214.825 21.3027C213.842 20.4997 212.646 20.0013 211.383 19.8686C210.992 19.8686 210.575 19.7904 210.157 19.7773H203.847V36.8822H210.157C210.567 36.8727 210.976 36.8423 211.383 36.791C212.646 36.6583 213.842 36.1598 214.825 35.3569C215.773 34.5455 216.504 33.5104 216.951 32.3453C217.452 31.0668 217.7 29.703 217.681 28.3298C217.699 26.9609 217.451 25.6016 216.951 24.3274C216.506 23.1576 215.775 22.1177 214.825 21.3027ZM214.291 30.8851C214.074 31.6542 213.692 32.3663 213.169 32.9711C212.65 33.5451 211.951 33.9265 211.187 34.0532C210.865 34.1122 210.538 34.147 210.21 34.1575H209.31H206.702V22.4239H210.157C210.486 22.4321 210.814 22.4714 211.135 22.5412C211.884 22.6728 212.57 23.0433 213.091 23.5973C213.629 24.1829 214.018 24.8894 214.225 25.6572C214.48 26.5029 214.607 27.3816 214.604 28.2646C214.626 29.1486 214.521 30.0312 214.291 30.8851Z" fill="#32592C"/>
<path d="M223.601 19.4648H220.732V22.0853H223.601V19.4648Z" fill="#32592C"/>
<path d="M223.601 24.0405H220.732V36.8692H223.601V24.0405Z" fill="#32592C"/>
<path d="M236.222 24.6277C235.213 23.9785 234.031 23.6512 232.832 23.689C231.665 23.665 230.515 23.9627 229.507 24.5494C228.543 25.1152 227.764 25.9486 227.264 26.9483C226.7 28.0806 226.423 29.3341 226.456 30.5987C226.432 31.8014 226.715 32.9903 227.277 34.0536C227.81 35.0296 228.605 35.8377 229.572 36.3873C230.621 36.966 231.804 37.2583 233.001 37.2347C234.2 37.2423 235.376 36.9076 236.391 36.2699C237.418 35.6336 238.216 34.6889 238.673 33.5712L235.844 32.7238C235.579 33.2615 235.168 33.7134 234.657 34.0275C234.104 34.3514 233.472 34.514 232.832 34.4969C232.362 34.5288 231.891 34.4485 231.458 34.2626C231.025 34.0767 230.642 33.7906 230.341 33.4278C229.854 32.813 229.555 32.0705 229.481 31.2897H238.764C238.893 29.9291 238.715 28.5568 238.243 27.2742C237.864 26.2015 237.157 25.2755 236.222 24.6277ZM232.949 26.1921C233.38 26.1512 233.814 26.2179 234.212 26.3863C234.61 26.5547 234.96 26.8195 235.231 27.1569C235.622 27.7336 235.851 28.4043 235.896 29.0994H229.611C229.697 28.4434 229.949 27.8198 230.341 27.2873C230.657 26.9104 231.059 26.6143 231.513 26.4239C231.966 26.2334 232.459 26.1539 232.949 26.1921Z" fill="#32592C"/>
<path d="M249.04 26.2961V24.0406H245.271V20.4814H242.416V24.0406H240.043V26.2961H242.377V31.6414C242.377 32.3714 242.377 33.0233 242.377 33.5969C242.394 34.1898 242.551 34.7703 242.833 35.2918C243.164 35.875 243.677 36.3331 244.294 36.5955C244.987 36.8883 245.731 37.0433 246.484 37.0518C247.319 37.065 248.153 36.9951 248.974 36.8432V34.4835C248.267 34.5949 247.55 34.6255 246.836 34.5747C246.56 34.5659 246.29 34.4886 246.051 34.3498C245.812 34.211 245.612 34.015 245.467 33.7795C245.301 33.4901 245.215 33.1614 245.219 32.8277C245.219 32.4366 245.219 31.9934 245.219 31.524V26.3091L249.04 26.2961Z" fill="#32592C"/>
<path d="M84.0996 52.5663V47.4688H84.6212V49.8806L86.942 47.4688H87.607L85.234 49.9328L87.8417 52.5402H87.1637L84.6603 49.9328V52.5402L84.0996 52.5663Z" fill="#A8BFA3"/>
<path d="M90.5795 52.5662L91.1532 51.3668L89.3408 47.4556H89.9667L91.427 50.8453L92.9656 47.5077H93.5262L91.1532 52.6053L90.5795 52.5662Z" fill="#A8BFA3"/>
<path d="M95.5479 52.5663V47.4688H97.6862H97.8818C98.1213 47.5 98.3485 47.5935 98.5407 47.7399C98.7329 47.8863 98.8833 48.0805 98.977 48.3031C99.0734 48.5298 99.1222 48.7739 99.1205 49.0202C99.1222 49.2707 99.0734 49.519 98.977 49.7503C98.8859 49.9684 98.7372 50.1577 98.5468 50.2978C98.3531 50.4462 98.1237 50.5406 97.8818 50.5716H97.6862H96.0694V52.5011L95.5479 52.5663ZM96.0694 50.1414H97.6601H97.8166C97.9773 50.1153 98.1269 50.0428 98.2469 49.9328C98.3568 49.8243 98.4453 49.696 98.5076 49.5547C98.5599 49.4038 98.5864 49.2451 98.5859 49.0854C98.5854 48.93 98.559 48.7757 98.5076 48.6291C98.4484 48.486 98.3595 48.3572 98.2469 48.251C98.1303 48.136 97.9791 48.0626 97.8166 48.0424H97.6601H96.0694V50.1414Z" fill="#A8BFA3"/>
<path d="M103.305 52.6706C102.846 52.693 102.392 52.5748 102.002 52.3316C101.652 52.1075 101.375 51.7856 101.206 51.406C101.017 50.9703 100.923 50.499 100.932 50.024C100.922 49.5489 101.016 49.0774 101.206 48.6421C101.371 48.2563 101.648 47.9292 102.002 47.7034C102.394 47.4661 102.847 47.3483 103.305 47.3644C103.815 47.3331 104.318 47.4837 104.727 47.7894C105.135 48.095 105.422 48.5359 105.535 49.0332L105 49.1766C104.914 48.8034 104.713 48.4663 104.427 48.2118C104.12 47.9963 103.757 47.8742 103.382 47.8604C103.007 47.8465 102.637 47.9414 102.314 48.1336C102.048 48.3243 101.84 48.5864 101.715 48.8898C101.58 49.2528 101.509 49.6367 101.506 50.024C101.497 50.4082 101.568 50.7899 101.715 51.1452C101.831 51.4537 102.04 51.7182 102.314 51.9014C102.637 52.0936 103.007 52.1885 103.382 52.1746C103.757 52.1608 104.12 52.0387 104.427 51.8232C104.713 51.5687 104.914 51.2316 105 50.8584L105.535 51.0018C105.413 51.4808 105.144 51.9094 104.766 52.2273C104.345 52.5393 103.829 52.6959 103.305 52.6706Z" fill="#A8BFA3"/>
<path d="M107.726 52.5663V47.4688H108.221V49.4113H109.838H110.033C110.279 49.4425 110.513 49.5368 110.711 49.6851C110.897 49.8269 111.041 50.016 111.129 50.2326C111.32 50.7006 111.32 51.2249 111.129 51.6928C111.041 51.9094 110.897 52.0985 110.711 52.2404C110.513 52.3887 110.279 52.483 110.033 52.5142H109.838H107.726V52.5663ZM108.247 52.0709H110.007C110.167 52.0348 110.315 51.9585 110.438 51.8493C110.547 51.7426 110.631 51.6136 110.685 51.4712C110.79 51.1759 110.79 50.8538 110.685 50.5586C110.631 50.4162 110.547 50.2872 110.438 50.1805C110.315 50.0713 110.167 49.995 110.007 49.9589H109.838H108.221L108.247 52.0709ZM111.807 52.5663V47.4688H112.328V52.5663H111.807Z" fill="#A8BFA3"/>
<path d="M117.349 53.4528V52.149C117.523 52.1599 117.696 52.104 117.831 51.9926C117.954 51.8872 118.048 51.7527 118.105 51.6015C118.176 51.4167 118.224 51.2241 118.248 51.0278C118.248 50.8192 118.248 50.6106 118.34 50.389L118.418 49.4894C118.418 49.1896 118.418 48.8897 118.418 48.5768C118.418 48.2639 118.418 47.9119 118.418 47.5469H121.651V52.149H122.016V53.4528H121.495V52.6053H117.844V53.4528H117.349ZM118.353 52.149H121.13V47.9641H118.978C118.978 48.2509 118.978 48.5377 118.978 48.7985C118.978 49.0592 118.978 49.346 118.978 49.6198C118.978 49.8936 118.978 50.1804 118.913 50.4672C118.848 50.754 118.913 50.9757 118.822 51.1843C118.791 51.3638 118.739 51.5389 118.666 51.7058C118.585 51.854 118.468 51.9795 118.327 52.0708L118.353 52.149Z" fill="#A8BFA3"/>
<path d="M127.545 52.5663V48.3814L124.729 52.5663H124.207V47.4688H124.729V51.6537L127.545 47.4688H128.066V52.5663H127.545Z" fill="#A8BFA3"/>
<path d="M130.479 52.5663V47.4688H133.66V47.9642H131.052V49.7372H133.295V50.2326H131.052V52.0709H133.66V52.5663H130.479Z" fill="#A8BFA3"/>
<path d="M137.284 52.5663V47.9642H135.498V47.4688H139.592V47.9642H137.806V52.5663H137.284Z" fill="#A8BFA3"/>
<path d="M143.635 52.6706C143.175 52.6965 142.719 52.578 142.331 52.3317C141.978 52.1112 141.7 51.7883 141.535 51.406C141.346 50.9704 141.253 50.499 141.261 50.0241C141.251 49.549 141.345 49.0774 141.535 48.6421C141.696 48.2537 141.974 47.9254 142.331 47.7034C142.722 47.4626 143.176 47.3445 143.635 47.3645C144.093 47.3491 144.546 47.4669 144.938 47.7034C145.292 47.9293 145.569 48.2564 145.734 48.6421C145.924 49.0774 146.018 49.549 146.008 50.0241C146.016 50.499 145.923 50.9704 145.734 51.406C145.565 51.7857 145.288 52.1075 144.938 52.3317C144.548 52.5741 144.093 52.6923 143.635 52.6706ZM143.635 52.1752C143.989 52.1881 144.339 52.0926 144.639 51.9014C144.909 51.7145 145.118 51.4513 145.238 51.1453C145.374 50.7874 145.441 50.4068 145.434 50.0241C145.443 49.6411 145.376 49.2602 145.238 48.9029C145.118 48.5933 144.909 48.3258 144.639 48.1337C144.339 47.9426 143.989 47.8471 143.635 47.8599C143.284 47.8472 142.938 47.9428 142.644 48.1337C142.373 48.3206 142.164 48.5838 142.044 48.8898C141.909 49.2529 141.838 49.6367 141.835 50.0241C141.826 50.4082 141.897 50.79 142.044 51.1453C142.164 51.4517 142.372 51.7151 142.644 51.9014C142.941 52.0832 143.287 52.1696 143.635 52.1492V52.1752Z" fill="#A8BFA3"/>
<path d="M147.624 52.5661V52.1489C147.727 52.1707 147.834 52.1707 147.937 52.1489C147.98 52.1416 148.021 52.125 148.057 52.1003C148.093 52.0755 148.123 52.0431 148.146 52.0055C148.21 51.891 148.258 51.7682 148.289 51.6404C148.289 51.484 148.328 51.2754 148.406 51.0146C148.406 50.7409 148.498 50.454 148.524 50.1803C148.55 49.9065 148.524 49.6327 148.615 49.3459C148.706 49.0591 148.615 48.7592 148.615 48.4593C148.615 48.1595 148.615 47.8596 148.615 47.5337H151.836V52.6313H151.314V47.9639H149.11V48.7201C149.11 48.9678 149.11 49.2285 149.11 49.5023C149.11 49.7761 149.11 50.0368 149.032 50.3237C148.954 50.6105 149.032 50.8973 148.915 51.1972C148.798 51.497 148.837 51.6274 148.784 51.823C148.744 51.9988 148.673 52.1664 148.576 52.3184C148.485 52.445 148.358 52.5407 148.211 52.5922C148.016 52.6345 147.814 52.6255 147.624 52.5661Z" fill="#A8BFA3"/>
<path d="M156.464 52.6705C156.005 52.6922 155.55 52.574 155.16 52.3316C154.813 52.1041 154.537 51.7832 154.365 51.4059C154.186 50.9674 154.097 50.4974 154.104 50.024C154.096 49.5504 154.185 49.0801 154.365 48.642C154.534 48.2588 154.81 47.9327 155.16 47.7033C155.557 47.4745 156.006 47.354 156.464 47.354C156.922 47.354 157.371 47.4745 157.768 47.7033C158.118 47.9327 158.395 48.2588 158.563 48.642C158.743 49.0801 158.832 49.5504 158.824 50.024C158.831 50.4974 158.742 50.9674 158.563 51.4059C158.391 51.7832 158.115 52.1041 157.768 52.3316C157.378 52.574 156.923 52.6922 156.464 52.6705ZM156.464 52.1751C156.806 52.1975 157.147 52.1096 157.436 51.9242C157.724 51.7388 157.946 51.4658 158.068 51.1452C158.204 50.7873 158.27 50.4067 158.263 50.024C158.272 49.641 158.206 49.2601 158.068 48.9028C157.943 48.5957 157.735 48.3294 157.468 48.1336C157.169 47.9425 156.819 47.847 156.464 47.8598C156.113 47.8454 155.767 47.9411 155.473 48.1336C155.199 48.3168 154.989 48.5812 154.873 48.8897C154.604 49.6174 154.604 50.4175 154.873 51.1452C155.002 51.4465 155.209 51.7077 155.473 51.9013C155.771 52.0808 156.116 52.167 156.464 52.149V52.1751Z" fill="#A8BFA3"/>
<path d="M160.885 52.5663V47.4688H164.079V47.9642H161.472V52.5663H160.885Z" fill="#A8BFA3"/>
<path d="M169.398 52.5663V48.3814L166.582 52.5663H166.061V47.4688H166.582V51.6537L169.398 47.4688H169.92V52.5663H169.398Z" fill="#A8BFA3"/>
<path d="M175.657 52.5663V48.3814L172.854 52.5663H172.332V47.4688H172.854V51.6537L175.657 47.4688H176.191V52.5663H175.657Z" fill="#A8BFA3"/>
</g>
<defs>
<clipPath id="clip0">
<rect width="249" height="64" fill="white"/>
</clipPath>
</defs>
</svg>
