<svg width="64" height="64" viewBox="0 0 64 64" fill="none" xmlns="http://www.w3.org/2000/svg">
<path d="M11.9801 21.0199C11.5025 27.4997 14.359 36.549 17.8825 44.5557C19.7258 49.0438 25.8008 54.5914 31.4565 55.7257C37.1122 56.86 43.8716 54.0796 48.5135 50.9266C53.1553 47.7737 55.1296 41.8177 55.2961 37.9621C55.4626 34.1065 55.1127 28.0257 51.4238 22.6575C47.5583 17.0324 44.693 14.0417 35.4488 9.73582C26.0936 5.37819 21.8082 5.80206 18.4271 8.06036C15.0461 10.3187 12.4442 14.7216 11.9801 21.0199Z" fill="#8676FB" fill-opacity="0.15"/>
<path d="M41.1032 11.0519C36.4263 11.2808 29.9146 14.2997 25.1122 18.5276C22.3885 20.8008 20.5734 27.402 21.1375 31.786C21.7016 36.17 24.6314 40.6891 27.9775 43.4499C31.3237 46.2107 36.6036 46.4406 39.439 46.4406C42.7893 46.4406 46.2025 43.9644 49.4678 40.4592C52.733 36.9541 54.7209 32.4841 55.1985 25.0074C55.6954 17.228 53.7884 14.8143 51.3781 12.7955C48.9678 10.7767 45.78 10.8231 41.1032 11.0519Z" stroke="#C8F154" stroke-width="2"/>
</svg>
