<svg width="338" height="415" viewBox="0 0 338 415" fill="none" xmlns="http://www.w3.org/2000/svg">
<path d="M109.888 136.467C127 127.563 143.445 110.662 155.8 91.8888C162.965 81.6236 164.893 61.4977 157.233 48.7366C149.574 35.9754 143 28.1202 123.316 16.9884C109.103 8.95078 84.4999 -0.854688 53.5517 16.9884C44.2025 22.3786 17.5 45.725 11.5517 59.9284C5.1793 75.1445 6.49989 93.781 15.5517 117.501C24.713 141.507 49.5781 152.234 61.5516 152.234C76.0004 152.234 93.8793 144.796 109.888 136.467Z" fill="#C8F154"/>
<path d="M187.572 358.05C200.872 371.624 222.15 382.604 244.322 389.348C256.547 393.414 277.515 390.212 288.613 379.991C299.71 369.77 306.081 361.765 312.543 340.861C317.209 325.768 321.104 300.657 295.278 276.539C287.476 269.253 257.097 250.411 241.163 248.442C224.094 246.332 205.446 252.162 183.535 266.378C161.36 280.766 156.592 306.347 159.555 317.386C163.131 330.708 175.129 345.352 187.572 358.05Z" fill="#8676FB" fill-opacity="0.2"/>
<path d="M264.65 183.429C264.539 182.479 264.317 180.729 263.327 179.531C263.438 179.317 263.552 179.112 263.663 178.891C264.013 178.193 264.448 177.326 264.517 176.369C264.585 175.413 264.192 174.213 263.171 173.695C262.64 173.461 262.059 173.363 261.481 173.41C260.719 173.432 259.958 173.499 259.204 173.609C259.204 173.581 259.233 173.555 259.244 173.533C259.571 172.87 259.813 172.289 260.072 171.72C260.399 170.933 260.766 170.163 261.17 169.412C261.748 168.447 262.094 167.361 262.183 166.24C262.229 165.633 262.14 165.025 261.925 164.457C261.71 163.888 261.373 163.374 260.937 162.95C259.748 161.866 258.183 161.846 256.669 161.812C255.44 161.795 254.282 161.781 253.408 161.212L253.306 161.368C252.486 144.844 251.388 127.962 248.246 111.538C247.074 105.412 245.455 98.4203 241.025 93.0053C236.187 87.1038 229.074 84.2469 221.636 82.477C219.286 65.057 217.74 46.9454 224.965 32.5217C224.965 32.5217 225.281 31.779 224.8 31.5628C224.712 31.5152 224.614 31.4875 224.514 31.4814C224.414 31.4753 224.314 31.4911 224.22 31.5277C224.127 31.5642 224.043 31.6207 223.973 31.693C223.904 31.7654 223.851 31.8521 223.818 31.9469C216.5 46.5613 217.962 64.6956 220.299 82.1697C216.947 81.4299 213.552 80.8835 210.285 80.36C200.793 78.8433 193.338 76.1856 187.969 72.4467C187.691 67.2845 187.755 62.1095 188.162 56.9559C192.817 59.0786 197.637 60.8769 201.189 60.8769C203.058 60.8769 204.575 60.379 205.528 59.1696C207.992 56.0396 210.741 49.8848 212.889 43.9264C215.547 42.9333 214.374 40.398 214.374 40.398C213.874 40.0195 216.295 38.796 216.705 36.9265C216.941 35.8338 216.523 34.8436 215.931 34.0383C216.033 33.6229 214.901 32.7863 214.881 32.9001C214.673 32.718 214.471 32.5501 214.312 32.4193C212.843 31.2811 211.7 32.6611 211.7 32.6611C211.7 32.6611 211.37 30.9083 209.54 31.1729C207.71 31.4376 202.711 35.6887 200.844 35.9391C200.844 35.9391 202.065 41.9146 208.453 43.2321C210.115 43.7699 210.781 44.137 211.421 44.2081C209.335 49.8649 206.757 55.553 204.526 58.3843C201.681 62.0037 189.707 56.4977 185.271 54.3522C185.493 53.9084 185.715 53.4645 185.937 53.0262C186.845 51.2364 187.784 49.384 188.595 47.506C190.043 44.1341 190.828 41.2004 190.988 38.5314C191.006 37.428 190.911 36.3258 190.703 35.242C190.464 33.6826 190.236 32.2115 190.689 31.1616C190.973 30.4786 191.984 29.5908 192.951 28.7344C193.998 27.8039 195.082 26.845 195.663 25.8462C196.727 24.0108 197.43 21.9507 197.97 20.178C197.97 20.178 198.32 19.3243 197.686 19.1451C196.963 18.943 196.755 19.7967 196.755 19.7967C196.235 21.504 195.566 23.4731 194.564 25.2031C194.086 26.0198 193.085 26.9104 192.112 27.764C190.99 28.7571 189.932 29.6961 189.525 30.6437C188.925 32.0323 189.189 33.7566 189.445 35.4241C189.637 36.4197 189.727 37.4322 189.713 38.446C189.562 40.9614 188.811 43.7557 187.437 46.9824C186.643 48.8263 185.712 50.6588 184.813 52.4315C183.294 55.4221 181.726 58.5123 180.733 61.796C178.047 70.6825 179.717 80.1665 181.333 89.3375C183.131 99.5414 184.833 109.182 181.142 118.196C179.888 121.258 177.856 123.011 175.705 124.863C174.282 126.095 172.794 127.37 171.565 129.055C169.835 131.431 168.608 134.083 167.422 136.646C165.931 139.876 164.386 143.217 161.816 146.037C152.617 156.149 140.76 158.671 129.313 152.954C121.51 149.058 115.529 141.541 113.31 132.839C112.047 127.871 111.947 122.519 111.85 117.343C111.714 109.944 111.566 102.279 107.995 95.6658C106.991 93.9244 105.877 92.2488 104.66 90.6492C103.755 89.3944 102.819 88.0883 102.014 86.768C99.2313 82.1224 97.8197 76.7847 97.9417 71.3711C98.0299 67.8882 98.7697 64.3683 99.4868 60.9708C100.34 56.9644 101.194 52.8242 101.043 48.6414C101.043 48.6414 101.129 47.7137 100.318 47.7137C99.7315 47.7137 99.7486 48.6897 99.7486 48.6897C99.9051 52.7132 99.0486 56.7766 98.2177 60.7034C97.4921 64.1635 96.7381 67.7374 96.647 71.3398C96.5584 75.7833 97.4553 80.1913 99.2734 84.2469C96.9344 85.8034 94.2369 86.9871 91.5907 88.1168C86.6937 90.211 81.6316 92.385 78.9712 97.0857C76.9167 100.717 76.8314 105.082 76.9224 109.239C77.5225 137.784 82.9207 166.025 92.8911 192.779C94.3394 196.669 95.9812 200.747 98.6901 204.07C101.738 207.806 105.758 209.963 109.739 210.023C110.049 211.5 110.373 213.051 110.712 214.644L113.518 228.22L113.663 228.274C114.516 232.135 115.37 235.846 116.153 239.058C115.145 242.388 99.9165 293.214 93.0305 343.402C93.0305 343.402 92.9309 344.421 93.5142 344.478C94.2682 344.552 94.2995 343.576 94.2995 343.576C97.2218 322.294 101.644 300.894 105.844 283.078C112.388 286.376 119.063 289.788 125.796 293.233C140.993 301.016 156.709 309.06 171.778 316.137L172.179 316.327L172.498 316.017C190.261 298.739 208.893 282.376 228.32 266.992C233.988 281.14 241.047 300.543 244.323 316.672C244.323 316.672 244.553 317.491 245.116 317.36C245.745 317.212 245.583 316.416 245.583 316.416C239.838 288.143 222.535 249.891 221.28 247.114C221.502 244.707 221.73 241.949 221.957 238.967C230.047 236.884 237.269 234.716 243.443 230.243C244.561 229.489 245.547 228.555 246.36 227.48C246.943 226.59 247.421 225.635 247.783 224.635C250.836 217.001 252.975 209.033 254.156 200.898C254.975 200.438 255.724 199.863 256.379 199.19L259.847 195.932C260.582 195.297 261.224 194.561 261.754 193.747C262.55 192.407 262.787 190.728 262.536 188.554C262.644 188.463 262.758 188.386 262.863 188.292C263.549 187.669 264.286 186.898 264.588 185.882C264.841 185.031 264.741 184.18 264.65 183.429ZM206.262 36.5338C206.262 36.5338 208.103 35.7826 208.794 35.7143C209.967 35.5948 211.89 35.9562 212.983 36.9863C213.209 37.1993 213.423 37.4254 213.623 37.6635C213.521 38.0021 213.421 38.335 213.313 38.6822C210.85 38.4097 208.459 37.6811 206.262 36.5338ZM261.509 174.693C261.876 174.658 262.246 174.708 262.59 174.839C263.083 175.089 263.27 175.763 263.236 176.284C263.188 176.981 262.832 177.69 262.516 178.316C262.451 178.447 262.388 178.563 262.323 178.691L261.731 179.83C261.062 181.016 260.331 182.043 259.332 182.772C258.479 183.395 257.446 183.779 256.373 184.152C254.151 184.92 251.872 185.609 249.598 186.195C248.665 186.434 248.104 186.411 247.828 186.127C247.467 185.748 247.675 184.926 247.828 184.471C248.757 181.818 250.519 179.538 252.85 177.969C253.016 178.179 253.225 178.351 253.462 178.475C253.699 178.599 253.96 178.67 254.228 178.686C254.591 178.672 254.945 178.565 255.255 178.376C256.663 177.599 257.653 176.352 258.436 175.043C259.449 174.842 260.477 174.724 261.509 174.693ZM253.001 171.202C253.604 169.165 254.876 167.361 256.043 165.867L255.03 165.079C254.549 165.696 254.057 166.379 253.59 167.099C253.52 165.608 253.449 164.113 253.377 162.614C254.407 163.05 255.548 163.092 256.663 163.107C257.995 163.127 259.253 163.144 260.078 163.901C260.374 164.196 260.601 164.554 260.744 164.947C260.887 165.34 260.942 165.76 260.906 166.177C260.823 167.103 260.531 167.998 260.052 168.795C259.625 169.579 259.24 170.386 258.897 171.211C258.658 171.76 258.416 172.323 258.097 172.963C257.298 174.574 256.265 176.344 254.629 177.232C254.504 177.311 254.363 177.363 254.216 177.382C254.037 177.382 253.806 177.183 253.573 176.839C252.609 175.379 252.392 173.268 253.001 171.202ZM181.945 62.1944C182.667 59.9445 183.568 57.756 184.639 55.6498C185.388 55.9059 186.412 56.1677 186.933 56.4152C186.509 61.4306 186.414 66.4684 186.648 71.4963C184.485 69.8346 182.624 67.8133 181.145 65.5208C181.348 64.3977 181.615 63.287 181.945 62.1944ZM220.748 237.957H220.7L220.737 238.099C220.486 241.443 220.233 244.513 219.986 247.154V247.324L220.057 247.481C220.136 247.657 223.713 255.448 228.189 266.614L227.62 265.905C208.24 281.248 189.651 297.563 171.923 314.788C157.007 307.76 141.446 299.792 126.396 292.092C119.567 288.595 112.798 285.132 106.162 281.792C112.018 257.11 117.353 239.565 117.444 239.263L117.496 239.095L117.456 238.925C116.716 235.891 115.914 232.4 115.1 228.752C119.832 230.271 137.863 235.504 160.994 235.504C161.432 235.504 161.882 235.504 162.323 235.49C164.152 249.207 164.173 263.104 162.385 276.826C162.385 276.826 162.266 277.62 162.934 277.743C163.504 277.851 163.66 276.991 163.66 276.991C165.45 263.213 165.433 249.259 163.609 235.484C170.324 235.381 177.024 234.801 183.658 233.749C197.672 231.649 210.672 227.332 221.901 221.018C221.528 226.996 221.149 232.807 220.748 237.957ZM182.927 232.551C178.524 233.191 174.092 233.609 169.647 233.803C152.91 234.528 134.95 232.38 114.764 227.244C113.819 222.976 112.869 218.565 111.995 214.439L108.205 196.097L108.171 195.929V195.884L107.978 195.767C104.791 193.249 101.572 187.882 98.6531 181.676C102.768 183.676 106.996 185.432 111.315 186.938C122.871 191.289 135.026 193.842 147.356 194.509C148.283 194.575 148.824 194.598 148.875 194.598H148.901H148.972C149.029 194.598 149.825 194.47 151.248 194.236C190.094 188.261 218.936 175.706 224.51 173.16L222.003 219.479C209.002 226.592 195.634 230.556 182.927 232.545V232.551ZM246.602 224.154C246.273 225.066 245.839 225.937 245.31 226.749C244.577 227.707 243.692 228.537 242.689 229.207C236.805 233.475 229.848 235.607 222.063 237.618C222.458 232.337 222.851 226.382 223.232 220.261C223.346 220.196 223.463 220.136 223.576 220.068L223.275 219.55V219.527C224.621 197.722 225.748 174.21 225.836 172.292C230.35 162.376 234.037 152.105 236.862 141.583C236.862 141.583 237.007 140.858 236.506 140.716C235.954 140.559 235.624 141.25 235.624 141.25C232.826 151.66 229.177 161.822 224.715 171.635C195.017 185.148 159.859 191.513 151.018 192.976C150.289 193.087 149.569 193.203 148.835 193.309C148.4 193.292 147.962 193.26 147.524 193.237C143.161 192.933 128.268 191.53 111.799 185.76C106.914 183.926 102.157 181.77 97.5576 179.306C91.6533 166.032 87.2059 150.231 87.1376 149.997C87.1376 149.997 86.927 149.252 86.2583 149.411C85.5897 149.571 85.8998 150.342 85.8998 150.342C86.1843 151.346 90.5919 167.013 96.5247 180.205V180.219H96.5474L96.7552 180.683C97.3072 182.22 101.308 192.967 107.022 196.689C107.252 197.827 108.202 202.539 109.491 208.725C106.026 208.566 102.398 206.563 99.7059 203.265C97.1222 200.095 95.5259 196.128 94.1174 192.338C84.1965 165.719 78.8252 137.62 78.2285 109.219C78.1431 105.235 78.2285 101.072 80.1122 97.7203C82.5564 93.3923 87.203 91.4033 92.1199 89.3033C94.752 88.1651 97.4438 86.9928 99.8339 85.4278C100.175 86.1078 100.54 86.7765 100.929 87.4196C101.76 88.7968 102.711 90.1143 103.633 91.4033C104.813 92.9682 105.893 94.6068 106.865 96.3089C110.294 102.649 110.425 109.814 110.564 117.4C110.664 122.65 110.76 128.079 112.064 133.189C114.374 142.246 120.6 150.077 128.738 154.135C132.972 156.249 137.254 157.29 141.446 157.29C149.128 157.29 156.526 153.779 162.761 146.936C165.464 143.968 167.049 140.533 168.585 137.216C169.798 134.592 170.944 132.114 172.598 129.843C173.736 128.275 175.099 127.106 176.538 125.859C178.71 123.99 180.957 122.055 182.326 118.711C186.156 109.35 184.346 99.0776 182.594 89.1411C181.322 81.9108 180.033 74.4812 180.886 67.3959C186.102 74.5865 195.919 79.3783 210.109 81.6461C213.501 82.1896 217.035 82.7559 220.506 83.5412C220.506 83.5953 220.506 83.6493 220.526 83.7034L220.944 83.6465C228.343 85.3538 235.379 88.1168 240.06 93.839C244.297 99.0235 245.871 105.827 247.012 111.797C250.605 130.577 251.519 150.023 252.401 168.82H252.62C252.282 169.473 252.003 170.153 251.786 170.855C251.132 173.012 251.311 175.16 252.165 176.867C249.581 178.595 247.627 181.114 246.596 184.047C246.149 185.344 246.246 186.343 246.881 187.006C247.1 187.219 247.361 187.384 247.646 187.492C247.932 187.599 248.237 187.647 248.542 187.632C249.001 187.622 249.456 187.553 249.897 187.427C250.073 187.381 250.25 187.325 250.426 187.279C249.918 188.17 249.554 189.137 249.348 190.142C249.231 190.739 249.117 191.621 249.49 192.418C249.66 192.761 249.9 193.064 250.194 193.309C250.488 193.554 250.829 193.735 251.197 193.841C250.596 194.67 250.117 195.581 249.774 196.547C249.205 198.163 249.328 199.549 250.127 200.451C250.409 200.756 250.754 200.997 251.137 201.157C251.521 201.317 251.934 201.392 252.35 201.378C252.498 201.373 252.646 201.359 252.793 201.336C251.61 209.152 249.532 216.806 246.602 224.148V224.154ZM260.661 193.087C260.189 193.797 259.621 194.438 258.974 194.993L255.505 198.28C254.811 198.934 254.082 199.617 253.229 199.933C252.557 200.186 251.596 200.189 251.075 199.603C250.409 198.849 250.79 197.514 250.972 196.976C251.365 195.893 251.954 194.892 252.711 194.023C253.698 193.926 254.595 193.519 255.497 193.064C257.549 192.056 259.509 190.868 261.353 189.516C261.432 190.99 261.207 192.151 260.661 193.087ZM263.364 185.518C263.159 186.226 262.565 186.832 262.01 187.333C259.827 189.325 257.201 190.748 254.922 191.92C254.068 192.358 253.277 192.722 252.463 192.774C251.817 192.802 250.967 192.549 250.662 191.9C250.5 191.547 250.486 191.075 250.617 190.406C250.885 189.074 251.47 187.827 252.324 186.77C253.821 186.34 255.317 185.882 256.783 185.373C257.952 184.969 259.082 184.545 260.081 183.819C261.133 183.006 262.005 181.984 262.642 180.817C263.065 181.689 263.32 182.633 263.396 183.6C263.455 184.24 263.546 184.92 263.364 185.509V185.518Z" fill="#32592C"/>
<path d="M110.768 84.4517C111.517 85.8232 112.291 87.246 112.919 88.6829C115.788 95.2475 115.916 102.64 115.802 109.648L115.768 111.546C115.645 118.108 115.517 124.892 117.347 131.3C119.134 137.56 123.795 145.035 131.506 147.217C131.506 147.217 132.479 147.693 132.86 146.839C133.145 146.196 131.856 145.985 131.856 145.985C124.651 143.948 120.272 136.88 118.579 130.953C116.801 124.727 116.929 118.04 117.051 111.575L117.085 109.671C117.202 102.521 117.068 94.9715 114.095 88.1707C113.443 86.6826 112.658 85.237 111.895 83.8399C110.592 81.444 109.357 79.1847 108.711 76.6636C107.405 71.5901 108.711 66.1353 109.869 61.3464L112.581 50.0669C112.626 49.9825 112.65 49.889 112.654 49.7935C112.657 49.6981 112.638 49.6031 112.599 49.5159C112.56 49.4287 112.502 49.3515 112.429 49.2902C112.356 49.2288 112.269 49.185 112.177 49.162C111.374 48.8945 111.323 49.7681 111.323 49.7681L108.62 61.0561C107.431 66.0016 106.085 71.6072 107.468 76.9908C108.156 79.6542 109.485 82.0928 110.768 84.4517Z" fill="#32592C"/>
<path d="M124.623 95.0625C124.672 96.5336 124.703 98.0047 124.737 99.4786C124.877 105.525 125.022 111.777 126.225 117.821C127.429 123.864 130.323 132.25 137.209 137.702C140.899 140.622 145.459 142.225 150.164 142.255C153.416 142.255 156.558 141.438 159.159 139.762C159.159 139.762 159.989 139.574 159.588 138.641C159.375 138.146 158.464 138.681 158.464 138.681C152.725 142.38 144.12 141.543 138.005 136.689C131.43 131.479 128.658 123.415 127.477 117.565C126.291 111.629 126.151 105.434 126.015 99.4445C125.981 97.9677 125.949 96.488 125.901 95.0141C125.656 87.5675 125.002 79.6883 121.917 72.5348C121.917 72.5348 121.747 71.7153 120.995 71.9827C120.244 72.2502 120.737 73.0413 120.737 73.0413C123.747 80.007 124.382 87.741 124.623 95.0625Z" fill="#32592C"/>
</svg>
