<svg width="380" height="434" viewBox="0 0 380 434" fill="none" xmlns="http://www.w3.org/2000/svg">
<path d="M40.9999 223.709C42.5 247.498 52.5708 282.633 62.7854 296.316C73 309.998 90.188 329.591 109.761 333.352C129.333 337.113 150.93 325.001 166.994 314.547C183.057 304.093 191.685 287.237 192.261 274.453C192.838 261.67 189.865 242.648 178.861 223.709C167.856 204.77 155.998 197.576 125.5 179.498C95.0021 161.421 76.7011 165.011 65.0003 172.498C53.2996 179.986 39.6819 202.805 40.9999 223.709Z" fill="#4C8C42"/>
<path d="M320.018 54.2242C297.152 47.4887 260.693 44.9216 244.34 49.8344C227.987 54.7471 203.694 64.1885 193.459 81.2905C183.224 98.3925 187.21 122.831 191.533 141.503C195.855 160.175 208.738 174.052 220.552 178.971C232.366 183.889 251.256 187.608 272.818 183.753C294.38 179.898 305.199 171.219 332.626 148.754C360.052 126.288 362.945 107.864 359.916 94.3071C356.887 80.7499 340.109 60.1425 320.018 54.2242Z" fill="#8676FB" fill-opacity="0.2"/>
<path d="M297.926 251.26C297.84 249.951 297.413 248.728 297.044 247.476C296.617 245.996 296.161 244.545 295.706 243.094C294.852 240.362 293.942 237.63 293.003 234.899C291.125 229.492 289.104 224.142 286.913 218.821C283.157 209.687 278.974 200.724 274.336 191.988C270.693 185.102 266.795 178.329 262.669 171.728C261.075 169.224 259.51 166.663 257.775 164.244C255.014 160.374 251.23 157.358 246.848 155.565C241.839 153.488 236.205 153.317 230.941 152.236C225.961 151.212 220.811 149.362 217.197 145.634C215.119 143.472 213.839 140.854 212.957 138.037C214.408 137.951 215.802 137.496 216.997 136.671C216.4 137.411 215.66 138.037 214.835 138.492C214.493 138.663 214.522 139.346 214.949 139.403C219.786 140.029 224.652 138.264 227.981 134.679C227.64 135.874 227.298 137.098 226.985 138.293C226.929 138.549 227.071 138.833 227.355 138.89C227.384 138.89 227.441 138.919 227.469 138.919C234.583 138.919 241.043 133.712 242.864 126.939C243.177 129.13 242.778 131.35 241.725 133.313C241.583 133.569 241.669 133.854 241.925 133.996C242.039 134.053 242.181 134.081 242.295 134.053C248.014 132.317 249.38 125.317 247.274 120.366C244.372 113.537 237.4 110.122 232.506 105C229.575 101.899 227.213 97.744 227.868 93.3619C227.953 92.7359 227.014 92.4798 226.928 93.1058C225.876 100.106 231.14 105.512 236.091 109.581C240.986 113.565 247.701 118.516 247.274 125.63C247.104 128.476 245.652 131.35 243.12 132.659C244.173 130.069 244.23 127.224 243.262 124.606C243.177 124.35 242.892 124.207 242.636 124.293C242.437 124.35 242.295 124.549 242.295 124.748C241.526 131.833 235.181 137.61 228.124 137.951L229.603 132.659C229.66 132.403 229.518 132.118 229.233 132.061C229.034 132.004 228.807 132.09 228.693 132.289C226.018 136.329 221.437 138.72 216.599 138.577C217.851 137.553 218.762 136.159 219.189 134.594C219.331 134.025 218.619 133.768 218.278 134.224C216.969 136.016 214.92 137.098 212.701 137.126C212.103 134.85 211.591 132.573 211.221 130.24C210.14 124.008 209.371 117.691 209.371 111.346C209.371 108.216 209.57 105.086 209.997 101.984C210.794 102.012 211.591 101.87 212.331 101.557C214.721 100.561 215.603 98.0286 215.916 95.6668C216.001 95.0408 215.006 95.0408 214.92 95.6668C214.664 97.744 213.839 100.049 211.648 100.789C210.879 101.045 210.083 101.102 209.314 100.931C209.058 100.874 208.774 101.016 208.717 101.272C208.432 102.354 208.176 103.435 207.863 104.516C207.266 106.508 206.156 108.415 204.961 110.094C202.03 114.163 197.904 117.207 193.465 119.484C188.485 122.016 183.05 123.781 177.672 125.346C175.111 126.086 172.151 126.768 169.675 125.431C167.371 124.179 166.232 121.561 165.236 119.285C162.704 113.338 161.053 107.049 160.37 100.618C160.314 99.992 159.318 99.992 159.375 100.618C160.001 106.679 161.48 112.598 163.757 118.26C164.724 120.651 165.72 123.24 167.57 125.061C169.419 126.882 171.867 127.338 174.342 127.025C175.737 126.825 177.131 126.541 178.468 126.114C178.895 130.325 179.208 134.707 178.582 138.919C176.733 138.407 175.281 136.955 174.769 135.077C174.684 134.821 174.399 134.679 174.143 134.764C174.001 134.821 173.858 134.935 173.83 135.077C173.232 136.87 172.976 138.748 173.09 140.626C169.989 140.114 167.228 138.435 165.379 135.931C165.236 135.703 164.923 135.618 164.696 135.76C164.582 135.817 164.525 135.931 164.497 136.045C164.07 137.752 164.297 139.516 165.123 141.053C162.391 140.455 159.631 139.716 157.297 138.151C154.907 136.529 153.029 133.911 153.2 130.951C153.285 129.358 153.883 127.878 154.423 126.399C154.964 124.947 155.419 123.468 155.761 121.931C157.126 115.642 156.415 109.069 153.769 103.207C153.513 102.638 152.659 103.122 152.915 103.72C155.675 109.866 156.216 116.781 154.423 123.268C153.598 126.228 151.862 129.13 152.261 132.289C152.574 134.85 154.196 137.069 156.216 138.606C159.033 140.768 162.618 141.565 166.033 142.305C166.403 142.39 166.887 141.935 166.602 141.565C165.663 140.37 165.236 138.89 165.322 137.382C167.456 139.801 170.415 141.366 173.659 141.736C173.944 141.736 174.143 141.508 174.143 141.252C174.001 139.744 174.086 138.236 174.428 136.756C175.281 138.321 176.733 139.488 178.44 139.915C178.098 141.907 177.472 143.87 176.619 145.691C171.924 147.029 167.2 148.281 162.59 149.846C148.675 154.626 138.46 166.606 135.898 181.118C132.711 199.301 129.809 217.598 125.085 235.468C122.894 243.777 119.707 251.659 116.577 259.626C112.622 269.671 108.609 279.687 104.939 289.846C103.117 294.911 101.382 300.033 99.7597 305.155C98.9629 307.716 98.1092 310.248 97.3694 312.809C97.1133 313.72 96.9141 314.63 96.8003 315.541C96.7718 315.541 97.0564 316.394 94.7514 321.773C92.2189 327.691 92.2473 336.399 92.4465 337.366C93.2433 341.35 93.414 345.362 93.6132 348.122C93.9547 353.016 94.1539 355.748 96.1458 356.033C96.3734 358.451 96.8003 360.244 97.4547 360.927C97.7393 361.24 98.0808 361.496 98.4792 361.695C98.7637 361.809 99.0767 361.866 99.3897 361.866C99.7881 361.838 100.158 361.667 100.443 361.411C100.67 362.407 100.983 363.203 101.353 363.573C101.467 363.687 101.581 363.773 101.723 363.829C101.837 363.886 101.951 363.886 102.065 363.915C103.288 363.915 103.914 362.919 104.227 362.207L104.284 362.236C104.37 362.264 104.483 362.293 104.597 362.293C106.731 362.236 107.699 357.683 108.752 351.764C109.008 350.342 109.207 349.146 109.406 348.378C109.634 347.525 109.947 345.96 110.288 344.167C110.288 347.838 110.544 352.049 111.569 352.903C111.654 352.96 111.74 353.016 111.825 353.073C111.939 353.102 112.053 353.13 112.166 353.102C112.252 353.557 112.309 354.041 112.394 354.525C112.394 354.667 112.422 354.838 112.422 354.951C112.422 355.008 112.451 355.094 112.479 355.151C114.727 368.695 118.74 388.984 122.041 401.305C122.126 401.561 122.41 401.703 122.667 401.618C122.894 401.533 123.036 401.305 122.98 401.049C119.48 387.903 115.439 367.586 113.305 354.155V354.126C113.191 353.358 113.105 352.59 113.02 351.821C113.447 350.484 113.959 348.407 113.845 348.179C114.244 346.045 114.67 343.37 115.126 340.468C115.297 339.329 115.467 338.277 115.61 337.423C115.951 335.403 114.898 328.801 114.471 328.431C113.731 325.813 112.679 322.882 111.455 319.61C111.54 317.22 111.683 314.829 111.91 312.468C126.28 316.451 139.086 324.703 148.618 336.142C150.866 338.846 152.687 342.118 155.448 344.394C156.33 345.106 157.326 345.675 158.407 346.016L149.387 403.354C149.387 403.354 149.244 404.094 149.728 404.179C150.212 404.264 150.382 403.61 150.382 403.61L163.33 346.13C163.871 345.988 164.383 345.817 164.895 345.618C166.716 344.85 168.367 343.768 170.017 342.659L175.793 338.76C179.663 336.171 183.505 333.581 187.375 330.992C195.229 325.728 203.936 320.065 213.839 321.403C214.949 345.476 207.749 372.252 192.355 400.992C192.212 401.22 192.269 401.504 192.469 401.675C192.867 401.931 193.18 401.447 193.18 401.447C208.66 372.48 216.03 345.305 214.806 320.976V320.947C214.721 319.041 214.55 317.163 214.351 315.285C214.323 315.057 214.294 314.801 214.266 314.573C214.123 313.293 213.981 312.041 213.782 310.789C213.725 310.333 213.64 309.878 213.554 309.423V309.338C212.985 305.838 212.217 302.366 211.278 298.951C216.144 300.943 221.607 301.199 226.701 300.004C227.981 299.691 229.262 299.577 230.542 299.264C231.965 298.923 233.388 298.496 234.782 297.984C237.998 296.789 241.099 295.366 244.144 293.773C251.457 289.931 258.429 285.407 265.23 280.74C271.946 276.13 278.49 271.264 284.95 266.342C287.425 264.435 289.901 262.529 292.348 260.622C293.629 259.655 294.995 258.716 295.962 257.435C297.385 255.642 298.039 253.451 297.926 251.26ZM111.939 304.642C111.853 305.183 111.768 305.724 111.711 306.264C111.597 306.549 111.455 306.805 111.313 307.061C110.459 308.569 109.577 310.049 108.695 311.557C108.439 311.984 107.87 312.553 107.955 313.122C108.04 313.407 108.183 313.663 108.325 313.89C108.524 314.346 108.723 314.829 108.894 315.313C109.122 315.968 109.492 316.764 109.861 317.59C110.146 318.301 110.402 319.012 110.658 319.695C110.715 319.894 110.772 320.094 110.886 320.293C113.703 327.833 115.467 333.581 114.87 337.281C114.727 338.134 114.557 339.187 114.386 340.325C113.76 344.394 112.792 350.399 112.138 352.163C111.569 351.451 111.227 347.752 111.256 343C111.284 342.943 111.284 342.886 111.256 342.829C111.284 341.549 111.313 340.212 111.37 338.817C111.37 338.789 111.37 338.732 111.341 338.703C111.91 335.403 112.394 332.529 112.422 332.273C112.508 332.045 112.366 331.789 112.138 331.732C111.91 331.675 111.654 331.789 111.597 332.016C111.569 332.073 111.569 332.102 111.569 332.159C111.569 332.273 109.463 345.077 108.609 348.179C108.41 348.976 108.183 350.199 107.926 351.622C107.329 355.037 106.191 361.382 104.597 361.439C104.569 361.382 104.54 361.354 104.512 361.297C104.512 361.24 104.483 361.183 104.455 361.126C104.056 359.675 104.37 353.899 104.796 351.451C105.138 349.46 106.219 339.216 106.248 338.789C106.219 338.561 106.02 338.362 105.792 338.39C105.622 338.39 105.451 338.533 105.394 338.703C105.365 338.817 104.284 349.346 103.943 351.309C103.743 352.447 103.032 358.821 103.658 361.268V361.297C103.658 361.325 103.288 363.09 102.121 363.09C101.239 362.919 100.3 356.147 100.471 350.996C100.585 348.691 100.841 346.415 101.211 344.138C101.467 342.175 101.78 339.984 102.008 337.48C102.036 337.224 101.837 337.025 101.609 336.996C101.382 336.968 101.154 337.167 101.126 337.394C100.898 339.87 100.613 341.976 100.329 343.996C99.9589 346.301 99.7312 348.606 99.5889 350.939C99.532 352.96 99.6743 357.313 100.243 360.415C100.215 360.443 100.158 360.472 100.158 360.5C99.9589 360.756 99.6743 360.955 99.3328 361.012C98.9629 361.041 98.5361 360.813 98.1092 360.358C96.658 358.85 96.4588 348.976 97.6539 337.366C97.6255 337.11 97.5401 336.854 97.3409 336.626C96.6864 336.427 96.4588 337.394 96.658 337.394C96.032 343.712 95.7474 350.427 96.0889 355.122C95.0076 354.638 94.8084 352.134 94.5238 348.094C94.3246 345.305 94.0685 341.833 93.4425 337.793C93.3287 337.025 92.7311 330.651 95.5198 322.427C95.975 321.061 96.6011 319.838 97.284 318.329C97.3409 318.159 97.3978 317.988 97.4263 317.817C97.4547 317.76 97.4832 317.732 97.4832 317.732C97.597 315.854 97.7109 315.825 98.1092 314.004C98.6783 311.529 99.5889 309.053 100.357 306.606C101.865 301.712 103.487 296.846 105.195 292.037C108.638 282.362 112.422 272.801 116.207 263.24C119.366 255.273 122.78 247.333 125.114 239.081C129.809 222.549 132.768 205.476 135.642 188.573C136.439 183.85 137.008 179.069 138.659 174.516C141.931 165.525 148.391 158.041 156.785 153.431C161.196 151.012 166.005 149.76 170.785 148.366C172.493 147.854 174.2 147.37 175.936 146.858V146.886C175.452 147.712 174.94 148.48 174.371 149.248C174.029 149.732 173.659 150.187 173.261 150.642C171.61 152.691 169.789 154.598 167.826 156.333C166.062 157.899 164.24 159.378 162.391 160.829C161.48 161.541 160.57 162.252 159.659 162.992C159.375 163.22 159.118 163.447 158.834 163.675C158.805 163.675 158.777 163.675 158.777 163.703C158.663 163.789 158.549 163.903 158.435 163.988C158.322 163.988 158.208 164.016 158.151 164.216C156.444 165.325 154.907 166.89 153.484 168.37C149.5 172.183 145.915 176.423 142.756 180.976C142.557 181.26 142.329 181.573 142.13 181.886C141.988 182.114 141.817 182.342 141.647 182.598C141.504 182.825 141.305 183.167 141.134 183.451C140.964 183.736 140.793 183.992 140.622 184.248C140.537 184.39 140.451 184.561 140.366 184.732C140.11 185.159 139.882 185.586 139.655 186.012C139.427 186.439 139.142 186.923 138.915 187.378C138.659 187.89 138.403 188.431 138.146 188.972C137.976 189.313 137.833 189.655 137.663 190.025C137.35 190.764 137.065 191.533 136.781 192.301C136.724 192.443 136.667 192.586 136.638 192.728C135.272 196.541 134.646 200.553 134.789 204.594C134.789 204.622 134.789 204.651 134.789 204.707C134.789 204.821 134.789 204.935 134.789 205.049C134.846 205.903 134.959 206.728 135.073 207.581C135.073 207.638 135.073 207.724 135.102 207.781C135.13 207.894 135.159 208.037 135.159 208.151C135.216 208.435 135.272 208.72 135.329 209.004C135.386 209.289 135.443 209.573 135.529 209.858C135.614 210.142 135.671 210.399 135.728 210.683C135.785 210.968 135.898 211.252 135.984 211.565C136.041 211.707 136.069 211.878 136.098 212.02C136.126 212.163 136.183 212.248 136.212 212.333C136.325 212.646 136.439 212.988 136.553 213.301C136.638 213.529 136.724 213.785 136.809 214.012C136.838 214.098 136.866 214.183 136.894 214.268C136.923 214.354 136.98 214.439 137.008 214.525C137.122 214.838 137.264 215.122 137.378 215.435C137.634 216.004 137.89 216.573 138.175 217.114C138.46 217.655 138.46 217.825 138.46 218.451V218.48C138.46 218.48 138.46 218.508 138.46 218.537C138.46 219.362 138.431 220.187 138.403 221.012C138.374 222.293 138.317 223.545 138.232 224.825C138.033 228.098 137.72 231.399 137.293 234.642C136.667 239.224 135.699 243.748 134.39 248.216C133.793 250.179 133.138 252.114 132.455 254.02C132.313 254.39 132.142 254.789 132 255.159C131.545 256.268 131.089 257.378 130.606 258.488C130.463 258.829 130.293 259.171 130.15 259.512C129.524 260.85 128.87 262.159 128.215 263.468C128.045 263.781 127.874 264.094 127.732 264.407C126.252 267.11 124.602 269.728 123.008 272.374C122.837 272.659 122.695 272.915 122.553 273.199C121.955 274.195 121.386 275.191 120.874 276.216C120.845 276.244 120.845 276.273 120.845 276.301L120.817 276.386C120.219 277.553 119.65 278.748 119.11 279.943C118.996 280.228 118.853 280.512 118.711 280.797C118.171 281.992 117.687 283.216 117.203 284.439C117.146 284.638 117.061 284.809 117.004 285.008C116.605 286.09 116.236 287.142 115.866 288.224C115.809 288.423 115.723 288.622 115.666 288.821C115.61 288.964 115.581 289.106 115.524 289.248C115.126 290.529 114.727 291.781 114.386 293.09C114.329 293.317 114.272 293.573 114.215 293.801C113.902 295.025 113.589 296.248 113.333 297.472C113.305 297.614 113.276 297.728 113.248 297.87C113.248 297.927 113.219 297.984 113.219 298.069C113.191 298.212 113.162 298.382 113.105 298.525C112.821 299.862 112.565 301.199 112.337 302.537C112.309 302.622 112.309 302.707 112.28 302.821C112.138 303.39 112.024 304.016 111.939 304.642ZM111.37 308.939C111.256 309.907 111.142 310.846 111.057 311.813C110.829 314.09 110.687 315.114 110.601 317.049C110.544 316.85 110.459 316.679 110.402 316.508C110.231 316.025 109.634 314.146 109.52 314.203C109.349 313.805 109.207 313.378 109.008 312.98C109.748 311.642 110.573 310.305 111.37 308.939ZM205.331 268.077C205.331 268.049 205.331 268.049 205.331 268.02C205.331 267.992 205.359 267.992 205.359 267.964C208.148 255.955 213.327 244.63 219.815 234.187C221.75 231.086 223.798 228.069 225.933 225.081C225.933 225.081 225.933 225.053 225.933 225.025C225.961 225.025 225.961 224.996 225.989 224.968C228.522 221.468 231.197 218.025 233.957 214.695C234.612 213.899 235.294 213.073 235.977 212.277C236.319 211.878 236.66 211.48 237.002 211.081C237.201 210.882 237.4 210.655 237.571 210.399C239.791 207.838 242.067 205.333 244.4 202.858C247.587 207.638 250.774 212.447 253.961 217.228L269.641 240.846C270.807 242.581 271.946 244.317 273.112 246.081C272.002 248.244 270.238 250.094 268.531 251.801C265.941 254.305 263.238 256.695 260.392 258.915C253.762 264.236 246.762 269.13 239.705 273.882C236.319 276.159 232.876 278.407 229.433 280.626C226.815 282.305 224.197 283.984 221.522 285.606L213.412 279.716C211.42 278.293 209.457 276.842 207.465 275.39C206.469 274.651 205.444 273.74 204.335 273.114C204.619 271.407 204.961 269.728 205.331 268.077ZM190.334 269.529C185.44 270.24 180.346 270.24 175.395 269.955C165.492 269.358 155.561 266.996 146.655 262.557C141.96 260.224 137.606 257.236 133.736 253.679C134.305 252.114 134.846 250.52 135.329 248.927C136.012 246.764 136.61 244.602 137.094 242.382C137.464 240.646 137.777 238.882 138.033 237.118C138.09 236.691 138.175 236.264 138.232 235.838C138.26 235.667 138.289 235.468 138.317 235.297C139.029 230.26 139.427 225.195 139.512 220.102C139.512 219.846 139.541 219.618 139.541 219.362C139.541 219.333 139.541 219.333 139.541 219.305C144.72 221.012 150.411 221.098 155.818 221.012C161.651 220.927 167.399 220.102 173.147 218.992C178.924 217.854 184.7 216.488 190.562 215.833C196.395 215.207 202.2 215.407 207.892 216.915C214.038 218.508 219.587 221.496 224.851 224.996C217.623 235.098 211.42 245.996 207.351 257.748C206.241 260.935 205.302 264.179 204.534 267.451C199.839 268.533 195.03 268.817 190.334 269.529ZM236.632 209.915C236.547 210.313 236.034 210.712 235.778 211.025C235.01 211.935 234.242 212.817 233.502 213.728C230.713 217.086 228.038 220.557 225.449 224.086C220.924 221.041 216.201 218.423 211.022 216.687C205.615 214.923 199.952 214.155 194.261 214.468C182.338 215.037 170.899 219.163 158.976 219.846C155.704 220.016 152.431 219.988 149.187 219.789C145.943 219.618 142.643 219.191 139.541 218.167C139.541 217.996 139.541 217.825 139.512 217.655C139.37 217.142 139.171 216.659 138.886 216.232C138.773 216.004 138.659 215.777 138.573 215.549C138.403 215.207 138.26 214.866 138.118 214.525C138.004 214.268 137.89 213.984 137.805 213.728C137.72 213.472 137.577 213.159 137.492 212.846C137.207 212.049 136.951 211.224 136.752 210.399C136.695 210.114 136.61 209.829 136.553 209.545C136.439 209.033 136.325 208.492 136.24 207.951C135.159 201.378 136.468 194.777 139.37 188.716C139.541 188.374 139.712 188.004 139.911 187.663C140.025 187.464 140.11 187.236 140.224 187.037C141.817 184.106 143.638 181.346 145.659 178.728L146.086 178.216C146.598 177.561 147.11 176.907 147.651 176.281C148.163 175.683 148.675 175.086 149.187 174.488L149.216 174.46C152.118 171.13 155.277 168.029 158.663 165.183V165.297C158.663 165.525 158.805 165.695 159.033 165.781C166.602 168.569 174.769 169.394 182.765 168.142C186.806 167.516 190.676 166.094 194.717 165.468C198.871 164.842 202.656 165.61 206.184 167.886C209.257 169.878 211.961 172.468 214.664 174.915C217.396 177.362 220.156 179.894 222.689 182.569C228.01 188.175 232.364 194.549 234.754 201.947C235.408 203.968 235.921 206.045 236.319 208.151C236.404 208.577 236.746 209.431 236.632 209.915ZM152.687 389.325L159.431 346.5H162.334L152.687 389.325ZM213.896 320.407C205.701 319.411 198.188 322.911 191.416 327.207C183.761 332.073 176.391 337.309 168.85 342.317C165.436 344.565 161.281 346.842 157.326 344.451C154.309 342.63 152.46 339.273 150.326 336.598C145.744 330.85 140.338 325.813 134.248 321.687C127.476 317.077 119.963 313.606 112.081 311.443C112.252 309.707 112.394 307.858 112.707 306.293C113.077 304.358 113.333 302.394 113.703 300.46C113.788 300.033 113.874 299.606 113.959 299.179C114.044 298.752 114.158 298.297 114.244 297.87C114.357 297.301 114.5 296.76 114.614 296.22C114.727 295.764 114.841 295.309 114.955 294.854C115.097 294.313 115.24 293.773 115.382 293.26C115.496 292.805 115.638 292.321 115.78 291.866C115.923 291.354 116.093 290.842 116.236 290.301C116.378 289.817 116.52 289.362 116.691 288.878C116.862 288.366 117.004 287.882 117.203 287.399C117.345 286.972 117.516 286.516 117.658 286.09C117.858 285.577 118.028 285.065 118.227 284.581C118.398 284.155 118.569 283.728 118.74 283.301C118.939 282.817 119.138 282.305 119.366 281.821C119.565 281.394 119.736 280.968 119.935 280.512C120.162 280.029 120.39 279.573 120.589 279.09C120.76 278.691 120.959 278.321 121.158 277.923C121.528 277.212 121.898 276.472 122.297 275.789C122.354 275.703 122.382 275.618 122.439 275.533C123.919 272.915 125.541 270.411 127.049 267.793C127.134 267.651 127.191 267.537 127.276 267.394L127.504 267.025C127.703 266.655 127.902 266.313 128.102 265.943C128.415 265.346 128.756 264.777 129.069 264.179C129.325 263.695 129.553 263.212 129.809 262.728C130.122 262.13 130.407 261.533 130.691 260.935C130.919 260.48 131.118 260.025 131.317 259.541C131.602 258.886 131.915 258.232 132.199 257.577C132.37 257.207 132.512 256.809 132.655 256.439C132.911 255.842 133.138 255.273 133.394 254.675C147.964 267.85 169.192 272.659 188.428 270.752C191.359 270.468 194.261 270.041 197.164 269.671C199.554 269.358 201.944 269.045 204.306 268.533C203.993 269.927 203.709 271.35 203.452 272.773H203.367C200.209 272.488 196.908 272.26 193.721 272.659C192.042 272.801 189.851 273.114 188.883 274.394C188.741 274.594 188.627 274.821 188.542 275.049C188.542 275.077 188.513 275.134 188.513 275.163C188.456 275.39 188.428 275.618 188.428 275.846C188.428 275.903 188.428 275.96 188.428 275.988C188.456 276.216 188.513 276.443 188.599 276.671C188.599 276.699 188.627 276.728 188.655 276.785C188.769 277.012 188.883 277.212 189.054 277.411V277.439C189.168 277.553 189.31 277.667 189.452 277.781C190.164 278.236 190.989 278.151 191.757 278.151H201.375C201.404 278.151 201.432 278.151 201.461 278.151H201.973C202.172 278.179 202.371 278.179 202.57 278.151C202.599 278.207 202.656 278.207 202.713 278.207C202.912 278.435 203.339 278.833 203.396 278.89L204.79 280.427L205.814 281.565L205.16 281.48L204.448 281.366L203.822 281.281C203.538 281.252 203.282 281.224 202.997 281.195C202.798 281.167 202.57 281.167 202.371 281.138C202.087 281.11 201.802 281.081 201.518 281.081L200.92 281.053C200.635 281.053 200.351 281.025 200.038 281.025H199.469C199.156 281.025 198.871 281.053 198.558 281.053C198.387 281.053 198.217 281.081 198.046 281.081C197.704 281.11 197.335 281.167 196.993 281.195C196.879 281.224 196.737 281.224 196.623 281.252C196.139 281.338 195.684 281.423 195.2 281.537C194.318 281.764 193.436 282.02 192.554 282.277C191.558 282.561 190.562 282.931 189.595 283.329C188.684 283.699 187.83 284.183 187.034 284.752C186.607 285.065 186.237 285.435 185.952 285.862C185.326 286.744 185.412 287.911 186.123 288.707C187.233 289.846 188.627 289.333 189.908 288.935L194.802 287.427C195.058 287.342 195.314 287.285 195.542 287.199C195.57 287.199 195.627 287.171 195.684 287.171L195.798 287.142C196.111 287.142 196.395 287.171 196.708 287.199H196.765L201.546 287.569L197.989 288.053C196.993 288.195 195.883 288.195 194.973 288.565C194.603 288.707 194.233 288.878 193.863 289.049C192.383 289.675 190.989 290.472 189.708 291.468C189.452 291.667 189.196 291.866 188.969 292.094C188.798 292.264 188.627 292.464 188.456 292.663C188.399 292.748 188.342 292.862 188.257 292.947C188.172 293.033 188.086 293.175 188.029 293.317C187.973 293.431 187.916 293.573 187.887 293.716C187.83 293.829 187.802 293.943 187.773 294.057C187.716 294.313 187.688 294.569 187.716 294.825C187.745 295.167 187.859 295.508 188.086 295.793C188.086 295.793 188.086 295.793 188.086 295.821C188.172 295.935 188.286 296.02 188.399 296.106L188.428 296.134C188.798 296.39 189.253 296.504 189.68 296.504C190.078 296.504 190.477 296.447 190.847 296.305L192.725 295.594L195.314 294.626C195.855 294.427 196.424 294.199 196.965 294L197.05 293.972C197.192 293.943 197.335 293.943 197.477 293.915L204.761 293.203L206.127 293.061C206.156 293.602 206.184 294.171 206.241 294.712L203.652 295.281C203.111 295.394 202.542 295.537 202.001 295.679C201.574 295.793 201.119 295.878 200.692 295.992C200.066 296.163 199.469 296.362 198.871 296.533C198.53 296.646 198.16 296.732 197.847 296.846C196.908 297.159 195.997 297.529 195.115 297.955C194.916 298.041 194.745 298.126 194.574 298.24C193.55 298.866 192.469 299.862 192.753 300.886C192.867 301.256 193.123 301.598 193.436 301.825C195.03 303.106 197.391 302.878 199.269 302.565C201.802 302.138 204.278 301.285 206.64 300.346H206.668C207.949 299.833 209.201 299.293 210.453 298.695C212.274 305.809 213.469 313.065 213.896 320.407ZM202.542 278.151C202.513 278.151 202.485 278.151 202.457 278.151C202.428 278.151 202.457 278.151 202.457 278.151H202.542ZM202.485 278.065C202.485 278.094 202.513 278.122 202.513 278.122C202.513 278.122 202.485 278.094 202.485 278.065ZM295.535 256.411C294.568 257.833 293.06 258.829 291.722 259.882L288.251 262.557C282.218 267.224 276.129 271.805 269.925 276.244C263.124 281.11 256.181 285.805 248.925 289.988C243.091 293.374 236.831 296.817 230.172 298.325C228.949 298.61 227.697 298.695 226.473 299.008C222.034 300.061 217.225 299.976 212.871 298.496C212.245 298.297 211.477 297.756 210.794 297.671C210.737 297.642 210.652 297.614 210.595 297.614C210.51 297.614 210.424 297.614 210.339 297.671H210.31C210.197 297.699 210.083 297.756 209.997 297.813L209.57 298.012C208.859 298.354 208.148 298.667 207.408 298.98C206.156 299.492 204.904 300.004 203.623 300.431C202.912 300.659 202.2 300.886 201.461 301.086C201.318 301.114 201.176 301.171 201.034 301.199C200.465 301.342 199.867 301.484 199.269 301.598C198.672 301.712 198.074 301.797 197.448 301.854C197.363 301.854 197.306 301.854 197.221 301.882C196.993 301.882 196.765 301.882 196.538 301.882C196.139 301.882 195.713 301.854 195.314 301.768H195.257C194.546 301.626 192.952 301.086 193.55 300.118C193.749 299.833 194.005 299.606 194.318 299.407C194.46 299.321 194.574 299.264 194.717 299.179L195.03 299.037C195.058 299.008 195.115 298.98 195.143 298.98C195.172 298.98 195.286 298.923 195.343 298.894C196.282 298.468 197.249 298.098 198.217 297.813C200.948 296.959 203.737 296.305 206.526 295.679L206.64 295.651C206.867 295.594 207.009 295.394 207.009 295.167C206.953 294.313 206.896 293.46 206.839 292.606C206.839 292.549 206.81 292.492 206.81 292.464C206.753 292.321 206.668 292.207 206.526 292.151C206.469 292.122 206.412 292.122 206.327 292.122L201.489 292.577L198.729 292.833C198.359 292.862 197.989 292.89 197.619 292.919C197.249 292.947 196.879 293.004 196.538 293.061C196.225 293.146 195.94 293.232 195.627 293.346C194.916 293.602 194.204 293.915 193.493 294.199C193.322 294.256 193.152 294.342 192.952 294.399C192.696 294.484 192.44 294.598 192.184 294.712C191.814 294.854 191.473 294.996 191.103 295.138C190.704 295.281 190.277 295.451 189.879 295.565C189.424 295.707 188.912 295.565 188.627 295.195C188.428 294.968 188.371 294.683 188.399 294.399C188.513 293.886 188.769 293.431 189.139 293.061C189.253 292.919 189.395 292.833 189.538 292.72C190.647 291.638 192.07 290.87 193.521 290.216C193.92 290.045 194.318 289.846 194.717 289.703C195.2 289.504 195.713 289.362 196.225 289.305C196.68 289.248 197.164 289.191 197.648 289.134L205.928 288.025H205.985H206.042C206.127 287.996 206.184 287.968 206.241 287.911C206.27 287.882 206.327 287.882 206.355 287.854C206.383 287.768 206.412 287.712 206.383 287.626C206.383 287.598 206.412 287.569 206.383 287.541C206.355 287.455 206.327 287.37 206.27 287.313C206.241 287.285 206.241 287.256 206.241 287.256C206.241 287.256 206.156 287.199 206.099 287.199C206.042 287.142 205.985 287.114 205.928 287.114L204.705 287.029L198.444 286.545C197.505 286.46 196.452 286.232 195.513 286.317C194.66 286.374 193.721 286.829 192.895 287.086L189.595 288.11L188.627 288.394C188.086 288.565 187.574 288.736 187.034 288.48H187.09C186.806 288.338 186.607 288.138 186.464 287.854C186.436 287.74 186.407 287.626 186.379 287.512C186.379 287.484 186.351 287.455 186.351 287.427C186.351 287.399 186.351 287.37 186.351 287.342C186.351 287.228 186.351 287.114 186.407 287C186.436 286.915 186.464 286.858 186.493 286.773C186.834 286.004 187.716 285.435 188.485 285.037L189.025 284.752C189.538 284.496 190.05 284.297 190.562 284.098C192.042 283.529 193.578 283.13 195.087 282.703C195.57 282.59 196.026 282.476 196.509 282.39C198.188 282.134 199.867 282.077 201.546 282.22C203.31 282.362 205.074 282.59 206.839 282.903C207.095 282.96 207.379 282.817 207.436 282.533C207.465 282.362 207.436 282.191 207.322 282.077C205.985 280.598 204.705 278.947 203.253 277.581C203.083 277.411 202.883 277.325 202.656 277.297C202.03 277.268 201.375 277.268 200.749 277.297H191.53C191.217 277.297 190.932 277.297 190.619 277.268C190.021 277.155 189.538 276.87 189.367 276.358C189.338 276.301 189.338 276.273 189.338 276.216C189.282 276.016 189.282 275.846 189.338 275.646V275.618C189.367 275.561 189.395 275.504 189.424 275.447C189.452 275.39 189.481 275.305 189.538 275.248C189.538 275.22 189.566 275.22 189.566 275.191C189.993 274.679 190.847 274.394 191.473 274.224C191.956 274.081 192.44 273.996 192.924 273.911C193.521 273.825 194.062 273.797 194.404 273.768C196.026 273.655 197.619 273.626 199.241 273.712C200.237 273.74 201.204 273.797 202.2 273.882H202.343L203.481 273.996C203.509 273.996 203.566 273.996 203.595 274.025C203.965 274.167 204.335 274.537 204.619 274.764L206.64 276.244L212.188 280.256L221.237 286.801C221.38 286.886 221.579 286.886 221.75 286.801C224.51 285.122 227.213 283.386 229.916 281.679C239.079 275.789 248.156 269.728 256.836 263.126C260.933 260.025 264.974 256.809 268.645 253.224C270.039 251.886 271.348 250.464 272.543 248.955C273.027 248.329 274.393 246.821 274.051 245.996C273.852 245.569 273.624 245.199 273.368 244.829L271.775 242.411L266.596 234.642L253.25 214.581C251.457 211.85 249.636 209.146 247.815 206.415C246.876 204.992 245.994 203.541 244.998 202.175C244.941 202.118 244.913 202.033 244.884 201.976C244.77 201.805 244.571 201.72 244.4 201.748C242.608 196.455 241.669 190.935 241.555 185.358C241.555 184.732 240.559 184.732 240.559 185.358C240.673 191.106 241.669 196.768 243.518 202.203C243.547 202.289 243.575 202.346 243.66 202.403C241.583 204.622 239.563 206.842 237.543 209.118C237.486 208.833 237.4 208.549 237.343 208.321C237.144 207.24 236.916 206.159 236.66 205.106C234.811 197.565 231.111 190.821 226.075 184.931C223.542 182.029 220.839 179.24 217.965 176.651C215.205 174.09 212.416 171.529 209.485 169.195C206.696 166.947 203.566 164.984 199.952 164.472C195.912 163.903 191.871 165.069 188.001 166.065C178.554 168.512 168.822 168.342 159.602 165.012V164.329C159.716 164.216 159.915 164.187 160.2 163.96L161.679 162.793C163.728 161.199 165.777 159.577 167.712 157.87C169.818 156.049 171.81 154.086 173.602 151.951C173.659 151.894 173.716 151.809 173.773 151.724C174.399 150.984 174.968 150.216 175.509 149.419C175.566 149.333 175.623 149.277 175.651 149.191C176.249 148.338 176.789 147.427 177.273 146.516C177.273 146.516 177.273 146.516 177.302 146.488C177.33 146.459 177.302 146.459 177.33 146.431V146.403C180.489 140.057 180.09 132.801 179.407 125.915C179.407 125.886 179.407 125.886 179.407 125.858C180.574 125.488 181.712 125.09 182.851 124.72C185.639 123.809 188.371 122.842 191.046 121.675C196.026 119.512 200.749 116.581 204.335 112.427C206.127 110.378 207.55 108.045 208.546 105.512C208.575 105.455 208.575 105.37 208.603 105.313C208.575 105.569 208.575 105.825 208.546 106.11C208.546 106.309 208.518 106.508 208.518 106.707C208.233 111.203 208.318 115.699 208.774 120.167C209.314 125.915 210.083 131.862 211.676 137.439C212.16 139.146 212.786 140.797 213.611 142.333C213.64 142.333 213.668 142.333 213.697 142.333C215.176 145.151 217.367 147.541 220.071 149.248C224.339 151.951 229.319 153.061 234.242 153.886C239.648 154.797 245.026 155.281 249.807 158.183C253.563 160.459 256.181 163.618 258.571 167.232C262.356 172.951 265.941 178.813 269.299 184.817C279.316 202.516 287.511 221.155 293.828 240.504C294.767 243.407 295.678 246.338 296.503 249.268C297.214 251.687 296.987 254.22 295.535 256.411Z" fill="#32592C"/>
<path d="M202.429 277.211C202.4 277.211 202.429 277.24 202.457 277.24C202.457 277.268 202.429 277.24 202.429 277.211Z" fill="#32592C"/>
<path d="M170.018 112.085C169.989 112.683 170.16 113.337 170.615 113.707C171.071 114.077 171.753 114.049 172.351 113.992C173.546 113.849 174.713 113.593 175.823 113.223C177.132 112.825 178.355 112.142 179.351 111.203C180.319 110.293 180.888 109.012 180.916 107.675C181.884 107.333 182.766 106.821 183.591 106.195C181.485 106.736 179.294 106.821 177.189 106.451C176.449 106.309 175.652 106.11 174.912 106.252C174.314 106.366 173.802 106.736 173.518 107.276C172.749 107.077 171.981 107.049 171.298 107.419C170.501 107.874 170.075 108.784 169.762 109.638C169.449 110.492 169.221 111.431 168.566 112.114C169.079 111.601 169.676 111.146 170.302 110.776C170.16 111.175 170.046 111.63 170.018 112.085Z" fill="#32592C"/>
<path d="M180.519 126.74C183.649 131.89 185.669 137.61 186.466 143.585C186.551 144.211 187.547 144.211 187.462 143.585C186.665 137.439 184.588 131.549 181.372 126.256C181.031 125.715 180.177 126.199 180.519 126.74Z" fill="#32592C"/>
</svg>
