<svg width="321" height="393" viewBox="0 0 321 393" fill="none" xmlns="http://www.w3.org/2000/svg">
<path d="M261.166 377.418C279.5 366.499 296.665 346.999 307.078 330.573C316 316.499 315.5 302.498 308.512 285.226C302.719 270.91 292.5 251.864 274.594 251.864C258.061 251.864 245.06 279.335 235.711 285C226.361 290.664 199.115 291.661 186.5 302.999C173.698 314.505 166.592 322.33 169.884 348.966C173.175 375.602 201.646 385.806 213.5 387.499C227.5 389.498 245.491 386.754 261.166 377.418Z" fill="#6BBF5F"/>
<path d="M137.136 162.288C120.53 148.887 96.2823 139.562 77.2631 135.501C60.9661 132.022 48.0109 137.352 34.2404 149.904C22.8266 160.307 8.5141 176.504 14.7321 193.296C20.4734 208.8 50.7504 211.453 59.3088 218.253C67.8672 225.053 78.2635 250.258 93.2763 258.151C108.512 266.161 118.317 270.107 142.153 257.771C165.989 245.434 165.671 215.192 163.142 203.488C160.156 189.664 151.335 173.746 137.136 162.288Z" fill="#8676FB" fill-opacity="0.2"/>
<path d="M292.659 170.535C290.249 164.802 287.487 159.25 284.589 153.77C278.619 142.491 271.984 131.589 265.526 120.578C262.357 115.183 259.366 109.434 255.754 104.202C257.83 102.072 258.616 99.0574 258.622 96.1305C258.588 92.7275 257.79 89.3758 256.288 86.3237C252.956 79.4198 245.857 75.494 238.625 73.8918C235.655 73.234 231.453 72.721 229.938 69.6432C228.919 67.5762 229.745 65.1924 230.709 63.2733C231.673 61.3542 232.938 59.5528 233.498 57.4496C233.748 56.5678 233.821 55.645 233.711 54.7348C233.602 53.8247 233.314 52.9453 232.862 52.1479C231.998 50.6392 230.642 49.4895 229.209 48.5602C226.172 46.5837 222.446 45.7449 219.678 43.3369C218.916 42.7038 218.29 41.9232 217.837 41.0417C217.383 40.1603 217.112 39.1962 217.04 38.2072C216.892 35.9894 217.54 33.7987 218.208 31.7076C219.302 28.3009 220.645 24.3993 219.193 20.884C218.868 20.0983 218.397 19.3816 217.805 18.7718C217.374 18.3222 216.693 19.0071 217.124 19.4537C219.751 22.1694 218.883 26.4965 217.844 29.7282C216.621 33.5271 214.946 37.9417 217.097 41.7346C218.856 44.8366 222.401 46.2608 225.486 47.6609C228.471 49.0067 232.218 51.0677 232.754 54.6584C233.082 56.8672 231.983 58.9644 230.947 60.8292C229.91 62.694 228.838 64.5165 228.576 66.6287C228.44 67.5037 228.505 68.3982 228.766 69.2443C229.027 70.0903 229.477 70.8656 230.082 71.511C231.179 72.6516 232.676 73.3215 234.158 73.7922C235.799 74.3172 237.498 74.5979 239.167 74.9992C241.035 75.4488 242.858 76.0659 244.616 76.8428C248.061 78.3848 251.275 80.6147 253.556 83.6653C255.52 86.3795 256.823 89.517 257.36 92.8263C257.893 95.8981 257.827 99.3923 256.155 102.126C255.872 102.577 255.542 102.998 255.173 103.381C252.3 99.335 249.022 95.6296 244.95 92.6996C240.281 89.3502 234.908 87.1022 229.413 85.3943C223.919 83.6864 218.187 82.3769 213.284 79.2809C202.801 72.6425 200.175 59.4502 200.03 47.8993C199.994 44.8185 200.096 41.7377 200.202 38.6599C201.833 37.4511 203.335 36.0769 204.684 34.5591C207.145 31.8042 208.883 28.2224 207.747 24.4778C207.22 22.7367 206.085 21.1948 204.404 20.4344C203.844 20.1779 203.353 21.0107 203.916 21.2642C206.672 22.5134 207.606 25.9352 206.946 28.7143C206.109 32.2538 203.154 35.0087 200.458 37.2447C200.232 37.4317 199.997 37.6158 199.759 37.7999C199.652 37.795 199.545 37.8266 199.458 37.8896C199.371 37.9525 199.307 38.0432 199.277 38.1469C197.886 39.1185 196.265 39.8578 194.569 39.5349C194.498 39.5183 194.424 39.5178 194.353 39.5334C194.282 39.549 194.215 39.5803 194.157 39.6251C194.099 39.6699 194.052 39.7271 194.019 39.7924C193.986 39.8577 193.968 39.9295 193.967 40.0026C193.858 43.4818 193.699 47.3652 191.605 50.3073C190.461 51.9095 188.768 52.8812 187.006 53.6627C184.897 54.5951 182.747 55.44 180.617 56.3241L174.102 59.0398C172.027 59.8998 169.966 60.8322 167.834 61.5413C165.701 62.2504 163.445 62.7 161.264 62.1237C160.358 61.9139 159.528 61.4539 158.87 60.796C158.15 60.0265 157.861 58.9855 157.632 57.9807C157.24 56.2486 156.882 54.5076 156.517 52.7695C157.641 52.9227 158.784 52.7246 159.791 52.2022L160.126 52.0333C161.266 51.4357 162.311 50.672 163.228 49.7671C164.433 48.5752 165.478 47.3019 166.972 46.4479C167.174 46.4479 167.379 46.4479 167.575 46.4479C167.372 46.4287 167.17 46.3944 166.972 46.3453C166.412 46.2397 165.858 46.1251 165.3 46.0013C164.195 45.7569 163.099 45.4703 162.011 45.1534C161.207 44.9181 160.412 44.6556 159.62 44.378C159.195 44.214 158.756 44.0888 158.309 44.0038C157.825 43.9014 157.319 43.9855 156.894 44.2391C156.441 44.5806 156.122 45.0693 155.99 45.6211C155.88 46.0152 155.811 46.4197 155.785 46.8281C155.6 46.6969 155.407 46.577 155.207 46.4691C154.945 45.1927 154.686 43.9163 154.421 42.6429C154.294 42.0394 153.363 42.2959 153.493 42.8994C153.713 43.9615 153.936 45.0116 154.159 46.0858C153.61 46.0255 153.162 46.288 153.291 47.4196C153.291 47.4196 153.391 48.5119 154.737 48.8559C154.785 49.0731 154.827 49.2874 154.872 49.5046C154.582 50.0216 154.498 50.6299 154.638 51.2065C154.746 51.7143 155.052 52.1581 155.487 52.4406C155.854 54.1847 156.216 55.9288 156.583 57.6699C156.999 59.6524 157.635 61.496 159.526 62.4978C161.418 63.4996 163.656 63.5207 165.704 63.1315C167.086 62.8432 168.438 62.428 169.743 61.8913C172.108 65.0355 173.036 69.8001 171.114 73.3184C168.975 77.2411 164.683 79.3866 160.46 80.2043C157.782 80.7263 155.071 80.7867 152.354 80.7384C152.324 80.7384 152.303 80.7022 152.27 80.6992L146.52 80.5573C146.475 80.5606 146.43 80.5697 146.387 80.5845C145.827 80.5845 145.264 80.5845 144.701 80.5845C142.689 80.6049 140.684 80.8069 138.709 81.188C138.696 81.1214 138.668 81.0586 138.628 81.0039C136.794 78.5025 136.737 75.0052 138.255 72.3287C140.197 68.9009 144.134 68.4784 147.556 67.4193C150.532 66.5141 154.291 64.0578 153.86 60.4369C153.445 56.9578 149.49 55.8594 147.652 53.3217C145.472 50.3042 145.306 46.0134 147.351 42.8964C147.695 42.3744 146.86 41.8916 146.52 42.4075C144.692 45.1866 144.481 48.8347 145.752 51.8854C146.377 53.3811 147.367 54.6956 148.631 55.7085C149.924 56.7556 151.535 57.6427 152.406 59.1122C153.363 60.7296 152.83 62.5521 151.647 63.8828C150.33 65.3644 148.58 66.1308 146.716 66.6619C143.258 67.6456 139.547 68.3155 137.535 71.6407C135.761 74.5737 135.727 78.5598 137.728 81.3871C135.502 81.8956 133.364 82.7293 131.381 83.8615C123.58 88.3635 118.357 96.3507 113.125 103.436C106.699 112.144 100.373 120.923 94.1482 129.772C91.0698 134.147 88.0145 138.539 84.9823 142.946C81.9702 147.343 78.7201 151.682 76.0062 156.278C73.7862 160.04 72.497 164.346 74.6055 168.456C76.5483 172.237 80.3858 174.735 83.8347 177.017C92.1262 182.5 100.925 187.171 110.109 190.966C112.393 191.912 114.702 192.801 117.037 193.634C118.204 194.054 119.373 194.457 120.543 194.841C121.552 195.176 122.688 195.39 123.655 195.824C125.306 196.57 126.504 198.486 126.652 200.245C126.86 202.689 125.354 204.841 124.592 207.077C124.015 208.782 123.582 210.533 123.299 212.312C122.914 214.678 122.893 217.043 122.772 219.43C122.345 227.758 119.221 236.099 121.067 244.475C121.382 246.063 122.013 247.57 122.923 248.908C122.982 248.99 123.065 249.051 123.161 249.083V249.384C123.131 249.786 123.092 250.187 123.065 250.591C123.063 250.668 123.08 250.744 123.116 250.812C123.095 251.998 123.089 253.183 123.116 254.369C123.294 262.69 124.366 270.967 126.312 279.058C128.294 287.465 131.077 295.672 134.3 303.681C137.779 312.317 141.758 320.741 145.942 329.058C150.511 338.137 155.321 347.093 160.135 356.046C160.737 357.186 161.35 358.326 161.972 359.465C162.273 360.011 163.099 359.525 162.803 358.979C157.984 350.038 153.165 341.106 148.55 332.069C144.27 323.702 140.155 315.238 136.52 306.562C133.182 298.599 130.245 290.449 128.059 282.088C125.911 274.052 124.61 265.812 124.179 257.504C124.077 255.326 124.049 253.141 124.086 250.96C129.095 249.24 134.327 248.199 139.64 248.546C144.954 248.893 149.966 250.579 154.725 252.864C164.008 257.314 171.873 263.859 177.331 272.664C179.477 276.126 181.197 279.835 182.451 283.711C182.412 283.8 182.401 283.899 182.421 283.995C184.194 292.596 186.193 301.146 188.415 309.643C190.624 318.104 193.059 326.502 195.72 334.836C197.22 339.539 198.788 344.218 200.425 348.873C200.63 349.456 201.56 349.205 201.356 348.617C198.444 340.335 195.749 331.977 193.271 323.545C190.811 315.154 188.571 306.705 186.551 298.198C185.795 295.012 185.084 291.813 184.391 288.611C184.465 288.594 184.532 288.557 184.585 288.504C184.638 288.45 184.675 288.383 184.692 288.31C187.659 270.564 203.425 259.083 218.344 251.316C222.727 249.065 227.249 247.097 231.883 245.426C231.932 245.727 231.998 246.029 232.043 246.331C232.816 251.318 233.246 256.353 233.332 261.4C233.392 265.449 233.239 269.514 233.085 273.557C232.764 281.946 232.184 290.317 231.344 298.672C230.462 307.359 229.287 316.025 227.657 324.622C226.151 332.543 224.287 340.424 221.663 348.055C221.37 348.906 221.069 349.753 220.76 350.596C220.546 351.176 221.476 351.432 221.69 350.853C224.471 343.348 226.446 335.563 228.034 327.727C229.76 319.212 231.01 310.603 231.95 301.97C232.887 293.503 233.543 285.011 233.917 276.493C234.323 267.571 234.561 258.654 233.471 249.768C233.269 248.135 233.028 246.506 232.76 244.879C232.769 244.841 232.769 244.8 232.76 244.762C232.535 242.814 232.264 240.876 231.947 238.947C232.369 236.822 232.605 234.665 232.651 232.499C232.703 231.105 232.733 229.75 232.407 228.386C231.748 225.61 231.07 222.837 230.401 220.064C230.108 218.857 229.818 217.655 229.531 216.458C229.493 216.332 229.462 216.204 229.438 216.075C229.436 216.054 229.436 216.032 229.438 216.011C229.438 216.044 229.438 216.087 229.462 216.035C229.591 215.432 229.739 214.828 229.826 214.192C230.314 210.619 230.329 206.95 230.347 203.365C230.347 202.267 230.504 201.024 230.347 199.934C230.345 199.911 230.345 199.888 230.347 199.865C230.772 199.469 231.168 199.042 231.531 198.588L234.667 195.209C234.787 195.046 234.925 194.897 235.079 194.765C235.347 194.602 235.136 194.729 235.582 194.817C237.046 195.094 238.688 194.998 240.173 195.025C251.372 195.206 262.628 193.214 273.276 189.817C277.453 188.485 281.533 186.866 285.487 184.971C287.936 183.791 290.502 182.511 292.566 180.707C295.499 178.148 293.945 173.589 292.659 170.535ZM147.309 94.8812C147.276 93.1402 147.237 91.3991 147.201 89.658C147.146 86.9644 147.09 84.2708 147.032 81.5772L151.782 81.6949C152.162 95.8589 161.12 108.783 174.427 113.786C178.114 115.171 181.957 115.786 185.873 116.073C189.714 116.351 193.563 116.163 197.41 116.375C204.94 116.812 212.588 118.119 219.558 121.133C224.091 123.095 228.344 125.813 231.697 129.473C230.429 132.084 229.188 134.709 227.995 137.358L227.79 137.817C227.284 138.945 226.787 140.074 226.299 141.211C226.199 141.45 226.103 141.688 225.998 141.927C225.528 143.037 225.07 144.147 224.624 145.267C224.576 145.382 224.534 145.496 224.489 145.611C222.6 150.304 220.991 155.105 219.669 159.989C193.697 151.615 166.008 150.097 139.279 155.584C138.17 150.324 137.056 145.05 136.267 139.733V139.654C135.993 137.844 135.755 136.015 135.568 134.187C135.39 132.434 135.267 130.671 135.191 128.909C135.176 128.523 135.155 128.122 135.134 127.72C135.114 126.694 135.119 125.67 135.149 124.649C135.177 124.282 135.225 123.917 135.294 123.556C135.944 120.445 137.041 117.355 138.206 114.404C139.491 111.158 141.005 108.008 142.737 104.978C143.622 103.427 144.56 101.905 145.55 100.412C146.038 99.676 146.55 98.9548 147.056 98.2246C147.211 98.0381 147.315 97.8146 147.357 97.5758C147.502 96.737 147.327 95.7291 147.309 94.8812ZM134.357 132.035C134.996 140.231 136.727 148.296 138.42 156.326C138.43 156.361 138.447 156.393 138.468 156.422C139.794 162.708 141.119 169.005 141.914 175.381C142.71 181.757 143.249 188.637 141.312 194.88C141.191 195.275 141.035 195.652 140.899 196.039C140.378 193.881 138.791 191.98 136.984 190.677C135.477 189.596 133.827 188.788 132.221 187.892C130.51 186.935 128.851 185.882 127.233 184.771C124.007 182.557 120.947 180.106 117.881 177.674C115.222 175.564 112.561 173.459 109.899 171.359L101.666 164.85L99.8591 163.417L99.0037 162.738C98.6332 162.436 98.1362 162.159 98.3651 161.631C98.6128 161.208 98.9079 160.815 99.2447 160.46C99.57 160.049 99.8923 159.639 100.221 159.232C100.847 158.445 101.481 157.664 102.121 156.887C107.158 150.771 112.528 144.941 117.878 139.099C123.227 133.257 128.571 127.379 133.541 121.194C133.869 120.78 134.191 120.364 134.52 119.95C134.324 121.616 134.218 123.291 134.176 124.968C134.14 125.502 134.119 126.043 134.122 126.613C134.128 128.423 134.215 130.231 134.354 132.035H134.357ZM143.457 188.365C143.624 185.118 143.548 181.864 143.231 178.628C142.553 171.19 141.038 163.891 139.493 156.6C166.085 151.141 193.634 152.66 219.467 161.009C217.003 170.755 216 180.87 217.058 190.882C217.034 190.983 217.044 191.089 217.088 191.184C217.139 191.639 217.163 192.089 217.223 192.56C217.371 193.694 217.576 194.823 217.772 195.951C208.25 199.445 198.319 201.648 188.174 202.092C178.406 202.523 168.656 201.398 159.062 199.611C153.339 198.546 147.646 197.255 141.975 195.912C142.8 193.473 143.297 190.935 143.454 188.365H143.457ZM217.808 176.667C218.241 171.298 219.148 165.979 220.519 160.771C223.341 149.947 227.856 139.672 232.742 129.645C232.755 129.61 232.764 129.574 232.769 129.537C233.191 128.676 233.616 127.818 234.046 126.963C235.05 128.198 236.054 129.431 237.058 130.662L245.323 140.855L255.282 153.127C258.149 156.668 261.019 160.206 263.89 163.743L266.752 167.267C267.053 167.659 267.381 168.157 267.734 168.562C261.526 172.581 254.833 175.782 247.923 178.396C240.814 181.084 233.501 183.199 226.154 185.128C224.106 185.662 221.937 186.051 220.025 186.962C219.261 187.3 218.594 187.825 218.085 188.489C217.997 188.613 217.943 188.755 217.865 188.881C217.52 184.818 217.499 180.733 217.805 176.667H217.808ZM123.209 247.547C121.552 244.602 121.402 240.887 121.495 237.589C121.622 233.431 122.498 229.442 123.125 225.347C123.875 220.468 123.513 215.486 124.58 210.655C125.089 208.341 125.944 206.274 126.86 204.119C128.001 201.428 127.881 198.422 125.781 196.253C125.323 195.758 124.787 195.341 124.194 195.019C123.609 194.77 123.004 194.568 122.387 194.415C121.208 194.039 120.035 193.649 118.869 193.245C109.293 189.926 100.067 185.669 91.3258 180.535C87.2173 178.121 82.931 175.638 79.2984 172.53C77.705 171.169 76.22 169.597 75.3043 167.687C74.2019 165.384 74.229 162.859 75.0423 160.46C75.8556 158.061 77.2351 155.994 78.6147 153.942C80.1087 151.729 81.6147 149.516 83.1328 147.304C86.2172 142.785 89.3298 138.285 92.4704 133.804C98.6714 124.95 104.969 116.156 111.362 107.422C114.375 103.306 117.357 99.1328 120.552 95.1468C123.302 91.731 126.312 88.4118 129.932 85.9073C133.947 83.1161 138.426 81.7824 143.294 81.5712C144.198 81.535 145.101 81.529 146.005 81.535C146.053 83.786 146.1 86.0381 146.146 88.2911L146.264 93.8553C146.288 94.9567 146.499 96.2361 146.336 97.3254C146.24 97.9832 145.643 98.46 145.24 99.0574C144.236 100.544 143.273 102.064 142.351 103.617C140.633 106.544 139.112 109.582 137.797 112.711C136.993 114.634 136.291 116.601 135.667 118.586C135.875 117.132 136.159 115.69 136.517 114.265C136.673 113.662 135.746 113.408 135.589 114.009C135.24 115.361 134.986 116.725 134.761 118.101C134.761 118.116 134.736 118.119 134.724 118.134C129.809 124.47 124.483 130.454 119.061 136.371C113.64 142.289 108.218 148.121 103.076 154.235C101.781 155.772 100.507 157.327 99.2537 158.9C98.6814 159.618 97.9766 160.339 97.5278 161.145C97.529 161.16 97.529 161.175 97.5278 161.19C96.43 160.342 95.2359 159.627 93.9704 159.06C91.9945 158.221 89.8679 157.853 87.7384 157.702C87.1359 157.654 87.1359 158.607 87.7384 158.667C89.7685 158.824 91.8258 159.162 93.7024 159.986C95.0269 160.607 96.2727 161.384 97.4133 162.3C97.4979 162.585 97.6571 162.841 97.8741 163.043C99.0007 164.117 100.353 165.025 101.576 165.991L105.688 169.238C111.242 173.628 116.739 178.097 122.363 182.397C125.502 184.86 128.825 187.08 132.303 189.035C135.39 190.722 139.095 192.52 140.005 196.277C140.158 196.948 140.171 197.643 140.044 198.32C137.86 203.41 134.643 208.018 131.911 212.831C131.911 212.659 131.911 212.49 131.911 212.318C131.902 212.197 131.847 212.084 131.758 212.001C131.669 211.919 131.552 211.873 131.431 211.873C131.309 211.873 131.193 211.919 131.104 212.001C131.015 212.084 130.96 212.197 130.95 212.318C130.977 217.146 131.007 221.974 130.526 226.759C130.414 227.861 130.426 229.231 129.848 230.208C129.733 230.43 129.566 230.62 129.361 230.762C129.156 230.904 128.92 230.993 128.673 231.023C128.137 231.023 127.769 230.586 127.513 230.163C126.465 228.401 125.935 226.156 125.631 224.146C125.253 221.621 125.337 219.047 125.878 216.551C126.007 215.948 125.08 215.685 124.947 216.292C124.149 219.979 124.3 223.808 125.384 227.42C125.531 227.9 125.685 228.398 125.875 228.89C124.433 235.017 123.541 241.261 123.209 247.547ZM207.798 256.355C200.374 261.252 193.533 266.889 188.822 274.571C186.66 278.075 185.074 281.905 184.126 285.914C181.623 276.611 176.592 268.187 169.593 261.578C165.716 257.93 161.315 255.033 156.577 252.637C151.839 250.241 146.818 248.349 141.517 247.695C135.604 246.967 129.718 247.978 124.113 249.861C124.482 243.452 125.378 237.085 126.794 230.824C127.284 231.542 128.019 232.088 128.932 231.928C129.974 231.747 130.667 230.863 130.977 229.907C131.375 228.7 131.408 227.294 131.523 226.026C131.645 224.648 131.733 223.269 131.788 221.889C131.884 219.515 131.89 217.137 131.884 214.759C134.685 209.581 138.152 204.759 140.592 199.391C140.664 199.372 140.73 199.333 140.783 199.28C140.836 199.228 140.874 199.162 140.893 199.089C140.935 198.898 140.968 198.705 140.99 198.51C141.122 198.208 141.264 197.906 141.387 197.605C141.481 197.369 141.553 197.128 141.64 196.89C151.707 199.276 161.852 201.515 172.156 202.584C181.774 203.582 191.482 203.419 201.006 201.678C206.745 200.6 212.383 199.039 217.859 197.01C218.114 199.779 218.631 202.517 219.404 205.188C220.099 207.332 220.931 209.43 221.895 211.467C221.895 211.564 221.919 211.657 221.919 211.748C221.919 212.716 221.727 213.667 221.618 214.629C221.458 216.289 221.341 218.299 222.103 219.843C222.805 221.253 224.452 222.067 225.829 221.606C228.397 229.031 230.351 236.656 231.673 244.403C223.282 247.452 215.27 251.463 207.798 256.355ZM288.55 182.282C285.23 184.141 281.766 185.73 278.192 187.032C267.979 190.924 257.234 193.234 246.326 193.881C243.397 194.043 240.462 194.054 237.531 193.914C236.766 193.875 236.001 193.812 235.236 193.767C235.112 193.736 234.982 193.733 234.857 193.758C234.731 193.783 234.613 193.836 234.51 193.911C234.198 194.195 233.911 194.505 233.651 194.838C232.587 195.986 231.522 197.135 230.456 198.284C230.022 198.748 229.416 199.189 229.374 199.832C229.305 200.918 229.392 202.04 229.374 203.127C229.374 204.937 229.338 206.748 229.272 208.54C229.206 210.332 229.121 212.131 228.883 213.908C228.772 214.75 228.362 215.652 228.555 216.482C229.188 219.213 229.871 221.932 230.528 224.656C230.829 225.878 231.13 227.094 231.41 228.313C231.679 229.544 231.781 230.806 231.712 232.064C231.667 233.395 231.594 234.735 231.45 236.062C230.497 230.925 229.032 225.897 227.076 221.053C227.044 220.976 226.993 220.907 226.928 220.854C226.95 220.827 226.977 220.815 226.998 220.791C228.245 219.282 228.344 217.101 228.531 215.224C228.89 211.547 229.036 207.852 228.968 204.159C228.968 203.54 227.998 203.537 228.007 204.159C228.055 207.442 227.959 210.731 227.681 214.005C227.54 215.685 227.456 217.526 226.853 219.107C226.591 219.792 226.142 220.592 225.362 220.761C224.35 220.978 223.359 220.215 222.952 219.343C222.233 217.849 222.458 215.803 222.651 214.213C222.736 213.48 222.796 212.768 222.823 212.061C222.877 212.045 222.926 212.018 222.969 211.981C223.011 211.944 223.045 211.899 223.069 211.848C223.093 211.797 223.105 211.741 223.106 211.685C223.107 211.629 223.095 211.573 223.073 211.521C222.974 211.265 222.895 211.005 222.799 210.749C222.769 210.112 222.668 209.48 222.498 208.866C222.214 207.918 221.736 207.055 221.368 206.15C221.067 205.429 220.835 204.69 220.603 203.947C219.409 199.682 218.567 195.325 218.085 190.921C218.245 190.37 218.455 189.834 218.714 189.322C219.158 188.647 219.794 188.121 220.54 187.813C222.287 186.989 224.266 186.642 226.127 186.156C229.742 185.212 233.329 184.225 236.902 183.139C244.025 180.991 251.059 178.483 257.776 175.266C261.574 173.457 265.246 171.392 268.767 169.087C268.829 169.048 268.882 168.997 268.922 168.935C268.961 168.874 268.987 168.804 268.997 168.732C269.006 168.659 268.999 168.585 268.977 168.516C268.954 168.446 268.916 168.382 268.866 168.329C267.72 166.921 266.572 165.506 265.423 164.084L257.128 153.891L247.188 141.616L238.576 131.003C237.624 129.826 236.671 128.651 235.715 127.476C235.295 126.899 234.846 126.345 234.368 125.816C234.347 125.795 234.329 125.768 234.308 125.744C234.256 125.692 234.193 125.653 234.124 125.63C234.054 125.606 233.981 125.599 233.908 125.608C233.836 125.618 233.766 125.643 233.705 125.684C233.644 125.724 233.592 125.777 233.555 125.84C233.103 126.746 232.651 127.651 232.212 128.538C224.904 120.72 213.943 117.295 203.621 115.949C199.363 115.424 195.075 115.185 190.786 115.234C187.015 115.234 183.159 115.014 179.469 114.211C172.419 112.673 166.043 108.92 161.27 103.499C155.992 97.4473 152.995 89.7351 152.8 81.701C154.883 81.7483 156.967 81.6474 159.035 81.3992C163.126 80.8651 167.213 79.3594 170.105 76.2997C171.463 74.8604 172.587 73.0439 172.954 71.0704C173.272 69.1157 173.1 67.1125 172.454 65.2407C172.039 63.9185 171.43 62.6656 170.647 61.5232L172.475 60.7628L179.433 57.8781L186.343 55.0115C188.229 54.2239 190.147 53.373 191.578 51.8643C194.41 48.883 194.768 44.4956 194.892 40.5639C196.437 40.6876 197.904 40.1595 199.205 39.3569C198.825 50.778 198.756 63.0319 205.392 72.8507C208.434 77.3588 212.621 80.5151 217.621 82.5911C222.88 84.7757 228.504 85.8952 233.817 87.932C239.399 90.0744 244.661 93.0919 248.905 97.3465C253.047 101.499 256.203 106.505 259.146 111.55C265.435 122.319 271.857 133.022 278.02 143.867C281.165 149.401 284.213 154.992 287.041 160.698C288.389 163.414 289.678 166.16 290.909 168.936C292.15 171.751 293.813 175.058 293.047 178.23C292.605 180.143 290.162 181.35 288.55 182.282Z" fill="#32592C"/>
<path d="M196.738 54.7098C196.39 61.4636 195.296 68.158 193.476 74.6703C193.45 74.7909 193.471 74.917 193.534 75.0226C193.598 75.1283 193.7 75.2054 193.819 75.2383C193.937 75.2711 194.064 75.2571 194.173 75.1992C194.282 75.1412 194.364 75.0438 194.404 74.9268C196.247 68.3311 197.352 61.5503 197.699 54.7098C197.732 54.0882 196.768 54.0912 196.738 54.7098Z" fill="#32592C"/>
<path d="M174.315 88.7949C170.355 88.3393 165.882 88.3845 162.665 85.6718C162.192 85.2735 161.508 85.9525 161.981 86.3538C164.993 88.8884 168.966 89.2445 172.731 89.5975C176.496 89.9506 180.84 90.5239 183.207 93.8431C183.566 94.344 184.412 93.8642 184.039 93.3573C181.792 90.2222 177.954 89.2113 174.315 88.7949Z" fill="#32592C"/>
<path d="M214.796 88.46C212.18 90.148 209.187 91.1589 206.085 91.4021C203.295 91.6042 199.982 91.1003 197.913 93.4358C197.5 93.9005 198.178 94.5855 198.59 94.1208C200.672 91.7672 204.362 92.6121 207.127 92.259C210.031 91.8869 212.816 90.875 215.284 89.2959C215.802 88.9609 215.329 88.1251 214.796 88.46Z" fill="#32592C"/>
</svg>
