<svg width="50" height="28" viewBox="0 0 50 28" fill="none" xmlns="http://www.w3.org/2000/svg">
<path d="M9.47281 0.884756C9.2775 0.953115 8.89664 1.31444 8.75992 1.54882C8.69156 1.66601 8.6232 2.3789 8.5939 3.2578L8.54508 4.77147L6.64078 4.83007C5.59586 4.85937 4.72672 4.88866 4.70719 4.89843C4.68766 4.90819 4.6193 5.05468 4.55094 5.23046C4.36539 5.66015 4.48258 6.01171 4.89273 6.21679C5.19547 6.37304 5.60562 6.3828 10.1369 6.36327L15.0587 6.33397L15.2931 6.06054C15.5763 5.72851 15.5959 5.41601 15.3224 5.07421L15.1271 4.8203H12.6369H10.1564V3.5996V2.3789H23.0959H36.0353L36.0158 12.5547L35.9865 22.7402L30.2931 22.7695C25.7912 22.7891 24.5998 22.7695 24.5607 22.6719C24.1115 21.3633 23.7013 20.7383 22.9005 20.1328C21.631 19.166 19.8146 19.0195 18.3498 19.7715C17.4611 20.2207 16.6505 21.207 16.2892 22.2519L16.1232 22.7402L13.1447 22.7695L10.1564 22.7891V20.543V18.2969H11.4748C12.6662 18.2969 12.8127 18.2773 12.9884 18.1016C13.2814 17.8086 13.2814 17.291 12.9787 16.9785C12.7931 16.7832 12.6564 16.7832 7.50992 16.7832H2.22672L1.99234 17.0566C1.70914 17.3887 1.68961 17.7012 1.96305 18.043L2.15836 18.2969H5.38102H8.5939V21.0703C8.5939 23.6484 8.60367 23.8535 8.77945 24.0683L8.965 24.3027L12.5587 24.3516L16.1427 24.4004L16.2599 24.791C16.7091 26.3144 18.047 27.4863 19.6779 27.7793C21.6408 28.1406 23.838 26.8027 24.3947 24.918L24.5607 24.3516H31.6505H38.7306L38.8576 24.8398C39.131 25.8945 40.0392 26.9297 41.1427 27.4277C43.4474 28.4922 46.1232 27.3398 46.963 24.9375L47.1486 24.4004L48.0666 24.3516C49.0822 24.293 49.3849 24.166 49.7169 23.6387C49.9025 23.3457 49.9123 23.1797 49.883 20.4453C49.8537 17.6133 49.8537 17.5547 49.6095 16.9785C49.4728 16.6562 48.3791 14.6348 47.1876 12.4863C44.9025 8.37499 44.6095 7.95507 43.8869 7.75976C43.6525 7.6914 42.3634 7.65233 40.5568 7.65233H37.6076L37.5783 4.69335C37.549 1.78319 37.549 1.74413 37.3244 1.42187C36.8556 0.767569 37.9005 0.816397 23.0763 0.826162C15.674 0.826162 9.55094 0.855459 9.47281 0.884756ZM43.6134 9.40038C43.9357 9.77147 48.0568 17.291 48.1935 17.75C48.3009 18.1211 48.34 18.7949 48.34 20.5137V22.7988L47.7443 22.7695L47.1583 22.7402L46.9923 22.2519C46.2501 20.0644 44.0431 18.8535 41.8458 19.4199C40.4298 19.791 39.2287 20.9531 38.8185 22.3496C38.7013 22.7402 38.7013 22.7402 38.1447 22.7695L37.5978 22.7988V16.0019V9.21483H40.5275C43.2716 9.21483 43.4669 9.2246 43.6134 9.40038ZM21.1818 20.9922C21.7873 21.168 22.4709 21.7539 22.7736 22.3398C23.0568 22.8867 23.1154 23.8047 22.9103 24.4199C22.6955 25.0644 22.1681 25.6601 21.5431 25.9824C20.9377 26.2949 19.9123 26.334 19.3068 26.0703C18.7404 25.8262 18.1154 25.1914 17.8712 24.625C17.6076 24 17.6271 22.9551 17.9201 22.3496C18.3302 21.5195 19.3556 20.8555 20.2736 20.8457C20.4884 20.8359 20.8986 20.9043 21.1818 20.9922ZM43.8771 21.0312C45.7326 21.7246 46.2111 24.2246 44.7462 25.543C44.1798 26.0508 43.7208 26.2363 42.9689 26.2363C41.4552 26.2461 40.3517 25.2207 40.2541 23.7266C40.2052 22.8574 40.4396 22.2324 41.0548 21.6269C41.8166 20.875 42.8712 20.6504 43.8771 21.0312Z" fill="#FC8C5F"/>
<path d="M9.03369 8.06251C8.61377 8.30665 8.604 8.38477 8.59424 10.8457V13.2188H7.42236C6.29932 13.2188 6.23096 13.2285 6.00635 13.4629C5.68408 13.7754 5.68408 14.2246 6.00635 14.5371L6.24072 14.7812H13.4087C20.5181 14.7812 20.5864 14.7812 20.8403 14.5762C21.2017 14.293 21.2017 13.707 20.8403 13.4238C20.5864 13.2188 20.4888 13.2188 15.3716 13.2188H10.1567V10.8652V8.51172L9.87353 8.22852C9.5708 7.92579 9.34619 7.88672 9.03369 8.06251Z" fill="#FC8C5F"/>
<path d="M0.215192 9.27344C-0.11684 9.50781 -0.0875428 10.2012 0.26402 10.4844C0.517926 10.6797 0.596051 10.6894 3.49644 10.6602L6.46519 10.6309L6.65074 10.3965C6.90464 10.084 6.89488 9.5957 6.61168 9.33203C6.38707 9.11719 6.32847 9.11719 3.40855 9.11719C0.879254 9.11719 0.400738 9.13672 0.215192 9.27344Z" fill="#FC8C5F"/>
</svg>
