<svg width="35" height="25" viewBox="0 0 35 25" fill="none" xmlns="http://www.w3.org/2000/svg">
<path d="M3.04199 0.885736C2.52246 0.960932 1.64062 1.38476 1.2168 1.76074C0.820312 2.10937 0.430664 2.69042 0.205078 3.27148L0.0341797 3.71581V12.5V21.2842L0.205078 21.7285C0.430664 22.3096 0.820312 22.8906 1.2168 23.2393C1.70898 23.6699 2.5293 24.0391 3.17871 24.1279C3.54102 24.1689 8.44922 24.1894 17.876 24.1758L32.0264 24.1553L32.4707 23.998C33.0244 23.793 33.7559 23.3144 34.0771 22.9385C34.3916 22.5762 34.6719 22.0703 34.8359 21.5918C34.959 21.2295 34.9658 20.833 34.9658 12.5C34.9658 4.16698 34.959 3.7705 34.8359 3.4082C34.4463 2.24609 33.626 1.42578 32.457 1.00195L32.0264 0.844721L17.7393 0.837885C9.78223 0.831049 3.26758 0.851557 3.04199 0.885736ZM32.1562 2.458C32.9834 2.76562 33.4756 3.51757 33.5439 4.57031L33.585 5.18554H17.5H1.41504L1.44922 4.58398C1.50391 3.70898 1.79785 3.10742 2.37207 2.71777C2.98047 2.29394 1.90039 2.32128 17.4795 2.32128C31.7598 2.31445 31.7803 2.31445 32.1562 2.458ZM33.4961 8.12499V9.56054H17.5H1.50391V8.12499V6.68945H17.5H33.4961V8.12499ZM33.5508 16.0342L33.5303 21.0107L33.3525 21.3935C33.127 21.8652 32.7441 22.2617 32.293 22.4873L31.958 22.6514H17.5H3.04199L2.70703 22.4873C2.25586 22.2617 1.87305 21.8652 1.64746 21.3935L1.46973 21.0107L1.44922 16.0342L1.42871 11.0644H17.5H33.5713L33.5508 16.0342Z" fill="#FC8C5F"/>
<path d="M26.5028 14.0039C25.8056 14.1816 25.1903 14.7148 24.9511 15.3506C24.8212 15.7061 24.8075 15.8564 24.828 16.9707C24.8486 18.1191 24.8622 18.2354 25.0126 18.543C25.2382 18.9941 25.6347 19.377 26.1064 19.6025C26.4755 19.7734 26.537 19.7803 27.6513 19.7803C28.6015 19.7803 28.8818 19.7598 29.1757 19.6572C29.6542 19.4863 30.2148 18.9668 30.4267 18.502C30.5839 18.1602 30.5907 18.0576 30.5907 16.875C30.5907 15.6924 30.5839 15.5898 30.4267 15.248C30.2284 14.8037 29.6542 14.2705 29.2099 14.1064C28.8271 13.9629 26.9472 13.8945 26.5028 14.0039ZM28.8407 15.5488C29.1073 15.7402 29.1894 16.0479 29.1894 16.875C29.1894 18.208 29.08 18.3105 27.7402 18.3105C26.3114 18.3105 26.2499 18.2559 26.2499 16.875C26.2499 15.9111 26.3183 15.665 26.6191 15.5146C26.7011 15.4805 27.1933 15.4463 27.7196 15.4463C28.5058 15.4395 28.7109 15.46 28.8407 15.5488Z" fill="#FC8C5F"/>
<path d="M4.73713 15.5215C4.34748 15.7129 4.27912 16.3554 4.62092 16.6767L4.79866 16.8408L9.38557 16.8613C13.5418 16.8818 13.9998 16.8681 14.1912 16.7724C14.6082 16.5537 14.6971 15.9726 14.3621 15.6377L14.1639 15.4394L9.52229 15.4463C6.45979 15.4463 4.83967 15.4736 4.73713 15.5215Z" fill="#FC8C5F"/>
<path d="M4.80566 18.4131C4.58008 18.5088 4.375 18.8164 4.375 19.0625C4.375 19.3154 4.58008 19.6162 4.81934 19.7188C5.16113 19.8623 13.7676 19.8623 14.1094 19.7188C14.4033 19.5957 14.5605 19.3701 14.5605 19.0625C14.5605 18.7549 14.4033 18.5293 14.1094 18.4063C13.7744 18.2627 5.12695 18.2695 4.80566 18.4131Z" fill="#FC8C5F"/>
</svg>
