<svg width="22" height="28" viewBox="0 0 22 28" fill="none" xmlns="http://www.w3.org/2000/svg">
<path d="M10.4667 1.10353C10.2617 1.22657 9.54096 1.67775 8.86127 2.10548C7.38471 3.0254 6.48237 3.48243 5.42768 3.82814C4.47846 4.14454 3.80463 4.27345 2.15229 4.47267C0.810493 4.63673 0.564399 4.70704 0.453071 4.97071C0.406196 5.0879 0.394477 6.49415 0.412056 9.9922C0.429634 15.2656 0.423774 15.1367 0.775337 16.5254C1.57807 19.6836 3.51752 22.4317 6.22456 24.2305C7.13276 24.8399 10.6484 27.0195 10.8183 27.084C10.9062 27.1133 11.0468 27.125 11.1289 27.1074C11.3398 27.0547 15.7812 24.2656 16.4257 23.7793C18.7402 22.0391 20.498 19.3848 21.2187 16.5313C21.5761 15.1309 21.5703 15.2715 21.5878 9.9922C21.6054 6.49415 21.5937 5.0879 21.5468 4.97071C21.4355 4.70704 21.1894 4.63673 19.8769 4.47853C18.2363 4.27931 17.5156 4.13868 16.5956 3.83986C15.4706 3.46486 14.7734 3.11329 13.0449 2.03517C11.2753 0.933605 11.1757 0.875011 10.9824 0.875011C10.9062 0.875011 10.6777 0.98048 10.4667 1.10353ZM12.371 3.08986C13.9003 4.04493 14.246 4.24415 14.9726 4.56056C16.2089 5.10548 17.4394 5.43361 18.9746 5.62111C19.5019 5.68556 20.0351 5.75587 20.1581 5.77345L20.3808 5.80861L20.3574 10.209C20.3339 15.0371 20.3398 14.9609 19.9589 16.3965C19.2792 18.9688 17.6972 21.2832 15.541 22.877C15.0136 23.2695 11.0937 25.7188 10.9999 25.7188C10.8828 25.7188 6.93354 23.2285 6.31245 22.7656C4.27338 21.2422 2.70307 18.9043 2.0351 16.3789C1.6601 14.9551 1.6601 15.0313 1.64252 10.2031C1.63081 7.70704 1.64252 5.79689 1.67182 5.79689C1.85932 5.79689 4.06245 5.48634 4.40229 5.41017C5.63276 5.14064 6.89838 4.67775 7.86518 4.15626C8.15815 3.99806 8.96088 3.51173 9.65229 3.07814C10.3437 2.64454 10.9472 2.28712 10.9941 2.28126C11.0351 2.28126 11.6562 2.64454 12.371 3.08986Z" fill="#FC8C5F"/>
<path d="M12.6406 12.0957L10.3848 14.3516L9.35938 13.3262L8.33398 12.3008L7.87695 12.7578L7.42578 13.2149L8.72656 14.5098C9.55273 15.3242 10.0918 15.8223 10.1973 15.8457C10.2852 15.8692 10.4258 15.8692 10.5195 15.8516C10.625 15.8223 11.5273 14.961 13.2383 13.25L15.8047 10.6895L15.3828 10.2676C15.1484 10.0332 14.9434 9.83986 14.9258 9.83986C14.9082 9.83986 13.8828 10.8535 12.6406 12.0957Z" fill="#FC8C5F"/>
</svg>
