<svg width="30" height="30" viewBox="0 0 30 30" fill="none" xmlns="http://www.w3.org/2000/svg">
<g clip-path="url(#clip0_233_339)">
<path d="M14.6775 0.140625C14.5486 0.210938 13.7986 0.697266 13.0135 1.21875L11.5896 2.15625L11.285 2.13281C10.0896 2.0332 7.79277 1.93945 7.66972 1.98633C7.59355 2.01562 7.4705 2.09766 7.40605 2.17383C7.33574 2.25 6.908 3.05273 6.45683 3.95508L5.63652 5.5957L3.9666 6.43359C2.15019 7.3418 1.98613 7.45898 1.99785 7.83984C1.99785 7.95703 2.04472 8.8418 2.09746 9.80859L2.19707 11.5547L1.1541 13.1426C0.562301 14.0391 0.093551 14.8125 0.0759729 14.918C0.0349573 15.1582 0.0583948 15.1992 1.20683 16.9453L2.18535 18.4277L2.08574 20.3789C1.98613 22.1895 1.98613 22.3359 2.07988 22.4766C2.20879 22.6758 2.33769 22.752 4.08964 23.6309L5.63652 24.4043L6.45683 26.0449C7.283 27.6973 7.41777 27.9199 7.66386 28.0137C7.77519 28.0547 9.94316 27.9668 11.2264 27.8672L11.5838 27.8379L13.0955 28.834C14.783 29.9473 14.8768 30 15.076 30C15.1639 30 15.8553 29.584 16.8514 28.9219L18.4861 27.8496L20.4139 27.9551C22.2596 28.0605 22.3475 28.0605 22.5232 27.9609C22.6756 27.8789 22.8572 27.5566 23.5838 26.1328L24.4627 24.4043L26.1619 23.5488C27.0936 23.0742 27.9021 22.6289 27.9607 22.5586C28.0955 22.3945 28.0955 22.0488 27.9783 19.9863L27.8846 18.4395L28.9451 16.8457C29.8768 15.4453 29.9998 15.2285 29.9998 15.0176C29.9998 14.7598 29.9412 14.6543 28.6404 12.6797L27.9021 11.5605L28.0076 9.66211C28.1131 7.875 28.1131 7.75195 28.0193 7.55859C27.9314 7.37109 27.7557 7.27148 26.1912 6.46875L24.4627 5.58984L23.5838 3.86719C22.8689 2.4668 22.6697 2.12109 22.5291 2.03906C22.3592 1.94531 22.2537 1.94531 20.4197 2.04492L18.492 2.14453L16.9627 1.13672C16.1189 0.585938 15.3748 0.105469 15.3045 0.0644531C15.1228 -0.0351562 14.9353 -0.0117188 14.6775 0.140625ZM16.6346 2.42578C18.0057 3.32227 18.1404 3.39844 18.3865 3.39844C18.533 3.39844 19.3592 3.35742 20.2322 3.30469C21.0994 3.25781 21.8318 3.23438 21.8611 3.26367C21.8846 3.28711 22.2537 3.99609 22.6814 4.83398C23.1092 5.67188 23.4959 6.4043 23.5486 6.46875C23.6014 6.52734 24.3572 6.93164 25.2244 7.36523C26.0975 7.79883 26.8123 8.16211 26.8182 8.16797C26.8299 8.17383 26.7889 8.99414 26.7361 9.98438C26.6658 11.2441 26.6541 11.8301 26.6951 11.9414C26.7303 12.0293 27.1873 12.75 27.7088 13.5469L28.6639 15L27.6619 16.5293L26.66 18.0586V18.4219C26.66 18.6152 26.701 19.4648 26.7478 20.2969C26.8006 21.1289 26.8299 21.8203 26.824 21.8262C26.8123 21.8379 26.0975 22.2012 25.2244 22.6348C24.3572 23.0684 23.6014 23.4727 23.5486 23.5312C23.4959 23.5957 23.1033 24.3398 22.6756 25.1895C22.242 26.0332 21.8611 26.7422 21.8201 26.7598C21.7791 26.7715 21.0408 26.7422 20.1678 26.6953C19.3006 26.6426 18.4861 26.6016 18.3572 26.6016C18.1463 26.6016 17.9353 26.7246 16.6463 27.5684C15.8318 28.1074 15.1346 28.5527 15.0936 28.5703C15.0525 28.5879 14.326 28.1426 13.4822 27.5918L11.9412 26.5781L10.0955 26.6777C9.07597 26.7363 8.23808 26.7715 8.23222 26.7656C8.2205 26.7539 7.86894 26.0508 7.44121 25.1953C7.01347 24.3398 6.62089 23.5957 6.56816 23.5312C6.51543 23.4727 5.76543 23.0684 4.89238 22.6348C4.02519 22.2012 3.29863 21.832 3.28691 21.8203C3.27519 21.8086 3.31035 20.9941 3.36308 20.0098C3.42168 19.0254 3.44511 18.1699 3.42754 18.0996C3.4041 18.0352 2.95293 17.3203 2.42558 16.5176C1.89824 15.7148 1.46464 15.0352 1.46464 15C1.46464 14.9707 1.89238 14.291 2.41972 13.4941C2.94707 12.6973 3.39238 11.9883 3.42168 11.9238C3.44511 11.8594 3.42168 10.998 3.36308 10.002C3.31035 9.01172 3.27519 8.19141 3.28691 8.17969C3.29863 8.16797 4.03105 7.79883 4.90996 7.35938C6.22832 6.69727 6.533 6.52148 6.62675 6.36914C6.68535 6.26367 7.07207 5.51953 7.47636 4.7168C7.88652 3.9082 8.22636 3.24609 8.23222 3.23438C8.24394 3.22266 8.95879 3.25781 9.83183 3.30469C10.699 3.35742 11.5369 3.39844 11.701 3.39844C11.9764 3.39844 12.0525 3.35742 13.4822 2.4082C14.3025 1.85742 15.0115 1.42383 15.0584 1.42969C15.1053 1.44141 15.8143 1.88672 16.6346 2.42578Z" fill="#FC8C5F"/>
<path d="M13.4525 5.80077C9.86659 6.4453 6.91346 9.15819 6.0287 12.6211C5.73573 13.7578 5.64784 15.2285 5.80018 16.2656C6.38026 20.2148 9.26893 23.3027 13.1537 24.1406C13.9916 24.3223 15.5678 24.3633 16.4056 24.2344C17.8588 24 19.0306 23.5488 20.226 22.7519C24.6791 19.793 25.7162 13.6992 22.4994 9.40428C21.1342 7.58202 19.1947 6.35155 16.9037 5.85936C16.0424 5.67186 14.3373 5.64256 13.4525 5.80077ZM16.142 7.00194C19.5814 7.48827 22.2474 9.99608 22.974 13.4238C23.1556 14.291 23.1556 15.709 22.974 16.5762C22.4467 19.0547 20.9291 21.0586 18.7084 22.1953C14.2084 24.498 8.70643 22.1133 7.29432 17.2558C7.03651 16.3535 6.95448 15.7148 6.98963 14.7363C7.03651 13.5058 7.26502 12.5566 7.76307 11.5137C9.28651 8.34373 12.6967 6.50975 16.142 7.00194Z" fill="#FC8C5F"/>
<path d="M10.4745 13.3636V17H9.59735V14.1839H9.57604L8.76283 14.6811V13.9212L9.65949 13.3636H10.4745ZM12.7823 17.0888C12.465 17.0888 12.1916 17.0136 11.962 16.8633C11.7323 16.7118 11.5554 16.4946 11.4311 16.2116C11.3068 15.9276 11.2452 15.5861 11.2464 15.1871C11.2476 14.7882 11.3097 14.4497 11.4328 14.1715C11.5571 13.8922 11.7335 13.6797 11.962 13.5341C12.1916 13.3873 12.465 13.3139 12.7823 13.3139C13.0995 13.3139 13.3729 13.3873 13.6026 13.5341C13.8334 13.6797 14.011 13.8922 14.1353 14.1715C14.2595 14.4509 14.3211 14.7894 14.3199 15.1871C14.3199 15.5872 14.2578 15.9293 14.1335 16.2134C14.0092 16.4975 13.8322 16.7147 13.6026 16.8651C13.3741 17.0142 13.1007 17.0888 12.7823 17.0888ZM12.7823 16.3697C12.9717 16.3697 13.125 16.2732 13.2421 16.0803C13.3593 15.8861 13.4173 15.5884 13.4161 15.1871C13.4161 14.9244 13.3895 14.7077 13.3362 14.5373C13.283 14.3656 13.209 14.2378 13.1143 14.1538C13.0196 14.0697 12.9089 14.0277 12.7823 14.0277C12.5941 14.0277 12.442 14.123 12.3259 14.3136C12.2099 14.503 12.1514 14.7942 12.1502 15.1871C12.149 15.4535 12.1744 15.6742 12.2265 15.8494C12.2798 16.0246 12.3544 16.1554 12.4502 16.2418C12.5461 16.3271 12.6568 16.3697 12.7823 16.3697ZM16.3272 17.0888C16.01 17.0888 15.7365 17.0136 15.5069 16.8633C15.2772 16.7118 15.1003 16.4946 14.976 16.2116C14.8517 15.9276 14.7901 15.5861 14.7913 15.1871C14.7925 14.7882 14.8547 14.4497 14.9778 14.1715C15.1021 13.8922 15.2784 13.6797 15.5069 13.5341C15.7365 13.3873 16.01 13.3139 16.3272 13.3139C16.6444 13.3139 16.9179 13.3873 17.1475 13.5341C17.3783 13.6797 17.5559 13.8922 17.6802 14.1715C17.8045 14.4509 17.866 14.7894 17.8648 15.1871C17.8648 15.5872 17.8027 15.9293 17.6784 16.2134C17.5541 16.4975 17.3771 16.7147 17.1475 16.8651C16.919 17.0142 16.6456 17.0888 16.3272 17.0888ZM16.3272 16.3697C16.5166 16.3697 16.6699 16.2732 16.7871 16.0803C16.9043 15.8861 16.9623 15.5884 16.9611 15.1871C16.9611 14.9244 16.9344 14.7077 16.8812 14.5373C16.8279 14.3656 16.7539 14.2378 16.6592 14.1538C16.5645 14.0697 16.4539 14.0277 16.3272 14.0277C16.139 14.0277 15.9869 14.123 15.8709 14.3136C15.7549 14.503 15.6963 14.7942 15.6951 15.1871C15.6939 15.4535 15.7194 15.6742 15.7714 15.8494C15.8247 16.0246 15.8993 16.1554 15.9952 16.2418C16.091 16.3271 16.2017 16.3697 16.3272 16.3697ZM20.4048 16.3182V16.1264C20.4048 15.9773 20.4367 15.8394 20.5007 15.7127C20.5658 15.5861 20.6599 15.4843 20.783 15.4073C20.9061 15.3304 21.0564 15.2919 21.234 15.2919C21.4151 15.2919 21.5672 15.3304 21.6903 15.4073C21.8146 15.4831 21.9081 15.5843 21.9708 15.7109C22.0348 15.8364 22.0667 15.9749 22.0667 16.1264V16.3182C22.0667 16.4673 22.0348 16.6052 21.9708 16.7319C21.9069 16.8585 21.8128 16.9603 21.6885 17.0373C21.5642 17.1142 21.4127 17.1527 21.234 17.1527C21.0541 17.1527 20.9025 17.1142 20.7794 17.0373C20.6563 16.9603 20.5628 16.8585 20.4989 16.7319C20.4362 16.6052 20.4048 16.4673 20.4048 16.3182ZM20.9712 16.1264V16.3182C20.9712 16.3939 20.9895 16.4667 21.0262 16.5366C21.0641 16.6064 21.1334 16.6413 21.234 16.6413C21.337 16.6413 21.4062 16.6076 21.4417 16.5401C21.4772 16.4715 21.495 16.3975 21.495 16.3182V16.1264C21.495 16.0471 21.4778 15.9725 21.4435 15.9027C21.4103 15.8317 21.3405 15.7962 21.234 15.7962C21.1345 15.7962 21.0659 15.8317 21.028 15.9027C20.9901 15.9725 20.9712 16.0471 20.9712 16.1264ZM18.5191 14.2372V14.0455C18.5191 13.8939 18.5517 13.7554 18.6168 13.63C18.6831 13.5033 18.7778 13.4021 18.9009 13.3263C19.024 13.2494 19.1731 13.2109 19.3483 13.2109C19.5294 13.2109 19.6815 13.2494 19.8046 13.3263C19.9289 13.4021 20.023 13.5033 20.087 13.63C20.1509 13.7554 20.1828 13.8939 20.1828 14.0455V14.2372C20.1828 14.3887 20.1503 14.5272 20.0852 14.6527C20.0213 14.7782 19.9272 14.8782 19.8029 14.9528C19.6786 15.0273 19.5271 15.0646 19.3483 15.0646C19.1696 15.0646 19.0181 15.0268 18.8938 14.951C18.7707 14.8752 18.6772 14.7746 18.6132 14.6491C18.5505 14.5237 18.5191 14.3864 18.5191 14.2372ZM19.0909 14.0455V14.2372C19.0909 14.3165 19.1092 14.3905 19.1459 14.4592C19.1838 14.5266 19.2513 14.5604 19.3483 14.5604C19.4525 14.5604 19.5217 14.5266 19.5561 14.4592C19.5916 14.3905 19.6093 14.3165 19.6093 14.2372V14.0455C19.6093 13.9661 19.5928 13.8916 19.5596 13.8217C19.5265 13.7507 19.456 13.7152 19.3483 13.7152C19.2489 13.7152 19.1808 13.7513 19.1441 13.8235C19.1086 13.8957 19.0909 13.9697 19.0909 14.0455ZM18.7872 17L21.2872 13.3636H21.772L19.272 17H18.7872Z" fill="#FC8C5F"/>
</g>
<defs>
<clipPath id="clip0_233_339">
<rect width="30" height="30" fill="white"/>
</clipPath>
</defs>
</svg>
