<svg width="193" height="132" viewBox="0 0 193 132" fill="none" xmlns="http://www.w3.org/2000/svg">
<path opacity="0.75" d="M3.20517 65.8343C3.51205 66.7312 3.65586 67.6839 4.47554 67.9499C5.29523 68.2159 6.30589 68.5077 6.61061 69.1321C6.91534 69.7565 8.58044 70.0976 9.20484 69.7929C9.82923 69.4881 10.0373 68.2329 10.0866 67.5784C10.136 66.924 10.5629 65.776 10.6122 65.1215C10.6616 64.4671 10.2688 63.0531 10.5928 62.6689C10.9168 62.2848 10.7258 62.2591 11.0433 61.0575C11.3609 59.8558 12.1719 59.0318 11.9766 58.4611C11.7813 57.8903 11.91 56.9355 11.0067 56.4248C10.1033 55.9142 6.43396 53.7085 5.14232 55.7899C3.93221 57.8435 3.69208 61.9333 3.32308 63.5169C3.00773 64.991 3.20517 65.8343 3.20517 65.8343Z" fill="#8CF2F2"/>
<path opacity="0.75" d="M188.377 64.5041C188.358 65.5126 189.613 69.1818 189.633 71.6344C189.68 74.1685 186.601 74.2201 185.481 73.8747C184.333 73.4478 181.337 73.744 179.756 73.6475C178.202 73.6326 172.566 74.195 168.916 74.4419C165.266 74.6889 156.601 74.921 152.514 74.9534C148.426 74.9857 132.02 74.9522 128.614 75.1154C125.128 75.3065 120.495 75.3432 117.793 74.9013C115.092 74.4594 106.153 74.4212 104.271 74.2453C102.471 74.0416 100.973 74.1897 98.7928 74.2069C96.5848 74.1427 95.8767 74.2028 94.8682 74.1835C93.8597 74.1643 93.2267 73.379 91.9478 73.6344C90.669 73.8898 90.287 73.8383 89.4137 73.6817C88.5683 73.6066 88.1863 73.5551 87.6134 73.4779C87.0684 73.4822 73.2712 72.5559 71.1705 72.2727C69.1514 71.9617 37.7441 70.4117 33.2187 70.2296C28.6934 70.0474 6.52565 68.615 5.1352 68.5443C3.74476 68.4735 3.40567 66.9501 3.12668 66.1347C3.12668 66.1347 3.40119 62.944 3.47194 61.5535C3.54269 60.1631 3.87731 57.6805 4.49523 56.5582C5.08526 55.3544 5.78903 54.7493 6.85333 54.9316C7.91763 55.114 10.2114 55.6954 12.0375 55.7082C13.7541 55.6673 20.7943 56.8107 22.5946 57.0144C24.3949 57.2182 53.6865 60.0385 56.4953 60.2616C59.3041 60.4846 79.9976 61.6016 83.0489 61.4684C86.128 61.4168 104.399 62.9072 108.65 62.8191C112.9 62.7309 136.86 63.277 141.413 63.5407C145.939 63.7229 173.34 61.8162 175.953 61.4685C178.567 61.1208 183.761 59.7987 185.59 60.084C187.8 60.4208 188.478 63.4677 188.377 64.5041ZM70.3143 70.8351C69.5204 70.3781 69.7672 70.5669 68.8123 70.4382C67.8574 70.3095 67.9411 70.5541 67.3403 70.3954C66.7395 70.2366 66.688 70.6186 66.688 70.6186C67.0442 70.861 67.1258 70.8331 67.6708 70.8288C68.2158 70.8245 68.3252 70.8781 68.9797 70.9275C69.6341 70.9768 70.8894 71.1849 70.3143 70.8351ZM106.191 72.4042C105.618 72.327 104.393 72.473 103.902 72.3678C103.41 72.2627 102.264 72.1083 101.447 72.1147C100.629 72.1212 99.6467 71.911 98.9107 71.8895C98.1747 71.8681 97.8529 72.5247 97.6318 72.145C97.4108 71.7652 96.8658 71.7695 96.3487 71.8553C95.8315 71.9412 95.4496 71.8897 94.66 71.9777C93.8424 71.9842 93.6236 71.8769 93.2416 71.8254C92.9412 71.7461 92.5056 71.804 91.9606 71.8083C91.4156 71.8126 90.9521 71.7891 90.7611 71.7633C90.4886 71.7655 89.5617 71.7183 89.0982 71.6947C88.6068 71.5896 87.6799 71.5425 87.6799 71.5425C87.6799 71.5425 86.916 71.4395 86.4804 71.4974C86.0448 71.5554 85.3925 71.7786 84.9548 71.564C84.5449 71.431 84.6243 71.1306 84.2166 71.2701C83.8089 71.4096 83.4012 71.5491 82.9914 71.416C82.5816 71.283 82.3627 71.1758 81.955 71.3152C81.5473 71.4547 80.8113 71.4333 80.3478 71.4097C79.8844 71.3861 79.6633 71.0064 79.0647 71.1201C78.466 71.2339 77.73 71.2124 77.2665 71.1889C76.8031 71.1653 76.5005 70.8134 75.9019 70.9272C75.3032 71.0409 75.0028 70.9615 74.5114 70.8564C74.02 70.7513 73.6939 70.8629 73.6402 70.9723C73.4257 71.41 74.2175 71.5945 74.8161 71.4808C75.4148 71.367 77.3245 71.6245 77.8695 71.6201C78.4145 71.6158 80.6762 71.5706 81.1675 71.6758C81.6589 71.7809 81.8241 71.9976 82.3134 71.8302C82.8026 71.6628 83.2103 71.5233 83.7295 71.71C84.2488 71.8966 84.5213 71.8945 85.1479 71.8623C85.7744 71.8301 87.1906 71.7098 87.5189 71.8708C87.8472 72.0317 88.1734 71.9201 88.7184 71.9158C89.2634 71.9114 89.7269 71.935 90.2998 72.0123C90.8727 72.0895 90.9564 72.3341 91.6645 72.274C92.3726 72.2139 93.6815 72.3125 94.145 72.3361C94.6085 72.3597 95.5633 72.4884 95.9453 72.5398C96.3272 72.5913 97.0589 72.0677 97.1169 72.5033C97.1748 72.9389 97.5568 72.9904 97.9644 72.8509C98.3721 72.7114 98.9172 72.7071 99.2712 72.677C99.6252 72.647 101.833 72.7112 102.569 72.7327C103.305 72.7541 104.369 72.9364 105.105 72.9578C105.841 72.9793 106.058 72.814 106.985 72.8612C107.912 72.9084 108.292 72.6874 108.292 72.6874C108.292 72.6874 106.764 72.4814 106.191 72.4042Z" fill="#8CF2F2"/>
<path opacity="0.75" d="M125.839 96.2865C124.998 96.7564 124.811 97.2757 124.049 97.4452C123.288 97.6148 122.193 97.0784 121.258 95.9412C120.322 94.804 119.569 92.6025 119.18 91.7335C118.82 90.946 117.873 88.4463 117.73 87.4936C117.614 86.6224 118.148 85.2556 119.697 84.7255C121.246 84.1954 124.592 83.3241 127.119 82.4593C129.647 81.5944 143.405 77.6156 148.323 75.7507C153.241 73.8858 164.89 68.5338 167.523 67.1776C170.156 65.8214 177.138 63.0681 178.657 62.184C180.176 61.2999 182.933 58.4437 184.367 60.5036C185.8 62.5634 186.538 66.3185 187.12 67.4857C187.701 68.653 189.965 72.3414 188.88 72.895C187.794 73.4487 180.155 75.8802 178.147 76.9317C176.138 77.9832 166.202 82.7493 162.56 84.0863C158.919 85.4232 146.388 89.5286 144.758 90.0866C143.127 90.6445 139.541 92.1446 139.185 91.9021C138.829 91.6597 138.883 91.5502 138.258 91.8549C137.634 92.1597 137.499 92.297 137.091 92.4365C136.683 92.576 135.812 92.6919 135.812 92.6919L135.265 92.4237L134.808 93.2177C134.808 93.2177 133.827 93.2799 133.501 93.3915C133.175 93.5031 131.081 94.0375 129.695 94.5118C128.227 95.0139 125.839 96.2865 125.839 96.2865Z" fill="#8CF2F2"/>
<path opacity="0.75" d="M113.071 46.4593C113.077 47.2768 114.451 48.6285 115.762 48.9997C117.073 49.3708 124.48 52.1192 125.328 52.4668C126.175 52.8143 137.683 57.1654 139.022 57.6181C140.361 58.0708 157.795 64.0373 159.027 64.7088C160.231 65.2989 162.943 67.1033 163.737 67.5603C164.531 68.0173 173.309 71.8449 174.73 72.2697C176.15 72.6945 177.434 72.9841 177.871 73.1987C178.309 73.4132 179.476 72.8317 180.583 71.5421C181.691 70.2524 182.027 68.0423 182.892 67.1089C183.757 66.1754 186.58 61.3838 184.641 60.7724C182.81 60.2146 180.465 60.0151 178.364 59.732C176.345 59.4209 164.073 54.967 161.286 54.0079C158.58 53.021 147.536 48.6935 143.957 47.55C140.459 46.3786 132.365 42.9544 128.05 41.7894C123.817 40.5966 118.042 37.5628 117.004 37.1895C115.965 36.8162 114.478 34.8658 112.875 35.5053C111.272 36.1448 111.586 37.8592 111.622 39.0308C111.875 40.0371 113.071 46.4593 113.071 46.4593Z" fill="#8CF2F2"/>
<path opacity="0.75" d="M113.071 46.4604C113.569 47.3831 114.885 48.2992 115.676 48.4837C116.468 48.6682 117.975 49.6101 119.386 48.9449C120.798 48.2796 120.953 47.1338 121.242 45.8507C121.532 44.5675 121.817 42.7393 122.111 42.0012C122.405 41.263 122.671 40.4433 122.096 40.0936C121.521 39.7439 118.648 38.2677 117.77 37.5661C116.893 36.8645 115.631 35.8389 114.376 35.6308C113.12 35.4227 111.85 36.7681 111.859 37.8582C111.867 38.9482 112.608 42.9758 112.749 43.6559C112.863 44.2546 113.071 46.4604 113.071 46.4604Z" fill="#8CF2F2"/>
</svg>
