<svg width="18" height="18" viewBox="0 0 18 18" fill="none" xmlns="http://www.w3.org/2000/svg">
<g opacity="0.4">
<path d="M6.3 8.09961H4.5V9.89961H6.3V8.09961Z" fill="#0C0A7A"/>
<path d="M9.89961 8.09961H8.09961V9.89961H9.89961V8.09961Z" fill="#0C0A7A"/>
<path d="M13.5002 8.09961H11.7002V9.89961H13.5002V8.09961Z" fill="#0C0A7A"/>
<path d="M6.3 11.7002H4.5V13.5002H6.3V11.7002Z" fill="#0C0A7A"/>
<path d="M9.89961 11.7002H8.09961V13.5002H9.89961V11.7002Z" fill="#0C0A7A"/>
<path d="M13.5002 11.7002H11.7002V13.5002H13.5002V11.7002Z" fill="#0C0A7A"/>
<path d="M17.1 1.8H15.3V0.9C15.3 0.36 14.94 0 14.4 0C13.86 0 13.5 0.36 13.5 0.9V1.8H4.5V0.9C4.5 0.36 4.14 0 3.6 0C3.06 0 2.7 0.36 2.7 0.9V1.8H0.9C0.36 1.8 0 2.16 0 2.7V17.1C0 17.64 0.36 18 0.9 18H17.1C17.55 18 18 17.64 18 17.1V2.7C18 2.16 17.55 1.8 17.1 1.8ZM16.2 16.2H1.8V5.4H16.2V16.2Z" fill="#0C0A7A"/>
</g>
</svg>
