<svg width="206" height="69" viewBox="0 0 206 69" fill="none" xmlns="http://www.w3.org/2000/svg">
<path opacity="0.75" d="M16.4651 59.2604C16.4651 59.2604 22.2652 33.6604 22.8652 31.7604C23.4652 29.8604 25.9652 20.0604 26.3652 17.8604C26.7652 15.6604 26.7652 14.7604 24.8652 14.1604C22.9652 13.4604 18.3651 12.1604 16.3651 11.7604C14.3651 11.3604 11.1651 10.7604 10.4651 13.3604C9.76515 15.8604 9.66514 20.4604 9.06514 21.2604C8.36514 22.0604 7.46515 21.6604 7.46515 21.6604C7.46515 21.6604 6.76514 22.2604 5.56514 21.8604C4.36514 21.4604 3.86515 21.1604 2.96515 21.5604C1.96515 21.9604 0.465138 21.6604 0.0651376 23.0604C-0.234862 24.4604 0.565144 25.2604 1.16514 25.8604C1.66514 26.3604 2.66515 28.5604 2.46515 29.8604C2.36515 31.1604 3.06514 32.3604 3.06514 32.3604C3.06514 32.3604 4.76514 32.1604 5.16514 33.1604C5.56514 34.1604 5.66514 38.3604 4.36514 43.6604C2.96514 48.9604 0.865138 55.8604 2.56514 56.3604C4.16514 56.8604 9.16515 58.0604 11.7652 58.7604C14.1651 59.3604 15.4651 60.3604 16.4651 59.2604Z" fill="#8CF2F2"/>
<path opacity="0.75" d="M2.46513 56.2607C2.06513 56.3607 0.665126 55.1607 2.96513 52.0607C5.26513 48.9607 14.5651 30.4607 17.0651 26.2607C19.5651 22.0607 23.2651 13.6607 24.5651 11.2607C25.9651 8.7607 28.2651 6.5607 29.1651 6.7607C30.0651 6.9607 35.3651 7.66071 37.1651 8.86071C38.9651 9.96071 41.4651 9.86069 41.7651 11.0607C42.0651 12.2607 42.4651 13.0607 41.3651 13.2607C40.3651 13.4607 32.4651 21.5607 30.6651 26.6607C28.8651 31.7607 22.8651 47.1607 20.5651 53.0607C18.2651 58.9607 15.7651 61.0607 14.0651 60.3607C12.4651 59.5607 2.46513 56.2607 2.46513 56.2607Z" fill="#8CF2F2"/>
<path opacity="0.75" d="M28.2652 7.16076C27.6652 7.76076 26.9653 13.8608 26.3653 17.8608C25.7653 21.8608 20.9652 55.6608 21.0652 57.7608C21.1652 59.8608 20.4652 62.8608 22.1652 63.5608C23.8652 64.2608 26.7652 64.6608 28.1652 65.2608C29.5652 65.7608 30.4652 65.8608 31.5652 65.9608C32.6652 66.1608 33.0652 65.8608 34.0652 66.4608C35.0652 67.0607 35.6652 66.9608 35.7652 66.2608C35.8652 65.5608 36.3653 45.4608 37.3653 39.2608C38.2653 33.0608 40.8652 21.4608 41.4652 18.7608C42.1652 16.0608 42.3652 13.3608 41.5652 11.8608C40.7652 10.3608 40.3652 9.36075 38.1652 8.96075C35.9652 8.56075 34.3652 7.46076 32.7652 7.16076C31.2652 6.86076 29.3652 6.06076 28.2652 7.16076Z" fill="#8CF2F2"/>
<path opacity="0.75" d="M54.5648 20.3605C54.2648 21.0605 47.0648 33.6605 46.0648 36.0605C45.0648 38.4605 39.0648 54.2604 38.4648 55.4604C37.8648 56.6604 36.6648 65.3605 35.7648 66.3605C34.9648 67.4605 31.3648 66.0605 30.0648 65.7605C28.6648 65.4605 24.7649 64.1604 23.8649 63.9604C22.9649 63.7604 20.9648 62.6605 20.9648 62.6605C20.9648 62.6605 22.8648 60.5605 23.4648 59.2605C24.0648 58.0605 29.5648 38.9605 30.5648 34.8605C31.5648 30.7605 36.1648 21.5604 37.9648 18.9604C39.7648 16.3604 41.2648 14.7605 43.6648 15.7605C45.9648 16.6605 54.5648 20.3605 54.5648 20.3605Z" fill="#8CF2F2"/>
<path opacity="0.75" d="M49.1653 67.7606C49.3653 66.6606 48.8653 58.9606 49.1653 56.3606C49.4653 53.7606 49.3653 43.1605 51.1653 38.4605C52.8653 33.7605 53.0653 26.8606 53.5653 24.3606C54.0653 21.8606 54.5653 20.2606 54.5653 20.2606C54.5653 20.2606 42.0653 13.4605 41.0653 16.4605C40.0653 19.4605 35.9653 35.6606 35.0653 45.1606C34.1653 54.5606 33.6653 65.2606 35.7653 66.2606C37.9653 67.2606 44.6653 68.7605 46.4653 68.9605C48.2653 69.2605 49.1653 67.7606 49.1653 67.7606Z" fill="#8CF2F2"/>
<path opacity="0.75" d="M48.8655 66.5605C49.2655 65.0605 57.8655 42.5605 59.3655 40.0605C60.9655 37.5605 66.2655 25.1605 67.6655 22.8605C69.0655 20.5605 71.4655 16.8605 71.4655 16.8605L72.1655 15.3605C72.1655 15.3605 69.6655 14.8605 68.9655 14.5605C68.2655 14.2605 67.8655 14.5605 66.4655 14.0605C65.0655 13.5605 63.8655 13.1605 62.5655 13.0605C61.2655 12.9605 61.2655 12.9605 59.9655 12.7605C58.6655 12.6605 57.7655 12.6605 56.9655 13.8605C56.1655 15.1605 47.9655 30.0605 46.0655 35.0605C44.1655 39.9605 38.5655 52.2605 36.9655 56.6605C35.3655 61.0605 33.7655 65.1605 35.4655 66.2605C37.2655 67.3605 42.4655 67.8605 44.9655 68.1605C47.6655 68.5605 48.0655 69.5605 48.8655 66.5605Z" fill="#8CF2F2"/>
<path opacity="0.75" d="M72.3652 15.4608C72.2652 16.9608 70.8652 26.7608 70.9652 29.1608C71.0652 31.4608 68.0652 41.8608 67.6652 44.0608C67.2652 46.2608 67.3652 50.3608 66.8652 51.9608C66.3652 53.5608 66.5652 54.5608 66.5652 55.4608C66.5652 56.3608 66.4652 57.6608 66.5652 58.2608C66.6652 58.8608 66.4652 59.5608 65.7652 59.5608C65.0652 59.4608 64.2652 59.4608 63.3652 59.2608C62.4652 59.0608 61.9652 58.7608 60.5652 58.3608C59.1652 58.0608 56.1652 57.8608 54.5652 57.3608C52.9652 56.8608 51.5652 57.5608 51.6652 56.0608C51.7652 54.5608 54.3652 35.6608 54.8652 32.3608C55.3652 29.0608 56.1652 18.0608 56.5652 17.1608C56.9652 16.1608 56.6652 13.8608 58.2652 13.1608C59.7652 12.3608 62.1652 12.4608 64.5652 13.4608C66.9652 14.4608 69.2652 14.1608 70.2652 14.7608C71.1652 15.2608 72.3652 15.4608 72.3652 15.4608Z" fill="#8CF2F2"/>
<path opacity="0.75" d="M75.0654 35.1606C75.0654 35.1606 74.8654 37.1606 74.2654 39.2606C73.6654 41.3606 72.6654 43.6606 72.6654 43.6606C72.6654 43.6606 74.0654 40.5606 75.4654 37.1606C76.8654 33.8606 81.2654 23.9606 82.4654 21.5606C83.6654 19.1606 84.8654 16.9606 85.2654 14.8606C85.6654 12.8606 86.4654 11.5606 86.4654 11.5606C86.4654 11.5606 85.7654 10.2606 83.2654 9.76057C80.7654 9.26057 78.1654 8.36058 77.3654 8.36058C76.4655 8.36058 75.6654 8.56057 74.7654 8.26057C73.8654 8.06057 71.9654 8.06057 71.6654 8.76057C71.3654 9.46057 68.0654 13.8606 66.7654 17.3606C65.4654 20.8606 58.7654 32.0606 57.0654 38.2606C55.4654 44.4606 53.2654 49.8606 52.7654 51.6606C52.3654 53.4606 50.4654 56.6606 52.4654 57.0606C54.4654 57.4606 58.1654 57.4606 60.4654 58.0606C62.7654 58.6606 65.3654 60.8606 66.4654 57.9606C67.5654 55.1606 69.4655 48.2606 70.3654 46.9606C71.3654 45.6606 70.7654 45.1606 71.7654 42.5606C72.7654 40.2606 75.0654 35.1606 75.0654 35.1606Z" fill="#8CF2F2"/>
<path opacity="0.75" d="M71.665 8.86071C73.465 8.26071 75.7651 8.16068 77.3651 8.46068C78.9651 8.76068 81.165 9.06071 83.265 9.86071C85.365 10.6607 87.0651 11.5607 87.8651 13.1607C88.6651 14.6607 90.165 18.6607 90.565 24.1607C90.965 29.6607 90.365 42.0607 90.565 42.8607C90.765 43.6607 89.565 51.4607 89.465 52.1607C89.365 52.8607 89.365 55.4607 89.465 56.0607C89.565 56.6607 90.065 57.8607 90.065 57.8607L88.265 58.2607C88.265 58.2607 84.165 57.4607 83.465 57.1607C82.765 56.8607 80.865 56.2607 79.765 56.0607C78.665 55.8607 76.665 55.6607 76.565 53.1607C76.465 50.6607 76.765 42.7607 76.965 40.8607C77.165 38.8607 76.965 32.4607 77.065 30.9607C77.165 29.4607 75.765 22.2607 75.465 19.2607C75.265 16.2607 72.965 11.2607 72.765 10.3607C72.665 9.56071 71.665 8.86071 71.665 8.86071Z" fill="#8CF2F2"/>
<path opacity="0.75" d="M120.665 4.66054C119.965 4.56054 119.165 3.76054 118.265 3.66054C117.365 3.66054 114.765 2.56053 114.065 2.06053C113.265 1.56053 111.765 1.26055 111.765 1.26055C111.765 1.26055 108.565 0.260528 107.965 0.460528C107.365 0.560528 106.065 2.36055 104.765 3.36055C103.465 4.26055 99.9654 11.3605 99.1654 12.7605C98.4654 14.2605 90.8654 27.1606 89.9654 28.8606C89.0654 30.5606 82.8654 42.2606 82.4654 43.8606C81.9654 45.4606 77.5654 54.4605 77.7654 55.2605C77.7654 55.2605 78.3654 55.9605 80.0654 56.0605C81.7654 56.0605 82.9654 57.5605 84.9654 57.7605C86.9654 57.9605 89.5654 58.0606 90.3654 57.8606C91.1654 57.6606 90.8654 55.1605 91.1654 53.7605C91.4654 52.3605 93.3654 48.5605 94.3654 46.1605C95.3654 43.7605 98.7654 36.9605 99.6654 34.6605C100.665 32.2605 103.265 26.9605 103.265 26.0605C103.265 25.1605 104.865 26.3605 105.565 25.7605C106.265 25.1605 106.665 23.7605 107.365 22.5605C108.165 21.2605 111.165 16.5606 112.565 15.3606C114.065 14.1606 120.865 5.76055 121.365 4.76055C121.665 3.76055 121.265 4.66054 120.665 4.66054ZM101.565 28.6605C101.365 29.1605 101.265 29.2605 101.065 29.6605C100.865 30.0605 100.265 31.2606 99.9654 31.8606C99.6654 32.4606 99.0654 33.8605 98.8654 34.6605C98.6654 35.4605 98.0654 35.9605 97.8654 36.2605C97.6654 36.6605 96.5654 38.4605 96.2654 39.1605C95.9654 39.7605 95.5654 41.1605 95.1654 41.9605C94.7654 42.7605 94.3654 44.3605 94.0654 44.7605C93.7654 45.0605 93.1654 46.3605 92.9654 46.7605C92.7654 47.1605 92.6654 47.0605 92.6654 46.5605C92.6654 46.0605 93.1654 45.5606 93.5654 44.8606C93.9654 44.1606 94.3654 43.0605 94.5654 42.4605C94.8654 41.8605 95.6654 39.3605 95.9654 38.9605C96.1654 38.5605 97.8654 35.0606 98.1654 34.3606C98.4654 33.6606 99.1654 32.2605 99.3654 31.7605C99.6654 31.1605 100.865 28.3605 101.165 28.1605C101.865 27.5605 101.765 28.1605 101.565 28.6605Z" fill="#8CF2F2"/>
<path opacity="0.75" d="M107.265 1.06069C107.265 1.06069 106.965 6.36071 106.665 7.76071C106.365 9.16071 105.765 20.7607 105.865 22.6607C105.965 24.5607 104.565 38.5607 104.565 43.6607C104.565 48.7607 104.865 53.2607 106.165 53.8607C107.465 54.4607 109.665 54.8607 110.865 55.0607C112.065 55.2607 114.065 55.3607 114.565 55.5607C115.065 55.7607 117.065 55.8607 117.065 55.8607C117.065 55.8607 118.465 55.3607 118.565 54.4607C118.665 53.5607 119.665 49.2607 119.665 48.8607C119.665 48.3607 119.865 39.4607 120.065 38.0607C120.165 36.6607 121.665 20.8607 121.865 17.6607C122.065 14.4607 122.565 8.96071 122.365 7.86071C122.065 6.76071 122.765 5.86069 121.965 4.96069C121.165 4.06069 119.565 3.16069 117.665 2.96069C115.665 2.86069 114.165 1.96071 113.165 1.36071C111.965 0.760712 107.565 0.060694 107.265 1.06069Z" fill="#8CF2F2"/>
<path opacity="0.75" d="M106.165 53.8606C105.765 53.2606 111.565 42.0606 112.665 39.2606C113.865 36.4606 115.765 31.7606 116.665 28.7606C117.665 25.8606 122.265 16.5606 122.765 15.7606C123.265 14.8606 124.865 11.8606 126.165 12.2606C127.465 12.7606 130.965 14.1606 131.365 14.3606C131.865 14.5606 133.765 15.0606 134.865 15.4606C136.065 15.9606 136.665 15.9606 137.165 16.2606C137.665 16.5606 137.665 16.5606 137.665 16.5606C137.665 16.5606 135.665 17.7606 134.465 18.7606C133.165 19.7606 130.165 24.0606 129.465 25.4606C128.765 26.8606 126.365 32.8606 125.265 35.3606C124.165 37.8606 123.465 40.0606 123.065 41.2606C122.565 42.4606 121.665 44.3606 121.665 44.3606C121.665 44.3606 121.765 42.9606 122.865 40.3606C123.865 37.7606 125.065 35.3606 125.465 34.0606C125.965 32.7606 126.665 31.5606 125.965 31.8606C125.265 32.1606 124.365 35.3606 123.865 36.2606C123.365 37.1606 122.065 41.2606 121.565 41.8606C121.065 42.4606 120.265 44.8606 120.165 45.4606C119.965 46.0606 120.765 46.0606 120.465 46.8606C120.165 47.6606 119.465 50.3606 119.165 51.1606C118.865 51.9606 118.265 55.8606 116.965 55.6606C115.565 55.5606 112.965 55.6606 110.465 55.1606C108.065 54.9606 106.165 53.8606 106.165 53.8606Z" fill="#8CF2F2"/>
<path opacity="0.75" d="M125.465 12.5605C126.465 12.4605 128.365 13.3605 129.065 13.5605C129.865 13.6605 131.565 14.6605 133.265 14.9605C134.965 15.3605 137.665 15.7605 138.365 17.6605C139.065 19.5605 139.965 29.2605 139.965 30.5605C139.965 31.8605 140.165 40.4605 140.265 41.5605C140.365 42.5605 140.265 46.6605 140.265 47.6605C140.365 48.6605 140.165 50.6605 140.165 51.1605C140.165 51.6605 139.765 53.9605 138.065 53.8605C136.365 53.7605 132.965 53.2605 131.765 53.1605C130.565 53.1605 128.365 52.5605 127.865 51.6605C127.365 50.7605 126.965 49.1605 127.265 48.3605C127.565 47.5605 126.865 42.0605 126.965 40.5605C127.065 39.0605 127.365 36.2605 127.265 34.6605C127.165 33.0605 125.965 25.7605 125.765 23.9605C125.565 22.2605 125.765 17.5605 125.765 16.1605C125.865 14.8605 125.465 12.5605 125.465 12.5605Z" fill="#8CF2F2"/>
<path opacity="0.75" d="M154.965 23.8608C154.565 24.0608 152.865 26.5608 152.465 27.2608C152.065 27.9608 149.365 32.1608 148.565 33.1608C147.765 34.2608 146.765 36.8608 146.065 37.8608C145.365 38.8608 144.565 41.0608 143.965 41.6608C143.365 42.2608 142.665 43.5608 142.665 43.5608L142.065 45.3608C142.065 45.3608 140.865 48.7608 140.665 49.8608C140.465 50.9608 140.465 52.4608 139.765 53.0608C138.965 53.6608 138.265 53.6608 138.265 53.6608C138.265 53.6608 132.365 53.0608 130.465 52.8608C128.665 52.6608 128.065 51.4608 128.065 51.4608C128.065 51.4608 130.365 48.5608 130.665 47.7608C130.965 46.9608 134.265 40.5608 134.965 39.1608C135.665 37.7608 137.265 33.6608 137.465 32.0608C137.665 30.3608 139.865 22.8608 140.265 21.5608C140.665 20.2608 141.865 17.9608 143.165 18.0608C144.565 18.1608 148.065 20.0608 148.065 20.0608C148.065 20.0608 151.265 20.9608 151.765 21.4608C152.465 22.0608 154.965 23.8608 154.965 23.8608Z" fill="#8CF2F2"/>
<path opacity="0.75" d="M141.266 19.3606C141.566 19.8606 141.266 26.6606 141.566 28.0606C141.866 29.4606 142.866 37.1606 142.866 39.6606C142.866 42.1606 144.466 45.5606 145.166 45.6606C145.766 45.8606 148.866 46.2606 150.066 46.3606C151.266 46.3606 154.166 47.2606 154.566 47.1606C154.966 47.0606 156.766 46.9606 156.766 46.9606C156.766 46.9606 155.966 43.4606 155.666 42.1606C155.366 40.8606 155.266 34.4606 155.266 32.5606C155.266 30.6606 154.666 26.5606 154.866 25.7606C155.166 24.9606 154.866 23.8606 154.266 23.1606C153.666 22.5606 150.966 20.9606 148.966 20.1606C146.966 19.4606 145.966 18.8606 145.166 18.6606C144.366 18.3606 144.566 17.8606 143.066 18.0606C141.766 18.3606 141.266 19.3606 141.266 19.3606Z" fill="#8CF2F2"/>
<path opacity="0.75" d="M156.765 47.0606C157.065 47.1606 157.765 44.4606 158.165 44.0606C158.565 43.6606 164.865 33.5606 165.665 31.6606C166.365 29.6606 168.565 26.5606 169.365 25.7606C170.265 24.9606 171.765 23.4606 171.065 22.8606C170.365 22.2606 165.065 20.1606 163.465 19.3606C161.765 18.5606 159.865 17.3606 158.765 17.1606C157.665 16.9606 155.365 18.8606 155.165 19.7606C154.965 20.6606 153.765 26.7606 153.065 29.4606C152.365 32.1606 148.465 39.1606 147.265 41.2606C146.065 43.3606 143.265 45.4606 145.165 45.8606C147.065 46.3606 151.965 46.9606 153.765 47.1606C155.665 47.2606 156.765 47.0606 156.765 47.0606Z" fill="#8CF2F2"/>
<path opacity="0.75" d="M158.065 17.1608C157.065 17.9608 155.965 18.9608 156.165 20.1608C156.465 21.2608 156.465 32.6608 156.565 34.5608C156.665 36.4608 157.165 41.5608 157.165 42.9608C157.165 44.2608 157.265 46.1608 158.665 46.1608C159.965 46.1608 163.865 47.2608 165.065 47.3608C166.265 47.5608 169.065 48.0608 169.565 47.5608C170.065 46.9608 171.265 43.4608 171.465 42.6608C171.565 41.8608 175.665 35.4608 176.665 34.0608C177.665 32.6608 182.465 27.2608 184.165 25.1608C185.965 23.1608 188.565 20.1608 188.065 19.4608C187.665 18.8608 181.265 15.9608 180.065 15.1608C178.865 14.3608 176.065 12.7608 174.365 14.8608C172.565 16.8608 170.365 20.0608 170.265 20.8608C170.165 21.6608 169.365 21.9608 169.365 21.9608C169.365 21.9608 159.165 16.3608 158.065 17.1608Z" fill="#8CF2F2"/>
<path opacity="0.75" d="M174.365 14.8607C174.765 15.2607 174.965 18.8607 174.965 19.4607C174.965 20.0607 174.965 27.4607 175.165 28.6607C175.265 29.8607 175.465 36.0607 175.165 37.2607C174.865 38.5607 174.665 43.6607 174.665 44.6607C174.565 45.7607 174.665 46.7607 175.865 47.4607C177.065 48.2607 180.465 48.4607 181.865 48.9607C183.265 49.3607 185.865 49.3607 186.365 49.2607C186.965 49.1607 186.665 48.1607 186.665 47.3607C186.665 46.6607 187.565 38.0607 187.965 34.5607C188.165 32.6607 188.065 25.2607 188.265 23.4607C188.465 21.6607 187.365 18.7607 187.365 18.7607C187.365 18.7607 180.565 14.9607 178.165 14.2607C175.765 13.7607 174.365 14.8607 174.365 14.8607Z" fill="#8CF2F2"/>
<path opacity="0.75" d="M193.765 19.5605C192.965 19.1605 190.665 19.2605 190.465 20.1605C190.265 21.0605 186.965 27.6605 186.965 27.6605C186.965 27.6605 183.665 33.9605 183.265 34.7605C182.865 35.5605 180.865 38.5605 180.265 39.9605C179.665 41.2605 179.265 42.7605 178.265 43.5605C177.265 44.3605 174.665 46.7605 175.365 47.3605C176.065 47.9605 177.865 48.7605 180.365 49.0605C182.865 49.3605 184.465 50.0605 185.165 49.8605C185.865 49.6605 186.765 49.0605 187.165 48.2605C187.565 47.4605 188.865 44.5605 189.465 43.9605C190.065 43.3605 191.265 40.7605 191.665 39.8605C192.065 39.0605 195.965 33.6605 196.565 32.4605C197.165 31.2605 199.465 28.9605 200.365 28.0605C201.165 27.1605 202.465 26.6605 203.065 26.2605C203.665 25.8605 205.265 24.9605 204.665 24.5605C203.965 24.1605 200.065 22.7605 198.965 21.9605C197.865 21.1605 195.865 20.1605 195.065 19.9605C194.265 19.8605 193.765 19.5605 193.765 19.5605Z" fill="#8CF2F2"/>
<path opacity="0.75" d="M190.465 20.1606C190.465 20.1606 191.265 20.5606 191.465 21.8606C191.565 23.1606 191.465 26.3606 191.565 27.0606C191.765 27.7606 191.865 31.4606 191.865 32.2606C191.865 32.9606 191.965 37.4606 192.065 38.1606C192.065 38.8606 192.365 42.1606 192.265 43.0606C192.165 43.9606 192.365 48.0606 192.565 49.0606C192.765 50.0606 192.865 51.6606 193.765 52.2606C194.665 52.7606 197.165 53.4606 197.965 53.6606C198.765 53.9606 200.865 53.7606 201.465 54.0606C202.165 54.3606 202.865 54.3606 203.565 54.3606C204.265 54.3606 205.065 53.5606 204.565 52.9606C204.165 52.3606 203.765 51.2606 203.765 50.6606C203.765 50.0606 204.365 49.4606 204.165 48.6606C203.965 47.7606 203.965 46.9606 204.265 46.2606C204.565 45.5606 203.865 43.8606 203.865 42.4606C203.865 41.1606 204.765 39.1606 204.865 38.2606C204.965 37.3606 205.165 34.7606 205.065 33.7606C204.965 32.7606 205.665 31.0606 205.465 30.2606C205.265 29.3606 205.465 26.9606 205.265 26.1606C205.065 25.2606 204.965 24.8606 204.165 24.4606C203.365 24.0606 199.265 22.7606 197.365 21.3606C195.465 20.0606 193.965 19.5606 192.965 19.5606C191.765 19.2606 190.865 19.5606 190.465 20.1606Z" fill="#8CF2F2"/>
</svg>
