<svg width="211" height="60" viewBox="0 0 211 60" fill="none" xmlns="http://www.w3.org/2000/svg">
<path d="M11.0114 0H33.1992L22.1878 19.0751H0L11.0114 0Z" fill="#8CF2F2"/>
<path d="M33.1989 38.1503H55.3867L44.3753 57.2254H22.1875L33.1989 38.1503Z" fill="#FCEC60"/>
<path d="M11.0114 38.1503H33.1992L22.1878 19.0751H0L11.0114 38.1503Z" fill="#B27CF8"/>
<path d="M33.1989 38.1503H55.3867L44.3753 19.0751H22.1875L33.1989 38.1503Z" fill="#F8A3E5"/>
<path d="M89.5498 8.67538L86.4655 9.64636C86.3322 8.86577 85.9419 8.15181 85.2946 7.50449C84.6473 6.85717 83.7144 6.53351 82.4959 6.53351C81.4868 6.53351 80.6491 6.81909 79.9828 7.39026C79.3354 7.96142 79.0118 8.64682 79.0118 9.44645C79.0118 10.8363 79.8019 11.7026 81.3821 12.0453L84.2951 12.645C86.0466 12.9877 87.3984 13.6826 88.3503 14.7297C89.3023 15.7769 89.7783 17.0239 89.7783 18.4709C89.7783 20.1463 89.1309 21.5932 87.8363 22.8117C86.5607 24.0112 84.8186 24.6109 82.6101 24.6109C80.2303 24.6109 78.374 23.9921 77.0413 22.7546C75.7085 21.498 74.9565 20.0416 74.7852 18.3852L77.9837 17.4713C78.0979 18.6137 78.5549 19.5751 79.3545 20.3557C80.1541 21.1363 81.2393 21.5266 82.6101 21.5266C83.7905 21.5266 84.6949 21.2696 85.3232 20.7555C85.9705 20.2224 86.2941 19.5466 86.2941 18.7279C86.2941 18.0615 86.0562 17.4904 85.5802 17.0144C85.1042 16.5194 84.4379 16.1767 83.5811 15.9863L80.7253 15.3866C79.1451 15.0629 77.8885 14.4061 76.9556 13.4161C76.0417 12.426 75.5848 11.1885 75.5848 9.70348C75.5848 8.00902 76.2607 6.55255 77.6124 5.33406C78.9642 4.11557 80.5825 3.50633 82.4673 3.50633C84.6187 3.50633 86.2656 4.0299 87.4079 5.07703C88.5503 6.10513 89.2642 7.30458 89.5498 8.67538Z" fill="white"/>
<path d="M94.913 20.47C95.6745 21.2505 96.5979 21.6408 97.6831 21.6408C98.7683 21.6408 99.6822 21.2505 100.425 20.47C101.186 19.6894 101.567 18.6041 101.567 17.2143C101.567 15.8435 101.186 14.7773 100.425 14.0158C99.6822 13.2352 98.7683 12.8449 97.6831 12.8449C96.5979 12.8449 95.6745 13.2352 94.913 14.0158C94.1704 14.7773 93.7992 15.8435 93.7992 17.2143C93.7992 18.5851 94.1704 19.6703 94.913 20.47ZM97.6831 9.84627C99.7774 9.84627 101.5 10.5412 102.852 11.931C104.223 13.3209 104.908 15.082 104.908 17.2143C104.908 19.3467 104.223 21.1173 102.852 22.5261C101.5 23.916 99.7774 24.6109 97.6831 24.6109C95.6079 24.6109 93.8849 23.916 92.5141 22.5261C91.1623 21.1173 90.4864 19.3467 90.4864 17.2143C90.4864 15.082 91.1623 13.3209 92.5141 11.931C93.8849 10.5412 95.6079 9.84627 97.6831 9.84627Z" fill="white"/>
<path d="M112.879 12.902C111.813 12.902 110.908 13.2923 110.166 14.0729C109.423 14.8344 109.052 15.8816 109.052 17.2143C109.052 18.5661 109.423 19.6322 110.166 20.4128C110.928 21.1934 111.851 21.5837 112.936 21.5837C113.907 21.5837 114.678 21.3267 115.249 20.8127C115.84 20.2796 116.23 19.6798 116.42 19.0135L119.333 20.0701C118.952 21.3077 118.21 22.3738 117.106 23.2687C116.02 24.1635 114.631 24.6109 112.936 24.6109C110.899 24.6109 109.185 23.9065 107.796 22.4976C106.425 21.0887 105.739 19.3276 105.739 17.2143C105.739 15.082 106.415 13.3209 107.767 11.931C109.138 10.5412 110.832 9.84627 112.85 9.84627C114.583 9.84627 115.992 10.2937 117.077 11.1885C118.181 12.0833 118.895 13.159 119.219 14.4156L116.249 15.5008C116.059 14.7773 115.687 14.1681 115.135 13.6731C114.602 13.159 113.85 12.902 112.879 12.902Z" fill="white"/>
<path d="M124.274 24.1825H120.99V10.2746H124.274V24.1825ZM121.104 6.90476C120.685 6.48591 120.476 5.98138 120.476 5.39117C120.476 4.80097 120.685 4.29644 121.104 3.87759C121.523 3.43969 122.028 3.22075 122.618 3.22075C123.227 3.22075 123.741 3.43017 124.16 3.84903C124.579 4.26788 124.788 4.78193 124.788 5.39117C124.788 5.98138 124.579 6.48591 124.16 6.90476C123.741 7.32362 123.227 7.53305 122.618 7.53305C122.028 7.53305 121.523 7.32362 121.104 6.90476Z" fill="white"/>
<path d="M126.406 20.4128C126.406 19.2324 126.787 18.29 127.548 17.5856C128.329 16.8621 129.348 16.4052 130.604 16.2148L134.174 15.6722C134.859 15.577 135.202 15.2438 135.202 14.6726C135.202 14.0443 134.983 13.5398 134.545 13.159C134.107 12.7592 133.45 12.5593 132.575 12.5593C131.737 12.5593 131.071 12.7973 130.576 13.2733C130.081 13.7302 129.795 14.3299 129.719 15.0724L126.692 14.387C126.825 13.1305 127.425 12.0643 128.491 11.1885C129.557 10.2937 130.909 9.84627 132.546 9.84627C134.564 9.84627 136.049 10.3318 137.001 11.3027C137.972 12.2737 138.458 13.5208 138.458 15.0439V21.955C138.458 22.8688 138.515 23.6114 138.629 24.1825H135.545C135.45 23.8969 135.402 23.3067 135.402 22.4119C134.488 23.8779 133.06 24.6109 131.118 24.6109C129.709 24.6109 128.567 24.2016 127.691 23.3829C126.834 22.5452 126.406 21.5552 126.406 20.4128ZM131.746 22.0121C132.775 22.0121 133.603 21.736 134.231 21.1839C134.878 20.6127 135.202 19.6894 135.202 18.4138V17.7855L131.575 18.3281C130.338 18.5375 129.719 19.1658 129.719 20.2129C129.719 20.7079 129.9 21.1363 130.261 21.4981C130.623 21.8407 131.118 22.0121 131.746 22.0121Z" fill="white"/>
<path d="M144.49 24.1825H141.177V3.50633H144.49V24.1825Z" fill="white"/>
<path d="M85.2375 54.5739C82.4007 54.5739 79.9828 53.6125 77.9837 51.6895C76.0036 49.7666 75.0136 47.2154 75.0136 44.0359C75.0136 40.8755 76.0227 38.3243 78.0408 36.3823C80.0589 34.4403 82.4483 33.4693 85.2089 33.4693C87.6459 33.4693 89.645 34.0881 91.2062 35.3256C92.7864 36.5632 93.824 38.1339 94.319 40.0378L91.0919 41.123C90.7683 39.8093 90.1114 38.7431 89.1214 37.9244C88.1314 37.1058 86.8272 36.6964 85.2089 36.6964C83.4002 36.6964 81.8295 37.3438 80.4968 38.6384C79.1831 39.914 78.5263 41.7132 78.5263 44.0359C78.5263 46.3015 79.1831 48.0817 80.4968 49.3763C81.8105 50.6519 83.3907 51.2897 85.2375 51.2897C86.8177 51.2897 88.1219 50.8613 89.15 50.0046C90.1781 49.1478 90.8825 48.0912 91.2633 46.8346L94.4047 47.8627C93.9097 49.7476 92.8626 51.3373 91.2633 52.632C89.6831 53.9266 87.6745 54.5739 85.2375 54.5739Z" fill="white"/>
<path d="M99.1521 50.433C99.9136 51.2136 100.837 51.6039 101.922 51.6039C103.007 51.6039 103.921 51.2136 104.664 50.433C105.425 49.6524 105.806 48.5672 105.806 47.1773C105.806 45.8065 105.425 44.7403 104.664 43.9788C103.921 43.1982 103.007 42.8079 101.922 42.8079C100.837 42.8079 99.9136 43.1982 99.1521 43.9788C98.4096 44.7403 98.0383 45.8065 98.0383 47.1773C98.0383 48.5481 98.4096 49.6333 99.1521 50.433ZM101.922 39.8093C104.017 39.8093 105.74 40.5042 107.091 41.894C108.462 43.2839 109.147 45.045 109.147 47.1773C109.147 49.3097 108.462 51.0803 107.091 52.4892C105.74 53.879 104.017 54.5739 101.922 54.5739C99.847 54.5739 98.124 53.879 96.7532 52.4892C95.4014 51.0803 94.7255 49.3097 94.7255 47.1773C94.7255 45.045 95.4014 43.2839 96.7532 41.894C98.124 40.5042 99.847 39.8093 101.922 39.8093Z" fill="white"/>
<path d="M114.348 54.1455H111.064V40.2377H114.234V42.0083C114.615 41.3229 115.186 40.7898 115.947 40.409C116.728 40.0282 117.527 39.8378 118.346 39.8378C119.279 39.8378 120.117 40.0473 120.859 40.4661C121.602 40.885 122.154 41.4942 122.516 42.2939C123.487 40.6565 124.991 39.8378 127.028 39.8378C128.399 39.8378 129.56 40.2853 130.512 41.1801C131.464 42.0749 131.94 43.3886 131.94 45.1211V54.1455H128.741V45.6637C128.741 44.807 128.513 44.1216 128.056 43.6075C127.618 43.0745 126.952 42.8079 126.057 42.8079C125.2 42.8079 124.505 43.103 123.972 43.6932C123.439 44.2834 123.172 45.0164 123.172 45.8922V54.1455H119.917V45.6637C119.917 44.807 119.688 44.1216 119.231 43.6075C118.794 43.0745 118.127 42.8079 117.232 42.8079C116.357 42.8079 115.652 43.103 115.119 43.6932C114.605 44.2644 114.348 44.9974 114.348 45.8922V54.1455Z" fill="white"/>
<path d="M137.996 59.5716H134.711V40.2377H137.91V42.1225C138.272 41.4942 138.843 40.9707 139.623 40.5518C140.404 40.1329 141.308 39.9235 142.336 39.9235C144.336 39.9235 145.906 40.6089 147.049 41.9797C148.191 43.3315 148.762 45.064 148.762 47.1773C148.762 49.2906 148.162 51.0422 146.963 52.4321C145.763 53.8028 144.183 54.4882 142.222 54.4882C141.27 54.4882 140.423 54.3074 139.681 53.9456C138.938 53.5839 138.376 53.127 137.996 52.5748V59.5716ZM145.449 47.1773C145.449 45.8827 145.107 44.8451 144.421 44.0645C143.736 43.2648 142.831 42.865 141.708 42.865C140.604 42.865 139.7 43.2648 138.995 44.0645C138.31 44.8451 137.967 45.8827 137.967 47.1773C137.967 48.491 138.31 49.5477 138.995 50.3473C139.7 51.1469 140.604 51.5467 141.708 51.5467C142.812 51.5467 143.707 51.1469 144.393 50.3473C145.097 49.5477 145.449 48.491 145.449 47.1773Z" fill="white"/>
<path d="M159.631 52.6034C159.307 53.2126 158.774 53.6886 158.032 54.0313C157.308 54.374 156.528 54.5454 155.69 54.5454C154.072 54.5454 152.786 54.0218 151.835 52.9747C150.902 51.9275 150.435 50.6043 150.435 49.0051V40.2377H153.748V48.4053C153.748 49.3382 153.976 50.0998 154.433 50.69C154.89 51.2802 155.595 51.5753 156.547 51.5753C157.48 51.5753 158.194 51.2897 158.689 50.7186C159.203 50.1474 159.46 49.3954 159.46 48.4624V40.2377H162.772V51.6039C162.772 52.4416 162.82 53.2888 162.915 54.1455H159.745C159.669 53.7267 159.631 53.2126 159.631 52.6034Z" fill="white"/>
<path d="M169.973 35.9825V40.2377H172.858V43.1792H169.973V49.6333C169.973 50.2426 170.116 50.69 170.402 50.9756C170.687 51.2421 171.135 51.3754 171.744 51.3754C172.125 51.3754 172.505 51.3373 172.886 51.2612V54.0028C172.391 54.2122 171.715 54.3169 170.859 54.3169C169.564 54.3169 168.545 53.9552 167.803 53.2317C167.06 52.4892 166.689 51.4706 166.689 50.1759V43.1792H164.119V40.2377H164.833C165.537 40.2377 166.07 40.0378 166.432 39.6379C166.794 39.2381 166.975 38.7146 166.975 38.0672V35.9825H169.973Z" fill="white"/>
<path d="M178.261 54.1455H174.976V40.2377H178.261V54.1455ZM175.091 36.8678C174.672 36.4489 174.462 35.9444 174.462 35.3542C174.462 34.764 174.672 34.2595 175.091 33.8406C175.509 33.4027 176.014 33.1838 176.604 33.1838C177.213 33.1838 177.727 33.3932 178.146 33.812C178.565 34.2309 178.775 34.745 178.775 35.3542C178.775 35.9444 178.565 36.4489 178.146 36.8678C177.727 37.2866 177.213 37.4961 176.604 37.4961C176.014 37.4961 175.509 37.2866 175.091 36.8678Z" fill="white"/>
<path d="M184.562 46.1207V54.1455H181.249V40.2377H184.476V42.0939C184.914 41.3324 185.495 40.7707 186.218 40.409C186.961 40.0282 187.751 39.8378 188.589 39.8378C190.226 39.8378 191.473 40.3519 192.33 41.38C193.186 42.4081 193.615 43.7313 193.615 45.3496V54.1455H190.302V45.9208C190.302 44.9879 190.074 44.2453 189.617 43.6932C189.16 43.122 188.436 42.8365 187.446 42.8365C186.532 42.8365 185.818 43.1506 185.304 43.7789C184.809 44.3881 184.562 45.1687 184.562 46.1207Z" fill="white"/>
<path d="M195.363 54.9166L198.419 54.117C198.533 54.9928 198.904 55.7067 199.533 56.2589C200.18 56.83 200.97 57.1156 201.903 57.1156C204.53 57.1156 205.844 55.7258 205.844 52.9461V51.4896C205.52 52.0798 205.006 52.5653 204.302 52.9461C203.597 53.3269 202.769 53.5173 201.817 53.5173C199.952 53.5173 198.409 52.8795 197.191 51.6039C195.991 50.3283 195.392 48.71 195.392 46.749C195.392 44.8641 195.991 43.2648 197.191 41.9512C198.39 40.6375 199.933 39.9806 201.817 39.9806C203.855 39.9806 205.225 40.6565 205.93 42.0083V40.2377H209.128V52.8319C209.128 54.8881 208.548 56.592 207.386 57.9438C206.225 59.3146 204.426 60 201.989 60C200.199 60 198.695 59.5145 197.476 58.5435C196.258 57.5725 195.554 56.3636 195.363 54.9166ZM202.36 50.69C203.426 50.69 204.283 50.3378 204.93 49.6333C205.597 48.9099 205.93 47.9484 205.93 46.749C205.93 45.5685 205.597 44.6261 204.93 43.9217C204.264 43.1982 203.407 42.8365 202.36 42.8365C201.294 42.8365 200.418 43.1982 199.733 43.9217C199.066 44.6261 198.733 45.5685 198.733 46.749C198.733 47.9484 199.066 48.9099 199.733 49.6333C200.399 50.3378 201.275 50.69 202.36 50.69Z" fill="white"/>
<path d="M152.337 5.66302C152.337 4.39606 153.364 3.36898 154.631 3.36898H207.916C209.183 3.36898 210.21 4.39606 210.21 5.66302V21.7306C210.21 22.9975 209.183 24.0246 207.916 24.0246H154.631C153.364 24.0246 152.337 22.9975 152.337 21.7306V5.66302Z" fill="#8CF2F2"/>
<path d="M163.261 17.0049L162.719 15.5184H160.076L159.535 17.0049H158.195L160.691 10.499H162.159L164.637 17.0049H163.261ZM161.398 11.903L160.499 14.3622H162.297L161.398 11.903Z" fill="#0C0A7A"/>
<path d="M168.101 17.1425C167.165 17.1425 166.376 16.8306 165.734 16.2066C165.091 15.5826 164.77 14.7659 164.77 13.7565C164.77 12.7533 165.094 11.9366 165.743 11.3065C166.397 10.6764 167.177 10.3614 168.083 10.3614C168.915 10.3614 169.581 10.5724 170.083 10.9945C170.591 11.4166 170.918 11.9244 171.065 12.5178L169.872 12.894C169.78 12.5269 169.588 12.218 169.294 11.9672C169 11.7103 168.596 11.5818 168.083 11.5818C167.55 11.5818 167.082 11.7714 166.679 12.1507C166.281 12.53 166.082 13.0653 166.082 13.7565C166.082 14.4172 166.278 14.9403 166.669 15.3257C167.067 15.7111 167.544 15.9038 168.101 15.9038C168.609 15.9038 169.012 15.7722 169.312 15.5092C169.618 15.2461 169.823 14.9341 169.927 14.5732L171.111 14.9311C171.043 15.1941 170.933 15.4511 170.78 15.7019C170.634 15.9527 170.441 16.1882 170.202 16.4084C169.964 16.6287 169.661 16.8061 169.294 16.9407C168.933 17.0753 168.535 17.1425 168.101 17.1425Z" fill="#0C0A7A"/>
<path d="M176.308 17.0049L175.767 15.5184H173.124L172.582 17.0049H171.243L173.739 10.499H175.207L177.684 17.0049H176.308ZM174.445 11.903L173.546 14.3622H175.344L174.445 11.903Z" fill="#0C0A7A"/>
<path d="M179.783 15.8304H180.792C181.361 15.8304 181.829 15.6529 182.196 15.2981C182.563 14.9433 182.747 14.4295 182.747 13.7565C182.747 13.0836 182.563 12.5698 182.196 12.2149C181.829 11.854 181.364 11.6736 180.801 11.6736H179.783V15.8304ZM180.838 17.0049H178.516V10.499H180.847C181.795 10.499 182.566 10.7896 183.16 11.3707C183.759 11.9519 184.059 12.7472 184.059 13.7565C184.059 14.7598 183.759 15.552 183.16 16.1332C182.56 16.7143 181.786 17.0049 180.838 17.0049Z" fill="#0C0A7A"/>
<path d="M189.231 17.0049H185.157V10.499H189.231V11.6919H186.423V13.1784H188.965V14.3071H186.423V15.812H189.231V17.0049Z" fill="#0C0A7A"/>
<path d="M197.756 17.0049H196.508V12.4444L194.636 17.0049H193.581L191.709 12.4811V17.0049H190.497V10.499H192.167L194.122 15.1972L196.031 10.499H197.756V17.0049Z" fill="#0C0A7A"/>
<path d="M200.858 14.2704L198.592 10.499H200.078L201.537 13.0775L202.996 10.499H204.419L202.125 14.2704V17.0049H200.858V14.2704Z" fill="#0C0A7A"/>
</svg>
