<svg width="74" height="74" viewBox="0 0 74 74" fill="none" xmlns="http://www.w3.org/2000/svg">
<path d="M71 37C71 55.7777 55.7777 71 37 71C18.2223 71 3 55.7777 3 37C3 18.2223 18.2223 3 37 3C55.7777 3 71 18.2223 71 37Z" fill="#8CF2F2" fill-opacity="0.2" stroke="white" stroke-width="6"/>
<path d="M73 37C73 56.8823 56.8823 73 37 73C17.1177 73 1 56.8823 1 37C1 17.1177 17.1177 1 37 1C56.8823 1 73 17.1177 73 37Z" stroke="#8CF2F2" stroke-width="2"/>
<path fill-rule="evenodd" clip-rule="evenodd" d="M41.9195 16H51.7643C55.1656 16 57.9993 18.7511 57.9993 22.153V27.1574C57.9993 30.5587 55.1662 33.3105 51.7643 33.3105H47.2521L42.6579 36.7561C42.2844 37.0362 41.7854 37.0805 41.3692 36.8724C40.9522 36.6638 40.6889 36.2378 40.6889 35.7717V33.1868C37.8839 32.6151 35.7665 30.1289 35.7665 27.1574V22.153C35.7665 18.7602 38.5267 16 41.9195 16ZM45.5772 42.8066L54.2788 49.047C54.5724 49.2576 54.7587 49.5866 54.7882 49.9468C54.8177 50.3069 54.6873 50.6618 54.4318 50.9173L49.8986 55.4504C47.3789 57.9702 43.5698 58.7053 40.4214 57.2824C34.272 54.5034 28.9011 50.527 24.4579 45.4636C21.3498 41.9216 18.7638 37.9421 16.772 33.6356C15.2824 30.4148 15.9904 26.5421 18.5338 23.9989L23.0238 19.5093C23.2793 19.2538 23.6346 19.1235 23.9943 19.153C24.3544 19.1824 24.6834 19.3686 24.894 19.6623L31.1346 28.3638C31.4253 28.7693 31.4426 29.3101 31.1782 29.7332L28.1 34.659C27.9796 34.9629 28.1432 36.3184 30.338 39.0067C31.8192 40.8211 33.816 42.7095 35.6793 44.0583C37.8954 45.6626 39.0416 45.8771 39.3053 45.8266L44.2079 42.763C44.6309 42.4986 45.1718 42.5158 45.5772 42.8066ZM40.6889 24.6963C40.6889 24.0166 41.2398 23.4657 41.9195 23.4657C42.5992 23.4657 43.1501 24.0166 43.1501 24.6963C43.1501 25.3759 42.5991 25.9269 41.9195 25.9269C41.2398 25.9269 40.6889 25.3759 40.6889 24.6963ZM46.8419 23.4657C46.1622 23.4657 45.6113 24.0166 45.6113 24.6963C45.6113 25.3759 46.1622 25.9269 46.8419 25.9269C47.5215 25.9269 48.0725 25.3759 48.0725 24.6963C48.0725 24.0166 47.5216 23.4657 46.8419 23.4657ZM50.5337 24.6963C50.5337 24.0166 51.0847 23.4657 51.7643 23.4657C52.444 23.4657 52.9949 24.0166 52.9949 24.6963C52.9949 25.3759 52.4439 25.9269 51.7643 25.9269C51.0847 25.9269 50.5337 25.3759 50.5337 24.6963Z" fill="#8FE9E9"/>
</svg>
