<svg width="50" height="50" viewBox="0 0 50 50" fill="none" xmlns="http://www.w3.org/2000/svg">
<path d="M47.4998 7.22276V7.22289V42.7836C47.4998 44.5213 46.086 45.9352 44.3474 45.9352H5.65511C3.91492 45.9352 2.5 44.5197 2.5 42.7836V7.22289C2.5 5.48048 3.91753 4.06494 5.65511 4.06494H44.3476C46.0836 4.06494 47.4999 5.47893 47.4998 7.22276Z" fill="white" fill-opacity="0.3" stroke="#0C0A7A" stroke-width="5" stroke-linejoin="round"/>
<path d="M32.3328 9.97949C35.3489 9.97949 37.7949 12.4257 37.7949 15.4416C37.7949 18.4575 35.3487 20.9037 32.3328 20.9037C29.3158 20.9037 26.8706 18.4575 26.8706 15.4416C26.8706 12.4257 29.3158 9.97949 32.3328 9.97949ZM42.5743 43.2078H24.9997H8.20815C6.6996 43.2078 6.02775 42.1164 6.7078 40.7698L16.0818 22.2029C16.761 20.8565 18.0555 20.7364 18.9722 21.9343L28.3981 34.2524C29.3148 35.4505 30.9171 35.5524 31.9776 34.479L34.2835 32.144C35.3432 31.0706 36.9045 31.2035 37.7693 32.4389L43.7404 40.9682C44.6036 42.2054 44.0829 43.2078 42.5743 43.2078Z" fill="#5553A2"/>
<path d="M5.65511 2.56494H44.3476C46.9133 2.56494 49 4.65178 48.9998 7.22284V42.7836C48.9998 45.35 46.9142 47.4352 44.3474 47.4352H5.65511C3.08771 47.4352 1 45.3494 1 42.7836V7.22289C1 4.6524 3.08875 2.56494 5.65511 2.56494Z" stroke="white" stroke-width="2"/>
<path d="M7.60048 41.2205L7.60042 41.2206C7.36338 41.69 7.45407 41.9131 7.48888 41.9696C7.52373 42.0263 7.6822 42.2078 8.20815 42.2078H24.9997H42.5743C42.9666 42.2078 43.1129 42.1216 43.155 42.0878C43.1586 42.034 43.146 41.8639 42.9203 41.5403L36.9501 33.0124L36.9501 33.0124C36.6751 32.6196 36.3291 32.4487 36.015 32.4221C35.701 32.3955 35.3317 32.5056 34.9952 32.8465L34.9951 32.8466L32.6891 35.1817L32.689 35.1819C31.2015 36.6874 28.8893 36.54 27.604 34.8601L7.60048 41.2205ZM7.60048 41.2205L16.9745 22.6536L16.9746 22.6533C17.209 22.1887 17.4476 22.1179 17.5305 22.1102C17.6135 22.1025 17.8615 22.1283 18.178 22.542C18.1781 22.542 18.1781 22.542 18.1781 22.542L27.6039 34.8601L7.60048 41.2205ZM32.3328 10.9795C34.7966 10.9795 36.7949 12.9779 36.7949 15.4416C36.7949 17.9053 34.7964 19.9037 32.3328 19.9037C29.8682 19.9037 27.8706 17.9054 27.8706 15.4416C27.8706 12.9778 29.8682 10.9795 32.3328 10.9795Z" stroke="white" stroke-width="2"/>
</svg>
