<svg width="64" height="64" viewBox="0 0 64 64" fill="none" xmlns="http://www.w3.org/2000/svg">
<path d="M61.5 32C61.5 48.2924 48.2924 61.5 32 61.5C15.7076 61.5 2.5 48.2924 2.5 32C2.5 15.7076 15.7076 2.5 32 2.5C48.2924 2.5 61.5 15.7076 61.5 32Z" fill="#8CF2F2" fill-opacity="0.2" stroke="white" stroke-width="5"/>
<path d="M63 32C63 49.1208 49.1208 63 32 63C14.8792 63 1 49.1208 1 32C1 14.8792 14.8792 1 32 1C49.1208 1 63 14.8792 63 32Z" stroke="#8CF2F2" stroke-width="2"/>
<g clip-path="url(#clip0)">
<path d="M30.3003 15.1608C30.3003 14.8177 30.1483 14.4922 29.8854 14.2716C29.6226 14.0511 29.275 13.9572 28.9372 14.0173C26.0863 14.5243 23.4662 15.6974 21.2429 17.37C20.9743 17.5721 20.8065 17.8809 20.7831 18.2163C20.7597 18.5517 20.8832 18.8806 21.121 19.1183L27.109 25.1064C27.4751 25.4725 28.0401 25.5521 28.4926 25.3006C28.8273 25.1145 29.1776 24.9532 29.5411 24.8193C29.9974 24.6513 30.3003 24.2166 30.3003 23.7304V15.1608Z" fill="#8FE9E9"/>
<path d="M33.9629 23.7304C33.9629 24.2168 34.2663 24.6513 34.7229 24.8192C36.785 25.5776 38.4219 27.2147 39.1803 29.2767C39.3482 29.7332 39.783 30.0364 40.2693 30.0364H48.8398C49.1833 30.0364 49.5089 29.8842 49.7293 29.6208C49.9497 29.3575 50.0419 29.0101 49.9817 28.672C48.6565 21.22 42.7793 15.3427 35.3273 14.0174C34.9894 13.9574 34.6424 14.05 34.3793 14.2703C34.1161 14.4906 33.9629 14.8162 33.9629 15.1595V23.7304Z" fill="#8FE9E9"/>
<path d="M40.2692 33.6995C39.7828 33.6995 39.3481 34.003 39.1804 34.4595C38.125 37.3296 35.3678 39.377 32.1316 39.377C27.9844 39.377 24.6225 36.0151 24.6225 31.868C24.6225 30.9421 24.7907 30.0557 25.0974 29.2369C25.257 28.811 25.1527 28.3306 24.8311 28.009L18.6823 21.8602C18.4344 21.6124 18.0878 21.49 17.7392 21.527C17.3906 21.564 17.0765 21.7563 16.8864 22.0508C15.0603 24.8802 14 28.25 14 31.868C14 41.8817 22.1178 49.9995 32.1316 49.9995C41.0548 49.9995 48.4722 43.5536 49.982 35.064C50.0421 34.7262 49.9494 34.3792 49.7292 34.116C49.5089 33.8529 49.1832 33.6997 48.84 33.6997H40.2692V33.6995Z" fill="#8FE9E9"/>
</g>
<defs>
<clipPath id="clip0">
<rect width="36" height="36" fill="white" transform="translate(14 14)"/>
</clipPath>
</defs>
</svg>
