<svg width="64" height="64" viewBox="0 0 64 64" fill="none" xmlns="http://www.w3.org/2000/svg">
<path d="M61.5 32C61.5 48.2924 48.2924 61.5 32 61.5C15.7076 61.5 2.5 48.2924 2.5 32C2.5 15.7076 15.7076 2.5 32 2.5C48.2924 2.5 61.5 15.7076 61.5 32Z" fill="#8CF2F2" fill-opacity="0.2" stroke="white" stroke-width="5"/>
<path d="M63 32C63 49.1208 49.1208 63 32 63C14.8792 63 1 49.1208 1 32C1 14.8792 14.8792 1 32 1C49.1208 1 63 14.8792 63 32Z" stroke="#8CF2F2" stroke-width="2"/>
<g clip-path="url(#clip0)">
<path d="M29.8482 32.1474L18.3529 25.9001C17.8416 25.6224 17.2377 25.6338 16.7374 25.9313C16.237 26.2286 15.9385 26.7537 15.9385 27.3358V41.8282C15.9385 42.4145 16.2551 42.9588 16.7649 43.2487L28.2604 49.7839C28.5139 49.9279 28.791 49.9999 29.0682 49.9999C29.3506 49.9999 29.633 49.9251 29.8898 49.7757C30.3984 49.4798 30.702 48.9518 30.702 48.3633V33.5832C30.702 32.9838 30.375 32.4337 29.8482 32.1474Z" fill="#8FE9E9"/>
<path d="M45.9747 22.1306C45.974 21.5187 45.6359 20.9637 45.0928 20.6821L32.5575 14.1834C32.0829 13.9372 31.5172 13.939 31.0443 14.1879L18.6934 20.6867C18.1556 20.9698 17.8211 21.5231 17.8203 22.1309C17.8196 22.7385 18.1528 23.2926 18.6898 23.5769L31.0408 30.1162C31.2799 30.2427 31.5425 30.306 31.8052 30.306C32.0646 30.306 32.3242 30.2443 32.5609 30.1207L45.0965 23.5815C45.639 23.2985 45.9756 22.7425 45.9747 22.1306Z" fill="#8FE9E9"/>
<path d="M47.2615 25.9314C46.7614 25.634 46.1573 25.6222 45.6462 25.9002L34.1505 32.1476C33.6239 32.4338 33.2969 32.9839 33.2969 33.5832V48.3633C33.2969 48.9518 33.6005 49.4798 34.1091 49.7757C34.3659 49.9252 34.6482 49.9999 34.9307 49.9999C35.2078 49.9999 35.4851 49.9279 35.7384 49.7839L47.2341 43.2487C47.7438 42.9589 48.0604 42.4146 48.0604 41.8282V27.3359C48.0604 26.7538 47.7618 26.2288 47.2615 25.9314Z" fill="#8FE9E9"/>
</g>
<defs>
<clipPath id="clip0">
<rect width="36" height="36" fill="white" transform="translate(14 14)"/>
</clipPath>
</defs>
</svg>
