<svg width="64" height="64" viewBox="0 0 64 64" fill="none" xmlns="http://www.w3.org/2000/svg">
<path d="M61.5 32C61.5 48.2924 48.2924 61.5 32 61.5C15.7076 61.5 2.5 48.2924 2.5 32C2.5 15.7076 15.7076 2.5 32 2.5C48.2924 2.5 61.5 15.7076 61.5 32Z" fill="#8CF2F2" fill-opacity="0.2" stroke="white" stroke-width="5"/>
<path d="M63 32C63 49.1208 49.1208 63 32 63C14.8792 63 1 49.1208 1 32C1 14.8792 14.8792 1 32 1C49.1208 1 63 14.8792 63 32Z" stroke="#8CF2F2" stroke-width="2"/>
<path d="M36.3277 13.8379C28.708 13.8379 22.4932 20.0527 22.4932 27.6723C22.4932 31.1007 23.7513 34.2446 25.8294 36.666C26.292 37.205 26.7952 37.7082 27.3343 38.1708C29.7557 40.2488 32.8995 41.5068 36.3277 41.5068C43.9474 41.5068 50.1621 35.292 50.1621 27.6723C50.1621 20.0527 43.9474 13.8379 36.3277 13.8379ZM36.3277 37.25C31.0494 37.25 26.75 32.9506 26.75 27.6723C26.75 22.394 31.0494 18.0946 36.3277 18.0946C41.606 18.0946 45.9054 22.394 45.9054 27.6723C45.9054 32.9506 41.606 37.25 36.3277 37.25ZM23.8692 37.1212C23.4536 36.7055 22.7801 36.7055 22.3644 37.1212L14.1496 45.336C13.734 45.7516 13.734 46.4251 14.1496 46.8408L17.1593 49.8505C17.5751 50.2661 18.2485 50.2661 18.6641 49.8505L26.8789 41.6357C27.2946 41.22 27.2946 40.5465 26.8789 40.1309L26.1263 39.3783L24.6215 37.8735L23.8692 37.1212Z" fill="#8FE9E9"/>
</svg>
