<svg width="254" height="14" viewBox="0 0 254 14" fill="none" xmlns="http://www.w3.org/2000/svg">
<path opacity="0.75" d="M0.181339 5.40792C0.181339 5.40792 1.23288 4.80701 2.1342 4.20613C3.11063 3.60526 3.71151 3.15462 3.71151 3.15462C3.71151 3.15462 3.41106 2.92929 3.48617 2.77907C3.63639 2.62885 3.6364 2.55374 4.01195 2.40352C4.3875 2.1782 5.66436 1.72752 6.64079 1.35197C7.61722 0.901309 8.06787 0.675961 8.36831 0.675961C8.66875 0.600851 8.81898 0.60087 8.9692 0.60087C9.11942 0.52576 9.7954 0.225339 10.3212 0.150229C10.8469 0.075119 11.2976 0 11.9736 0C12.6496 0 13.0251 0 13.8513 0C14.6776 0 13.1753 0.300412 14.0016 0.300412C14.8278 0.375522 15.4286 0.375549 15.654 0.375549C15.8793 0.375549 16.1798 0.60087 16.4802 0.60087C16.7806 0.60087 16.9308 0.600851 17.5317 0.675961C18.1326 0.751071 18.1326 0.976419 18.3579 0.976419C18.5833 1.05153 18.5833 1.05151 18.5833 1.05151C18.5833 1.05151 18.3579 2.02798 18.5833 2.02798C18.8086 2.02798 19.1841 2.10308 19.6348 2.2533C20.0855 2.40352 20.5361 2.70394 20.3108 2.70394C20.0854 2.70394 20.0103 3.00439 20.0103 3.00439C20.0103 3.00439 19.9352 3.37994 20.0855 3.37994C20.2357 3.37994 20.6863 3.60527 20.6863 3.75549C20.6863 3.98082 20.6112 4.65679 20.6112 4.95723C20.6863 5.25767 20.7615 5.25769 20.9868 5.25769C21.2121 5.25769 21.4374 5.40789 21.5877 5.70833C21.7379 6.00877 21.8881 6.23412 22.0383 6.38434C22.1885 6.60967 22.3387 6.53453 22.2636 7.0603C22.1134 7.58607 22.3388 7.88654 22.0383 8.03676C21.813 8.18698 21.3623 8.26208 21.4374 8.48741C21.5876 8.71274 21.8881 9.16339 21.7379 9.2385C21.5877 9.31361 21.5125 9.53896 21.2872 9.53896C20.9868 9.61407 20.461 9.46383 20.3859 9.61405C20.3108 9.76427 20.2357 10.0647 19.7099 10.0647C19.1841 10.0647 17.2313 10.0647 16.7055 10.0647C16.2549 10.0647 15.5038 9.76428 14.4522 9.76428C13.4007 9.76428 9.79539 10.4403 8.2932 10.8909C6.86611 11.3416 5.28881 11.7171 4.31238 12.3931C3.33595 13.0691 3.26085 13.4446 2.58486 13.4446C1.98399 13.4446 1.60842 13.2944 1.23287 12.994C0.932434 12.6936 0.857333 12.318 0.632003 11.5669C0.406674 10.8158 0.331568 10.2149 0.331568 10.2149C0.331568 10.2149 0.106225 10.2901 0.106225 9.91451C0.0311152 9.53896 -0.0439993 9.38874 0.0311106 9.16341C0.10622 8.93808 0.256454 8.93808 0.256454 8.78786C0.256454 8.56253 0.106225 8.18698 0.106225 7.88654C0.331555 7.5861 0.0311197 6.23413 0.181339 5.40792Z" fill="#F7F1DF"/>
<path opacity="0.75" d="M43.6697 3.15459C43.7448 2.55371 43.8951 2.17813 43.8951 2.17813C43.8951 2.17813 44.1204 1.42705 44.5711 1.35194C45.0217 1.27683 46.4488 1.05148 48.4768 1.05148C50.5047 1.05148 51.5563 0.976396 52.0821 1.12662C52.6078 1.27684 52.758 1.20172 52.9083 1.35194C53.0585 1.42705 53.2087 1.50215 53.5842 1.57726C53.9598 1.65237 54.1851 1.80258 54.1851 1.80258C54.1851 1.80258 54.11 2.32836 54.4105 2.32836C54.7109 2.32836 55.2367 2.47857 55.0864 2.55368C54.8611 2.62879 54.7109 3.15457 55.0113 3.22968C55.3118 3.30479 55.462 3.53011 55.462 3.83055C55.462 4.05588 55.7624 4.80697 55.5371 4.80697C55.2367 4.88208 54.9362 5.10743 55.2367 5.10743C55.5371 5.10743 55.9126 5.48299 56.0629 5.63321C56.2882 5.78343 56.5135 6.38429 56.2882 6.4594C56.0629 6.53451 55.8375 6.38432 56.0629 6.53453C56.2882 6.75986 56.3633 7.13539 56.2131 7.2105C55.9878 7.36072 55.462 7.88651 55.0113 8.03673C54.5607 8.26206 54.2602 8.48737 54.5607 8.48737C54.8611 8.48737 55.462 8.7878 55.3869 9.08824C55.3118 9.38868 55.2367 9.3887 54.8611 9.3887C54.4856 9.3887 53.9598 9.46379 53.6594 9.46379C53.3589 9.5389 53.2087 9.83934 52.8332 9.83934C52.5327 9.83934 52.3074 10.0647 52.0069 10.2149C51.7065 10.3651 51.9318 10.6656 51.4812 10.6656C51.0305 10.6656 50.7301 10.8158 50.2043 10.8909C49.6785 10.966 49.0025 11.4918 47.951 11.4918C46.8995 11.4918 46.2986 11.7171 45.923 11.5669C45.5475 11.4917 45.3222 11.2664 45.0217 11.1162C44.7213 11.0411 44.5711 10.7407 44.3457 10.6656C44.1204 10.5905 44.0453 10.4402 44.0453 10.2149C44.0453 9.98956 44.3457 9.91446 44.1204 9.61402C43.8951 9.31358 43.6697 9.08827 43.6697 8.78783C43.6697 8.48739 43.7449 8.33714 43.7449 7.9616C43.7449 7.58605 43.5195 7.1354 43.5195 6.60963C43.5195 6.15897 43.5195 5.40789 43.5195 4.65679C43.6698 4.05591 43.6697 3.15459 43.6697 3.15459Z" fill="#F7F1DF"/>
<path opacity="0.75" d="M72.7378 7.36114C72.7378 7.21092 72.5125 6.98557 72.5876 6.68513C72.6627 6.38469 72.6627 6.23449 72.6627 5.85894C72.6627 5.5585 72.7378 4.58206 72.7378 4.20651C72.7378 3.83096 72.9631 3.53053 72.9631 3.23009C72.9631 2.92965 72.888 2.77943 73.1134 2.47899C73.3387 2.17855 73.3387 1.95321 73.3387 1.80299C73.3387 1.57766 73.564 1.35235 73.564 1.35235C73.564 1.35235 74.0147 1.27725 74.6156 1.50258C75.2164 1.7279 75.6671 1.95324 76.1929 2.02835C76.7186 2.10346 76.7938 2.10344 77.1693 2.32877C77.5448 2.5541 77.7702 2.55411 77.9955 2.62922C78.2208 2.70433 79.1222 2.70432 79.8733 2.85454C80.5492 3.07987 81.3755 3.15496 81.6759 3.30518C81.9763 3.53051 82.2017 3.45542 82.5021 3.60564C82.8025 3.83097 82.8025 3.90608 82.9528 3.98119C83.103 4.0563 83.2532 4.1314 83.5536 4.20651C83.8541 4.28162 83.9292 4.50698 83.779 4.6572C83.6287 4.88253 83.6287 5.10782 83.9292 5.18293C84.2296 5.25804 84.2296 5.25806 84.2296 5.48339C84.1545 5.70872 84.2296 6.23448 84.2296 6.45981C84.2296 6.68514 84.1545 6.68516 84.455 6.76027C84.6803 6.83538 84.6803 6.83536 85.0558 7.21091C85.5065 7.51135 85.3563 8.33756 85.2812 8.48778C85.1309 8.638 85.0558 9.08866 84.6803 9.23888C84.2296 9.46421 84.0043 9.61441 83.7039 9.68952C83.4785 9.76463 83.4785 9.76466 83.4785 9.76466C83.4785 9.76466 83.2532 10.1402 83.4785 10.2153C83.7039 10.2904 83.6287 10.8913 83.1781 11.0415C82.7274 11.2669 82.3519 11.4922 81.6008 11.6424C80.9248 11.8677 80.4741 11.8677 80.399 12.018C80.3239 12.2433 80.3239 12.6188 79.7981 12.6188C79.2724 12.6188 79.1222 12.6188 78.7466 12.6188C78.4462 12.6188 78.2208 12.6188 77.5448 12.6188C76.8689 12.6188 75.8924 12.2433 75.5169 12.093C75.1413 11.9428 75.0662 11.6424 74.4653 11.4171C73.8645 11.1918 74.0147 11.0415 73.7894 10.8913C73.4889 10.7411 73.2636 10.666 73.1885 10.5909C73.1134 10.4406 73.2636 10.4406 73.3387 10.1402C73.4138 9.83977 73.564 9.53931 73.3387 9.4642C73.1134 9.31398 72.7378 9.23887 73.0383 9.08865C73.2636 8.86332 73.3387 8.71311 73.2636 8.48778C73.0382 8.33756 72.7378 7.36114 72.7378 7.36114Z" fill="#F7F1DF"/>
<path opacity="0.75" d="M102.556 9.08819C102.556 9.08819 101.955 9.0131 102.105 8.63755C102.255 8.33711 102.33 8.33709 102.33 7.96154C102.33 7.51088 102.481 7.06022 102.556 6.68467C102.631 6.30912 102.481 6.23403 102.631 5.85848C102.856 5.55804 102.856 5.40781 102.856 4.95715C102.856 4.50649 103.232 4.35629 103.307 4.13096C103.382 3.90563 103.382 3.83053 103.457 3.53009C103.532 3.22965 103.682 3.30472 103.908 3.30472C104.208 3.30472 104.884 3.53009 105.335 3.53009C105.786 3.53009 106.311 3.45498 106.762 3.53009C107.213 3.6052 107.513 3.75539 107.889 3.8305C108.264 3.90561 109.391 3.90562 108.865 3.98073C108.339 4.05584 107.889 3.9056 108.339 4.05582C108.79 4.20604 109.165 4.13096 109.616 4.13096C110.067 4.13096 111.569 4.05582 112.245 4.05582C112.921 4.05582 113.597 4.13094 113.822 4.20605C114.048 4.28116 114.273 4.35626 114.423 4.43137C114.573 4.50648 114.649 4.73185 114.874 5.03229C115.099 5.25762 115.85 5.40783 115.85 5.63316C115.85 5.85849 116.076 6.30913 116.301 6.45935C116.526 6.60957 116.076 7.66112 116.376 7.88645C116.676 8.11178 117.352 9.08821 117.277 9.38865C117.202 9.68909 117.503 10.2148 117.052 10.4402C116.601 10.6655 116.676 10.8908 116.301 10.9659C115.925 11.041 115.625 11.2664 115.85 11.4917C116.076 11.717 116.301 12.0926 115.775 12.1677C115.249 12.3179 114.799 12.393 114.724 12.6935C114.649 12.9939 114.649 13.3695 114.123 13.3695C113.672 13.4446 112.846 13.5948 111.569 13.8201C110.292 14.0454 109.616 14.0455 108.64 13.8952C107.663 13.8201 106.537 13.6699 106.011 13.5948C105.56 13.4446 104.959 13.1442 104.283 12.9188C103.607 12.6935 103.307 12.6935 103.157 12.4681C103.006 12.2428 102.931 12.1677 102.706 12.1677C102.481 12.1677 102.931 12.2428 102.931 11.7922C103.006 11.3415 103.232 11.1913 102.856 11.1162C102.406 11.0411 102.631 10.8157 102.781 10.5904C103.006 10.3651 103.006 10.4402 102.781 10.0646C102.631 9.68906 102.556 9.08819 102.556 9.08819Z" fill="#F7F1DF"/>
<path opacity="0.75" d="M135.754 8.56233C136.205 8.56233 135.078 8.33703 135.304 8.26192C135.529 8.18681 135.754 8.03658 135.829 7.73614C135.904 7.4357 135.679 7.5108 135.829 7.21036C135.98 6.90992 136.13 7.13527 136.055 6.75972C135.98 6.38417 136.205 6.23393 135.98 6.08371C135.754 5.9335 136.28 5.93351 136.355 5.63307C136.43 5.33263 136.731 4.95708 136.58 4.73175C136.355 4.50642 136.355 4.4313 136.505 4.20597C136.731 3.98064 136.656 3.83044 136.806 3.75533C137.031 3.68022 136.806 2.854 137.256 2.854C137.707 2.854 143.415 2.70377 144.542 2.70377C145.669 2.70377 151.377 2.47847 152.729 2.40336C154.156 2.25314 155.358 2.32821 155.133 2.55354C154.907 2.77887 155.508 2.70379 155.508 3.00423C155.508 3.30467 155.583 3.45487 155.884 3.45487C156.184 3.52998 156.935 3.60512 156.71 3.90556C156.485 4.206 156.259 4.50642 156.409 4.73175C156.56 4.95708 156.635 5.33263 156.334 5.48285C156.034 5.70817 155.583 6.30906 155.583 6.75972C155.583 7.21038 155.583 7.88636 155.133 8.11169C154.682 8.33702 154.682 8.63745 154.231 8.71256C153.781 8.78767 153.555 8.93791 153.029 9.01302C152.579 9.16324 152.203 9.08812 151.753 9.23834C151.302 9.31345 151.077 9.5388 150.701 9.5388C150.401 9.61391 150.1 9.83922 150.401 9.98944C150.701 10.0645 151.002 10.4401 150.626 10.6654C150.175 10.8908 150.25 11.041 149.8 11.1161C149.349 11.1912 148.598 11.1912 147.772 11.3414C146.946 11.4165 146.57 11.5668 146.195 11.6419C145.744 11.717 145.969 11.9423 145.143 12.1676C144.317 12.393 144.317 12.6934 143.34 12.6934C142.364 12.6934 140.937 12.4681 140.035 12.4681C139.134 12.4681 138.684 12.3178 138.008 12.3178C137.332 12.3178 137.106 12.2427 136.731 12.2427C136.355 12.2427 135.904 12.2427 136.13 11.9423C136.43 11.6418 136.43 11.4916 136.355 11.2663C136.205 11.041 135.754 10.9659 135.904 10.5903C136.055 10.2899 135.98 10.2899 135.98 9.98944C135.904 9.689 135.904 9.6139 135.904 9.38857C135.829 9.01302 135.604 8.56233 135.754 8.56233Z" fill="#F7F1DF"/>
<path opacity="0.75" d="M173.235 6.83496C173.235 6.83496 172.634 6.75986 172.784 6.60964C172.934 6.38431 173.084 6.30921 173.084 6.00877C173.084 5.78344 173.159 5.55808 173.235 5.18253C173.31 4.80699 173.31 4.50658 173.46 4.28125C173.685 4.05592 173.685 3.83058 173.685 3.37993C173.76 2.92927 173.76 2.70392 173.76 2.70392C173.76 2.70392 174.061 2.5537 174.061 2.32837C174.136 2.10304 174.211 2.10306 174.286 1.87773C174.361 1.57729 174.436 1.35195 174.436 1.35195C174.436 1.35195 174.887 0.976401 175.112 0.976401C175.413 0.976401 176.164 0.826199 176.615 0.901309C177.065 0.976419 177.516 1.12663 177.741 1.12663C177.966 1.12663 178.492 1.05149 178.943 1.05149C179.394 1.05149 179.619 0.826172 180.445 0.826172C181.271 0.826172 181.046 1.05149 181.497 1.05149C181.947 1.05149 182.999 1.12663 183.525 1.12663C184.05 1.12663 184.576 1.12663 184.576 1.12663C184.576 1.12663 184.351 1.50218 184.651 1.50218C184.877 1.50218 185.628 1.42704 186.153 1.42704C186.679 1.42704 187.055 1.35194 186.98 1.57727C186.905 1.8026 186.905 2.10303 187.055 2.17814C187.205 2.25325 187.656 2.62882 187.881 2.85415C188.106 3.07948 188.031 3.45504 188.181 3.53015C188.332 3.68037 188.482 4.20613 188.257 4.50657C187.956 4.80701 186.905 6.23408 186.754 6.45941C186.529 6.68474 186.454 7.21051 186.304 7.58606C186.078 7.96161 185.703 7.96162 185.252 8.11184C184.801 8.26206 183.975 8.33717 184.05 8.48739C184.125 8.63761 184.125 8.86292 184.351 8.93803C184.651 9.01314 184.726 9.23849 184.125 9.38871C183.525 9.53893 183.675 9.53891 182.623 9.68913C181.572 9.83935 181.046 10.1398 180.67 10.29C180.295 10.3652 180.595 10.966 179.994 10.966C179.394 10.966 178.192 10.7407 177.441 10.7407C176.69 10.7407 176.389 10.5905 175.863 10.5154C175.413 10.4403 175.413 10.2149 174.962 10.2149C174.511 10.2149 173.61 10.1398 173.61 10.1398C173.61 10.1398 173.46 9.83935 173.535 9.68913C173.61 9.4638 173.46 9.23849 173.31 9.01317C173.235 8.78784 173.235 8.33715 173.235 8.18693C173.159 8.03671 172.934 7.96161 173.009 7.58606C173.159 7.21051 173.235 6.83496 173.235 6.83496Z" fill="#F7F1DF"/>
<path opacity="0.75" d="M210.113 0.600657C210.339 0.600657 210.939 0.525565 211.54 0.525565C212.141 0.600675 212.742 0.600657 212.742 0.600657C212.742 0.600657 213.043 0.300226 213.418 0.375336C213.719 0.450446 214.395 0.750886 214.77 0.750886C215.221 0.750886 215.596 0.675757 215.972 0.825977C216.272 0.976197 216.347 1.27663 216.648 1.42685C216.948 1.50196 217.023 1.7273 217.324 1.7273C217.624 1.7273 218 1.95262 218 2.17795C218 2.40328 217.925 2.77883 218.075 3.07927C218.3 3.37971 218.375 4.20592 218.45 4.58147C218.526 4.95702 218.375 5.25745 218.375 5.55789C218.3 5.78322 218.225 6.0837 217.925 6.15881C217.624 6.23392 217.774 6.53435 217.624 6.53435C217.399 6.53435 217.249 6.68454 217.249 6.68454C217.249 6.68454 217.174 7.36055 216.948 7.51077C216.723 7.58588 215.972 7.58587 215.897 7.73609C215.747 7.88631 215.596 8.4121 215.296 8.4121C214.995 8.4121 214.77 8.63741 213.719 8.48719C212.667 8.33697 211.54 8.18676 211.766 8.26187C211.991 8.33698 212.367 8.56231 212.667 8.63742C212.967 8.71253 213.268 8.71252 213.418 8.86274C213.568 9.01296 213.493 9.46361 213.193 9.46361C212.892 9.46361 212.742 9.53872 212.367 9.46361C212.066 9.3885 212.141 9.1632 211.766 9.1632C211.465 9.1632 211.24 9.23831 210.939 9.1632C210.639 9.08809 210.489 8.78765 210.489 8.78765C210.489 8.78765 210.038 8.56228 209.437 8.56228C208.761 8.56228 208.16 8.48718 208.836 8.33696C209.512 8.18674 210.188 8.11162 210.564 8.18673C210.939 8.26184 211.691 8.26186 211.24 8.11164C210.789 8.03653 210.339 7.8863 210.038 7.81119C209.738 7.73608 209.437 7.73609 209.287 7.73609C209.137 7.73609 209.062 7.51075 208.836 7.43564C208.536 7.36053 208.386 7.13522 208.386 7.13522C208.386 7.13522 208.461 6.68457 208.461 6.38413C208.386 6.08369 208.386 5.78322 208.386 5.55789C208.386 5.33256 208.461 5.03212 208.461 4.80679C208.536 4.58146 208.686 3.9055 208.686 3.75528C208.761 3.60506 208.987 3.3046 208.987 3.07927C209.062 2.85394 209.212 2.70371 209.062 2.55349C208.911 2.40328 209.137 2.17796 209.287 2.10285C209.437 2.02774 209.587 1.80242 209.587 1.50198C209.738 1.27665 210.113 0.600657 210.113 0.600657Z" fill="#F7F1DF"/>
<path opacity="0.75" d="M238.355 11.2663C238.355 11.2663 237.303 10.8908 236.778 10.8908C236.327 10.8908 235.726 11.041 235.426 10.9659C235.125 10.8907 234.975 10.5903 234.75 10.5152C234.524 10.4401 234.449 10.2899 234.449 10.0645C234.524 9.8392 234.524 9.46366 234.524 9.46366C234.524 9.46366 233.698 9.31347 233.848 9.16325C234.074 9.01303 234.224 8.93788 234.449 8.93788C234.675 8.93788 234.975 8.71258 234.675 8.63747C234.374 8.56236 234.449 8.2619 234.524 7.96147C234.599 7.66103 234.675 6.90994 234.75 6.6095C234.825 6.38417 234.975 6.08373 235.05 5.8584C235.125 5.63307 235.125 5.40775 235.275 5.25753C235.426 5.0322 235.576 4.65666 235.576 4.65666C235.576 4.65666 235.576 4.50644 235.726 4.28111C235.876 4.05578 235.726 3.90552 236.027 3.68019C236.327 3.45486 236.402 3.22954 236.477 3.07932C236.552 2.9291 237.078 2.854 237.228 2.854C237.378 2.854 239.782 3.07932 240.458 3.07932C241.134 3.07932 241.434 3.37978 241.735 3.37978C242.035 3.37978 243.613 3.68021 244.364 3.6051C245.19 3.52999 246.467 3.30465 247.518 3.45487C248.57 3.60509 249.922 3.6051 250.222 3.6051C250.523 3.6051 251.049 3.68019 251.349 3.68019C251.649 3.60508 251.724 3.83042 252.025 3.83042C252.325 3.83042 253.001 3.90552 253.076 4.05574C253.152 4.20596 253.001 4.65663 253.152 4.95707C253.302 5.25751 253.152 5.7833 253.227 6.00863C253.302 6.23396 253.527 6.4593 253.227 6.53441C252.926 6.60952 252.701 6.83484 252.476 7.13528C252.25 7.3606 251.95 8.03657 251.649 8.18679C251.349 8.33701 251.124 8.41214 251.049 8.63747C250.973 8.8628 250.673 9.08812 250.523 9.23834C250.373 9.31345 250.297 9.76413 249.922 9.91435C249.621 10.1397 249.546 10.2148 249.321 10.365C249.096 10.4401 248.87 10.5152 248.495 10.5903C248.194 10.6654 248.495 11.1912 247.894 11.041C247.293 10.9659 246.767 10.8908 246.392 11.1161C246.016 11.3414 245.941 11.7169 245.566 11.9423C245.265 12.1676 245.265 12.393 244.965 12.393C244.739 12.393 244.589 12.3178 244.364 12.4681C244.138 12.6183 243.538 12.6183 243.162 12.6183C242.862 12.6183 240.834 12.5432 240.007 12.5432C239.181 12.5432 238.806 12.4681 238.355 12.4681C237.904 12.4681 237.754 12.3178 237.303 12.2427C236.853 12.1676 236.853 12.2428 235.951 12.1676C235.125 12.0925 234.975 12.0925 234.75 12.0925C234.524 12.0925 233.773 11.4916 234.299 11.4916C234.75 11.4916 235.275 11.4165 236.102 11.4916C236.928 11.5667 237.153 11.3414 237.604 11.4165C238.43 11.4917 238.956 11.4165 238.355 11.2663Z" fill="#F7F1DF"/>
</svg>
