<svg width="13" height="14" viewBox="0 0 13 14" fill="none" xmlns="http://www.w3.org/2000/svg">
<g clip-path="url(#clip0)">
<path d="M0.781371 6.01729C0.834564 6.008 0.888396 6.00371 0.942257 6.00446H10.1135L9.91352 5.90429C9.71804 5.80465 9.54021 5.66905 9.38799 5.50361L6.81614 2.73393C6.47742 2.38572 6.42051 1.82555 6.68127 1.40669C6.98476 0.960342 7.56676 0.863428 7.98126 1.19026C8.01475 1.21668 8.04657 1.24548 8.07648 1.27647L12.7272 6.28493C13.0907 6.67591 13.091 7.31013 12.7279 7.70155C12.7277 7.7018 12.7274 7.70208 12.7272 7.70233L8.07648 12.7108C7.71274 13.1014 7.12381 13.1005 6.76106 12.7088C6.73251 12.678 6.70586 12.6452 6.68127 12.6106C6.42051 12.1918 6.47742 11.6316 6.81614 11.2834L9.38333 8.50869C9.5198 8.36157 9.67671 8.2382 9.84841 8.14307L10.1274 8.00784H0.993443C0.518286 8.02684 0.101407 7.6694 0.0121422 7.16642C-0.0700874 6.62034 0.274299 6.10588 0.781371 6.01729Z" fill="#9797ED"/>
</g>
<defs>
<clipPath id="clip0">
<rect width="13" height="14" fill="white" transform="matrix(-1 0 0 1 13 0)"/>
</clipPath>
</defs>
</svg>
