<svg width="74" height="74" viewBox="0 0 74 74" fill="none" xmlns="http://www.w3.org/2000/svg">
<path d="M71 37C71 55.7777 55.7777 71 37 71C18.2223 71 3 55.7777 3 37C3 18.2223 18.2223 3 37 3C55.7777 3 71 18.2223 71 37Z" fill="#8CF2F2" fill-opacity="0.2" stroke="white" stroke-width="6"/>
<path d="M73 37C73 56.8823 56.8823 73 37 73C17.1177 73 1 56.8823 1 37C1 17.1177 17.1177 1 37 1C56.8823 1 73 17.1177 73 37Z" stroke="#8CF2F2" stroke-width="2"/>
<path d="M37 51.1216C44.7855 51.1216 51.1216 44.7866 51.1216 37C51.1216 29.2134 44.7855 22.8784 37 22.8784C29.2145 22.8784 22.8784 29.2134 22.8784 37C22.8784 44.7866 29.2145 51.1216 37 51.1216ZM30.9571 41.2274L35.7161 36.4684V29.2974C35.7161 28.5877 36.2903 28.0135 36.9999 28.0135C37.7094 28.0135 38.2836 28.5877 38.2836 29.2974V37C38.2836 37.333 38.1474 37.6683 37.9059 37.9092L32.7723 43.0429C32.2708 43.5444 31.4585 43.5444 30.957 43.0429C30.4558 42.5413 30.4558 41.7289 30.9571 41.2274ZM37 15.1758C24.9671 15.1758 15.1758 24.9657 15.1758 37C15.1758 37.7096 15.75 38.2837 16.4595 38.2837C17.1692 38.2837 17.7432 37.7095 17.7432 37C17.7432 26.3813 26.3811 17.7434 36.9999 17.7434C47.6186 17.7434 56.2566 26.3813 56.2566 37C56.2566 47.6187 47.6187 56.2566 37 56.2566C33.2689 56.2566 30.1882 54.9395 28.079 53.689H29.2974C30.007 53.689 30.5811 53.1148 30.5811 52.4053C30.5811 51.6958 30.0069 51.1216 29.2974 51.1216C28.7675 51.1226 31.217 51.1185 24.1148 51.1326C23.3372 51.1628 22.8082 51.8571 22.9137 52.5883C22.9809 53.0602 23.7351 55.9559 24.1999 57.8514C24.3453 58.4356 24.8693 58.8242 25.446 58.8242C26.2778 58.8242 26.8938 58.042 26.6922 57.2295L26.2875 55.611C28.6912 57.1257 32.3762 58.8242 37 58.8242C49.0329 58.8242 58.8242 49.0341 58.8242 37C58.8242 24.9657 49.0329 15.1758 37 15.1758Z" fill="#8FE9E9"/>
</svg>
