<svg width="74" height="74" viewBox="0 0 74 74" fill="none" xmlns="http://www.w3.org/2000/svg">
<path d="M71 37C71 55.7777 55.7777 71 37 71C18.2223 71 3 55.7777 3 37C3 18.2223 18.2223 3 37 3C55.7777 3 71 18.2223 71 37Z" fill="#8CF2F2" fill-opacity="0.2" stroke="white" stroke-width="6"/>
<path d="M73 37C73 56.8823 56.8823 73 37 73C17.1177 73 1 56.8823 1 37C1 17.1177 17.1177 1 37 1C56.8823 1 73 17.1177 73 37Z" stroke="#8CF2F2" stroke-width="2"/>
<g clip-path="url(#clip0)">
<path d="M36.991 45.72C34.9837 45.72 33.3506 47.3477 33.3506 49.3475C33.3506 51.3479 34.9837 52.9763 36.991 52.9763C38.9991 52.9763 40.6321 51.3479 40.6321 49.3475C40.6321 47.3477 38.9987 45.72 36.991 45.72Z" fill="#8FE9E9"/>
<path d="M45.8731 40.7772C43.503 38.4084 40.3482 37.1033 36.9909 37.1033C33.6466 37.1033 30.5004 38.3998 28.131 40.7537C27.174 41.706 27.1723 43.2576 28.127 44.2116C28.5907 44.676 29.2082 44.9311 29.8654 44.9311C30.5196 44.9311 31.1347 44.6773 31.5978 44.2169C33.0398 42.7839 34.9551 41.9945 36.9909 41.9945C39.0344 41.9945 40.955 42.7889 42.3979 44.2305C42.8617 44.6935 43.4788 44.9493 44.1353 44.9493C44.7902 44.9493 45.405 44.6955 45.8685 44.2351C46.8268 43.2827 46.8284 41.7318 45.8731 40.7772Z" fill="#8FE9E9"/>
<path d="M57.2831 29.4049C51.8645 23.9996 44.6575 21.0237 36.991 21.0237C29.3348 21.0237 22.1351 23.9927 16.7182 29.3851C15.7612 30.3375 15.7605 31.889 16.7168 32.843C17.1802 33.3051 17.7967 33.5592 18.4526 33.5592C19.1081 33.5592 19.7239 33.3061 20.1873 32.8444C24.6774 28.3751 30.6449 25.9133 36.991 25.9133C43.3464 25.9133 49.3198 28.3801 53.8109 32.8613C54.2743 33.3237 54.8918 33.5787 55.5473 33.5787C56.2025 33.5787 56.8183 33.3243 57.2814 32.8632C58.2387 31.9101 58.2397 30.358 57.2831 29.4049Z" fill="#8FE9E9"/>
<path d="M51.4333 35.2338C47.5762 31.3856 42.4471 29.2666 36.9908 29.2666C31.5443 29.2666 26.4229 31.379 22.5691 35.2136C22.105 35.675 21.8496 36.2888 21.8486 36.9424C21.8486 37.5952 22.103 38.2097 22.5665 38.6718C23.0299 39.1342 23.6467 39.3893 24.3025 39.3893C24.9574 39.3893 25.5732 39.1349 26.0373 38.6745C28.9649 35.7618 32.8551 34.1572 36.9908 34.1572C41.135 34.1572 45.0305 35.7674 47.9601 38.69C48.4242 39.1531 49.0407 39.4082 49.6969 39.4082C50.3521 39.4082 50.9682 39.1538 51.431 38.6927C51.8944 38.2312 52.1504 37.6174 52.1508 36.9639C52.1514 36.3103 51.8964 35.6965 51.4333 35.2338Z" fill="#8FE9E9"/>
</g>
<defs>
<clipPath id="clip0">
<rect width="42" height="42" fill="white" transform="translate(16 16)"/>
</clipPath>
</defs>
</svg>
