<svg width="124" height="71" viewBox="0 0 124 71" fill="none" xmlns="http://www.w3.org/2000/svg">
<path fill-rule="evenodd" clip-rule="evenodd" d="M123.26 0.373127V35.0031C111.615 34.1844 100.183 31.3097 89.4621 29.5392C78.1642 27.6735 67.4629 26.6073 57.3006 22.4C52.2386 20.3058 47.9274 18.8589 42.211 17.6024C36.514 16.3459 32.4721 14.6325 27.5642 13.1095C24.4077 12.1385 22.6755 12.0243 19.2688 11.4722C14.1106 10.6346 3.23618 7.83599 0.714836 1.68675C0.233665 -0.67395 21.6362 -0.198002 30.6052 0.944271C40.9985 2.27692 49.5441 3.68573 60.2261 4.02841C80.2428 4.6757 77.837 3.30498 92.2721 2.94326C103.801 2.65769 112.039 0.258907 123.24 0.39217L123.26 0.373127Z" fill="#1C5639"/>
<path fill-rule="evenodd" clip-rule="evenodd" d="M123.26 47.8714V70.6978C118.544 70.2218 113.521 68.6036 108.786 68.1467C103.397 67.6327 98.6236 67.1377 93.4847 66.1287C88.8077 65.2149 85.0353 63.768 79.7617 62.797C75.9315 62.0926 71.3893 59.6368 67.4437 58.7039C48.0043 54.1158 43.1926 54.9915 25.4855 45.5678C10.4537 37.5719 23.7918 39.7422 31.4713 40.3895C42.0763 41.2652 43.4043 46.6339 70.4654 43.15C102.569 39.0188 114.175 47.4716 123.279 47.8714H123.26Z" fill="#1C5639"/>
</svg>
