<svg width="306" height="178" viewBox="0 0 306 178" fill="none" xmlns="http://www.w3.org/2000/svg">
<path fill-rule="evenodd" clip-rule="evenodd" d="M306.648 1.92122V88.3834C277.575 86.3395 249.031 79.1621 222.265 74.7415C194.057 70.0833 167.338 67.4214 141.965 56.9167C129.327 51.6881 118.563 48.0756 104.291 44.9384C90.0666 41.8013 79.9751 37.5233 67.7212 33.7207C59.8403 31.2965 55.5154 31.0113 47.0097 29.6329C34.1311 27.5414 6.98029 20.5541 0.68515 5.201C-0.516235 -0.693077 52.9204 0.495247 75.3138 3.34721C101.263 6.67451 122.6 10.192 149.27 11.0475C199.247 12.6637 193.24 9.2413 229.281 8.33818C258.065 7.62518 278.633 1.63603 306.6 1.96876L306.648 1.92122Z" fill="#1C5639"/>
<path fill-rule="evenodd" clip-rule="evenodd" d="M306.65 120.512V177.504C294.876 176.316 282.334 172.275 270.513 171.135C257.057 169.851 245.14 168.615 232.309 166.096C220.632 163.814 211.213 160.202 198.046 157.778C188.483 156.019 177.143 149.887 167.291 147.558C118.756 136.103 106.743 138.289 62.5324 114.761C25.0018 94.797 58.3036 100.216 77.4774 101.832C103.955 104.018 107.271 117.423 174.836 108.724C254.991 98.4094 283.968 119.514 306.698 120.512H306.65Z" fill="#1C5639"/>
</svg>
