<svg width="252" height="32" viewBox="0 0 252 32" fill="none" xmlns="http://www.w3.org/2000/svg">
<g clip-path="url(#clip0)">
<path d="M12.6781 13.8713H7.5534V27.2186H6.13548V13.8713H1.01074V12.5942H12.6781V13.8713ZM30.2269 12.5942V27.2186H28.8292V20.3802H20.3015V27.2186H18.8836V12.5942H20.3015V19.1031H28.8292V12.5942H30.2269ZM47.5512 25.9416V27.2186H37.8891V12.5942H47.3689V13.8713H39.307V19.1443H46.3358V20.3596H39.307V25.9416H47.5512Z" fill="black" fill-opacity="0.7"/>
<path d="M104.834 27.2186V12.5942H110.911C111.532 12.5942 112.099 12.7247 112.613 12.9856C113.139 13.2465 113.592 13.6035 113.97 14.0567C114.348 14.4961 114.638 14.9904 114.841 15.5397C115.057 16.0753 115.165 16.6245 115.165 17.1875C115.165 17.9016 115.03 18.5676 114.76 19.1855C114.503 19.8034 114.132 20.3253 113.646 20.7509C113.16 21.1766 112.599 21.4513 111.965 21.5748L115.489 27.2186H113.889L110.506 21.822H106.252V27.2186H104.834ZM106.252 20.545H110.952C111.519 20.545 112.012 20.387 112.43 20.0712C112.849 19.7416 113.173 19.3228 113.403 18.8147C113.632 18.3067 113.747 17.7643 113.747 17.1875C113.747 16.5971 113.612 16.0547 113.342 15.5603C113.085 15.0522 112.734 14.6471 112.289 14.345C111.843 14.0292 111.357 13.8713 110.83 13.8713H106.252V20.545ZM132.19 13.8713H127.065V27.2186H125.647V13.8713H120.522V12.5942H132.19V13.8713Z" fill="black" fill-opacity="0.7"/>
<path d="M155.841 27.3216C154.829 27.3216 153.91 27.1156 153.087 26.7036C152.263 26.278 151.554 25.7149 150.96 25.0146C150.365 24.3143 149.906 23.5247 149.582 22.6459C149.258 21.7533 149.096 20.8402 149.096 19.9064C149.096 18.9314 149.265 18.0045 149.603 17.1257C149.94 16.2331 150.413 15.4436 151.021 14.757C151.642 14.0566 152.364 13.5074 153.188 13.1091C154.012 12.6972 154.903 12.4912 155.862 12.4912C156.861 12.4912 157.773 12.7041 158.596 13.1297C159.42 13.5554 160.129 14.1253 160.723 14.8393C161.331 15.5534 161.79 16.3499 162.101 17.2287C162.425 18.1075 162.587 19.007 162.587 19.927C162.587 20.902 162.418 21.8357 162.08 22.7283C161.743 23.6071 161.27 24.3967 160.662 25.097C160.055 25.7836 159.339 26.326 158.515 26.7242C157.692 27.1225 156.8 27.3216 155.841 27.3216ZM150.514 19.9064C150.514 20.7028 150.643 21.4649 150.899 22.1927C151.155 22.9205 151.52 23.5728 151.993 24.1495C152.466 24.7262 153.026 25.1863 153.674 25.5296C154.336 25.8591 155.058 26.0239 155.841 26.0239C156.665 26.0239 157.401 25.8522 158.049 25.509C158.711 25.1519 159.272 24.6782 159.731 24.0877C160.203 23.4973 160.561 22.845 160.804 22.1309C161.047 21.4031 161.169 20.6616 161.169 19.9064C161.169 19.11 161.04 18.3478 160.784 17.62C160.527 16.8922 160.156 16.24 159.67 15.6633C159.197 15.0865 158.637 14.6334 157.989 14.3038C157.34 13.9742 156.625 13.8095 155.841 13.8095C155.031 13.8095 154.295 13.9811 153.634 14.3244C152.985 14.6677 152.425 15.1346 151.952 15.725C151.493 16.3018 151.135 16.954 150.879 17.6818C150.636 18.4096 150.514 19.1511 150.514 19.9064ZM169.311 27.2186V12.5942H178.751V13.8713H170.729V19.2473H177.495V20.4419H170.729V27.2186H169.311Z" fill="black" fill-opacity="0.7"/>
<path d="M201.755 12.6972H203.092L205.117 17.8878L207.163 12.6972H208.52L206.008 18.9383L208.763 25.5502L213.969 12.5942H215.508L209.411 27.2186H208.156L205.137 19.9888L202.099 27.2186H200.863L194.787 12.5942H196.306L201.532 25.5502L204.266 18.9383L201.755 12.6972ZM231.245 25.9416V27.2186H221.583V12.5942H231.063V13.8713H223.001V19.1443H230.03V20.3596H223.001V25.9416H231.245ZM248.794 23.4492C248.794 24.177 248.612 24.8293 248.247 25.406C247.883 25.969 247.39 26.4153 246.769 26.7449C246.161 27.0607 245.493 27.2186 244.763 27.2186H237.978V12.5942H244.905C245.58 12.5942 246.161 12.7796 246.647 13.1504C247.133 13.5074 247.512 13.9743 247.781 14.551C248.052 15.114 248.187 15.7045 248.187 16.3224C248.187 17.0502 248.004 17.7231 247.64 18.341C247.275 18.9589 246.769 19.419 246.121 19.721C246.931 19.9682 247.579 20.4282 248.065 21.1011C248.551 21.7739 248.794 22.5566 248.794 23.4492ZM239.396 13.8507V19.2473H244.338C244.811 19.2473 245.229 19.1237 245.594 18.8765C245.972 18.6156 246.262 18.2861 246.465 17.8878C246.681 17.4759 246.789 17.0296 246.789 16.549C246.789 16.0547 246.688 15.6015 246.485 15.1895C246.283 14.7776 246.006 14.4549 245.655 14.2215C245.304 13.9743 244.905 13.8507 244.46 13.8507H239.396ZM247.376 23.2021C247.376 22.7214 247.269 22.2683 247.052 21.8426C246.836 21.4169 246.539 21.0736 246.161 20.8127C245.796 20.5518 245.378 20.4214 244.905 20.4214H239.396V25.9621H244.763C245.249 25.9621 245.689 25.8317 246.08 25.5708C246.472 25.3099 246.782 24.9735 247.012 24.5615C247.255 24.1358 247.376 23.6827 247.376 23.2021Z" fill="black" fill-opacity="0.7"/>
<path d="M98.0428 27.3503L94.5808 27.3503L90.0468 21.4983H90.0797H90.0848L90.0815 21.4942L81.1208 9.80034L81.1186 9.79787L81.1168 9.80034L72.1561 21.4942L72.1529 21.4983H72.1579H84.6555L89.1895 27.3503H64.4126L81.2279 0.152832L98.0428 27.3503Z" fill="url(#paint0_linear)"/>
<path d="M97.9578 27.1996L81.1473 0.00932826L64.3367 27.1996H89.1038L84.5738 21.3527H72.0773H72.0676L72.0737 21.3444L81.0344 9.65058L81.0384 9.64565L81.042 9.65058L90.0027 21.3444L90.0092 21.3527H89.9991H89.9712L94.5013 27.1996H97.9578ZM97.9669 27.2047L94.4991 27.2046L89.9611 21.3476H89.9991L81.0384 9.65374L72.0773 21.3476H84.5759L89.114 27.2046H64.3276L81.1473 0L97.9669 27.2046V27.2047Z" fill="#707070"/>
<path d="M97.9578 27.1996L81.1473 0.00932826L64.3367 27.1996H89.1038L84.5738 21.3527H72.0773H72.0676L72.0737 21.3444L81.0344 9.65058L81.0384 9.64565L81.042 9.65058L90.0027 21.3444L90.0092 21.3527H89.9991H89.9712L94.5013 27.1996H97.9578ZM97.9669 27.2047L94.4991 27.2046L89.9611 21.3476H89.9991L81.0384 9.65374L72.0773 21.3476H84.5759L89.114 27.2046H64.3276L81.1473 0L97.9669 27.2046V27.2047Z" fill="#707070"/>
</g>
<defs>
<linearGradient id="paint0_linear" x1="92.1914" y1="28.8461" x2="84.7403" y2="2.47835" gradientUnits="userSpaceOnUse">
<stop stop-color="#244AFC"/>
<stop offset="0.221" stop-color="#244AFC"/>
<stop offset="0.561" stop-color="#763A65"/>
<stop offset="0.798" stop-color="#DE466D"/>
<stop offset="1" stop-color="#DA6251"/>
</linearGradient>
<clipPath id="clip0">
<rect width="250.667" height="32" fill="white" transform="translate(0.666504)"/>
</clipPath>
</defs>
</svg>
