<svg width="405" height="294" viewBox="0 0 405 294" fill="none" xmlns="http://www.w3.org/2000/svg">
<g clip-path="url(#clip0)">
<path fill-rule="evenodd" clip-rule="evenodd" d="M194.307 0.666748H110.577C112.293 27.929 115.857 59.9402 120.52 85.6635C122.896 98.723 126.988 111.035 130.64 122.116C138.252 145.157 141.992 176.596 151.056 196.691C166.455 230.725 160.779 232.66 167.247 250.908C170.327 259.658 176.443 275.092 181.503 283.227C206.67 323.813 188.543 237.365 188.455 224.13C188.279 199.066 187.487 173.694 187.707 148.367C187.795 135.659 188.807 123.523 189.159 110.507C189.511 98.1954 188.675 84.96 189.951 73.6153C192.811 47.7601 194.438 27.4893 194.307 0.666748V0.666748Z" fill="#1C5639"/>
<path fill-rule="evenodd" clip-rule="evenodd" d="M403.786 0.666748H323.752C325.644 27.2695 332.288 53.3885 336.38 77.8805C340.692 103.692 343.155 128.14 352.879 151.357C357.719 162.921 361.063 172.771 363.967 185.83C366.871 198.846 370.831 208.08 374.351 219.293C376.595 226.504 376.859 230.461 378.135 238.244C380.071 250.029 386.538 274.872 400.75 280.633C406.206 281.732 405.106 232.836 402.466 212.345C399.386 188.601 396.13 169.077 395.338 144.673C393.842 98.9429 397.01 104.439 397.846 71.4607C398.506 45.1218 404.05 26.3021 403.742 0.710719L403.786 0.666748Z" fill="#1C5639"/>
<path fill-rule="evenodd" clip-rule="evenodd" d="M77.181 0.666748H0.666992C3.35092 29.8638 18.4865 108.221 33.4021 133.153C44.4459 152.852 65.6973 234.463 79.6889 250.864C85.8048 251.612 83.1209 208.652 82.2849 195.064C81.6689 184.687 81.4489 173.694 79.6889 163.669C77.709 152.5 76.521 147.223 76.389 134.516L75.9931 32.2382C75.7731 20.8936 77.577 12.3631 77.137 0.666748H77.181Z" fill="#1C5639"/>
<path fill-rule="evenodd" clip-rule="evenodd" d="M294.011 0.666286H241.256C242.356 11.4393 246.096 22.9158 247.152 33.7328C248.34 46.0448 249.484 56.9497 251.816 68.6901C253.928 79.3751 257.272 87.9935 259.516 100.042C261.144 108.792 266.82 119.169 268.976 128.183C279.579 172.595 277.555 183.587 299.335 224.041C317.814 258.383 312.799 227.911 311.303 210.366C309.279 186.138 296.871 183.104 304.923 121.28C314.47 47.9356 294.935 21.4208 294.011 0.622314V0.666286Z" fill="#1C5639"/>
</g>
<defs>
<clipPath id="clip0">
<rect width="404" height="293.333" fill="white" transform="translate(0.666992 0.666992)"/>
</clipPath>
</defs>
</svg>
