<svg width="1920" height="555" viewBox="0 0 1920 555" fill="none" xmlns="http://www.w3.org/2000/svg">
<path fill-rule="evenodd" clip-rule="evenodd" d="M0 0L80 17.9259C160 35.8518 320 71.7037 480 71.7037C640 71.7037 800 35.8518 960 62.7407C1120 89.6296 1280 179.259 1440 197.185C1600 215.111 1760 161.333 1840 134.444L1920 107.556V322.667H1840C1760 322.667 1600 322.667 1440 322.667C1280 322.667 1120 322.667 960 322.667C800 322.667 640 322.667 480 322.667C320 322.667 160 322.667 80 322.667H0V0Z" fill="#FFBE4A"/>
<rect width="1920" height="234.667" transform="matrix(1 0 0 -1 0 554.667)" fill="#FFBE4A"/>
</svg>
