<svg width="441" height="70" viewBox="0 0 441 70" fill="none" xmlns="http://www.w3.org/2000/svg">
<path d="M420.084 4.28283H415.762V0.0878906H428.426V4.28283H424.135V27.7429H420.084V4.28283Z" fill="white"/>
<path d="M440.385 48.4236C440.416 50.3497 439.925 51.9961 438.924 53.3628C438.266 54.2875 437.336 54.9415 436.133 55.325C435.488 55.5324 434.738 55.6362 433.882 55.6362C432.289 55.6362 430.977 55.2302 429.929 54.4183C429.055 53.7552 428.367 52.8531 427.858 51.7164C427.349 50.5707 427.05 49.2671 426.967 47.7921L430.824 47.5079C430.999 49.1182 431.412 50.282 432.07 51.0082C432.557 51.5585 433.119 51.8156 433.746 51.7841C434.633 51.7525 435.339 51.3059 435.866 50.4354C436.138 50.0069 436.274 49.3979 436.274 48.604C436.274 47.4538 435.765 46.3171 434.747 45.1804C433.944 44.4046 432.746 43.2318 431.144 41.6711C429.797 40.3359 428.845 39.1316 428.288 38.0716C427.686 36.8808 427.388 35.5862 427.388 34.1879C427.388 31.6709 428.209 29.7629 429.858 28.4683C430.876 27.688 432.136 27.3 433.641 27.3C435.085 27.3 436.326 27.6293 437.353 28.2924C438.156 28.8066 438.806 29.5238 439.297 30.453C439.793 31.3732 440.087 32.4422 440.188 33.6466L436.291 34.3728C436.177 33.2496 435.857 32.3701 435.343 31.7386C434.971 31.2875 434.431 31.062 433.724 31.062C432.978 31.062 432.412 31.4003 432.026 32.0769C431.71 32.6227 431.552 33.2993 431.552 34.1067C431.552 35.3697 432.083 36.6597 433.145 37.9633C433.549 38.464 434.154 39.0549 434.953 39.727C435.901 40.5389 436.524 41.1028 436.827 41.4275C437.827 42.456 438.604 43.4754 439.148 44.4722C439.411 44.9459 439.617 45.3789 439.771 45.7758C440.157 46.7592 440.359 47.6387 440.377 48.4236H440.385Z" fill="white"/>
<path fill-rule="evenodd" clip-rule="evenodd" d="M296.436 55.3135V0.0576172H301.491V55.3135H296.436Z" fill="white"/>
<path d="M441 69.1003H438.977V65.8887C438.977 65.6271 438.964 65.3654 438.938 65.1083C438.911 64.8467 438.863 64.6573 438.802 64.5355C438.727 64.3956 438.617 64.2874 438.472 64.2242C438.328 64.1611 438.126 64.125 437.871 64.125C437.687 64.125 437.503 64.1566 437.314 64.2197C437.125 64.2784 436.923 64.3776 436.7 64.5129V69.1003H434.677V62.6229H436.7V63.3401C437.059 63.0515 437.402 62.8304 437.731 62.6771C438.06 62.5237 438.429 62.447 438.832 62.447C439.512 62.447 440.043 62.65 440.425 63.056C440.807 63.4619 441 64.0709 441 64.8828V69.0958V69.1003Z" fill="white"/>
<path d="M178.593 43.5478H149.465V2.00439H159.917V35.4917H178.593V43.5478Z" fill="white"/>
<path d="M149.436 35.0066H153.846V36.8966H149.436V35.0066Z" fill="#FFBE4A"/>
<path d="M149.432 28.0933H154.096V30.0923H149.432V28.0933Z" fill="#FFBE4A"/>
<path d="M149.436 20.6555H153.846V22.5455H149.436V20.6555Z" fill="#FFBE4A"/>
<path d="M149.436 13.4783H153.846V15.3683H149.436V13.4783Z" fill="#FFBE4A"/>
<path d="M149.436 6.30103H153.846V8.19101H149.436V6.30103Z" fill="#FFBE4A"/>
<path d="M149.432 31.9585H152.097V33.2912H149.432V31.9585Z" fill="#FFBE4A"/>
<path d="M149.436 24.3059H151.956V25.5659H149.436V24.3059Z" fill="#FFBE4A"/>
<path d="M149.436 17.1252H151.956V18.3852H149.436V17.1252Z" fill="#FFBE4A"/>
<path d="M149.436 9.94971H151.956V11.2097H149.436V9.94971Z" fill="#FFBE4A"/>
<path d="M283.532 27.4729C283.532 32.3986 282.207 36.4176 279.548 39.521C276.898 42.6243 273.58 44.1805 269.618 44.1805C267.911 44.1805 266.423 43.9911 265.133 43.6167C263.848 43.2378 262.623 42.692 261.465 41.9883L261.057 43.549H251.68V0.120117H261.465V15.5106C262.966 14.2837 264.506 13.2823 266.068 12.52C267.634 11.7577 269.442 11.3788 271.487 11.3788C275.349 11.3788 278.324 12.8087 280.408 15.664C282.492 18.5102 283.532 22.4525 283.532 27.4729ZM273.414 27.6714C273.414 24.8793 272.948 22.7367 272.031 21.2346C271.105 19.7281 269.464 18.9793 267.095 18.9793C266.178 18.9793 265.234 19.1236 264.251 19.4078C263.277 19.7055 262.351 20.1115 261.461 20.6573V36.3725C262.167 36.6296 262.83 36.8101 263.461 36.8958C264.102 36.9905 264.861 37.0401 265.739 37.0401C268.323 37.0401 270.25 36.2598 271.509 34.6991C272.777 33.1384 273.409 30.8018 273.409 27.6804L273.414 27.6714Z" fill="white"/>
<path d="M22.5676 14.6936C22.5676 13.6651 22.3657 12.781 21.9576 12.0458C21.5408 11.3015 20.8343 10.7242 19.8338 10.3047C19.1405 10.0115 18.3331 9.82654 17.4073 9.76339C16.4814 9.69573 15.3976 9.66867 14.1645 9.66867H10.4479V20.7559H13.6072C15.2484 20.7559 16.6174 20.6702 17.7188 20.5079C18.829 20.3364 19.7549 19.9666 20.5096 19.3757C21.2248 18.8028 21.7426 18.1758 22.0761 17.4812C22.4008 16.7865 22.5676 15.8618 22.5676 14.6981V14.6936ZM38.9129 43.553H26.1658L15.1694 28.2978H10.4523V43.553H0V2.00952H17.4643C19.8558 2.00952 21.9006 2.15386 23.6163 2.42902C25.3408 2.70417 26.9424 3.31311 28.4431 4.2378C29.9614 5.17151 31.1769 6.37136 32.0676 7.84635C32.9672 9.32135 33.4104 11.1798 33.4104 13.408C33.4104 16.4753 32.7258 18.9697 31.3436 20.9048C29.9614 22.8399 27.9912 24.4457 25.4242 25.7312L38.9129 43.5484V43.553Z" fill="white"/>
<path d="M72.9394 29.7771H50.5913C50.7405 32.2354 51.6488 34.1209 53.3162 35.4245C54.9925 36.7281 57.4585 37.3776 60.7188 37.3776C62.7768 37.3776 64.7777 36.9852 66.7128 36.2139C68.648 35.4425 70.1794 34.6036 71.2983 33.7195H72.3822V41.8071C70.175 42.7228 68.0907 43.3768 66.138 43.7873C64.181 44.1978 62.0133 44.4053 59.6525 44.4053C53.5269 44.4053 48.8405 42.9979 45.5802 40.1652C42.3286 37.337 40.6963 33.309 40.6963 28.0811C40.6963 22.9118 42.2321 18.8161 45.3213 15.794C48.406 12.7763 52.6405 11.2607 58.0158 11.2607C62.9743 11.2607 66.6953 12.5463 69.2009 15.1264C71.6933 17.7065 72.9438 21.4098 72.9438 26.2588V29.7726L72.9394 29.7771ZM63.2112 23.8907C63.1542 21.7842 62.6539 20.2054 61.693 19.1364C60.7408 18.0809 59.2488 17.5441 57.226 17.5441C55.3435 17.5441 53.8077 18.0493 52.5922 19.0507C51.3899 20.0611 50.7097 21.6714 50.5649 23.8907H63.2112Z" fill="white"/>
<path d="M109.466 39.9419C109.466 42.8739 109.058 45.3412 108.242 47.353C107.426 49.3602 106.289 50.9345 104.824 52.0667C103.349 53.2169 101.581 54.0468 99.5144 54.5611C97.4388 55.0663 95.0956 55.3234 92.4935 55.3234C90.3697 55.3234 88.2854 55.188 86.2318 54.9309C84.1738 54.6648 82.3967 54.3491 80.896 53.9792V46.1216H82.0895C83.2831 46.6087 84.7399 47.0553 86.4644 47.4567C88.1801 47.8672 89.7159 48.0657 91.0762 48.0657C92.8841 48.0657 94.3541 47.8943 95.4862 47.5515C96.6183 47.2086 97.4871 46.7215 98.0795 46.0945C98.6455 45.4946 99.0536 44.7413 99.3037 43.8076C99.5539 42.8829 99.6811 41.7688 99.6811 40.4742V39.8923C98.5051 40.8711 97.1975 41.656 95.7714 42.2243C94.3365 42.8062 92.7436 43.0904 90.9797 43.0904C86.7101 43.0904 83.4103 41.7688 81.0847 39.13C78.7678 36.4912 77.6094 32.4812 77.6094 27.091C77.6094 24.5109 77.9604 22.2826 78.6669 20.4061C79.3821 18.5297 80.3738 16.8923 81.6595 15.503C82.8531 14.2084 84.3274 13.189 86.0783 12.4628C87.8203 11.7366 89.6194 11.3757 91.4448 11.3757C93.0947 11.3757 94.5954 11.5742 95.9469 11.9757C97.2896 12.3771 98.5227 12.9274 99.6241 13.6311L99.9751 12.2328H109.462V39.9374L109.466 39.9419ZM99.6811 33.654V19.4724C99.1238 19.2334 98.4305 19.0439 97.6231 18.8996C96.807 18.7552 96.0742 18.6921 95.4291 18.6921C92.8621 18.6921 90.9358 19.4454 89.6589 20.9609C88.3732 22.4765 87.7325 24.5875 87.7325 27.303C87.7325 30.3116 88.281 32.4091 89.3736 33.5999C90.4663 34.7907 92.0898 35.3816 94.2356 35.3816C95.2097 35.3816 96.1707 35.2192 97.1053 34.9035C98.04 34.5877 98.9044 34.1682 99.6811 33.654Z" fill="white"/>
<path d="M139.772 55.0332H129.544C126.069 50.8428 123.493 46.5396 121.825 42.1101C120.149 37.6896 119.315 32.8452 119.315 27.5767C119.315 22.3082 120.149 17.4637 121.825 13.0432C123.493 8.61374 126.069 4.30153 129.544 0.120117H139.772V0.932041C138.307 2.29427 136.911 3.8279 135.577 5.55099C134.252 7.27407 133.019 9.28584 131.883 11.5908C130.79 13.8101 129.908 16.2594 129.232 18.9613C128.557 21.6541 128.214 24.532 128.214 27.5812C128.214 30.7612 128.548 33.6481 129.206 36.2282C129.864 38.8173 130.755 41.2666 131.883 43.5716C132.967 45.7638 134.191 47.762 135.551 49.5527C136.92 51.3525 138.329 52.9042 139.777 54.2303V55.0377L139.772 55.0332Z" fill="white"/>
<path d="M204.684 27.5761C204.684 32.8445 203.85 37.689 202.174 42.1095C200.506 46.539 197.93 50.8422 194.455 55.0326H184.227V54.2252C185.67 52.8991 187.088 51.3474 188.461 49.5657C189.83 47.7749 191.054 45.7767 192.121 43.5665C193.253 41.2615 194.139 38.8122 194.797 36.223C195.456 33.6429 195.789 30.7561 195.789 27.5761C195.789 24.5268 195.447 21.6535 194.771 18.9561C194.095 16.2497 193.213 13.8049 192.121 11.5857C190.98 9.28071 189.747 7.27345 188.426 5.54586C187.092 3.82278 185.692 2.28914 184.231 0.926914V0.11499H194.459C197.935 4.2964 200.511 8.60862 202.178 13.0381C203.854 17.4586 204.688 22.3031 204.688 27.5715L204.684 27.5761Z" fill="white"/>
<path d="M233.002 35.3652V28.8022C231.686 28.915 230.268 29.0683 228.741 29.2668C227.214 29.4562 226.056 29.6863 225.266 29.9524C224.292 30.2682 223.55 30.7328 223.041 31.3327C222.532 31.9416 222.273 32.74 222.273 33.7324C222.273 34.3909 222.33 34.9142 222.431 35.3337C222.541 35.7441 222.813 36.1321 223.247 36.5064C223.656 36.8763 224.156 37.156 224.731 37.3364C225.305 37.5168 226.205 37.6025 227.425 37.6025C228.399 37.6025 229.378 37.3905 230.369 36.9846C231.37 36.5741 232.252 36.0328 233.002 35.3652ZM233.002 40.2233C232.484 40.6337 231.826 41.1299 231.058 41.7073C230.281 42.2801 229.549 42.7357 228.864 43.0695C227.912 43.5161 226.92 43.8498 225.889 44.0709C224.862 44.2919 223.73 44.4047 222.497 44.4047C219.614 44.4047 217.196 43.48 215.252 41.6351C213.3 39.7857 212.326 37.4356 212.326 34.5578C212.326 32.2619 212.826 30.3854 213.818 28.9375C214.809 27.4806 216.218 26.3303 218.034 25.4913C219.842 24.6524 222.085 24.0524 224.753 23.7006C227.42 23.3488 230.189 23.0917 233.063 22.9203V22.7488C233.063 21.0258 232.379 19.8259 231.005 19.1674C229.636 18.5088 227.614 18.175 224.946 18.175C223.344 18.175 221.628 18.4727 219.812 19.0501C217.986 19.641 216.679 20.0875 215.884 20.4033H214.994V12.8208C216.02 12.5457 217.701 12.2119 220.013 11.8285C222.33 11.4496 224.656 11.2556 226.982 11.2556C232.524 11.2556 236.526 12.1307 238.978 13.8944C241.445 15.658 242.673 18.4186 242.673 22.1895V43.5431H233.002V40.2187V40.2233Z" fill="white"/>
<path d="M323.569 20.1379H319.519V0.0878906H323.569V20.1379Z" fill="white"/>
<path d="M331.469 0.0576172L336.853 18.6371V0.0576172H340.903V27.7442H336.546L330.96 10.0217V27.7442H326.91V0.0576172H331.469Z" fill="white"/>
<path d="M357.71 21.1236C357.741 23.0496 357.245 24.6915 356.249 26.0628C355.582 26.9829 354.66 27.6415 353.458 28.0249C352.813 28.2324 352.063 28.3361 351.207 28.3361C349.614 28.3361 348.302 27.9257 347.253 27.1183C346.385 26.4507 345.691 25.5531 345.182 24.4164C344.673 23.2706 344.375 21.9671 344.292 20.4921L348.149 20.2079C348.324 21.8182 348.741 22.982 349.395 23.7082C349.886 24.254 350.444 24.5111 351.071 24.484C351.957 24.4479 352.659 24.0059 353.19 23.1353C353.458 22.7023 353.599 22.0979 353.599 21.304C353.599 20.1538 353.12 18.9855 352.071 17.8804C351.304 17.073 350.066 15.9408 348.469 14.3711C347.117 13.0404 346.161 11.8406 345.612 10.7715C345.002 9.58521 344.708 8.28613 344.708 6.88782C344.708 4.37086 345.525 2.45833 347.179 1.16827C348.192 0.378898 349.456 0 350.961 0C352.409 0 353.647 0.333791 354.674 0.992351C355.472 1.50657 356.122 2.22377 356.617 3.15297C357.109 4.07315 357.407 5.14218 357.508 6.34654L353.612 7.07276C353.498 5.9496 353.182 5.0655 352.664 4.43852C352.295 3.98745 351.751 3.76191 351.045 3.76191C350.299 3.76191 349.737 4.10022 349.347 4.77682C349.031 5.32261 348.873 5.99922 348.873 6.80663C348.873 8.06962 349.404 9.35968 350.465 10.6633C350.869 11.164 351.479 11.7503 352.273 12.4315C353.226 13.2389 353.84 13.8117 354.147 14.132C355.147 15.1649 355.924 16.1798 356.468 17.1767C356.727 17.6503 356.938 18.0834 357.091 18.4803C357.478 19.4636 357.684 20.3432 357.697 21.1281L357.71 21.1236Z" fill="white"/>
<path d="M364.822 4.28283H360.5V0.0878906H373.164V4.28283H368.872V27.7429H364.822V4.28283Z" fill="white"/>
<path d="M380.478 20.1379H376.428V0.0878906H380.478V20.1379Z" fill="white"/>
<path d="M388.083 4.28283H383.757V0.0878906H396.425V4.28283H392.134V27.7429L388.123 31.6808L388.083 4.28283Z" fill="white"/>
<path d="M406.076 28.0542C404.286 28.0542 402.772 27.4136 401.526 26.1326C400.28 24.8516 399.661 23.2999 399.661 21.4776V0.0878906H403.619V21.4415C403.619 22.1046 403.847 22.6684 404.304 23.133C404.764 23.5931 405.313 23.8276 405.958 23.8276C406.603 23.8276 407.147 23.5931 407.599 23.133C408.047 22.6684 408.275 22.1046 408.275 21.4415V0.0878906H412.505V21.4776C412.505 23.3315 411.873 24.8922 410.614 26.1552C409.359 27.4227 407.845 28.0542 406.068 28.0542H406.076Z" fill="white"/>
<path d="M323.457 55.2962H319.403V27.6096H330.956V31.8046H323.457V39.3555H328.925V43.5504H323.457V55.2962Z" fill="white"/>
<path d="M340.152 27.6416C342.416 27.6416 344.074 28.2821 345.141 29.5632C346.071 30.6818 346.536 32.2425 346.536 34.2407V38.2598C346.536 40.2174 345.812 41.8683 344.355 43.226L347.361 55.2966H342.995L340.525 44.8815C340.411 44.886 340.288 44.886 340.156 44.886H337.8V55.2966H333.75V27.6416H340.152ZM342.574 34.3084C342.574 32.7026 341.797 31.8997 340.253 31.8997H337.8V40.7542H340.253C340.898 40.7542 341.446 40.5196 341.894 40.0505C342.346 39.5769 342.574 39.0085 342.574 38.3455V34.3039V34.3084Z" fill="white"/>
<path d="M355.345 48.9227L354.354 55.2918H350.615L354.696 27.6367H360.278L364.788 55.2918H360.528L359.58 48.9227H355.35H355.345ZM357.461 33.9787L355.96 44.854H358.966L357.461 33.9787Z" fill="white"/>
<path d="M373.379 27.6096L378.763 46.1891V27.6096H382.813V55.2962H378.614L372.87 37.5737V55.2962H368.82V27.6096H373.379Z" fill="white"/>
<path d="M392.683 55.6349C390.893 55.6349 389.379 54.9944 388.129 53.7043C386.874 52.4188 386.25 50.8626 386.25 49.0403V33.9475C386.25 32.1071 386.882 30.5464 388.142 29.2609C389.397 27.9708 390.911 27.3303 392.688 27.3303C394.478 27.3303 395.992 27.9799 397.238 29.2744C398.484 30.569 399.103 32.1297 399.103 33.9565V37.114H394.899V33.8663C394.899 33.2078 394.671 32.6394 394.215 32.1658C393.758 31.6922 393.206 31.4621 392.56 31.4621C391.915 31.4621 391.371 31.6967 390.919 32.1658C390.472 32.6394 390.244 33.2032 390.244 33.8663V48.9997C390.244 49.6627 390.472 50.2221 390.919 50.6867C391.371 51.1468 391.915 51.3813 392.56 51.3813C393.206 51.3813 393.754 51.1468 394.215 50.6867C394.676 50.2266 394.899 49.6627 394.899 48.9997V45.1881H399.103V49.0448C399.103 50.8851 398.471 52.4413 397.212 53.7224C395.957 55.0034 394.447 55.6394 392.688 55.6394L392.683 55.6349Z" fill="white"/>
<path d="M406.66 48.9253L405.835 55.2944H401.434L406.01 27.6394L411.061 24.4548L416.098 55.2944L411.754 55.3034L410.89 48.9253H406.66ZM408.775 33.9814L407.274 44.8567H410.28L408.775 33.9814Z" fill="white"/>
<path d="M424.168 55.2982H420.118V35.2437H424.168V55.2982Z" fill="white"/>
<path d="M409.247 68.6093C408.874 68.7581 408.378 68.907 407.76 69.0558C407.141 69.2047 406.527 69.2768 405.912 69.2768C404.49 69.2768 403.372 68.8799 402.569 68.086C401.766 67.2921 401.362 66.1915 401.362 64.7887C401.362 63.449 401.77 62.3755 402.582 61.5545C403.393 60.7381 404.526 60.3276 405.982 60.3276C406.531 60.3276 407.058 60.3773 407.553 60.481C408.054 60.5802 408.606 60.7877 409.216 61.0899V63.1062H408.975C408.87 63.025 408.716 62.9123 408.514 62.7634C408.312 62.6146 408.119 62.4883 407.931 62.3845C407.711 62.2627 407.461 62.1545 407.172 62.0688C406.882 61.9785 406.575 61.9379 406.25 61.9379C405.868 61.9379 405.522 61.9966 405.21 62.1094C404.899 62.2266 404.622 62.4025 404.376 62.6416C404.139 62.8717 403.955 63.1649 403.819 63.5212C403.683 63.8776 403.613 64.288 403.613 64.7526C403.613 65.7044 403.859 66.4306 404.35 66.9358C404.842 67.441 405.566 67.6936 406.527 67.6936C406.61 67.6936 406.702 67.6936 406.799 67.6891C406.895 67.6846 406.987 67.6801 407.071 67.671V65.9795H405.394V64.3602H409.256V68.6048L409.247 68.6093Z" fill="white"/>
<path d="M414.877 67.4077V66.0499C414.605 66.0725 414.311 66.1041 413.995 66.1447C413.679 66.1853 413.438 66.2304 413.275 66.2845C413.074 66.3476 412.92 66.4469 412.815 66.5687C412.709 66.695 412.657 66.8619 412.657 67.0648C412.657 67.2002 412.67 67.3084 412.692 67.3941C412.714 67.4798 412.771 67.561 412.858 67.6377C412.942 67.7144 413.047 67.773 413.166 67.8091C413.284 67.8452 413.468 67.8632 413.723 67.8632C413.925 67.8632 414.127 67.8181 414.333 67.7369C414.539 67.6512 414.723 67.5385 414.877 67.4031V67.4077ZM414.877 68.4135C414.772 68.4992 414.636 68.603 414.473 68.7203C414.311 68.8375 414.162 68.9323 414.021 68.9999C413.824 69.0901 413.618 69.1623 413.407 69.2074C413.196 69.2525 412.959 69.2751 412.705 69.2751C412.108 69.2751 411.608 69.0856 411.204 68.7022C410.8 68.3188 410.599 67.8317 410.599 67.2408C410.599 66.7671 410.704 66.3792 410.906 66.077C411.112 65.7748 411.402 65.5357 411.779 65.3643C412.152 65.1929 412.617 65.0666 413.17 64.9944C413.723 64.9223 414.293 64.8681 414.89 64.832V64.796C414.89 64.4396 414.75 64.1915 414.464 64.0562C414.179 63.9209 413.762 63.8532 413.21 63.8532C412.876 63.8532 412.525 63.9164 412.148 64.0337C411.77 64.1554 411.498 64.2502 411.336 64.3133H411.152V62.7436C411.367 62.685 411.713 62.6173 412.191 62.5406C412.67 62.4639 413.152 62.4233 413.631 62.4233C414.776 62.4233 415.605 62.6038 416.114 62.9691C416.623 63.3345 416.878 63.9028 416.878 64.6832V69.0992H414.877V68.4135Z" fill="white"/>
<path d="M425.335 65.776C425.335 66.7955 425.063 67.6254 424.51 68.2659C423.961 68.9065 423.277 69.2312 422.456 69.2312C422.105 69.2312 421.794 69.1906 421.531 69.1139C421.263 69.0373 421.013 68.9245 420.771 68.7756L420.688 69.1004H418.749V60.1196H420.771V63.3042C421.083 63.0516 421.399 62.8441 421.724 62.6862C422.048 62.5283 422.421 62.4517 422.847 62.4517C423.646 62.4517 424.26 62.7494 424.69 63.3403C425.12 63.9312 425.335 64.7431 425.335 65.7851V65.776ZM423.242 65.8166C423.242 65.2393 423.145 64.7972 422.957 64.486C422.764 64.1747 422.426 64.0169 421.934 64.0169C421.746 64.0169 421.548 64.0484 421.346 64.1071C421.144 64.1657 420.951 64.2514 420.771 64.3642V67.6164C420.916 67.6705 421.057 67.7066 421.184 67.7247C421.316 67.7427 421.473 67.7562 421.653 67.7562C422.189 67.7562 422.588 67.5938 422.847 67.2736C423.11 66.9488 423.242 66.4662 423.242 65.8211V65.8166Z" fill="white"/>
<path d="M433.226 65.8601C433.226 66.9246 432.923 67.7636 432.318 68.3771C431.712 68.9905 430.865 69.2973 429.768 69.2973C428.676 69.2973 427.824 68.9905 427.219 68.3771C426.613 67.7636 426.311 66.9246 426.311 65.8601C426.311 64.7866 426.613 63.9476 427.223 63.3341C427.833 62.7252 428.68 62.4185 429.764 62.4185C430.865 62.4185 431.717 62.7252 432.318 63.3386C432.919 63.9566 433.222 64.7956 433.222 65.8601H433.226ZM430.738 67.4298C430.87 67.2629 430.966 67.069 431.036 66.8344C431.102 66.6044 431.133 66.2796 431.133 65.8691C431.133 65.4902 431.098 65.17 431.032 64.9174C430.966 64.6603 430.87 64.4573 430.751 64.3039C430.633 64.146 430.488 64.0378 430.317 63.9701C430.15 63.907 429.966 63.8709 429.773 63.8709C429.58 63.8709 429.404 63.898 429.251 63.9521C429.097 64.0062 428.952 64.11 428.816 64.2724C428.693 64.4212 428.592 64.6287 428.518 64.8858C428.443 65.1474 428.408 65.4767 428.408 65.8691C428.408 66.221 428.439 66.5277 428.505 66.7893C428.566 67.0464 428.663 67.2539 428.785 67.4118C428.904 67.5606 429.049 67.6689 429.215 67.7411C429.382 67.8087 429.571 67.8448 429.786 67.8448C429.97 67.8448 430.146 67.8132 430.312 67.7501C430.479 67.6869 430.62 67.5787 430.734 67.4298H430.738Z" fill="white"/>
</svg>
