<svg width="442" height="70" viewBox="0 0 442 70" fill="none" xmlns="http://www.w3.org/2000/svg">
<path d="M420.289 4.95382H415.965V0.756836H428.635V4.95382H424.341V28.4254H420.289V4.95382Z" fill="white"/>
<path d="M440.6 49.1119C440.631 51.0389 440.139 52.6861 439.138 54.0535C438.48 54.9787 437.549 55.633 436.346 56.0166C435.701 56.2242 434.95 56.328 434.094 56.328C432.501 56.328 431.188 55.9218 430.139 55.1095C429.265 54.4461 428.576 53.5436 428.066 52.4063C427.557 51.26 427.259 49.9558 427.175 48.4801L431.034 48.1958C431.21 49.8069 431.622 50.9712 432.281 51.6978C432.768 52.2484 433.33 52.5056 433.958 52.474C434.845 52.4424 435.552 51.9956 436.079 51.1246C436.351 50.6959 436.487 50.0867 436.487 49.2924C436.487 48.1416 435.978 47.0044 434.959 45.8671C434.156 45.0909 432.957 43.9176 431.355 42.3561C430.007 41.0203 429.054 39.8153 428.497 38.7548C427.895 37.5634 427.597 36.2682 427.597 34.8692C427.597 32.351 428.418 30.4421 430.068 29.1469C431.087 28.3661 432.347 27.978 433.853 27.978C435.297 27.978 436.539 28.3075 437.567 28.9709C438.37 29.4853 439.02 30.2029 439.512 31.1325C440.008 32.0532 440.302 33.1227 440.403 34.3277L436.504 35.0542C436.39 33.9305 436.07 33.0505 435.556 32.4187C435.183 31.9674 434.643 31.7418 433.936 31.7418C433.19 31.7418 432.623 32.0802 432.237 32.7572C431.921 33.3032 431.763 33.9802 431.763 34.788C431.763 36.0516 432.294 37.3423 433.357 38.6465C433.76 39.1474 434.366 39.7386 435.165 40.411C436.114 41.2234 436.737 41.7875 437.04 42.1124C438.041 43.1413 438.818 44.1613 439.362 45.1586C439.626 45.6325 439.832 46.0657 439.986 46.4628C440.372 47.4466 440.574 48.3267 440.592 49.1119H440.6Z" fill="white"/>
<path fill-rule="evenodd" clip-rule="evenodd" d="M296.581 56.0068V0.723877H301.638V56.0068H296.581Z" fill="white"/>
<path d="M441.216 69.8001H439.192V66.5869C439.192 66.3251 439.179 66.0634 439.153 65.8062C439.126 65.5444 439.078 65.3549 439.016 65.233C438.942 65.0931 438.832 64.9848 438.687 64.9216C438.542 64.8585 438.34 64.8224 438.086 64.8224C437.901 64.8224 437.717 64.8539 437.528 64.9171C437.339 64.9758 437.137 65.0751 436.914 65.2105V69.8001H434.89V63.3196H436.914V64.0371C437.274 63.7483 437.616 63.5271 437.945 63.3737C438.274 63.2203 438.643 63.1436 439.047 63.1436C439.728 63.1436 440.259 63.3466 440.641 63.7528C441.023 64.159 441.216 64.7682 441.216 65.5805V69.7955V69.8001Z" fill="white"/>
<path d="M178.68 44.2353H149.539V2.67163H159.996V36.1753H178.68V44.2353Z" fill="white"/>
<path d="M149.509 35.6895H153.921V37.5804H149.509V35.6895Z" fill="#FFBE4A"/>
<path d="M112.128 21.7788H115.628V23.2788H112.128V21.7788Z" fill="#FFBE4A"/>
<path d="M149.509 21.3303H153.921V23.2212H149.509V21.3303Z" fill="#FFBE4A"/>
<path d="M149.509 14.1497H153.921V16.0406H149.509V14.1497Z" fill="#FFBE4A"/>
<path d="M149.509 6.96997H153.921V8.86088H149.509V6.96997Z" fill="#FFBE4A"/>
<path d="M112.128 24.679H114.128V25.679H112.128V24.679Z" fill="#FFBE4A"/>
<path d="M149.509 24.9841H152.03V26.2447H149.509V24.9841Z" fill="#FFBE4A"/>
<path d="M149.509 17.7998H152.03V19.0604H149.509V17.7998Z" fill="#FFBE4A"/>
<path d="M149.509 10.6187H152.03V11.8793H149.509V10.6187Z" fill="#FFBE4A"/>
<path d="M283.67 28.1508C283.67 33.0789 282.344 37.0999 279.684 40.2048C277.032 43.3096 273.713 44.8666 269.749 44.8666C268.041 44.8666 266.553 44.677 265.262 44.3025C263.976 43.9234 262.751 43.3773 261.592 42.6733L261.184 44.2348H251.802V0.784668H261.592V16.1827C263.093 14.9551 264.634 13.9533 266.197 13.1906C267.764 12.4279 269.573 12.0488 271.619 12.0488C275.482 12.0488 278.459 13.4794 280.544 16.3361C282.629 19.1837 283.67 23.128 283.67 28.1508ZM273.546 28.3494C273.546 25.5559 273.081 23.4123 272.163 21.9095C271.237 20.4022 269.595 19.6531 267.224 19.6531C266.307 19.6531 265.363 19.7975 264.38 20.0818C263.405 20.3796 262.479 20.7858 261.587 21.3319V37.0548C262.294 37.312 262.957 37.4925 263.589 37.5783C264.23 37.673 264.99 37.7227 265.868 37.7227C268.454 37.7227 270.381 36.9419 271.641 35.3805C272.91 33.819 273.542 31.4814 273.542 28.3584L273.546 28.3494Z" fill="white"/>
<path d="M22.5786 15.367C22.5786 14.3381 22.3766 13.4535 21.9684 12.7179C21.5513 11.9733 20.8445 11.3957 19.8435 10.976C19.1499 10.6826 18.3421 10.4976 17.4158 10.4344C16.4894 10.3667 15.4051 10.3396 14.1714 10.3396H10.453V21.4323H13.6139C15.2558 21.4323 16.6255 21.3466 17.7275 21.1841C18.8382 21.0126 19.7645 20.6426 20.5196 20.0514C21.2352 19.4782 21.7532 18.851 22.0869 18.156C22.4118 17.461 22.5786 16.5358 22.5786 15.3715V15.367ZM38.9319 44.2405H26.1785L15.1768 28.9779H10.4574V44.2405H0V2.67676H17.4728C19.8655 2.67676 21.9113 2.82117 23.6278 3.09646C25.3532 3.37174 26.9556 3.98098 28.457 4.90613C29.976 5.84029 31.1921 7.04072 32.0833 8.51644C32.9833 9.99215 33.4267 11.8515 33.4267 14.0808C33.4267 17.1496 32.7418 19.6452 31.3589 21.5813C29.976 23.5173 28.0048 25.1239 25.4366 26.41L38.9319 44.236V44.2405Z" fill="white"/>
<path d="M72.9757 30.4575H50.6166C50.7659 32.9171 51.6746 34.8035 53.3429 36.1077C55.0199 37.4119 57.4872 38.0618 60.7491 38.0618C62.8081 38.0618 64.81 37.6691 66.7461 36.8974C68.6821 36.1257 70.2143 35.2863 71.3338 34.4018H72.4181V42.4934C70.2099 43.4095 68.1246 44.0639 66.1709 44.4746C64.2129 44.8853 62.0442 45.0928 59.6823 45.0928C53.5536 45.0928 48.8649 43.6848 45.603 40.8507C42.3499 38.0211 40.7168 33.9911 40.7168 28.7607C40.7168 23.5889 42.2534 19.4912 45.344 16.4676C48.4303 13.4485 52.6668 11.9321 58.0448 11.9321C63.0056 11.9321 66.7285 13.2183 69.2353 15.7997C71.7289 18.381 72.9801 22.0861 72.9801 26.9375V30.453L72.9757 30.4575ZM63.2427 24.5682C63.1856 22.4607 62.6852 20.8812 61.7237 19.8116C60.7711 18.7556 59.2784 18.2186 57.2545 18.2186C55.3712 18.2186 53.8346 18.724 52.6185 19.7259C51.4156 20.7368 50.7351 22.3479 50.5903 24.5682H63.2427Z" fill="white"/>
<path d="M109.519 40.6253C109.519 43.5587 109.111 46.0272 108.294 48.04C107.478 50.0482 106.341 51.6232 104.874 52.756C103.399 53.9067 101.63 54.7371 99.5622 55.2516C97.4856 55.757 95.1413 56.0143 92.5379 56.0143C90.4131 56.0143 88.3277 55.8789 86.2731 55.6216C84.2142 55.3554 82.4362 55.0395 80.9347 54.6694V46.808H82.1288C83.323 47.2954 84.7805 47.7421 86.5058 48.1438C88.2224 48.5545 89.7589 48.753 91.1199 48.753C92.9286 48.753 94.3993 48.5815 95.532 48.2386C96.6647 47.8956 97.5339 47.4082 98.1266 46.7809C98.6929 46.1807 99.1012 45.427 99.3514 44.4929C99.6017 43.5677 99.729 42.453 99.729 41.1578V40.5757C98.5524 41.555 97.2442 42.3402 95.8174 42.9088C94.3818 43.491 92.7881 43.7753 91.0233 43.7753C86.7517 43.7753 83.4503 42.453 81.1235 39.813C78.8055 37.1729 77.6465 33.161 77.6465 27.7681C77.6465 25.1867 77.9977 22.9573 78.7045 21.08C79.4201 19.2026 80.4123 17.5644 81.6986 16.1745C82.8927 14.8793 84.3678 13.8593 86.1195 13.1328C87.8624 12.4062 89.6624 12.0452 91.4887 12.0452C93.1394 12.0452 94.6408 12.2437 95.993 12.6454C97.3363 13.047 98.57 13.5976 99.6719 14.3016L100.023 12.9026H109.515V40.6208L109.519 40.6253ZM99.729 34.3343V20.1458C99.1714 19.9066 98.4778 19.7171 97.67 19.5727C96.8534 19.4283 96.1203 19.3651 95.4749 19.3651C92.9067 19.3651 90.9794 20.1187 89.7019 21.6351C88.4156 23.1514 87.7746 25.2634 87.7746 27.9802C87.7746 30.9903 88.3234 33.0888 89.4165 34.2802C90.5097 35.4716 92.134 36.0628 94.2808 36.0628C95.2554 36.0628 96.2169 35.9003 97.152 35.5844C98.0871 35.2685 98.9519 34.8488 99.729 34.3343Z" fill="white"/>
<path d="M139.841 55.7246H129.608C126.131 51.5321 123.554 47.2268 121.886 42.7952C120.209 38.3725 119.375 33.5257 119.375 28.2546C119.375 22.9836 120.209 18.1367 121.886 13.7141C123.554 9.28244 126.131 4.96812 129.608 0.784668H139.841V1.59699C138.375 2.95988 136.979 4.49426 135.644 6.21819C134.319 7.94211 133.085 9.95486 131.948 12.2609C130.855 14.4813 129.972 16.9318 129.296 19.635C128.62 22.3292 128.278 25.2084 128.278 28.2591C128.278 31.4407 128.611 34.329 129.27 36.9104C129.928 39.5008 130.82 41.9513 131.948 44.2573C133.032 46.4506 134.257 48.4498 135.618 50.2414C136.988 52.0421 138.397 53.5945 139.846 54.9213V55.7291L139.841 55.7246Z" fill="white"/>
<path d="M204.783 28.2552C204.783 33.5263 203.949 38.3731 202.272 42.7958C200.603 47.2274 198.026 51.5327 194.549 55.7252H184.316V54.9174C185.76 53.5906 187.178 52.0382 188.552 50.2556C189.922 48.464 191.147 46.4648 192.214 44.2534C193.346 41.9473 194.233 39.4969 194.892 36.9065C195.55 34.3251 195.884 31.4368 195.884 28.2552C195.884 25.2045 195.542 22.3298 194.865 19.6311C194.189 16.9234 193.307 14.4774 192.214 12.257C191.072 9.95096 189.839 7.94272 188.517 6.21428C187.183 4.49036 185.782 2.95598 184.32 1.59308V0.780762H194.554C198.031 4.96421 200.608 9.27853 202.276 13.7102C203.953 18.1328 204.787 22.9797 204.787 28.2507L204.783 28.2552Z" fill="white"/>
<path d="M233.117 36.0491V29.4829C231.8 29.5957 230.382 29.7491 228.854 29.9477C227.326 30.1372 226.167 30.3674 225.377 30.6337C224.402 30.9496 223.66 31.4144 223.151 32.0146C222.642 32.6239 222.383 33.4226 222.383 34.4155C222.383 35.0744 222.44 35.5978 222.541 36.0175C222.65 36.4282 222.923 36.8163 223.357 37.1909C223.766 37.561 224.266 37.8408 224.841 38.0213C225.416 38.2018 226.316 38.2875 227.537 38.2875C228.511 38.2875 229.49 38.0754 230.483 37.6693C231.483 37.2586 232.366 36.717 233.117 36.0491ZM233.117 40.9095C232.599 41.3202 231.94 41.8166 231.172 42.3943C230.395 42.9674 229.662 43.4232 228.977 43.7572C228.024 44.2039 227.032 44.5379 226 44.759C224.973 44.9801 223.84 45.093 222.607 45.093C219.722 45.093 217.303 44.1678 215.358 42.3221C213.405 40.4718 212.43 38.1206 212.43 35.2413C212.43 32.9443 212.931 31.0669 213.923 29.6183C214.915 28.1606 216.324 27.0098 218.142 26.1704C219.951 25.331 222.194 24.7308 224.863 24.3788C227.532 24.0268 230.303 23.7696 233.178 23.5981V23.4266C233.178 21.7027 232.493 20.5022 231.119 19.8433C229.749 19.1845 227.725 18.8505 225.056 18.8505C223.454 18.8505 221.737 19.1484 219.92 19.726C218.093 20.3172 216.785 20.764 215.991 21.0799H215.099V13.4937C216.127 13.2184 217.808 12.8845 220.122 12.5009C222.44 12.1218 224.767 11.9277 227.093 11.9277C232.638 11.9277 236.642 12.8032 239.096 14.5678C241.563 16.3323 242.792 19.0942 242.792 22.867V44.231H233.117V40.905V40.9095Z" fill="white"/>
<path d="M323.727 20.8166H319.675V0.756836H323.727V20.8166Z" fill="white"/>
<path d="M331.63 0.723877L337.017 19.3125V0.723877H341.069V28.424H336.71L331.121 10.6929V28.424H327.069V0.723877H331.63Z" fill="white"/>
<path d="M357.886 21.8006C357.916 23.7276 357.42 25.3703 356.424 26.7422C355.756 27.6629 354.834 28.3217 353.632 28.7053C352.986 28.9129 352.235 29.0167 351.379 29.0167C349.786 29.0167 348.473 28.6061 347.424 27.7982C346.555 27.1303 345.861 26.2323 345.352 25.095C344.842 23.9488 344.544 22.6445 344.46 21.1688L348.319 20.8845C348.495 22.4956 348.912 23.6599 349.566 24.3865C350.058 24.9326 350.615 25.1898 351.243 25.1627C352.13 25.1266 352.832 24.6844 353.364 23.8134C353.632 23.3801 353.772 22.7754 353.772 21.9811C353.772 20.8303 353.293 19.6615 352.244 18.5558C351.476 17.748 350.238 16.6153 348.64 15.0448C347.288 13.7135 346.331 12.5131 345.782 11.4435C345.172 10.2566 344.878 8.95693 344.878 7.55793C344.878 5.03974 345.694 3.12627 347.349 1.83559C348.363 1.04583 349.628 0.666748 351.134 0.666748C352.582 0.666748 353.82 1.0007 354.848 1.65958C355.647 2.17405 356.296 2.8916 356.792 3.82126C357.284 4.74189 357.583 5.81144 357.684 7.01639L353.785 7.74296C353.671 6.61925 353.355 5.73472 352.837 5.10743C352.468 4.65614 351.924 4.4305 351.217 4.4305C350.471 4.4305 349.909 4.76897 349.518 5.4459C349.202 5.99196 349.044 6.66889 349.044 7.4767C349.044 8.74031 349.575 10.031 350.637 11.3352C351.041 11.8362 351.652 12.4228 352.446 13.1043C353.399 13.9121 354.013 14.4852 354.321 14.8056C355.322 15.8391 356.099 16.8545 356.643 17.8518C356.902 18.3257 357.113 18.7589 357.267 19.1561C357.653 20.1399 357.859 21.0199 357.872 21.8051L357.886 21.8006Z" fill="white"/>
<path d="M365.001 4.95382H360.677V0.756836H373.347V4.95382H369.053V28.4254H365.001V4.95382Z" fill="white"/>
<path d="M380.664 20.8166H376.612V0.756836H380.664V20.8166Z" fill="white"/>
<path d="M388.273 4.95382H383.944V0.756836H396.619V4.95382H392.325V28.4254L388.313 32.3651L388.273 4.95382Z" fill="white"/>
<path d="M406.274 28.7368C404.483 28.7368 402.968 28.0959 401.721 26.8143C400.474 25.5326 399.855 23.9802 399.855 22.157V0.756836H403.815V22.1209C403.815 22.7843 404.044 23.3484 404.5 23.8132C404.961 24.2735 405.51 24.5082 406.155 24.5082C406.801 24.5082 407.345 24.2735 407.797 23.8132C408.245 23.3484 408.473 22.7843 408.473 22.1209V0.756836H412.705V22.157C412.705 24.0118 412.073 25.5732 410.813 26.8368C409.558 28.1049 408.043 28.7368 406.265 28.7368H406.274Z" fill="white"/>
<path d="M323.615 55.9899H319.558V28.2898H331.117V32.4868H323.615V40.0414H329.085V44.2384H323.615V55.9899Z" fill="white"/>
<path d="M340.317 28.3223C342.582 28.3223 344.242 28.9631 345.308 30.2448C346.239 31.364 346.705 32.9254 346.705 34.9246V38.9456C346.705 40.9042 345.98 42.5559 344.523 43.9143L347.53 55.9908H343.162L340.69 45.5705C340.576 45.575 340.453 45.5751 340.321 45.5751H337.964V55.9908H333.912V28.3223H340.317ZM342.74 34.9923C342.74 33.3857 341.963 32.5824 340.418 32.5824H337.964V41.4412H340.418C341.063 41.4412 341.612 41.2066 342.06 40.7372C342.512 40.2634 342.74 39.6948 342.74 39.0314V34.9878V34.9923Z" fill="white"/>
<path d="M355.519 49.613L354.527 55.9852H350.787L354.869 28.3167H360.454L364.967 55.9852H360.704L359.756 49.613H355.524H355.519ZM357.635 34.6618L356.134 45.5424H359.141L357.635 34.6618Z" fill="white"/>
<path d="M373.561 28.2898L378.948 46.8784V28.2898H383V55.9899H378.798L373.052 38.2588V55.9899H369V28.2898H373.561Z" fill="white"/>
<path d="M392.875 56.3296C391.084 56.3296 389.569 55.6888 388.318 54.3981C387.062 53.1119 386.439 51.555 386.439 49.7318V34.6316C386.439 32.7904 387.071 31.2289 388.331 29.9427C389.587 28.6521 391.101 28.0112 392.879 28.0112C394.671 28.0112 396.185 28.6611 397.432 29.9563C398.679 31.2515 399.298 32.8129 399.298 34.6407V37.7997H395.092V34.5504C395.092 33.8915 394.864 33.3229 394.407 32.849C393.951 32.3752 393.397 32.145 392.752 32.145C392.107 32.145 391.562 32.3797 391.11 32.849C390.662 33.3229 390.434 33.887 390.434 34.5504V49.6912C390.434 50.3546 390.662 50.9142 391.11 51.379C391.562 51.8393 392.107 52.074 392.752 52.074C393.397 52.074 393.946 51.8393 394.407 51.379C394.868 50.9187 395.092 50.3546 395.092 49.6912V45.8778H399.298V49.7363C399.298 51.5775 398.666 53.1345 397.406 54.4162C396.15 55.6978 394.64 56.3341 392.879 56.3341L392.875 56.3296Z" fill="white"/>
<path d="M406.859 49.615L406.033 55.9872H401.63L406.209 28.3187L411.262 25.1326L416.302 55.9872L411.955 55.9962L411.091 49.615H406.859ZM408.975 34.6638L407.473 45.5444H410.48L408.975 34.6638Z" fill="white"/>
<path d="M424.374 55.9908H420.322V35.9265H424.374V55.9908Z" fill="white"/>
<path d="M409.447 69.3086C409.074 69.4575 408.578 69.6065 407.959 69.7554C407.339 69.9043 406.725 69.9765 406.11 69.9765C404.688 69.9765 403.568 69.5794 402.765 68.7851C401.962 67.9909 401.558 66.8897 401.558 65.4862C401.558 64.1459 401.966 63.0718 402.778 62.2505C403.59 61.4336 404.723 61.0229 406.18 61.0229C406.729 61.0229 407.256 61.0726 407.752 61.1764C408.253 61.2757 408.806 61.4833 409.416 61.7856V63.8029H409.175C409.069 63.7217 408.916 63.6088 408.714 63.4599C408.512 63.311 408.319 63.1846 408.13 63.0808C407.91 62.959 407.66 62.8507 407.37 62.7649C407.08 62.6747 406.773 62.634 406.448 62.634C406.066 62.634 405.72 62.6927 405.408 62.8055C405.096 62.9229 404.82 63.0989 404.574 63.3381C404.337 63.5682 404.152 63.8616 404.016 64.2181C403.88 64.5746 403.81 64.9853 403.81 65.4501C403.81 66.4023 404.056 67.1289 404.547 67.6343C405.039 68.1398 405.763 68.3925 406.725 68.3925C406.808 68.3925 406.9 68.3925 406.997 68.388C407.094 68.3835 407.186 68.379 407.269 68.3699V66.6776H405.592V65.0575H409.456V69.3041L409.447 69.3086Z" fill="white"/>
<path d="M415.08 68.1078V66.7495C414.808 66.772 414.514 66.8036 414.198 66.8442C413.882 66.8848 413.64 66.93 413.478 66.9841C413.276 67.0473 413.122 67.1466 413.017 67.2684C412.912 67.3948 412.859 67.5618 412.859 67.7649C412.859 67.9002 412.872 68.0086 412.894 68.0943C412.916 68.1801 412.973 68.2613 413.061 68.338C413.144 68.4147 413.25 68.4734 413.368 68.5095C413.487 68.5456 413.671 68.5636 413.926 68.5636C414.128 68.5636 414.33 68.5185 414.536 68.4373C414.742 68.3515 414.927 68.2387 415.08 68.1033V68.1078ZM415.08 69.1142C414.975 69.2 414.839 69.3038 414.676 69.4211C414.514 69.5384 414.365 69.6332 414.224 69.7009C414.027 69.7912 413.82 69.8634 413.61 69.9085C413.399 69.9536 413.162 69.9762 412.907 69.9762C412.31 69.9762 411.81 69.7866 411.406 69.403C411.002 69.0194 410.8 68.5321 410.8 67.9409C410.8 67.467 410.905 67.0789 411.107 66.7765C411.313 66.4742 411.603 66.235 411.981 66.0635C412.354 65.892 412.819 65.7656 413.372 65.6934C413.926 65.6212 414.496 65.5671 415.093 65.531V65.4949C415.093 65.1384 414.953 64.8901 414.668 64.7548C414.382 64.6194 413.965 64.5517 413.412 64.5517C413.078 64.5517 412.727 64.6149 412.35 64.7322C411.972 64.854 411.7 64.9488 411.537 65.012H411.353V63.4415C411.568 63.3828 411.915 63.3151 412.393 63.2384C412.872 63.1617 413.355 63.1211 413.833 63.1211C414.979 63.1211 415.809 63.3016 416.318 63.6672C416.828 64.0327 417.082 64.6013 417.082 65.3821V69.8002H415.08V69.1142Z" fill="white"/>
<path d="M425.543 66.4736C425.543 67.4935 425.271 68.3239 424.718 68.9647C424.169 69.6056 423.484 69.9305 422.663 69.9305C422.312 69.9305 422 69.8899 421.737 69.8132C421.469 69.7364 421.219 69.6236 420.977 69.4747L420.894 69.7996H418.954V60.8145H420.977V64.0006C421.289 63.7478 421.605 63.5402 421.93 63.3823C422.255 63.2243 422.628 63.1476 423.054 63.1476C423.853 63.1476 424.468 63.4455 424.898 64.0367C425.328 64.6278 425.543 65.4402 425.543 66.4826V66.4736ZM423.449 66.5142C423.449 65.9366 423.353 65.4943 423.164 65.1829C422.971 64.8715 422.633 64.7136 422.141 64.7136C421.952 64.7136 421.755 64.7452 421.553 64.8038C421.351 64.8625 421.157 64.9483 420.977 65.0611V68.3149C421.122 68.369 421.263 68.4051 421.39 68.4232C421.522 68.4412 421.68 68.4548 421.86 68.4548C422.395 68.4548 422.795 68.2923 423.054 67.9719C423.317 67.647 423.449 67.1641 423.449 66.5187V66.5142Z" fill="white"/>
<path d="M433.436 66.5581C433.436 67.6231 433.134 68.4625 432.528 69.0763C431.922 69.69 431.075 69.9969 429.977 69.9969C428.884 69.9969 428.032 69.69 427.426 69.0763C426.821 68.4625 426.518 67.6231 426.518 66.5581C426.518 65.484 426.821 64.6446 427.431 64.0309C428.041 63.4216 428.888 63.1147 429.973 63.1147C431.075 63.1147 431.926 63.4216 432.528 64.0354C433.129 64.6536 433.432 65.493 433.432 66.5581H433.436ZM430.947 68.1286C431.079 67.9616 431.176 67.7675 431.246 67.5329C431.312 67.3027 431.342 66.9778 431.342 66.5671C431.342 66.188 431.307 65.8676 431.241 65.6149C431.176 65.3577 431.079 65.1546 430.96 65.0011C430.842 64.8432 430.697 64.7349 430.526 64.6672C430.359 64.604 430.175 64.5679 429.981 64.5679C429.788 64.5679 429.613 64.595 429.459 64.6491C429.305 64.7033 429.16 64.8071 429.024 64.9695C428.901 65.1185 428.8 65.3261 428.726 65.5833C428.651 65.845 428.616 66.1745 428.616 66.5671C428.616 66.9191 428.647 67.226 428.713 67.4877C428.774 67.745 428.871 67.9526 428.994 68.1105C429.112 68.2594 429.257 68.3677 429.424 68.44C429.591 68.5076 429.779 68.5438 429.995 68.5438C430.179 68.5438 430.355 68.5122 430.521 68.449C430.688 68.3858 430.829 68.2775 430.943 68.1286H430.947Z" fill="white"/>
</svg>
