<svg width="320" height="828" viewBox="0 0 320 828" fill="none" xmlns="http://www.w3.org/2000/svg">
<path fill-rule="evenodd" clip-rule="evenodd" d="M0 0L13.3333 4.70725C26.6667 9.41451 53.3333 18.829 80 18.829C106.667 18.829 133.333 9.41451 160 16.4754C186.667 23.5363 213.333 47.0725 240 51.7798C266.667 56.4871 293.333 42.3653 306.667 35.3044L320 28.2435V84.7306H306.667C293.333 84.7306 266.667 84.7306 240 84.7306C213.333 84.7306 186.667 84.7306 160 84.7306C133.333 84.7306 106.667 84.7306 80 84.7306C53.3333 84.7306 26.6667 84.7306 13.3333 84.7306H0V0Z" fill="#FFBE4A"/>
<rect width="320" height="748.502" transform="matrix(1 0 0 -1 0 828)" fill="#FFBE4A"/>
</svg>
