<svg width="768" height="223" viewBox="0 0 768 223" fill="none" xmlns="http://www.w3.org/2000/svg">
<path fill-rule="evenodd" clip-rule="evenodd" d="M0 0.47998L32 7.65969C64 14.8394 128 29.1988 192 29.1988C256 29.1988 320 14.8394 384 25.609C448 36.3785 512 72.2771 576 79.4568C640 86.6365 704 65.0973 736 54.3278L768 43.5582V129.715H736C704 129.715 640 129.715 576 129.715C512 129.715 448 129.715 384 129.715C320 129.715 256 129.715 192 129.715C128 129.715 64 129.715 32 129.715H0V0.47998Z" fill="#FFBE4A"/>
<rect width="768" height="93.9889" transform="matrix(1 0 0 -1 0 222.636)" fill="#FFBE4A"/>
</svg>
