<svg width="465" height="73" viewBox="0 0 465 73" fill="none" xmlns="http://www.w3.org/2000/svg">
<path d="M442.519 4.51373H437.966V0.0947266H451.307V4.51373H446.786V29.2269H442.519V4.51373Z" fill="#0884BD"/>
<path d="M463.909 51.0079C463.942 53.0368 463.424 54.7712 462.37 56.2109C461.677 57.185 460.697 57.874 459.43 58.2779C458.751 58.4965 457.96 58.6057 457.059 58.6057C455.381 58.6057 453.999 58.1781 452.894 57.3228C451.974 56.6243 451.248 55.674 450.712 54.4766C450.176 53.2697 449.862 51.8965 449.774 50.3427L453.837 50.0433C454.022 51.7397 454.456 52.9656 455.15 53.7306C455.663 54.3103 456.254 54.5811 456.915 54.5479C457.849 54.5146 458.593 54.0442 459.148 53.1271C459.435 52.6757 459.578 52.0343 459.578 51.198C459.578 49.9863 459.042 48.7889 457.969 47.5915C457.124 46.7742 455.862 45.5388 454.174 43.8947C452.755 42.4883 451.752 41.2196 451.165 40.103C450.532 38.8485 450.218 37.4848 450.218 36.0118C450.218 33.3604 451.082 31.3505 452.82 29.9868C453.892 29.1647 455.219 28.7561 456.805 28.7561C458.325 28.7561 459.633 29.103 460.715 29.8015C461.561 30.3431 462.245 31.0986 462.763 32.0775C463.285 33.0468 463.595 34.1729 463.701 35.4416L459.596 36.2066C459.476 35.0235 459.139 34.0969 458.598 33.4317C458.205 32.9565 457.637 32.7189 456.892 32.7189C456.107 32.7189 455.51 33.0753 455.104 33.7881C454.771 34.363 454.604 35.0757 454.604 35.9263C454.604 37.2567 455.164 38.6157 456.282 39.9889C456.707 40.5163 457.345 41.1388 458.187 41.8468C459.185 42.7021 459.841 43.296 460.16 43.6382C461.214 44.7215 462.032 45.7954 462.606 46.8455C462.883 47.3444 463.1 47.8006 463.262 48.2187C463.669 49.2546 463.881 50.1811 463.9 51.0079H463.909Z" fill="#0884BD"/>
<path fill-rule="evenodd" clip-rule="evenodd" d="M312.27 58.2678V0.0605469H317.595V58.2678H312.27Z" fill="#0884BD"/>
<path d="M464.552 72.7904H462.421V69.4072C462.421 69.1316 462.407 68.856 462.379 68.5852C462.352 68.3096 462.301 68.11 462.236 67.9817C462.158 67.8344 462.042 67.7204 461.889 67.6539C461.737 67.5874 461.524 67.5493 461.256 67.5493C461.062 67.5493 460.868 67.5826 460.669 67.6491C460.47 67.7109 460.258 67.8154 460.022 67.958V72.7904H457.891V65.9671H460.022V66.7226C460.401 66.4185 460.762 66.1856 461.108 66.0241C461.455 65.8625 461.843 65.7817 462.269 65.7817C462.985 65.7817 463.544 65.9956 463.946 66.4232C464.349 66.8508 464.552 67.4923 464.552 68.3476V72.7856V72.7904Z" fill="#0884BD"/>
<path d="M188.133 45.8732H157.449V2.11084H168.46V37.3868H188.133V45.8732Z" fill="#2B5192"/>
<path d="M157.417 36.875H162.062V38.8659H157.417V36.875Z" fill="white"/>
<path d="M157.417 29.314H162.062V31.3049H157.417V29.314Z" fill="white"/>
<path d="M157.417 21.7561H162.062V23.747H157.417V21.7561Z" fill="white"/>
<path d="M157.417 14.1953H162.062V16.1862H157.417V14.1953Z" fill="white"/>
<path d="M157.417 6.63623H162.062V8.62716H157.417V6.63623Z" fill="white"/>
<path d="M157.417 33.1636H160.071V34.4909H157.417V33.1636Z" fill="white"/>
<path d="M157.417 25.6035H160.071V26.9308H157.417V25.6035Z" fill="white"/>
<path d="M157.417 18.0388H160.071V19.3661H157.417V18.0388Z" fill="white"/>
<path d="M157.417 10.478H160.071V11.8053H157.417V10.478Z" fill="white"/>
<path d="M298.676 28.9376C298.676 34.1263 297.28 38.36 294.478 41.6291C291.686 44.8982 288.192 46.5375 284.018 46.5375C282.22 46.5375 280.653 46.338 279.294 45.9436C277.939 45.5445 276.65 44.9695 275.43 44.2283L275 45.8723H265.122V0.123779H275.43V16.3363C277.01 15.0438 278.633 13.989 280.278 13.186C281.929 12.3829 283.833 11.9838 285.987 11.9838C290.055 11.9838 293.189 13.4901 295.384 16.4978C297.58 19.4961 298.676 23.649 298.676 28.9376ZM288.016 29.1466C288.016 26.2054 287.526 23.9484 286.56 22.3661C285.585 20.779 283.856 19.9903 281.36 19.9903C280.394 19.9903 279.4 20.1423 278.365 20.4417C277.339 20.7553 276.363 21.1829 275.425 21.7579V38.3125C276.169 38.5833 276.867 38.7734 277.533 38.8637C278.208 38.9635 279.007 39.0157 279.932 39.0157C282.654 39.0157 284.684 38.1937 286.01 36.5497C287.346 34.9056 288.012 32.4443 288.012 29.1561L288.016 29.1466Z" fill="#218449"/>
<path d="M23.773 15.4765C23.773 14.3932 23.5603 13.4618 23.1304 12.6873C22.6913 11.9033 21.9471 11.2951 20.8932 10.8532C20.1629 10.5444 19.3123 10.3495 18.337 10.283C17.3617 10.2117 16.22 10.1832 14.9211 10.1832H11.0059V21.8627H14.334C16.0628 21.8627 17.505 21.7724 18.6652 21.6014C19.8347 21.4208 20.81 21.0312 21.6051 20.4087C22.3585 19.8052 22.9039 19.1448 23.2552 18.413C23.5973 17.6813 23.773 16.7072 23.773 15.4813V15.4765ZM40.9914 45.8773H27.5633L15.9796 29.8074H11.0105V45.8773H0V2.11499H18.3971C20.9163 2.11499 23.0704 2.26704 24.8777 2.55689C26.6943 2.84674 28.3815 3.48821 29.9623 4.46229C31.5617 5.44587 32.8421 6.7098 33.7804 8.26358C34.728 9.81736 35.1949 11.775 35.1949 14.1223C35.1949 17.3534 34.4738 19.9811 33.0177 22.0195C31.5617 24.0579 29.4862 25.7495 26.7821 27.1037L40.9914 45.8726V45.8773Z" fill="#B7302E"/>
<path d="M76.8364 31.366H53.2946C53.4517 33.9556 54.4086 35.9418 56.1651 37.315C57.9308 38.6882 60.5286 39.3724 63.9631 39.3724C66.131 39.3724 68.2388 38.959 70.2772 38.1465C72.3157 37.334 73.9289 36.4502 75.1077 35.5189H76.2494V44.0385C73.9243 45.0031 71.7287 45.6921 69.6717 46.1245C67.6101 46.5569 65.3267 46.7755 62.8398 46.7755C56.387 46.7755 51.4503 45.2929 48.0158 42.3089C44.5906 39.3297 42.8711 35.0865 42.8711 29.5794C42.8711 24.134 44.4889 19.8195 47.7431 16.636C50.9926 13.4571 55.4532 11.8606 61.1157 11.8606C66.339 11.8606 70.2588 13.2148 72.8981 15.9327C75.5237 18.6507 76.841 22.5517 76.841 27.6597V31.3612L76.8364 31.366ZM66.5886 25.1651C66.5285 22.9461 66.0015 21.283 64.9892 20.1569C63.9862 19.045 62.4146 18.4796 60.2836 18.4796C58.3006 18.4796 56.6828 19.0118 55.4024 20.0666C54.1359 21.131 53.4194 22.8273 53.2669 25.1651H66.5886Z" fill="#94B7DC"/>
<path d="M115.311 42.072C115.311 45.1605 114.881 47.7596 114.021 49.8789C113.161 51.9933 111.964 53.6516 110.42 54.8443C108.867 56.056 107.004 56.9303 104.827 57.4719C102.641 58.0041 100.172 58.275 97.4311 58.275C95.1939 58.275 92.9982 58.1324 90.8349 57.8616C88.667 57.5812 86.795 57.2486 85.2141 56.859V48.5817H86.4714C87.7287 49.0948 89.2633 49.5652 91.0799 49.9881C92.8873 50.4205 94.5051 50.6296 95.9381 50.6296C97.8425 50.6296 99.391 50.4491 100.584 50.0879C101.776 49.7268 102.691 49.2136 103.315 48.5532C103.912 47.9212 104.342 47.1277 104.605 46.1441C104.869 45.17 105.003 43.9964 105.003 42.6326V42.0197C103.764 43.0508 102.386 43.8776 100.884 44.4763C99.3725 45.0892 97.6946 45.3886 95.8364 45.3886C91.3388 45.3886 87.8628 43.9964 85.4129 41.2167C82.9723 38.437 81.752 34.2128 81.752 28.5346C81.752 25.8167 82.1217 23.4694 82.866 21.4927C83.6194 19.516 84.6641 17.7912 86.0184 16.3277C87.2757 14.964 88.8288 13.8901 90.6732 13.1251C92.5083 12.3601 94.4034 11.98 96.3264 11.98C98.0644 11.98 99.6452 12.1891 101.069 12.6119C102.483 13.0348 103.782 13.6145 104.942 14.3558L105.312 12.8828H115.306V42.0672L115.311 42.072ZM105.003 35.4482V20.5091C104.416 20.2573 103.685 20.0577 102.835 19.9057C101.975 19.7536 101.203 19.6871 100.523 19.6871C97.8194 19.6871 95.7902 20.4806 94.445 22.0772C93.0907 23.6737 92.4158 25.8975 92.4158 28.7579C92.4158 31.9273 92.9936 34.1368 94.1446 35.3912C95.2956 36.6456 97.0058 37.2681 99.2662 37.2681C100.292 37.2681 101.305 37.097 102.289 36.7644C103.274 36.4318 104.184 35.9899 105.003 35.4482Z" fill="#E59930"/>
<path d="M147.239 57.9699H136.464C132.803 53.5557 130.089 49.0226 128.333 44.3565C126.567 39.7 125.689 34.5967 125.689 29.0469C125.689 23.497 126.567 18.3937 128.333 13.7372C130.089 9.07107 132.803 4.52853 136.464 0.123779H147.239V0.97907C145.695 2.41406 144.225 4.02961 142.82 5.84472C141.424 7.65984 140.125 9.77906 138.927 12.2071C137.777 14.5449 136.847 17.1251 136.136 19.9713C135.424 22.808 135.063 25.8395 135.063 29.0516C135.063 32.4015 135.414 35.4425 136.108 38.1604C136.801 40.8879 137.74 43.468 138.927 45.8961C140.069 48.2054 141.359 50.3103 142.792 52.1967C144.234 54.0926 145.718 55.7272 147.243 57.1241V57.9747L147.239 57.9699Z" fill="#F0B1A0"/>
<path d="M215.612 29.0475C215.612 34.5973 214.733 39.7006 212.968 44.3572C211.211 49.0232 208.498 53.5563 204.837 57.9705H194.062V57.12C195.583 55.723 197.076 54.0885 198.523 52.2116C199.965 50.3252 201.254 48.2202 202.378 45.8919C203.57 43.4639 204.504 40.8837 205.197 38.1563C205.891 35.4384 206.242 32.3973 206.242 29.0475C206.242 25.8354 205.881 22.8086 205.17 19.9671C204.458 17.1162 203.529 14.5408 202.378 12.203C201.176 9.77491 199.877 7.66044 198.486 5.84057C197.08 4.02546 195.606 2.40991 194.067 0.974919V0.119629H204.841C208.502 4.52437 211.216 9.06692 212.972 13.733C214.738 18.3896 215.616 23.4928 215.616 29.0427L215.612 29.0475Z" fill="#F0B1A0"/>
<path d="M245.448 37.2538V30.3402C244.061 30.459 242.568 30.6206 240.959 30.8296C239.351 31.0292 238.13 31.2715 237.298 31.5519C236.272 31.8845 235.491 32.3739 234.955 33.0059C234.419 33.6473 234.146 34.4884 234.146 35.5337C234.146 36.2275 234.206 36.7787 234.312 37.2206C234.428 37.653 234.714 38.0616 235.172 38.456C235.602 38.8456 236.129 39.1402 236.734 39.3303C237.34 39.5203 238.288 39.6106 239.573 39.6106C240.599 39.6106 241.63 39.3873 242.674 38.9596C243.728 38.5273 244.657 37.9571 245.448 37.2538ZM245.448 42.3713C244.902 42.8037 244.209 43.3264 243.4 43.9346C242.582 44.538 241.81 45.018 241.089 45.3696C240.086 45.84 239.041 46.1916 237.955 46.4244C236.873 46.6573 235.681 46.7761 234.382 46.7761C231.345 46.7761 228.798 45.802 226.75 43.8586C224.693 41.9104 223.667 39.4348 223.667 36.4033C223.667 33.9847 224.194 32.008 225.239 30.4828C226.283 28.948 227.767 27.7363 229.681 26.8525C231.585 25.9687 233.947 25.3368 236.758 24.9661C239.568 24.5955 242.485 24.3247 245.512 24.1441V23.9636C245.512 22.1484 244.791 20.8845 243.345 20.1908C241.902 19.497 239.771 19.1454 236.961 19.1454C235.274 19.1454 233.466 19.459 231.553 20.0672C229.63 20.6897 228.252 21.1601 227.416 21.4927H226.477V13.5053C227.559 13.2154 229.329 12.8638 231.765 12.4599C234.206 12.0608 236.656 11.8564 239.106 11.8564C244.944 11.8564 249.159 12.7783 251.743 14.6361C254.341 16.494 255.635 19.402 255.635 23.3744V45.8685H245.448V42.3666V42.3713Z" fill="#B68FC4"/>
<path d="M340.851 21.2157H336.585V0.0947266H340.851V21.2157Z" fill="#0884BD"/>
<path d="M349.169 0.0605469L354.841 19.6324V0.0605469H359.107V29.226H354.517L348.633 10.5569V29.226H344.367V0.0605469H349.169Z" fill="#0884BD"/>
<path d="M376.817 22.2518C376.849 24.2807 376.327 26.0103 375.278 27.4548C374.575 28.4242 373.604 29.1179 372.338 29.5218C371.658 29.7403 370.868 29.8496 369.967 29.8496C368.289 29.8496 366.907 29.4172 365.802 28.5667C364.887 27.8635 364.156 26.9179 363.62 25.7205C363.084 24.5136 362.769 23.1404 362.682 21.5866L366.745 21.2872C366.93 22.9836 367.369 24.2095 368.057 24.9745C368.575 25.5494 369.162 25.8203 369.823 25.7918C370.757 25.7537 371.497 25.2881 372.056 24.371C372.338 23.9149 372.486 23.2782 372.486 22.4419C372.486 21.2302 371.982 19.9995 370.877 18.8354C370.068 17.9849 368.765 16.7922 367.082 15.1386C365.658 13.7369 364.651 12.473 364.073 11.3469C363.43 10.0972 363.121 8.72871 363.121 7.25571C363.121 4.60431 363.981 2.58963 365.723 1.23067C366.791 0.399136 368.122 0 369.708 0C371.233 0 372.537 0.351619 373.618 1.04535C374.46 1.58704 375.144 2.34255 375.666 3.32138C376.184 4.29071 376.498 5.41684 376.604 6.68552L372.5 7.45053C372.379 6.26738 372.047 5.33606 371.501 4.67559C371.113 4.20043 370.54 3.96285 369.796 3.96285C369.01 3.96285 368.418 4.31922 368.007 5.03196C367.674 5.6069 367.507 6.31965 367.507 7.17018C367.507 8.50064 368.067 9.8596 369.185 11.2328C369.611 11.7602 370.253 12.378 371.09 13.0954C372.093 13.946 372.74 14.5494 373.064 14.8868C374.117 15.9749 374.936 17.044 375.509 18.0941C375.782 18.5931 376.003 19.0492 376.165 19.4674C376.572 20.5032 376.789 21.4298 376.803 22.2566L376.817 22.2518Z" fill="#0884BD"/>
<path d="M384.309 4.51373H379.756V0.0947266H393.096V4.51373H388.575V29.2269H384.309V4.51373Z" fill="#0884BD"/>
<path d="M400.8 21.2157H396.533V0.0947266H400.8V21.2157Z" fill="#0884BD"/>
<path d="M408.808 4.51373H404.25V0.0947266H417.595V4.51373H413.074V29.2269L408.849 33.375L408.808 4.51373Z" fill="#0884BD"/>
<path d="M427.768 29.5547C425.882 29.5547 424.288 28.88 422.975 27.5305C421.662 26.1811 421.01 24.5465 421.01 22.6269V0.0947266H425.18V22.5889C425.18 23.2874 425.42 23.8813 425.901 24.3707C426.386 24.8554 426.964 25.1025 427.643 25.1025C428.323 25.1025 428.896 24.8554 429.372 24.3707C429.844 23.8813 430.084 23.2874 430.084 22.5889V0.0947266H434.54V22.6269C434.54 24.5798 433.874 26.2239 432.548 27.5543C431.226 28.8895 429.631 29.5547 427.759 29.5547H427.768Z" fill="#0884BD"/>
<path d="M340.731 58.2496H336.46V29.0842H348.631V33.5032H340.731V41.4574H346.491V45.8764H340.731V58.2496Z" fill="#0884BD"/>
<path d="M358.321 29.1187C360.706 29.1187 362.453 29.7934 363.576 31.1428C364.556 32.3212 365.046 33.9653 365.046 36.0703V40.304C365.046 42.3662 364.284 44.1052 362.749 45.5355L365.915 58.2508H361.316L358.714 47.2793C358.593 47.2841 358.464 47.2841 358.325 47.2841H355.843V58.2508H351.577V29.1187H358.321ZM360.872 36.1415C360.872 34.45 360.054 33.6042 358.427 33.6042H355.843V42.9316H358.427C359.106 42.9316 359.684 42.6845 360.156 42.1903C360.632 41.6914 360.872 41.0927 360.872 40.3942V36.1368V36.1415Z" fill="#0884BD"/>
<path d="M374.326 51.5354L373.281 58.2447H369.343L373.642 29.1125H379.521L384.273 58.2447H379.785L378.786 51.5354H374.33H374.326ZM376.554 35.7933L374.973 47.2495H378.139L376.554 35.7933Z" fill="#0884BD"/>
<path d="M393.32 29.0842L398.992 48.6561V29.0842H403.258V58.2496H398.835L392.784 39.5805V58.2496H388.518V29.0842H393.32Z" fill="#0884BD"/>
<path d="M413.66 58.6074C411.774 58.6074 410.179 57.9327 408.862 56.5737C407.54 55.2195 406.883 53.5802 406.883 51.6605V35.7616C406.883 33.823 407.549 32.1789 408.876 30.8247C410.198 29.4657 411.792 28.791 413.664 28.791C415.55 28.791 417.145 29.4752 418.458 30.839C419.771 32.2027 420.422 33.8467 420.422 35.7711V39.0973H415.994V35.6761C415.994 34.9824 415.754 34.3837 415.273 33.8847C414.792 33.3858 414.21 33.1435 413.53 33.1435C412.851 33.1435 412.278 33.3906 411.802 33.8847C411.33 34.3837 411.09 34.9776 411.09 35.6761V51.6178C411.09 52.3163 411.33 52.9055 411.802 53.3949C412.278 53.8795 412.851 54.1266 413.53 54.1266C414.21 54.1266 414.788 53.8795 415.273 53.3949C415.758 52.9102 415.994 52.3163 415.994 51.6178V47.6027H420.422V51.6653C420.422 53.6039 419.757 55.2432 418.43 56.5927C417.108 57.9422 415.518 58.6121 413.664 58.6121L413.66 58.6074Z" fill="#0884BD"/>
<path d="M428.38 51.537L427.511 58.2463H422.875L427.696 29.1142L433.016 25.7595L438.323 58.2463L433.747 58.2558L432.836 51.537H428.38ZM430.608 35.7949L429.027 47.2511H432.194L430.608 35.7949Z" fill="#0884BD"/>
<path d="M446.826 58.2504H442.56V37.1248H446.826V58.2504Z" fill="#0884BD"/>
<path d="M431.104 72.273C430.711 72.4298 430.189 72.5866 429.537 72.7434C428.886 72.9002 428.238 72.9763 427.591 72.9763C426.094 72.9763 424.915 72.5581 424.069 71.7219C423.223 70.8856 422.798 69.7262 422.798 68.2484C422.798 66.8372 423.228 65.7063 424.083 64.8415C424.938 63.9815 426.131 63.5491 427.665 63.5491C428.243 63.5491 428.798 63.6013 429.32 63.7106C429.847 63.8152 430.429 64.0337 431.072 64.3521V66.4761H430.818C430.707 66.3905 430.545 66.2717 430.332 66.1149C430.12 65.9581 429.916 65.8251 429.718 65.7158C429.486 65.5875 429.223 65.4735 428.918 65.3832C428.613 65.2882 428.289 65.2454 427.947 65.2454C427.545 65.2454 427.18 65.3072 426.852 65.426C426.524 65.5495 426.232 65.7348 425.973 65.9866C425.724 66.229 425.53 66.5378 425.386 66.9132C425.243 67.2886 425.169 67.721 425.169 68.2104C425.169 69.213 425.428 69.978 425.946 70.5102C426.463 71.0424 427.226 71.3085 428.238 71.3085C428.326 71.3085 428.423 71.3085 428.525 71.3037C428.627 71.299 428.724 71.2942 428.812 71.2847V69.5028H427.046V67.797H431.114V72.2683L431.104 72.273Z" fill="#0884BD"/>
<path d="M437.038 71.0086V69.5784C436.751 69.6021 436.441 69.6354 436.109 69.6781C435.776 69.7209 435.521 69.7684 435.35 69.8254C435.138 69.892 434.976 69.9965 434.865 70.1248C434.754 70.2578 434.699 70.4336 434.699 70.6475C434.699 70.79 434.713 70.9041 434.736 70.9943C434.759 71.0846 434.819 71.1701 434.911 71.2509C434.999 71.3317 435.11 71.3935 435.235 71.4315C435.36 71.4695 435.554 71.4885 435.822 71.4885C436.035 71.4885 436.247 71.441 436.464 71.3555C436.682 71.2652 436.876 71.1464 437.038 71.0038V71.0086ZM437.038 72.0682C436.927 72.1585 436.783 72.2678 436.612 72.3913C436.441 72.5149 436.284 72.6146 436.136 72.6859C435.928 72.7809 435.711 72.857 435.489 72.9045C435.267 72.952 435.018 72.9758 434.75 72.9758C434.121 72.9758 433.594 72.7762 433.169 72.3723C432.743 71.9684 432.531 71.4552 432.531 70.8328C432.531 70.3339 432.642 69.9252 432.854 69.6069C433.072 69.2885 433.377 69.0367 433.774 68.8561C434.167 68.6756 434.657 68.5425 435.24 68.4665C435.822 68.3905 436.423 68.3334 437.052 68.2954V68.2574C437.052 67.882 436.904 67.6207 436.603 67.4781C436.303 67.3356 435.864 67.2643 435.281 67.2643C434.93 67.2643 434.56 67.3308 434.162 67.4544C433.765 67.5827 433.478 67.6825 433.307 67.749H433.113V66.0954C433.34 66.0337 433.705 65.9624 434.209 65.8816C434.713 65.8008 435.221 65.7581 435.725 65.7581C436.931 65.7581 437.805 65.9481 438.341 66.333C438.877 66.7179 439.145 67.3166 439.145 68.1386V72.7905H437.038V72.0682Z" fill="#0884BD"/>
<path d="M448.051 69.2879C448.051 70.3617 447.765 71.236 447.182 71.9108C446.605 72.5855 445.884 72.9276 445.019 72.9276C444.649 72.9276 444.321 72.8848 444.044 72.8041C443.762 72.7233 443.498 72.6045 443.244 72.4477L443.156 72.7898H441.113V63.3293H443.244V66.684C443.572 66.4179 443.905 66.1993 444.247 66.033C444.589 65.8667 444.982 65.7859 445.431 65.7859C446.272 65.7859 446.919 66.0995 447.372 66.722C447.825 67.3445 448.051 68.1997 448.051 69.2974V69.2879ZM445.847 69.3306C445.847 68.7224 445.745 68.2568 445.546 67.9289C445.343 67.6011 444.987 67.4347 444.469 67.4347C444.27 67.4347 444.062 67.468 443.85 67.5298C443.637 67.5915 443.434 67.6818 443.244 67.8006V71.2265C443.397 71.2835 443.545 71.3216 443.679 71.3406C443.817 71.3596 443.984 71.3738 444.173 71.3738C444.737 71.3738 445.158 71.2028 445.431 70.8654C445.708 70.5233 445.847 70.0149 445.847 69.3354V69.3306Z" fill="#0884BD"/>
<path d="M456.366 69.3769C456.366 70.4983 456.047 71.3821 455.409 72.0283C454.771 72.6746 453.879 72.9977 452.723 72.9977C451.573 72.9977 450.676 72.6746 450.038 72.0283C449.4 71.3821 449.081 70.4983 449.081 69.3769C449.081 68.2461 449.4 67.3623 450.043 66.716C450.685 66.0746 451.577 65.7515 452.719 65.7515C453.879 65.7515 454.776 66.0746 455.409 66.7208C456.042 67.3718 456.361 68.2556 456.361 69.3769H456.366ZM453.745 71.0305C453.884 70.8547 453.985 70.6504 454.059 70.4033C454.129 70.161 454.161 69.8188 454.161 69.3864C454.161 68.9873 454.124 68.6499 454.055 68.3839C453.985 68.113 453.884 67.8992 453.759 67.7376C453.634 67.5713 453.482 67.4573 453.301 67.386C453.126 67.3195 452.932 67.2815 452.728 67.2815C452.525 67.2815 452.34 67.31 452.178 67.367C452.016 67.424 451.864 67.5333 451.72 67.7044C451.591 67.8612 451.485 68.0798 451.406 68.3506C451.328 68.6262 451.291 68.9731 451.291 69.3864C451.291 69.7571 451.323 70.0802 451.392 70.3558C451.457 70.6266 451.559 70.8452 451.688 71.0115C451.813 71.1683 451.965 71.2823 452.141 71.3584C452.317 71.4296 452.516 71.4677 452.742 71.4677C452.936 71.4677 453.121 71.4344 453.297 71.3679C453.472 71.3013 453.62 71.1873 453.74 71.0305H453.745Z" fill="#0884BD"/>
</svg>
