<svg width="467" height="74" viewBox="0 0 467 74" fill="none" xmlns="http://www.w3.org/2000/svg">
<path d="M444.536 5.20061H439.962V0.761475H453.363V5.20061H448.822V30.0263H444.536V5.20061Z" fill="#0884BD"/>
<path d="M466.022 51.9066C466.054 53.9448 465.534 55.6871 464.476 57.1334C463.779 58.1119 462.795 58.804 461.522 59.2097C460.84 59.4293 460.046 59.5391 459.14 59.5391C457.455 59.5391 456.066 59.1095 454.957 58.2503C454.033 57.5486 453.304 56.594 452.765 55.3911C452.226 54.1787 451.91 52.7992 451.822 51.2384L455.904 50.9377C456.09 52.6417 456.526 53.8732 457.223 54.6417C457.738 55.2241 458.332 55.4961 458.996 55.4627C459.934 55.4293 460.682 54.9568 461.239 54.0355C461.527 53.5821 461.671 52.9377 461.671 52.0976C461.671 50.8804 461.132 49.6775 460.055 48.4747C459.205 47.6537 457.938 46.4126 456.243 44.7611C454.817 43.3482 453.81 42.0737 453.22 40.952C452.584 39.6919 452.268 38.3219 452.268 36.8422C452.268 34.1788 453.136 32.1597 454.882 30.7897C455.96 29.964 457.292 29.5535 458.885 29.5535C460.413 29.5535 461.727 29.9019 462.813 30.6036C463.663 31.1477 464.35 31.9067 464.87 32.89C465.395 33.8637 465.706 34.995 465.813 36.2694L461.69 37.0379C461.569 35.8494 461.23 34.9186 460.687 34.2504C460.292 33.773 459.721 33.5344 458.973 33.5344C458.184 33.5344 457.585 33.8924 457.176 34.6083C456.842 35.1859 456.675 35.9019 456.675 36.7563C456.675 38.0928 457.236 39.458 458.36 40.8375C458.787 41.3673 459.428 41.9926 460.273 42.7038C461.276 43.563 461.936 44.1596 462.256 44.5033C463.315 45.5916 464.137 46.6704 464.712 47.7253C464.991 48.2265 465.209 48.6847 465.372 49.1047C465.78 50.1453 465.994 51.0761 466.013 51.9066H466.022Z" fill="#0884BD"/>
<path fill-rule="evenodd" clip-rule="evenodd" d="M313.693 59.2002V0.727783H319.042V59.2002H313.693Z" fill="#0884BD"/>
<path d="M466.668 73.7884H464.528V70.3898C464.528 70.113 464.514 69.8361 464.486 69.564C464.458 69.2872 464.407 69.0867 464.342 68.9578C464.263 68.8099 464.147 68.6953 463.994 68.6285C463.84 68.5616 463.627 68.5235 463.357 68.5235C463.162 68.5235 462.967 68.5569 462.768 68.6237C462.568 68.6857 462.355 68.7908 462.118 68.934V73.7884H459.977V66.934H462.118V67.6929C462.498 67.3874 462.861 67.1535 463.209 66.9912C463.557 66.8289 463.947 66.7478 464.374 66.7478C465.094 66.7478 465.656 66.9626 466.06 67.3922C466.464 67.8218 466.668 68.4662 466.668 69.3254V73.7836V73.7884Z" fill="#0884BD"/>
<path d="M188.99 46.7488H158.167V2.78711H169.227V38.2238H188.99V46.7488Z" fill="#2B5192"/>
<path d="M158.133 37.7097H162.799V39.7097H158.133V37.7097Z" fill="white"/>
<path d="M118.601 22.7864H122.101V24.2864H118.601V22.7864Z" fill="white"/>
<path d="M158.133 22.5217H162.799V24.5217H158.133V22.5217Z" fill="white"/>
<path d="M158.133 14.9265H162.799V16.9265H158.133V14.9265Z" fill="white"/>
<path d="M158.133 7.33252H162.799V9.33252H158.133V7.33252Z" fill="white"/>
<path d="M118.601 25.6868H120.601V26.6868H118.601V25.6868Z" fill="white"/>
<path d="M158.133 26.3867H160.799V27.7201H158.133V26.3867Z" fill="white"/>
<path d="M158.133 18.7874H160.799V20.1207H158.133V18.7874Z" fill="white"/>
<path d="M158.133 11.1926H160.799V12.526H158.133V11.1926Z" fill="white"/>
<path d="M300.036 29.7356C300.036 34.948 298.634 39.201 295.82 42.485C293.015 45.769 289.505 47.4157 285.312 47.4157C283.506 47.4157 281.932 47.2153 280.566 46.8191C279.206 46.4181 277.91 45.8406 276.684 45.0959L276.253 46.7475H266.33V0.790527H276.684V17.0769C278.273 15.7786 279.902 14.7189 281.555 13.9122C283.213 13.1055 285.126 12.7046 287.29 12.7046C291.376 12.7046 294.525 14.2177 296.73 17.2392C298.936 20.2511 300.036 24.4229 300.036 29.7356ZM289.329 29.9456C289.329 26.991 288.836 24.7237 287.866 23.1342C286.886 21.5399 285.149 20.7475 282.642 20.7475C281.672 20.7475 280.673 20.9003 279.633 21.201C278.602 21.516 277.622 21.9456 276.68 22.5232V39.1532C277.427 39.4253 278.129 39.6162 278.797 39.7069C279.475 39.8072 280.278 39.8597 281.207 39.8597C283.942 39.8597 285.981 39.0339 287.313 37.3823C288.655 35.7308 289.324 33.2583 289.324 29.9552L289.329 29.9456Z" fill="#218449"/>
<path d="M23.8813 16.2142C23.8813 15.1259 23.6677 14.1903 23.2358 13.4123C22.7947 12.6247 22.0471 12.0137 20.9884 11.5698C20.2547 11.2595 19.4003 11.0638 18.4206 10.997C17.4408 10.9254 16.2939 10.8967 14.9891 10.8967H11.0561V22.6294H14.3993C16.136 22.6294 17.5847 22.5387 18.7503 22.3669C19.925 22.1855 20.9048 21.7941 21.7035 21.1688C22.4604 20.5626 23.0083 19.8991 23.3612 19.164C23.7048 18.4289 23.8813 17.4504 23.8813 16.2189V16.2142ZM41.1781 46.7535H27.6889L16.0524 30.6103H11.0607V46.7535H0V2.79175H18.4809C21.0116 2.79175 23.1755 2.94449 24.991 3.23566C26.8159 3.52683 28.5108 4.17122 30.0988 5.14974C31.7055 6.1378 32.9917 7.40749 33.9343 8.96835C34.8862 10.5292 35.3552 12.4958 35.3552 14.8538C35.3552 18.0996 34.6309 20.7392 33.1682 22.7869C31.7055 24.8347 29.6206 26.5339 26.9041 27.8943L41.1781 46.7487V46.7535Z" fill="#B7302E"/>
<path d="M77.186 32.1753H53.5369C53.6948 34.7767 54.656 36.7719 56.4205 38.1514C58.1943 39.5309 60.8039 40.2182 64.254 40.2182C66.4318 40.2182 68.5492 39.803 70.5969 38.9867C72.6447 38.1705 74.2653 37.2827 75.4493 36.3471H76.5963V44.9056C74.2606 45.8746 72.055 46.5667 69.9886 47.001C67.9177 47.4354 65.6238 47.655 63.1256 47.655C56.6434 47.655 51.6842 46.1657 48.2341 43.1681C44.7933 40.1753 43.0659 35.9128 43.0659 30.3805C43.0659 24.9104 44.6911 20.5763 47.9601 17.3782C51.2245 14.1849 55.7054 12.5811 61.3936 12.5811C66.6407 12.5811 70.5784 13.9414 73.2298 16.6717C75.8672 19.402 77.1906 23.3209 77.1906 28.4521V32.1705L77.186 32.1753ZM66.8915 25.9462C66.8311 23.7171 66.3017 22.0464 65.2848 20.9152C64.2772 19.7982 62.6984 19.2302 60.5578 19.2302C58.5658 19.2302 56.9405 19.7648 55.6543 20.8245C54.382 21.8937 53.6623 23.5977 53.509 25.9462H66.8915Z" fill="#94B7DC"/>
<path d="M115.836 42.9297C115.836 46.0324 115.404 48.6433 114.54 50.7722C113.677 52.8963 112.474 54.5622 110.923 55.7603C109.363 56.9775 107.492 57.8557 105.305 58.3999C103.108 58.9345 100.629 59.2066 97.8751 59.2066C95.6277 59.2066 93.422 59.0634 91.2489 58.7913C89.0711 58.5097 87.1905 58.1755 85.6025 57.7841V49.4691H86.8655C88.1285 49.9846 89.6701 50.4572 91.495 50.882C93.3106 51.3164 94.9358 51.5264 96.3753 51.5264C98.2884 51.5264 99.8439 51.345 101.042 50.9822C102.24 50.6195 103.159 50.104 103.786 49.4405C104.385 48.8056 104.817 48.0085 105.082 47.0204C105.346 46.0419 105.481 44.8629 105.481 43.493V42.8772C104.237 43.913 102.853 44.7436 101.344 45.345C99.8253 45.9608 98.1398 46.2615 96.2731 46.2615C91.755 46.2615 88.2632 44.8629 85.8021 42.0706C83.3504 39.2782 82.1245 35.0348 82.1245 29.3307C82.1245 26.6004 82.496 24.2424 83.2436 22.2568C84.0005 20.2711 85.0499 18.5384 86.4104 17.0682C87.6734 15.6983 89.2336 14.6195 91.0864 13.851C92.9298 13.0825 94.8336 12.7007 96.7653 12.7007C98.5112 12.7007 100.099 12.9107 101.529 13.3355C102.95 13.7603 104.255 14.3427 105.421 15.0873L105.792 13.6076H115.831V42.925L115.836 42.9297ZM105.481 36.2758V21.2687C104.891 21.0157 104.158 20.8152 103.303 20.6625C102.44 20.5097 101.664 20.4429 100.982 20.4429C98.2651 20.4429 96.2267 21.24 94.8754 22.8439C93.5149 24.4477 92.8369 26.6816 92.8369 29.5551C92.8369 32.7388 93.4174 34.9584 94.5736 36.2185C95.7298 37.4787 97.4479 38.104 99.7185 38.104C100.749 38.104 101.766 37.9321 102.755 37.598C103.744 37.2639 104.659 36.82 105.481 36.2758Z" fill="#E59930"/>
<path d="M147.909 58.9002H137.085C133.408 54.4658 130.682 49.9122 128.917 45.2248C127.143 40.547 126.261 35.4205 126.261 29.8454C126.261 24.2702 127.143 19.1437 128.917 14.4659C130.682 9.77858 133.408 5.21534 137.085 0.790527H147.909V1.64971C146.358 3.09124 144.881 4.71415 143.47 6.53753C142.068 8.36092 140.763 10.4898 139.56 12.9289C138.404 15.2774 137.471 17.8693 136.755 20.7284C136.04 23.5781 135.678 26.6234 135.678 29.8501C135.678 33.2153 136.031 36.2702 136.728 39.0005C137.424 41.7403 138.367 44.3322 139.56 46.7713C140.707 49.0912 142.003 51.2057 143.442 53.1007C144.891 55.0052 146.381 56.6472 147.914 58.0506V58.905L147.909 58.9002Z" fill="#F0B1A0"/>
<path d="M216.594 29.8462C216.594 35.4214 215.711 40.5479 213.938 45.2257C212.173 49.913 209.447 54.4667 205.77 58.9011H194.946V58.0467C196.473 56.6433 197.973 55.0013 199.427 53.1159C200.876 51.2209 202.171 49.1063 203.299 46.7674C204.497 44.3283 205.435 41.7364 206.132 38.9966C206.828 36.2663 207.181 33.2114 207.181 29.8462C207.181 26.6195 206.819 23.5789 206.104 20.7245C205.389 17.8606 204.456 15.2735 203.299 12.925C202.092 10.4859 200.787 8.36179 199.39 6.53363C197.978 4.71024 196.497 3.08733 194.95 1.64581V0.786621H205.774C209.452 5.21143 212.178 9.77467 213.942 14.462C215.716 19.1398 216.598 24.2663 216.598 29.8415L216.594 29.8462Z" fill="#F0B1A0"/>
<path d="M246.566 38.0902V31.1451C245.173 31.2645 243.673 31.4268 242.057 31.6368C240.441 31.8373 239.215 32.0807 238.38 32.3623C237.349 32.6964 236.564 33.1881 236.025 33.8229C235.487 34.4673 235.213 35.3122 235.213 36.3623C235.213 37.0592 235.273 37.6129 235.38 38.0568C235.496 38.4912 235.784 38.9017 236.244 39.2979C236.675 39.6893 237.205 39.9852 237.813 40.1761C238.421 40.3671 239.373 40.4578 240.664 40.4578C241.695 40.4578 242.73 40.2334 243.78 39.8038C244.839 39.3695 245.772 38.7967 246.566 38.0902ZM246.566 43.231C246.018 43.6654 245.322 44.1904 244.509 44.8014C243.687 45.4076 242.912 45.8897 242.187 46.243C241.18 46.7155 240.13 47.0687 239.039 47.3026C237.952 47.5365 236.754 47.6558 235.45 47.6558C232.399 47.6558 229.84 46.6773 227.783 44.7251C225.717 42.768 224.686 40.2812 224.686 37.2358C224.686 34.8062 225.215 32.8205 226.265 31.2883C227.314 29.7466 228.805 28.5294 230.727 27.6416C232.64 26.7537 235.013 26.1189 237.836 25.7466C240.659 25.3743 243.59 25.1022 246.631 24.9208V24.7394C246.631 22.916 245.907 21.6463 244.453 20.9494C243.004 20.2526 240.864 19.8993 238.041 19.8993C236.346 19.8993 234.53 20.2144 232.608 20.8253C230.676 21.4506 229.292 21.9232 228.452 22.2573H227.509V14.2335C228.596 13.9423 230.374 13.5891 232.821 13.1834C235.273 12.7824 237.734 12.5771 240.195 12.5771C246.06 12.5771 250.295 13.5032 252.89 15.3695C255.5 17.2358 256.8 20.1571 256.8 24.1475V46.7441H246.566V43.2263V43.231Z" fill="#B68FC4"/>
<path d="M342.405 21.9786H338.119V0.761475H342.405V21.9786Z" fill="#0884BD"/>
<path d="M350.76 0.727783L356.458 20.3888V0.727783H360.743V30.0261H356.133L350.221 11.2719V30.0261H345.936V0.727783H350.76Z" fill="#0884BD"/>
<path d="M378.534 23.0197C378.566 25.0579 378.041 26.7953 376.987 28.2464C376.282 29.2201 375.306 29.917 374.034 30.3228C373.352 30.5423 372.558 30.6521 371.652 30.6521C369.967 30.6521 368.578 30.2178 367.468 29.3633C366.549 28.6569 365.815 27.707 365.277 26.5042C364.738 25.2918 364.422 23.9123 364.334 22.3514L368.416 22.0507C368.601 23.7548 369.042 24.9863 369.734 25.7548C370.254 26.3323 370.844 26.6044 371.508 26.5758C372.446 26.5376 373.189 26.0698 373.751 25.1486C374.034 24.6903 374.183 24.0507 374.183 23.2106C374.183 21.9934 373.677 20.7572 372.567 19.5877C371.754 18.7333 370.445 17.5352 368.755 15.8741C367.324 14.466 366.312 13.1963 365.732 12.065C365.086 10.8097 364.775 9.43498 364.775 7.95527C364.775 5.29179 365.639 3.26793 367.389 1.90278C368.462 1.06746 369.799 0.666504 371.392 0.666504C372.924 0.666504 374.234 1.01973 375.32 1.71662C376.166 2.26077 376.853 3.01972 377.377 4.00301C377.898 4.97676 378.213 6.10802 378.32 7.38248L374.197 8.15098C374.076 6.96243 373.742 6.02688 373.194 5.36339C372.804 4.88607 372.228 4.6474 371.48 4.6474C370.691 4.6474 370.097 5.0054 369.683 5.72139C369.349 6.29895 369.182 7.01494 369.182 7.86935C369.182 9.20587 369.744 10.571 370.867 11.9505C371.295 12.4803 371.94 13.1008 372.78 13.8216C373.788 14.676 374.438 15.2822 374.763 15.6211C375.822 16.7142 376.644 17.7882 377.22 18.8431C377.494 19.3443 377.716 19.8025 377.879 20.2226C378.288 21.2631 378.506 22.1939 378.52 23.0245L378.534 23.0197Z" fill="#0884BD"/>
<path d="M386.059 5.20061H381.485V0.761475H394.886V5.20061H390.345V30.0263H386.059V5.20061Z" fill="#0884BD"/>
<path d="M402.626 21.9786H398.34V0.761475H402.626V21.9786Z" fill="#0884BD"/>
<path d="M410.671 5.20061H406.092V0.761475H419.498V5.20061H414.957V30.0263L410.713 34.1934L410.671 5.20061Z" fill="#0884BD"/>
<path d="M429.717 30.3557C427.823 30.3557 426.221 29.6779 424.902 28.3223C423.583 26.9667 422.929 25.3247 422.929 23.3963V0.761475H427.117V23.3581C427.117 24.0598 427.359 24.6564 427.841 25.1481C428.329 25.6349 428.909 25.8831 429.592 25.8831C430.275 25.8831 430.85 25.6349 431.329 25.1481C431.802 24.6564 432.044 24.0598 432.044 23.3581V0.761475H436.52V23.3963C436.52 25.3581 435.851 27.0096 434.519 28.3461C433.191 29.6874 431.589 30.3557 429.708 30.3557H429.717Z" fill="#0884BD"/>
<path d="M342.284 59.1816H337.993V29.8833H350.219V34.3224H342.284V42.3129H348.069V46.752H342.284V59.1816Z" fill="#0884BD"/>
<path d="M359.953 29.9177C362.349 29.9177 364.105 30.5955 365.233 31.9511C366.217 33.1349 366.71 34.7865 366.71 36.901V41.154C366.71 43.2256 365.944 44.9726 364.402 46.4093L367.583 59.1826H362.962L360.348 48.1611C360.227 48.1659 360.097 48.1659 359.958 48.1659H357.465V59.1826H353.179V29.9177H359.953ZM362.517 36.9726C362.517 35.2733 361.695 34.4237 360.06 34.4237H357.465V43.7936H360.06C360.743 43.7936 361.323 43.5454 361.797 43.049C362.275 42.5478 362.517 41.9463 362.517 41.2447V36.9678V36.9726Z" fill="#0884BD"/>
<path d="M376.031 52.4369L374.982 59.1767H371.026L375.344 29.9119H381.251L386.024 59.1767H381.515L380.512 52.4369H376.036H376.031ZM378.27 36.6231L376.682 48.1314H379.862L378.27 36.6231Z" fill="#0884BD"/>
<path d="M395.113 29.8833L400.81 49.5444V29.8833H405.096V59.1816H400.652L394.574 40.4274V59.1816H390.288V29.8833H395.113Z" fill="#0884BD"/>
<path d="M415.545 59.5411C413.65 59.5411 412.048 58.8633 410.725 57.4981C409.397 56.1377 408.737 54.491 408.737 52.5626V36.5912C408.737 34.6438 409.406 32.9922 410.739 31.6318C412.067 30.2667 413.669 29.5889 415.549 29.5889C417.444 29.5889 419.046 30.2762 420.365 31.6461C421.683 33.0161 422.338 34.6676 422.338 36.6008V39.9421H417.89V36.5053C417.89 35.8084 417.648 35.207 417.165 34.7058C416.682 34.2046 416.097 33.9612 415.415 33.9612C414.732 33.9612 414.156 34.2094 413.678 34.7058C413.204 35.207 412.963 35.8037 412.963 36.5053V52.5196C412.963 53.2213 413.204 53.8132 413.678 54.3048C414.156 54.7917 414.732 55.0399 415.415 55.0399C416.097 55.0399 416.678 54.7917 417.165 54.3048C417.653 53.8179 417.89 53.2213 417.89 52.5196V48.4862H422.338V52.5673C422.338 54.5148 421.669 56.1616 420.337 57.5172C419.009 58.8728 417.411 59.5459 415.549 59.5459L415.545 59.5411Z" fill="#0884BD"/>
<path d="M430.332 52.4384L429.459 59.1782H424.802L429.645 29.9134L434.989 26.5435L440.32 59.1782L435.723 59.1878L434.808 52.4384H430.332ZM432.57 36.6246L430.982 48.1329H434.163L432.57 36.6246Z" fill="#0884BD"/>
<path d="M448.861 59.1816H444.575V37.9597H448.861V59.1816Z" fill="#0884BD"/>
<path d="M433.068 73.2688C432.674 73.4264 432.149 73.5839 431.494 73.7414C430.84 73.8989 430.189 73.9753 429.539 73.9753C428.035 73.9753 426.851 73.5552 426.001 72.7151C425.151 71.875 424.724 70.7104 424.724 69.2259C424.724 67.8082 425.156 66.6722 426.015 65.8035C426.874 64.9395 428.072 64.5051 429.614 64.5051C430.194 64.5051 430.751 64.5576 431.276 64.6674C431.805 64.7724 432.391 64.992 433.036 65.3118V67.4455H432.781C432.669 67.3595 432.507 67.2402 432.293 67.0827C432.079 66.9252 431.875 66.7915 431.675 66.6817C431.443 66.5529 431.179 66.4383 430.872 66.3476C430.566 66.2521 430.241 66.2092 429.897 66.2092C429.493 66.2092 429.126 66.2712 428.796 66.3906C428.467 66.5147 428.174 66.7008 427.914 66.9538C427.663 67.1972 427.468 67.5075 427.324 67.8846C427.181 68.2617 427.106 68.6961 427.106 69.1877C427.106 70.1949 427.366 70.9634 427.886 71.498C428.406 72.0326 429.173 72.2999 430.189 72.2999C430.278 72.2999 430.375 72.2999 430.477 72.2951C430.58 72.2903 430.677 72.2855 430.765 72.276V70.486H428.991V68.7724H433.078V73.2641L433.068 73.2688Z" fill="#0884BD"/>
<path d="M439.029 71.9986V70.5618C438.741 70.5857 438.43 70.6191 438.096 70.6621C437.761 70.705 437.506 70.7528 437.334 70.81C437.12 70.8769 436.958 70.9819 436.846 71.1108C436.735 71.2444 436.679 71.421 436.679 71.6358C436.679 71.779 436.693 71.8936 436.716 71.9843C436.74 72.075 436.8 72.1609 436.893 72.242C436.981 72.3232 437.093 72.3852 437.218 72.4234C437.343 72.4616 437.538 72.4807 437.808 72.4807C438.021 72.4807 438.235 72.4329 438.453 72.347C438.671 72.2563 438.866 72.137 439.029 71.9938V71.9986ZM439.029 73.063C438.917 73.1537 438.773 73.2635 438.602 73.3876C438.43 73.5117 438.272 73.6119 438.123 73.6835C437.914 73.779 437.696 73.8554 437.473 73.9031C437.25 73.9508 437 73.9747 436.73 73.9747C436.099 73.9747 435.569 73.7742 435.142 73.3685C434.715 72.9628 434.501 72.4473 434.501 71.822C434.501 71.3208 434.613 70.9103 434.827 70.5905C435.045 70.2707 435.351 70.0177 435.751 69.8363C436.145 69.6549 436.637 69.5213 437.223 69.4449C437.808 69.3685 438.411 69.3112 439.043 69.273V69.2349C439.043 68.8578 438.894 68.5952 438.592 68.452C438.291 68.3088 437.849 68.2372 437.264 68.2372C436.911 68.2372 436.54 68.3041 436.141 68.4282C435.741 68.5571 435.453 68.6573 435.282 68.7241H435.087V67.063C435.314 67.001 435.681 66.9294 436.187 66.8482C436.693 66.7671 437.204 66.7241 437.71 66.7241C438.922 66.7241 439.8 66.9151 440.338 67.3017C440.877 67.6883 441.146 68.2897 441.146 69.1155V73.7886H439.029V73.063Z" fill="#0884BD"/>
<path d="M450.093 70.2699C450.093 71.3486 449.805 72.2269 449.22 72.9047C448.64 73.5825 447.916 73.9262 447.047 73.9262C446.676 73.9262 446.346 73.8832 446.067 73.8021C445.784 73.7209 445.52 73.6016 445.264 73.4441L445.176 73.7877H443.124V64.2842H445.264V67.6541C445.594 67.3868 445.928 67.1672 446.272 67.0002C446.615 66.8331 447.01 66.752 447.461 66.752C448.306 66.752 448.956 67.067 449.411 67.6923C449.866 68.3176 450.093 69.1768 450.093 70.2794V70.2699ZM447.878 70.3128C447.878 69.7018 447.776 69.2341 447.577 68.9047C447.372 68.5753 447.015 68.4083 446.495 68.4083C446.295 68.4083 446.086 68.4417 445.872 68.5037C445.659 68.5658 445.455 68.6565 445.264 68.7758V72.2173C445.417 72.2746 445.566 72.3128 445.701 72.3319C445.84 72.351 446.007 72.3653 446.197 72.3653C446.764 72.3653 447.187 72.1935 447.461 71.8546C447.739 71.5109 447.878 71.0002 447.878 70.3176V70.3128Z" fill="#0884BD"/>
<path d="M458.445 70.3603C458.445 71.4867 458.125 72.3746 457.484 73.0237C456.843 73.6729 455.947 73.9975 454.786 73.9975C453.63 73.9975 452.729 73.6729 452.088 73.0237C451.447 72.3746 451.127 71.4867 451.127 70.3603C451.127 69.2242 451.447 68.3364 452.093 67.6872C452.738 67.0428 453.634 66.7183 454.781 66.7183C455.947 66.7183 456.848 67.0428 457.484 67.692C458.12 68.3459 458.44 69.2338 458.44 70.3603H458.445ZM455.812 72.0214C455.952 71.8447 456.054 71.6395 456.128 71.3913C456.198 71.1478 456.23 70.8042 456.23 70.3698C456.23 69.9689 456.193 69.6299 456.123 69.3626C456.054 69.0906 455.951 68.8758 455.826 68.7135C455.701 68.5464 455.548 68.4319 455.366 68.3603C455.19 68.2934 454.995 68.2553 454.791 68.2553C454.586 68.2553 454.401 68.2839 454.238 68.3412C454.076 68.3984 453.922 68.5082 453.778 68.6801C453.648 68.8376 453.542 69.0572 453.463 69.3292C453.384 69.6061 453.347 69.9545 453.347 70.3698C453.347 70.7421 453.379 71.0667 453.449 71.3436C453.514 71.6156 453.616 71.8352 453.746 72.0023C453.871 72.1598 454.024 72.2743 454.201 72.3507C454.377 72.4223 454.577 72.4605 454.805 72.4605C455 72.4605 455.185 72.4271 455.362 72.3603C455.538 72.2934 455.687 72.1789 455.808 72.0214H455.812Z" fill="#0884BD"/>
</svg>
