<svg width="294" height="404" viewBox="0 0 294 404" fill="none" xmlns="http://www.w3.org/2000/svg">
<g clip-path="url(#clip0)">
<path fill-rule="evenodd" clip-rule="evenodd" d="M0 0.88121L0 80.9152C26.6027 79.0232 52.7217 72.3794 77.2138 68.2875C103.025 63.9756 127.473 61.5117 150.69 51.7879C162.255 46.948 172.104 43.6041 185.164 40.7002C198.179 37.7963 207.413 33.8364 218.626 30.3165C225.837 28.0725 229.795 27.8085 237.578 26.5326C249.362 24.5966 274.206 18.1288 279.966 3.91714C281.065 -1.53871 232.169 -0.438736 211.678 2.20119C187.934 5.28111 168.411 8.53704 144.006 9.32902C98.2761 10.825 103.773 7.65707 70.794 6.82108C44.4551 6.1611 25.6353 0.617226 0.0439714 0.925224L0 0.88121Z" fill="#1C5639"/>
<path fill-rule="evenodd" clip-rule="evenodd" d="M-0.000462174 110.655L-0.000462174 163.41C10.7725 162.31 22.2491 158.57 33.066 157.514C45.378 156.326 56.283 155.182 68.0233 152.85C78.7084 150.738 87.3268 147.394 99.3749 145.15C108.125 143.523 118.503 137.847 127.517 135.691C171.928 125.087 182.921 127.111 223.374 105.332C257.716 86.852 227.244 91.8679 209.699 93.3638C185.471 95.3878 182.437 107.795 120.613 99.7437C47.2688 90.1959 20.754 109.731 -0.0444336 110.655H-0.000462174Z" fill="#1C5639"/>
</g>
<defs>
<clipPath id="clip0">
<rect width="404" height="293.333" fill="white" transform="translate(0 404) rotate(-90)"/>
</clipPath>
</defs>
</svg>
