<svg width="80" height="80" viewBox="0 0 80 80" fill="none" xmlns="http://www.w3.org/2000/svg">
<g clip-path="url(#clip0_1_2086)">
<path d="M23.75 0.234375C18.6563 1.67188 17.0469 8.14062 20.9063 11.75C23.8594 14.5156 28.5156 14.0938 30.9688 10.8594C31.9219 9.59375 32.25 8.60938 32.25 6.875C32.25 5.84375 32.1563 5.15625 31.9688 4.60938C31.2969 2.76562 29.75 1.15625 27.9844 0.46875C26.8281 0.015625 24.9063 -0.078125 23.75 0.234375ZM26.7656 3.375C27.2656 3.54688 27.7188 3.875 28.1875 4.39062C31.0781 7.60938 27.0625 12.2031 23.4844 9.79688C21.0156 8.14062 21.5156 4.35938 24.3281 3.34375C25.125 3.0625 25.8906 3.07812 26.7656 3.375Z" fill="#FA7846"/>
<path d="M42.6094 0.155892C41.4531 0.452767 40.2344 1.15589 39.3594 2.01527C36.4375 4.95277 36.7656 9.70277 40.0781 12.2184C42.7812 14.2809 46.7031 13.9528 49.0469 11.484C51.8593 8.51527 51.4687 3.85902 48.2031 1.37464C47.7656 1.04652 47.0312 0.624642 46.5625 0.452767C45.5781 0.0777674 43.5312 -0.0784826 42.6094 0.155892ZM46.0625 3.70277C46.5 3.96839 46.9844 4.45277 47.2656 4.90589C47.6719 5.57777 47.7344 5.82777 47.7344 6.79652C47.7344 7.76527 47.6719 8.01527 47.2656 8.67152C46.9687 9.15589 46.5 9.62464 46.0312 9.92152C45.3594 10.3278 45.1094 10.3903 44.1562 10.3903C43.2344 10.3903 42.9219 10.3121 42.3437 9.96839C40.1562 8.68714 39.8437 5.84339 41.7187 4.17152C42.6406 3.34339 43.25 3.12464 44.4219 3.20277C45.0937 3.23402 45.5469 3.37464 46.0625 3.70277Z" fill="#FA7846"/>
<path d="M61.1719 0.21867C58.5 0.890545 56.5312 3.04679 56.0625 5.82804C55.5156 9.10929 57.75 12.4999 61.0156 13.3437C64.25 14.203 67.5 12.6562 68.9531 9.57804C69.4219 8.57804 69.4531 8.40617 69.4531 6.79679C69.4531 5.18742 69.4219 5.01554 68.9531 4.01554C67.5312 1.01554 64.3125 -0.56258 61.1719 0.21867ZM63.9531 3.34367C66.3437 4.20304 67.1875 7.20304 65.5781 9.15617C65 9.84367 63.75 10.4687 62.9062 10.4687C60.8281 10.4687 59.1719 8.84367 59.1719 6.79679C59.1719 4.31242 61.6406 2.53117 63.9531 3.34367Z" fill="#FA7846"/>
<path d="M13.9062 12.3594C13 12.7187 12.6719 13.9531 13.2812 14.7187C13.7656 15.3437 16.3125 16.7188 16.9687 16.7188C18.0625 16.7188 18.75 15.5469 18.2656 14.4844C18.0312 13.9844 14.9531 12.1562 14.4219 12.2031C14.3594 12.2031 14.125 12.2812 13.9062 12.3594Z" fill="#FAB9AF"/>
<path d="M23.4375 16.3592C22.4844 16.703 21.0781 18.1249 20.7031 19.1405C20.4219 19.8749 20.3906 20.5311 20.3437 28.5624L20.2969 37.203L19.6719 36.4061C18.9062 35.4374 18.0781 34.8124 16.5937 34.0936C15.0625 33.3592 13.8437 33.3436 12.5312 33.9999C11.0937 34.7342 10.1875 36.3749 10.3437 37.9686C10.3906 38.3749 11.1094 40.3436 12.0156 42.5624C14.2344 47.9842 14.6875 49.8436 14.6875 53.828C14.6875 57.2655 15.2969 58.5467 18.4687 61.8124C21.1875 64.6249 21.25 64.7655 21.25 67.6874V69.5311H20.4531C19.7812 69.5311 19.5937 69.6092 19.2031 69.9842L18.75 70.4374V74.5936C18.75 77.4686 18.8125 78.8592 18.9375 79.1405C19.3437 80.0311 18.7812 79.9999 33.9062 79.9999C48.8594 79.9999 48.4844 80.0155 48.9063 79.2342C49 79.0467 49.0625 77.2967 49.0625 74.703C49.0625 70.5311 49.0625 70.4842 48.7031 70.0624C48.4688 69.7967 48.1094 69.6092 47.7188 69.5467L47.1094 69.453L47.0625 67.578C47 64.8905 47.0625 64.6092 48.1563 62.9686C49.1875 61.3905 49.6875 60.078 49.6875 58.8749C49.6875 57.9374 49.5156 57.578 48.9063 57.2655C48.2344 56.9217 47.7188 56.9842 47.1875 57.453C46.7813 57.8124 46.6719 58.0624 46.5625 58.8905C46.4375 59.7342 46.2813 60.1092 45.5625 61.1717C44.0625 63.3749 44.0156 63.578 43.9375 66.7499L43.875 69.5311H34.125H24.375V67.5311C24.375 65.2811 24.1094 63.8905 23.4844 62.8124C23.25 62.4217 22.1094 61.1249 20.9375 59.9217C18 56.9061 17.9375 56.7655 17.7969 53.0624C17.625 48.5155 17.2812 47.1092 14.875 41.2655C13.4531 37.7967 13.3906 37.5936 13.6094 37.203C13.9062 36.6717 14.5937 36.6092 15.5156 37.0311C17.5937 38.0155 19.6094 41.953 20.375 46.578C20.6094 47.9374 22.125 48.453 23.0625 47.4842L23.5156 47.0155L23.5937 33.4842L23.6719 19.9686L24.1406 19.5936C24.8437 19.0311 25.7656 19.078 26.3906 19.703L26.8594 20.1717L26.9062 30.953L26.9531 41.7499L27.4844 42.2186C27.9375 42.6249 28.0937 42.6874 28.6562 42.6092C29.0781 42.5467 29.4219 42.3749 29.6406 42.1092C30 41.703 30 41.6561 30 36.7499C30 33.7967 30.0625 31.5624 30.1719 31.2186C30.3594 30.5311 30.9375 30.1561 31.8125 30.1561C32.25 30.1561 32.5 30.2811 32.9062 30.6874L33.4375 31.2186V36.7655C33.4375 42.2499 33.4375 42.2967 33.7969 42.8124C34.375 43.6717 35.2969 43.7967 36.1094 43.1405C36.4844 42.8436 36.4844 42.8124 36.5625 38.8749C36.625 35.5155 36.6875 34.8436 36.9219 34.4217C37.5 33.3436 38.5469 33.1249 39.4063 33.8905L39.9219 34.3436L40 39.3749L40.0781 44.4061L40.5156 44.7811C41.3281 45.4842 42.6094 45.1717 42.9531 44.1874C43.0469 43.9217 43.125 42.8905 43.125 41.9061C43.125 40.3749 43.1719 40.0311 43.4531 39.5311C44.0469 38.4686 45.1875 38.2342 46.0469 38.9686L46.4844 39.3436L46.5625 43.0936C46.6406 46.7967 46.6406 46.8592 47.0156 47.2499C47.7031 47.9842 48.7656 47.9374 49.4063 47.1249C49.6563 46.828 49.6875 46.3592 49.6875 43.0311C49.6875 38.6405 49.6094 38.2655 48.4219 36.9686C47.2188 35.6405 45.5313 35.0936 43.9688 35.5155L43.1719 35.7186L43.0781 34.7342C42.9531 33.4686 42.5469 32.5467 41.7344 31.7342C40.7188 30.7186 39.9688 30.4061 38.5156 30.3905C37.8281 30.3905 37.0938 30.453 36.875 30.5155C36.5156 30.6249 36.4531 30.578 36.2812 30.0936C35.9062 29.0624 34.9375 28.0311 33.8438 27.4999C32.875 27.0155 32.75 26.9999 31.4062 27.0624L30 27.1249V23.5155C30 19.1561 29.9219 18.7967 28.6094 17.4842C28.0156 16.8905 27.4844 16.5311 26.9687 16.3592C26.0156 16.0311 24.375 16.0311 23.4375 16.3592ZM45.9375 74.7655V76.8749H33.9062H21.875V74.7655V72.6561H33.9062H45.9375V74.7655Z" fill="#1E2533"/>
<path d="M42.1094 16.5313C38.8437 17.6563 36.9062 20.7969 37.4687 24.0626C38.0937 27.7344 41.5781 30.2969 45.1094 29.7188C48.7344 29.1094 51.1406 26.0938 50.8906 22.4688C50.75 20.4532 49.5 18.3282 47.7812 17.2501C46.25 16.2813 43.75 15.9688 42.1094 16.5313ZM45.3281 19.5469C47.7031 20.2657 48.5937 23.4844 46.9219 25.3282C46.1094 26.2344 45.2812 26.6094 44.1406 26.6094C42.7344 26.6094 41.5625 25.9063 40.9219 24.6563C39.4375 21.7657 42.1719 18.6094 45.3281 19.5469Z" fill="#FA7846"/>
<path d="M60.8593 16.4686C59.7343 16.828 58.8593 17.3749 57.9687 18.2655C55.3437 20.8905 55.3125 24.9374 57.9062 27.6561C60.5781 30.453 64.7812 30.5155 67.5468 27.7811C68.8281 26.5155 69.4218 25.203 69.5 23.4218C69.6562 20.1718 67.8437 17.4843 64.8593 16.5468C63.7343 16.203 61.8281 16.1561 60.8593 16.4686ZM64.7187 19.9374C65.7968 20.6874 66.2968 21.5468 66.375 22.7343C66.4375 23.5936 66.375 23.8749 66.0156 24.6093C65.25 26.203 63.4843 26.9843 61.7968 26.4999C58.5781 25.5624 58.1562 21.2811 61.1406 19.7655C61.8281 19.4218 62.1093 19.3593 63 19.4061C63.8593 19.453 64.1718 19.5468 64.7187 19.9374Z" fill="#FA7846"/>
<path d="M14.4531 20.0155C12.8281 20.3592 12.3281 20.6717 12.125 21.4374C11.9375 22.1717 12.2656 22.8124 12.9843 23.1561C13.5156 23.4217 13.5937 23.4217 15.2343 23.0936C17.3281 22.6717 17.8906 22.2967 17.8906 21.2499C17.8906 20.703 17.7968 20.5155 17.375 20.1405C16.7812 19.6092 16.4531 19.5936 14.4531 20.0155Z" fill="#FAB9AF"/>
<path d="M61.0938 32.625C59.75 32.9844 58.8438 33.5313 57.8438 34.5938C55.2969 37.2813 55.375 41.3282 57.9844 43.9532C59.75 45.7188 62.2031 46.3594 64.6406 45.7032C69.3594 44.4219 71.125 38.4375 67.875 34.7032C66.25 32.8282 63.4531 31.9844 61.0938 32.625ZM63.5781 35.6407C64.625 35.875 65.5313 36.5938 66 37.5313C67.5938 40.7188 64.3125 44 61.125 42.4063C58.2344 40.9688 58.5313 36.8282 61.5938 35.7657C62.5625 35.4375 62.6719 35.4219 63.5781 35.6407Z" fill="#FA7846"/>
<path d="M47.6562 50.8904C46.7812 51.2029 46.3594 52.2811 46.7812 53.0936C47.2812 54.0467 48.4687 54.2186 49.2344 53.4529C50.375 52.2967 49.1719 50.3436 47.6562 50.8904Z" fill="black"/>
</g>
<defs>
<clipPath id="clip0_1_2086">
<rect width="80" height="80" fill="white"/>
</clipPath>
</defs>
</svg>
