<svg width="52" height="53" viewBox="0 0 52 53" fill="none" xmlns="http://www.w3.org/2000/svg">
<path fill-rule="evenodd" clip-rule="evenodd" d="M26 50.606C39.2548 50.606 50 39.8608 50 26.606C50 13.3511 39.2548 2.60596 26 2.60596C12.7452 2.60596 2 13.3511 2 26.606C2 39.8608 12.7452 50.606 26 50.606ZM26 52.606C40.3594 52.606 52 40.9654 52 26.606C52 12.2466 40.3594 0.605957 26 0.605957C11.6406 0.605957 0 12.2466 0 26.606C0 40.9654 11.6406 52.606 26 52.606Z" fill="url(#paint0_linear_27_170)"/>
<path d="M22.1769 28.8979C20.4531 29.0088 18.8886 29.6653 18.0009 32.0045C17.8999 32.2713 17.6571 32.4333 17.374 32.4333C16.8966 32.4333 15.4207 31.2444 15 30.9573C15.0004 34.4958 16.6302 37.6058 20.5003 37.6058C23.7599 37.6058 26.0002 35.7251 26.0002 32.4415C26.0002 32.3078 25.9723 32.1802 25.9585 32.0492L22.1769 28.8979ZM34.675 15.6062C34.0236 15.6062 33.413 15.8945 32.9473 16.313C24.1642 24.159 23.2503 24.3433 23.2503 26.6528C23.2503 27.2415 23.3899 27.8026 23.6254 28.3157L26.3676 30.6007C26.6774 30.6781 26.9966 30.7309 27.3296 30.7309C29.9984 30.7309 31.5452 28.7772 36.4027 19.7114C36.7199 19.0948 37 18.4288 37 17.7353C37 16.4931 35.8828 15.6062 34.675 15.6062Z" fill="black"/>
<path d="M22.1769 28.8979C20.4531 29.0088 18.8886 29.6653 18.0009 32.0045C17.8999 32.2713 17.6571 32.4333 17.374 32.4333C16.8966 32.4333 15.4207 31.2444 15 30.9573C15.0004 34.4958 16.6302 37.6058 20.5003 37.6058C23.7599 37.6058 26.0002 35.7251 26.0002 32.4415C26.0002 32.3078 25.9723 32.1802 25.9585 32.0492L22.1769 28.8979ZM34.675 15.6062C34.0236 15.6062 33.413 15.8945 32.9473 16.313C24.1642 24.159 23.2503 24.3433 23.2503 26.6528C23.2503 27.2415 23.3899 27.8026 23.6254 28.3157L26.3676 30.6007C26.6774 30.6781 26.9966 30.7309 27.3296 30.7309C29.9984 30.7309 31.5452 28.7772 36.4027 19.7114C36.7199 19.0948 37 18.4288 37 17.7353C37 16.4931 35.8828 15.6062 34.675 15.6062Z" fill="url(#paint1_linear_27_170)"/>
<defs>
<linearGradient id="paint0_linear_27_170" x1="26" y1="0.605957" x2="26" y2="52.606" gradientUnits="userSpaceOnUse">
<stop stop-color="#FC8C5F"/>
<stop offset="1" stop-color="#FC8C5F"/>
</linearGradient>
<linearGradient id="paint1_linear_27_170" x1="15" y1="26.606" x2="37" y2="26.606" gradientUnits="userSpaceOnUse">
<stop stop-color="#FC8C5F"/>
<stop offset="1" stop-color="#FC8C5F"/>
</linearGradient>
</defs>
</svg>
