<svg width="30" height="30" viewBox="0 0 30 30" fill="none" xmlns="http://www.w3.org/2000/svg">
<path d="M1.875 3.35748C1.58789 3.45123 1.0957 3.95514 1.00781 4.25396C0.908203 4.60553 0.908203 21.6446 1.00781 21.9962C1.10156 22.3184 1.58789 22.8047 1.91016 22.8985C2.09766 22.9512 3.95508 22.9688 9.75 22.9688H17.3438L17.5547 23.3965C17.8477 23.9825 18.1934 24.4454 18.7031 24.9493C19.2422 25.4766 19.5762 25.7227 20.2149 26.0391C21.9844 26.9297 23.9238 26.9356 25.6875 26.0684C28.043 24.9024 29.4082 22.2598 28.9805 19.6993C28.8574 18.9844 28.6934 18.4747 28.3711 17.8419C28.0664 17.2325 27.8145 16.8868 27.293 16.3594C26.7891 15.8497 26.3262 15.504 25.7402 15.211L25.3125 15.0001V9.75006C25.3125 5.85943 25.2949 4.4356 25.2422 4.26568C25.207 4.13678 25.0606 3.9024 24.9199 3.75006C24.4629 3.24029 25.541 3.28131 13.1016 3.28717C5.24414 3.29303 2.02148 3.3106 1.875 3.35748ZM24.2285 4.36529L24.375 4.50592V9.60943V14.7071L24.2285 14.6719C24.1465 14.6544 23.9414 14.6192 23.7715 14.5958L23.4668 14.5606L23.4375 9.97271L23.4082 5.37896L23.2676 5.26764C23.1328 5.15631 22.8867 5.15631 13.1133 5.15631H3.09961L2.95899 5.30279L2.8125 5.44342V13.1133C2.8125 20.584 2.81836 20.7891 2.92383 20.9239L3.03516 21.0645L9.97266 21.0938L16.9043 21.1231L16.9395 21.4278C16.9629 21.5977 16.9981 21.8028 17.0156 21.8848L17.0508 22.0313H9.60938H2.16211L2.02148 21.8848L1.875 21.7442V13.1251V4.50592L2.02148 4.36529L2.16211 4.21881H13.125H24.0879L24.2285 4.36529ZM22.5 10.3126C22.5 13.6407 22.4824 14.5372 22.4297 14.5547C22.3887 14.5723 22.2305 14.5958 22.0781 14.6133L21.8027 14.6485L19.8574 12.2872C18.791 10.9922 17.8184 9.84381 17.7012 9.73834C17.4375 9.4981 16.9512 9.35162 16.5938 9.39849C16.002 9.48053 15.9492 9.53326 13.4707 12.5391C12.1992 14.086 11.1445 15.3399 11.127 15.334C11.1035 15.3282 10.541 14.6485 9.87891 13.8282C9.21094 13.0079 8.57227 12.2637 8.44922 12.1758C7.95703 11.8184 7.24219 11.8301 6.75586 12.2051C6.6211 12.3106 5.88867 13.1133 5.13281 13.9922L3.75 15.5919V10.8458V6.09381H13.125H22.5V10.3126ZM17.1211 10.4766C17.1738 10.5294 18.0352 11.5489 19.0371 12.7442L20.8477 14.9063L20.3848 15.129C19.1133 15.7266 18.0586 16.7813 17.4551 18.0704C17.209 18.6036 17.0098 19.2598 16.9453 19.7813L16.9043 20.127L15.9609 20.1446L15.0176 20.1563L13.3945 18.1641C12.5039 17.0684 11.7773 16.1426 11.7773 16.1133C11.7773 16.0137 16.2832 10.5821 16.4824 10.4415C16.6934 10.2891 16.9512 10.3008 17.1211 10.4766ZM7.82227 12.8672C7.89844 12.8965 13.5762 19.8282 13.7344 20.0801C13.7695 20.1387 12.7559 20.1563 8.76563 20.1563H3.75V18.586V17.0215L5.50196 15.0001C6.46875 13.8868 7.31836 12.9434 7.39453 12.9083C7.54688 12.8262 7.67578 12.8145 7.82227 12.8672ZM24.2285 15.6329C26.1328 16.1544 27.4746 17.5079 27.9844 19.4297C28.1426 20.0333 28.1367 21.2579 27.9668 21.8848C27.6211 23.1563 26.8477 24.2462 25.8047 24.92C22.4649 27.0821 18.0879 24.8848 17.8301 20.9239C17.7363 19.4708 18.2813 18.0528 19.3359 16.9922C20.1094 16.2247 20.9883 15.7559 22.0606 15.5508C22.6113 15.4454 23.6895 15.4864 24.2285 15.6329Z" fill="#1E2533"/>
<path d="M10.8399 6.87305C10.3008 7.02539 9.8848 7.38867 9.63285 7.93359C9.46292 8.29688 9.44535 8.91797 9.58597 9.33398C9.70316 9.69141 10.1309 10.1602 10.5118 10.3594C10.7696 10.4941 10.8809 10.5176 11.3379 10.5176C11.795 10.5176 11.9063 10.4941 12.1641 10.3594C12.5567 10.1543 12.9727 9.68555 13.0957 9.31641C13.4883 8.13281 12.6973 6.91406 11.4844 6.82617C11.2618 6.80859 10.9922 6.83203 10.8399 6.87305ZM11.836 7.86328C12.1289 8.0625 12.2578 8.2793 12.293 8.60156C12.3926 9.65039 10.9453 10.0547 10.4825 9.10547C10.166 8.44922 10.6114 7.73438 11.3379 7.73438C11.5606 7.73438 11.6953 7.76953 11.836 7.86328Z" fill="#1E2533"/>
<path d="M22.7519 16.4824C22.6816 16.5234 22.0722 17.332 21.3925 18.2812C20.0683 20.1328 20.0273 20.209 20.3027 20.4785C20.4316 20.6133 20.4902 20.625 21.0058 20.625H21.5625V22.5879V24.5566L21.709 24.6973C21.8496 24.8438 21.8613 24.8438 22.9687 24.8438C24.0761 24.8438 24.0879 24.8438 24.2285 24.6973L24.375 24.5566V22.5879V20.625H24.9257C25.4238 20.625 25.4824 20.6133 25.6289 20.4785C25.9101 20.2148 25.8808 20.1445 24.5449 18.2812C23.3789 16.6465 23.1797 16.4121 22.9687 16.4121C22.9218 16.4121 22.8222 16.4414 22.7519 16.4824ZM23.6894 18.6797L24.3808 19.6582L24.0234 19.6875C23.414 19.7402 23.4375 19.6465 23.4375 21.9492V23.9062H22.9687H22.5V21.9492C22.5 19.6465 22.5234 19.7402 21.914 19.6875L21.5566 19.6582L22.248 18.6797C22.6289 18.1406 22.9511 17.7012 22.9687 17.7012C22.9863 17.7012 23.3086 18.1406 23.6894 18.6797Z" fill="#1E2533"/>
</svg>
