<svg width="30" height="30" viewBox="0 0 30 30" fill="none" xmlns="http://www.w3.org/2000/svg">
<path d="M4.18942 0.861351C2.95895 1.03713 1.84567 1.80471 1.30075 2.84768C0.849573 3.72073 0.873011 3.28127 0.890589 10.916L0.908167 17.7246L1.06051 18.1172C1.3945 18.9785 1.96286 19.6699 2.70114 20.1035C3.22262 20.4141 3.72067 20.5723 4.3359 20.6192L4.83395 20.6543L4.86325 22.4239L4.89254 24.1875L5.06833 24.4395C5.38473 24.8848 5.97653 25.0781 6.49215 24.8965C6.59176 24.8614 7.91012 23.8887 9.41598 22.7344L12.1582 20.6309L14.2734 20.625H16.3886L19.7519 23.8887C21.6035 25.6817 23.4609 27.4805 23.8828 27.8906C24.498 28.4942 24.7265 28.6758 25.084 28.8457C27.2285 29.8946 29.6191 28.0196 29.0332 25.752C28.8457 25.0371 28.8633 25.0606 25.3711 21.6446L24.3457 20.6367L24.7558 20.543C26.0976 20.2383 27.2226 19.1778 27.5801 17.8653C27.6797 17.5196 27.6855 17.0039 27.6855 10.6934V3.89651L27.5039 3.39846C27.0937 2.24416 26.2324 1.41213 25.0488 1.00784L24.5801 0.849632L14.4726 0.843773C8.91208 0.837914 4.28903 0.849632 4.18942 0.861351ZM24.4511 2.0801C25.2011 2.2383 25.8222 2.68948 26.209 3.35159C26.5429 3.91409 26.5429 3.86135 26.5429 10.7285C26.5429 15.0293 26.5254 17.1387 26.4785 17.3731C26.3613 18.0176 26.0097 18.5625 25.4707 18.9668C24.9844 19.3184 24.5156 19.4531 23.7363 19.4531H23.1094L21.041 17.4434C19.8984 16.3418 18.9199 15.4043 18.8613 15.3633C18.8027 15.3223 17.8945 15.0645 16.8457 14.7949L14.9355 14.2969H11.0273C8.60153 14.2969 7.03708 14.3203 6.90817 14.3555C6.60348 14.4434 6.47458 14.6074 6.47458 14.9239C6.47458 15.1406 6.50387 15.211 6.63864 15.3281L6.8027 15.4688H10.3418H13.8808L13.9453 15.7149C14.2617 16.8985 14.8476 18.9785 14.8945 19.0723C14.9297 19.1367 15.0117 19.2481 15.0761 19.3184L15.1933 19.4531H13.6113C12.7383 19.4531 11.9472 19.4707 11.8535 19.4883C11.748 19.5117 10.582 20.3672 8.90036 21.6563C7.37106 22.8281 6.10544 23.7891 6.082 23.7891C6.0527 23.7891 6.03512 22.9336 6.03512 21.8848C6.03512 19.834 6.01754 19.7227 5.72458 19.5586C5.65426 19.5176 5.24411 19.4766 4.77536 19.4531C4.01364 19.4239 3.92575 19.4063 3.55661 19.2364C3.01168 18.9785 2.56637 18.5449 2.29684 17.9942L2.08004 17.5547L2.06246 10.875C2.05075 4.31252 2.05075 4.18362 2.16793 3.80276C2.41989 2.95901 3.18747 2.27346 4.10153 2.07424C4.34762 2.02151 6.79098 2.00393 14.2383 1.99807C22.5527 1.99221 24.1113 2.00979 24.4511 2.0801ZM16.7461 15.9727L18.2461 16.3653L21.9843 19.9981C24.041 21.9903 25.7226 23.6309 25.7226 23.6426C25.7226 23.6485 25.2129 24.1465 24.5859 24.75L23.4433 25.8457L20.2031 22.6992C18.4218 20.9707 16.7343 19.3301 16.4531 19.0489L15.9375 18.5449L15.6797 17.6074C15.1582 15.7207 15.123 15.586 15.1875 15.586C15.2226 15.586 15.9258 15.7617 16.7461 15.9727ZM27.1699 25.0313C27.7851 25.6582 27.8965 25.8457 27.9375 26.3379C27.9726 26.7949 27.8027 27.2051 27.4511 27.5332C27.0996 27.8614 26.8242 27.9668 26.3379 27.9727C25.7812 27.9785 25.4883 27.8262 24.8203 27.1817L24.2871 26.6719L25.4004 25.5821C26.0156 24.9844 26.5429 24.4981 26.5722 24.4981C26.6074 24.4922 26.8711 24.7383 27.1699 25.0313Z" fill="#1E2533"/>
<path d="M6.64453 6.35153C6.375 6.62106 6.375 6.85544 6.64453 7.12497L6.84375 7.32419H14.2324C22.2715 7.32419 21.8672 7.34176 22.0195 7.00192C22.1543 6.70309 22.0606 6.37497 21.791 6.23434C21.6504 6.16403 20.5195 6.15231 14.2324 6.15231H6.84375L6.64453 6.35153Z" fill="#1E2533"/>
<path d="M6.85544 10.2012C6.63278 10.2949 6.50973 10.4297 6.46872 10.6348C6.4277 10.8516 6.55661 11.1562 6.73239 11.25C6.80856 11.291 9.2988 11.3086 14.291 11.3086H21.7265L21.9082 11.1562C22.0547 11.0332 22.0898 10.9629 22.0898 10.7695C22.0898 10.6465 22.0605 10.4883 22.0254 10.418C21.8672 10.1309 22.0898 10.1367 14.2851 10.1426C9.62692 10.1426 6.94919 10.166 6.85544 10.2012Z" fill="#1E2533"/>
</svg>
