<svg width="172" height="142" viewBox="0 0 172 142" fill="none" xmlns="http://www.w3.org/2000/svg">
<rect width="21.7722" height="21.0371" fill="#FC8C5F"/>
<rect y="24.1926" width="21.7722" height="21.0371" fill="#FC8C5F"/>
<rect y="48.3853" width="21.7722" height="21.0371" fill="#FC8C5F"/>
<rect y="72.5779" width="21.7722" height="21.0371" fill="#FC8C5F"/>
<rect y="96.7705" width="21.7722" height="21.0371" fill="#FC8C5F"/>
<rect y="120.963" width="21.7722" height="21.0371" fill="#FC8C5F"/>
<rect x="25.0379" width="21.7722" height="21.0371" fill="#FC8C5F"/>
<rect x="25.0379" y="24.1926" width="21.7722" height="21.0371" fill="#FC8C5F"/>
<rect x="25.0379" y="48.3853" width="21.7722" height="21.0371" fill="#FC8C5F"/>
<rect x="25.0379" y="72.5779" width="21.7722" height="21.0371" fill="#FC8C5F"/>
<rect x="25.0379" y="96.7705" width="21.7722" height="21.0371" fill="#FC8C5F"/>
<rect x="25.0379" y="120.963" width="21.7722" height="21.0371" fill="#FC8C5F"/>
<rect x="50.076" width="21.7722" height="21.0371" fill="#FC8C5F"/>
<rect x="50.076" y="24.1926" width="21.7722" height="21.0371" fill="#FC8C5F"/>
<rect x="50.076" y="48.3853" width="21.7722" height="21.0371" fill="#FC8C5F"/>
<rect x="50.076" y="72.5779" width="21.7722" height="21.0371" fill="#FC8C5F"/>
<rect x="50.076" y="96.7705" width="21.7722" height="21.0371" fill="#FC8C5F"/>
<rect x="50.076" y="120.963" width="21.7722" height="21.0371" fill="#FC8C5F"/>
<rect x="75.1139" width="21.7722" height="21.0371" fill="#FC8C5F"/>
<rect x="75.1139" y="24.1926" width="21.7722" height="21.0371" fill="#FC8C5F"/>
<rect x="75.1139" y="48.3853" width="21.7722" height="21.0371" fill="#FC8C5F"/>
<rect x="75.1139" y="72.5779" width="21.7722" height="21.0371" fill="#FC8C5F"/>
<rect x="75.1139" y="96.7705" width="21.7722" height="21.0371" fill="#FC8C5F"/>
<rect x="75.1139" y="120.963" width="21.7722" height="21.0371" fill="#FC8C5F"/>
<rect x="100.152" width="21.7722" height="21.0371" fill="#FC8C5F"/>
<rect x="100.152" y="24.1926" width="21.7722" height="21.0371" fill="#FC8C5F"/>
<rect x="100.152" y="48.3853" width="21.7722" height="21.0371" fill="#FC8C5F"/>
<rect x="100.152" y="72.5779" width="21.7722" height="21.0371" fill="#FC8C5F"/>
<rect x="100.152" y="96.7705" width="21.7722" height="21.0371" fill="#FC8C5F"/>
<rect x="100.152" y="120.963" width="21.7722" height="21.0371" fill="#FC8C5F"/>
<rect x="125.19" width="21.7722" height="21.0371" fill="#FC8C5F"/>
<rect x="125.19" y="24.1926" width="21.7722" height="21.0371" fill="#FC8C5F"/>
<rect x="125.19" y="48.3853" width="21.7722" height="21.0371" fill="#FC8C5F"/>
<rect x="125.19" y="72.5779" width="21.7722" height="21.0371" fill="#FC8C5F"/>
<rect x="125.19" y="96.7705" width="21.7722" height="21.0371" fill="#FC8C5F"/>
<rect x="125.19" y="120.963" width="21.7722" height="21.0371" fill="#FC8C5F"/>
<rect x="150.228" width="21.7722" height="21.0371" fill="#FC8C5F"/>
<rect x="150.228" y="24.1926" width="21.7722" height="21.0371" fill="#FC8C5F"/>
<rect x="150.228" y="48.3853" width="21.7722" height="21.0371" fill="#FC8C5F"/>
<rect x="150.228" y="72.5779" width="21.7722" height="21.0371" fill="#FC8C5F"/>
<rect x="150.228" y="96.7705" width="21.7722" height="21.0371" fill="#FC8C5F"/>
<rect x="150.228" y="120.963" width="21.7722" height="21.0371" fill="#FC8C5F"/>
</svg>
