<svg width="52" height="53" viewBox="0 0 52 53" fill="none" xmlns="http://www.w3.org/2000/svg">
<path fill-rule="evenodd" clip-rule="evenodd" d="M26 50.7119C39.2548 50.7119 50 39.9667 50 26.7119C50 13.4571 39.2548 2.71191 26 2.71191C12.7452 2.71191 2 13.4571 2 26.7119C2 39.9667 12.7452 50.7119 26 50.7119ZM26 52.7119C40.3594 52.7119 52 41.0713 52 26.7119C52 12.3525 40.3594 0.711914 26 0.711914C11.6406 0.711914 0 12.3525 0 26.7119C0 41.0713 11.6406 52.7119 26 52.7119Z" fill="url(#paint0_linear_27_154)"/>
<path d="M30.1296 26.7131C29.4694 26.7131 28.8483 26.3616 28.5124 25.7991L26.0007 21.635L23.4929 25.7991C23.153 26.3655 22.5319 26.717 21.8718 26.717C21.696 26.717 21.5202 26.6936 21.3522 26.6428L16.0007 25.1116V32.0647C16.0007 32.6389 16.3913 33.1389 16.946 33.2756L25.3913 35.3889C25.7897 35.4866 26.2077 35.4866 26.6022 35.3889L35.0554 33.2756C35.6101 33.135 36.0007 32.635 36.0007 32.0647V25.1116L30.6491 26.6389C30.4811 26.6897 30.3054 26.7131 30.1296 26.7131ZM38.4343 22.3303L36.4226 18.3147C36.3015 18.0725 36.0397 17.9319 35.7702 17.967L26.0007 19.2131L29.5827 25.1545C29.7311 25.4006 30.028 25.5178 30.3054 25.4397L38.0358 23.2326C38.4226 23.1194 38.6101 22.6897 38.4343 22.3303ZM15.5788 18.3147L13.5671 22.3303C13.3874 22.6897 13.5788 23.1194 13.9616 23.2287L21.6921 25.4358C21.9694 25.5139 22.2663 25.3967 22.4147 25.1506L26.0007 19.2131L16.2272 17.967C15.9577 17.9358 15.6999 18.0725 15.5788 18.3147Z" fill="black"/>
<path d="M30.1296 26.7131C29.4694 26.7131 28.8483 26.3616 28.5124 25.7991L26.0007 21.635L23.4929 25.7991C23.153 26.3655 22.5319 26.717 21.8718 26.717C21.696 26.717 21.5202 26.6936 21.3522 26.6428L16.0007 25.1116V32.0647C16.0007 32.6389 16.3913 33.1389 16.946 33.2756L25.3913 35.3889C25.7897 35.4866 26.2077 35.4866 26.6022 35.3889L35.0554 33.2756C35.6101 33.135 36.0007 32.635 36.0007 32.0647V25.1116L30.6491 26.6389C30.4811 26.6897 30.3054 26.7131 30.1296 26.7131ZM38.4343 22.3303L36.4226 18.3147C36.3015 18.0725 36.0397 17.9319 35.7702 17.967L26.0007 19.2131L29.5827 25.1545C29.7311 25.4006 30.028 25.5178 30.3054 25.4397L38.0358 23.2326C38.4226 23.1194 38.6101 22.6897 38.4343 22.3303ZM15.5788 18.3147L13.5671 22.3303C13.3874 22.6897 13.5788 23.1194 13.9616 23.2287L21.6921 25.4358C21.9694 25.5139 22.2663 25.3967 22.4147 25.1506L26.0007 19.2131L16.2272 17.967C15.9577 17.9358 15.6999 18.0725 15.5788 18.3147Z" fill="url(#paint1_linear_27_154)"/>
<defs>
<linearGradient id="paint0_linear_27_154" x1="26" y1="0.711914" x2="26" y2="52.7119" gradientUnits="userSpaceOnUse">
<stop stop-color="#FC8C5F"/>
<stop offset="1" stop-color="#FC8C5F"/>
</linearGradient>
<linearGradient id="paint1_linear_27_154" x1="13.499" y1="26.7119" x2="38.5006" y2="26.7119" gradientUnits="userSpaceOnUse">
<stop stop-color="#FC8C5F"/>
<stop offset="1" stop-color="#FC8C5F"/>
</linearGradient>
</defs>
</svg>
