<svg width="52" height="53" viewBox="0 0 52 53" fill="none" xmlns="http://www.w3.org/2000/svg">
<path fill-rule="evenodd" clip-rule="evenodd" d="M26 50.7119C39.2548 50.7119 50 39.9667 50 26.7119C50 13.4571 39.2548 2.71191 26 2.71191C12.7452 2.71191 2 13.4571 2 26.7119C2 39.9667 12.7452 50.7119 26 50.7119ZM26 52.7119C40.3594 52.7119 52 41.0713 52 26.7119C52 12.3525 40.3594 0.711914 26 0.711914C11.6406 0.711914 0 12.3525 0 26.7119C0 41.0713 11.6406 52.7119 26 52.7119Z" fill="url(#paint0_linear_27_162)"/>
<path d="M36.1562 36.0869H15.8438C14.5493 36.0869 13.5 35.0376 13.5 33.7432V19.6807C13.5 18.3862 14.5493 17.3369 15.8438 17.3369H36.1562C37.4507 17.3369 38.5 18.3862 38.5 19.6807V33.7432C38.5 35.0376 37.4507 36.0869 36.1562 36.0869ZM18.9688 20.0713C17.4586 20.0713 16.2344 21.2955 16.2344 22.8057C16.2344 24.3158 17.4586 25.54 18.9688 25.54C20.4789 25.54 21.7031 24.3158 21.7031 22.8057C21.7031 21.2955 20.4789 20.0713 18.9688 20.0713ZM16.625 32.9619H35.375V27.4932L31.1018 23.22C30.873 22.9912 30.502 22.9912 30.2731 23.22L23.6562 29.8369L20.9456 27.1262C20.7167 26.8974 20.3458 26.8974 20.1169 27.1262L16.625 30.6182V32.9619Z" fill="black"/>
<path d="M36.1562 36.0869H15.8438C14.5493 36.0869 13.5 35.0376 13.5 33.7432V19.6807C13.5 18.3862 14.5493 17.3369 15.8438 17.3369H36.1562C37.4507 17.3369 38.5 18.3862 38.5 19.6807V33.7432C38.5 35.0376 37.4507 36.0869 36.1562 36.0869ZM18.9688 20.0713C17.4586 20.0713 16.2344 21.2955 16.2344 22.8057C16.2344 24.3158 17.4586 25.54 18.9688 25.54C20.4789 25.54 21.7031 24.3158 21.7031 22.8057C21.7031 21.2955 20.4789 20.0713 18.9688 20.0713ZM16.625 32.9619H35.375V27.4932L31.1018 23.22C30.873 22.9912 30.502 22.9912 30.2731 23.22L23.6562 29.8369L20.9456 27.1262C20.7167 26.8974 20.3458 26.8974 20.1169 27.1262L16.625 30.6182V32.9619Z" fill="url(#paint1_linear_27_162)"/>
<defs>
<linearGradient id="paint0_linear_27_162" x1="26" y1="0.711914" x2="26" y2="52.7119" gradientUnits="userSpaceOnUse">
<stop stop-color="#FC8C5F"/>
<stop offset="1" stop-color="#FC8C5F"/>
</linearGradient>
<linearGradient id="paint1_linear_27_162" x1="13.5" y1="26.7119" x2="38.5" y2="26.7119" gradientUnits="userSpaceOnUse">
<stop stop-color="#FC8C5F"/>
<stop offset="1" stop-color="#FC8C5F"/>
</linearGradient>
</defs>
</svg>
