<svg width="80" height="80" viewBox="0 0 80 80" fill="none" xmlns="http://www.w3.org/2000/svg">
<path d="M31.9063 1.24989C29.0469 2.89052 28.8751 3.10927 28.7813 5.06239L28.7032 6.48427L27.5313 8.53114C26.4376 10.4686 26.3282 10.5936 25.4844 11.0624C25.0001 11.328 24.4063 11.7655 24.1407 12.0311L23.6719 12.5155L23.6251 15.3905C23.5782 17.7499 23.6251 18.3436 23.8126 18.7343C24.0938 19.2499 24.7657 19.7968 25.7188 20.2811C26.2813 20.5624 26.5157 20.8749 27.5626 22.703C28.7501 24.8124 28.7501 24.8124 28.7501 25.9686C28.7501 26.8593 28.8282 27.2811 29.1094 27.8124C29.4219 28.4374 29.6876 28.6561 31.6407 29.7968C34.4532 31.4374 34.6719 31.4686 36.3126 30.6405L37.5782 29.9999H40.0313H42.4844L43.7032 30.6405C44.7344 31.1874 45.0001 31.2655 45.5313 31.1718C46.0782 31.0936 48.9219 29.578 50.2188 28.703C50.8907 28.2343 51.2501 27.3124 51.2501 25.953C51.2501 24.8124 51.2501 24.7968 52.4376 22.703C53.4844 20.8749 53.7188 20.5624 54.2813 20.2811C55.2344 19.7968 55.9063 19.2499 56.1876 18.7343C56.3751 18.3436 56.4219 17.7499 56.3751 15.3905L56.3282 12.5155L55.8594 12.0311C55.6094 11.7655 55.0469 11.3593 54.5938 11.1093C54.1563 10.8593 53.5782 10.4374 53.3126 10.1718C53.0469 9.90614 52.7344 9.68739 52.5938 9.68739C52.1251 9.68739 51.5782 10.0468 51.4063 10.4686C51.0626 11.3124 51.8126 12.3124 53.4063 13.1093L54.0626 13.4374V15.5936V17.7343L53.1563 18.2343C51.9688 18.8905 51.8282 19.0624 50.2969 21.7186L48.9844 23.9843L48.9063 25.3905L48.8282 26.7968L47.8907 27.3436C47.3751 27.6561 46.5626 28.1249 46.0938 28.3905L45.2344 28.8749L44.2188 28.2655L43.2032 27.6561H40.0001H36.7969L35.7813 28.2655L34.7657 28.8749L33.9063 28.3905C33.4376 28.1249 32.6251 27.6561 32.1094 27.3436L31.1719 26.7655L31.0938 25.3749L31.0157 23.9843L29.7032 21.7186C28.2032 19.1093 27.9688 18.828 26.7969 18.203L25.9376 17.7343V15.6249V13.4999L26.9376 12.9218C28.0782 12.2655 28.1094 12.2343 29.7813 9.37489L31.0157 7.26552L31.0626 5.84364L31.1251 4.43739L32.9219 3.37489L34.7344 2.32802L35.6876 2.92177L36.6407 3.51552H40.0001H43.3594L44.3126 2.92177L45.2657 2.32802L47.0782 3.37489L48.8751 4.43739L48.9376 5.90614C48.9844 7.21864 49.0157 7.40614 49.3594 7.67177C49.8438 8.06239 50.5469 8.04677 50.9532 7.64052C51.2501 7.34364 51.2813 7.17177 51.2344 5.48427C51.1563 3.06239 51.0626 2.93739 48.0782 1.24989C46.0313 0.0780163 45.7969 -0.0157337 45.1407 0.0467663C44.6719 0.0780163 44.0938 0.296766 43.4844 0.671766L42.5313 1.24989H40.0313H37.5157L36.5626 0.671766C35.9376 0.312391 35.3438 0.0780163 34.8751 0.0467663C34.1876 -0.0157337 33.9844 0.0623913 31.9063 1.24989Z" fill="#FA7846"/>
<path d="M37.8125 8.89063C35.9688 9.48438 34.5 10.7813 33.625 12.625C33.0625 13.7969 33.0469 13.875 33.0469 15.625C33.0469 17.3281 33.0781 17.4844 33.5469 18.4844C34.1094 19.6719 35.3594 21.0781 36.375 21.6719C38.5625 22.9531 41.4375 22.9531 43.625 21.6719C44.6406 21.0781 45.8906 19.6719 46.4531 18.4844C46.9219 17.4844 46.9531 17.3281 46.9531 15.625C46.9531 13.9219 46.9219 13.7656 46.4531 12.7813C45.5312 10.8125 44.2656 9.64063 42.375 8.96875C41.0625 8.5 39.1094 8.46875 37.8125 8.89063ZM41.9531 11.3125C44.1719 12.3438 45.2344 14.9219 44.4219 17.2813C44.0625 18.3281 42.7031 19.6875 41.6562 20.0469C39.8281 20.6719 38.0469 20.2656 36.7031 18.9219C35.5938 17.7969 35.2344 16.8594 35.3438 15.25C35.4688 13.4688 36.4219 12.0781 38.0469 11.3125C39.1406 10.7969 40.8594 10.7969 41.9531 11.3125Z" fill="#FAB9AF"/>
<path d="M12.9374 23.0467C10.9531 24.1873 10.6249 24.5779 10.6249 25.8279C10.6093 26.7186 10.5312 26.9217 9.79682 28.1717C9.1562 29.2342 8.79682 29.6561 8.20307 30.0467C7.01557 30.8123 6.85932 31.2654 6.9062 33.5467C6.95307 35.7186 7.0937 36.0311 8.29682 36.7186C8.82807 37.0467 9.1562 37.4217 9.79682 38.5311C10.5312 39.7967 10.6093 40.0154 10.6249 40.8904C10.6249 42.1248 10.9218 42.4842 12.8906 43.6092C14.7187 44.6561 15.1874 44.7186 16.3124 44.0779C17.1249 43.6248 17.2968 43.5936 18.6718 43.5936C20.0312 43.5936 20.2343 43.6404 21.0624 44.0779C22.2499 44.7186 22.7343 44.6404 24.6406 43.4842C26.5156 42.3592 26.7656 42.0311 26.8124 40.7498C26.8437 39.8748 26.9374 39.6092 27.6249 38.4373C28.2499 37.4061 28.5781 37.0154 29.1249 36.6873C30.3437 35.9529 30.4843 35.5779 30.4374 33.1717C30.3906 30.8592 30.3124 30.7029 28.9843 29.9061C28.0781 29.3748 26.7968 27.1248 26.8593 26.1404C26.8906 25.3436 26.4374 24.2498 25.9531 23.9529C24.1406 22.8279 22.8437 22.1873 22.3593 22.1873C22.0468 22.1873 21.4687 22.3904 20.9843 22.6561C20.2343 23.0936 20.0312 23.1248 18.6718 23.1248C17.3281 23.1248 17.1249 23.0779 16.5156 22.7029C16.1406 22.4686 15.5624 22.2654 15.1562 22.2342C14.5312 22.1717 14.2812 22.2654 12.9374 23.0467ZM18.6718 25.3904C20.7499 25.3904 20.8906 25.3748 21.5781 24.9842L22.3124 24.5779L23.4062 25.1873L24.4999 25.7967L24.4843 26.6248C24.4687 27.3592 24.5624 27.6248 25.3906 29.0623C26.4843 30.9686 26.8281 31.4061 27.5624 31.7967L28.1249 32.1092V33.3592V34.6092L27.3749 35.0154C26.7187 35.3748 26.5156 35.6404 25.5468 37.3436C24.5781 39.0779 24.4687 39.3592 24.4843 40.0779L24.4999 40.8904L23.5156 41.4529C22.9687 41.7811 22.4374 42.0311 22.3593 42.0311C22.2812 42.0311 21.8593 41.8436 21.4531 41.6248C20.7343 41.2498 20.6093 41.2342 18.5156 41.2811C16.5624 41.3279 16.2656 41.3592 15.7656 41.6717C15.4531 41.8748 15.1093 42.0311 14.9999 42.0311C14.8906 42.0311 14.4062 41.7811 13.9062 41.4842L13.0156 40.9373L12.9374 40.0467C12.8593 39.2967 12.6718 38.8279 11.7812 37.2967C10.8749 35.7342 10.5937 35.3904 9.9687 34.9998L9.2187 34.5311V33.2967C9.2187 32.1717 9.24995 32.0467 9.54682 31.9529C10.2031 31.7342 10.9531 30.8748 11.8906 29.2029C12.6406 27.8592 12.8749 27.2811 12.9531 26.5936L13.0468 25.7029L14.0312 25.1404L15.0156 24.5623L15.7499 24.9842C16.4531 25.3748 16.5937 25.3904 18.6718 25.3904Z" fill="#FA7846"/>
<path d="M16.7656 28.4531C15.6719 28.875 14.4844 29.9687 13.9531 31.0625C13.5781 31.8437 13.5156 32.1406 13.5156 33.3594C13.5156 35.0312 13.8594 35.9062 15 37.0312C16.125 38.1719 17 38.5156 18.6719 38.5156C19.8906 38.5156 20.1875 38.4531 20.9687 38.0781C24.2187 36.4844 24.9219 32.2344 22.3594 29.6719C20.8594 28.1875 18.7031 27.7031 16.7656 28.4531ZM20 30.7656C20.9219 31.2656 21.4531 32.0625 21.5312 33.0937C21.625 34.5 21.0312 35.5 19.7969 36.0156C18.7969 36.4375 17.4687 36.2187 16.6562 35.5C16.2031 35.0937 15.7812 34.0625 15.7812 33.3125C15.7812 32.6094 16.1719 31.6562 16.6562 31.2187C17.5312 30.4375 19.0156 30.2344 20 30.7656Z" fill="#FAB9AF"/>
<path d="M55.4375 23.1565C53.9844 23.9846 53.7031 24.2033 53.4375 24.7815C53.2188 25.2033 53.125 25.6877 53.1406 26.1408C53.2031 27.1252 51.9219 29.3752 51.0156 29.9065C49.6875 30.7033 49.6094 30.8596 49.5625 33.1721C49.5156 35.1252 49.5313 35.2658 49.875 35.7815C50.0781 36.0783 50.5469 36.4846 50.9063 36.6877C51.4063 36.969 51.7344 37.344 52.3438 38.3908C53.0469 39.5783 53.1406 39.8596 53.1875 40.7346C53.2344 42.0471 53.5 42.3596 55.3594 43.4846C57.2813 44.6408 57.75 44.719 58.9688 44.0783C59.7969 43.6408 60 43.594 61.3438 43.594C62.7031 43.594 62.8906 43.6252 63.6875 44.0783C64.8281 44.7346 65.3438 44.6565 67.2344 43.5315C69.125 42.4221 69.375 42.1252 69.375 40.8752C69.3906 40.0158 69.4688 39.7815 70.2031 38.5315C70.8438 37.4221 71.1719 37.0471 71.7031 36.719C72.9063 36.0315 73.0469 35.719 73.0938 33.5471C73.1406 31.2658 72.9844 30.8127 71.7969 30.0315C71.2031 29.6252 70.8281 29.1877 70.2031 28.1565C69.4688 26.9221 69.3906 26.719 69.375 25.8283C69.375 24.5627 69.0469 24.1721 67.0156 23.0315C65.6406 22.2502 65.375 22.1565 64.7969 22.219C64.4219 22.2658 63.8281 22.4846 63.4688 22.719C62.8906 23.0783 62.6719 23.1252 61.3594 23.1252C60.0313 23.1252 59.8125 23.0783 59.0469 22.6565C57.7969 21.969 57.3906 22.0315 55.4375 23.1565ZM61.3281 25.3908C63.4063 25.3908 63.5469 25.3752 64.25 24.9846L64.9844 24.5627L65.9688 25.1408L66.9531 25.7033L67.0469 26.594C67.125 27.2815 67.3594 27.8596 68.1094 29.2033C69.0469 30.8752 69.7969 31.7346 70.4531 31.9533C70.75 32.0471 70.7813 32.1721 70.7813 33.2971V34.5315L70.0313 35.0002C69.4063 35.3908 69.125 35.7346 68.2188 37.2971C67.3281 38.8283 67.1406 39.2971 67.0625 40.0471L66.9844 40.9533L66.0625 41.4846C65.5625 41.7815 65.0625 42.0315 64.9688 42.0315C64.875 42.0315 64.5469 41.8752 64.2344 41.6721C63.7344 41.3596 63.4375 41.3283 61.4844 41.2815C59.3906 41.2346 59.2656 41.2502 58.5469 41.6252C58.1406 41.844 57.7188 42.0315 57.6406 42.0315C57.5469 42.0315 57.0313 41.7658 56.4844 41.4377L55.5 40.8596L55.5156 40.0627C55.5313 39.3596 55.4219 39.0627 54.4531 37.344C53.4844 35.6408 53.2813 35.3752 52.625 35.0158L51.875 34.6096V33.3596V32.1096L52.4375 31.7971C53.1719 31.4065 53.5156 30.969 54.5938 29.0783C55.4063 27.6565 55.5156 27.3908 55.5 26.6408V25.7971L56.5938 25.1877L57.6875 24.5783L58.4219 24.9846C59.1094 25.3752 59.25 25.3908 61.3281 25.3908Z" fill="#FA7846"/>
<path d="M59.2969 28.5156C58.0938 29 56.8751 30.25 56.4219 31.4844C55.4688 34 56.6251 36.8906 59.0313 38.0781C59.8126 38.4531 60.1094 38.5156 61.3282 38.5156C62.5469 38.5156 62.8438 38.4531 63.6251 38.0781C64.6251 37.5938 65.5782 36.5938 66.1251 35.5C66.4219 34.8906 66.4844 34.5156 66.4844 33.3594C66.4844 32.1406 66.4219 31.8438 66.0469 31.0625C64.8282 28.5938 61.8751 27.4688 59.2969 28.5156ZM63.0313 30.9844C65.1251 32.5938 64.2501 35.9219 61.6563 36.2031C59.7657 36.4219 58.3282 35.0313 58.4688 33.0938C58.5469 32.0625 59.0626 31.2656 60.0001 30.75C60.8126 30.2969 62.2813 30.4219 63.0313 30.9844Z" fill="#FAB9AF"/>
<path d="M2.1875 39.8906C1.03125 40.2656 0 41.7344 0 43.0313C0 44.7656 1.125 49.7656 2.10938 52.4219C5.10938 60.5 10.4844 66.8594 18.3281 71.6406C18.5781 71.7813 18.5781 71.8438 18.3281 72.5C17.8281 73.875 17.9688 74.1094 21.0781 77.2188C23.3906 79.5469 23.9062 80 24.2969 80C24.6719 80 25.2188 79.5313 27.6875 77.0781C30.3125 74.4688 30.625 74.0938 30.625 73.6406C30.625 72.9844 30.1562 72.5 29.5 72.5C29.0781 72.5 28.6875 72.8125 26.6406 74.8438L24.2812 77.1875L22.375 75.2656L20.4688 73.3594L26.4062 67.4219L32.3438 61.4844L34.25 63.4063L36.1719 65.3125L33.9375 67.5469C31.9062 69.5781 31.7188 69.8125 31.7188 70.3281C31.7188 71.0313 32.1094 71.4063 32.8281 71.4063C33.3125 71.4063 33.625 71.1563 36.1406 68.625C38.6719 66.0781 38.9062 65.8125 38.9062 65.3125C38.9062 64.7969 38.6875 64.5313 36.2188 62.0781C34.5469 60.4219 33.3594 59.3594 33.0938 59.2969C32.625 59.1719 31.6406 59.25 31.2188 59.4375C31 59.5469 30.7344 59.25 29.8594 57.8594C29.25 56.9375 27.75 54.5938 26.5156 52.6563C24 48.75 23.5781 48.2969 22.2188 48.1563C20.3125 47.9844 18.75 49.3594 18.75 51.2031C18.75 51.6094 18.9688 53.1406 19.2188 54.6094C19.4844 56.0625 19.6875 57.5 19.6875 57.8125C19.6875 58.5313 19.3594 59 18.6719 59.2188C18.2188 59.375 18.0312 59.3438 17.4062 59.0781C14.75 57.8906 11.7031 54.9531 10.1094 52.0313C9.25 50.4531 8.95312 49.5625 8.03125 45.8594C7.5625 43.9844 7.0625 42.2031 6.9375 41.9219C6.54688 41.125 5.4375 40.2031 4.51562 39.9375C3.57812 39.6563 2.96875 39.6406 2.1875 39.8906ZM4.5 42.5469C4.78125 42.8281 5.0625 43.7031 5.76562 46.5C6.75 50.3438 7.01562 51.1094 8.01562 53.0469C9.73438 56.3438 12.8125 59.375 16.2344 61.0938C18.3906 62.1875 20.7188 61.5 21.6562 59.4531C22.1562 58.4063 22.1406 57.6094 21.5625 54.375C21 51.1875 20.9844 50.8438 21.4219 50.625C22.1406 50.2344 22.3281 50.4531 25.8438 55.9531L29.2656 61.2813L24.875 65.6719L20.4844 70.0625L19.9062 69.7969C17.8906 68.8281 14.4062 66.1563 12.0312 63.7656C8.34375 60.0313 5.625 55.625 4 50.7656C3.28125 48.625 2.625 45.6563 2.42188 43.7344C2.32812 42.7813 2.34375 42.6563 2.65625 42.3438C3.09375 41.9063 3.95312 42 4.5 42.5469Z" fill="#1E2533"/>
<path d="M75.3438 39.9844C74.4375 40.2969 73.4375 41.1719 73.0625 41.9531C72.9375 42.2188 72.4375 43.9844 71.9688 45.8594C71.5 47.75 70.9688 49.6875 70.7813 50.1563C69.5938 53.2031 67.1875 56.1719 64.4219 58.0156C62.7188 59.1563 61.9844 59.4375 61.3281 59.2188C60.6406 59 60.3125 58.5313 60.3125 57.8125C60.3125 57.5 60.5156 56.0625 60.7813 54.6094C61.0313 53.1406 61.25 51.6094 61.25 51.2031C61.25 49.3594 59.6875 47.9844 57.7813 48.1563C56.4219 48.2969 56 48.75 53.4844 52.6563C52.25 54.5938 50.75 56.9375 50.1406 57.8594C49.2656 59.25 49 59.5469 48.7813 59.4375C48.3594 59.25 47.375 59.1719 46.9063 59.2969C46.6406 59.3594 45.4531 60.4219 43.7969 62.0781C41.3125 64.5469 41.0938 64.7969 41.0938 65.3125C41.0938 65.8281 41.5 66.2656 48.1719 72.9375C54.2969 79.0469 55.2969 80 55.7031 80C56.0938 80 56.5938 79.5625 58.9219 77.2188C62.0313 74.1094 62.1719 73.875 61.6719 72.5C61.4219 71.8438 61.4219 71.7813 61.6719 71.6406C63.0469 70.8125 65.6563 68.9844 65.8594 68.7188C65.9844 68.5156 66.0938 68.2031 66.0938 68C66.0938 67.5469 65.4375 66.875 64.9844 66.875C64.7969 66.875 63.75 67.4688 62.6719 68.1875C61.5938 68.9219 60.4375 69.6406 60.1094 69.7813L59.5156 70.0625L55.125 65.6719L50.7344 61.2813L54.1563 55.9531C57.6719 50.4531 57.8594 50.2344 58.5781 50.625C59.0156 50.8438 59 51.1875 58.4375 54.375C57.8594 57.6094 57.8438 58.4063 58.3438 59.4531C58.9844 60.8438 60.2031 61.5938 61.8125 61.6094C62.6094 61.6094 62.9688 61.5 63.9219 61.0156C67.25 59.3281 70.2813 56.3281 71.9844 53.0469C72.9844 51.1094 73.25 50.3438 74.2344 46.5C75.2188 42.5781 75.3906 42.25 76.4375 42.0938C76.875 42.0156 77.0625 42.0625 77.3438 42.3438C77.6563 42.6563 77.6875 42.7969 77.5938 43.6563C77.3906 45.5 76.7031 48.5313 76 50.625C74.4375 55.3281 71.9531 59.5156 68.4531 63.3281C67.5938 64.2656 67.3438 64.6406 67.3438 65C67.3438 65.625 67.8281 66.0938 68.5 66.0938C68.9688 66.0938 69.1875 65.9219 70.2344 64.8281C75.3125 59.4063 78.7031 52.3594 79.7656 44.9688C80.0938 42.7344 80 41.9531 79.3281 41.0625C78.375 39.8281 76.8906 39.4219 75.3438 39.9844ZM53.6406 67.4688L59.5313 73.3594L57.6094 75.2813L55.7031 77.1875L49.7656 71.25L43.8281 65.3125L45.7031 63.4375C46.7344 62.4063 47.6094 61.5625 47.6563 61.5625C47.7031 61.5625 50.3906 64.2188 53.6406 67.4688Z" fill="#1E2533"/>
</svg>
