<svg xmlns="http://www.w3.org/2000/svg" fill="none" viewBox="25 15.97 35 35">
<g filter="url(#filter0_d_201_8)">
<circle cx="42.5" cy="33.4653" r="17.5" fill="#FBF2EA"/>
</g>
<path d="M44.6776 29.0558C44.6106 29.1228 44.5771 29.1998 44.5771 29.2868C44.5771 29.3739 44.6106 29.4509 44.6776 29.5179L48.6251 33.4654L44.6776 37.4129C44.6106 37.4799 44.5771 37.5569 44.5771 37.644C44.5771 37.731 44.6106 37.808 44.6776 37.875L45.1798 38.3772C45.2468 38.4442 45.3238 38.4777 45.4108 38.4777C45.4979 38.4777 45.5749 38.4442 45.6418 38.3772L50.3226 33.6964C50.3896 33.6295 50.4231 33.5525 50.4231 33.4654C50.4231 33.3783 50.3896 33.3013 50.3226 33.2344L45.6418 28.5536C45.5749 28.4866 45.4979 28.4531 45.4108 28.4531C45.3238 28.4531 45.2468 28.4866 45.1798 28.5536L44.6776 29.0558Z" fill="#1E2533"/>
<path d="M40.3227 29.0558C40.3896 29.1228 40.4231 29.1998 40.4231 29.2868C40.4231 29.3739 40.3896 29.4509 40.3227 29.5179L36.3751 33.4654L40.3227 37.4129C40.3896 37.4799 40.4231 37.5569 40.4231 37.644C40.4231 37.731 40.3896 37.808 40.3227 37.875L39.8205 38.3772C39.7535 38.4442 39.6765 38.4777 39.5894 38.4777C39.5024 38.4777 39.4254 38.4442 39.3584 38.3772L34.6776 33.6964C34.6106 33.6295 34.5771 33.5525 34.5771 33.4654C34.5771 33.3783 34.6106 33.3013 34.6776 33.2344L39.3584 28.5536C39.4254 28.4866 39.5024 28.4531 39.5894 28.4531C39.6765 28.4531 39.7535 28.4866 39.8205 28.5536L40.3227 29.0558Z" fill="#1E2533"/>
<defs>
<filter id="filter0_d_201_8" x="0" y="0.965332" width="85" height="85" filterUnits="userSpaceOnUse" color-interpolation-filters="sRGB">
<feFlood flood-opacity="0" result="BackgroundImageFix"/>
<feColorMatrix in="SourceAlpha" type="matrix" values="0 0 0 0 0 0 0 0 0 0 0 0 0 0 0 0 0 0 127 0" result="hardAlpha"/>
<feOffset dy="10"/>
<feGaussianBlur stdDeviation="12.5"/>
<feComposite in2="hardAlpha" operator="out"/>
<feColorMatrix type="matrix" values="0 0 0 0 0.207843 0 0 0 0 0.25098 0 0 0 0 0.329412 0 0 0 0.1 0"/>
<feBlend mode="normal" in2="BackgroundImageFix" result="effect1_dropShadow_201_8"/>
<feBlend mode="normal" in="SourceGraphic" in2="effect1_dropShadow_201_8" result="shape"/>
</filter>
</defs>
</svg>