<svg width="80" height="80" viewBox="0 0 80 80" fill="none" xmlns="http://www.w3.org/2000/svg">
<path d="M37.8906 0.953033C34.0625 3.09366 32.9219 3.70303 30 5.14053C23.5781 8.31241 16.7188 10.9843 9.6875 13.0624C7.20313 13.7812 6.73438 13.9687 6.35938 14.3905L5.92188 14.8749L5.98438 26.2968C6.03125 35.953 6.07813 38.0155 6.3125 39.5312C7.5625 48.1562 10.25 55.0624 14.9375 61.7343C20.4531 69.5937 29.6094 76.8437 37.2344 79.4062C39.9219 80.3124 41.875 80.0155 45.8125 78.1562C52.9531 74.7968 60.2969 68.5312 65.0625 61.7343C69.75 55.0624 72.4375 48.1562 73.6875 39.5312C73.9219 38.0155 73.9688 35.953 74.0156 26.2968L74.0781 14.8749L73.6406 14.3905C73.2656 13.9687 72.7969 13.7812 70.3125 13.0624C60.7813 10.2499 51.9531 6.46866 41.9531 0.874908C41.0938 0.390533 40.2188 -9.15527e-05 40 -9.15527e-05C39.7813 -9.15527e-05 38.8281 0.437408 37.8906 0.953033ZM42.8594 5.21866C51.3438 9.85928 59.8906 13.4374 69.1875 16.2499L70.7813 16.7343V24.9687C70.7813 29.4999 70.7031 34.3593 70.625 35.7812C69.875 47.8437 65.0625 58.2968 56.4688 66.5468C51.8906 70.953 46.8906 74.2812 42.3125 75.9999C40.3281 76.7343 39.6719 76.7343 37.6875 75.9999C33.1094 74.2812 28.1094 70.953 23.5313 66.5468C14.9375 58.2968 10.125 47.8437 9.375 35.7812C9.29688 34.3593 9.21875 29.4999 9.21875 24.9687V16.7343L10.8281 16.2499C13.7344 15.3749 18.9375 13.578 21.4844 12.578C26.7344 10.5155 33.3594 7.39053 37.8125 4.85928C38.8906 4.24991 39.8594 3.74991 39.9688 3.74991C40.0938 3.74991 41.3906 4.40616 42.8594 5.21866Z" fill="#1E2533"/>
<path d="M27.8594 13.5466C27.4063 13.6403 26.7657 14.2966 26.6719 14.781C26.5625 15.4216 26.8438 16.2185 27.2969 16.5153C27.8125 16.8591 28.7344 16.8435 29.2657 16.4841C30.2657 15.8278 30.0938 14.1247 29 13.6716C28.6875 13.5466 28.3907 13.4528 28.3282 13.4528C28.2657 13.4685 28.0469 13.5153 27.8594 13.5466Z" fill="#FAB9AF"/>
<path d="M22.8125 15.6094C22.5938 15.6876 21.2969 16.1719 19.9219 16.6719C18.5469 17.1876 16.5156 17.9219 15.4063 18.2813C14.2188 18.6719 13.2344 19.0938 13.0313 19.2969C12.5469 19.7813 12.4688 20.5313 12.5313 24.2188C12.5781 26.9688 12.625 27.4844 12.8594 27.8282C13.3594 28.5782 14.2031 28.7813 15.0156 28.3438C15.8125 27.9376 15.9375 27.3751 15.9375 24.3282V21.6251L17.0781 21.2657C20.2656 20.2501 24.2813 18.6563 24.7188 18.2344C25.9375 17.0157 24.5 15.0469 22.8125 15.6094Z" fill="#FAB9AF"/>
<path d="M53.6718 24.4216C53.3281 24.5466 52.7656 24.8122 52.4218 25.031C52.0781 25.2654 47.9375 29.3122 43.2031 34.0466L34.6093 42.656L31.25 39.2966C27.2343 35.2966 26.8906 35.0779 24.6093 35.0779C23.4375 35.0779 23.0781 35.1404 22.4218 35.4685C19.625 36.8279 18.4687 39.9685 19.7343 42.7341C20.1093 43.5466 20.875 44.3747 25.75 49.2497C32.2656 55.7497 32.2031 55.7029 34.5312 55.7029C37.1718 55.7029 36.3125 56.4216 48.8593 43.8591C61.3593 31.3591 60.7031 32.156 60.7031 29.6091C60.7031 28.406 60.6406 28.0779 60.2968 27.3435C59.7656 26.2341 58.75 25.2185 57.6562 24.7029C56.6406 24.2341 54.7031 24.0935 53.6718 24.4216ZM56.0468 27.6716C57.0781 28.0622 57.625 29.1247 57.3437 30.156C57.2187 30.5935 54.8593 33.031 46.375 41.5154C36.5625 51.3122 35.4843 52.3279 34.9375 52.4372C34.4531 52.5154 34.1718 52.4685 33.6718 52.2029C33.2812 51.9997 30.9218 49.7497 27.9375 46.7497C22.5781 41.3747 22.3437 41.0779 22.6093 40.0154C22.7656 39.2966 23.4062 38.6091 24.0781 38.4372C25.2656 38.1091 25.5156 38.2966 29.7656 42.5154C31.9218 44.6404 33.875 46.4685 34.1093 46.5466C34.3593 46.6404 34.7343 46.6716 34.9687 46.6247C35.25 46.5622 38.4843 43.4372 44.6875 37.2497C49.7968 32.156 54.2031 27.8747 54.4531 27.7497C55 27.4529 55.4375 27.4372 56.0468 27.6716Z" fill="#FA7846"/>
<path d="M58.2656 54.2185C58.125 54.2966 57.5312 55.0466 56.9375 55.8747C54.8125 58.8747 52.3437 61.5153 49.3281 64.031C47.75 65.3591 47.4375 65.7653 47.4687 66.4997C47.5 67.2185 47.7187 67.6091 48.3125 67.906C49.1094 68.3278 49.6719 68.0935 51.5156 66.5778C55.4375 63.3747 60.7812 57.1247 60.7812 55.7497C60.7812 55.1091 60.375 54.3903 59.9062 54.2185C59.4062 54.0153 58.5937 54.031 58.2656 54.2185Z" fill="#FAB9AF"/>
<path d="M44.2813 67.6564C43.2501 68.0782 42.9688 69.4845 43.7344 70.3439C44.9532 71.7189 47.2188 70.2345 46.5001 68.547C46.1563 67.6876 45.1563 67.297 44.2813 67.6564Z" fill="#FAB9AF"/>
</svg>
