<svg width="19" height="19" viewBox="0 0 19 19" fill="none" xmlns="http://www.w3.org/2000/svg">
<path fill-rule="evenodd" clip-rule="evenodd" d="M0.410857 1.11293C0.192981 1.32394 0.0709739 1.60892 0.0714288 1.90576V6.42334C0.0714288 6.72287 0.195599 7.01014 0.416624 7.22194C0.637649 7.43375 0.937423 7.55273 1.25 7.55273C1.56258 7.55273 1.86235 7.43375 2.08338 7.22194C2.3044 7.01014 2.42857 6.72287 2.42857 6.42334V4.63212L5.12986 7.22295C5.35116 7.43502 5.65131 7.55416 5.96429 7.55416C6.27726 7.55416 6.57741 7.43502 6.79871 7.22295C7.02002 7.01088 7.14435 6.72325 7.14435 6.42334C7.14435 6.12343 7.02002 5.8358 6.79871 5.62373L4.09507 3.03516H5.96429C6.27686 3.03516 6.57664 2.91617 6.79766 2.70436C7.01869 2.49256 7.14286 2.2053 7.14286 1.90576C7.14286 1.60623 7.01869 1.31896 6.79766 1.10716C6.57664 0.895357 6.27686 0.776367 5.96429 0.776367H1.25C0.940231 0.775931 0.64284 0.892848 0.422643 1.10163L0.410857 1.11293ZM0.0714288 17.7173C0.0714278 17.8653 0.101865 18.0119 0.161 18.1487H0.158644C0.247164 18.3547 0.397403 18.531 0.590388 18.6552C0.783373 18.7794 1.01045 18.846 1.24293 18.8467H5.96429C6.27686 18.8467 6.57664 18.7277 6.79766 18.5159C7.01869 18.3041 7.14286 18.0168 7.14286 17.7173C7.14286 17.4178 7.01869 17.1305 6.79766 16.9187C6.57664 16.7069 6.27686 16.5879 5.96429 16.5879H4.09507L6.79871 13.9993C6.90829 13.8943 6.99522 13.7697 7.05452 13.6325C7.11382 13.4953 7.14435 13.3482 7.14435 13.1997C7.14435 13.0512 7.11382 12.9042 7.05452 12.767C6.99522 12.6298 6.90829 12.5051 6.79871 12.4001C6.68914 12.2951 6.55905 12.2118 6.41588 12.155C6.2727 12.0981 6.11925 12.0689 5.96429 12.0689C5.80932 12.0689 5.65587 12.0981 5.5127 12.155C5.36952 12.2118 5.23944 12.2951 5.12986 12.4001L2.42857 14.9909V13.1997C2.42857 12.9002 2.3044 12.6129 2.08338 12.4011C1.86235 12.1893 1.56258 12.0703 1.25 12.0703C0.937423 12.0703 0.637649 12.1893 0.416624 12.4011C0.195599 12.6129 0.0714288 12.9002 0.0714288 13.1997V17.7173ZM18.5774 1.10163C18.4666 0.997729 18.3369 0.916413 18.2002 0.862202C18.0575 0.80559 17.9045 0.776425 17.75 0.776367H13.0357C12.7231 0.776367 12.4234 0.895357 12.2023 1.10716C11.9813 1.31896 11.8571 1.60623 11.8571 1.90576C11.8571 2.2053 11.9813 2.49256 12.2023 2.70436C12.4234 2.91617 12.7231 3.03516 13.0357 3.03516H14.9049L12.2013 5.62373C11.98 5.8358 11.8557 6.12343 11.8557 6.42334C11.8557 6.72325 11.98 7.01088 12.2013 7.22295C12.4226 7.43502 12.7227 7.55416 13.0357 7.55416C13.3487 7.55416 13.6488 7.43502 13.8701 7.22295L16.5714 4.63212V6.42334C16.5714 6.72287 16.6956 7.01014 16.9166 7.22194C17.1376 7.43375 17.4374 7.55273 17.75 7.55273C18.0626 7.55273 18.3624 7.43375 18.5834 7.22194C18.8044 7.01014 18.9286 6.72287 18.9286 6.42334V1.90576C18.9285 1.60901 18.8066 1.32421 18.5891 1.11293L18.5774 1.10163ZM17.75 18.8467C18.0597 18.8469 18.357 18.73 18.5774 18.5214L18.5891 18.5101C18.8066 18.2988 18.9285 18.014 18.9286 17.7173V13.1997C18.9286 12.9002 18.8044 12.6129 18.5834 12.4011C18.3624 12.1893 18.0626 12.0703 17.75 12.0703C17.4374 12.0703 17.1376 12.1893 16.9166 12.4011C16.6956 12.6129 16.5714 12.9002 16.5714 13.1997V14.9909L13.8701 12.4001C13.7606 12.2951 13.6305 12.2118 13.4873 12.155C13.3441 12.0981 13.1907 12.0689 13.0357 12.0689C12.8807 12.0689 12.7273 12.0981 12.5841 12.155C12.441 12.2118 12.3109 12.2951 12.2013 12.4001C12.0917 12.5051 12.0048 12.6298 11.9455 12.767C11.8862 12.9042 11.8557 13.0512 11.8557 13.1997C11.8557 13.3482 11.8862 13.4953 11.9455 13.6325C12.0048 13.7697 12.0917 13.8943 12.2013 13.9993L14.9049 16.5879H13.0357C12.7231 16.5879 12.4234 16.7069 12.2023 16.9187C11.9813 17.1305 11.8571 17.4178 11.8571 17.7173C11.8571 18.0168 11.9813 18.3041 12.2023 18.5159C12.4234 18.7277 12.7231 18.8467 13.0357 18.8467H17.75Z" fill="#FF9118"/>
</svg>
