<svg width="52" height="53" viewBox="0 0 52 53" fill="none" xmlns="http://www.w3.org/2000/svg">
<path fill-rule="evenodd" clip-rule="evenodd" d="M26 50.7119C39.2548 50.7119 50 39.9667 50 26.7119C50 13.4571 39.2548 2.71191 26 2.71191C12.7452 2.71191 2 13.4571 2 26.7119C2 39.9667 12.7452 50.7119 26 50.7119ZM26 52.7119C40.3594 52.7119 52 41.0713 52 26.7119C52 12.3525 40.3594 0.711914 26 0.711914C11.6406 0.711914 0 12.3525 0 26.7119C0 41.0713 11.6406 52.7119 26 52.7119Z" fill="url(#paint0_linear_27_178)"/>
<path d="M35.097 32.6927L31.1961 28.2743H32.6917C33.1316 28.2743 33.5208 28.0302 33.7063 27.6366C33.8919 27.244 33.8308 26.7938 33.5462 26.4623L29.7312 22.0243H31.1419C31.5862 22.0243 31.9866 21.7631 32.1604 21.3597C32.3323 20.9628 32.2512 20.5009 31.9534 20.184L26.5691 14.4476C26.2747 14.1327 25.7254 14.1327 25.4304 14.4476L20.0457 20.184C19.7478 20.5009 19.6673 20.9628 19.8386 21.3597C20.0125 21.7631 20.4134 22.0243 20.8577 22.0243H22.2683L18.4529 26.4633C18.1692 26.7943 18.1082 27.244 18.2932 27.6371C18.4788 28.0302 18.8675 28.2743 19.3079 28.2743H20.8035L16.9026 32.6927C16.6096 33.0243 16.5432 33.4784 16.7288 33.8773C16.9119 34.2704 17.3147 34.5243 17.7547 34.5243H24.4373V35.7181L22.9583 38.0814C22.6985 38.601 23.0764 39.2123 23.657 39.2123H28.3426C28.9231 39.2123 29.3011 38.601 29.0413 38.0814L27.5623 35.7181V34.5243H34.2449C34.6848 34.5243 35.0877 34.2704 35.2708 33.8773C35.4563 33.4784 35.3899 33.0243 35.097 32.6927Z" fill="black"/>
<path d="M35.097 32.6927L31.1961 28.2743H32.6917C33.1316 28.2743 33.5208 28.0302 33.7063 27.6366C33.8919 27.244 33.8308 26.7938 33.5462 26.4623L29.7312 22.0243H31.1419C31.5862 22.0243 31.9866 21.7631 32.1604 21.3597C32.3323 20.9628 32.2512 20.5009 31.9534 20.184L26.5691 14.4476C26.2747 14.1327 25.7254 14.1327 25.4304 14.4476L20.0457 20.184C19.7478 20.5009 19.6673 20.9628 19.8386 21.3597C20.0125 21.7631 20.4134 22.0243 20.8577 22.0243H22.2683L18.4529 26.4633C18.1692 26.7943 18.1082 27.244 18.2932 27.6371C18.4788 28.0302 18.8675 28.2743 19.3079 28.2743H20.8035L16.9026 32.6927C16.6096 33.0243 16.5432 33.4784 16.7288 33.8773C16.9119 34.2704 17.3147 34.5243 17.7547 34.5243H24.4373V35.7181L22.9583 38.0814C22.6985 38.601 23.0764 39.2123 23.657 39.2123H28.3426C28.9231 39.2123 29.3011 38.601 29.0413 38.0814L27.5623 35.7181V34.5243H34.2449C34.6848 34.5243 35.0877 34.2704 35.2708 33.8773C35.4563 33.4784 35.3899 33.0243 35.097 32.6927Z" fill="url(#paint1_linear_27_178)"/>
<defs>
<linearGradient id="paint0_linear_27_178" x1="26" y1="0.711914" x2="26" y2="52.7119" gradientUnits="userSpaceOnUse">
<stop stop-color="#FC8C5F"/>
<stop offset="1" stop-color="#FC8C5F"/>
</linearGradient>
<linearGradient id="paint1_linear_27_178" x1="16.625" y1="26.7118" x2="35.3746" y2="26.7118" gradientUnits="userSpaceOnUse">
<stop stop-color="#FC8C5F"/>
<stop offset="1" stop-color="#FC8C5F"/>
</linearGradient>
</defs>
</svg>
