<svg width="78" height="16" viewBox="0 0 78 16" fill="none" xmlns="http://www.w3.org/2000/svg">
<path d="M76.9718 13.7484C77.109 13.764 77.2328 13.6654 77.2484 13.5282L77.5024 11.2926C77.518 11.1554 77.4195 11.0316 77.2823 11.016C77.1451 11.0004 77.0212 11.099 77.0056 11.2362L76.7798 13.2234L74.7926 12.9976C74.6554 12.982 74.5316 13.0805 74.516 13.2177C74.5004 13.3549 74.599 13.4788 74.7362 13.4944L76.9718 13.7484ZM1 1C0.840245 1.1923 0.84042 1.19244 0.840718 1.19269C0.840982 1.19291 0.841404 1.19326 0.841932 1.1937C0.842988 1.19457 0.844538 1.19586 0.846577 1.19754C0.850656 1.20092 0.856695 1.20591 0.864667 1.21247C0.880613 1.2256 0.904296 1.24505 0.935514 1.27053C0.997951 1.3215 1.09053 1.3966 1.21164 1.49359C1.45385 1.68758 1.81018 1.96916 2.26769 2.32038C3.18266 3.02277 4.50258 4.00388 6.12387 5.11999C9.3653 7.35141 13.8165 10.126 18.6478 12.2906C23.475 14.4535 28.7044 16.0179 33.4955 15.8044C38.3026 15.5903 42.6644 13.5848 45.7129 8.63102L45.2871 8.36897C42.3356 13.1652 38.1349 15.0972 33.4732 15.3049C28.7956 15.5133 23.65 13.984 18.8522 11.8344C14.0585 9.68651 9.6347 6.92984 6.40738 4.70814C4.79429 3.59768 3.4814 2.62176 2.57215 1.92376C2.11756 1.57478 1.76393 1.29533 1.5242 1.10333C1.40434 1.00733 1.31296 0.933204 1.25168 0.883184C1.22104 0.858174 1.19792 0.839192 1.18254 0.826519C1.17484 0.820182 1.16908 0.815422 1.16527 0.812274C1.16337 0.8107 1.16196 0.809529 1.16104 0.808766C1.16058 0.808384 1.16026 0.808118 1.16003 0.807927C1.15983 0.807763 1.15975 0.807702 1 1ZM45.7129 8.63102C48.6825 3.8054 52.0912 1.73648 55.5158 1.3027C58.9543 0.867156 62.4599 2.07319 65.6248 3.9039C68.7868 5.7329 71.5822 8.17003 73.5899 10.1544C74.5929 11.1458 75.3976 12.0223 75.9511 12.6506C76.2278 12.9647 76.4417 13.2167 76.5861 13.3898C76.6583 13.4763 76.7132 13.5432 76.7498 13.5882C76.7682 13.6107 76.7819 13.6277 76.7911 13.6391C76.7956 13.6447 76.799 13.649 76.8013 13.6518C76.8024 13.6532 76.8032 13.6542 76.8037 13.6548C76.804 13.6552 76.8041 13.6554 76.8043 13.6555C76.8044 13.6557 76.8044 13.6557 77 13.5C77.1956 13.3443 77.1955 13.3442 77.1953 13.3439C77.1951 13.3437 77.1948 13.3433 77.1945 13.3429C77.1938 13.3421 77.1929 13.3409 77.1916 13.3393C77.1891 13.3362 77.1854 13.3316 77.1806 13.3256C77.1709 13.3135 77.1565 13.2957 77.1376 13.2725C77.0997 13.226 77.0436 13.1576 76.97 13.0695C76.823 12.8932 76.6062 12.6378 76.3263 12.3201C75.7665 11.6847 74.9539 10.7996 73.9414 9.79875C71.9178 7.79872 69.0882 5.3296 65.8752 3.4711C62.6651 1.61431 59.0457 0.351593 55.453 0.80667C51.8463 1.26352 48.3175 3.4446 45.2871 8.36897L45.7129 8.63102Z" fill="#FA7846"/>
</svg>
