<svg width="162" height="140" viewBox="0 0 162 140" fill="none" xmlns="http://www.w3.org/2000/svg">
<path d="M157.165 139.871C157.37 140.056 157.686 140.04 157.871 139.835L160.886 136.494C161.071 136.289 161.054 135.973 160.849 135.788C160.644 135.603 160.328 135.619 160.143 135.824L157.464 138.794L154.494 136.114C154.289 135.929 153.973 135.946 153.788 136.151C153.603 136.356 153.619 136.672 153.824 136.857L157.165 139.871ZM0.5 1C0.0153751 1.12304 0.0155106 1.12357 0.0157398 1.12447C0.0159409 1.12526 0.0162639 1.12653 0.0166665 1.12811C0.0174718 1.13126 0.0186522 1.13587 0.0202085 1.14193C0.0233212 1.15405 0.0279378 1.17196 0.0340652 1.19555C0.0463199 1.24272 0.0646182 1.3126 0.0890155 1.40434C0.13781 1.58781 0.211002 1.85871 0.309037 2.21015C0.505102 2.91302 0.800555 3.9381 1.19895 5.23032C1.99569 7.81458 3.20444 11.4682 4.85373 15.75C8.15097 24.3103 13.2151 35.3979 20.2781 45.4745C27.3381 55.5468 36.4231 64.6485 47.7757 69.1754C59.1516 73.7114 72.7397 73.628 88.7278 65.4451L88.2722 64.5549C72.5103 72.622 59.2234 72.6636 48.1461 68.2465C37.0456 63.8202 28.0994 54.8907 21.0969 44.9005C14.0974 34.9146 9.06778 23.9084 5.7869 15.3906C4.14712 11.1334 2.94571 7.50183 2.15456 4.9357C1.75902 3.65272 1.46609 2.6363 1.27226 1.94146C1.17535 1.59404 1.10322 1.32704 1.05542 1.14733C1.03153 1.05747 1.01372 0.989439 1.00193 0.944091C0.996043 0.921417 0.99166 0.904414 0.988777 0.89319C0.987336 0.887577 0.98627 0.88341 0.985578 0.880701C0.985232 0.879346 0.984994 0.878411 0.984821 0.877732C0.984676 0.877163 0.984625 0.876961 0.5 1ZM88.7278 65.4451C104.491 57.3774 116.556 58.0065 125.82 63.3625C135.124 68.7415 141.71 78.9471 146.35 90.2524C150.986 101.546 153.65 113.863 155.155 123.367C155.907 128.117 156.368 132.16 156.642 135.014C156.779 136.44 156.868 137.57 156.924 138.342C156.952 138.728 156.971 139.025 156.983 139.225C156.989 139.325 156.994 139.4 156.997 139.451C156.998 139.476 156.999 139.495 157 139.507C157 139.514 157 139.518 157 139.521C157.001 139.523 157.001 139.524 157.001 139.525C157.001 139.525 157.001 139.526 157.5 139.5C157.999 139.474 157.999 139.474 157.999 139.473C157.999 139.472 157.999 139.471 157.999 139.469C157.999 139.465 157.999 139.46 157.998 139.454C157.998 139.44 157.996 139.421 157.995 139.394C157.992 139.342 157.988 139.265 157.981 139.163C157.969 138.96 157.949 138.66 157.921 138.27C157.865 137.491 157.775 136.354 157.637 134.918C157.362 132.047 156.898 127.984 156.142 123.211C154.631 113.668 151.952 101.267 147.275 89.8726C142.603 78.4904 135.908 68.0398 126.321 62.4968C116.694 56.931 104.259 56.3726 88.2722 64.5549L88.7278 65.4451Z" fill="#FA7846"/>
</svg>
