<svg width="56" height="203" viewBox="0 0 56 203" fill="none" xmlns="http://www.w3.org/2000/svg">
<path d="M31.5359 202.171C31.6301 202.43 31.9169 202.564 32.1765 202.47L36.4064 200.934C36.6659 200.84 36.8 200.553 36.7057 200.294C36.6115 200.034 36.3247 199.9 36.0651 199.994L32.3052 201.359L30.9402 197.599C30.846 197.34 30.5592 197.206 30.2996 197.3C30.0401 197.394 29.906 197.681 30.0003 197.941L31.5359 202.171ZM51.3104 1.20588C57.0022 13.8027 54.5185 26.7997 48.2485 39.5005C41.9747 52.2091 31.9498 64.5398 22.6816 75.7556C18.0543 81.3553 13.6136 86.6799 9.94402 91.6177C6.2776 96.5512 3.3543 101.133 1.78054 105.252C0.206176 109.373 -0.0479598 113.115 1.7609 116.287C3.56045 119.443 7.3281 121.902 13.4731 123.646L13.7461 122.684C7.69902 120.967 4.23724 118.611 2.62961 115.792C1.03128 112.989 1.1922 109.594 2.71468 105.609C4.23777 101.623 7.09311 97.1303 10.7466 92.2142C14.397 87.3022 18.8176 82.0014 23.4525 76.3926C32.7085 65.1915 42.8114 52.7733 49.1452 39.9432C55.4828 27.1053 58.0864 13.7736 52.2217 0.794119L51.3104 1.20588ZM13.4731 123.646C25.5388 127.07 32.6669 133.639 36.6109 141.545C40.565 149.471 41.3422 158.79 40.5977 167.731C39.8536 176.668 37.5931 185.184 35.5148 191.471C34.4762 194.614 33.4843 197.196 32.7526 198.992C32.3868 199.889 32.0861 200.59 31.8773 201.066C31.7728 201.303 31.6913 201.485 31.6362 201.607C31.6086 201.667 31.5876 201.713 31.5735 201.744C31.5665 201.759 31.5613 201.77 31.5578 201.778C31.5561 201.781 31.5548 201.784 31.554 201.786C31.5536 201.787 31.5533 201.787 31.5531 201.788C31.5529 201.788 31.5529 201.788 32.0059 202C32.4588 202.212 32.459 202.211 32.4593 202.211C32.4596 202.21 32.46 202.209 32.4605 202.208C32.4615 202.206 32.463 202.203 32.4649 202.199C32.4688 202.19 32.4744 202.178 32.4818 202.162C32.4966 202.13 32.5185 202.082 32.5468 202.02C32.6036 201.895 32.6867 201.709 32.7929 201.468C33.0051 200.985 33.3093 200.275 33.6787 199.369C34.4175 197.556 35.4175 194.952 36.4643 191.785C38.5568 185.454 40.8413 176.857 41.5942 167.814C42.3468 158.777 41.5729 149.252 37.5057 141.099C33.4283 132.925 26.0647 126.18 13.7461 122.684L13.4731 123.646Z" fill="#FA7846"/>
</svg>
