<svg width="76" height="34" viewBox="0 0 76 34" fill="none" xmlns="http://www.w3.org/2000/svg">
<path d="M70.0028 33.4363C70.032 33.7109 70.2783 33.9098 70.5528 33.8806L75.0276 33.405C75.3022 33.3758 75.5012 33.1295 75.472 32.8549C75.4428 32.5803 75.1965 32.3814 74.9219 32.4106L70.9444 32.8334L70.5216 28.8558C70.4924 28.5812 70.2461 28.3822 69.9715 28.4114C69.6969 28.4406 69.498 28.6869 69.5272 28.9615L70.0028 33.4363ZM1.33768 20.1831C3.21017 18.4683 5.74761 18.6906 8.95466 19.8104C10.5429 20.365 12.2389 21.1192 14.0329 21.9067C15.8188 22.6908 17.6947 23.5047 19.6112 24.1594C23.4396 25.4672 27.5063 26.1678 31.4644 24.6933C35.43 23.216 39.1723 19.5996 42.4535 12.5315L41.5465 12.1104C38.3277 19.044 34.7443 22.4043 31.1153 23.7562C27.4788 25.1109 23.6818 24.4932 19.9345 23.2131C18.0632 22.5738 16.2232 21.7762 14.4348 20.9911C12.6544 20.2095 10.9177 19.4367 9.28433 18.8663C6.04816 17.7363 2.98701 17.3167 0.662317 19.4456L1.33768 20.1831ZM42.4535 12.5315C45.6576 5.62947 49.8886 2.43104 54.1341 1.67913C58.3963 0.924256 62.8112 2.6097 66.421 5.76431C73.6674 12.097 77.3869 24.0627 70.1111 33.0692L70.8889 33.6976C78.6131 24.1362 74.5826 11.5688 67.079 5.01133C63.3138 1.72087 58.6037 -0.128038 53.9597 0.694458C49.2989 1.51993 44.8424 5.01059 41.5465 12.1104L42.4535 12.5315Z" fill="#FA7846"/>
</svg>
