<svg width="77" height="52" viewBox="0 0 77 52" fill="none" xmlns="http://www.w3.org/2000/svg">
<path d="M0.383921 51.3633C0.406025 51.4996 0.534429 51.5922 0.670719 51.5701L2.8917 51.2099C3.02799 51.1878 3.12056 51.0594 3.09845 50.9231C3.07635 50.7868 2.94794 50.6942 2.81165 50.7163L0.837449 51.0365L0.517265 49.0623C0.495161 48.926 0.366757 48.8334 0.230467 48.8555C0.0941764 48.8776 0.00161009 49.006 0.0237142 49.1423L0.383921 51.3633ZM47.1018 39.3051L46.9276 39.4844L47.1018 39.3051ZM75.2523 1.0349C77.2428 15.7147 72.5779 27.5615 66.2367 34.5658C63.0646 38.0697 59.4826 40.3518 56.1153 41.1835C52.7543 42.0136 49.6164 41.3994 47.276 39.1257L46.9276 39.4844C49.4154 41.9012 52.7413 42.5318 56.2352 41.6689C59.7229 40.8074 63.387 38.4585 66.6074 34.9014C73.0512 27.7836 77.7573 15.788 75.7478 0.967716L75.2523 1.0349ZM47.276 39.1257C41.6733 33.6828 35.9262 31.7043 30.455 31.82C24.9931 31.9355 19.8338 34.1372 15.3925 37.0038C10.95 39.8712 7.2098 43.4143 4.58201 46.2375C3.26754 47.6497 2.23005 48.8832 1.52078 49.7641C1.16612 50.2047 0.893458 50.5571 0.70919 50.7998C0.617054 50.9212 0.547012 51.0151 0.499865 51.0789C0.476291 51.1108 0.45844 51.1351 0.446413 51.1516C0.440399 51.1599 0.435841 51.1661 0.432751 51.1704C0.431207 51.1725 0.430029 51.1742 0.42922 51.1753C0.428815 51.1758 0.428485 51.1763 0.428282 51.1766C0.428045 51.1769 0.427899 51.1771 0.630696 51.3233C0.833494 51.4695 0.833533 51.4694 0.833665 51.4693C0.833832 51.469 0.834056 51.4687 0.834389 51.4682C0.835056 51.4673 0.836091 51.4659 0.837492 51.464C0.840294 51.4601 0.844561 51.4542 0.850282 51.4464C0.861722 51.4307 0.878973 51.4072 0.901934 51.3761C0.947858 51.314 1.01662 51.2218 1.10742 51.1022C1.28903 50.863 1.55878 50.5142 1.91025 50.0777C2.61325 49.2045 3.64291 47.9802 4.94799 46.5781C7.5593 43.7727 11.2678 40.2611 15.6637 37.4239C20.0608 34.5857 25.1295 32.4328 30.4655 32.3199C35.7922 32.2073 41.4127 34.1268 46.9276 39.4844L47.276 39.1257Z" fill="#FA7846"/>
</svg>
