<svg width="208" height="123" viewBox="0 0 208 123" fill="none" xmlns="http://www.w3.org/2000/svg">
<path d="M204.183 31.886C204.396 32.061 204.711 32.0298 204.886 31.8163L207.739 28.3363C207.914 28.1227 207.883 27.8077 207.67 27.6326C207.456 27.4575 207.141 27.4887 206.966 27.7023L204.43 30.7956L201.337 28.2597C201.123 28.0846 200.808 28.1158 200.633 28.3293C200.458 28.5429 200.489 28.8579 200.703 29.033L204.183 31.886ZM1 122.5C1.22808 122.945 1.22849 122.945 1.22912 122.944C1.22964 122.944 1.2305 122.944 1.23152 122.943C1.23357 122.942 1.23652 122.941 1.24037 122.939C1.24806 122.935 1.25932 122.929 1.27411 122.921C1.30368 122.906 1.34731 122.883 1.40455 122.853C1.51904 122.792 1.68793 122.701 1.9075 122.581C2.34663 122.341 2.98849 121.981 3.80314 121.502C5.43238 120.545 7.75315 119.111 10.5258 117.201C16.0703 113.382 23.4267 107.657 30.6749 100.032C45.17 84.7837 59.2597 61.9052 57.4989 31.4704L56.5006 31.5282C58.24 61.5942 44.3299 84.216 29.9501 99.3429C22.7607 106.906 15.461 112.587 9.95855 116.377C7.20779 118.272 4.90746 119.693 3.29646 120.64C2.491 121.114 1.85796 121.468 1.42722 121.704C1.21185 121.822 1.04707 121.91 0.936601 121.969C0.881369 121.998 0.839718 122.02 0.812115 122.034C0.798313 122.041 0.788024 122.047 0.781305 122.05C0.777945 122.052 0.775478 122.053 0.773911 122.054C0.773128 122.054 0.77263 122.055 0.772237 122.055C0.771964 122.055 0.771918 122.055 1 122.5ZM57.4989 31.4704C56.6248 16.3617 59.7412 9.4604 65.2376 6.84893C68.0208 5.52657 71.4946 5.25615 75.555 5.6729C79.612 6.08929 84.1995 7.18512 89.1806 8.54358C99.1158 11.2532 110.596 15.0056 122.264 16.316C133.95 17.6285 145.892 16.5031 156.773 9.41831L156.227 8.5803C145.607 15.495 133.925 16.6194 122.376 15.3223C110.809 14.0231 99.446 10.3067 89.4437 7.57881C84.4559 6.21853 79.8013 5.10346 75.6571 4.67812C71.5163 4.25313 67.8299 4.51014 64.8085 5.9457C58.6956 8.85006 55.6245 16.3865 56.5006 31.5282L57.4989 31.4704ZM156.773 9.41831C167.469 2.45366 175.725 0.421846 182.08 1.19912C188.42 1.97465 192.964 5.55903 196.22 10.0434C199.482 14.5357 201.43 19.9069 202.563 24.1746C203.129 26.305 203.489 28.1525 203.708 29.4662C203.817 30.1229 203.891 30.6457 203.937 31.0034C203.96 31.1822 203.977 31.3196 203.987 31.4118C203.992 31.4579 203.996 31.4927 203.999 31.5156C204 31.5271 204.001 31.5356 204.001 31.5411C204.002 31.5439 204.002 31.5459 204.002 31.5471C204.002 31.5478 204.002 31.5481 204.002 31.5484C204.002 31.5486 204.002 31.5486 204.5 31.4993C204.997 31.45 204.997 31.4496 204.997 31.449C204.997 31.4486 204.997 31.4478 204.997 31.4469C204.997 31.445 204.996 31.4424 204.996 31.4391C204.995 31.4324 204.994 31.4227 204.993 31.41C204.99 31.3846 204.986 31.3474 204.981 31.2988C204.97 31.2016 204.953 31.0589 204.929 30.8747C204.881 30.5062 204.805 29.9715 204.694 29.302C204.471 27.9634 204.105 26.0844 203.53 23.918C202.381 19.5921 200.393 14.0885 197.029 9.45589C193.66 4.81538 188.891 1.02482 182.201 0.206516C175.525 -0.610045 167.031 1.54541 156.227 8.5803L156.773 9.41831Z" fill="#FA7846"/>
</svg>
