<svg width="197" height="79" viewBox="0 0 197 79" fill="none" xmlns="http://www.w3.org/2000/svg">
<path d="M112.5 52.4996L112.993 52.5826L112.5 52.4996ZM196.966 62.1796C197.066 61.9219 196.938 61.6325 196.68 61.5331L192.482 59.9135C192.224 59.8141 191.934 59.9424 191.835 60.2001C191.736 60.4577 191.864 60.7471 192.122 60.8465L195.854 62.2861L194.414 66.0181C194.315 66.2757 194.443 66.5652 194.7 66.6645C194.958 66.7639 195.248 66.6356 195.347 66.378L196.966 62.1796ZM0.54998 0.717904C6.4141 12.8286 17.3675 16.7991 30.0958 17.3304C42.7903 17.8603 57.4174 14.9743 70.7502 13.253C77.4359 12.3899 83.8025 11.8171 89.4851 12.0918C95.1696 12.3665 100.125 13.4878 104.018 15.9761C111.741 20.9125 115.54 31.4252 112.007 52.4166L112.993 52.5826C116.541 31.5005 112.818 20.414 104.557 15.1335C100.458 12.5134 95.3051 11.3719 89.5334 11.0929C83.7596 10.8139 77.3217 11.3964 70.6222 12.2613C57.1846 13.996 42.7185 16.8564 30.1376 16.3313C17.5904 15.8075 7.0859 11.9214 1.45002 0.282096L0.54998 0.717904ZM112.007 52.4166C110.934 58.7928 111.444 63.7853 113.215 67.6168C114.991 71.4579 118.008 74.078 121.839 75.7473C129.461 79.0686 140.356 78.6507 151.4 76.6796C162.47 74.7038 173.797 71.1468 182.348 68.0877C186.626 66.5575 190.212 65.1505 192.73 64.1258C193.99 63.6135 194.982 63.1966 195.659 62.9077C195.998 62.7632 196.259 62.6507 196.434 62.5742C196.522 62.5359 196.589 62.5067 196.634 62.4869C196.657 62.4771 196.674 62.4696 196.685 62.4645C196.691 62.462 196.695 62.4601 196.698 62.4588C196.699 62.4581 196.701 62.4576 196.701 62.4573C196.702 62.4569 196.703 62.4567 196.5 61.9996C196.297 61.5425 196.297 61.5426 196.297 61.5429C196.296 61.5432 196.295 61.5436 196.294 61.5442C196.291 61.5454 196.287 61.5472 196.281 61.5496C196.27 61.5544 196.254 61.5617 196.232 61.5714C196.188 61.5906 196.122 61.6194 196.035 61.6572C195.862 61.7328 195.604 61.8443 195.267 61.9878C194.594 62.2748 193.607 62.6895 192.354 63.1996C189.846 64.2199 186.273 65.6216 182.011 67.1461C173.484 70.1964 162.217 73.7333 151.225 75.6951C140.207 77.6616 129.57 78.025 122.239 74.8306C118.593 73.2421 115.779 70.7801 114.123 67.1973C112.462 63.6049 111.941 58.8316 112.993 52.5826L112.007 52.4166Z" fill="#FA7846"/>
</svg>
