<svg width="164" height="41" viewBox="0 0 164 41" fill="none" xmlns="http://www.w3.org/2000/svg">
<path d="M163.747 1.53971C163.769 1.40339 163.676 1.27511 163.54 1.25317L161.318 0.895776C161.182 0.873852 161.054 0.966583 161.032 1.1029C161.01 1.23921 161.103 1.3675 161.239 1.38943L163.213 1.70711L162.896 3.68173C162.874 3.81804 162.967 3.94632 163.103 3.96826C163.239 3.99019 163.368 3.89746 163.389 3.76115L163.747 1.53971ZM1 21C1.09813 21.2299 1.09838 21.2298 1.09893 21.2296C1.09952 21.2293 1.10037 21.229 1.10153 21.2285C1.10385 21.2275 1.10736 21.226 1.11205 21.224C1.12143 21.22 1.13552 21.214 1.15425 21.2061C1.19171 21.1903 1.24771 21.1667 1.32165 21.1357C1.46952 21.0738 1.68912 20.9824 1.97553 20.8649C2.54835 20.6298 3.38841 20.2901 4.45639 19.8719C6.59241 19.0355 9.63989 17.8853 13.2845 16.6306C20.5752 14.1208 30.2488 11.1955 39.7931 9.52666C49.3478 7.85596 58.7289 7.45294 65.46 9.94802C68.818 11.1928 71.5049 13.1545 73.2329 16.0313C74.9618 18.9094 75.7475 22.7308 75.2512 27.7243L75.7488 27.7737C76.2525 22.7045 75.4601 18.7679 73.6616 15.7739C71.8623 12.7785 69.0726 10.7539 65.6338 9.47919C58.771 6.9353 49.2772 7.36072 39.7069 9.03413C30.1261 10.7094 20.4247 13.6439 13.1217 16.1579C9.46948 17.4151 6.4154 18.5678 4.27408 19.4063C3.20339 19.8255 2.36083 20.1663 1.7857 20.4023C1.49814 20.5203 1.27743 20.6121 1.12848 20.6745C1.05401 20.7057 0.997484 20.7296 0.95951 20.7456C0.940523 20.7536 0.926175 20.7597 0.916542 20.7638C0.911726 20.7659 0.908089 20.7674 0.90564 20.7685C0.904416 20.769 0.903473 20.7694 0.90286 20.7696C0.902215 20.7699 0.901869 20.7701 1 21ZM75.2512 27.7243C74.7475 32.7928 75.7482 36.2491 77.9603 38.3585C80.1677 40.4635 83.5199 41.167 87.5803 40.8779C95.6988 40.2998 106.864 35.7378 118.115 29.9409C129.375 24.1384 140.759 17.0786 149.324 11.4709C153.608 8.66671 157.188 6.225 159.697 4.48422C160.952 3.61382 161.939 2.91861 162.612 2.44092C162.949 2.20207 163.208 2.01759 163.382 1.89278C163.469 1.83037 163.535 1.78288 163.579 1.75096C163.602 1.735 163.618 1.72295 163.629 1.71486C163.635 1.71082 163.639 1.70776 163.642 1.70572C163.644 1.7047 163.645 1.70392 163.645 1.70341C163.646 1.70288 163.646 1.70261 163.5 1.5C163.354 1.29738 163.353 1.29762 163.353 1.29811C163.352 1.29861 163.351 1.29935 163.349 1.30034C163.347 1.30234 163.343 1.30534 163.337 1.30933C163.326 1.31731 163.309 1.32927 163.287 1.34512C163.243 1.37683 163.177 1.42411 163.091 1.48629C162.917 1.61067 162.659 1.7947 162.323 2.03308C161.651 2.50986 160.665 3.20405 159.412 4.07339C156.906 5.81209 153.33 8.25124 149.051 11.0525C140.491 16.6558 129.125 23.7052 117.885 29.4964C106.636 35.2931 95.5512 39.809 87.5447 40.3791C83.5426 40.6641 80.3635 39.9592 78.3053 37.9966C76.2518 36.0384 75.2525 32.768 75.7488 27.7737L75.2512 27.7243Z" fill="#FA7846"/>
</svg>
