<svg width="77" height="36" viewBox="0 0 77 36" fill="none" xmlns="http://www.w3.org/2000/svg">
<path d="M0.762755 35.5791C0.806509 35.71 0.948139 35.7807 1.07909 35.737L3.21314 35.024C3.34409 34.9802 3.41478 34.8386 3.37103 34.7076C3.32727 34.5767 3.18564 34.506 3.05469 34.5497L1.15776 35.1835L0.523972 33.2866C0.480218 33.1556 0.338588 33.0849 0.207632 33.1287C0.0766767 33.1724 0.00598623 33.3141 0.0497404 33.445L0.762755 35.5791ZM43.4998 16.5005L43.3256 16.6798L43.4998 16.5005ZM75.752 0.533909C76.7476 7.87635 75.8184 13.088 73.7511 16.6391C71.6877 20.1834 68.4724 22.1048 64.8219 22.8356C61.1654 23.5677 57.0742 23.1036 53.2918 21.8689C49.5094 20.6341 46.0561 18.6354 43.674 16.3212L43.3256 16.6798C45.7717 19.0561 49.2951 21.0901 53.1367 22.3442C56.9783 23.5982 61.1587 24.079 64.9201 23.3259C68.6876 22.5716 72.0366 20.5778 74.1832 16.8906C76.3258 13.2102 77.2519 7.87427 76.2475 0.466729L75.752 0.533909ZM43.674 16.3212C38.0682 10.8752 32.5567 9.32678 27.4409 10.1091C22.3419 10.8888 17.679 13.9776 13.7395 17.7185C9.79699 21.4622 6.55681 25.88 4.30384 29.3576C3.17681 31.0973 2.29559 32.6036 1.69588 33.6754C1.396 34.2114 1.16645 34.6388 1.01169 34.9326C0.934307 35.0796 0.87562 35.1931 0.836184 35.27C0.816466 35.3085 0.801561 35.3379 0.791538 35.3577C0.786526 35.3676 0.782736 35.3751 0.780174 35.3802C0.778893 35.3828 0.777919 35.3847 0.777254 35.3861C0.776921 35.3867 0.776654 35.3873 0.776488 35.3876C0.776297 35.388 0.776185 35.3882 0.99987 35.4998C1.22356 35.6115 1.2236 35.6114 1.22372 35.6112C1.22386 35.6109 1.22406 35.6105 1.22434 35.6099C1.22491 35.6088 1.22579 35.607 1.22697 35.6047C1.22934 35.6 1.23293 35.5928 1.23775 35.5833C1.24738 35.5643 1.26188 35.5357 1.28118 35.498C1.31979 35.4227 1.3776 35.3108 1.45407 35.1657C1.60702 34.8753 1.83456 34.4516 2.13222 33.9196C2.72759 32.8555 3.60326 31.3586 4.72348 29.6295C6.96499 26.1695 10.1807 21.7873 14.0838 18.0811C17.9898 14.372 22.5623 11.3609 27.5165 10.6033C32.454 9.84831 37.8138 11.3252 43.3256 16.6798L43.674 16.3212Z" fill="#FA7846"/>
</svg>
