<svg width="208" height="329" viewBox="0 0 208 329" fill="none" xmlns="http://www.w3.org/2000/svg">
<path d="M172.879 328.482C173.147 328.549 173.418 328.386 173.485 328.118L174.576 323.752C174.643 323.484 174.48 323.213 174.213 323.146C173.945 323.079 173.673 323.242 173.606 323.51L172.636 327.39L168.756 326.42C168.488 326.353 168.216 326.516 168.149 326.784C168.082 327.052 168.245 327.324 168.513 327.391L172.879 328.482ZM1.11292 4.98393C35.5105 -2.99059 59.8922 3.2699 74.6011 22.7371C89.3569 42.2664 94.4997 75.2253 90.0024 120.948L90.9976 121.046C95.5003 75.2683 90.3931 41.9791 75.3989 22.1342C60.3578 2.22729 35.4895 -4.01223 0.887078 4.00976L1.11292 4.98393ZM90.0024 120.948C88.8702 132.459 90.6339 141.182 94.5141 147.734C98.396 154.289 104.363 158.615 111.53 161.39C125.831 166.927 145.019 166.332 162.353 164.925C171.052 164.219 179.255 163.31 186.231 162.848C193.219 162.385 198.843 162.381 202.364 163.441C204.117 163.969 205.261 164.734 205.831 165.751C206.395 166.757 206.464 168.131 205.795 170.032C204.445 173.866 200.211 179.507 192.145 187.637L192.855 188.341C200.914 180.218 205.305 174.435 206.738 170.364C207.46 168.313 207.461 166.613 206.703 165.262C205.951 163.921 204.519 163.045 202.652 162.483C198.931 161.364 193.129 161.388 186.165 161.85C179.191 162.312 170.917 163.226 162.272 163.928C144.918 165.337 125.95 165.901 111.892 160.457C104.879 157.742 99.1158 153.542 95.3746 147.225C91.6317 140.905 89.8798 132.41 90.9976 121.046L90.0024 120.948ZM192.145 187.637C159.768 220.271 154.864 255.435 158.066 282.431C159.666 295.922 163.289 307.371 166.512 315.448C168.124 319.487 169.636 322.684 170.746 324.873C171.302 325.968 171.757 326.811 172.073 327.381C172.232 327.667 172.355 327.884 172.44 328.03C172.482 328.103 172.515 328.159 172.537 328.196C172.548 328.215 172.556 328.229 172.562 328.239C172.565 328.243 172.567 328.247 172.569 328.25C172.569 328.251 172.57 328.252 172.57 328.253C172.571 328.254 172.571 328.254 173 327.997C173.429 327.74 173.429 327.739 173.428 327.739C173.428 327.739 173.428 327.738 173.427 327.737C173.426 327.735 173.424 327.732 173.422 327.728C173.417 327.719 173.409 327.706 173.398 327.688C173.378 327.653 173.347 327.6 173.306 327.529C173.224 327.388 173.103 327.176 172.947 326.896C172.637 326.336 172.188 325.504 171.638 324.421C170.54 322.255 169.04 319.085 167.441 315.077C164.242 307.061 160.646 295.697 159.059 282.313C155.886 255.558 160.732 220.718 192.855 188.341L192.145 187.637Z" fill="#FA7846"/>
</svg>
