<svg width="107" height="132" viewBox="0 0 107 132" fill="none" xmlns="http://www.w3.org/2000/svg">
<path d="M103.351 0.644447C103.155 0.450296 102.838 0.452091 102.644 0.648457L99.4804 3.84843C99.2863 4.0448 99.2881 4.36138 99.4844 4.55553C99.6808 4.74968 99.9974 4.74788 100.192 4.55152L103.004 1.7071L105.848 4.51944C106.045 4.71359 106.361 4.71179 106.555 4.51543C106.75 4.31906 106.748 4.00248 106.551 3.80833L103.351 0.644447ZM1.17676 131.468C11.8941 127.417 18.2677 118.432 22.4869 107.762C26.7025 97.1014 28.8018 84.6672 30.914 73.6268C31.9723 68.0951 33.0329 62.9151 34.3622 58.4538C35.6933 53.9865 37.2807 50.2866 39.3685 47.6885C41.4407 45.1099 43.9978 43.6233 47.3199 43.5395C50.674 43.4549 54.8732 44.7983 60.2053 48.0451L60.7254 47.191C55.3207 43.9 50.9253 42.4482 47.2946 42.5398C43.632 42.6322 40.8142 44.2931 38.589 47.0621C36.3796 49.8116 34.7473 53.6593 33.4038 58.1682C32.0586 62.6832 30.9899 67.9081 29.9318 73.4388C27.8113 84.523 25.7294 96.8429 21.5569 107.395C17.388 117.937 11.1666 126.623 0.823243 130.532L1.17676 131.468ZM60.2053 48.0451C71.0267 54.6346 79.2481 55.0657 85.4618 51.8096C91.6329 48.5757 95.6636 41.7811 98.3093 34.2822C100.961 26.7665 102.257 18.4426 102.891 12.0107C103.208 8.79206 103.36 6.04134 103.433 4.09445C103.47 3.12091 103.486 2.34808 103.494 1.81794C103.498 1.55286 103.499 1.34843 103.5 1.20989C103.5 1.14062 103.5 1.08782 103.5 1.05215C103.5 1.03431 103.5 1.02076 103.5 1.01157C103.5 1.00697 103.5 1.00347 103.5 1.00106C103.5 0.99986 103.5 0.998886 103.5 0.998284C103.5 0.997586 103.5 0.997164 103 1C102.5 1.00284 102.5 1.00297 102.5 1.00338C102.5 1.00389 102.5 1.00457 102.5 1.00558C102.5 1.0076 102.5 1.01071 102.5 1.01492C102.5 1.02333 102.5 1.0361 102.5 1.05314C102.5 1.08722 102.5 1.1384 102.5 1.20602C102.499 1.34126 102.498 1.54225 102.494 1.80377C102.487 2.32681 102.47 3.09186 102.434 4.05704C102.362 5.98758 102.211 8.71769 101.896 11.9126C101.265 18.3078 99.9798 26.5418 97.3663 33.9495C94.7468 41.3741 90.828 47.8685 84.9976 50.9238C79.2098 53.9568 71.3776 53.6774 60.7254 47.191L60.2053 48.0451Z" fill="#FA7846"/>
</svg>
