<svg width="121" height="73" viewBox="0 0 121 73" fill="none" xmlns="http://www.w3.org/2000/svg">
<path d="M120.422 68.0227C120.57 67.7896 120.501 67.4807 120.268 67.3326L116.469 64.9203C116.236 64.7722 115.927 64.8412 115.779 65.0743C115.631 65.3074 115.7 65.6164 115.933 65.7644L119.31 67.9087L117.166 71.2854C117.018 71.5185 117.086 71.8275 117.32 71.9755C117.553 72.1236 117.862 72.0546 118.01 71.8215L120.422 68.0227ZM1.64012 5.49558C1.40429 4.90496 1.45011 4.4143 1.70032 3.9788C1.96474 3.51857 2.48855 3.0679 3.30701 2.66027C4.9443 1.84482 7.56287 1.29877 10.8501 1.09596C17.4052 0.691528 26.4112 1.66305 34.9955 4.32335C43.588 6.98619 51.684 11.3179 56.4985 17.5783C61.2827 23.7994 62.8753 31.9865 58.36 42.5293L59.2792 42.923C63.9237 32.0788 62.3161 23.5027 57.2912 16.9687C52.2966 10.4741 43.9746 6.05909 35.2915 3.36817C26.6002 0.674707 17.4731 -0.314564 10.7885 0.0978583C7.45591 0.303472 4.67805 0.860264 2.86119 1.76515C1.95258 2.21768 1.23489 2.78156 0.833244 3.48063C0.417392 4.20443 0.372586 5.01783 0.711423 5.86641L1.64012 5.49558ZM58.36 42.5293C56.0488 47.9257 55.2581 52.4173 55.6921 56.1403C56.1276 59.8766 57.7927 62.8024 60.3176 65.0552C65.3313 69.5286 73.7052 71.3239 82.5141 71.78C91.3518 72.2375 100.752 71.3515 107.933 70.3543C111.526 69.8554 114.568 69.3279 116.712 68.9251C117.784 68.7236 118.632 68.5533 119.213 68.4332C119.503 68.3731 119.727 68.3256 119.878 68.2931C119.953 68.2768 120.011 68.2643 120.05 68.2558C120.069 68.2515 120.084 68.2483 120.094 68.2461C120.099 68.245 120.102 68.2442 120.105 68.2436C120.106 68.2433 120.107 68.2431 120.108 68.2429C120.109 68.2428 120.109 68.2427 120 67.7547C119.891 67.2667 119.891 67.2668 119.89 67.2669C119.89 67.267 119.889 67.2672 119.888 67.2674C119.886 67.2679 119.882 67.2687 119.877 67.2697C119.868 67.2718 119.854 67.2749 119.835 67.279C119.798 67.2872 119.742 67.2995 119.667 67.3155C119.519 67.3475 119.298 67.3944 119.01 67.4539C118.435 67.5729 117.593 67.742 116.527 67.9422C114.396 68.3427 111.37 68.8675 107.796 69.3638C100.643 70.3571 91.3131 71.2342 82.5658 70.7813C73.7896 70.3269 65.7235 68.5384 60.9833 64.309C58.6313 62.2103 57.091 59.5049 56.6854 56.0245C56.2781 52.5307 57.0106 48.22 59.2792 42.923L58.36 42.5293Z" fill="#FA7846"/>
</svg>
