<svg width="80" height="124" viewBox="0 0 80 124" fill="none" xmlns="http://www.w3.org/2000/svg">
<path d="M67.0415 123.199C67.1516 123.453 67.4461 123.569 67.6994 123.459L71.8263 121.665C72.0796 121.554 72.1956 121.26 72.0855 121.007C71.9755 120.753 71.6809 120.637 71.4277 120.747L67.7593 122.342L66.1646 118.674C66.0545 118.42 65.76 118.304 65.5067 118.415C65.2535 118.525 65.1374 118.819 65.2475 119.072L67.0415 123.199ZM1.02004 0.360006C0.120678 3.44368 -0.313516 9.04492 0.313049 15.4534C0.940561 21.8715 2.63703 29.1542 6.04305 35.5952C9.45158 42.0409 14.5819 47.6595 22.074 50.6983C29.5649 53.7367 39.3515 54.1697 52.0237 50.3691L51.7364 49.4112C39.2186 53.1655 29.6753 52.7023 22.4499 49.7716C15.2257 46.8415 10.2535 41.4182 6.92706 35.1277C3.59808 28.8325 1.92705 21.6846 1.3083 15.3561C0.688615 9.01795 1.12942 3.55657 1.98005 0.639994L1.02004 0.360006ZM52.0237 50.3691C58.271 48.4954 63.1412 48.2416 66.8947 49.1785C70.6319 50.1113 73.3015 52.2336 75.1503 55.2033C78.8782 61.1916 79.2811 70.6474 78.0861 80.72C76.8949 90.7602 74.1339 101.283 71.6662 109.305C70.433 113.314 69.2745 116.693 68.4245 119.07C67.9995 120.259 67.6517 121.197 67.4103 121.837C67.2896 122.156 67.1956 122.402 67.1318 122.567C67.0999 122.65 67.0755 122.713 67.0592 122.754C67.0511 122.775 67.0449 122.791 67.0409 122.801C67.0388 122.807 67.0373 122.811 67.0363 122.813C67.0358 122.814 67.0354 122.815 67.0352 122.816C67.035 122.816 67.0349 122.817 67.5001 123C67.9653 123.183 67.9654 123.183 67.9657 123.182C67.966 123.181 67.9664 123.18 67.967 123.179C67.9681 123.176 67.9697 123.172 67.9719 123.166C67.9762 123.155 67.9825 123.139 67.9909 123.118C68.0076 123.075 68.0324 123.011 68.0647 122.927C68.1294 122.76 68.2244 122.512 68.346 122.189C68.5892 121.544 68.939 120.601 69.3661 119.407C70.2202 117.019 71.3837 113.624 72.622 109.599C75.0975 101.552 77.8778 90.9638 79.0791 80.8378C80.2766 70.7442 79.9232 60.9781 75.9992 54.6748C74.0221 51.4989 71.1418 49.2079 67.1369 48.2083C63.1484 47.2128 58.0842 47.5074 51.7364 49.4112L52.0237 50.3691Z" fill="#FA7846"/>
</svg>
