<svg width="129" height="126" viewBox="0 0 129 126" fill="none" xmlns="http://www.w3.org/2000/svg">
<g clip-path="url(#clip0)">
    <path d="M51.1976 98.2384C50.248 100.426 49.1057 102.468 47.9178 104.477C46.7133 106.473 45.4569 108.428 44.1073 110.315C42.795 112.23 41.3749 114.063 39.8055 115.782C38.2381 117.504 36.5278 119.119 34.9605 120.842L33.275 122.694L33.4781 120.355C33.702 117.755 33.6523 115.16 33.4802 112.566C33.3973 111.268 33.2542 109.973 33.0987 108.677L32.9806 107.705C32.9453 107.408 32.8873 107.421 32.8064 107.302C32.653 107.143 32.4229 107.095 32.2446 107.145C32.2011 107.157 32.1617 107.176 32.1264 107.195C32.1015 107.207 32.1098 107.211 32.0601 107.228L31.8279 107.3L30.895 107.593C30.2751 107.798 29.6448 107.957 29.0208 108.14L25.258 109.166C22.7474 109.84 20.2347 110.501 17.6951 111.044L10.9531 112.489L15.5638 107.408C17.9418 104.788 20.4171 102.256 23.0128 99.8306C25.5918 97.3905 28.2848 95.052 31.1665 92.8813L31.4755 93.1571C29.6573 96.2731 27.6504 99.2211 25.5296 102.07C23.4232 104.931 21.2008 107.688 18.8768 110.354L16.7435 106.716C19.2748 106.141 21.8352 105.685 24.3956 105.244L28.2413 104.595C28.884 104.499 29.5225 104.379 30.1714 104.305L31.1417 104.178L31.3842 104.147C31.492 104.13 31.66 104.108 31.7968 104.099C32.085 104.083 32.3711 104.108 32.6509 104.164C33.7622 104.377 34.7241 105.163 35.1284 106.185C35.3336 106.651 35.3937 107.319 35.3398 107.671L35.2445 108.646C35.118 109.946 35.004 111.246 34.9501 112.545C34.8381 115.143 34.8464 117.741 35.1305 120.334L33.6481 119.849C34.8692 117.867 35.9473 115.775 37.1684 113.793C38.3853 111.807 39.7536 109.935 41.2318 108.146C42.6706 106.326 44.2006 104.578 45.7845 102.868C47.3871 101.172 49.0311 99.5072 50.87 97.9896L51.1976 98.2384Z" fill="#1E2533"/>
    <path d="M94.0001 100.857C95.5384 101.844 96.9274 102.961 98.2853 104.108C99.6329 105.264 100.912 106.479 102.166 107.719L106.051 111.557L100.481 110.592C97.9204 110.149 95.3642 109.68 92.9054 108.768C91.6698 108.341 90.4508 107.841 89.2235 107.377C88.6057 107.161 87.9941 106.919 87.3721 106.728C86.7502 106.568 86.0722 106.243 85.7177 106.301C85.2803 106.326 84.847 106.612 84.6811 107.014C84.592 107.234 84.5588 107.387 84.5713 107.692C84.5692 108.018 84.5837 108.341 84.6044 108.667C84.6604 109.966 84.7786 111.264 84.9341 112.564C85.243 115.164 85.5809 117.764 85.6618 120.361L85.8276 125.66L82.2659 121.475C79.3282 118.025 76.4196 114.552 73.9711 110.736C71.4999 106.935 69.1469 103.044 67.2914 98.7795L67.6231 98.5308C71.2076 101.495 74.2925 104.833 77.2613 108.26C80.2508 111.671 82.7821 115.427 85.2844 119.204L81.8886 120.318C82.0296 117.722 82.4235 115.129 82.7925 112.537C82.977 111.241 83.1263 109.944 83.2113 108.648C83.2382 108.324 83.261 107.999 83.2652 107.676C83.2569 107.331 83.346 106.83 83.543 106.465C83.9369 105.689 84.6957 105.142 85.5457 105.003C86.4993 104.9 87.0674 105.128 87.7183 105.169C88.3631 105.256 89.0203 105.293 89.6713 105.358C90.9795 105.453 92.2959 105.511 93.5958 105.644C96.2101 105.849 98.7248 106.498 101.235 107.172L99.55 110.047C98.4657 108.656 97.4084 107.244 96.4174 105.77C95.4389 104.286 94.4914 102.775 93.6912 101.133L94.0001 100.857Z" fill="#1E2533"/>
    <path opacity="0.2" d="M59.1643 73.9702C46.5801 73.9702 36.3801 63.7702 36.3801 51.186C36.3801 38.6019 46.5801 28.4019 59.1643 28.4019C71.7484 28.4019 81.9485 38.6019 81.9485 51.186C81.9485 51.186 81.9485 51.186 81.9485 51.1881C81.934 63.764 71.7422 73.9557 59.1643 73.9702Z" fill="url(#paint0_linear)"/>
    <path d="M59.038 73.9222C52.5593 73.8787 45.8567 71.8801 40.6323 67.3938C35.3561 63.0069 32.2795 55.9229 32.5822 48.9881C32.7522 45.528 33.6436 42.1363 35.1239 39.0825C36.6186 36.0308 38.6794 33.3273 41.0718 31.0261C45.8609 26.4361 52.2379 23.4777 59.0297 23.119C62.4069 22.949 65.8836 23.3906 69.1302 24.5972C72.3809 25.7851 75.3808 27.6924 77.8956 30.1118C82.9603 34.9154 86.0597 41.8958 85.9768 48.9736C85.8939 52.4918 85.1973 56.0182 83.7212 59.2006C82.2948 62.4016 80.0931 65.2128 77.483 67.4228C72.2234 71.8884 65.5249 73.918 59.038 73.9222ZM59.038 73.5075C62.2472 73.4619 65.4482 72.7343 68.2823 71.2996C71.1287 69.8961 73.5813 67.8395 75.555 65.4947C79.4276 60.7368 81.6397 54.8967 81.5568 48.9757C81.5153 43.0837 79.2846 37.2 75.1403 32.8712C71.0002 28.5798 65.2305 25.7831 59.0317 25.3892C55.9489 25.2523 52.7708 25.6338 49.8393 26.7906C46.8995 27.9101 44.2085 29.7076 42.0234 31.9777C37.6262 36.5698 35.6982 43.0028 36.034 48.9881C36.2952 55.0231 38.5446 60.8031 42.4733 65.5528C44.4698 67.8851 46.9265 69.9375 49.7792 71.3411C52.6173 72.7736 55.8266 73.4847 59.038 73.5075Z" fill="url(#paint1_linear)"/>
    <path d="M64.1071 50.8272C63.6241 51.2833 63.4022 51.9529 63.5183 52.608L64.3455 57.2872L59.9359 55.0378C59.372 54.7496 58.7024 54.7496 58.1364 55.0378L53.7267 57.2872L54.5539 52.608C54.67 51.9529 54.4482 51.2833 53.9651 50.8272L50.5195 47.5661L55.3376 46.8861C55.9782 46.7969 56.5317 46.3989 56.8261 45.8225L59.0361 41.4751L61.2461 45.8225C61.5385 46.3989 62.0941 46.7949 62.7347 46.8861L67.5527 47.5661L64.1071 50.8272Z" stroke="url(#paint2_linear)" stroke-width="2" stroke-miterlimit="10"/>
    <path d="M72.7919 87.3524C71.351 86.7159 69.7464 86.5936 68.2724 86.8922L68.3118 86.8839C67.0368 87.2612 66.0147 88.2377 65.1357 89.3344C64.2483 90.4414 63.4875 91.6853 62.6064 92.9251C62.1607 93.5471 61.7108 94.1607 61.0764 94.7661C60.9064 94.9195 60.7364 95.0729 60.4897 95.2263C60.2969 95.359 59.8574 95.5912 59.3059 95.5332C58.3377 95.33 58.1615 94.9962 57.7676 94.7308C56.4967 93.6175 55.6032 92.4234 54.6495 91.3225C53.7187 90.2279 52.7795 89.1851 51.7637 88.559C50.7375 87.9267 49.8045 87.8168 48.627 88.1112C47.466 88.4159 46.2283 89.0441 44.9575 89.7366C43.6368 90.4249 42.4323 91.2127 40.6059 91.7766C40.3633 91.8429 40.0876 91.9051 39.7082 91.9258C39.3557 91.9279 38.6985 91.9528 38.004 91.3723C37.2328 90.5803 37.1955 90.1802 36.9819 89.7366C36.6648 88.8949 36.4699 88.1423 36.2874 87.3897C35.9433 85.8908 35.6821 84.4893 35.2633 83.2641C34.8466 82.0368 34.2744 81.0956 33.5197 80.6312C32.7589 80.1315 31.5647 79.9242 30.2317 79.9035C28.8945 79.8558 27.4536 79.9719 25.878 79.9864C25.0757 79.9802 24.3231 79.9968 23.3052 79.8185C23.0274 79.7542 22.7641 79.7169 22.2914 79.4889C22.1131 79.4163 21.6861 79.1302 21.4394 78.7902C21.3253 78.6306 21.2092 78.4315 21.1429 78.276C21.0952 78.1517 21.0517 78.021 21.0164 77.8925C20.8278 77.0114 20.9356 76.6113 20.9687 76.1324C21.2113 74.3971 21.6923 72.9812 22.0468 71.5963C22.4013 70.2301 22.6791 68.9198 22.5983 67.8355C22.6066 65.7935 20.1416 64.3961 17.4692 63.2103C16.8037 62.9035 16.1092 62.5842 15.4209 62.2317C14.7161 61.8461 14.063 61.5517 13.2586 60.8489C13.0762 60.6437 12.7424 60.4074 12.5931 59.7004C12.533 58.9997 12.7092 58.7965 12.8004 58.5228C13.0223 58.046 13.2586 57.7143 13.4991 57.3805C13.978 56.7316 14.4776 56.1573 14.9814 55.5934C15.9848 54.4781 16.9841 53.4373 17.7636 52.3075C18.5494 51.1879 19.0448 49.9606 18.8355 48.7457C18.6447 47.5122 17.8735 46.3056 16.9986 45.182C16.1217 44.0479 15.0747 42.9927 14.1418 41.7861C13.6919 41.1268 13.1798 40.6811 12.9103 39.5595C12.8378 39.1552 13.1156 38.7054 13.2793 38.5644C13.4535 38.3736 13.6235 38.2493 13.7956 38.1269C14.1356 37.8885 14.4735 37.6978 14.8135 37.5174C16.159 36.7897 17.5418 36.2404 18.8396 35.6039C20.127 34.9716 21.3855 34.2542 22.2106 33.2425C23.0461 32.2412 23.2617 30.9517 23.0875 29.5834C22.9383 28.2172 22.4905 26.8344 22.053 25.4184C21.8353 24.7031 21.6218 23.9775 21.4539 23.2125C21.3709 22.8269 21.2963 22.4351 21.2631 21.9956C21.2486 21.7696 21.2341 21.5478 21.2756 21.2534C21.2839 21.1269 21.3378 20.932 21.3958 20.7662C21.4953 20.5402 21.6363 20.3329 21.8167 20.1836C22.4822 19.6881 22.8761 19.6985 23.3114 19.5845C23.7323 19.5078 24.1283 19.4663 24.518 19.4373C25.2996 19.3792 26.0584 19.3689 26.8068 19.3626C28.2871 19.3543 29.7362 19.3668 31.0299 19.1242C32.3546 18.8879 33.3311 18.3882 33.953 17.474C34.5999 16.5535 34.9523 15.2619 35.2073 13.8874C35.4665 12.5066 35.6219 11.0264 36.0304 9.44249C36.1382 9.0403 36.2522 8.63396 36.4595 8.15505C36.5735 7.91042 36.6793 7.65749 36.9861 7.28639C37.1043 7.12883 37.409 6.8531 37.7532 6.69554C37.9107 6.6292 38.0766 6.57529 38.2424 6.53798C38.3731 6.51517 38.4809 6.5048 38.6011 6.49444C39.4573 6.47371 39.8201 6.63749 40.2824 6.75359C40.7074 6.8842 41.091 7.03139 41.4642 7.18066C42.9485 7.78395 44.2609 8.49091 45.5255 9.01957C46.7818 9.55859 48.0175 9.91518 48.9587 9.82603C50.7084 9.79079 52.4084 7.50407 54.1333 5.08468C54.5894 4.46895 55.0559 3.84907 55.6302 3.20638C55.9245 2.88297 56.221 2.55955 56.6916 2.1926C56.9591 2.00809 57.1788 1.80699 57.7655 1.60382C58.4227 1.33016 59.4655 1.54784 59.7993 1.76138C60.5374 2.14906 60.8463 2.47663 61.2008 2.79382C61.5325 3.11102 61.8165 3.41577 62.086 3.72053C62.623 4.3259 63.1081 4.93334 63.5683 5.50968C64.4805 6.64785 65.3554 7.72798 66.2469 8.43908C67.1819 9.16676 67.8453 9.40725 68.7637 9.29944C69.7112 9.19993 70.9032 8.68371 72.1409 8.06176C73.3993 7.43359 74.6909 6.66859 76.3059 6.01968C76.7309 5.86005 77.1559 5.69834 77.7965 5.58017C78.1117 5.53249 78.5159 5.45578 79.2167 5.59675C79.5898 5.67139 80.0563 5.88907 80.4315 6.21871C80.6679 6.43639 80.8752 6.69139 80.9664 6.84273C81.4101 7.53517 81.522 7.94773 81.6858 8.38932C81.8289 8.81847 81.9387 9.21859 82.0403 9.61042C82.4363 11.1757 82.6726 12.6165 83.0064 13.8874C83.334 15.1582 83.8005 16.2176 84.3913 16.7795C84.9303 17.3289 85.8778 17.6585 87.1424 17.7684C88.3884 17.8865 89.8106 17.8098 91.3302 17.7704C92.1035 17.7518 92.8851 17.7559 93.7496 17.8202C94.1933 17.8617 94.6245 17.8948 95.2713 18.0773C95.5906 18.2162 96.1006 18.2556 96.7951 19.0828C97.3466 19.9265 97.2616 20.2728 97.3321 20.648C97.3715 21.9064 97.16 22.6009 96.9962 23.4178C96.8179 24.1952 96.6085 24.9353 96.4137 25.6361C96.026 27.0355 95.688 28.3644 95.6673 29.5025C95.6632 30.6594 95.8974 31.385 96.6977 32.1603C97.4813 32.9316 98.7024 33.5701 99.9878 34.1713C101.286 34.7891 102.693 35.3302 104.132 36.23C104.511 36.5016 104.856 36.6467 105.411 37.3412C105.523 37.4718 105.751 37.8947 105.782 38.243C105.832 38.6722 105.77 38.8671 105.722 39.0993C105.616 39.4517 105.49 39.7067 105.37 39.9161C104.889 40.7454 104.393 41.3134 103.89 41.9146C102.878 43.0881 101.856 44.1122 101.01 45.2006C100.17 46.2787 99.5213 47.4168 99.4737 48.5405C99.4073 49.6642 99.992 50.8811 100.771 52.0297C101.551 53.1927 102.525 54.2956 103.448 55.4939C103.906 56.0972 104.36 56.7026 104.75 57.4178C104.845 57.6044 104.939 57.7889 105.015 58.0232C105.082 58.2139 105.187 58.6016 104.995 58.9852C104.638 59.547 104.296 59.6672 103.956 59.8994C102.6 60.6727 101.192 61.1226 99.8199 61.6658L99.7991 61.1931L100.585 61.5497L100.415 61.9291L99.6188 61.6761L99.0487 61.4937L99.598 61.2034C100.906 60.511 102.258 59.8704 103.411 59.0743C103.672 58.896 103.985 58.6058 103.999 58.5228C104.004 58.6763 103.9 58.2575 103.709 58.0253C103.34 57.4759 102.857 56.9286 102.368 56.402C101.385 55.3426 100.295 54.3247 99.3078 53.116C98.3458 51.926 97.3963 50.4167 97.3341 48.5384C97.301 46.6643 98.1655 45.0762 99.0279 43.7826C99.9132 42.4744 100.91 41.3341 101.75 40.2063C102.163 39.6507 102.583 39.0516 102.807 38.5789C102.865 38.4628 102.882 38.3757 102.882 38.3757C102.865 38.4255 102.847 38.44 102.865 38.6846C102.874 38.8526 103.01 39.091 103.01 39.091C103.108 39.2029 102.805 38.95 102.561 38.836C101.443 38.2472 100.075 37.7413 98.6693 37.1754C97.2657 36.5845 95.7585 35.9646 94.3384 34.7456C93.6356 34.1444 92.9805 33.3358 92.5596 32.3842C92.1305 31.4368 91.9833 30.4438 91.9584 29.5336C91.9397 27.7092 92.3316 26.1398 92.6695 24.6845C92.8436 23.9568 93.0116 23.2664 93.1401 22.6009C93.2686 21.9748 93.3619 21.2036 93.3246 20.9839C93.3516 21.0004 93.2293 20.9569 93.5568 21.5001C94.0191 22.0329 94.158 21.9458 94.1332 21.9707C94.0668 21.9562 93.7579 21.9126 93.4677 21.9043C92.8582 21.8774 92.1616 21.9023 91.4588 21.9313C90.0283 21.9893 88.4921 22.12 86.792 22.0018C85.1439 21.8919 83.0458 21.4545 81.4163 19.9307C79.8428 18.4318 79.2042 16.6157 78.7502 15.067C78.2962 13.4914 78.0702 12.007 77.7385 10.7092C77.6576 10.3879 77.5706 10.0748 77.4793 9.80323C77.4047 9.5503 77.2617 9.26005 77.2969 9.33469C77.2969 9.33469 77.3736 9.44664 77.4814 9.53164C77.7115 9.7431 78.0184 9.87371 78.205 9.9131C78.545 9.98359 78.5719 9.92762 78.5263 9.95042C78.4392 9.96286 78.1635 10.0437 77.9002 10.1474C76.7662 10.591 75.4953 11.3125 74.1146 12.007C72.7214 12.6912 71.1707 13.4354 69.1597 13.6282C68.1708 13.7236 67.0347 13.6034 66.0458 13.2198C65.0486 12.8529 64.2235 12.291 63.5331 11.7064C62.1461 10.5205 61.2111 9.2331 60.301 8.05969C59.8532 7.4709 59.4282 6.91322 58.997 6.40529C58.7835 6.15236 58.5678 5.9098 58.3709 5.71285C58.1926 5.52212 57.9438 5.34797 58.0267 5.39151C58.0288 5.44541 58.6902 5.58017 58.9908 5.43712C59.223 5.34383 59.138 5.36456 59.1069 5.39358C58.9887 5.47444 58.7669 5.68383 58.5637 5.90151C58.1408 6.35139 57.7033 6.89871 57.268 7.46054C56.3848 8.59664 55.4788 9.86335 54.2619 11.0679C53.0967 12.2454 51.2806 13.4769 49.166 13.5453C47.1301 13.5992 45.4986 12.9088 44.0764 12.2537C42.6438 11.5779 41.3771 10.8315 40.1435 10.2738C39.8388 10.1349 39.5361 10.0085 39.2583 9.90896C39.0199 9.81359 38.6592 9.7514 38.7752 9.75969C38.8043 9.75762 38.8188 9.75347 38.8582 9.7431C38.937 9.73274 39.0137 9.70579 39.0842 9.66847C39.2645 9.59591 39.42 9.4342 39.4262 9.42383C39.4905 9.33261 39.4262 9.4114 39.3848 9.50054C39.2894 9.69335 39.1795 9.99189 39.0862 10.3008C38.7089 11.5675 38.4581 13.0208 38.0787 14.5238C37.6931 16.0124 37.2162 17.644 36.0698 19.0993C34.9254 20.6086 32.9641 21.3591 31.3823 21.4939C29.7486 21.6825 28.2269 21.5664 26.7591 21.5022C26.0314 21.4669 25.3121 21.44 24.6175 21.4545C24.2713 21.4607 23.9292 21.4793 23.6203 21.5208C23.3405 21.5395 22.9694 21.6742 23.044 21.6328C23.243 21.2845 23.0523 21.6286 23.1 21.9002C23.1062 22.1987 23.1477 22.5367 23.2036 22.8767C23.3156 23.5608 23.4794 24.2657 23.6556 24.9747C23.9977 26.4031 24.4206 27.8627 24.5595 29.4424C24.7336 30.9849 24.3853 32.8486 23.243 34.1029C22.1463 35.3592 20.749 36.1139 19.3973 36.7649C18.0352 37.4138 16.6607 37.9445 15.4023 38.6141C15.0934 38.7841 14.7886 38.9645 14.5274 39.1532C14.2434 39.3252 14.0837 39.6217 14.1708 39.4165C14.2372 39.7461 14.743 40.4655 15.1597 40.9776C16.0553 42.0909 17.0878 43.1461 18.0705 44.3071C19.0345 45.4618 20.0192 46.77 20.3737 48.47C20.7324 50.2073 20.0856 51.9488 19.2833 53.2756C18.4706 54.6398 17.4817 55.8008 16.5861 56.9452C16.1403 57.5132 15.7091 58.0875 15.3484 58.6534C15.1742 58.9292 15.0104 59.2236 14.9379 59.4247C14.8943 59.4889 14.9254 59.6465 14.9192 59.3169C14.8384 58.9769 14.7803 59.0204 14.8612 59.066C15.1887 59.3231 15.8895 59.661 16.5052 59.9264C17.152 60.2063 17.8175 60.4613 18.512 60.7287C19.8948 61.2719 21.3585 61.8213 22.7931 62.7894C23.5042 63.2704 24.207 63.8986 24.7689 64.703C25.3452 65.5074 25.6811 66.4963 25.8283 67.4168C26.0936 69.2847 25.7599 70.9246 25.4281 72.4173C25.0923 73.9016 24.7005 75.3238 24.5844 76.5242C24.5491 76.7751 24.5885 77.1254 24.5678 76.9679C24.5595 76.9264 24.545 76.8849 24.5242 76.8476C24.4973 76.7751 24.4351 76.6507 24.3667 76.5719C24.234 76.3729 23.95 76.2049 23.95 76.2049C23.8069 76.1427 23.9085 76.1863 23.9914 76.1987C24.4289 76.2796 25.1628 76.2941 25.8345 76.2858C27.2132 76.2671 28.7204 76.1303 30.3374 76.1718C31.9296 76.2381 33.7934 76.4371 35.5307 77.5732C37.2909 78.7425 38.1657 80.5876 38.6633 82.1322C39.1671 83.7161 39.4117 85.2357 39.7103 86.6164C39.8533 87.3027 40.0109 87.9889 40.1974 88.5341C40.2472 88.7746 40.4939 89.0814 40.2431 88.8181C40.071 88.6647 39.872 88.588 39.7476 88.5611C39.6377 88.5341 39.5817 88.5445 39.5817 88.5445C39.5713 88.5486 39.6605 88.5445 39.7745 88.5155C40.7945 88.2605 42.169 87.539 43.4731 86.8922C44.8186 86.2329 46.2449 85.5094 47.976 85.1611C49.6719 84.7485 51.8984 85.1631 53.2978 86.2453C54.7428 87.2778 55.7172 88.5466 56.6253 89.749C57.5126 90.9514 58.3398 92.1808 59.2375 93.0847C59.3992 93.2838 59.7952 93.4931 59.563 93.4206C59.1297 93.4911 59.5443 93.4289 59.7185 93.2278C60.1808 92.8442 60.67 92.3073 61.1407 91.7745C62.084 90.6944 62.9899 89.4899 64.0638 88.3848C65.1253 87.2964 66.4438 86.2287 68.0837 85.9115L68.1231 85.9033C69.8335 85.7125 71.5625 86.1396 72.9826 86.9855L72.7919 87.3524Z" fill="#1E2533"/>
    <path d="M84.8202 88.1856C86.1243 88.6894 87.4117 89.2119 88.6784 89.7613C88.9666 89.8691 89.3916 90.0971 89.5284 90.0868C89.6341 90.1013 89.7399 90.1013 89.8373 90.0826L90.3452 90.0287L92.4163 89.8152L96.5606 89.4752L98.5944 89.3342C99.0484 89.2865 99.4776 89.1227 99.8383 88.8781C100.201 88.6335 100.498 88.31 100.695 87.941C100.891 87.5616 101.213 86.8982 101.404 86.3675C101.831 85.2355 102.084 84.0476 102.169 82.8576C102.249 81.7443 102.185 80.3221 102.181 78.9351L102.173 78.506C102.175 78.5288 102.175 78.5578 102.183 78.5848C102.2 78.6408 102.229 78.6843 102.268 78.7216C102.307 78.7569 102.37 78.7838 102.426 78.7921L101.509 78.8025L97.365 78.7568C96.9939 78.7258 96.8239 78.8128 95.9221 78.6656C95.1965 78.5122 94.5206 78.137 94.0065 77.6062C92.9616 76.5551 92.6402 74.8551 93.2643 73.5159L93.7432 72.5809C93.8717 72.3155 93.9857 72.0522 94.0832 71.7931C94.278 71.2727 94.4066 70.7648 94.4522 70.2713L94.5227 68.4843C94.5268 68.1878 94.4501 67.995 94.3402 67.8665C94.2822 67.8043 94.2096 67.7524 94.1122 67.7193L94.0334 67.6985C94.0852 67.6944 94.1785 67.6778 94.2449 67.6509C94.3879 67.5949 94.504 67.4974 94.5807 67.373C94.6201 67.3109 94.6491 67.2424 94.6657 67.1761C94.6637 67.1595 94.616 67.3129 94.5932 67.373L94.4211 67.8623L94.0459 68.8678C93.4965 70.2382 92.8144 71.5484 92.0017 72.755C91.1185 73.9554 90.3307 75.0417 89.0661 76.0348C88.4234 76.4784 87.6978 76.7666 86.9618 76.8723C86.2113 76.9822 85.5023 76.8288 84.8223 76.7293C86.2383 76.6153 87.5112 76.1239 88.3135 75.1661C89.0371 74.2394 89.7212 72.9354 90.225 71.762C90.7599 70.5595 91.1766 69.3177 91.4544 68.053L91.6617 67.0724L91.7757 66.5666L91.8483 66.266C91.9167 66.0338 92.0245 65.8099 92.1655 65.6088C92.4454 65.2066 92.8579 64.8956 93.3285 64.738C93.5587 64.6593 93.8261 64.6157 94.05 64.6157C94.1951 64.6178 94.3402 64.6137 94.4874 64.6282C95.0742 64.6779 95.6671 64.8749 96.1792 65.2024C97.2199 65.8596 97.8294 67.0061 97.9828 68.0758C98.0616 68.6937 98.0367 68.9611 98.0595 69.3156C98.0678 69.6888 98.0906 69.9396 98.0885 70.431C98.0865 72.16 97.3982 73.945 96.884 75.0521C96.9504 74.9878 96.9276 74.8717 96.8695 74.8033C96.911 74.7183 96.3222 74.7079 97.3712 74.7059L101.516 74.6603L102.67 74.681C103.415 74.7225 104.155 75.0003 104.741 75.4543C105.334 75.9042 105.788 76.5303 106.031 77.2372C106.153 77.5897 106.224 77.9608 106.236 78.3298V78.9372C106.184 80.3097 106.294 81.6593 106.068 83.295C105.846 84.8478 105.403 86.3633 104.754 87.7772C104.401 88.5153 104.117 89.0978 103.574 89.8857C103.002 90.6652 102.243 91.2913 101.395 91.7101C100.547 92.1309 99.6061 92.3403 98.6773 92.3196C97.9123 92.2885 97.2759 92.2449 96.5689 92.1848L92.4246 91.8448L90.3535 91.6313L89.8269 91.5774C89.5802 91.5566 89.3418 91.4986 89.1179 91.4094C88.5913 91.1897 88.4628 90.9782 88.1394 90.7668C87.0074 89.9292 85.9066 89.0667 84.8202 88.1856Z" fill="url(#paint3_linear)"/>
    <path d="M79.9921 75.8483C79.791 75.8483 79.6085 76.0017 79.5712 76.1925C79.5525 76.3832 79.5712 76.5864 79.5691 76.7833L79.623 77.9692C79.6707 78.7611 79.7391 79.551 79.8324 80.343C80.0314 81.9248 80.2906 83.5066 80.5808 85.0905L80.9934 87.4643L81.1696 88.6502L81.2567 89.2431L81.2795 89.3924L81.2899 89.467L81.2961 89.5043L81.2981 89.4007C81.2878 89.1063 81.1675 88.8119 80.9747 88.5901C80.7819 88.3662 80.5041 88.2024 80.1952 88.1464L80.0024 88.1236L80.0771 88.1153L80.2263 88.0987L80.8192 88.0407L82.0051 87.9515C82.795 87.9018 83.5911 87.8852 84.3747 87.8769C83.6284 87.8686 82.9505 88.418 82.7971 89.1415C82.7204 89.7034 82.7743 89.3654 82.7597 89.3115L82.7639 89.0151L82.8157 87.8292C82.8613 87.0372 82.9297 86.2474 83.023 85.4554C83.22 83.8736 83.4833 82.2917 83.7756 80.7078L84.1902 78.3341L84.3665 77.1482L84.4556 76.5553L84.4971 76.2837C84.5054 76.2567 84.5054 76.2215 84.4888 76.1862C84.5054 76.0494 83.8855 76.0598 83.5496 76.0121C83.1536 75.9831 82.7577 75.9375 82.3638 75.9229C81.5739 75.8711 80.784 75.8587 79.9921 75.8483ZM79.9921 75.8483C80.784 75.838 81.5739 75.8255 82.3658 75.7737C82.7618 75.7592 83.1578 75.7136 83.5517 75.6845L84.1446 75.6286C84.2856 75.6058 84.6546 75.5394 84.9076 75.7923C85.0278 75.9022 85.1107 76.0598 85.1356 76.2277L85.1812 76.5491L85.2704 77.142L85.4466 78.3278L85.8612 80.7016C86.1535 82.2835 86.4148 83.8653 86.6138 85.4492C86.7091 86.2411 86.7776 87.031 86.8211 87.823L86.8729 89.0088L86.8771 89.3053C86.8563 89.4484 86.9351 89.3094 86.8169 90.0662C86.5785 91.1795 85.5254 92.0274 84.3789 92.0149C83.5807 92.0066 82.795 91.9901 82.003 91.9403L80.8172 91.8512L80.2242 91.7931L79.6624 91.7351C79.1566 91.6521 78.6942 91.3888 78.3667 91.0198C78.037 90.6549 77.8339 90.1677 77.8069 89.6764L77.8048 89.4981L77.8111 89.4608L77.8214 89.3862L77.8442 89.2369L77.9313 88.644L78.1075 87.4581L78.5201 85.0843C78.8103 83.5025 79.0716 81.9207 79.2685 80.3367C79.3618 79.5448 79.4302 78.7549 79.4779 77.963L79.5318 76.7771C79.5401 76.5781 79.5256 76.3832 79.5546 76.1821C79.5981 75.9893 79.793 75.8421 79.9921 75.8483Z" fill="url(#paint4_linear)"/>
    <path d="M0.883034 78.4275C1.90096 78.2243 2.61414 78.328 3.25682 78.5042C3.88084 78.697 4.38877 79.0059 4.79719 79.4123C5.20768 79.8186 5.51451 80.3266 5.70938 80.9506C5.8856 81.5912 5.98719 82.3044 5.78195 83.3285C4.75987 83.5338 4.04463 83.4322 3.40401 83.256C2.78206 83.0631 2.27206 82.7542 1.86572 82.3437C1.45938 81.9333 1.15047 81.4253 0.957668 80.8034C0.785595 80.1586 0.679863 79.4454 0.883034 78.4275Z" fill="url(#paint5_linear)"/>
    <path d="M9.2099 83.3244C9.00673 82.3064 9.11039 81.5932 9.28661 80.9506C9.47941 80.3265 9.78832 79.8186 10.1947 79.4102C10.601 78.9997 11.1089 78.6929 11.733 78.498C12.3736 78.3218 13.0867 78.2202 14.1109 78.4254C14.3161 79.4475 14.2145 80.1628 14.0383 80.8034C13.8455 81.4253 13.5366 81.9353 13.1261 82.3417C12.7156 82.748 12.2077 83.0569 11.5858 83.2497C10.941 83.4239 10.2299 83.5275 9.2099 83.3244Z" fill="url(#paint6_linear)"/>
    <path d="M5.78237 86.7533C5.98554 87.7713 5.88188 88.4844 5.70566 89.1271C5.51286 89.7511 5.20395 90.2591 4.79761 90.6675C4.39127 91.078 3.88334 91.3848 3.25932 91.5797C2.6187 91.7559 1.90553 91.8575 0.881383 91.6522C0.676139 90.6302 0.777725 89.9149 0.953945 89.2743C1.14675 88.6524 1.45565 88.1424 1.86614 87.736C2.27663 87.3297 2.78456 87.0208 3.40651 86.828C4.05127 86.6538 4.76237 86.5502 5.78237 86.7533Z" fill="url(#paint7_linear)"/>
    <path d="M14.1078 91.6501C13.0899 91.8533 12.3767 91.7497 11.734 91.5734C11.11 91.3806 10.602 91.0717 10.1936 90.6654C9.78314 90.259 9.47631 89.7511 9.28143 89.1271C9.10521 88.4865 9.00363 87.7733 9.20887 86.7492C10.2309 86.5439 10.9462 86.6455 11.5868 86.8217C12.2088 87.0145 12.7188 87.3234 13.1251 87.7339C13.5314 88.1444 13.8403 88.6523 14.0331 89.2743C14.2052 89.919 14.311 90.6322 14.1078 91.6501Z" fill="url(#paint8_linear)"/>
    <path d="M120.531 42.4224C122.082 42.4846 123.873 42.4659 125.65 43.4299C127.414 44.3546 128.484 46.5397 128.179 48.5486C127.899 50.6052 126.466 52.131 125.189 53.2049C123.883 54.3141 122.384 55.1973 120.533 55.5995C116.714 56.6464 112.226 52.9334 112.402 48.5465C112.439 47.4892 112.709 46.4298 113.211 45.5135C113.718 44.5951 114.51 43.8694 115.375 43.3885C117.177 42.4431 118.974 42.4389 120.531 42.4224ZM120.531 42.837C118.984 42.8121 117.703 44.0809 117.322 45.3372C116.922 46.6019 116.791 47.568 116.828 48.5465C116.897 49.5085 117.1 50.4808 117.732 51.3453C118.383 52.1497 119.268 52.9126 120.531 53.3293C121.781 53.744 123.363 53.3521 124.242 52.2575C125.167 51.1463 125.009 49.5935 124.719 48.5465C124.424 47.4519 124.219 46.5583 123.782 45.2958C123.371 44.0581 122.086 42.7665 120.531 42.837Z" fill="url(#paint9_linear)"/>
    <path d="M22.8822 3.14846C23.4399 3.79737 24.4329 4.3592 25.0113 5.59896C25.6022 6.80347 25.1005 8.41225 23.9602 9.12543C22.7993 9.88628 21.3999 9.66653 20.4338 9.52555C19.4262 9.36799 18.4311 9.23738 17.3261 8.70457C14.9254 7.72603 14.3594 3.72273 16.5632 1.73041C17.0897 1.25358 17.7345 0.892849 18.4187 0.733215C19.1049 0.577726 19.8326 0.685532 20.4338 0.975776C21.6798 1.56041 22.2623 2.55968 22.8822 3.14846ZM22.5878 3.44285C22.0032 2.8209 20.892 3.11737 20.4317 3.70615C19.9528 4.34469 19.8678 4.63286 19.6937 4.86091C19.5589 5.09932 19.306 5.23822 19.1339 5.59896C19.0282 5.92859 18.8271 6.40542 18.9307 7.09994C19.0302 7.77994 19.7289 8.35006 20.4317 8.18835C21.1739 8.0536 21.4683 7.13103 21.5118 6.68115C21.5823 6.18981 21.7834 6.10481 22.3681 5.60103C22.9527 5.12835 23.2429 3.99847 22.5878 3.44285Z" fill="url(#paint10_linear)"/>
    <path d="M47.3416 94.6851C46.813 96.4348 45.9754 97.8798 45.0694 99.2543C44.1448 100.61 43.1041 101.85 41.9659 102.99C40.8277 104.133 39.588 105.173 38.2321 106.098C36.8597 107.006 35.4126 107.839 33.6587 108.366C34.1853 106.612 35.0187 105.165 35.9267 103.793C36.8514 102.439 37.8921 101.197 39.0344 100.059C40.1767 98.9206 41.4165 97.8798 42.7703 96.9552C44.1469 96.0513 45.5898 95.2158 47.3416 94.6851Z" fill="url(#paint11_linear)"/>
</g>
    <defs>
    <linearGradient id="paint0_linear" x1="36.3795" y1="51.1856" x2="81.9478" y2="51.1856" gradientUnits="userSpaceOnUse">
    <stop offset="1.58946e-07" stop-color="#FC8C5F"/>
    <stop offset="1" stop-color="#FA7846"/>
    </linearGradient>
    <linearGradient id="paint1_linear" x1="32.2333" y1="48.5034" x2="85.8398" y2="48.5034" gradientUnits="userSpaceOnUse">
    <stop offset="1.58946e-07" stop-color="#FC8C5F"/>
    <stop offset="1" stop-color="#FA7846"/>
    </linearGradient>
    <linearGradient id="paint2_linear" x1="45.9699" y1="48.9659" x2="72.1048" y2="48.9659" gradientUnits="userSpaceOnUse">
    <stop offset="1.58946e-07" stop-color="#FC8C5F"/>
    <stop offset="1" stop-color="#FA7846"/>
    </linearGradient>
    <linearGradient id="paint3_linear" x1="83.6273" y1="78.4658" x2="106.279" y2="78.4658" gradientUnits="userSpaceOnUse">
    <stop offset="1.58946e-07" stop-color="#FC8C5F"/>
    <stop offset="1" stop-color="#FA7846"/>
    </linearGradient>
    <linearGradient id="paint4_linear" x1="77.4775" y1="83.8122" x2="86.8928" y2="83.8122" gradientUnits="userSpaceOnUse">
    <stop offset="1.58946e-07" stop-color="#FC8C5F"/>
    <stop offset="1" stop-color="#FA7846"/>
    </linearGradient>
    <linearGradient id="paint5_linear" x1="-1.18973" y1="80.8778" x2="7.8545" y2="80.8778" gradientUnits="userSpaceOnUse">
    <stop offset="1.58946e-07" stop-color="#FC8C5F"/>
    <stop offset="1" stop-color="#FA7846"/>
    </linearGradient>
    <linearGradient id="paint6_linear" x1="7.13756" y1="80.8745" x2="16.1818" y2="80.8745" gradientUnits="userSpaceOnUse">
    <stop offset="1.58946e-07" stop-color="#FC8C5F"/>
    <stop offset="1" stop-color="#FA7846"/>
    </linearGradient>
    <linearGradient id="paint7_linear" x1="-1.1893" y1="89.2038" x2="7.85492" y2="89.2038" gradientUnits="userSpaceOnUse">
    <stop offset="1.58946e-07" stop-color="#FC8C5F"/>
    <stop offset="1" stop-color="#FA7846"/>
    </linearGradient>
    <linearGradient id="paint8_linear" x1="7.13653" y1="89.2005" x2="16.1807" y2="89.2005" gradientUnits="userSpaceOnUse">
    <stop offset="1.58946e-07" stop-color="#FC8C5F"/>
    <stop offset="1" stop-color="#FA7846"/>
    </linearGradient>
    <linearGradient id="paint9_linear" x1="112.541" y1="49.1011" x2="128.522" y2="49.1011" gradientUnits="userSpaceOnUse">
    <stop offset="1.58946e-07" stop-color="#FC8C5F"/>
    <stop offset="1" stop-color="#FA7846"/>
    </linearGradient>
    <linearGradient id="paint10_linear" x1="16.2783" y1="2.21408" x2="23.8166" y2="9.75236" gradientUnits="userSpaceOnUse">
    <stop offset="1.58946e-07" stop-color="#FC8C5F"/>
    <stop offset="1" stop-color="#FA7846"/>
    </linearGradient>
    <linearGradient id="paint11_linear" x1="39.0359" y1="100.06" x2="41.9669" y2="102.991" gradientUnits="userSpaceOnUse">
    <stop offset="1.58946e-07" stop-color="#FC8C5F"/>
    <stop offset="1" stop-color="#FA7846"/>
    </linearGradient>
    <clipPath id="clip0">
    <rect width="127.461" height="125" fill="white" transform="translate(0.769531 0.662598)"/>
    </clipPath>
    </defs>
</svg>
