<svg width="50" height="50" viewBox="0 0 50 50" fill="none" xmlns="http://www.w3.org/2000/svg">
<path d="M17.8973 5.29545L17.897 5.29574C16.0244 7.16804 15.1016 9.39696 15.1016 12.0419C15.1016 14.6877 16.0243 16.9162 17.8967 18.7888C19.7697 20.6609 21.9973 21.5837 24.6385 21.5849C24.6387 21.5849 24.639 21.5849 24.6393 21.5849H24.6442C27.2901 21.5849 29.5191 20.6617 31.3914 18.7894C31.3915 18.7894 31.3915 18.7893 31.3916 18.7893M17.8973 5.29545L33.1593 3.52783C35.5004 5.86891 36.6872 8.73375 36.6872 12.0419C36.6872 15.3511 35.5004 18.2156 33.1593 20.557L31.3916 18.7893M17.8973 5.29545C19.7686 3.42388 21.9957 2.50112 24.6385 2.5V0L24.6393 2.5L24.6442 2.5C27.2886 2.5 29.5178 3.42292 31.3916 5.2956M17.8973 5.29545L31.3916 5.2956M31.3916 18.7893C33.2641 16.9164 34.1872 14.6877 34.1872 12.0419C34.1872 9.39714 33.2641 7.16809 31.3916 5.2956M31.3916 18.7893V5.2956" fill="white" fill-opacity="0.3" stroke="#0C0A7A" stroke-width="5" stroke-linejoin="round"/>
<path d="M8.29131 45.8713L8.29183 45.8717C9.36566 46.8944 10.8487 47.5 12.9211 47.5H36.9965C39.0686 47.5 40.5521 46.8945 41.6275 45.8712L8.29131 45.8713ZM8.29131 45.8713C7.22863 44.8598 6.60156 43.4428 6.60156 41.4009C6.60156 40.4511 6.63299 39.5157 6.69511 38.6216L6.69517 38.6207M8.29131 45.8713L6.69517 38.6207M6.69517 38.6207C6.7555 37.7482 6.87923 36.7764 7.06724 35.7299L7.06728 35.7296M6.69517 38.6207L7.06728 35.7296M7.06728 35.7296C7.2531 34.6947 7.48883 33.7347 7.76369 32.8753M7.06728 35.7296L7.76369 32.8753M17.7501 28.405L17.7477 28.4035C16.986 27.9166 16.2929 27.47 15.689 27.076L17.7501 28.405ZM17.7501 28.405C18.6469 28.9767 19.7495 29.4467 20.9616 29.8379L17.7501 28.405ZM32.1684 28.4037L32.1669 28.4047C31.2693 28.9772 30.1646 29.4473 28.9532 29.8382L32.1684 28.4037ZM32.1684 28.4037C32.9381 27.9119 33.6317 27.4653 34.2277 27.0765L32.1684 28.4037ZM43.2216 38.6244L43.2212 38.6195C43.1614 37.7512 43.0375 36.7796 42.8503 35.7301L43.2216 38.6244ZM43.2216 38.6244C43.2846 39.5128 43.3161 40.4477 43.3172 41.4034L43.2216 38.6244ZM7.76369 32.8753C8.03393 32.033 8.40219 31.194 8.86187 30.3851L7.76369 32.8753ZM43.3172 41.4037C43.3166 43.4444 42.6888 44.8611 41.6276 45.8711L43.3172 41.4037ZM8.86223 30.3844C9.3193 29.5808 9.8367 28.9152 10.3856 28.3892C10.9085 27.8894 11.5776 27.4584 12.4065 27.13C13.149 26.8365 14.0064 26.6666 14.9728 26.6532C15.0852 26.7055 15.2978 26.8212 15.6886 27.0757L8.86223 30.3844ZM20.9625 29.8382C22.1354 30.2176 23.3434 30.4353 24.5542 30.4737C24.6885 30.4784 24.8229 30.4808 24.9573 30.4808C26.3041 30.4808 27.6477 30.2599 28.9522 29.8385L20.9625 29.8382ZM34.2281 27.0763C34.619 26.8213 34.8314 26.7055 34.9438 26.6532C35.9089 26.6666 36.7665 26.8363 37.5103 27.1301C38.3378 27.458 39.0075 27.8899 39.5307 28.3898C40.0801 28.9153 40.5974 29.5806 41.0542 30.3843C41.5154 31.1961 41.884 32.0343 42.1524 32.8731C42.4281 33.7348 42.6646 34.6952 42.8502 35.7298L34.2281 27.0763Z" fill="white" fill-opacity="0.3" stroke="#0C0A7A" stroke-width="5" stroke-linejoin="round"/>
<path d="M16.8364 4.235L16.8366 4.23488C18.989 2.08206 21.5976 1.00113 24.6385 1C24.6386 1 24.6387 1 24.6388 1L24.6442 1C27.6868 1 30.2974 2.08122 32.4522 4.23494C34.6059 6.38858 35.6872 8.99911 35.6872 12.0419C35.6872 15.0857 34.6059 17.6959 32.4522 19.8499C30.2986 22.0035 27.6881 23.0849 24.6442 23.0849H24.6388C24.6387 23.0849 24.6386 23.0849 24.6385 23.0849C21.599 23.0837 18.9903 22.0026 16.8365 19.8499C14.6825 17.6959 13.6016 15.0858 13.6016 12.0419C13.6016 8.99904 14.6825 6.38856 16.8364 4.235Z" stroke="white" stroke-width="2"/>
<path d="M7.25718 46.9578L7.25739 46.958C8.65624 48.2901 10.5323 49 12.9211 49H36.9965C39.3851 49 41.2614 48.2902 42.6616 46.9578L7.25718 46.9578ZM7.25718 46.9578C5.84998 45.6185 5.10156 43.7836 5.10156 41.4009C5.10156 40.4185 5.13404 39.4484 5.19872 38.5176L5.19874 38.5173M7.25718 46.9578L5.19874 38.5173M5.19874 38.5173C5.26339 37.5823 5.39482 36.5559 5.59087 35.4646L5.59089 35.4645M5.19874 38.5173L5.59089 35.4645M5.59089 35.4645C5.78701 34.3722 6.03791 33.347 6.33537 32.4172M5.59089 35.4645L6.33537 32.4172M31.3608 27.1396L31.3602 27.14C30.6086 27.6195 29.6341 28.0423 28.492 28.4109C27.3283 28.7869 26.1398 28.9808 24.9573 28.9808C24.8397 28.9808 24.7221 28.9787 24.6045 28.9745C24.6037 28.9745 24.6029 28.9744 24.6022 28.9744L24.638 27.9751L31.3608 27.1396ZM31.3608 27.1396C32.1282 26.6493 32.8177 26.2054 33.4083 25.8201L31.3608 27.1396ZM44.7178 38.5183L44.7177 38.5163C44.6535 37.5847 44.5217 36.5584 44.3267 35.4652C44.1307 34.3727 43.8791 33.3474 43.5811 32.416M44.7178 38.5183L38.0625 25.7355C39.0532 26.128 39.8918 26.66 40.5674 27.3058C41.2333 27.9426 41.8376 28.7269 42.3584 29.6433C42.8688 30.5416 43.2799 31.4747 43.5811 32.416M44.7178 38.5183C44.7836 39.445 44.8161 40.415 44.8172 41.402C44.8169 43.7848 44.0675 45.6197 42.6616 46.9577L44.7178 38.5183ZM43.5811 32.416L44.5335 32.1113M43.5811 32.416C43.5811 32.4161 43.5811 32.4161 43.5811 32.4161L44.5335 32.1113M44.5335 32.1113C44.2104 31.1016 43.771 30.1052 43.2278 29.1492L45.311 35.2886C45.108 34.1575 44.8463 33.089 44.5335 32.1113ZM6.33537 32.4172L5.38323 32.1126M6.33537 32.4172L5.38323 32.1126M5.38323 32.1126L6.33513 32.4179C6.63779 31.4743 7.04834 30.5404 7.55796 29.6436L5.38323 32.1126ZM15.0974 25.1523C13.9105 25.1523 12.822 25.3528 11.8547 25.7351L15.0974 25.1523ZM15.0974 25.1523C15.2876 25.1523 15.5632 25.2039 16.5072 25.8188L15.0974 25.1523ZM16.5078 25.8192C17.1069 26.21 17.7961 26.6541 18.5555 27.1396L18.5565 27.1402C19.3081 27.6194 20.2813 28.0422 21.4239 28.4109L16.5078 25.8192ZM7.55811 29.6433C8.07924 28.727 8.68355 27.9425 9.34852 27.3055C10.0246 26.659 10.8631 26.1279 11.8546 25.7352L7.55811 29.6433ZM33.4085 25.82C34.3536 25.2037 34.6284 25.1523 34.8194 25.1523C36.005 25.1523 37.0936 25.3527 38.0617 25.7351L33.4085 25.82Z" stroke="white" stroke-width="2"/>
</svg>
