<svg width="536" height="39" viewBox="0 0 536 39" fill="none" xmlns="http://www.w3.org/2000/svg">
<path opacity="0.75" d="M535.519 11.8029C536.601 8.34363 535.828 7.67414 533.51 6.33509C531.191 4.99603 525.164 4.996 521.3 4.77283C517.282 4.66124 500.436 3.9917 495.49 3.43376C490.699 2.87582 436.606 2.87583 425.479 1.98312C414.351 1.09042 380.195 0.42092 367.367 0.755684C354.54 1.09045 287.156 1.20205 259.027 0.978874C230.899 0.755697 112.049 4.54966 102.931 5.55396C93.9669 6.44666 58.1111 8.90161 51.1563 9.68273C44.2016 10.4638 10.0458 10.2407 5.25472 10.4639C5.25472 10.4639 2.7819 12.0261 2.4728 14.1462C2.1637 16.2664 2.62736 19.0561 1.85461 22.2922C1.2364 25.5282 0 35.5712 0 35.5712C0 35.5712 4.0183 38.6956 9.73669 38.584C15.4551 38.584 29.9828 38.0261 35.8558 37.8029C41.5742 37.5798 78.9755 35.1248 89.3304 34.4553C99.6853 33.6742 160.733 30.4381 166.76 30.4381C172.788 30.4381 239.245 30.4381 242.645 30.2149C246.045 29.9917 296.429 28.8759 305.238 28.3179C314.047 27.8716 426.715 27.0904 433.824 27.0904C440.934 26.9788 501.209 29.4338 506.618 29.3222C512.027 29.2106 520.527 30.8845 522.227 31.1076C523.773 31.3308 525.318 31.6656 526.709 30.8845C528.564 29.8802 530.109 27.5368 531.5 25.0819C533.046 22.7385 534.437 15.2621 535.519 11.8029ZM506 9.90592C502.445 9.68274 501.827 9.57113 499.199 9.45954C496.572 9.23636 494.408 9.34794 492.244 9.23635C490.081 9.12476 487.763 8.90158 486.062 8.67841C484.208 8.45523 480.344 8.45522 478.953 8.45522C477.408 8.45522 475.708 8.56681 473.698 8.45522C471.689 8.34363 471.38 8.56685 469.526 8.56685C467.671 8.67843 467.98 8.34363 466.125 7.89728C464.271 7.45093 464.734 7.89728 462.262 7.89728C459.789 7.89728 455.307 7.33939 454.225 7.11622C453.143 6.78145 459.016 7.22778 460.562 7.22778C462.107 7.22778 464.271 7.11619 466.435 7.22778C468.598 7.33936 468.753 7.45098 469.68 7.67416C470.607 7.78574 470.917 7.89729 471.998 7.56253C473.08 7.22776 473.853 7.33936 476.171 7.78572C478.335 8.12048 479.88 7.56255 481.581 7.45097C483.281 7.33938 486.063 7.89732 488.072 8.00891C490.081 8.12049 492.399 8.12051 493.945 8.2321C495.49 8.34368 497.963 8.12045 503.063 9.01316C508.163 9.79427 519.136 10.4639 519.136 10.4639C519.136 10.4639 509.709 10.1291 506 9.90592Z" fill="#8CF2F2"/>
<path opacity="0.75" d="M535.982 9.45974C535.828 8.23227 534.591 7.22796 533.2 7.00479C531.809 6.67002 529.337 7.33954 528.564 7.89748C527.791 8.45542 526.246 9.45971 526.555 10.1292C526.864 10.7988 526.091 11.8031 525.782 12.361C525.473 13.0305 523.464 15.8202 523 17.0477C522.691 18.1636 523.155 18.4984 522.536 20.9533C521.918 23.4082 520.373 26.8675 520.991 28.2065C521.609 29.5456 524.855 32.2237 526.555 31.331C528.873 30.1035 529.955 28.5413 531.346 25.9748C531.809 24.9705 533.046 22.2924 533.664 20.6185C534.128 18.7215 536.137 10.6872 535.982 9.45974Z" fill="#8CF2F2"/>
</svg>
