<svg width="136" height="136" viewBox="0 0 136 136" fill="none" xmlns="http://www.w3.org/2000/svg">
<path opacity="0.75" d="M130.743 91.2361C131.314 89.8241 130.47 88.6894 128.634 87.9751C126.799 87.2608 124.68 86.5453 122.775 85.4772C120.941 84.48 115.36 83.1146 113.382 82.5411C111.404 81.9676 107.518 81.1746 106.104 81.169C104.69 81.1634 99.4581 81.0015 97.7616 80.8534C96.2065 80.7059 91.1154 80.6858 89.4178 80.8206C87.8616 80.9559 80.3663 80.9264 77.5379 80.9153C74.7095 80.9042 65.9409 81.0112 61.98 81.2784C58.0191 81.5457 55.8229 82.5978 54.5463 83.5827C53.2696 84.5676 52.7039 84.5654 52.2735 86.1194C51.8432 87.6733 52.5586 85.5548 51.8432 87.6733C51.1277 89.7918 51.4084 90.3586 50.8405 90.9221C50.2725 91.4856 50.2725 91.4856 50.2725 91.4856C50.2725 91.4856 49.9831 93.1815 49.6969 94.0289C49.4107 94.8763 49.546 96.4325 51.2464 95.5906C52.9467 94.7488 59.1049 93.1466 69.2167 93.1156C79.3996 93.0142 91.5612 93.2035 101.169 95.504C110.918 97.8051 115.578 99.6619 117.764 101.014C119.881 102.295 121.715 103.292 123.133 102.449C124.55 101.606 126.115 99.2083 127.043 97.1613C127.899 95.1847 128.61 94.1976 129.677 92.5754C130.743 91.2361 130.743 91.2361 130.743 91.2361Z" fill="#8CF2F2"/>
<path opacity="0.75" d="M89.4845 63.7086C88.3554 63.1384 87.0854 62.4263 87.6577 60.7315C88.2301 59.0367 88.9422 57.7666 91.0019 55.4413C92.9907 53.1863 93.705 51.3506 94.6279 50.435C95.4797 49.5898 95.9046 49.4501 96.8906 50.4439C97.8767 51.4378 102.735 56.6188 104.988 59.1732C107.241 61.7277 115.829 71.5196 117.799 74.0729C119.769 76.6263 125.892 83.9336 127.019 85.0694C128.146 86.2052 128.851 86.6322 129.554 87.625C130.258 88.6177 131.809 89.6138 130.813 91.1655C129.817 92.7172 129.104 94.2701 128.11 95.2561C127.116 96.2422 126.829 97.3724 126.118 98.3596C125.407 99.3467 124.696 100.334 123.986 101.038C123.276 101.743 123.13 103.015 122.142 102.587C121.153 102.158 120.732 101.45 120.312 100.458C119.891 99.4665 121.024 99.1881 120.038 98.1943C119.052 97.2004 110.815 87.7635 109.196 86.1308C107.646 84.569 104.335 81.5154 102.649 78.6803C100.963 75.8453 94.9782 69.2456 93.8513 68.1098C92.5824 67.1148 89.4845 63.7086 89.4845 63.7086Z" fill="#8CF2F2"/>
<path opacity="0.75" d="M21.8445 37.8454C19.442 37.4117 13.4353 36.4688 12.7287 36.3246C12.0222 36.1804 11.3877 35.6829 10.6784 36.2459C9.96907 36.8088 8.90536 37.5824 8.8327 38.0771C8.76004 38.5718 8.53931 40.763 8.60752 41.3996C8.67573 42.0363 7.94805 47.2661 7.87428 48.0436C7.80052 48.8211 8.14379 51.4388 9.13262 51.7255C10.1214 52.0123 18.6056 52.3285 19.7358 52.6157C20.8661 52.903 27.5078 54.2019 28.7091 54.4188C29.8393 54.7061 34.784 55.9983 36.4794 56.4292C38.1748 56.8602 42.5527 58.433 43.6824 58.8617C44.8121 59.2904 43.3302 58.5068 41.7774 57.7936C40.224 57.2218 36.9763 55.9362 35.9869 55.7909C35.068 55.7166 31.3239 54.7826 30.6884 54.568C30.1233 54.4244 28.4989 53.923 27.7923 53.7788C27.0153 53.5636 26.2395 53.0656 27.1584 53.1399C28.0774 53.2142 32.1037 54.2907 32.8102 54.4349C33.5168 54.5791 38.248 56.2241 39.3782 56.5113C40.4375 56.8691 42.9093 57.6566 45.0272 58.5135C47.1452 59.3703 48.9116 59.7308 48.418 59.3753C47.854 58.9488 45.594 58.2328 46.0183 58.2345C46.4426 58.2362 48.4202 58.8096 48.9854 58.9533C49.5505 59.0969 59.2203 63.5897 59.9967 63.9463C60.7731 64.3029 70.0924 68.0166 71.363 68.5873C72.6335 69.1579 80.6756 73.9979 82.5101 74.9951C84.3447 75.9922 88.2251 78.1995 88.9306 78.6266C89.565 79.124 92.882 80.7634 93.7988 81.4034C94.7865 81.973 97.8905 83.8237 98.5255 84.1797C99.1605 84.5358 99.4445 84.2541 98.9509 83.8986C98.4573 83.5431 88.0183 76.8552 87.03 76.4271C86.0418 75.9989 79.4122 71.5888 78.6364 71.0907C77.7895 70.6631 60.0089 60.8351 58.6679 60.1934C57.3974 59.6228 54.0804 57.9834 51.7511 56.9135C49.4218 55.8437 45.4693 53.9897 46.8824 54.2781C48.2949 54.7079 50.5538 55.7067 52.7427 56.4932C54.8607 57.35 56.2028 57.7088 55.6388 57.2824C55.0748 56.8559 55.6404 56.8581 57.1234 57.3589C58.5359 57.7887 76.458 67.6173 79.7739 69.5396C83.1602 71.5328 97.6199 80.7113 98.5366 81.3513C99.4533 81.9913 101.148 82.7051 102.276 83.5581C103.475 84.3406 106.085 85.8358 105.522 85.2679C105.029 84.6296 105.033 83.6396 105.033 83.6396L104.896 82.6491C104.896 82.6491 105.248 83.0041 104.614 82.2238C103.981 81.4435 104.973 81.0231 104.27 79.8889C103.567 78.7548 103.145 78.3289 102.511 77.69C101.877 77.0511 100.614 74.6419 98.0048 72.7225C95.3961 70.803 78.6087 60.1304 71.7635 56.6386C64.9182 53.1469 52.288 46.2382 43.7424 43.5883C35.408 41.1514 21.8445 37.8454 21.8445 37.8454Z" fill="#8CF2F2"/>
</svg>
