<svg width="50" height="50" viewBox="0 0 50 50" fill="none" xmlns="http://www.w3.org/2000/svg">
<path d="M46.9055 6.10205C47.2359 6.08385 47.496 6.33886 47.5001 6.64732V6.65475V37.572C47.5001 37.8681 47.2679 38.1087 46.9804 38.124C38.7252 38.5324 33.1135 40.6103 29.3555 43.005V12.539C29.3555 12.3926 29.4158 12.2485 29.522 12.145C31.9479 9.81864 36.9887 6.65315 46.9055 6.10205Z" fill="white" fill-opacity="0.3" stroke="#0C0A7A" stroke-width="5"/>
<path d="M49.0001 6.64032C48.9921 5.46889 48.0052 4.53943 46.8234 4.6043L49.0001 6.64032ZM49.0001 6.64032V6.65475V37.572C49.0001 38.6648 48.1435 39.5674 47.0542 39.6222C37.8272 40.0787 32.1338 42.6689 28.7039 45.2864C28.7043 45.2861 28.7047 45.2858 28.705 45.2855L49.0001 6.64032ZM28.4806 11.0654C31.1946 8.46128 36.5887 5.17293 46.823 4.60432L28.4806 11.0654Z" stroke="white" stroke-width="2"/>
<path d="M3.01469 38.124L3.00897 38.1237C2.73843 38.111 2.5 37.8756 2.5 37.5771V6.65476C2.5 6.33384 2.76402 6.0829 3.08753 6.10166L3.09348 6.10199C13.0111 6.65319 18.0524 9.82182 20.477 12.1488L20.4792 12.1509C20.5759 12.2435 20.6396 12.3824 20.6396 12.539V43.0034C16.8798 40.6053 11.2674 38.5322 3.01469 38.124Z" fill="white" fill-opacity="0.3" stroke="#0C0A7A" stroke-width="5" stroke-linejoin="round"/>
<path d="M2.94058 39.6222L2.93829 39.6221C1.85889 39.5712 1 38.6677 1 37.5771V6.65476C1 5.46972 1.99128 4.53558 3.17434 4.60417L3.17672 4.6043C13.4076 5.17291 18.8019 8.46215 21.5157 11.0666L21.5165 11.0674C21.9125 11.4465 22.1396 11.9785 22.1396 12.539V44.8661C22.1396 45.3095 21.6356 45.5504 21.2946 45.289L21.2937 45.2883C17.8631 42.6643 12.1686 40.0787 2.94058 39.6222Z" stroke="white" stroke-width="2"/>
</svg>
