<svg width="51" height="51" viewBox="0 0 51 51" fill="none" xmlns="http://www.w3.org/2000/svg">
<path d="M8.21838 25.5941C8.21838 21.9492 5.5004 18.8698 1.87117 18.4299C0.661432 23.1275 0.661432 28.0607 1.87117 32.7583C5.5004 32.3184 8.21838 29.2548 8.21838 25.5941Z" fill="#E43D30"/>
<path d="M12.4128 23.3318C11.156 23.3318 10.1348 24.3373 10.1348 25.5942C10.1348 26.851 11.1403 27.8722 12.3971 27.8722C13.654 27.8722 14.6752 26.8667 14.6752 25.6099C14.6752 25.6099 14.6752 25.6099 14.6752 25.5942C14.6909 24.353 13.6697 23.3318 12.4128 23.3318Z" fill="#E43D30"/>
<path d="M43.709 25.5941C43.709 29.239 46.427 32.3184 50.0562 32.7583C51.2659 28.0607 51.2659 23.1275 50.0562 18.4299C46.427 18.8855 43.709 21.9492 43.709 25.5941Z" fill="#E43D30"/>
<path d="M39.4991 23.3317C38.2422 23.316 37.221 24.3215 37.2053 25.5784C37.1895 26.8353 38.195 27.8565 39.4519 27.8722C40.7088 27.8879 41.73 26.8824 41.7457 25.6255C41.7457 25.6098 41.7457 25.6098 41.7457 25.5941C41.7457 24.3529 40.7402 23.3474 39.4991 23.3317Z" fill="#E43D30"/>
<path d="M25.9093 43.3945C22.2644 43.3945 19.185 46.1125 18.7451 49.7417C23.4427 50.9515 28.3759 50.9515 33.0735 49.7417C32.6336 46.1125 29.5542 43.3945 25.9093 43.3945Z" fill="#E43D30"/>
<path d="M25.9089 36.9375C24.6521 36.9375 23.6309 37.943 23.6309 39.1999C23.6309 40.4567 24.6364 41.478 25.8932 41.478C27.1501 41.478 28.1713 40.4725 28.1713 39.2156C28.1713 39.2156 28.1713 39.2156 28.1713 39.1999C28.1713 37.9587 27.1658 36.9375 25.9089 36.9375Z" fill="#E43D30"/>
<path d="M25.9093 7.90369C29.5542 7.90369 32.6336 5.1857 33.0735 1.55648C28.3759 0.346735 23.4427 0.346735 18.7451 1.55648C19.185 5.1857 22.2644 7.90369 25.9093 7.90369Z" fill="#E43D30"/>
<path d="M25.9089 9.83618C24.652 9.83618 23.6465 10.8574 23.6465 12.0986C23.6465 13.3554 24.6677 14.3609 25.9089 14.3609C27.15 14.3609 28.1712 13.3397 28.1712 12.0986C28.1712 10.8574 27.1657 9.83618 25.9089 9.83618Z" fill="#E43D30"/>
<path d="M38.4781 38.163C35.9015 40.7396 35.6501 44.8244 37.8968 47.6995C42.0759 45.2329 45.5637 41.7451 48.0303 37.566C45.1552 35.3507 41.0547 35.6021 38.4781 38.163Z" fill="#E43D30"/>
<path d="M33.906 33.591C33.0261 34.4708 33.0261 35.9162 33.906 36.796C34.7858 37.6759 36.2312 37.6759 37.111 36.796C37.9908 35.9162 37.9908 34.4708 37.111 33.591C36.2312 32.7112 34.7858 32.7112 33.906 33.591Z" fill="#E43D30"/>
<path d="M13.3871 13.0727C15.9637 10.4961 16.2151 6.41123 13.9841 3.53613C9.80503 6.00275 6.3172 9.49057 3.85059 13.6697C6.70997 15.9006 10.8105 15.6493 13.3871 13.0727Z" fill="#E43D30"/>
<path d="M14.7546 14.4394C13.8748 15.3192 13.8748 16.7646 14.7546 17.6444C15.6344 18.5242 17.0798 18.5242 17.9596 17.6444C18.8394 16.7646 18.8394 15.3192 17.9596 14.4394C17.0798 13.5596 15.6344 13.5596 14.7546 14.4394Z" fill="#E43D30"/>
<path d="M38.462 13.0412C41.0386 15.6178 45.1392 15.8691 47.9986 13.6382C45.532 9.45908 42.0441 5.97125 37.865 3.50464C35.6341 6.37974 35.8854 10.4646 38.462 13.0412Z" fill="#E43D30"/>
<path d="M37.0954 17.6288C37.9752 16.749 37.9909 15.3036 37.0954 14.4238C36.2156 13.544 34.7702 13.5283 33.8904 14.4238C33.0106 15.3036 32.9949 16.749 33.8904 17.6288C34.7702 18.5087 36.2156 18.5087 37.0954 17.6288Z" fill="#E43D30"/>
<path d="M13.3715 38.1471C10.7949 35.5705 6.71006 35.3191 3.83496 37.5501C6.30158 41.7292 9.77369 45.217 13.9528 47.6836C16.1837 44.8085 15.9481 40.7237 13.3715 38.1471Z" fill="#E43D30"/>
<path d="M14.738 33.5595C13.8582 34.4393 13.8582 35.8847 14.738 36.7645C15.6178 37.6444 17.0632 37.6444 17.943 36.7645C18.8228 35.8847 18.8228 34.4393 17.943 33.5595C17.0632 32.6797 15.6335 32.6797 14.738 33.5595Z" fill="#E43D30"/>
</svg>
