<svg width="64" height="64" viewBox="0 0 64 64" fill="none" xmlns="http://www.w3.org/2000/svg">
<path d="M61.5 32C61.5 48.2924 48.2924 61.5 32 61.5C15.7076 61.5 2.5 48.2924 2.5 32C2.5 15.7076 15.7076 2.5 32 2.5C48.2924 2.5 61.5 15.7076 61.5 32Z" fill="#B27CF8" fill-opacity="0.2" stroke="white" stroke-width="5"/>
<path d="M63 32C63 49.1208 49.1208 63 32 63C14.8792 63 1 49.1208 1 32C1 14.8792 14.8792 1 32 1C49.1208 1 63 14.8792 63 32Z" stroke="#B27CF8" stroke-width="2"/>
<path d="M37.2031 24.5469C35.8462 24.5469 34.7422 23.4429 34.7422 22.0859V14H22.1562C20.0239 14 18.2891 15.7348 18.2891 17.8672V46.1328C18.2891 48.2652 20.0239 50 22.1562 50H41.8438C43.9761 50 45.7109 48.2652 45.7109 46.1328V24.5469H37.2031ZM24.0547 39.3125H29.1678C29.7503 39.3125 30.2225 39.7847 30.2225 40.3672C30.2225 40.9497 29.7503 41.4219 29.1678 41.4219H24.0547C23.4722 41.4219 23 40.9497 23 40.3672C23 39.7847 23.4722 39.3125 24.0547 39.3125ZM23 34.7422C23 34.1597 23.4722 33.6875 24.0547 33.6875H39.5234C40.1059 33.6875 40.5781 34.1597 40.5781 34.7422C40.5781 35.3247 40.1059 35.7969 39.5234 35.7969H24.0547C23.4722 35.7969 23 35.3247 23 34.7422ZM39.5234 28.0625C40.1059 28.0625 40.5781 28.5347 40.5781 29.1172C40.5781 29.6997 40.1059 30.1719 39.5234 30.1719H24.0547C23.4722 30.1719 23 29.6997 23 29.1172C23 28.5347 23.4722 28.0625 24.0547 28.0625H39.5234Z" fill="#B27CF8"/>
<path d="M36.8516 22.086C36.8516 22.2799 37.0093 22.4376 37.2031 22.4376H45.2408C45.0479 22.0814 44.7997 21.7542 44.5015 21.4721L37.7218 15.058C37.4586 14.8091 37.1656 14.6015 36.8516 14.4375V22.086H36.8516Z" fill="#B27CF8"/>
</svg>
