<svg width="84" height="85" viewBox="0 0 84 85" fill="none" xmlns="http://www.w3.org/2000/svg">
<rect x="1" y="2" width="81.9997" height="81.9997" stroke="#FCEC60" stroke-width="2"/>
<path d="M82.999 0.583008V84.5827" stroke="#B27CF8" stroke-width="2"/>
<path d="M2.50014 82.0049C23.1505 80.7152 39.5 63.5583 39.5 42.5829C39.5 21.6074 23.1505 4.45057 2.50014 3.16084V82.0049Z" fill="#FCEC60" fill-opacity="0.3" stroke="white" stroke-width="5"/>
<path d="M1.00014 83.5708C23.1817 83.0398 41 64.8922 41 42.5829C41 20.2736 23.1817 2.12592 1.00014 1.59496V83.5708Z" stroke="#FCEC60" stroke-width="2"/>
<path d="M44.5001 42.5829C44.5001 63.5583 60.8496 80.7152 81.5 82.0049V71.6068C66.5824 70.3388 54.8703 57.8286 54.8703 42.5829C54.8703 27.3371 66.5824 14.8269 81.5 13.5589V3.16084C60.8496 4.45057 44.5001 21.6074 44.5001 42.5829Z" fill="#B27CF8" fill-opacity="0.3" stroke="white" stroke-width="5"/>
<path d="M43.0001 42.5829C43.0001 64.8922 60.8184 83.0398 83 83.5708V70.1948C68.2037 69.6684 56.3703 57.5076 56.3703 42.5829C56.3703 27.6582 68.2037 15.4973 83 14.9709V1.59496C60.8184 2.12592 43.0001 20.2736 43.0001 42.5829Z" stroke="#B27CF8" stroke-width="2"/>
</svg>
