<svg width="84" height="84" viewBox="0 0 84 84" fill="none" xmlns="http://www.w3.org/2000/svg">
<mask id="mask0" mask-type="alpha" maskUnits="userSpaceOnUse" x="5" y="5" width="74" height="74">
<rect x="5" y="5" width="74" height="74" fill="#C4C4C4"/>
</mask>
<g mask="url(#mask0)">
<rect x="4" y="4" width="76" height="76" fill="white" stroke="white" stroke-width="8"/>
<g opacity="0.3">
<rect x="-48" y="38" width="6" height="132" transform="rotate(-45 -48 38)" fill="#F8A3E5"/>
<rect x="-39" y="29" width="6" height="132" transform="rotate(-45 -39 29)" fill="#F8A3E5"/>
<rect x="-30" y="20" width="6" height="132" transform="rotate(-45 -30 20)" fill="#F8A3E5"/>
<rect x="-21" y="11" width="6" height="132" transform="rotate(-45 -21 11)" fill="#F8A3E5"/>
<rect x="-12" y="2" width="6" height="132" transform="rotate(-45 -12 2)" fill="#F8A3E5"/>
<rect x="-2" y="-7" width="6" height="132" transform="rotate(-45 -2 -7)" fill="#F8A3E5"/>
<rect x="7" y="-17" width="6" height="132" transform="rotate(-45 7 -17)" fill="#F8A3E5"/>
<rect x="16" y="-26" width="6" height="132" transform="rotate(-45 16 -26)" fill="#F8A3E5"/>
<rect x="25" y="-35" width="6" height="132" transform="rotate(-45 25 -35)" fill="#F8A3E5"/>
<rect x="34" y="-44" width="6" height="132" transform="rotate(-45 34 -44)" fill="#F8A3E5"/>
</g>
</g>
<rect x="1" y="1" width="82" height="82" stroke="#F8A3E5" stroke-width="2"/>
</svg>
