<svg width="491" height="492" viewBox="0 0 491 492" fill="none" xmlns="http://www.w3.org/2000/svg">
<mask id="mask0" mask-type="alpha" maskUnits="userSpaceOnUse" x="8" y="8" width="231" height="231">
<rect x="8" y="8" width="231" height="231" fill="#C4C4C4"/>
</mask>
<g mask="url(#mask0)">
<rect x="4" y="4" width="238" height="238" fill="#0C0A7A" stroke="#0C0A7A" stroke-width="8"/>
<g opacity="0.3">
<rect x="-141" y="113" width="19" height="388" transform="rotate(-45 -141 113)" fill="#B27CF8"/>
<rect x="-114" y="86" width="19" height="388" transform="rotate(-45 -114 86)" fill="#B27CF8"/>
<rect x="-87" y="60" width="19" height="388" transform="rotate(-45 -87 60)" fill="#B27CF8"/>
<rect x="-61" y="33" width="19" height="388" transform="rotate(-45 -61 33)" fill="#B27CF8"/>
<rect x="-34" y="6" width="19" height="388" transform="rotate(-45 -34 6)" fill="#B27CF8"/>
<rect x="-7" y="-20" width="19" height="388" transform="rotate(-45 -7 -20)" fill="#B27CF8"/>
<rect x="20" y="-47" width="19" height="388" transform="rotate(-45 20 -47)" fill="#B27CF8"/>
<rect x="46" y="-74" width="19" height="388" transform="rotate(-45 46 -74)" fill="#B27CF8"/>
<rect x="73" y="-101" width="19" height="388" transform="rotate(-45 73 -101)" fill="#B27CF8"/>
<rect x="100" y="-127" width="19" height="388" transform="rotate(-45 100 -127)" fill="#B27CF8"/>
</g>
</g>
<rect x="1" y="1" width="244" height="244" stroke="#B27CF8" stroke-width="2"/>
<path d="M4.06545 248.609C6.17506 312.603 58.7172 363.834 123.225 363.834C187.733 363.834 240.275 312.603 242.384 248.609L4.06545 248.609Z" fill="#9797ED" fill-opacity="0.3" stroke="#0C0A7A" stroke-width="8"/>
<path d="M1.0036 245.609C1.54086 312.651 56.0554 366.834 123.225 366.834C190.394 366.834 244.909 312.651 245.446 245.609L1.0036 245.609Z" stroke="#9797ED" stroke-width="2"/>
<path d="M4.06543 487.059C6.17505 423.065 58.7172 371.834 123.225 371.834C187.733 371.834 240.275 423.065 242.384 487.059L4.06543 487.059Z" fill="#8CF2F2" fill-opacity="0.3" stroke="#0C0A7A" stroke-width="8"/>
<path d="M1.0036 490.059C1.54086 423.017 56.0554 368.834 123.225 368.834C190.394 368.834 244.909 423.017 245.446 490.059L1.0036 490.059Z" stroke="#8CF2F2" stroke-width="2"/>
<rect x="246" y="1" width="244" height="244" stroke="#9797ED" stroke-width="2"/>
<path d="M486.999 367.834C486.999 433.68 433.62 487.059 367.774 487.059C301.928 487.059 248.549 433.68 248.549 367.834C248.549 301.987 301.928 248.608 367.774 248.608C433.62 248.608 486.999 301.987 486.999 367.834ZM367.774 449.964C413.133 449.964 449.904 413.193 449.904 367.834C449.904 322.475 413.133 285.704 367.774 285.704C322.415 285.704 285.644 322.475 285.644 367.834C285.644 413.193 322.415 449.964 367.774 449.964Z" fill="#FCEC60" fill-opacity="0.3" stroke="#0C0A7A" stroke-width="8"/>
<path d="M489.999 367.834C489.999 435.337 435.277 490.059 367.774 490.059C300.271 490.059 245.549 435.337 245.549 367.834C245.549 300.331 300.271 245.608 367.774 245.608C435.277 245.608 489.999 300.331 489.999 367.834ZM367.774 446.964C411.476 446.964 446.904 411.536 446.904 367.834C446.904 324.131 411.476 288.704 367.774 288.704C324.072 288.704 288.644 324.131 288.644 367.834C288.644 411.536 324.072 446.964 367.774 446.964Z" stroke="#FCEC60" stroke-width="2"/>
<path d="M247.45 245.505C314.493 244.968 368.676 190.453 368.676 123.284C368.676 56.1144 314.493 1.59986 247.45 1.0626V245.505Z" stroke="#0C0A7A" stroke-width="2"/>
<path d="M248.549 242.443C312.544 240.334 363.774 187.792 363.774 123.284C363.774 58.7762 312.544 6.23405 248.549 4.12443V242.443Z" fill="#9797ED" fill-opacity="0.3" stroke="#0C0A7A" stroke-width="8"/>
<path d="M245.549 245.505C312.592 244.968 366.774 190.453 366.774 123.284C366.774 56.1144 312.592 1.59986 245.549 1.0626V245.505Z" stroke="#9797ED" stroke-width="2"/>
</svg>
