<svg width="220" height="40" viewBox="0 0 220 40" fill="none" xmlns="http://www.w3.org/2000/svg">
<path opacity="0.75" d="M0.423434 18.19C0.723434 15.39 2.62342 13.59 8.22342 14.29C13.7234 14.99 26.7234 13.89 30.7234 13.99C34.7234 13.99 57.0235 12.79 62.8235 12.49C68.7235 12.29 100.223 10.49 107.623 10.29C115.023 10.09 151.523 7.09 158.023 6.89C164.523 6.69 188.023 2.29001 195.423 2.09001C202.823 1.89001 218.023 -1.61001 218.923 1.18999C219.823 3.98999 218.723 15.69 218.723 17.19C218.723 18.69 218.623 23.69 216.823 23.29C215.023 22.99 193.623 24.19 190.223 24.49C186.823 24.79 169.223 26.39 162.123 26.89C155.023 27.39 115.123 30.99 102.823 31.69C90.4235 32.49 50.3234 34.79 42.2234 36.19C34.2234 37.59 19.3234 38.69 14.4234 38.59C9.52343 38.49 3.62344 40.89 1.52344 35.69C-0.676559 30.59 0.423434 18.19 0.423434 18.19Z" fill="#8CF2F2"/>
</svg>
