<svg width="182" height="55" viewBox="0 0 182 55" fill="none" xmlns="http://www.w3.org/2000/svg">
<path opacity="0.75" d="M19.282 40.3081C18.282 42.5081 18.282 43.0081 17.582 45.4081C16.982 47.7081 15.682 49.2081 14.382 49.8081C13.082 50.4081 11.782 50.2081 10.582 49.7081C9.38202 49.2081 9.182 48.7081 8.382 47.9081C7.582 47.1081 5.78202 46.0081 5.18202 45.3081C4.58202 44.7081 3.282 44.1082 2.382 43.2081C1.482 42.3081 0.0820218 41.0081 0.682022 39.8081C1.28202 38.6081 1.58203 38.2081 2.78203 38.0081C3.98203 37.7081 5.282 37.1082 5.882 36.2081C6.482 35.3081 9.08201 33.1081 9.48201 32.3081C9.88201 31.5081 11.382 29.3081 12.282 28.5081C13.182 27.7081 13.882 26.2081 14.782 25.3081C15.682 24.4081 19.082 20.5081 20.082 19.6081C21.082 18.7081 23.482 16.4081 24.182 15.7081C24.982 15.1081 27.182 12.6081 27.782 12.2081C28.382 11.8082 29.982 10.3082 30.682 9.70815C31.282 9.20815 32.482 7.90814 33.682 7.10814C34.882 6.30814 37.282 4.00814 38.182 3.60814C39.082 3.20814 40.382 1.90813 40.982 1.80813C41.582 1.70813 42.682 1.20814 43.482 1.00814C44.282 0.908138 45.982 1.50813 47.582 1.90813C49.282 2.30813 51.582 3.50813 52.782 3.80813C53.982 4.20813 54.882 5.10813 54.582 5.90813C54.282 6.70813 52.882 7.20814 52.282 7.50814C51.682 7.80814 48.182 9.80815 47.382 10.2081C46.582 10.6081 40.482 15.1081 38.682 16.8081C36.882 18.5081 36.382 19.8081 35.682 19.6081C35.082 19.5081 34.782 19.9081 34.482 20.6081C34.182 21.4081 33.582 21.9081 32.882 22.5081C32.282 23.1081 28.382 27.2081 27.682 28.2081C27.082 29.2081 25.082 31.6081 24.282 32.6081C23.482 33.6081 23.982 33.8081 23.082 34.3081C22.182 34.8081 22.282 36.1081 21.482 36.6081C20.982 37.3081 19.782 39.1081 19.282 40.3081Z" fill="#8CF2F2"/>
<path opacity="0.75" d="M91.3824 11.4079C90.9824 10.8079 89.7824 10.3079 88.2824 9.90793C87.6824 9.50793 87.0824 9.10793 86.6824 8.90793C85.7824 8.30793 81.9824 7.20793 81.0824 7.00793C80.3824 6.80793 79.9824 6.80794 79.7824 7.10794C78.9824 7.30794 78.1824 7.60793 77.0824 7.90793C75.3824 8.30793 72.9824 10.3079 70.4824 12.4079C67.8824 14.5079 55.0824 27.8079 53.3824 29.7079C51.6824 31.6079 49.2824 33.5079 49.4824 32.3079C49.6824 31.0079 51.5824 25.0079 52.6824 21.8079C53.0824 20.7079 54.2824 15.2079 54.4824 14.0079C54.7824 12.8079 54.8824 7.30794 54.5824 6.10794C54.2824 4.90794 53.7824 4.50793 52.7824 4.00793C51.7824 3.50793 50.4824 3.00795 49.6824 2.70795C48.8824 2.40795 46.0824 1.30793 44.9824 1.00793C43.9824 0.707934 42.6824 1.90793 42.4824 2.40793C42.4824 2.40793 42.5824 4.30792 42.5824 5.80792C42.5824 7.20792 42.2824 11.9079 42.2824 12.8079C42.2824 13.7079 42.2824 16.4079 41.7824 17.7079C41.2824 19.0079 39.5824 24.6079 38.7824 26.2079C37.9824 27.9079 35.6824 34.0079 34.7824 35.5079C33.8824 37.1079 30.8824 44.0079 30.3824 45.3079C29.8824 46.6079 30.3824 47.2079 30.9824 48.2079C31.5824 49.1079 33.2824 49.6079 34.4824 50.4079C35.6824 51.2079 38.5824 52.7079 39.5824 53.4079C39.5824 53.4079 40.7824 54.2079 42.2824 54.0079C43.7824 53.8079 43.5824 53.8079 46.5824 52.9079C49.5824 52.0079 49.7824 50.1079 51.8824 48.8079C53.9824 47.5079 57.8824 42.8079 59.5824 40.9079C61.2824 39.0079 70.8824 28.3079 73.0824 26.4079C73.6824 25.9079 74.6824 25.0079 75.8824 23.9079C75.4824 25.2079 75.1824 26.4079 74.9824 27.2079C74.3824 29.8079 73.2824 33.4079 73.0824 35.1079C72.8824 36.8079 73.2824 39.2079 74.3824 39.8079C75.4824 40.4079 77.9824 41.5079 79.4824 42.6079C80.9824 43.7079 83.7824 45.0079 85.0824 45.0079C86.3824 45.0079 85.9824 43.7079 85.9824 42.6079C85.9824 41.5079 86.5824 39.4079 87.0824 37.9079C87.4824 36.4079 87.6824 33.6079 88.3824 31.9079C88.9824 30.2079 90.0824 24.4079 90.2824 23.8079C90.4824 23.2079 91.7824 15.5079 91.9824 13.7079C92.0824 13.3079 91.9824 12.9079 91.8824 12.6079C92.2824 12.4079 91.7824 11.9079 91.3824 11.4079Z" fill="#8CF2F2"/>
<path opacity="0.75" d="M74.4823 39.908C75.9823 40.508 79.1823 43.108 81.0823 43.808C82.9823 44.408 85.3823 46.408 88.9823 43.408C92.5823 40.408 96.6823 33.808 100.982 30.108C105.282 26.508 110.582 22.208 113.782 19.408C113.782 19.408 112.882 23.708 112.682 26.908C112.482 30.108 114.382 33.108 116.782 34.408C119.182 35.708 121.882 37.008 124.082 37.608C126.182 38.208 129.382 37.208 131.382 35.908C133.282 34.608 135.682 31.808 137.182 30.808C138.682 29.708 145.282 22.508 146.382 23.108C147.482 23.708 150.682 26.708 152.582 27.808C154.482 28.908 158.982 31.408 160.882 31.008C162.782 30.608 165.182 28.908 166.482 27.808C167.782 26.708 169.282 24.408 170.082 23.308C170.982 22.208 171.182 21.608 174.182 19.508C177.182 17.408 176.782 17.808 178.482 16.308C180.182 14.808 179.982 14.808 179.682 14.608C179.382 14.508 179.382 14.408 179.282 14.208C179.182 14.008 179.182 13.808 179.382 13.708C179.582 13.508 179.882 13.208 180.282 13.008C180.682 12.808 181.482 12.408 181.182 12.408C180.882 12.408 180.782 12.508 180.682 12.308C180.582 12.108 180.582 11.908 180.882 11.808C181.182 11.708 181.582 11.508 181.382 11.208C181.182 10.908 180.782 10.508 180.782 10.508C180.782 10.508 180.882 10.308 180.582 10.408C180.282 10.608 179.882 10.908 179.682 10.908C179.482 10.908 179.482 10.408 179.582 10.308C179.682 10.208 180.282 9.70801 180.782 9.50801C181.282 9.20801 181.182 9.10801 181.582 8.90801C181.982 8.70801 182.182 8.30801 181.782 8.40801C181.382 8.50801 180.782 8.80801 180.382 9.00801C180.082 9.20801 179.682 9.40802 179.582 9.50801C179.382 9.60801 179.282 9.70802 179.182 9.60802C179.082 9.50802 178.982 9.00801 178.982 9.00801C178.982 9.00801 179.082 8.70801 179.282 8.50801C179.482 8.30801 179.682 8.30803 179.882 8.20803C180.082 8.00803 179.882 7.80803 179.682 7.70803C179.582 7.60803 178.882 7.40801 178.782 7.50801C178.582 7.60801 177.882 8.00801 177.682 8.00801C177.482 8.00801 168.682 12.808 167.482 13.608C166.382 14.308 162.182 17.108 161.382 17.508C160.582 17.908 159.582 18.308 159.382 17.808C159.182 17.308 155.082 14.108 153.582 13.308C152.082 12.608 147.882 10.108 146.182 9.808C144.382 9.608 141.282 9.50801 139.482 11.008C137.682 12.508 127.082 22.008 127.082 22.008C127.082 22.008 127.782 14.308 127.782 13.508C127.782 12.708 127.582 12.108 126.782 11.408C125.982 10.708 118.282 6.608 117.382 6.308C116.482 6.008 113.082 5.60801 112.382 5.90801C111.682 6.20801 105.182 9.10801 102.682 11.008C100.182 12.908 94.6823 17.608 93.5823 18.508C92.3823 19.408 86.4823 23.508 85.1823 24.308C83.8823 25.008 76.8823 34.308 75.0823 35.408C73.2823 36.608 72.3823 37.508 72.7823 38.208C73.1823 38.808 74.4823 39.908 74.4823 39.908Z" fill="#8CF2F2"/>
</svg>
