<svg width="259" height="33" viewBox="0 0 259 33" fill="none" xmlns="http://www.w3.org/2000/svg">
<path opacity="0.75" d="M6.61076 22.9434C4.68804 24.5434 1.66664 26.8434 0.430605 27.7434C-0.805426 28.6434 0.705278 31.8433 3.86402 32.5433C7.02277 33.2433 11.9669 32.7433 12.9282 30.5433C13.8896 28.4433 17.323 21.9434 20.7564 17.6434C24.1899 13.3434 28.31 9.54339 28.8593 10.3434C29.4087 11.0434 30.782 21.8434 31.3314 24.4434C31.8807 27.1434 35.3141 29.9434 39.4342 30.3434C43.5543 30.7434 48.0865 29.6434 51.2452 27.3434C54.4039 25.0434 61.8201 17.6434 66.2149 14.1434C70.6097 10.5434 72.8071 9.14336 74.3178 8.94336C75.8285 8.74336 75.2791 10.5434 75.8285 12.3434C76.3778 14.1434 76.5152 22.0434 79.2619 23.2434C82.0086 24.5434 88.3261 27.1434 92.0342 24.6434C95.7423 22.1434 101.098 17.6434 105.081 14.6434C109.064 11.6434 111.673 10.1434 111.673 10.1434C111.673 10.1434 112.223 13.7434 112.36 15.8434C112.635 17.9434 113.321 20.3434 117.03 21.7434C120.738 23.1434 126.094 24.2434 130.489 21.3434C134.883 18.4434 141.75 12.7434 143.261 12.9434C144.772 13.1434 142.986 20.6433 145.184 22.0433C147.381 23.4433 153.561 26.5433 157.269 25.0433C160.977 23.6433 169.767 18.6434 172.239 16.8434C174.711 15.0434 178.144 12.5434 179.106 12.9434C180.067 13.3434 180.342 16.5434 180.616 17.4434C180.891 18.3434 182.402 21.0434 186.797 22.2434C191.191 23.5434 194.35 23.6433 197.372 22.0433C200.256 20.4433 206.985 17.0434 213.303 14.7434C219.757 12.4434 223.878 10.9434 227.998 12.4434C232.118 13.8434 238.023 17.1434 242.281 17.1434C246.401 17.1434 250.109 17.3434 251.62 16.9434C253.13 16.5434 256.976 15.3433 258.074 14.0433C259.036 12.7433 257.113 11.9434 255.19 11.9434C253.268 11.9434 246.126 11.9434 241.731 10.6434C237.337 9.34338 233.079 7.04338 229.234 6.14338C225.251 5.24338 222.641 4.34339 216.187 6.34339C209.732 8.34339 205.062 10.6434 200.668 12.6434C196.273 14.6434 195.037 15.6433 193.526 16.0433C192.015 16.4433 191.054 16.0434 191.054 14.7434C191.054 13.4434 188.582 9.54334 186.11 7.54334C183.638 5.54334 182.402 3.04334 177.046 5.04334C171.69 7.04334 167.157 10.4434 163.587 12.7434C159.879 15.0434 156.033 17.9434 155.758 17.2434C155.484 16.5434 156.033 8.44334 153.836 6.54334C151.638 4.54334 147.656 1.04339 142.574 3.84339C137.355 6.74339 131.313 12.4433 128.291 14.0433C125.407 15.6433 124.583 15.4434 124.583 14.4434C124.583 13.3434 124.583 6.24334 122.111 4.04334C119.639 1.94334 115.656 -1.15664 111.261 1.94336C106.867 4.94336 95.7423 12.5434 93.2703 14.6434C90.7982 16.7434 87.3648 19.1434 86.8154 18.4434C86.2661 17.7434 85.3047 9.14335 83.382 6.24335C81.4593 3.34335 78.9872 1.44336 76.7898 1.44336C74.5925 1.44336 71.159 2.34336 64.9789 6.94336C58.7987 11.6434 49.0478 19.8434 46.3011 21.6434C43.5543 23.4434 42.181 23.9434 40.9449 23.6434C39.7089 23.2434 39.7089 17.3434 39.7089 15.4434C39.7089 13.4434 37.7862 6.64335 33.8034 4.74335C29.8207 2.74335 27.2113 2.74336 23.7779 5.44336C20.3444 8.14336 13.2029 14.5434 11.2802 17.4434C9.3575 20.2434 6.61076 22.9434 6.61076 22.9434Z" fill="#8CF2F2"/>
</svg>
