<svg width="328" height="35" viewBox="0 0 328 35" fill="none" xmlns="http://www.w3.org/2000/svg">
<path opacity="0.75" d="M311.776 10.6358C312.405 7.5358 311.956 6.93583 310.609 5.73583C309.262 4.53583 305.76 4.53581 303.514 4.33581C301.18 4.23581 291.391 3.6358 288.517 3.1358C285.733 2.6358 254.302 2.63581 247.836 1.83581C241.37 1.03581 221.523 0.435833 214.069 0.735833C206.616 1.03583 167.461 1.13584 151.117 0.935845C134.772 0.735845 65.7126 4.13582 60.4142 5.03582C55.2055 5.83582 34.3709 8.03583 30.3297 8.73583C26.2885 9.43583 6.44177 9.23585 3.65783 9.43585C3.65783 9.43585 2.22096 10.8358 2.04135 12.7358C1.86174 14.6358 2.13116 17.1358 1.68214 20.0358C1.32292 22.9358 0.604492 31.9358 0.604492 31.9358C0.604492 31.9358 2.93939 34.7358 6.26215 34.6358C9.58491 34.6358 18.0265 34.1358 21.4391 33.9358C24.7618 33.7358 46.4945 31.5358 52.5114 30.9358C58.5283 30.2358 94.001 27.3358 97.5033 27.3358C101.006 27.3358 139.622 27.3358 141.597 27.1358C143.573 26.9358 172.849 25.9358 177.968 25.4358C183.087 25.0358 248.554 24.3358 252.685 24.3358C256.816 24.2358 291.84 26.4358 294.983 26.3358C298.126 26.2358 303.065 27.7358 304.053 27.9358C304.951 28.1358 305.849 28.4358 306.658 27.7358C307.735 26.8358 308.633 24.7358 309.441 22.5358C310.34 20.4358 311.148 13.7358 311.776 10.6358ZM294.624 8.93585C292.558 8.73585 292.199 8.63582 290.672 8.53582C289.146 8.33582 287.888 8.43581 286.631 8.33581C285.374 8.23581 284.027 8.03581 283.039 7.83581C281.961 7.63581 279.716 7.6358 278.908 7.6358C278.01 7.6358 277.022 7.7358 275.855 7.6358C274.687 7.5358 274.508 7.73583 273.43 7.73583C272.352 7.83583 272.532 7.5358 271.454 7.1358C270.377 6.7358 270.646 7.1358 269.209 7.1358C267.772 7.1358 265.168 6.63584 264.539 6.43584C263.911 6.13584 267.323 6.53582 268.221 6.53582C269.119 6.53582 270.377 6.43582 271.634 6.53582C272.891 6.63582 272.981 6.73585 273.52 6.93584C274.059 7.03584 274.238 7.13581 274.867 6.83581C275.495 6.53581 275.944 6.63582 277.292 7.03582C278.549 7.33582 279.447 6.83583 280.435 6.73583C281.423 6.63583 283.039 7.13583 284.206 7.23583C285.374 7.33583 286.721 7.33584 287.619 7.43584C288.517 7.53584 289.954 7.3358 292.917 8.1358C295.881 8.8358 302.257 9.43585 302.257 9.43585C302.257 9.43585 296.779 9.13585 294.624 8.93585Z" fill="#8CF2F2"/>
<path opacity="0.75" d="M327.957 6.5363C327.857 5.4363 327.057 4.53629 326.157 4.33629C325.257 4.03629 323.657 4.63627 323.157 5.13627C322.657 5.63627 321.657 6.53627 321.857 7.13627C322.057 7.73627 321.557 8.63627 321.357 9.13627C321.157 9.73627 319.857 12.2363 319.557 13.3363C319.357 14.3363 319.657 14.6363 319.257 16.8363C318.857 19.0363 317.857 22.1363 318.257 23.3363C318.657 24.5363 320.757 26.9363 321.857 26.1363C323.357 25.0363 324.057 23.6363 324.957 21.3363C325.257 20.4363 326.057 18.0363 326.457 16.5363C326.757 14.8363 328.057 7.6363 327.957 6.5363Z" fill="#8CF2F2"/>
</svg>
