<svg width="388" height="38" viewBox="0 0 388 38" fill="none" xmlns="http://www.w3.org/2000/svg">
<path opacity="0.75" d="M387.153 11.1848C387.934 7.72559 387.376 7.0561 385.702 5.71704C384.028 4.37799 379.676 4.37796 376.886 4.15478C373.985 4.0432 361.822 3.37365 358.251 2.81571C354.792 2.25777 315.736 2.25779 307.702 1.36508C299.668 0.472379 275.007 -0.197122 265.745 0.137642C256.483 0.472406 207.831 0.584008 187.522 0.360832C167.213 0.137655 81.4013 3.93162 74.8176 4.93591C68.3455 5.82862 42.4571 8.28357 37.4356 9.06468C32.4142 9.8458 7.75322 9.62264 4.29399 9.84581C4.29399 9.84581 2.50857 11.408 2.2854 13.5282C2.06222 15.6484 2.39699 18.4381 1.83905 21.6741C1.3927 24.9102 0.5 34.9531 0.5 34.9531C0.5 34.9531 3.40128 38.0775 7.53003 37.9659C11.6588 37.9659 22.1481 37.4081 26.3884 37.1849C30.5172 36.9617 57.5215 34.5068 64.9979 33.8372C72.4743 33.0561 116.552 29.82 120.903 29.82C125.255 29.82 173.238 29.82 175.693 29.5968C178.148 29.3737 214.526 28.2578 220.886 27.6999C227.247 27.2535 308.595 26.4724 313.728 26.4724C318.861 26.3608 362.38 28.8157 366.286 28.7042C370.191 28.5926 376.328 30.2664 377.556 30.4896C378.672 30.7128 379.788 31.0475 380.792 30.2664C382.131 29.2621 383.247 26.9188 384.251 24.4638C385.367 22.1205 386.371 14.644 387.153 11.1848ZM365.839 9.28788C363.273 9.0647 362.826 8.95308 360.929 8.8415C359.032 8.61832 357.47 8.72989 355.908 8.61831C354.346 8.50672 352.672 8.28354 351.444 8.06036C350.105 7.83719 347.316 7.83718 346.311 7.83718C345.195 7.83718 343.968 7.94876 342.517 7.83718C341.067 7.72559 340.844 7.9488 339.504 7.9488C338.165 8.06039 338.389 7.72559 337.05 7.27924C335.71 6.83288 336.045 7.27924 334.26 7.27924C332.474 7.27924 329.238 6.72135 328.457 6.49817C327.676 6.16341 331.916 6.60973 333.032 6.60973C334.148 6.60973 335.71 6.49815 337.273 6.60973C338.835 6.72132 338.947 6.83294 339.616 7.05611C340.286 7.1677 340.509 7.27925 341.29 6.94448C342.071 6.60972 342.629 6.72132 344.303 7.16767C345.865 7.50244 346.981 6.94451 348.208 6.83292C349.436 6.72134 351.444 7.27928 352.895 7.39086C354.346 7.50245 356.02 7.50247 357.135 7.61405C358.251 7.72564 360.037 7.50241 363.719 8.39512C367.401 9.17623 375.324 9.84581 375.324 9.84581C375.324 9.84581 368.517 9.51105 365.839 9.28788Z" fill="#8CF2F2"/>
<path opacity="0.75" d="M387.487 8.84145C387.375 7.61398 386.483 6.60968 385.478 6.3865C384.474 6.05174 382.689 6.72125 382.131 7.27919C381.573 7.83713 380.457 8.84142 380.68 9.51095C380.903 10.1805 380.345 11.1848 380.122 11.7427C379.899 12.4122 378.448 15.202 378.114 16.4294C377.89 17.5453 378.225 17.8801 377.779 20.335C377.333 22.7899 376.217 26.2492 376.663 27.5882C377.109 28.9273 379.453 31.6054 380.68 30.7127C382.354 29.4852 383.135 27.923 384.139 25.3565C384.474 24.3522 385.367 21.6741 385.813 20.0003C386.148 18.1033 387.599 10.0689 387.487 8.84145Z" fill="#8CF2F2"/>
</svg>
