<svg width="65" height="65" viewBox="0 0 65 65" fill="none" xmlns="http://www.w3.org/2000/svg">
<path d="M31.9995 53C45.8073 53 57 41.8063 57 27.9995C57 14.1927 45.8073 3 31.9995 3C18.1917 3 7 14.1927 7 27.9995C7 41.8063 18.1927 53 31.9995 53Z" fill="#FF8D19"/>
<g filter="url(#filter0_d)">
<path d="M43.9111 22.7701L43.9299 22.8371L43.7981 22.8741L43.8947 23.2168L43.8124 23.2399L43.7162 22.898L43.5843 22.9348L43.5654 22.8679L43.9111 22.7701ZM44.4723 23.0564L44.3892 22.819C44.38 22.7871 44.3689 22.748 44.3536 22.7049L44.3493 22.7062C44.3486 22.7458 44.3504 22.7973 44.35 22.8379L44.3401 23.087L44.2553 23.1107L44.1149 22.8967C44.0985 22.8675 44.0728 22.8227 44.0532 22.7886L44.049 22.7897C44.0596 22.8276 44.0707 22.8668 44.0782 22.9055L44.1309 23.1514L44.0522 23.1736L43.9666 22.7542L44.0892 22.72L44.2175 22.901C44.2353 22.9301 44.2517 22.9581 44.2741 22.9977C44.2738 22.9568 44.2734 22.9193 44.2738 22.8866L44.2884 22.6657L44.4067 22.6326L44.556 23.0341L44.4723 23.0564Z" fill="white"/>
<path d="M20.9079 29.2516C19.7227 29.5829 19.0547 30.825 19.3765 31.9723C19.6984 33.1193 20.9341 33.823 22.0982 33.4991C23.2496 33.1802 23.9677 31.9613 23.635 30.7824C23.4762 30.2197 23.1001 29.7424 22.5889 29.4555C22.0777 29.1685 21.4732 29.0953 20.9079 29.2516ZM21.9473 32.6204C21.7765 32.6782 21.5958 32.7013 21.4159 32.6878C21.236 32.6742 21.0608 32.6247 20.9005 32.5423C20.7403 32.4597 20.5984 32.3458 20.4834 32.2074C20.3683 32.0689 20.2825 31.9088 20.231 31.7366C20.1351 31.4033 20.1752 31.0459 20.3423 30.742C20.5095 30.438 20.7902 30.212 21.1236 30.1132C21.8615 29.8989 22.5616 30.2828 22.7756 31.0158C22.9709 31.6879 22.5803 32.4089 21.9473 32.6204Z" fill="white"/>
<path d="M28.9806 30.3599C28.7227 29.7334 28.3941 29.1452 27.9416 28.6351C27.6633 28.322 27.3505 28.0469 26.9549 27.8867C26.2585 27.6039 25.5888 27.8708 25.2211 28.4936C25.133 28.6447 25.0597 28.8038 25.0025 28.9689L24.7809 28.1817L23.8537 24.8877L23.0068 25.1245L23.934 28.4185L25.1213 32.6361L25.9757 32.3972C25.9682 32.3615 25.9621 32.3288 25.9543 32.2984C25.7927 31.6765 25.6618 31.0494 25.6389 30.405C25.624 29.9844 25.643 29.5676 25.8031 29.1696C25.9381 28.8335 26.2069 28.6439 26.5341 28.6652C26.7661 28.6802 26.9474 28.8049 27.1131 28.9554C27.4376 29.2497 27.6666 29.6137 27.8636 29.9986C28.1178 30.5062 28.323 31.0371 28.4767 31.5835C28.4866 31.619 28.4965 31.6545 28.5062 31.6888L29.3641 31.4489C29.3535 31.4115 29.3466 31.3798 29.3358 31.3484C29.2185 31.019 29.1144 30.684 28.9806 30.3599Z" fill="white"/>
<path d="M32.8707 33.2771C32.5061 33.42 32.1639 33.5108 31.7053 33.3462C31.3758 33.2276 31.0779 32.9913 31.0779 32.9913L31.6169 32.274C31.7588 32.4234 31.9459 32.5224 32.1494 32.5563C32.4737 32.601 32.753 32.3875 32.915 32.0628C33.1136 31.6667 33.1697 31.313 33.1056 30.8069C33.0643 30.4478 32.9954 30.0924 32.8995 29.7439C32.8939 29.7234 32.89 29.701 32.8856 29.6786C32.8312 29.8304 32.7632 29.9768 32.6821 30.1163C32.3141 30.7413 31.6465 31.0058 30.949 30.7234C30.553 30.5632 30.2399 30.2881 29.9622 29.9746C29.5096 29.4649 29.1812 28.8763 28.9226 28.2503C28.7891 27.9263 28.6852 27.5911 28.5683 27.2608C28.5577 27.2305 28.5508 27.1984 28.54 27.1603L29.3983 26.9203C29.4078 26.9539 29.418 26.99 29.4279 27.0256C29.5815 27.5719 29.787 28.1028 30.041 28.6106C30.2378 28.9951 30.4668 29.3592 30.7917 29.6537C30.9574 29.8041 31.1388 29.9288 31.3709 29.9438C31.6975 29.9652 31.9667 29.7755 32.1017 29.4395C32.2613 29.0412 32.281 28.6246 32.2659 28.204C32.2428 27.5599 32.1118 26.9324 31.9505 26.3104C31.9418 26.2794 31.9369 26.2475 31.9289 26.2116L32.751 25.9817L33.7159 29.4087C33.72 29.4231 33.7253 29.442 33.7305 29.4606C33.8934 30.1055 33.9591 30.7018 33.9373 31.2327C33.9213 31.6398 33.8332 32.1849 33.4953 32.7173C33.3722 32.9115 33.1289 33.177 32.8707 33.2771Z" fill="white"/>
<path d="M42.8994 30.4737C42.5348 30.6165 42.1921 30.7075 41.7342 30.5428C41.4032 30.4245 41.1071 30.1877 41.1071 30.1877L41.6455 29.4706C41.7876 29.6197 41.9747 29.7186 42.1782 29.7528C42.5028 29.7976 42.7836 29.5836 42.9439 29.2591C43.1424 28.8632 43.1987 28.5093 43.1345 28.0034C43.0936 27.6441 43.0251 27.2887 42.9289 26.9402C42.9232 26.9197 42.9197 26.8973 42.915 26.875C42.8605 27.0267 42.7925 27.1731 42.7116 27.3126C42.3435 27.9376 41.6761 28.2021 40.9784 27.9197C40.5822 27.7595 40.2697 27.4844 39.9911 27.171C39.5385 26.6612 39.2104 26.0726 38.952 25.4466C38.8184 25.1226 38.7147 24.7874 38.5978 24.4572C38.5872 24.4268 38.58 24.3947 38.5693 24.3566L39.4277 24.1166C39.4373 24.1502 39.4473 24.1863 39.4576 24.2219C39.6112 24.7685 39.8165 25.2991 40.0705 25.807C40.2672 26.1914 40.4963 26.5555 40.8209 26.8502C40.987 27.0005 41.1676 27.1251 41.4 27.1402C41.7271 27.1615 41.9961 26.9718 42.1308 26.6358C42.2908 26.2375 42.3104 25.821 42.295 25.4005C42.2722 24.7562 42.1411 24.1286 41.9797 23.5067C41.9708 23.4759 41.9658 23.4441 41.9583 23.4079L42.7807 23.178L43.7453 26.605C43.7492 26.6194 43.7545 26.6386 43.7599 26.6569C43.9231 27.3018 43.989 27.898 43.9683 28.4286C43.9512 28.8359 43.8632 29.3795 43.5254 29.9134C43.3996 30.1082 43.1548 30.3745 42.8994 30.4737Z" fill="white"/>
<path d="M37.7055 24.561C37.4828 24.6267 37.2594 24.6908 37.0346 24.7487C36.9523 24.7715 36.9434 24.8034 36.9647 24.8798C36.995 24.9868 37.025 25.0934 37.0549 25.2004C36.6181 25.0277 36.1513 24.983 35.6879 25.1125C34.5302 25.44 33.8299 26.6727 34.1532 27.8332C34.4796 29.0037 35.7287 29.6921 36.8789 29.3602C37.3321 29.2355 37.7305 28.9632 38.0098 28.5865L38.1253 28.9966C38.1395 28.996 38.1538 28.9944 38.168 28.9919C38.4175 28.9221 38.6672 28.8524 38.917 28.7841C38.9801 28.7667 38.9751 28.7318 38.9616 28.6846C38.7759 28.025 38.5903 27.3659 38.405 26.7071C38.3996 26.6882 38.3943 26.6692 38.389 26.6503C38.3836 26.6311 38.3768 26.6072 38.3711 26.5861C38.1873 25.9334 38.0034 25.2805 37.8196 24.6275C37.8014 24.5582 37.7722 24.5399 37.7055 24.561ZM36.7058 28.4851C36.0262 28.732 35.3204 28.3322 35.078 27.7833C34.7298 26.9941 35.2044 26.2537 35.7646 26.0303C36.5611 25.7129 37.2473 26.1487 37.485 26.6901C37.8313 27.4804 37.3717 28.2896 36.7069 28.4849L36.7058 28.4851Z" fill="white"/>
<path d="M36.3449 49.6626C35.1568 49.8939 33.9515 50.0271 32.7414 50.0606L32.7072 48.8049C33.8479 48.7736 34.984 48.6489 36.1041 48.4312L36.3449 49.6626ZM39.8341 48.6852L39.394 47.5093C40.4641 47.1135 41.4988 46.6299 42.4887 46.0641L43.1162 47.1541C42.0661 47.7538 40.9683 48.2658 39.8341 48.6852ZM29.1201 49.855C27.9209 49.6865 26.7377 49.4196 25.5824 49.0569L25.9611 47.8603C27.0499 48.202 28.165 48.4536 29.2955 48.6125L29.1201 49.855ZM46.1022 45.0974L45.3029 44.1279C46.1848 43.4059 47.0047 42.6124 47.7551 41.7558L48.704 42.5811C47.9076 43.4893 47.0372 44.3306 46.1018 45.0963L46.1022 45.0974ZM22.2237 47.6907C21.1447 47.1441 20.1124 46.5099 19.1372 45.7951L19.8838 44.7846C20.8033 45.4587 21.7767 46.0566 22.7944 46.5719L22.2237 47.6907ZM50.8519 39.6731L49.7805 39.0143C50.3794 38.0462 50.8979 37.0303 51.3305 35.9781L52.4956 36.4534C52.0371 37.5697 51.4869 38.6466 50.8516 39.6735L50.8519 39.6731ZM16.4048 43.422C15.5613 42.5572 14.7912 41.6243 14.1025 40.6327L15.1379 39.9186C15.7871 40.8533 16.5128 41.7319 17.3076 42.5472L16.4048 43.422ZM53.5878 33.0063L52.3602 32.7288C52.6125 31.6192 52.7725 30.4909 52.8381 29.3551L54.0948 29.4268C54.0257 30.6319 53.8561 31.8291 53.5878 33.0063ZM12.2944 37.4999C11.7807 36.4071 11.3576 35.2743 11.0293 34.1127L12.2417 33.7739C12.551 34.8688 12.9499 35.9367 13.4344 36.9665L12.2944 37.4999ZM53.9997 25.814L52.7479 25.9512C52.6229 24.8207 52.4051 23.7021 52.0969 22.607L52.083 22.5582L53.2938 22.2197L53.3066 22.2654C53.6344 23.4274 53.8664 24.6143 53.9997 25.814ZM11.5858 30.4309L10.3347 30.5691C10.201 29.3697 10.1676 28.1614 10.2349 26.9567L11.4922 27.0269C11.4287 28.1621 11.46 29.3007 11.5858 30.4309ZM50.8865 19.3684C50.4005 18.3398 49.8296 17.3531 49.1797 16.4186L50.2141 15.7036C50.904 16.6952 51.5101 17.7424 52.026 18.8341L50.8865 19.3684ZM11.9656 23.6526L10.7374 23.3762C11.0047 22.1993 11.3688 21.046 11.8256 19.9285L12.9929 20.4019C12.5614 21.4555 12.2178 22.5427 11.9656 23.6526ZM47.0069 13.7929C46.2101 12.9786 45.3478 12.2312 44.4278 11.5583L45.1729 10.5467C46.1485 11.2606 47.0635 12.0535 47.9084 12.9173L47.0069 13.7929ZM14.5383 17.364L13.4658 16.7065C14.1002 15.679 14.8183 14.7054 15.6129 13.7953L16.5624 14.6192C15.8134 15.4773 15.1364 16.3954 14.5383 17.364ZM41.5152 9.77422C40.4969 9.26044 39.4379 8.83096 38.349 8.49011L38.7252 7.29276C39.8801 7.65489 41.0036 8.11098 42.0839 8.6564L41.5152 9.77422ZM19.0107 12.2446L18.2103 11.2753C19.1451 10.5083 20.1424 9.82033 21.1918 9.21839L21.82 10.3056C20.8313 10.8734 19.8917 11.5219 19.0107 12.2446ZM35.0118 7.74112C33.8811 7.58451 32.7392 7.52169 31.5981 7.55337L31.5625 6.29794C32.7742 6.26495 33.9865 6.33222 35.1872 6.49905L35.0118 7.74112ZM24.9127 8.8568L24.4729 7.68111C25.607 7.26094 26.7734 6.93259 27.9605 6.6993L28.2024 7.93104C27.0825 8.15057 25.9823 8.46014 24.9127 8.8568Z" fill="white"/>
</g>
<defs>
<filter id="filter0_d" x="0.201172" y="0.289795" width="63.8936" height="63.7708" filterUnits="userSpaceOnUse" color-interpolation-filters="sRGB">
<feFlood flood-opacity="0" result="BackgroundImageFix"/>
<feColorMatrix in="SourceAlpha" type="matrix" values="0 0 0 0 0 0 0 0 0 0 0 0 0 0 0 0 0 0 127 0" result="hardAlpha"/>
<feOffset dy="4"/>
<feGaussianBlur stdDeviation="5"/>
<feColorMatrix type="matrix" values="0 0 0 0 0 0 0 0 0 0 0 0 0 0 0 0 0 0 0.2 0"/>
<feBlend mode="normal" in2="BackgroundImageFix" result="effect1_dropShadow"/>
<feBlend mode="normal" in="SourceGraphic" in2="effect1_dropShadow" result="shape"/>
</filter>
</defs>
</svg>
