<svg width="64" height="64" viewBox="0 0 64 64" fill="none" xmlns="http://www.w3.org/2000/svg">
<path d="M61.5 32C61.5 48.2924 48.2924 61.5 32 61.5C15.7076 61.5 2.5 48.2924 2.5 32C2.5 15.7076 15.7076 2.5 32 2.5C48.2924 2.5 61.5 15.7076 61.5 32Z" fill="#8CF2F2" fill-opacity="0.2" stroke="white" stroke-width="5"/>
<path d="M63 32C63 49.1208 49.1208 63 32 63C14.8792 63 1 49.1208 1 32C1 14.8792 14.8792 1 32 1C49.1208 1 63 14.8792 63 32Z" stroke="#8CF2F2" stroke-width="2"/>
<path d="M32 14C22.0745 14 14 22.0745 14 32C14 41.9255 22.0745 50 32 50C41.9255 50 50 41.9255 50 32C50 22.0745 41.9255 14 32 14ZM43.7105 28.8425L37.355 33.785L39.473 41.5534C39.5555 41.8549 39.4415 42.1759 39.188 42.3589C39.0575 42.452 38.9045 42.4999 38.7501 42.4999C38.6046 42.4999 38.4606 42.4579 38.3346 42.3739L32 38.1515L25.6655 42.374C25.406 42.548 25.0655 42.5405 24.8105 42.359C24.557 42.176 24.443 41.855 24.5255 41.5535L26.645 33.785L20.2895 28.8425C20.036 28.646 19.937 28.3101 20.0405 28.007C20.144 27.704 20.4305 27.5 20.75 27.5H28.493L31.304 20.471C31.5321 19.901 32.4681 19.901 32.6976 20.471L35.507 27.5H43.25C43.5695 27.5 43.856 27.704 43.9595 28.007C44.063 28.31 43.964 28.646 43.7105 28.8425Z" fill="#8FE9E9"/>
</svg>
