<svg width="596" height="596" viewBox="0 0 596 596" fill="none" xmlns="http://www.w3.org/2000/svg">
<mask id="mask0" mask-type="alpha" maskUnits="userSpaceOnUse" x="298" y="298" width="298" height="298">
<rect x="298" y="298" width="298" height="298" fill="#C4C4C4"/>
</mask>
<g mask="url(#mask0)">
<rect x="298" y="298" width="298" height="298" fill="#8CF2F2"/>
<rect x="318" y="212" width="23" height="468" fill="white"/>
<rect x="365" y="212" width="23" height="468" fill="white"/>
<rect x="411" y="212" width="23" height="468" fill="white"/>
<rect x="458" y="212" width="23" height="468" fill="white"/>
<rect x="505" y="212" width="23" height="468" fill="white"/>
<rect x="552" y="212" width="23" height="468" fill="white"/>
</g>
<rect y="298" width="298" height="298" fill="white"/>
<path fill-rule="evenodd" clip-rule="evenodd" d="M446.25 297.5C528.402 297.5 595 230.902 595 148.75C595 66.5976 528.402 0 446.25 0C364.098 0 297.5 66.5976 297.5 148.75C297.5 230.902 364.098 297.5 446.25 297.5ZM446.25 243.064C498.338 243.064 540.564 200.838 540.564 148.75C540.564 96.6619 498.338 54.4362 446.25 54.4362C394.162 54.4362 351.936 96.6619 351.936 148.75C351.936 200.838 394.162 243.064 446.25 243.064Z" fill="#FCEC60"/>
<path d="M0 594.999C9.79657e-07 512.847 66.5976 446.249 148.75 446.249C230.902 446.249 297.5 512.847 297.5 594.999L243.064 594.999C243.064 542.911 200.838 500.685 148.75 500.685C96.6619 500.685 54.4362 542.911 54.4362 594.999L0 594.999Z" fill="#FCEC60"/>
<path d="M1.77383e-06 -3.54765e-06C7.94169e-07 82.1523 66.5976 148.75 148.75 148.75C230.902 148.75 297.5 82.1524 297.5 0L1.77383e-06 -3.54765e-06Z" fill="#F7F1DF"/>
<path d="M1.77383e-06 297.5C7.94169e-07 379.652 66.5976 446.25 148.75 446.25C230.902 446.25 297.5 379.652 297.5 297.5L1.77383e-06 297.5Z" fill="#0C0A7A"/>
<path d="M1.77383e-06 297.5C7.94169e-07 215.348 66.5976 148.75 148.75 148.75C230.902 148.75 297.5 215.348 297.5 297.5L1.77383e-06 297.5Z" fill="#8CF2F2"/>
</svg>
