<svg width="522" height="522" viewBox="0 0 522 522" fill="none" xmlns="http://www.w3.org/2000/svg">
<mask id="mask0" mask-type="alpha" maskUnits="userSpaceOnUse" x="0" y="261" width="261" height="261">
<rect y="261" width="261" height="261" fill="#C4C4C4"/>
</mask>
<g mask="url(#mask0)">
<rect y="261" width="261" height="261" fill="white"/>
<rect x="-149" y="380" width="20" height="410" transform="rotate(-45 -149 380)" fill="#F8A3E5"/>
<rect x="-120" y="352" width="20" height="410" transform="rotate(-45 -120 352)" fill="#F8A3E5"/>
<rect x="-92" y="323" width="20" height="410" transform="rotate(-45 -92 323)" fill="#F8A3E5"/>
<rect x="-64" y="295" width="20" height="410" transform="rotate(-45 -64 295)" fill="#F8A3E5"/>
<rect x="-36" y="267" width="20" height="410" transform="rotate(-45 -36 267)" fill="#F8A3E5"/>
<rect x="-8" y="239" width="20" height="410" transform="rotate(-45 -8 239)" fill="#F8A3E5"/>
<rect x="21" y="211" width="20" height="410" transform="rotate(-45 21 211)" fill="#F8A3E5"/>
<rect x="49" y="182" width="20" height="410" transform="rotate(-45 49 182)" fill="#F8A3E5"/>
<rect x="77" y="154" width="20" height="410" transform="rotate(-45 77 154)" fill="#F8A3E5"/>
<rect x="105" y="126" width="20" height="410" transform="rotate(-45 105 126)" fill="#F8A3E5"/>
</g>
<rect x="261" y="261" width="261" height="261" fill="#F7F1DF"/>
<path d="M521 521C449.065 521 390.75 462.685 390.75 390.75C390.75 318.815 449.065 260.5 521 260.5V308.166C475.39 308.166 438.416 345.14 438.416 390.75C438.416 436.36 475.39 473.334 521 473.334V521Z" fill="#F8A3E5"/>
<path d="M260.5 521C332.435 521 390.75 462.685 390.75 390.75C390.75 318.815 332.435 260.5 260.5 260.5V521Z" fill="white"/>
<path d="M1.55322e-06 -3.10643e-06C6.95398e-07 71.9351 58.3149 130.25 130.25 130.25C202.185 130.25 260.5 71.9351 260.5 0L1.55322e-06 -3.10643e-06Z" fill="#F7F1DF"/>
<path d="M1.55322e-06 260.5C6.95398e-07 188.565 58.3149 130.25 130.25 130.25C202.185 130.25 260.5 188.565 260.5 260.5L1.55322e-06 260.5Z" fill="#8CF2F2"/>
<rect x="261" width="261" height="261" fill="#B27CF8"/>
<path d="M521 260.5C449.065 260.5 390.75 202.185 390.75 130.25C390.75 58.3149 449.065 0 521 0V260.5Z" fill="#FCEC60"/>
<circle cx="326" cy="64" r="30" fill="#F7F1DF"/>
</svg>
