<svg width="235" height="42" viewBox="0 0 235 42" fill="none" xmlns="http://www.w3.org/2000/svg">
<path opacity="0.75" d="M79.1762 14.4234C79.7546 14.192 81.027 13.3823 81.027 13.3823C81.027 13.3823 79.7546 13.7294 79.2919 13.9607C78.9449 14.1921 77.5568 15.0018 77.3255 15.1175C77.0941 15.2331 75.9373 15.8115 75.2433 16.2742C74.5492 16.7369 73.1611 18.3564 73.1611 18.3564C73.1611 18.3564 75.5903 16.6212 76.2843 16.2742C76.9784 15.6958 78.7135 14.6547 79.1762 14.4234Z" fill="#8CF2F2"/>
<path opacity="0.75" d="M84.266 11.6474C84.8444 11.4161 85.6541 10.6063 86.0012 10.6063C86.3482 10.4907 87.0422 10.375 87.3892 10.028C87.7363 9.68093 88.4303 9.10255 88.7774 8.8712C89.1244 8.63985 88.893 8.52415 87.5049 9.10253C86.1168 9.79658 85.5384 10.1436 84.96 10.722C84.3817 11.1847 83.4563 11.8788 84.266 11.6474Z" fill="#8CF2F2"/>
<path opacity="0.75" d="M233.95 30.3869C233.372 30.2712 233.14 30.0398 232.446 30.0398C231.637 29.9242 231.058 29.6928 230.711 29.3458C230.364 29.1144 229.786 28.9988 230.133 28.5361C230.596 28.0734 230.943 27.3793 230.48 27.3793C230.017 27.3793 228.976 27.148 228.398 26.9166C227.819 26.8009 227.357 26.5696 226.894 26.3382C226.316 26.1069 225.737 25.7598 225.969 25.2971C226.2 24.8344 225.506 24.4874 225.043 24.3717C224.58 24.2561 218.912 23.215 217.177 22.868C215.442 22.5209 213.013 22.1739 210.699 21.3642C208.27 20.5544 206.072 19.7447 204.8 17.1999C203.528 14.655 203.296 13.1512 202.718 12.3415C202.139 11.5318 201.561 9.68096 200.636 9.21825C199.71 8.63988 199.71 8.17719 199.016 8.29286C198.322 8.40854 197.744 8.75557 197.165 8.98692C196.471 9.21828 194.968 9.91233 194.389 10.1437C193.811 10.4907 193.695 10.8377 192.885 10.8377C192.076 10.8377 189.415 12.4572 188.49 13.0356C187.564 13.6139 184.557 15.5804 183.747 15.9274C183.053 16.2745 182.012 17.3155 181.202 17.5469C180.393 17.8939 179.698 18.4723 178.542 18.8193C177.385 19.282 173.799 21.3642 172.064 22.0582C170.329 22.7523 166.511 24.0247 165.008 23.7934C163.504 23.562 162 20.5544 161.422 19.0507C160.843 17.5469 158.299 11.8788 156.448 10.9534C154.481 9.91231 153.44 10.1437 152.63 10.375C151.821 10.6064 150.548 11.4161 150.201 11.5318C149.854 11.6474 147.772 12.5729 146.847 12.9199C145.921 13.2669 144.302 13.7296 143.261 14.1923C142.22 14.655 141.063 15.002 140.716 15.002C140.484 15.002 139.328 14.308 138.749 14.655C138.055 15.002 136.783 15.4647 136.32 15.6961C135.857 16.0431 135.048 16.2745 134.932 16.5058C134.932 16.7372 135.279 16.8528 135.626 16.7372C135.973 16.6215 136.32 16.3901 136.899 16.1588C137.477 16.0431 138.518 15.6961 138.287 15.8118C138.055 15.9274 136.899 16.7372 136.32 16.9685C135.742 17.1999 135.857 17.4312 134.701 17.6626C133.544 18.0096 132.85 17.7782 133.197 17.5469C133.544 17.3155 134.007 16.9685 133.66 16.8528C133.313 16.7372 133.081 16.8528 132.619 17.1999C132.156 17.5469 131.809 17.5469 130.768 17.7782C129.727 18.0096 129.38 18.2409 128.801 18.7037C128.223 19.1664 127.066 19.1664 126.719 19.282C126.488 19.3977 125.562 19.629 124.984 19.629C124.406 19.629 124.059 19.1663 122.902 19.629C121.629 20.0917 118.853 20.9015 117.928 21.0172C116.887 21.1328 115.846 20.6701 115.267 20.0917C114.689 19.629 109.946 10.375 109.021 9.33394C107.98 8.29286 104.856 4.70691 104.047 4.47556C103.353 4.2442 101.039 4.12854 99.4197 4.70692C97.8003 5.2853 93.7516 6.55774 91.6695 7.83017C89.5873 9.1026 79.6392 15.5804 75.1279 18.1253C70.6165 20.6701 67.262 22.5209 66.3366 22.868C65.2955 23.215 64.8328 23.215 64.2544 23.4464C63.676 23.6777 63.2133 23.3307 63.7917 23.0993C64.3701 22.868 66.5679 21.7112 67.4933 21.3642C68.4187 20.9015 70.1538 19.7447 71.0792 19.3977C72.0046 19.0507 71.5419 18.935 70.5009 19.3977C69.4598 19.8604 68.0717 20.2074 67.0306 20.7858C65.9895 21.3642 64.1387 21.9425 63.5603 22.4052C62.8663 22.8679 60.2057 23.7934 57.1982 24.1404C54.1906 24.3717 50.7204 23.4463 50.142 23.0993C49.5636 22.7523 48.5225 21.8269 48.5225 21.8269C48.5225 21.8269 47.8285 17.3156 47.0188 15.9274C46.209 14.5393 40.4253 6.21069 39.1529 4.59124C37.7648 2.97178 35.4512 0.542605 32.9064 0.658281C30.3615 0.658281 25.6188 3.31881 22.6113 5.16961C19.6037 7.1361 7.57345 17.6626 5.25994 19.8604C2.13671 22.868 -0.408152 24.9501 0.0545493 27.2636C0.401576 29.5771 3.29347 35.2452 4.91293 37.2117C6.53239 39.1782 7.11076 40.682 9.77129 38.4842C12.4318 36.2863 20.6448 26.2225 26.7756 21.8269C32.9064 17.4312 39.1528 13.6139 40.5409 17.0842C42.0447 20.5545 47.3658 31.0809 50.142 35.2452C52.9182 39.4095 62.7506 42.5328 72.4674 38.0214C82.1841 33.5101 94.5614 24.9501 98.7257 22.7523C103.006 20.5545 106.823 20.5544 107.517 20.7858C108.327 21.0171 112.954 32.469 113.763 34.5512C114.573 36.5176 120.935 41.1447 128.454 37.9058C132.966 36.055 142.22 31.4279 149.623 29.1144C154.597 27.495 158.761 27.2636 159.455 28.5361C161.19 31.775 162 38.5998 164.892 40.2193C167.784 41.8387 170.097 41.4917 172.527 40.5663C175.071 39.6409 176.344 39.0625 177.269 38.0214C178.195 36.9803 181.434 34.5512 182.937 34.2042C184.441 33.8571 191.613 29.4615 193.348 28.8831C195.083 28.3047 198.322 26.3382 198.322 26.3382C198.322 26.3382 199.595 25.7599 199.942 25.6442C200.173 25.5285 200.867 25.4128 201.098 25.5285C201.33 25.6442 201.33 26.1069 201.098 26.1069C200.867 26.1069 189.531 32.2377 188.258 32.9317C187.102 33.6258 183.4 35.7079 182.59 36.055C181.896 36.2863 180.393 37.2117 179.583 37.5587C178.773 37.9058 178.889 38.4841 179.467 38.2528C180.045 38.0214 186.639 34.8982 188.143 34.0885C189.647 33.2787 194.158 30.5026 195.315 29.8085C196.471 29.1144 197.165 28.8831 198.207 28.5361C199.248 28.189 200.404 27.495 200.52 27.495C200.636 27.3793 201.445 26.9166 201.677 26.9166C201.792 26.9166 202.139 27.7263 202.139 27.9577C202.139 28.189 205.378 34.2042 207.114 35.5923C208.964 36.9804 210.815 37.7901 211.856 38.3685C213.013 38.9468 213.244 39.0625 214.17 38.9468C215.095 38.8312 215.326 38.7155 215.558 38.4842C215.789 38.2528 215.673 38.1371 216.252 38.3685C216.83 38.5998 218.334 39.1782 220.3 39.4095C222.267 39.6409 223.539 39.6409 224.349 39.6409C225.159 39.5252 225.969 39.5252 225.622 39.5252C225.275 39.4096 223.308 39.5252 221.804 39.0625C220.301 38.5998 219.375 38.8312 218.218 38.3685C217.062 37.9058 217.293 37.5587 218.218 37.4431C219.259 37.4431 222.036 38.1371 223.424 38.3685C224.928 38.5998 226.778 38.4841 227.935 38.5998C228.976 38.7155 229.902 38.7155 230.017 38.5998C230.249 38.3685 230.249 38.2528 230.711 38.2528C231.29 38.2528 231.637 38.1371 232.215 38.1371C232.793 38.0214 233.372 37.7901 232.331 37.6744C231.174 37.5587 229.67 37.2117 229.092 37.096C228.513 36.9804 227.704 36.749 227.125 36.5177C226.547 36.2863 226.084 36.055 225.969 35.9393C225.737 35.8236 226.431 35.3609 227.357 35.3609C228.282 35.3609 229.555 35.5923 230.364 35.5923C231.174 35.5923 233.372 35.9393 233.256 35.5923C233.14 35.2452 232.446 35.2452 231.868 35.0139C231.405 34.8982 231.058 34.6668 230.596 34.5512C230.133 34.4355 229.555 33.9728 229.786 33.8571C230.017 33.7415 230.596 33.6258 230.364 33.3944C230.249 33.1631 229.67 32.3534 230.249 32.122C230.827 31.8907 231.174 31.4279 231.637 31.4279C232.099 31.4279 232.678 31.0809 233.025 31.0809C233.719 30.7339 234.529 30.5026 233.95 30.3869ZM28.5107 3.55017C28.1637 4.01287 27.354 4.8226 26.4286 5.40098C25.5032 5.97936 20.4134 9.91231 19.2567 10.375C17.9842 10.9534 14.9767 13.961 14.2826 14.655C13.4729 15.2334 11.6221 16.7371 10.4653 17.7782C9.30858 18.8193 7.68913 19.7447 7.68913 19.7447C7.92048 19.629 12.8945 14.0766 18.0999 10.2593C23.1896 6.44204 24.6934 5.51665 25.8502 4.70692C27.1226 4.01287 27.2383 3.89719 27.9323 3.55017C28.5107 3.20314 28.8577 3.08746 28.5107 3.55017ZM87.9679 27.1479C87.7365 27.3793 87.1581 27.6107 86.6954 27.842C86.3484 28.0734 85.8857 28.0734 85.5387 28.4204C85.3073 28.7674 84.8446 28.7674 84.8446 28.5361C84.8446 28.3047 84.8446 27.7263 85.3073 27.6106C85.8857 27.495 86.4641 27.2636 86.6954 27.1479C86.9268 27.0323 87.2738 26.6852 87.5052 26.6852C87.7365 26.5696 88.1992 26.6852 87.9679 27.1479ZM93.1732 23.7934C92.7105 24.1404 91.7851 24.8344 91.4381 24.9501C91.0911 25.0658 90.7441 25.2972 90.397 25.7599C90.05 26.2226 89.703 26.2226 89.4717 26.3382C89.1246 26.4539 89.0089 25.8755 89.356 25.6442C89.703 25.5285 90.2814 24.7188 90.6284 24.4874C90.9754 24.2561 91.2068 24.1404 91.9008 23.7934C92.7105 23.3307 92.8262 23.0993 93.2889 23.215C93.636 23.4463 93.6359 23.562 93.1732 23.7934ZM98.263 7.59881C96.7592 8.06151 95.4868 8.63988 91.2068 10.9534C86.8111 13.2669 80.796 17.4312 79.7549 17.8939C78.8295 18.2409 78.8295 17.4312 79.2922 17.1999C79.7549 16.9685 79.7549 16.8528 81.3744 15.8118C82.8782 14.7707 86.5797 12.6885 89.0089 11.0691C91.4381 9.44961 95.7181 7.83015 96.9906 7.48312C98.263 7.1361 99.8824 7.25179 99.8824 7.25179C99.8824 7.25179 99.7667 7.1361 98.263 7.59881ZM138.402 17.8939C139.443 17.4312 141.526 16.6215 142.451 16.3901C143.376 16.1588 141.757 16.9685 141.294 17.1999C140.716 17.4312 140.369 17.7782 140.022 18.1253C139.675 18.4723 138.402 18.7037 137.94 18.7037C137.361 18.7037 137.593 18.2409 138.402 17.8939ZM134.701 32.469C135.163 32.3533 136.32 31.8906 136.552 31.775C136.899 31.6593 138.865 31.0809 139.443 30.8496C140.137 30.6182 140.484 30.1555 141.063 29.9241C141.641 29.6928 141.873 29.6928 142.914 29.2301C143.839 28.7674 144.417 28.5361 144.88 28.4204C145.227 28.3047 147.194 27.2636 147.656 27.2636C148.119 27.2636 149.16 27.0323 149.391 26.9166C149.623 26.8009 150.086 26.8009 149.97 26.9166C149.854 27.148 149.392 27.7263 149.044 27.842C148.697 27.9577 147.194 28.4204 146.731 28.6517C146.153 28.7674 144.88 29.1144 143.955 29.4615C143.029 29.8085 141.641 30.6182 140.832 30.9653C140.022 31.1966 139.096 31.4279 138.287 31.8906C137.477 32.2377 137.477 32.2377 136.436 32.7004C135.395 33.1631 134.816 33.5101 134.816 33.5101C134.354 33.7414 133.891 33.7414 133.891 33.3944C133.775 33.0474 134.354 32.5847 134.701 32.469ZM141.41 32.0063C137.014 34.0885 134.701 35.0139 132.85 35.7079C130.999 36.402 130.305 36.2863 130.305 36.2863C130.305 36.2863 132.619 35.2452 133.66 34.8982C134.701 34.5512 141.41 31.4279 144.649 30.1555C147.309 28.9988 147.078 29.2301 148.813 28.6517C150.201 28.189 150.433 28.6517 150.433 28.6517C150.433 28.6517 145.806 29.9242 141.41 32.0063ZM197.859 9.79663C197.744 10.375 197.859 10.375 197.165 10.9534C196.356 11.4161 195.546 12.3415 196.009 12.1101C196.471 11.8788 196.356 12.5729 195.777 13.0356C195.199 13.4983 194.736 13.4983 193.695 13.961C192.654 14.4237 192.191 14.8864 190.803 15.1177C189.531 15.3491 188.143 16.2745 186.639 17.0842C185.135 18.0096 182.59 19.3977 181.087 20.2074C179.583 21.0171 178.773 20.5545 178.195 21.1328C177.616 21.7112 177.385 21.4799 176.575 21.5955C175.765 21.7112 175.997 21.1328 175.997 21.1328C176.46 20.7858 177.269 20.3231 177.848 20.0917C178.31 19.7447 180.161 19.1663 180.855 18.935C181.549 18.588 182.706 17.7782 183.169 17.5469C183.631 17.3155 185.251 16.0431 185.714 15.6961C186.176 15.3491 188.605 13.961 189.415 13.6139C190.225 13.2669 191.382 12.6885 191.96 12.5728C192.538 12.4572 193.58 11.8788 194.158 11.6474C194.736 11.4161 195.662 10.722 196.009 10.4907C196.356 10.2593 196.703 10.028 197.165 9.79663C197.628 9.4496 197.975 9.21825 197.859 9.79663Z" fill="#8CF2F2"/>
</svg>
