<svg width="235" height="235" viewBox="0 0 235 235" fill="none" xmlns="http://www.w3.org/2000/svg">
<mask id="mask0" mask-type="alpha" maskUnits="userSpaceOnUse" x="0" y="0" width="235" height="235">
<rect width="235" height="235" fill="#C4C4C4"/>
</mask>
<g mask="url(#mask0)">
<rect width="235" height="235" fill="#0C0A7A"/>
<rect x="-134" y="108" width="18" height="370" transform="rotate(-45 -134 108)" fill="#B27CF8"/>
<rect x="-109" y="82" width="18" height="370" transform="rotate(-45 -109 82)" fill="#B27CF8"/>
<rect x="-83" y="57" width="18" height="370" transform="rotate(-45 -83 57)" fill="#B27CF8"/>
<rect x="-58" y="31" width="18" height="370" transform="rotate(-45 -58 31)" fill="#B27CF8"/>
<rect x="-32" y="6" width="18" height="370" transform="rotate(-45 -32 6)" fill="#B27CF8"/>
<rect x="-7" y="-20" width="18" height="370" transform="rotate(-45 -7 -20)" fill="#B27CF8"/>
<rect x="19" y="-45" width="18" height="370" transform="rotate(-45 19 -45)" fill="#B27CF8"/>
<rect x="44" y="-70" width="18" height="370" transform="rotate(-45 44 -70)" fill="#B27CF8"/>
<rect x="70" y="-96" width="18" height="370" transform="rotate(-45 70 -96)" fill="#B27CF8"/>
<rect x="95" y="-121" width="18" height="370" transform="rotate(-45 95 -121)" fill="#B27CF8"/>
</g>
</svg>
