<svg width="50" height="50" viewBox="0 0 50 50" fill="none" xmlns="http://www.w3.org/2000/svg">
<g clip-path="url(#clip0)">
<path fill-rule="evenodd" clip-rule="evenodd" d="M18.3323 0C15.5683 0.00203874 13.3314 2.24057 13.3335 4.99898C13.3314 7.75739 15.5704 9.99592 18.3343 9.99796H23.3351V5.00102C23.3372 2.24261 21.0982 0.00407747 18.3323 0C18.3343 0 18.3343 0 18.3323 0V0ZM18.3323 13.3333H5.00082C2.23689 13.3354 -0.00203723 15.5739 5.58277e-06 18.3323C-0.00408005 21.0907 2.23485 23.3293 4.99878 23.3333H18.3323C21.0962 23.3313 23.3351 21.0928 23.3331 18.3344C23.3351 15.5739 21.0962 13.3354 18.3323 13.3333Z" fill="#36C5F0"/>
<path fill-rule="evenodd" clip-rule="evenodd" d="M50.0001 18.3323C50.0022 15.5739 47.7632 13.3354 44.9993 13.3333C42.2354 13.3354 39.9964 15.5739 39.9985 18.3323V23.3333H44.9993C47.7632 23.3313 50.0022 21.0928 50.0001 18.3323ZM36.6666 18.3323V4.99898C36.6687 2.24261 34.4318 0.00407747 31.6678 0C28.9039 0.00203874 26.665 2.24057 26.667 4.99898V18.3323C26.6629 21.0907 28.9018 23.3293 31.6658 23.3333C34.4297 23.3313 36.6687 21.0928 36.6666 18.3323Z" fill="#2EB67D"/>
<path fill-rule="evenodd" clip-rule="evenodd" d="M31.6659 50.0002C34.4298 49.9982 36.6687 47.7597 36.6667 45.0012C36.6687 42.2428 34.4298 40.0043 31.6659 40.0022H26.665V45.0012C26.663 47.7576 28.9019 49.9962 31.6659 50.0002ZM31.6659 36.6648H44.9993C47.7633 36.6628 50.0022 34.4242 50.0001 31.6658C50.0042 28.9074 47.7653 26.6689 45.0014 26.6648H31.6679C28.904 26.6668 26.665 28.9054 26.6671 31.6638C26.665 34.4242 28.9019 36.6628 31.6659 36.6648Z" fill="#ECB22E"/>
<path fill-rule="evenodd" clip-rule="evenodd" d="M1.3968e-06 31.6655C-0.00204142 34.4239 2.23689 36.6625 5.00082 36.6645C7.76475 36.6625 10.0037 34.4239 10.0016 31.6655V26.6665H5.00082C2.23689 26.6685 -0.00204142 28.9071 1.3968e-06 31.6655ZM13.3335 31.6655V44.9989C13.3294 47.7573 15.5683 49.9958 18.3322 49.9999C21.0962 49.9979 23.3351 47.7593 23.3331 45.0009V31.6696C23.3371 28.9112 21.0982 26.6726 18.3343 26.6685C15.5683 26.6685 13.3314 28.9071 13.3335 31.6655C13.3335 31.6655 13.3335 31.6675 13.3335 31.6655Z" fill="#E01E5A"/>
</g>
<defs>
<clipPath id="clip0">
<rect width="50" height="50" fill="white"/>
</clipPath>
</defs>
</svg>
