<svg width="50" height="50" viewBox="0 0 50 50" fill="none" xmlns="http://www.w3.org/2000/svg">
<g clip-path="url(#clip0)">
<path d="M42.4173 45.3086C41.7659 45.1284 41.0693 45.2197 40.4863 45.5615C38.324 46.8292 35.864 47.498 33.3326 47.498C25.5238 47.498 19.167 41.1411 19.167 33.3324C19.167 25.5274 25.5372 19.1689 33.3498 19.1689C41.1557 19.1689 47.4982 25.5206 47.4982 33.3324C47.4982 35.8636 46.8294 38.3237 45.5617 40.4861C45.2199 41.0692 45.1287 41.7657 45.3088 42.4171L46.4145 46.4143L42.4173 45.3086Z" fill="white" fill-opacity="0.3" stroke="#0C0A7A" stroke-width="5" stroke-linejoin="round"/>
<path d="M42.0174 46.7543L41.6098 46.6416L41.245 46.8555C38.8517 48.2586 36.1296 48.998 33.3326 48.998C24.6954 48.998 17.667 41.9696 17.667 33.3324C17.667 24.6967 24.7111 17.6689 33.3498 17.6689C41.9859 17.6689 48.9982 24.6939 48.9982 33.3324C48.9982 36.1293 48.2589 38.8514 46.8557 41.2448L46.6418 41.6096L46.7545 42.0172L48.566 48.5658L42.0174 46.7543Z" stroke="white" stroke-width="2"/>
<path d="M30.8323 16.6195C30.8323 16.6362 30.8325 16.6529 30.8328 16.6696L30.8333 16.6924C30.8188 24.4889 24.4677 30.831 16.6672 30.8293H16.6667C14.1344 30.8293 11.6754 30.162 9.51396 28.8947C8.93094 28.5529 8.23437 28.4617 7.583 28.6419L3.58575 29.7475L4.69145 25.7503C4.87162 25.0989 4.78042 24.4024 4.43861 23.8194C3.17083 21.6569 2.50205 19.1969 2.50205 16.6656C2.50205 8.84773 8.86798 2.45312 16.6677 2.45312C24.4765 2.45312 30.8332 8.8099 30.8323 16.6195Z" fill="white" fill-opacity="0.3" stroke="#0C0A7A" stroke-width="5" stroke-linejoin="round"/>
<path d="M32.3323 16.6196V16.6297L32.3325 16.6397L32.3333 16.6784C32.3264 25.3097 25.3007 32.3311 16.6669 32.3293H16.6667C13.8693 32.3293 11.1482 31.5917 8.75529 30.1887L8.39048 29.9748L7.98291 30.0876L1.4343 31.899L3.24574 25.3504L3.35848 24.9428L3.14461 24.578C1.74142 22.1846 1.00205 19.4625 1.00205 16.6656C1.00205 8.0248 8.03407 0.953125 16.6677 0.953125C25.3049 0.953125 32.3332 7.98154 32.3323 16.6196Z" stroke="white" stroke-width="2"/>
</g>
<defs>
<clipPath id="clip0">
<rect width="50" height="50" fill="white"/>
</clipPath>
</defs>
</svg>
