<svg width="74" height="74" viewBox="0 0 74 74" fill="none" xmlns="http://www.w3.org/2000/svg">
<path d="M71 37C71 55.7777 55.7777 71 37 71C18.2223 71 3 55.7777 3 37C3 18.2223 18.2223 3 37 3C55.7777 3 71 18.2223 71 37Z" fill="#8CF2F2" fill-opacity="0.2" stroke="white" stroke-width="6"/>
<path d="M73 37C73 56.8823 56.8823 73 37 73C17.1177 73 1 56.8823 1 37C1 17.1177 17.1177 1 37 1C56.8823 1 73 17.1177 73 37Z" stroke="#8CF2F2" stroke-width="2"/>
<path fill-rule="evenodd" clip-rule="evenodd" d="M37 58C48.598 58 58 48.598 58 37C58 25.402 48.598 16 37 16C25.402 16 16 25.402 16 37C16 48.598 25.402 58 37 58ZM43.1523 29.6172C43.1523 26.2248 40.3924 23.4648 37 23.4648C33.6076 23.4648 30.8477 26.2248 30.8477 29.6172C30.8477 33.0096 33.6076 35.7695 37 35.7695C30.8937 35.7695 25.9258 40.7374 25.9258 46.8438V47.9969C25.9258 48.3467 26.0746 48.6799 26.3351 48.9133C29.3324 51.599 33.1199 53.0781 37 53.0781C40.8802 53.0781 44.6677 51.599 47.6649 48.9133C47.9254 48.6799 48.0742 48.3466 48.0742 47.9969V46.8438C48.0742 40.7374 43.1063 35.7695 37 35.7695C40.3924 35.7695 43.1523 33.0096 43.1523 29.6172Z" fill="#8FE9E9"/>
</svg>
