<svg width="50" height="50" viewBox="0 0 50 50" fill="none" xmlns="http://www.w3.org/2000/svg">
<path d="M34.9033 4.39453V16.8072V38.0985V45.6055C34.9033 46.6479 34.0512 47.5 33.0088 47.5H4.39551C3.35307 47.5 2.50098 46.6479 2.50098 45.6055V4.39453C2.50098 3.3521 3.35308 2.5 4.39551 2.5H33.0088C34.0512 2.5 34.9033 3.3521 34.9033 4.39453Z" fill="white" fill-opacity="0.3" stroke="#0C0A7A" stroke-width="5" stroke-linejoin="round"/>
<path d="M36.4033 4.39453V16.8072V38.0985V45.6055C36.4033 47.4763 34.8797 49 33.0088 49H4.39551C2.52465 49 1.00098 47.4763 1.00098 45.6055V4.39453C1.00098 2.52367 2.52465 1 4.39551 1H33.0088C34.8797 1 36.4033 2.52367 36.4033 4.39453Z" stroke="white" stroke-width="2"/>
<path d="M46.697 15.7996C45.6271 14.7289 43.9262 14.6616 42.7761 15.5988C42.6097 15.7343 42.7386 15.6149 40.206 18.1474L46.7799 24.7214L49.1424 22.3883C50.2847 21.246 50.2847 19.3874 49.1424 18.245L46.697 15.7996Z" fill="#5553A2"/>
<path d="M26.7251 31.7527L22.8582 40.0392C22.5977 40.5975 22.7142 41.2589 23.1498 41.6945C23.5853 42.1301 24.247 42.2465 24.805 41.9861L33.0915 38.119C33.4194 37.966 32.4269 38.8949 44.6952 26.7797L38.1344 20.2188C25.9706 32.3828 26.8812 31.4184 26.7251 31.7527Z" fill="#5553A2"/>
<path d="M45.9899 16.5067L45.9897 16.5064C45.2868 15.803 44.1649 15.7571 43.4078 16.374L45.9899 16.5067ZM45.9899 16.5067L48.4353 18.9521C48.4353 18.9521 48.4353 18.9521 48.4353 18.9521C49.1865 19.7033 49.1871 20.9273 48.4373 21.6792C48.4367 21.6798 48.436 21.6805 48.4353 21.6812L46.7843 23.3116L41.6201 18.1474M45.9899 16.5067L41.6201 18.1474M43.2766 26.7753L38.1344 21.633C35.618 24.149 33.6991 26.0653 32.2346 27.5277C30.4413 29.3185 29.3294 30.4289 28.6363 31.1266C28.02 31.7471 27.7588 32.0177 27.6452 32.145C27.6408 32.1549 27.6362 32.1651 27.6313 32.1757M43.2766 26.7753L27.693 32.021M43.2766 26.7753C40.7504 29.2704 38.8248 31.1745 37.3541 32.6287C35.5399 34.4227 34.4181 35.5319 33.7154 36.2213C33.0973 36.8278 32.8265 37.0862 32.6992 37.199C32.6893 37.2033 32.6792 37.2079 32.6687 37.2128C32.6686 37.2128 32.6686 37.2128 32.6686 37.2129L24.3821 41.0799L24.3821 41.0799C24.205 41.1626 23.995 41.1256 23.8569 40.9875L23.8569 40.9874C23.7188 40.8493 23.6817 40.6395 23.7643 40.4621C23.7644 40.4621 23.7644 40.462 23.7644 40.462L27.6313 32.1757M43.2766 26.7753L27.6221 32.1713L27.6313 32.1756L27.6313 32.1757M27.6313 32.1757L27.622 32.1714C27.6213 32.1721 27.6207 32.1729 27.62 32.1736C27.6111 32.1839 27.6055 32.1908 27.6024 32.1946M27.6024 32.1946C27.6057 32.1902 27.6117 32.1819 27.6193 32.1701L26.7251 31.7527L27.6194 32.17C27.6322 32.1503 27.6495 32.1211 27.6665 32.085C27.6791 32.0582 27.6891 32.0319 27.693 32.021M27.6024 32.1946C27.6004 32.1971 27.5995 32.1983 27.5996 32.1983C27.5996 32.1983 27.6006 32.197 27.6024 32.1946ZM27.693 32.021C27.6943 32.0173 27.6949 32.0157 27.6949 32.0158C27.6948 32.0159 27.6942 32.0178 27.693 32.021ZM41.6201 18.1474C43.2549 16.5117 43.3143 16.4494 43.3807 16.3957C43.3887 16.3893 43.3968 16.383 43.4077 16.374L41.6201 18.1474ZM32.6438 37.246C32.6438 37.2459 32.6453 37.2448 32.6481 37.2427C32.6452 37.245 32.6438 37.2461 32.6438 37.246ZM32.8367 37.1468C32.8373 37.1466 32.8355 37.1473 32.8304 37.149C32.8339 37.1478 32.8362 37.147 32.8367 37.1468Z" stroke="white" stroke-width="2"/>
</svg>
