<svg width="30" height="30" viewBox="0 0 30 30" fill="none" xmlns="http://www.w3.org/2000/svg">
<path d="M12.4701 17.519C14.309 19.4239 16.5341 20.8946 18.9889 21.8279L22.31 19.1292C22.4085 19.06 22.5252 19.0229 22.6448 19.0229C22.7643 19.0229 22.8811 19.06 22.9795 19.1292L29.146 23.1862C29.3801 23.3299 29.5782 23.5272 29.7248 23.7626C29.8714 23.998 29.9624 24.2649 29.9906 24.5424C30.0188 24.8198 29.9834 25.1002 29.8873 25.3612C29.7912 25.6223 29.6369 25.857 29.4367 26.0468L26.5473 28.9613C26.1335 29.3788 25.6249 29.6852 25.0669 29.8532C24.5089 30.0211 23.9189 30.0454 23.3495 29.9238C17.6695 28.7259 12.4341 25.9204 8.24171 21.8279C4.14233 17.6946 1.30558 12.4355 0.0755704 6.68836C-0.0459384 6.11592 -0.0205778 5.52113 0.149194 4.96164C0.318967 4.40215 0.627393 3.89693 1.04458 3.49494L4.03972 0.5444C4.22506 0.349905 4.45109 0.200748 4.70089 0.108096C4.95068 0.0154446 5.21777 -0.0183 5.48215 0.00938902C5.74652 0.0370781 6.00134 0.125483 6.22751 0.267985C6.45369 0.410487 6.64537 0.603392 6.78819 0.832257L10.8933 7.04818C10.9641 7.14578 11.0023 7.26404 11.0023 7.38551C11.0023 7.50698 10.9641 7.62524 10.8933 7.72284L8.18885 11.0422C9.12755 13.4988 10.59 15.7113 12.4701 17.519Z" fill="#DE466D"/>
</svg>
