<svg width="30" height="22" viewBox="0 0 30 22" fill="none" xmlns="http://www.w3.org/2000/svg">
<path d="M30 5.56151V17.3127C30 18.406 29.5061 19.4544 28.6271 20.2275C27.748 21.0005 26.5557 21.4348 25.3125 21.4348H4.6875C3.4443 21.4348 2.25201 21.0005 1.37294 20.2275C0.49386 19.4544 0 18.406 0 17.3127V5.56151L14.5238 13.0769C14.668 13.1517 14.8325 13.1912 15 13.1912C15.1675 13.1912 15.332 13.1517 15.4762 13.0769L30 5.56151ZM25.3125 5.10358e-08C26.4659 -0.000159468 27.5789 0.373636 28.4385 1.04988C29.2981 1.72612 29.8441 2.65733 29.9719 3.66535L15 11.4099L0.0281252 3.66535C0.155922 2.65733 0.701857 1.72612 1.56149 1.04988C2.42112 0.373636 3.5341 -0.000159468 4.6875 5.10358e-08H25.3125Z" fill="#DE466D"/>
</svg>
