<?xml version="1.0" encoding="UTF-8"?>
<svg width="21px" height="13px" viewBox="0 0 21 13" version="1.1" xmlns="http://www.w3.org/2000/svg" xmlns:xlink="http://www.w3.org/1999/xlink">
    <!-- Generator: Sketch 63.1 (92452) - https://sketch.com -->
    <title>ic_virtual</title>
    <desc>Created with Sketch.</desc>
    <g id="Old-widget" stroke="none" stroke-width="1" fill="none" fill-rule="evenodd">
        <g id="Step4" transform="translate(-330.000000, -163.000000)" fill="#03B471" fill-rule="nonzero">
            <g id="Group" transform="translate(308.000000, 146.000000)">
                <path d="M35.0300558,30 C35.9796499,30 36.7499671,29.2894418 36.7499671,28.4129009 L36.7499671,26.4771698 L40.3923477,28.7449314 C40.5816115,28.8777435 40.7940916,28.9341952 40.9966496,28.9341952 C41.5478072,28.9341952 42.0624544,28.5025556 42.0624544,27.8882993 L42.0624544,19.3584238 C42.0624544,18.7441675 41.5478072,18.3125279 40.9966496,18.3125279 C40.7907842,18.3125279 40.5816115,18.3722869 40.3923477,18.5017917 L36.7499671,20.7728606 L36.7499671,18.8371295 C36.7499671,17.9605885 35.9796499,17.2500304 35.0300558,17.2500304 L24.6574113,17.2500304 C23.7078171,17.2500304 22.9375,17.9605885 22.9375,18.8371295 L22.9375,28.4129009 C22.9375,29.2894418 23.7078171,30 24.6574113,30 L35.0300558,30 Z M35.0300558,28.4062538 L24.6574113,28.4062538 C24.5910052,28.4062538 24.5511551,28.3863449 24.5312462,28.3697434 L24.5312462,18.880287 C24.5511551,18.8670252 24.5910052,18.8437766 24.6574113,18.8437766 L35.0300558,18.8437766 C35.0964619,18.8437766 35.136312,18.8636855 35.1562209,18.880287 L35.1562209,28.3697434 C35.136312,28.3830052 35.0964619,28.4062538 35.0300558,28.4062538 Z M40.4687082,26.9187638 L36.7499671,24.6011977 L36.7499671,22.6521724 L40.4687082,20.3346063 L40.4687082,26.9187638 Z" id="ic_virtual"></path>
            </g>
        </g>
    </g>
</svg>
