<svg width="40" height="40" viewBox="0 0 40 40" fill="none" xmlns="http://www.w3.org/2000/svg">
<path d="M24.0833 16.4C24.0833 18.7196 22.2552 20.6 20 20.6C17.7448 20.6 15.9167 18.7196 15.9167 16.4C15.9167 14.0804 17.7448 12.2 20 12.2C22.2552 12.2 24.0833 14.0804 24.0833 16.4Z" fill="white"/>
<path fill-rule="evenodd" clip-rule="evenodd" d="M20 38C22.9667 38 34 26 34 16.4C34 7.78436 28.3763 2 20 2C11.6237 2 6 7.78436 6 16.4C6 26 17.1117 38 20 38ZM27 16.4C27 20.3765 23.866 23.6 20 23.6C16.134 23.6 13 20.3765 13 16.4C13 12.4236 16.134 9.2 20 9.2C23.866 9.2 27 12.4236 27 16.4Z" fill="white"/>
</svg>
