<svg width="40" height="40" viewBox="0 0 40 40" fill="none" xmlns="http://www.w3.org/2000/svg">
<path d="M22.1495 2.00048C22.2914 2.01359 22.4333 2.02642 22.5753 2.03925C22.9217 2.07058 23.2682 2.1019 23.6143 2.13728C26.9521 2.47787 29.8866 3.76278 32.4135 5.9507C35.1781 8.34383 36.9252 11.3488 37.6541 14.9271C37.7617 15.4558 37.8154 15.9955 37.8692 16.5351L37.8692 16.5353C37.894 16.7838 37.9188 17.0324 37.9488 17.2798C37.9545 17.3273 37.9624 17.3748 37.9704 17.4223L37.9704 17.4223C37.9871 17.5222 38.0038 17.6218 37.9993 17.7206C37.9899 17.9349 37.973 18.1488 37.9561 18.3627L37.9561 18.3628C37.9421 18.5405 37.928 18.7183 37.9183 18.8963C37.8669 19.8411 36.8995 20.4814 36.0036 20.414C35.1776 20.3518 34.364 19.6649 34.3369 18.7329C34.314 17.9429 34.2702 17.1497 34.1721 16.3659C33.9012 14.1965 33.0643 12.2494 31.7204 10.5299C29.818 8.09635 27.3458 6.54495 24.3113 5.9317C23.7884 5.82622 23.2506 5.7937 22.713 5.7612C22.4807 5.74716 22.2485 5.73312 22.0176 5.7132C21.8783 5.70128 21.7386 5.69337 21.5989 5.68545C21.4377 5.67632 21.2765 5.66718 21.1159 5.65192C20.1052 5.55549 19.4007 4.56128 19.5968 3.51625C19.7501 2.70112 20.2838 2.18953 21.1112 2.06508C21.2136 2.04978 21.3158 2.03373 21.418 2.01765C21.4555 2.01176 21.493 2.00586 21.5306 2C21.7367 2.00048 21.9433 2.00048 22.1495 2.00048Z" fill="white"/>
<path d="M27.7985 37.9416C25.5924 37.9116 23.4987 37.3744 21.4763 36.5327C18.1786 35.1604 15.3084 33.1377 12.6762 30.7527C10.3196 28.6175 8.14257 26.3227 6.32303 23.7058C5.03908 21.8594 3.92127 19.9252 3.13432 17.8114C2.50877 16.1312 2.10744 14.4031 2.01699 12.6109C1.92511 10.8001 2.19742 9.05255 3.04197 7.428C3.25524 7.01758 3.51899 6.61857 3.827 6.27466C4.49207 5.53126 5.18713 4.81399 5.89457 4.11049C6.63391 3.37564 7.53035 3.34476 8.45916 3.65685C8.67244 3.72858 8.86239 3.90718 9.03092 4.06964C10.252 5.24673 11.4722 6.42477 12.6771 7.618C13.2668 8.20156 13.8437 8.79782 14.4206 9.39417L14.4207 9.39428C14.6483 9.62943 14.8758 9.8646 15.1041 10.099C15.1395 10.1352 15.1713 10.1746 15.2032 10.214C15.2362 10.2548 15.2692 10.2955 15.306 10.3327C15.9787 11.0125 15.9549 11.8205 15.724 12.6584C15.6816 12.8123 15.5902 12.9695 15.4788 13.0845C14.7804 13.8079 14.0782 14.5285 13.3598 15.2316C12.9923 15.5911 12.521 15.7612 12.014 15.8353C11.8681 15.8568 11.723 15.8831 11.578 15.9093L11.5779 15.9093L11.5778 15.9093C11.489 15.9254 11.4002 15.9415 11.3113 15.9564C11.0685 15.9973 10.9704 16.1455 10.9523 16.3844C10.8833 17.2888 11.1675 18.1035 11.5888 18.8797C12.2115 20.0268 12.9613 21.0909 13.8759 22.021C15.3531 23.5234 16.8332 25.0268 18.3771 26.4595C19.4287 27.4357 20.6218 28.2456 21.9833 28.7662C22.4708 28.9529 22.9774 29.0379 23.4987 29.0141C23.8862 28.9961 23.9633 28.9248 24.04 28.5505C24.0814 28.3491 24.1175 28.1463 24.1442 27.9425C24.2151 27.3991 24.4294 26.9179 24.8098 26.5269C25.1233 26.2045 25.4433 25.8883 25.7632 25.5722C26.08 25.2591 26.3968 24.946 26.7074 24.6269C27.3724 23.9438 28.8425 23.892 29.5433 24.5666C29.8496 24.861 30.16 25.1514 30.4705 25.4417L30.4706 25.4418C30.9589 25.8984 31.4472 26.3549 31.9189 26.8276C32.7729 27.6838 33.6166 28.55 34.4604 29.4161L34.4606 29.4164C34.9715 29.9408 35.4824 30.4652 35.9955 30.9873C36.3435 31.3417 36.4711 31.7526 36.4992 32.2476C36.5444 33.0332 36.3021 33.6712 35.7417 34.2118C35.5019 34.4432 35.2671 34.6797 35.0324 34.9161L35.0322 34.9163C34.7702 35.1802 34.5081 35.4442 34.2393 35.7009C33.0924 36.7963 31.7042 37.429 30.1603 37.7131C29.6249 37.8116 29.0814 37.8666 28.538 37.9216L28.5379 37.9216C28.2927 37.9464 28.0476 37.9712 27.8033 38C27.8026 37.9913 27.8019 37.9825 27.8011 37.9736C27.8002 37.9631 27.7993 37.9524 27.7985 37.9416Z" fill="white"/>
<path d="M22.7236 9.53707C21.5668 9.48482 20.8174 10.1864 20.8193 11.3132C20.8203 12.0105 21.0917 12.5743 21.6667 12.8793C21.9805 13.0465 22.348 13.1344 22.7022 13.2009C24.7445 13.5833 26.2813 15.0549 26.7364 17.0779L26.7465 17.1231C26.8226 17.4623 26.8995 17.8048 27.0235 18.1277C27.2882 18.8165 28.0627 19.2516 28.8254 19.1766C29.6676 19.0939 30.3379 18.5533 30.4326 17.7776C30.4864 17.3402 30.4469 16.8732 30.356 16.439C29.8209 13.8844 28.4184 11.9321 26.1608 10.612C25.103 9.99356 23.9638 9.59312 22.7236 9.53707Z" fill="white"/>
</svg>
