<svg width="120" height="120" viewBox="0 0 120 120" fill="none" xmlns="http://www.w3.org/2000/svg">
<path d="M19.3078 101.881C20.8572 101.702 22.2703 101.318 23.6244 100.714C24.0035 100.545 24.3781 100.357 24.7357 100.147C25.7935 99.5248 26.8457 99.5248 27.9127 100.121C31.1533 101.93 34.6084 103.137 38.278 103.645C47.7886 104.961 56.3469 102.783 63.6759 96.3958C66.6838 93.7748 68.8938 90.5522 70.2524 86.7645C70.635 85.6983 71.35 84.9791 72.5021 84.8467C73.5929 84.7223 74.468 85.1618 75.0673 86.0876C75.5407 86.8193 75.5974 87.6081 75.2966 88.4346C72.9425 94.9038 68.7814 99.9141 63.0698 103.637C57.6284 107.183 51.6194 108.977 45.1598 109.303C38.6809 109.631 32.5221 108.399 26.7016 105.494C26.5324 105.41 26.2555 105.408 26.0818 105.487C22.2658 107.229 18.2715 107.636 14.1547 107.108C12.7234 106.924 11.5747 105.852 11.2592 104.487C10.9255 103.037 11.443 101.604 12.6791 100.792C13.9561 99.9529 14.9367 98.8433 15.813 97.6127C16.0627 97.2622 16.0695 97.0419 15.788 96.6892C12.4725 92.5396 10.4419 87.8227 9.85624 82.5316C9.04921 75.2405 10.9652 68.6663 15.2795 62.7885C17.7369 59.4403 20.8084 56.76 24.3543 54.6252C25.688 53.8227 27.2725 54.1686 28.0364 55.4175C28.8559 56.7577 28.4813 58.2999 27.0886 59.1584C23.2476 61.5271 20.0819 64.5693 17.8141 68.5122C12.9901 76.8992 14.1422 87.1789 20.7266 94.2394C21.8038 95.3947 22.1001 96.6275 21.4031 98.0362C20.8243 99.2063 20.1625 100.334 19.5371 101.481C19.4758 101.593 19.4111 101.702 19.3078 101.881Z" fill="#B7A26F"/>
<path d="M75.7271 36.1575L64.6689 36.1573C63.7213 36.1573 62.7737 36.1567 61.8262 36.1561C59.6152 36.1547 57.4042 36.1533 55.1929 36.1596C53.8025 36.163 52.7893 37.2248 52.7371 38.6962C52.6809 40.2725 53.7453 41.4438 55.2561 41.4449C59.972 41.4473 64.6874 41.4469 69.4027 41.4464C71.2884 41.4462 73.1742 41.446 75.0599 41.446C76.121 41.446 77.1821 41.4458 78.2433 41.4455C81.427 41.4446 84.6109 41.4438 87.7943 41.4506C88.5898 41.4528 89.286 41.2147 89.8036 40.514C90.4567 39.6294 90.534 38.6274 90.1217 37.6062C89.7144 36.5963 88.96 36.1562 87.9829 36.1562C83.8981 36.1579 79.8126 36.1577 75.7271 36.1575Z" fill="white"/>
<path d="M75.7866 48.8749C74.3794 48.8745 72.9721 48.874 71.5649 48.874C70.3711 48.874 69.1774 48.8738 67.9837 48.8736C65.0017 48.8732 62.0197 48.8727 59.0383 48.8751C58.663 48.8754 58.2876 48.8726 57.9121 48.8698C56.8841 48.8622 55.8554 48.8545 54.8303 48.9105C53.3485 48.9916 52.409 50.6377 52.8402 52.2644C53.163 53.4844 54.0443 54.1572 55.3367 54.1572C60.0917 54.158 64.8473 54.1577 69.6026 54.1575L76.7353 54.1572C77.8635 54.1572 78.9918 54.158 80.1201 54.1587H80.1236C82.7023 54.1604 85.2813 54.1621 87.8603 54.1549C89.7201 54.1492 90.8952 52.2518 90.1482 50.4481C89.679 49.3138 88.8358 48.866 87.75 48.8683C83.7622 48.8776 79.7744 48.8763 75.7866 48.8749Z" fill="white"/>
<path fill-rule="evenodd" clip-rule="evenodd" d="M111.199 47.2439C111.228 46.9144 111.257 46.5849 111.288 46.2558C111.288 45.6795 111.288 45.1033 111.287 44.5282C111.277 44.4607 111.264 44.3934 111.252 44.3261C111.226 44.1887 111.2 44.0515 111.194 43.9139C110.922 37.8918 109.09 32.385 105.811 27.4014C100.714 19.6518 93.6211 14.6048 84.9787 11.7995C77.0869 9.23858 69.071 9.01384 61.0393 11.0262C51.9206 13.3105 44.2433 18.0255 38.5784 25.7671C32.4022 34.2083 30.4394 43.6338 33.0772 53.8775C35.1697 62.0052 39.9035 68.3338 46.5063 73.2252C53.1701 78.1615 60.6905 80.7086 68.8791 81.2054C76.6998 81.6791 84.1457 80.175 91.1797 76.6125C91.4111 76.4961 91.7746 76.4419 91.9958 76.5434C96.4925 78.5995 101.17 79.2703 106.043 78.528C107.75 78.2676 108.862 77.2798 109.215 75.6951C109.578 74.0631 109.003 72.5348 107.607 71.584C105.972 70.4706 104.771 68.9746 103.76 67.2816C103.484 66.8182 103.557 66.537 103.874 66.1359C107.739 61.2423 110.165 55.7009 110.974 49.4506C111.069 48.7179 111.134 47.9808 111.199 47.2439ZM101.46 73.1711C101.487 73.2129 101.519 73.2627 101.56 73.3243C98.6753 73.2148 96.0444 72.566 93.638 71.1449C92.4066 70.4153 91.2791 70.4222 90.024 71.108C82.6085 75.1592 74.7032 76.563 66.3836 75.4312C58.7729 74.3962 52.0289 71.3581 46.4058 65.9608C41.3956 61.1512 38.2206 55.3021 37.5095 48.2578C36.6314 39.5676 39.4881 32.1384 45.355 25.9193C51.1057 19.8235 58.2638 16.503 66.4175 15.3643C73.2291 14.4123 79.8545 15.2283 86.2248 17.8872C92.3773 20.4551 97.5026 24.3933 101.257 30.0523C104.856 35.4784 106.461 41.4751 105.841 48.0169C105.267 54.0873 102.824 59.3486 98.8604 63.8712C97.7803 65.1033 97.576 66.3319 98.2385 67.8233C99.0681 69.6881 100.014 71.4653 101.347 73.0097C101.384 73.0524 101.415 73.1002 101.46 73.1711Z" fill="white"/>
</svg>
