<svg width="40" height="40" viewBox="0 0 40 40" fill="none" xmlns="http://www.w3.org/2000/svg">
<path d="M20 2.5C21.5 5.5 21.6288 5.88806 23.3379 8.56308C24.6544 10.6236 27.9214 15.6082 29.1841 17.6997C30.3858 19.6894 31.3065 21.8081 31.751 24.0911C32.2238 26.5192 32.0438 28.8978 31.0341 31.1867C30.2053 33.0663 28.8779 34.5584 27.2039 35.7644C25.0736 37.2997 22.6688 38.0043 20.0269 38C18.3007 37.9971 16.6183 37.7541 15.0478 37.0505C11.6725 35.537 9.39653 33.0629 8.40916 29.5379C7.74396 27.1632 7.92692 24.8069 8.69006 22.4773C9.37963 20.3731 10.3764 18.4126 11.585 16.5519C13.3167 13.8872 15.0687 11.2351 16.7884 8.56308C18.125 6.4858 18.9488 5 20 2.5ZM18.52 35.0332C18.603 35.0332 18.6855 35.0332 18.7686 35.0332C19.4104 35.0312 19.8489 34.635 19.8559 34.0517C19.8628 33.4605 19.4169 33.0493 18.7785 33.0294C16.4866 32.9576 14.75 31.9504 13.5752 30.0369C13.0228 29.1373 12.8026 28.1432 12.7822 27.0982C12.7713 26.5415 12.3104 26.1327 11.7461 26.1346C11.1997 26.1366 10.7543 26.5526 10.7354 27.0992C10.7259 27.3727 10.7314 27.6496 10.7642 27.9211C11.0128 29.9952 11.9142 31.7429 13.5399 33.1157C14.9682 34.3208 16.6367 34.9459 18.52 35.0332Z" fill="white"/>
</svg>
