<svg width="32" height="32" viewBox="0 0 32 32" fill="none" xmlns="http://www.w3.org/2000/svg">
<path fill-rule="evenodd" clip-rule="evenodd" d="M16 32C24.8365 32 32 24.8365 32 16C32 7.16345 24.8365 0 16 0C7.16345 0 0 7.16345 0 16C0 24.8365 7.16345 32 16 32ZM8.29187 8.28693C8.672 7.9068 9.28833 7.9068 9.66846 8.28693L16.5204 15.1389L23.3723 8.28693C23.7524 7.9068 24.3688 7.9068 24.7489 8.28693C25.129 8.66702 25.129 9.28329 24.7489 9.66342L17.8969 16.5154L24.7489 23.3673C25.1289 23.7474 25.1289 24.3637 24.7489 24.7438C24.3688 25.124 23.7524 25.124 23.3723 24.7438L16.5204 17.8919L9.66846 24.7438C9.28833 25.124 8.672 25.124 8.29199 24.7438C7.91187 24.3637 7.91187 23.7474 8.29199 23.3673L15.1439 16.5154L8.29187 9.66342C7.91187 9.28329 7.91187 8.66702 8.29187 8.28693Z" fill="white"/>
</svg>
