<svg width="40" height="40" viewBox="0 0 40 40" fill="none" xmlns="http://www.w3.org/2000/svg">
<circle cx="20" cy="20" r="20" fill="white"/>
<path d="M21.1942 10.0003C21.273 10.0075 21.3519 10.0147 21.4307 10.0218C21.6232 10.0392 21.8156 10.0566 22.008 10.0763C23.8623 10.2655 25.4925 10.9793 26.8964 12.1948C28.4323 13.5244 29.4029 15.1938 29.8078 17.1817C29.8676 17.4755 29.8975 17.7753 29.9273 18.075L29.9273 18.0752C29.9411 18.2132 29.9549 18.3513 29.9715 18.4888C29.9747 18.5152 29.9791 18.5416 29.9835 18.5679L29.9835 18.568C29.9928 18.6234 30.0021 18.6788 29.9996 18.7337C29.9944 18.8527 29.985 18.9716 29.9756 19.0904L29.9756 19.0905C29.9678 19.1892 29.96 19.2879 29.9546 19.3868C29.9261 19.9117 29.3886 20.2675 28.8909 20.23C28.432 20.1954 27.98 19.8138 27.9649 19.2961C27.9522 18.8572 27.9279 18.4165 27.8734 17.9811C27.7229 16.7758 27.258 15.6941 26.5113 14.7388C25.4544 13.3869 24.081 12.525 22.3952 12.1843C22.1046 12.1257 21.8059 12.1076 21.5072 12.0896C21.3782 12.0818 21.2492 12.074 21.1209 12.0629C21.0435 12.0563 20.9659 12.0519 20.8883 12.0475C20.7987 12.0424 20.7092 12.0373 20.62 12.0288C20.0585 11.9753 19.667 11.4229 19.776 10.8424C19.8612 10.3895 20.1576 10.1053 20.6173 10.0362C20.6742 10.0277 20.731 10.0187 20.7878 10.0098C20.8086 10.0065 20.8295 10.0033 20.8503 10C20.9648 10.0003 21.0796 10.0003 21.1942 10.0003Z" fill="black"/>
<path d="M24.3325 29.9675C23.1069 29.9509 21.9437 29.6524 20.8202 29.1848C18.9881 28.4224 17.3935 27.2987 15.9312 25.9737C14.622 24.7875 13.4125 23.5126 12.4017 22.0588C11.6884 21.033 11.0674 19.9584 10.6302 18.7841C10.2826 17.8507 10.0597 16.8906 10.0094 15.8949C9.95839 14.889 10.1097 13.9181 10.5789 13.0156C10.6974 12.7875 10.8439 12.5659 11.015 12.3748C11.3845 11.9618 11.7706 11.5633 12.1637 11.1725C12.5744 10.7642 13.0724 10.7471 13.5884 10.9205C13.7069 10.9603 13.8124 11.0595 13.9061 11.1498C14.5845 11.8037 15.2623 12.4582 15.9317 13.1211C16.2593 13.4453 16.5798 13.7766 16.9004 14.1079L16.9004 14.1079C17.0268 14.2386 17.1532 14.3692 17.2801 14.4995C17.2997 14.5196 17.3174 14.5414 17.3351 14.5633C17.3534 14.586 17.3718 14.6086 17.3922 14.6293C17.7659 15.0069 17.7527 15.4558 17.6244 15.9213C17.6009 16.0068 17.5501 16.0942 17.4882 16.158C17.1002 16.56 16.7101 16.9603 16.311 17.3509C16.1068 17.5506 15.845 17.6451 15.5633 17.6863C15.4823 17.6982 15.4017 17.7128 15.3211 17.7274L15.321 17.7274L15.321 17.7274C15.2717 17.7363 15.2223 17.7453 15.1729 17.7536C15.0381 17.7763 14.9836 17.8586 14.9735 17.9913C14.9352 18.4938 15.0931 18.9464 15.3271 19.3776C15.6731 20.0149 16.0896 20.606 16.5977 21.1228C17.4184 21.9575 18.2407 22.7927 19.0984 23.5886C19.6826 24.1309 20.3454 24.5809 21.1019 24.8701C21.3727 24.9738 21.6541 25.021 21.9437 25.0079C22.159 24.9978 22.2018 24.9582 22.2444 24.7503C22.2674 24.6384 22.2875 24.5257 22.3023 24.4125C22.3417 24.1106 22.4608 23.8433 22.6721 23.6261C22.8463 23.447 23.024 23.2713 23.2018 23.0957C23.3778 22.9217 23.5538 22.7478 23.7263 22.5705C24.0958 22.191 24.9125 22.1622 25.3018 22.537C25.472 22.7006 25.6445 22.8619 25.817 23.0232L25.817 23.0232C26.0883 23.2769 26.3595 23.5305 26.6216 23.7931C27.096 24.2688 27.5648 24.75 28.0336 25.2312L28.0337 25.2313C28.3175 25.5226 28.6013 25.814 28.8864 26.1041C29.0797 26.3009 29.1506 26.5292 29.1662 26.8042C29.1913 27.2407 29.0567 27.5951 28.7454 27.8954C28.6122 28.024 28.4817 28.1554 28.3513 28.2867L28.3512 28.2868C28.2056 28.4335 28.0601 28.5801 27.9107 28.7227C27.2736 29.3313 26.5023 29.6828 25.6446 29.8406C25.3472 29.8953 25.0452 29.9259 24.7433 29.9564L24.7433 29.9564C24.6071 29.9702 24.4709 29.984 24.3352 30C24.3348 29.9952 24.3344 29.9903 24.334 29.9854C24.3334 29.9795 24.3329 29.9736 24.3325 29.9675Z" fill="black"/>
<path d="M21.5131 14.1873C20.8704 14.1582 20.4541 14.548 20.4552 15.174C20.4557 15.5614 20.6065 15.8746 20.926 16.044C21.1003 16.1369 21.3044 16.1858 21.5012 16.2227C22.6359 16.4351 23.4896 17.2527 23.7424 18.3766L23.7481 18.4017C23.7904 18.5902 23.8331 18.7804 23.9019 18.9599C24.049 19.3425 24.4793 19.5842 24.903 19.5425C25.3709 19.4966 25.7433 19.1963 25.7959 18.7654C25.8258 18.5223 25.8038 18.2629 25.7533 18.0217C25.456 16.6025 24.6769 15.5178 23.4227 14.7845C22.835 14.4409 22.2021 14.2184 21.5131 14.1873Z" fill="black"/>
</svg>
