<svg width="40" height="40" viewBox="0 0 40 40" fill="none" xmlns="http://www.w3.org/2000/svg">
<circle cx="20" cy="20" r="20" fill="white"/>
<path d="M44.1762 22.9601C44.4972 23.1727 44.818 23.3851 45.1414 23.5991C45.2154 23.4931 45.2874 23.3889 45.3583 23.2863C45.5154 23.0589 45.6673 22.8391 45.8244 22.6231C45.9597 22.4368 46.0946 22.25 46.2295 22.0633C47.1253 20.8229 48.0213 19.5824 49.054 18.4474C50.0596 17.3421 51.2765 16.8071 52.8046 17.0684C54.2673 17.3184 55.2243 18.1255 55.6701 19.5265C55.9405 20.3761 55.9672 21.2494 55.7138 22.0938C55.4878 22.8468 55.1993 23.5824 54.9114 24.3167C54.8605 24.4464 54.8097 24.5762 54.7591 24.706C54.003 26.6496 53.252 28.5928 53.1065 30.7026C53.0572 31.4161 53.0382 32.1265 53.1797 32.8324C53.5434 34.6468 54.5304 36.0578 56.0419 37.1073C57.3074 37.9858 58.7118 38.4806 60.2739 38.4429C61.2677 38.4188 62.2707 38.3121 63.1749 37.9055C64.6635 37.2364 64.101 34.5042 61.7855 35.2552C61.2532 35.4438 60.7051 35.5783 60.128 35.5261C59.4159 35.4619 58.7672 35.2207 58.1694 34.8426C57.2476 34.2599 56.5601 33.4918 56.2853 32.4138C56.0751 31.5903 56.0977 30.7616 56.2602 29.934C56.4724 28.8549 56.8632 27.8323 57.2617 26.8121C57.4046 26.4464 57.5504 26.0817 57.6963 25.717C58.0291 24.8849 58.3619 24.0529 58.6589 23.2083C59.0739 22.028 59.2587 20.8035 59.101 19.547C58.8327 17.4091 57.6942 15.8532 55.8168 14.8374C54.4378 14.0914 52.9396 13.8815 51.382 14.0597C49.6946 14.2527 48.2902 14.9675 47.1403 16.218C46.1724 17.2711 45.2743 18.3763 44.4414 19.5345C44.0428 20.0888 43.6544 20.65 43.2627 21.2159C43.0832 21.4752 42.903 21.7356 42.7209 21.9967C43.2125 22.322 43.6946 22.6412 44.1762 22.9601Z" fill="black"/>
<path fill-rule="evenodd" clip-rule="evenodd" d="M32.0117 56.5111C33.4323 56.1342 34.7389 55.5286 35.8851 54.6036C36.9153 53.7728 37.794 52.7956 38.5797 51.7417C39.852 50.0357 41.1121 48.3204 42.3436 46.5851C44.0696 44.153 44.1194 44.0758 45.8302 41.6334C46.2731 41.0011 46.716 40.3689 47.1591 39.7368C47.629 39.0667 48.0906 38.391 48.5522 37.7151C48.6642 37.551 48.7763 37.3869 48.8885 37.2229C49.477 36.3625 49.9636 35.4507 50.2736 34.453C50.5828 33.4577 50.7181 32.4499 50.4777 31.4169C50.1778 30.1283 49.422 29.1483 48.3562 28.399C46.2531 26.9204 44.1467 25.4466 42.0401 23.9728C40.5681 22.9429 39.096 21.913 37.625 20.8814C36.3119 19.9608 34.863 19.5313 33.2568 19.667C32.1499 19.7605 31.1621 20.1646 30.2774 20.83C29.6016 21.3381 29.0976 22.0015 28.6155 22.6749C26.5155 25.6078 24.4235 28.5459 22.3458 31.4944C21.3363 32.9268 22.002 32.0036 21.0066 33.4456C20.5992 34.0358 20.1918 34.626 19.7834 35.2156C18.7532 36.7025 17.795 38.2307 17.0744 39.8954C16.4972 41.2286 16.0757 42.6016 16.0142 44.062C15.9496 45.5999 16.1011 47.1153 16.5494 48.5937C17.0683 50.305 17.9049 51.8405 19.2253 53.0709C19.8105 53.6167 20.4588 54.1047 21.1204 54.559C23.041 55.8774 25.1333 56.7691 27.4895 56.9613C29.0123 57.0859 30.5363 56.9024 32.0117 56.5111ZM43.0383 39.8965C43.0134 39.9329 42.9871 39.9712 42.9587 40.0129C40.8061 38.4477 38.6661 36.8922 36.5022 35.3194C37.2569 34.286 38.0103 33.2543 38.764 32.2222C39.7925 30.8139 40.8216 29.4046 41.8553 27.9888C41.9729 28.062 42.0904 28.1334 42.2073 28.2045C42.4598 28.358 42.7094 28.5097 42.9506 28.6735C43.1098 28.7816 43.2692 28.8896 43.4285 28.9976C44.4345 29.6796 45.4409 30.3617 46.43 31.0678C46.9009 31.4041 47.2472 31.862 47.3527 32.456C47.438 32.9364 47.3446 33.3991 47.1021 33.8068C46.7691 34.3664 46.4049 34.908 46.0411 35.449C45.9948 35.5179 45.9485 35.5868 45.9022 35.6557C45.2636 36.6072 44.6216 37.5564 43.9795 38.5056C43.6995 38.9195 43.4195 39.3335 43.1398 39.7476C43.1071 39.7961 43.0741 39.8443 43.0383 39.8965ZM30.7484 31.383C29.8119 30.7532 28.8739 30.1224 27.9312 29.4886C28.064 29.2945 28.1945 29.1022 28.3238 28.9116C28.6038 28.4989 28.8786 28.0939 29.1611 27.6939C30.0648 26.4153 30.9705 25.1382 31.8908 23.8717C32.0694 23.6256 32.2986 23.4065 32.5366 23.2143C33.1958 22.6821 33.937 22.6187 34.6674 23.0156C35.3738 23.3993 36.0532 23.8375 36.7148 24.2939C37.4127 24.7754 38.0976 25.2753 38.7826 25.7753C39.0676 25.9833 39.3526 26.1913 39.6385 26.398C39.6632 26.4159 39.6869 26.4352 39.7152 26.4582C39.7294 26.4699 39.7449 26.4825 39.7622 26.4963C38.8822 27.6496 38.0038 28.8008 37.1247 29.953C36.1655 31.21 35.2055 32.4683 34.2414 33.7318C33.0751 32.9475 31.9128 32.166 30.7484 31.383Z" fill="black"/>
</svg>
