<svg width="40" height="40" viewBox="0 0 40 40" fill="none" xmlns="http://www.w3.org/2000/svg">
<path d="M23.7366 38C23.4135 37.8923 23.0818 37.8061 22.7694 37.6725C22.1483 37.4067 21.5585 37.0475 20.918 36.85C20.0102 36.5699 19.103 36.7027 18.2524 37.1459C17.8935 37.3334 17.5383 37.5281 17.1766 37.7091C16.2058 38.1939 15.0413 37.9023 14.4101 37.0188C14.2021 36.7272 14.0041 36.4283 13.8004 36.1338C12.9933 34.9644 11.8739 34.3955 10.4656 34.3805C10.144 34.3769 9.82229 34.3819 9.50061 34.3797C8.27824 34.3718 7.41686 33.5788 7.26245 32.3627C7.16523 31.5963 7.14593 30.8098 6.76492 30.1008C6.34746 29.3229 5.79703 28.6864 4.98783 28.3C4.66544 28.1463 4.35091 27.9753 4.03924 27.8022C3.11996 27.2908 2.69892 26.1839 3.04276 25.1797C3.17786 24.7846 3.33584 24.3967 3.47309 24.0024C3.90271 22.7697 3.7576 21.6032 3.05562 20.5078C2.83688 20.1659 2.60099 19.8347 2.37653 19.4964C1.76963 18.5799 1.90688 17.4133 2.7125 16.6598C2.92195 16.4637 3.13354 16.2705 3.353 16.0866C4.60825 15.035 5.06647 13.6932 4.81198 12.0849C4.7598 11.7545 4.70333 11.4205 4.70118 11.0879C4.69332 10.1024 5.40816 9.21315 6.37248 8.97395C6.68415 8.89638 6.99725 8.82742 7.3082 8.74984C8.73073 8.39643 9.70577 7.53806 10.2126 6.15029C10.3227 5.84788 10.4363 5.54619 10.5543 5.24666C10.9653 4.20727 12.0168 3.64627 13.097 3.8905C13.468 3.97454 13.8354 4.07367 14.2057 4.16058C15.5003 4.46442 16.6547 4.17351 17.6719 3.32232C17.9829 3.06229 18.2781 2.78215 18.5855 2.51781C19.3861 1.82968 20.6035 1.8268 21.4105 2.51279C21.7108 2.76778 21.9946 3.04218 22.2948 3.29646C23.3399 4.17997 24.5244 4.4594 25.8604 4.15412C26.4473 4.01979 27.0513 3.85243 27.6418 3.87398C28.5253 3.90558 29.1144 4.45365 29.4603 5.27252C29.7327 5.91828 29.965 6.59708 30.341 7.1789C30.8829 8.0186 31.6992 8.5365 32.6893 8.74912C32.9795 8.81162 33.2654 8.8935 33.5549 8.96102C34.7266 9.23685 35.4207 10.2468 35.2756 11.4399C35.2048 12.0203 35.0983 12.6093 35.1326 13.1868C35.1998 14.3196 35.6773 15.2785 36.5637 16.0126C36.8117 16.2181 37.0505 16.435 37.2864 16.6548C38.0777 17.3911 38.2293 18.549 37.6488 19.4641C37.4315 19.8067 37.187 20.1321 36.9676 20.474C36.2492 21.5896 36.0933 22.7755 36.543 24.0325C36.6795 24.4147 36.8303 24.7918 36.9604 25.1761C37.3078 26.2054 36.8847 27.2908 35.9346 27.8151C35.7052 27.9416 35.4771 28.0716 35.2398 28.1829C33.6829 28.9127 32.9295 30.1748 32.8051 31.8628C32.7507 32.6005 32.6364 33.3152 32.013 33.8288C31.6027 34.1671 31.1488 34.3726 30.6134 34.3761C30.2438 34.379 29.8749 34.3726 29.5054 34.379C28.1122 34.4027 27.0034 34.9709 26.205 36.1281C26.0148 36.4032 25.8282 36.6805 25.6374 36.9549C25.1835 37.6114 24.5473 37.9425 23.7366 38ZM5.71625 20.0086C5.77416 28.0795 12.3214 34.4516 20.2339 34.3208C28.1422 34.1901 34.4492 27.5932 34.2862 19.6846C34.1239 11.812 27.561 5.46215 19.77 5.62018C11.9096 5.77964 5.70839 12.2272 5.71625 20.0086Z" fill="white"/>
<path d="M20.0216 7.39224C26.8047 7.37644 32.4005 12.8629 32.5241 19.7234C32.6521 26.8088 27.0528 32.4726 20.1603 32.5567C13.0805 32.6436 7.32607 26.8641 7.47905 19.6832C7.62487 12.8665 13.1956 7.35848 20.0216 7.39224ZM18.2567 22.8746C18.0994 22.7259 18.0193 22.6548 17.9443 22.5794C16.6905 21.3173 15.4373 20.0546 14.1828 18.7932C13.7367 18.345 13.2085 18.1 12.5701 18.22C11.8853 18.3486 11.3964 18.7465 11.1755 19.416C10.9439 20.1185 11.1304 20.7427 11.6423 21.2591C13.3643 22.9982 15.0921 24.7314 16.8198 26.4654C17.732 27.3806 18.7106 27.3719 19.6242 26.4518C21.1046 24.9606 22.5886 23.4722 24.0705 21.9832C25.5016 20.5444 26.937 19.1085 28.3623 17.664C28.9778 17.0405 29.0943 16.226 28.6962 15.5299C28.0693 14.4338 26.7447 14.2851 25.8211 15.2117C23.866 17.1741 21.9116 19.1366 19.9616 21.104C19.3925 21.6772 18.8393 22.2677 18.2567 22.8746Z" fill="white"/>
</svg>
