<svg width="40" height="40" viewBox="0 0 40 40" fill="none" xmlns="http://www.w3.org/2000/svg">
<rect width="40" height="40" rx="8" fill="white"/>
<mask id="mask0" mask-type="alpha" maskUnits="userSpaceOnUse" x="0" y="0" width="40" height="40">
<rect width="40" height="40" rx="8" fill="white"/>
</mask>
<g mask="url(#mask0)">
<path d="M20 25C22.7614 25 25 22.7614 25 20C25 17.2386 22.7614 15 20 15C17.2386 15 15 17.2386 15 20C15 22.7614 17.2386 25 20 25Z" fill="#181818"/>
<path fill-rule="evenodd" clip-rule="evenodd" d="M6 14C6 9.58172 9.58172 6 14 6H26C30.4183 6 34 9.58172 34 14V26C34 30.4183 30.4183 34 26 34H14C9.58172 34 6 30.4183 6 26V14ZM20 27C23.866 27 27 23.866 27 20C27 16.134 23.866 13 20 13C16.134 13 13 16.134 13 20C13 23.866 16.134 27 20 27ZM28.5 13C29.3284 13 30 12.3284 30 11.5C30 10.6716 29.3284 10 28.5 10C27.6716 10 27 10.6716 27 11.5C27 12.3284 27.6716 13 28.5 13Z" fill="#181818"/>
</g>
</svg>
