<svg width="40" height="40" viewBox="0 0 40 40" fill="none" xmlns="http://www.w3.org/2000/svg">
<path fill-rule="evenodd" clip-rule="evenodd" d="M8.33463 5C4.65274 5 1.66797 7.98477 1.66797 11.6667V28.3333C1.66797 32.0152 4.65274 35 8.33463 35H31.668C35.3499 35 38.3346 32.0152 38.3346 28.3333V11.6667C38.3346 7.98477 35.3499 5 31.668 5H8.33463ZM6.98184 11.8128C7.50303 11.054 8.54059 10.8615 9.29929 11.3827L20.0013 18.7344L30.7033 11.3827C31.462 10.8615 32.4996 11.054 33.0208 11.8128C33.542 12.5715 33.3494 13.609 32.5907 14.1302L20.9458 22.1296C20.6568 22.3282 20.3273 22.4231 20.0013 22.4227C19.6753 22.4231 19.3458 22.3282 19.0568 22.1296L7.4119 14.1302C6.65319 13.609 6.46065 12.5715 6.98184 11.8128Z" fill="white"/>
</svg>
