<svg width="48" height="48" viewBox="0 0 48 48" fill="none" xmlns="http://www.w3.org/2000/svg">
<path fill-rule="evenodd" clip-rule="evenodd" d="M7.02944 7.02944C11.5303 2.52856 17.6348 0 24 0C30.3652 0 36.4697 2.52856 40.9706 7.02944C45.4714 11.5303 48 17.6348 48 24C48 30.3652 45.4714 36.4697 40.9706 40.9706C36.4697 45.4714 30.3652 48 24 48C17.6348 48 11.5303 45.4714 7.02944 40.9706C2.52856 36.4697 0 30.3652 0 24C0 17.6348 2.52856 11.5303 7.02944 7.02944ZM37.0026 18.6128C37.9398 17.6755 37.9398 16.156 37.0026 15.2187C36.0653 14.2814 34.5457 14.2814 33.6085 15.2187L20.6916 28.1356L14.6105 22.0545C13.6732 21.1172 12.1536 21.1172 11.2163 22.0545C10.2791 22.9917 10.2791 24.5113 11.2163 25.4486L20.6916 34.9238L37.0026 18.6128Z" fill="#B7A26F"/>
</svg>
