<svg width="40" height="40" viewBox="0 0 40 40" fill="none" xmlns="http://www.w3.org/2000/svg">
<path d="M23.125 16.25C23.125 18.6662 21.1662 20.625 18.75 20.625C16.3338 20.625 14.375 18.6662 14.375 16.25C14.375 13.8338 16.3338 11.875 18.75 11.875C21.1662 11.875 23.125 13.8338 23.125 16.25Z" fill="white"/>
<path fill-rule="evenodd" clip-rule="evenodd" d="M18.75 38.75C21.9286 38.75 33.75 26.25 33.75 16.25C33.75 7.27537 27.7246 1.25 18.75 1.25C9.77537 1.25 3.75 7.27537 3.75 16.25C3.75 26.25 15.6554 38.75 18.75 38.75ZM26.25 16.25C26.25 20.3921 22.8921 23.75 18.75 23.75C14.6079 23.75 11.25 20.3921 11.25 16.25C11.25 12.1079 14.6079 8.75 18.75 8.75C22.8921 8.75 26.25 12.1079 26.25 16.25Z" fill="white"/>
</svg>
