<svg width="40" height="40" viewBox="0 0 40 40" fill="none" xmlns="http://www.w3.org/2000/svg">
<path d="M39.0244 5.54869L37.2449 7.33928L33.1794 3.24848L34.9589 1.45789C36.0816 0.328245 37.9018 0.328246 39.0244 1.45789C40.1471 2.58753 40.1471 4.41905 39.0244 5.54869Z" fill="white"/>
<path d="M16.5705 20C16.6054 19.9178 16.6944 19.8358 16.6944 19.8358L31.1466 5.29388L35.2121 9.38468L20.9032 23.7825C20.9032 23.7825 20.7543 23.9531 20.5988 24.0186C20.4401 24.0854 20.1576 24.0889 20.1576 24.0889L17.4055 24.0886C17.4055 24.0886 16.9427 24.1228 16.7121 23.8721C16.5 23.6414 16.5331 23.2861 16.5331 23.2861L16.5331 20.2393C16.5331 20.2393 16.5336 20.0867 16.5705 20Z" fill="white"/>
<path d="M13.6408 18.7793C13.7454 18.5289 14.0028 18.2503 14.0028 18.2503L27.2531 5H8.01172C3.86958 5 0.511719 8.35786 0.511719 12.5L0.511719 28.8607C0.511719 33.0028 3.86958 36.3607 8.01172 36.3607H29.6418C33.7839 36.3607 37.1418 33.0028 37.1418 28.8607V12.5C37.1418 12.273 37.1317 12.0484 37.112 11.8265L22.4193 26.5192C22.4193 26.5192 22.1271 26.8087 21.839 26.9287C21.548 27.05 21.0469 27.0842 21.0469 27.0842L14.3813 27.0836C14.3813 27.0836 13.9435 27.1108 13.714 26.8604C13.5038 26.6309 13.5115 26.2866 13.5115 26.2866L13.5115 19.4463C13.5115 19.4463 13.5347 19.0332 13.6408 18.7793Z" fill="white"/>
</svg>
