<svg width="120" height="120" viewBox="0 0 120 120" fill="none" xmlns="http://www.w3.org/2000/svg">
<path fill-rule="evenodd" clip-rule="evenodd" d="M96.1273 2.11694C95.914 1.96512 95.6902 1.80423 95.5183 2.10532C95.4445 2.23449 95.3705 2.36425 95.2803 2.48067C94.2339 3.82186 93.1859 5.16111 92.1379 6.50028L92.1365 6.50206L92.1348 6.50427L92.1257 6.51592C91.158 7.75256 90.1903 8.98913 89.224 10.2271C86.8447 13.2743 84.4663 16.3226 82.088 19.3709C80.8968 20.8977 79.7055 22.4245 78.5142 23.9512C77.0906 25.7755 75.6671 27.6003 74.2435 29.4252C72.8199 31.25 71.3964 33.0749 69.9728 34.8992C69.3447 35.7041 68.7174 36.5096 68.0901 37.3151L68.0893 37.3162C66.2766 39.6439 64.464 41.9715 62.6322 44.284C62.5268 44.4171 62.4218 44.5523 62.3164 44.688C61.7259 45.448 61.1214 46.226 60.3621 46.7614C57.5843 48.7177 54.5114 50.1577 51.4205 51.5548C49.3661 52.4837 47.3247 53.4422 45.2831 54.4009L45.281 54.4018C44.3659 54.8315 43.4503 55.2614 42.5339 55.6885C41.776 56.0417 41.0176 56.3937 40.2592 56.7457L40.2576 56.7464C37.9834 57.8019 35.7096 58.8572 33.4513 59.9441C32.8874 60.2166 32.6293 60.0529 32.2601 59.6597C29.6567 56.8812 26.4643 55.4124 22.6327 55.3216C20.0592 55.2607 17.635 55.8355 15.5 57.2158C10.7819 60.2644 8.6074 64.6371 9.15699 70.2731C9.45688 73.3527 10.7974 75.9687 12.9528 78.1521C14.8417 80.0618 17.1332 81.2796 19.7689 81.8222C21.9278 82.2667 24.0856 82.1938 26.1895 81.5581C29.4226 80.5805 31.9877 78.6827 33.7918 75.7954C35.0834 73.7304 35.7512 71.4741 35.8444 69.0517C35.9209 67.081 35.5111 65.1905 34.75 63.3775C34.6174 63.0608 34.6664 62.9318 34.9782 62.7932C35.8439 62.4072 36.7004 61.9975 37.5566 61.588L37.9305 61.4093C39.8767 60.4795 41.8397 59.6286 43.9712 59.1614C46.4058 58.628 48.8269 58.0335 51.2477 57.4391C52.2115 57.2024 53.1753 56.9658 54.1398 56.733C54.7626 56.5831 55.3842 56.4283 56.0355 56.2662L56.0432 56.2643C56.3603 56.1853 56.6845 56.1046 57.0192 56.0219C56.8031 56.9171 56.5911 57.7974 56.3814 58.668L56.3786 58.6797C56.0039 60.2354 55.6367 61.7604 55.2665 63.2843C54.9683 64.5119 54.6662 65.7381 54.3641 66.9645L54.3551 67.0008C54.2534 67.4135 54.1517 67.8263 54.0502 68.2391C53.9576 68.6156 53.8776 68.9973 53.7977 69.3792C53.6167 70.2432 53.4357 71.1075 53.1075 71.9115C52.5992 73.1556 52.0146 74.3684 51.4298 75.5817C51.0513 76.3671 50.6724 77.1533 50.3142 77.9478C50.1159 78.3887 49.9343 78.4557 49.528 78.2752C47.3129 77.2917 45.0035 77.018 42.608 77.3466C38.8815 77.8593 35.8456 79.6029 33.6257 82.6121C31.0869 86.0539 30.3593 89.9139 31.4369 94.074C32.1562 96.8489 33.6449 99.141 35.8611 100.968C37.2554 102.118 38.7979 102.972 40.5422 103.458C40.5616 103.463 40.5811 103.468 40.6004 103.473C40.8224 103.531 41.0276 103.585 40.9365 103.961C40.6585 105.105 40.4007 106.254 40.143 107.403C40.0407 107.859 39.9385 108.315 39.8349 108.771L39.8304 108.791C39.6455 109.606 39.4605 110.422 39.265 111.284L39.2889 111.284L39.3076 111.284L39.3264 111.285C39.3435 111.285 39.3598 111.286 39.3754 111.286L39.4205 111.288C39.5021 111.291 39.5637 111.293 39.6223 111.282C40.0144 111.204 40.4059 111.124 40.7973 111.044C41.3361 110.933 41.8746 110.823 42.4144 110.719L42.4162 110.718C42.9301 110.619 43.1842 110.57 43.3231 110.416C43.4589 110.265 43.4845 110.014 43.5352 109.518L43.5399 109.472C43.6075 108.816 43.6837 108.161 43.7599 107.506C43.8696 106.563 43.9793 105.62 44.0632 104.675C44.1122 104.121 44.3607 103.985 44.8577 103.969C46.8673 103.909 48.7718 103.416 50.5579 102.488C53.417 101.003 55.466 98.7682 56.7145 95.7972C57.5055 93.9162 57.8197 91.9587 57.7181 89.9235C57.6393 88.3209 57.2605 86.79 56.6261 85.3249C55.834 83.4976 54.7002 81.9058 53.1852 80.6056C52.8889 80.3522 52.8495 80.1216 53.0048 79.7894C53.7348 78.2324 54.462 76.6739 55.1892 75.1155C56.6305 72.0266 58.0718 68.9376 59.5354 65.8597C60.0479 64.782 60.5367 63.6926 61.0256 62.6033C62.1516 60.0941 63.2778 57.5846 64.6932 55.2164L64.7635 55.0988C65.7505 53.4474 66.7157 51.8325 68.3694 50.6453C70.5929 49.0489 72.7406 47.3466 74.8878 45.6446C75.6804 45.0164 76.473 44.3881 77.2692 43.7654C79.3165 42.1642 81.3608 40.5598 83.4051 38.9555L83.4086 38.9528C85.1105 37.6172 86.8123 36.2817 88.5155 34.9482C90.3103 33.543 92.1078 32.1411 93.9052 30.7392L93.908 30.737L93.9123 30.7337L93.9191 30.7284C95.0139 29.8745 96.1086 29.0207 97.2027 28.1662C98.5262 27.1321 99.849 26.0975 101.172 25.0631L101.185 25.0527C102.579 23.9625 103.972 22.8725 105.366 21.7833C106.641 20.7874 107.917 19.7937 109.206 18.7891L109.209 18.7868L109.213 18.7838C109.819 18.3122 110.427 17.8382 111.04 17.3604C110.892 17.044 110.747 16.7379 110.579 16.3818L110.574 16.3725L110.573 16.3699L110.54 16.2992C98.8646 23.3967 87.2467 30.4583 75.6288 37.5199C75.6103 37.4996 75.5914 37.4792 75.5725 37.4588C75.5538 37.4386 75.535 37.4183 75.5165 37.398L80.9641 28.4245C86.2105 19.7823 91.4545 11.144 96.6913 2.51891C96.4886 2.37399 96.3044 2.24291 96.1273 2.11694ZM32.4871 69.1975C32.1849 74.8621 27.3114 79.0926 21.8597 78.6815C16.285 78.4712 11.9707 73.4962 12.4032 67.9857C12.856 62.2267 17.4522 58.5423 22.4416 58.6033C28.7726 58.6809 32.7739 63.8221 32.4871 69.1975ZM54.4445 90.8341C54.4063 95.7972 50.4862 100.542 44.5268 100.672C39.0942 100.799 34.8325 96.5214 34.3713 91.6778C33.7619 85.2878 38.7811 80.7669 43.8601 80.565C49.6057 80.3367 54.4911 84.6796 54.4445 90.8341ZM66.33 49.3009C66.287 50.7003 65.1352 51.8081 63.7409 51.7902C62.3395 51.7603 61.2343 50.6848 61.2391 49.2184C61.2439 47.8214 62.4649 46.6801 63.8162 46.7136C65.1747 46.747 66.3706 47.9791 66.33 49.3009Z" fill="#B7A26F"/>
<path d="M61.9549 65.2546L61.461 66.3186C61.8438 66.1973 62.2075 66.0765 62.5591 65.9598L62.5609 65.9592C63.3197 65.7073 64.0223 65.474 64.737 65.2944C66.0513 64.961 67.3548 64.8212 68.663 65.4868C71.951 67.1599 74.4588 69.6958 76.6596 72.5759C78.5317 75.0246 80.1399 77.6478 81.5473 80.3845C82.3986 82.0385 83.2233 83.7065 84.048 85.3745C84.8727 87.0425 85.6973 88.7105 86.5486 90.3645C87.9799 93.1454 89.4507 95.9096 91.0039 98.6248C91.618 99.6979 92.4687 100.628 93.7005 101.131C95.6706 101.936 97.6659 101.832 99.6647 101.37C102.492 100.715 105.089 99.5151 107.472 97.8623C108.752 96.9744 109.956 95.992 110.805 94.6619C111.406 93.719 111.587 92.7104 110.547 91.691C107.417 88.6271 104.327 85.5234 101.237 82.4198C100.044 81.2223 98.852 80.0249 97.6575 78.8297C90.5127 71.6802 83.3663 64.5323 76.2203 57.3846L70.8901 52.0531C70.7839 51.9469 70.6741 51.8449 70.5499 51.7293C70.498 51.6811 70.4436 51.6305 70.3859 51.5763C70.1269 51.7883 69.8538 51.9841 69.5837 52.1778C68.9966 52.5989 68.4235 53.0098 68.0405 53.5541C66.9402 55.1197 66.0047 56.8119 65.111 58.51C64.5248 59.6226 64.0073 60.7713 63.4898 61.9199L63.4894 61.9209L63.4887 61.9225C63.2652 62.4186 63.0413 62.9155 62.8123 63.4086C62.5319 64.0115 62.2521 64.6144 61.9549 65.2546Z" fill="#B7A26F"/>
<path d="M35.4746 27.1313C35.3758 27.2253 35.2925 27.3042 35.2196 27.3732C35.0722 27.5128 34.9676 27.6117 34.8653 27.7133C32.949 29.6295 31.0329 31.546 29.1169 33.4624L29.0886 33.4907C26.1986 36.3814 23.3086 39.2719 20.4182 42.1616L20.3655 42.2145C20.2423 42.3383 20.1191 42.4623 19.9821 42.5679C19.564 42.8894 19.1338 42.8977 18.7384 42.5392C18.3596 42.1962 18.3417 41.6764 18.7348 41.2629C19.4687 40.4927 20.2231 39.7412 20.9772 38.99L21.337 38.6314C24.0842 35.8858 26.832 33.1408 29.58 30.3956L33.7123 26.2672C33.7743 26.206 33.8313 26.1399 33.9067 26.0526C33.949 26.0036 33.9972 25.9478 34.0552 25.8824C33.7748 25.6398 33.4973 25.4 33.214 25.1552C32.9783 24.9516 32.7386 24.7445 32.4901 24.5296C32.4451 24.5712 32.3944 24.6172 32.3399 24.6667C32.1988 24.7947 32.0317 24.9463 31.8724 25.1056C30.1409 26.8418 28.4102 28.5785 26.6796 30.3153L26.6619 30.333C24.9259 32.0751 23.1898 33.8173 21.4529 35.5588C20.8195 36.1941 20.1845 36.8283 19.5494 37.4625L19.5481 37.4638C18.8491 38.1619 18.15 38.8601 17.4528 39.5599C17.1087 39.9053 16.73 40.1371 16.2306 39.9388C15.5591 39.6723 15.4815 38.9301 16.0657 38.3374C17.6965 36.6834 19.331 35.033 20.9702 33.3874C21.7433 32.611 22.5185 31.837 23.2936 31.0631L23.2948 31.0619C24.3028 30.0554 25.311 29.0489 26.3144 28.0371C27.4382 26.9047 28.5557 25.7654 29.6765 24.6228C30.1714 24.1182 30.6669 23.613 31.1639 23.1075L29.7099 21.8108C29.7242 21.7833 29.7386 21.7562 29.7529 21.729C29.7672 21.7018 29.7816 21.6746 29.7959 21.6471C29.7286 21.7085 29.6604 21.7689 29.5921 21.8293C29.4557 21.9501 29.3192 22.071 29.1902 22.1992C27.9589 23.4305 26.728 24.6622 25.497 25.8938L25.4885 25.9024C21.9241 29.4688 18.3597 33.0353 14.7873 36.5926C14.5245 36.8543 14.1589 37.0909 13.8064 37.159C13.577 37.2033 13.172 36.9822 13.0525 36.7647C12.9199 36.5245 12.9808 36.1456 13.0406 35.8445C13.0681 35.7036 13.2012 35.5765 13.3248 35.4586C13.3511 35.4335 13.377 35.4087 13.4014 35.3844C16.3747 32.4131 19.3485 29.4428 22.3224 26.4723L22.3409 26.4538C24.3201 24.4769 26.2993 22.4999 28.2786 20.5226C28.3065 20.4947 28.3254 20.4572 28.3438 20.4207C28.3514 20.4056 28.3589 20.3907 28.367 20.3768C27.5784 19.4422 25.8938 19.263 24.8675 20.1425C23.9568 20.9223 23.11 21.777 22.2637 22.6312L22.2629 22.632C22.0303 22.8667 21.7978 23.1014 21.564 23.3345C20.5684 24.3277 19.5751 25.3234 18.5817 26.3192C16.569 28.3369 14.5559 30.3549 12.5232 32.3513C12.0585 32.8078 11.4288 33.1329 10.8231 33.3994C10.2436 33.6539 9.61278 33.6491 9.11098 33.1329C8.59006 32.5975 8.64622 31.9282 8.89353 31.3522C9.16236 30.7296 9.5411 30.1082 10.0166 29.6289C12.5995 27.0275 15.1908 24.4349 17.782 21.8424C20.8912 18.7317 24.0012 15.6201 27.0957 12.4941C28.2212 11.3564 30.287 11.4054 31.3646 12.4869C39.6694 20.8268 47.9919 29.1506 56.3138 37.4738L60.254 41.4147C60.5299 41.6906 60.8176 41.9536 61.0852 42.1983C61.1988 42.3022 61.309 42.4029 61.4129 42.4998C60.4478 44.5989 58.6685 45.6331 56.8741 46.6761C56.4517 46.9216 56.0283 47.1678 55.6147 47.4282C55.5177 47.3362 55.4166 47.2402 55.2977 47.1272L54.9313 46.7793C53.7644 48.4307 52.0573 49.1791 50.3462 49.9293C49.7727 50.1807 49.1987 50.4324 48.6445 50.7182C48.6003 50.6597 48.5561 50.6011 48.5107 50.5426C49.2574 49.8046 50.0038 49.0666 50.7478 48.3311C51.6991 47.3907 52.6463 46.4543 53.5848 45.5269C53.3273 45.2777 53.0802 45.0391 52.8194 44.7872L52.8144 44.7824C52.5639 44.5404 52.3005 44.2861 52.003 43.9984C51.7618 44.2562 51.5188 44.5194 51.2733 44.7851C50.7054 45.4001 50.1245 46.0292 49.5238 46.6383C49.1818 46.9854 48.84 47.3329 48.4983 47.6805L48.4968 47.682C46.6834 49.5263 44.8693 51.3713 42.9969 53.1538C42.5797 53.5503 42.0183 53.7988 41.4598 54.0461C41.2458 54.1408 41.0321 54.2354 40.8272 54.3381C39.949 54.7779 39.0577 55.1902 38.0983 55.5033C41.9665 51.646 45.8348 47.7898 49.7273 43.9093L50.8799 42.7603C50.6269 42.4945 50.4004 42.2569 50.1865 42.0325C49.9993 41.8361 49.8218 41.6499 49.6445 41.4636C49.39 41.1972 49.2323 41.337 49.0161 41.5545C44.4653 46.1221 39.9072 50.6813 35.3486 55.2409L34.4328 56.157C34.2787 56.3111 34.1221 56.4677 33.9513 56.6015C33.5272 56.9326 33.0994 56.9027 32.7171 56.5394C32.3694 56.2095 32.3766 55.6455 32.7398 55.2475C33.0936 54.8601 33.4656 54.4891 33.8373 54.1183C33.9024 54.0534 33.9676 53.9884 34.0325 53.9234C35.9896 51.9684 37.9471 50.0137 39.9046 48.0588L39.9085 48.0549C42.5208 45.4463 45.1332 42.8375 47.7448 40.228C47.8135 40.1593 47.8719 40.081 47.9197 40.017C47.9393 39.9908 47.9571 39.9669 47.973 39.9471C47.5059 39.4583 47.0578 38.9899 46.5381 38.4473L46.1607 38.8212C45.7536 39.2242 45.3392 39.6346 44.9264 40.0475C42.6974 42.2765 40.4686 44.5058 38.2399 46.7351C36.0128 48.9628 33.7856 51.1905 31.5582 53.4179C30.8712 54.105 30.3754 54.2042 29.9333 53.7513C29.5068 53.3139 29.6167 52.7463 30.2583 52.1057L30.2605 52.1034C35.0735 47.2881 39.8864 42.4727 44.7054 37.6622C44.8165 37.551 44.9504 37.4625 45.094 37.3675C45.1664 37.3196 45.2414 37.2701 45.3171 37.2152C45.0265 36.9286 44.7653 36.6706 44.5056 36.4141C44.2347 36.1465 43.9654 35.8805 43.6659 35.5851C43.3904 35.8728 43.1162 36.1621 42.8418 36.4516L42.8406 36.4528C42.2445 37.0818 41.6476 37.7115 41.035 38.3266C36.8916 42.4902 32.741 46.6455 28.5892 50.8007C28.0755 51.3146 27.5414 51.3588 27.128 50.9453C26.7564 50.5736 26.7971 50.0024 27.2773 49.5172C28.9578 47.8252 30.6447 46.139 32.3314 44.4529C32.8272 43.9573 33.323 43.4616 33.8187 42.9659C35.1461 41.6375 36.4739 40.3094 37.8016 38.9813L37.8925 38.8904C39.2495 37.533 40.6066 36.1756 41.9634 34.8179C42.0684 34.7128 42.1695 34.6031 42.2689 34.4952C42.3129 34.4475 42.3571 34.3995 42.4007 34.353C42.1234 34.0697 41.8562 33.7972 41.5845 33.52L41.5827 33.5182L41.582 33.5174C41.3686 33.2998 41.1524 33.0793 40.9263 32.8484C40.624 33.153 40.3216 33.4583 40.019 33.7638L40.0183 33.7646C39.3487 34.4405 38.6781 35.1176 38.0051 35.7907C35.7027 38.0937 33.3992 40.3957 31.0956 42.6977C29.9447 43.8478 28.7938 44.998 27.643 46.1483C27.4235 46.3678 27.2047 46.5879 26.9859 46.808C26.6033 47.193 26.2201 47.5785 25.8341 47.96C25.3191 48.4691 24.7588 48.5408 24.3621 48.1632C23.944 47.7652 24.0001 47.1737 24.5282 46.6443C29.355 41.8114 34.1855 36.981 39.0171 32.1529C39.1489 32.0211 39.2942 31.9039 39.4588 31.7711C39.5388 31.7065 39.6237 31.638 39.7136 31.5625C39.5824 31.4291 39.4583 31.3002 39.3386 31.1758C39.005 30.8292 38.7045 30.5171 38.3767 30.2384C38.2919 30.1655 37.9454 30.2719 37.8187 30.3962C36.6964 31.4948 35.5864 32.6065 34.4763 33.7184L34.4688 33.7259C34.2024 33.9928 33.936 34.2596 33.6693 34.5263L33.6472 34.5485C30.1635 38.0343 26.6797 41.52 23.1948 45.0046C22.5055 45.6942 22.0192 45.8017 21.5628 45.3751C21.1303 44.9712 21.251 44.3163 21.8937 43.6733C24.9234 40.6438 27.9542 37.6161 30.985 34.5884C32.1996 33.3751 33.4142 32.1617 34.6287 30.9483C34.8205 30.7564 35.0115 30.5636 35.2024 30.3707C35.6406 29.9281 36.0791 29.4852 36.5284 29.0541C36.7805 28.8127 36.8271 28.649 36.5499 28.3765C36.2864 28.1155 36.0505 27.828 35.8063 27.5304C35.6984 27.3988 35.5889 27.2653 35.4746 27.1313Z" fill="#B7A26F"/>
<path d="M53.662 59.2532C53.7772 59.136 53.8924 59.0188 54.0079 58.902C53.99 58.8627 53.972 58.8231 53.9553 58.7813C53.7214 58.8394 53.4883 58.9022 53.2551 58.965C52.7061 59.113 52.1564 59.261 51.5981 59.3466C50.9577 59.4446 50.524 59.7744 50.095 60.2094C48.7711 61.5524 47.4388 62.8871 46.1066 64.2218C45.4851 64.8444 44.8637 65.4669 44.2431 66.0903C44.2037 66.13 44.1594 66.1696 44.1146 66.2095C43.984 66.3258 43.8498 66.4454 43.8249 66.5815C43.764 66.9185 43.7234 67.3213 43.8548 67.6164C44.0233 67.9941 44.4522 68.0777 44.8369 67.9056C45.0818 67.7969 45.3052 67.6117 45.4976 67.4193C47.8107 65.1154 50.1178 62.8065 52.4253 60.4973L53.0545 59.8676C53.2583 59.6637 53.4602 59.4584 53.662 59.2532Z" fill="#B7A26F"/>
<path d="M52.9943 64.324C52.9618 64.4712 52.9305 64.6151 52.8998 64.7566C52.8291 65.0828 52.761 65.3962 52.6861 65.7079C52.5553 66.2519 52.4214 66.7951 52.2874 67.3385C52.0234 68.4089 51.7593 69.4799 51.52 70.5563C51.1818 72.0716 49.7625 72.8281 48.3311 72.2079C47.6394 71.9079 47.2547 71.1084 47.5665 70.3663C47.8389 69.7197 48.1615 69.0457 48.6322 68.5414C49.6097 67.4948 50.633 66.4914 51.6561 65.4881C52.0361 65.1156 52.416 64.743 52.7936 64.3682C52.8075 64.3543 52.8319 64.3507 52.8784 64.3439C52.9074 64.3397 52.9451 64.3342 52.9943 64.324Z" fill="#B7A26F"/>
<path d="M45.4478 61.8948C45.8348 61.5044 46.2217 61.114 46.6095 60.7245C46.6028 60.7016 46.5958 60.6789 46.5888 60.6564C46.5799 60.6273 46.571 60.5987 46.5629 60.5703C46.4264 60.6049 46.2899 60.6395 46.1534 60.674C45.2376 60.9058 44.3226 61.1373 43.4076 61.3734C43.3347 61.3913 43.2618 61.4427 43.208 61.4977C43.0258 61.6816 42.8426 61.8644 42.6594 62.0472C42.1246 62.5809 41.5901 63.1143 41.0802 63.6715C40.6847 64.1029 40.7313 64.5965 41.1077 64.9431C41.4744 65.2813 42.0121 65.3207 42.4016 64.9383C43.427 63.9333 44.4375 62.914 45.4478 61.8948Z" fill="#B7A26F"/>
<path d="M61.9549 65.2547L61.461 66.3186C61.8438 66.1973 62.2075 66.0765 62.5591 65.9598L62.5609 65.9592C63.3197 65.7073 64.0223 65.474 64.737 65.2944C66.0513 64.961 67.3548 64.8212 68.663 65.4869C71.951 67.1599 74.4588 69.6959 76.6596 72.576C78.5317 75.0247 80.1399 77.6478 81.5473 80.3845C82.3986 82.0385 83.2233 83.7065 84.048 85.3745C84.8727 87.0425 85.6973 88.7105 86.5486 90.3645C87.9799 93.1454 89.4507 95.9096 91.0039 98.6248C91.618 99.698 92.4687 100.628 93.7005 101.131C95.6706 101.936 97.6659 101.832 99.6647 101.37C102.492 100.715 105.089 99.5151 107.472 97.8623C108.752 96.9744 109.956 95.9921 110.805 94.6619C111.406 93.719 111.587 92.7104 110.547 91.691C107.417 88.6271 104.327 85.5234 101.237 82.4198C100.044 81.2223 98.852 80.0249 97.6575 78.8298C90.5127 71.6803 83.3663 64.5323 76.2203 57.3847L70.8901 52.0531C70.7839 51.9469 70.6741 51.8449 70.5499 51.7294C70.498 51.6811 70.4436 51.6305 70.3859 51.5763C70.1269 51.7883 69.8538 51.9841 69.5837 52.1778C68.9966 52.5989 68.4235 53.0098 68.0405 53.5541C66.9402 55.1197 66.0047 56.8119 65.111 58.5101C64.5248 59.6227 64.0073 60.7714 63.4898 61.92L63.4894 61.9209L63.4887 61.9225C63.2652 62.4186 63.0413 62.9155 62.8123 63.4086C62.5319 64.0115 62.2521 64.6144 61.9549 65.2547Z" fill="white"/>
<path d="M35.4746 27.1313C35.3758 27.2253 35.2925 27.3042 35.2196 27.3732C35.0722 27.5128 34.9676 27.6117 34.8653 27.7133C32.949 29.6296 31.0329 31.546 29.1169 33.4625L29.0886 33.4908C26.1986 36.3814 23.3086 39.2719 20.4182 42.1616L20.3655 42.2146C20.2423 42.3384 20.1191 42.4623 19.9821 42.5679C19.564 42.8894 19.1338 42.8978 18.7384 42.5392C18.3596 42.1963 18.3417 41.6764 18.7348 41.2629C19.4687 40.4927 20.2231 39.7412 20.9772 38.99L21.337 38.6314C24.0842 35.8858 26.832 33.1408 29.58 30.3956L33.7123 26.2672C33.7743 26.2061 33.8313 26.14 33.9067 26.0527C33.949 26.0036 33.9972 25.9478 34.0552 25.8824C33.7748 25.6398 33.4973 25.4 33.214 25.1552C32.9783 24.9516 32.7386 24.7446 32.4901 24.5296C32.4451 24.5713 32.3944 24.6173 32.3399 24.6667C32.1988 24.7947 32.0317 24.9463 31.8724 25.1056C30.1409 26.8418 28.4102 28.5785 26.6796 30.3153L26.6619 30.333C24.9259 32.0752 23.1898 33.8173 21.4529 35.5589C20.8195 36.1941 20.1845 36.8283 19.5494 37.4626L19.5481 37.4639C18.8491 38.162 18.15 38.8601 17.4528 39.5599C17.1087 39.9053 16.73 40.1372 16.2306 39.9388C15.5591 39.6723 15.4815 38.9301 16.0657 38.3374C17.6965 36.6834 19.331 35.033 20.9702 33.3874C21.7433 32.611 22.5185 31.8371 23.2936 31.0631L23.2948 31.0619C24.3028 30.0555 25.311 29.0489 26.3144 28.0371C27.4382 26.9047 28.5557 25.7654 29.6765 24.6228C30.1714 24.1182 30.6669 23.613 31.1639 23.1075L29.7099 21.8109C29.7242 21.7834 29.7386 21.7562 29.7529 21.729C29.7672 21.7018 29.7816 21.6746 29.7959 21.6471C29.7286 21.7085 29.6604 21.7689 29.5921 21.8293C29.4557 21.9501 29.3192 22.071 29.1902 22.1993C27.9589 23.4305 26.728 24.6622 25.497 25.8938L25.4885 25.9024C21.9241 29.4688 18.3597 33.0353 14.7873 36.5926C14.5245 36.8543 14.1589 37.0909 13.8064 37.1591C13.577 37.2033 13.172 36.9822 13.0525 36.7647C12.9199 36.5245 12.9808 36.1456 13.0406 35.8445C13.0681 35.7036 13.2012 35.5766 13.3248 35.4586C13.3511 35.4335 13.377 35.4088 13.4014 35.3844C16.3747 32.4132 19.3485 29.4428 22.3224 26.4723L22.3409 26.4539C24.3201 24.4769 26.2993 22.4999 28.2786 20.5226C28.3065 20.4947 28.3254 20.4572 28.3438 20.4207C28.3514 20.4057 28.3589 20.3908 28.367 20.3768C27.5784 19.4422 25.8938 19.263 24.8675 20.1425C23.9568 20.9223 23.11 21.777 22.2637 22.6312L22.2629 22.632C22.0303 22.8668 21.7978 23.1015 21.564 23.3346C20.5684 24.3277 19.5751 25.3234 18.5817 26.3192C16.569 28.3369 14.5559 30.355 12.5232 32.3513C12.0585 32.8078 11.4288 33.1329 10.8231 33.3994C10.2436 33.6539 9.61278 33.6492 9.11098 33.1329C8.59006 32.5975 8.64622 31.9283 8.89353 31.3522C9.16236 30.7296 9.5411 30.1082 10.0166 29.629C12.5995 27.0275 15.1908 24.4349 17.782 21.8424C20.8912 18.7317 24.0012 15.6201 27.0957 12.4941C28.2212 11.3564 30.287 11.4054 31.3646 12.487C39.6694 20.8268 47.9919 29.1506 56.3138 37.4738L60.254 41.4147C60.5299 41.6906 60.8176 41.9536 61.0852 42.1983C61.1988 42.3022 61.309 42.4029 61.4129 42.4998C60.4478 44.5989 58.6685 45.6332 56.8741 46.6762C56.4517 46.9217 56.0283 47.1678 55.6147 47.4282C55.5177 47.3362 55.4166 47.2402 55.2977 47.1272L54.9313 46.7793C53.7644 48.4308 52.0573 49.1791 50.3462 49.9293C49.7727 50.1807 49.1987 50.4324 48.6445 50.7183C48.6003 50.6597 48.5561 50.6011 48.5107 50.5426C49.2574 49.8046 50.0038 49.0667 50.7478 48.3311C51.6991 47.3907 52.6463 46.4543 53.5848 45.5269C53.3273 45.2778 53.0802 45.0391 52.8194 44.7873L52.8144 44.7825C52.5639 44.5404 52.3005 44.2861 52.003 43.9984C51.7618 44.2562 51.5188 44.5194 51.2733 44.7852C50.7054 45.4001 50.1245 46.0292 49.5238 46.6383C49.1818 46.9854 48.84 47.333 48.4983 47.6806L48.4968 47.682C46.6834 49.5263 44.8693 51.3713 42.9969 53.1538C42.5797 53.5503 42.0183 53.7988 41.4598 54.0461C41.2458 54.1409 41.0321 54.2354 40.8272 54.3381C39.949 54.7779 39.0577 55.1902 38.0983 55.5033C41.9665 51.6461 45.8348 47.7898 49.7273 43.9094L50.8799 42.7603C50.6269 42.4945 50.4004 42.2569 50.1865 42.0325C49.9993 41.8362 49.8218 41.6499 49.6445 41.4637C49.39 41.1972 49.2323 41.337 49.0161 41.5545C44.4653 46.1221 39.9072 50.6813 35.3486 55.241L34.4328 56.157C34.2787 56.3112 34.1221 56.4677 33.9513 56.6016C33.5272 56.9326 33.0994 56.9027 32.7171 56.5394C32.3694 56.2096 32.3766 55.6455 32.7398 55.2475C33.0936 54.8601 33.4656 54.4891 33.8373 54.1183C33.9024 54.0534 33.9676 53.9884 34.0325 53.9234C35.9896 51.9684 37.9471 50.0137 39.9046 48.0589L39.9085 48.055C42.5208 45.4463 45.1332 42.8375 47.7448 40.228C47.8135 40.1593 47.8719 40.081 47.9197 40.017C47.9393 39.9908 47.9571 39.9669 47.973 39.9471C47.5059 39.4584 47.0578 38.9899 46.5381 38.4473L46.1607 38.8212C45.7536 39.2243 45.3392 39.6346 44.9264 40.0475C42.6974 42.2765 40.4686 44.5058 38.2399 46.7351C36.0128 48.9628 33.7856 51.1905 31.5582 53.4179C30.8712 54.1051 30.3754 54.2043 29.9333 53.7513C29.5068 53.3139 29.6167 52.7463 30.2583 52.1057L30.2605 52.1035C35.0735 47.2881 39.8864 42.4728 44.7054 37.6622C44.8165 37.551 44.9504 37.4625 45.094 37.3676C45.1664 37.3197 45.2414 37.2701 45.3171 37.2152C45.0265 36.9286 44.7653 36.6706 44.5056 36.4141C44.2347 36.1465 43.9654 35.8805 43.6659 35.5852C43.3904 35.8728 43.1162 36.1621 42.8418 36.4516L42.8406 36.4529C42.2445 37.0818 41.6476 37.7115 41.035 38.3266C36.8916 42.4902 32.741 46.6455 28.5892 50.8007C28.0755 51.3146 27.5414 51.3588 27.128 50.9453C26.7564 50.5737 26.7971 50.0024 27.2773 49.5172C28.9578 47.8253 30.6447 46.139 32.3314 44.4529C32.8272 43.9573 33.323 43.4616 33.8187 42.9659C35.1461 41.6375 36.4739 40.3094 37.8016 38.9814L37.8925 38.8905C39.2495 37.5331 40.6066 36.1756 41.9634 34.8179C42.0684 34.7128 42.1695 34.6032 42.2689 34.4953C42.3129 34.4475 42.3571 34.3995 42.4007 34.353C42.1234 34.0697 41.8562 33.7972 41.5845 33.52L41.5827 33.5182L41.582 33.5174C41.3686 33.2998 41.1524 33.0793 40.9263 32.8485C40.624 33.1531 40.3216 33.4583 40.019 33.7639L40.0183 33.7646C39.3487 34.4406 38.6781 35.1176 38.0051 35.7907C35.7027 38.0937 33.3992 40.3957 31.0956 42.6977C29.9447 43.8479 28.7938 44.998 27.643 46.1483C27.4235 46.3678 27.2047 46.5879 26.9859 46.8081C26.6033 47.193 26.2201 47.5785 25.8341 47.96C25.3191 48.4691 24.7588 48.5409 24.3621 48.1632C23.944 47.7653 24.0001 47.1737 24.5282 46.6443C29.355 41.8114 34.1855 36.981 39.0171 32.1529C39.1489 32.0211 39.2942 31.9039 39.4588 31.7711C39.5388 31.7065 39.6237 31.638 39.7136 31.5626C39.5824 31.4291 39.4583 31.3002 39.3386 31.1758C39.005 30.8293 38.7045 30.5171 38.3767 30.2384C38.2919 30.1655 37.9454 30.2719 37.8187 30.3962C36.6964 31.4948 35.5864 32.6066 34.4763 33.7184L34.4688 33.7259C34.2024 33.9928 33.936 34.2597 33.6693 34.5263L33.6472 34.5485C30.1635 38.0343 26.6797 41.5201 23.1948 45.0047C22.5055 45.6942 22.0192 45.8018 21.5628 45.3751C21.1303 44.9712 21.251 44.3163 21.8937 43.6734C24.9234 40.6438 27.9542 37.6161 30.985 34.5885C32.1996 33.3751 33.4142 32.1618 34.6287 30.9483C34.8205 30.7564 35.0115 30.5636 35.2024 30.3707C35.6406 29.9281 36.0791 29.4853 36.5284 29.0541C36.7805 28.8127 36.8271 28.649 36.5499 28.3765C36.2864 28.1155 36.0505 27.828 35.8063 27.5304C35.6984 27.3989 35.5889 27.2653 35.4746 27.1313Z" fill="white"/>
<path d="M53.662 59.2532C53.7772 59.136 53.8924 59.0189 54.0079 58.9021C53.99 58.8627 53.972 58.8231 53.9553 58.7813C53.7214 58.8394 53.4883 58.9022 53.2551 58.965C52.7061 59.113 52.1564 59.2611 51.5981 59.3466C50.9577 59.4446 50.524 59.7744 50.095 60.2094C48.7711 61.5525 47.4388 62.8871 46.1066 64.2218C45.4851 64.8444 44.8637 65.467 44.2431 66.0904C44.2037 66.1301 44.1594 66.1696 44.1146 66.2095C43.984 66.3258 43.8498 66.4454 43.8249 66.5815C43.764 66.9185 43.7234 67.3213 43.8548 67.6165C44.0233 67.9941 44.4522 68.0778 44.8369 67.9057C45.0818 67.7969 45.3052 67.6117 45.4976 67.4193C47.8107 65.1154 50.1178 62.8066 52.4253 60.4973L53.0545 59.8677C53.2583 59.6638 53.4602 59.4584 53.662 59.2532Z" fill="white"/>
<path d="M52.9943 64.3241C52.9618 64.4712 52.9305 64.6151 52.8998 64.7566C52.8291 65.0828 52.761 65.3962 52.6861 65.7079C52.5553 66.2519 52.4214 66.7952 52.2874 67.3385C52.0234 68.4089 51.7593 69.4799 51.52 70.5563C51.1818 72.0717 49.7625 72.8281 48.3311 72.2079C47.6394 71.9079 47.2547 71.1084 47.5665 70.3663C47.8389 69.7198 48.1615 69.0457 48.6322 68.5414C49.6097 67.4948 50.633 66.4914 51.6561 65.4882C52.0361 65.1156 52.416 64.743 52.7936 64.3683C52.8075 64.3543 52.8319 64.3507 52.8784 64.3439C52.9074 64.3397 52.9451 64.3342 52.9943 64.3241Z" fill="white"/>
<path d="M45.4478 61.8948C45.8348 61.5044 46.2217 61.1141 46.6095 60.7245C46.6028 60.7016 46.5958 60.6789 46.5888 60.6564C46.5799 60.6274 46.571 60.5987 46.5629 60.5704C46.4264 60.6049 46.2899 60.6395 46.1534 60.674C45.2376 60.9058 44.3226 61.1374 43.4076 61.3735C43.3347 61.3914 43.2618 61.4428 43.208 61.4977C43.0258 61.6816 42.8426 61.8644 42.6594 62.0472C42.1246 62.5809 41.5901 63.1143 41.0802 63.6715C40.6847 64.103 40.7313 64.5965 41.1077 64.9431C41.4744 65.2813 42.0121 65.3207 42.4016 64.9383C43.427 63.9334 44.4375 62.914 45.4478 61.8948Z" fill="white"/>
</svg>
