<svg width="120" height="120" viewBox="0 0 120 120" fill="none" xmlns="http://www.w3.org/2000/svg">
<path d="M84.0453 89.1827C84.9092 89.1827 85.5961 89.206 86.2811 89.1788C87.7177 89.1205 88.4255 88.4346 88.5454 86.9752C88.591 86.4292 88.5682 85.8754 88.5682 85.3255C88.5682 62.0071 88.5682 38.6887 88.5682 15.3723C88.5682 15.0809 88.5796 14.7874 88.5587 14.4979C88.4541 13.056 87.6682 12.2749 86.2392 12.2107C85.6379 12.1835 85.0347 12.2049 84.4315 12.2049C67.4967 12.2049 50.5619 12.203 33.629 12.2107C33.0962 12.2107 32.5539 12.2535 32.0307 12.3584C31.1915 12.5275 30.7368 13.1377 30.5807 13.9557C30.4894 14.4279 30.4837 14.9196 30.4837 15.4034C30.4799 38.8831 30.4799 62.3627 30.4818 85.8424C30.4818 86.2951 30.4761 86.7518 30.5255 87.2006C30.6625 88.3957 31.3285 89.0545 32.5063 89.1652C32.9154 89.2041 33.3303 89.1905 33.7413 89.1905C39.9577 89.1924 46.1722 89.1905 52.3886 89.1924C53.5227 89.1924 53.5436 89.2041 53.2372 90.3292C52.9328 91.4485 52.5427 92.5444 52.2573 93.6676C52.0803 94.3691 51.7721 94.6275 51.0205 94.6198C46.1056 94.579 41.1907 94.5984 36.2739 94.5984C35.1322 94.5984 33.9905 94.6198 32.8489 94.5945C28.2917 94.4954 25.2891 91.4271 25.1673 86.7634C25.1559 86.3107 25.1616 85.856 25.1616 85.4032C25.1635 62.0207 25.1654 38.6382 25.1616 15.2557C25.1616 12.5391 25.8789 10.1529 28.069 8.41374C29.4999 7.27892 31.1554 6.78534 32.9364 6.7834C50.6628 6.77368 68.391 6.76591 86.1174 6.79117C90.7583 6.797 93.8447 10.0907 93.858 14.9817C93.8808 22.5602 93.8637 30.1387 93.8637 37.7171C93.8618 53.9098 93.8808 70.1025 93.8199 86.2951C93.8142 87.7059 93.4641 89.1885 92.9561 90.5099C92.0275 92.9214 89.0896 94.6781 86.5513 94.5615C86.302 94.5498 85.9271 94.34 85.8434 94.1262C85.2402 92.5716 84.6941 90.9918 84.0453 89.1827Z" fill="white"/>
<path d="M71.1249 92.4025C69.5874 92.4919 68.2422 92.5696 66.7428 92.6571C65.1597 97.7891 63.5328 103.063 61.9078 108.337C61.8412 108.323 61.7765 108.31 61.7099 108.298C60.7585 105.474 59.8052 102.651 58.8043 99.6817C56.4982 101.269 54.289 102.791 51.8344 104.479C52.1198 103.455 52.3158 102.698 52.5442 101.949C53.8285 97.7541 55.1129 93.5587 56.422 89.3731C56.6237 88.7279 56.5153 88.382 55.9483 87.9332C54.0968 86.4699 53.0674 84.5034 53.1569 82.0686C53.2025 80.8288 52.8848 79.8203 52.0875 78.8817C49.3513 75.6502 49.6177 71.3324 52.7383 68.5167C53.3586 67.9571 53.3034 67.3566 53.2101 66.6765C52.7991 63.6257 53.8495 61.2064 56.3117 59.4673C57.9234 58.3285 59.7538 57.9768 61.6623 58.4179C62.3568 58.5792 62.7279 58.4587 63.1655 57.8991C65.9017 54.3994 70.4304 53.8922 73.5909 56.9605C74.7478 58.0837 75.937 58.6395 77.3698 59.17C79.8872 60.1027 81.457 62.075 81.7748 64.8713C81.8909 65.8895 82.279 66.5949 83.0896 67.1934C86.351 69.5991 86.9485 74.3696 84.433 77.6051C83.5121 78.7885 83.1258 80.2031 83.0896 81.6411C83.0402 83.5901 82.6596 85.3701 81.379 86.845C80.909 87.3852 80.9813 87.8263 81.2021 88.419C83.5672 94.7965 85.9077 101.182 88.2538 107.565C88.3147 107.73 88.3413 107.909 88.4308 108.276C86.1436 106.932 84.0201 105.682 81.7748 104.361C80.8729 107.363 79.9995 110.274 79.1242 113.185C79.0462 113.199 78.9682 113.212 78.8921 113.226C76.2891 106.246 73.686 99.2678 71.1249 92.4025ZM81.3086 74.1151C81.3942 66.8261 75.4499 60.6254 68.305 60.5496C61.0496 60.4738 55.0045 66.4472 54.9112 73.7867C54.8142 81.2971 60.6348 87.529 67.9853 87.5465C75.5527 87.564 81.2154 81.4545 81.3086 74.1151Z" fill="#B7A26F"/>
<path d="M40.6445 23.7097C40.6445 22.3735 41.7277 21.2903 43.0639 21.2903H75.9671C77.3033 21.2903 78.3865 22.3735 78.3865 23.7097C78.3865 25.0459 77.3033 26.1291 75.9671 26.1291H43.0639C41.7277 26.1291 40.6445 25.0459 40.6445 23.7097Z" fill="white"/>
<path d="M40.6445 35.3226C40.6445 33.9864 41.7277 32.9032 43.0639 32.9032H75.9671C77.3033 32.9032 78.3865 33.9864 78.3865 35.3226C78.3865 36.6588 77.3033 37.742 75.9671 37.742H43.0639C41.7277 37.742 40.6445 36.6588 40.6445 35.3226Z" fill="white"/>
</svg>
