<svg width="40" height="40" viewBox="0 0 40 40" fill="none" xmlns="http://www.w3.org/2000/svg">
<path d="M20.0176 39C15.7935 39 11.5693 39.0007 7.34518 38.9961C7.20613 38.9961 7.0519 38.9635 6.93084 38.8994C6.55285 38.7004 6.15569 38.5172 5.82366 38.258C5.26028 37.8191 4.98139 37.2188 5.00096 36.5083C5.02574 35.5979 5.03852 34.6868 5.09646 33.7784C5.17397 32.5603 5.27826 31.3438 5.39253 30.1284C5.50161 28.9713 5.62867 27.8157 5.76652 26.6616C5.90836 25.4758 6.0566 24.2903 6.23241 23.1087C6.46135 21.5701 6.70748 20.0338 6.97199 18.5006C7.10664 17.7191 7.27885 16.9426 7.46745 16.172C7.74075 15.0548 8.7848 14.2372 9.97029 14.2259C13.0097 14.1968 16.0492 14.1789 19.0886 14.1704C21.4169 14.1638 23.7451 14.1743 26.0729 14.1855C27.3567 14.1918 28.6401 14.2243 29.9239 14.2282C30.7866 14.2306 31.4858 14.5445 32.0268 15.1914C32.39 15.6256 32.553 16.1444 32.6477 16.6822C33.0145 18.7672 33.4013 20.8495 33.7245 22.941C33.9906 24.6636 34.2124 26.3943 34.3902 28.1277C34.6052 30.222 34.7606 32.3217 34.9252 34.4206C34.9783 35.0962 34.9871 35.7757 34.9995 36.4536C35.0163 37.3659 34.5956 38.0554 33.8092 38.532C33.5291 38.7019 33.2223 38.8319 32.9222 38.9689C32.8491 39.0023 32.7544 38.9988 32.6697 38.9988C28.4523 39 24.235 39 20.0176 39ZM20.0092 23.4901C19.9637 23.4389 19.9421 23.4222 19.9309 23.4005C19.8806 23.3027 19.8354 23.2018 19.7839 23.1048C19.338 22.2697 18.6911 21.6729 17.6994 21.5363C14.3355 21.0731 12.9679 24.829 14.8753 27.4408C15.523 28.3275 16.3397 29.0586 17.1975 29.7474C18.0378 30.4218 18.8813 31.0916 19.8198 31.6387C19.9565 31.7183 20.0524 31.7132 20.177 31.6282C20.579 31.3535 20.9977 31.1013 21.3905 30.8157C22.5568 29.967 23.694 29.085 24.6577 28.0116C26.5655 25.8868 26.596 21.2983 22.6947 21.4742C21.506 21.5282 20.6837 22.1242 20.1774 23.1549C20.1267 23.2577 20.0748 23.3597 20.0092 23.4901Z" fill="white"/>
<path d="M15.4395 12.671C14.435 12.671 13.4517 12.671 12.4528 12.671C12.4528 12.5414 12.4476 12.4153 12.4536 12.2895C12.5335 10.5736 12.6182 8.85728 13.0121 7.17471C13.3406 5.77153 13.8644 4.44829 14.797 3.30705C15.8478 2.02106 17.2191 1.28765 18.8921 1.07423C20.1035 0.919787 21.2938 0.99662 22.4493 1.3967C24.0656 1.95665 25.1963 3.049 25.9942 4.49486C26.594 5.58178 26.9172 6.75639 27.1354 7.96128C27.4115 9.48514 27.4842 11.0268 27.5461 12.5689C27.5473 12.5942 27.5429 12.6198 27.5401 12.6609C26.5512 12.6609 25.5643 12.6609 24.549 12.6609C24.535 12.3272 24.5191 11.988 24.5075 11.6489C24.4567 10.1371 24.354 8.63105 23.9077 7.16966C23.6448 6.30781 23.2788 5.49524 22.6184 4.84177C21.1997 3.43774 18.3486 3.59278 17.096 5.146C16.4807 5.90929 16.1563 6.80024 15.9289 7.72884C15.6041 9.05479 15.5166 10.4067 15.4802 11.7637C15.4718 12.0602 15.4538 12.3559 15.4395 12.671Z" fill="white"/>
</svg>
