<svg width="40" height="40" viewBox="0 0 40 40" fill="none" xmlns="http://www.w3.org/2000/svg">
<path fill-rule="evenodd" clip-rule="evenodd" d="M20 37.5C29.665 37.5 37.5 29.665 37.5 20C37.5 10.335 29.665 2.5 20 2.5C10.335 2.5 2.5 10.335 2.5 20C2.5 29.665 10.335 37.5 20 37.5ZM18.3033 20.8539C18.3033 21.508 18.6898 22.0719 19.2469 22.3296L26.6095 26.5855C27.3865 27.0346 28.3805 26.7688 28.8296 25.9918C29.2787 25.2148 29.0129 24.2208 28.236 23.7717L21.5533 19.9089L21.5533 13.6696C21.5533 12.7721 20.8258 12.0446 19.9283 12.0446C19.0308 12.0446 18.3033 12.7721 18.3033 13.6696V20.8539Z" fill="white"/>
</svg>
