<svg width="40" height="40" viewBox="0 0 40 40" fill="none" xmlns="http://www.w3.org/2000/svg">
<circle cx="20" cy="20" r="20" fill="white"/>
<path d="M7 33C7.05438 32.7961 7.10459 32.6063 7.15559 32.4169C7.68221 30.4644 8.20934 28.5118 8.7331 26.5585C8.74637 26.5094 8.73752 26.441 8.71228 26.3965C7.99729 25.1321 7.50658 23.7868 7.24197 22.3577C7.04709 21.3042 6.98595 20.2432 7.05204 19.1751C7.14805 17.6316 7.5084 16.1516 8.13597 14.7371C8.66233 13.5505 9.35104 12.4668 10.2024 11.4876C11.4323 10.0732 12.8976 8.9705 14.5998 8.18355C15.6119 7.71569 16.6675 7.3862 17.7649 7.19427C18.7898 7.01509 19.8217 6.96073 20.8609 7.02757C22.5851 7.13888 24.2225 7.57266 25.7711 8.33828C26.81 8.85191 27.7602 9.49738 28.6264 10.2679C29.6239 11.1555 30.4706 12.168 31.159 13.312C31.7933 14.3663 32.2651 15.4895 32.577 16.68C32.7766 17.4418 32.9059 18.2155 32.9637 19.0001C33.0495 20.169 32.9842 21.33 32.7573 22.4813C32.3322 24.6387 31.4156 26.564 30.0184 28.2583C28.8106 29.723 27.347 30.868 25.6387 31.696C24.4993 32.2482 23.3027 32.6211 22.0515 32.8198C21.0001 32.9867 19.9442 33.0244 18.8848 32.93C17.1189 32.7724 15.4513 32.2786 13.8876 31.4404C13.8257 31.4071 13.7711 31.4019 13.7042 31.4178C11.5062 31.9392 9.30759 32.4591 7.10902 32.9792C7.07832 32.987 7.04709 32.9914 7 33ZM15.7084 13.9988C15.7084 13.9965 15.7084 13.9939 15.7084 13.9915C15.6043 13.9915 15.5005 13.9894 15.3964 13.9918C15.1154 13.9983 14.8691 14.0997 14.6638 14.2877C14.5324 14.4081 14.4111 14.5408 14.2946 14.6757C13.5647 15.5222 13.3176 16.511 13.4539 17.6046C13.5252 18.1767 13.7284 18.7098 13.979 19.2263C14.2235 19.7306 14.5469 20.1849 14.8631 20.645C15.5237 21.6072 16.2662 22.4984 17.1217 23.2934C17.8287 23.9506 18.5915 24.5331 19.4533 24.9724C20.4742 25.4928 21.5522 25.8626 22.6673 26.1232C23.183 26.2436 23.7055 26.2496 24.2248 26.157C24.8084 26.053 25.3025 25.756 25.7586 25.3916C25.9912 25.2059 26.2061 24.9976 26.3242 24.7194C26.5087 24.2851 26.5946 23.8279 26.6042 23.3548C26.6089 23.1234 26.5051 22.9821 26.3008 22.8844C25.7045 22.5988 25.1146 22.2997 24.518 22.0152C24.2084 21.8675 23.8946 21.7255 23.573 21.6064C23.3024 21.5063 23.1734 21.5736 22.9949 21.8004C22.6572 22.2287 22.3137 22.6524 21.9646 23.0713C21.7832 23.289 21.6216 23.3163 21.3573 23.2048C21.2917 23.1769 21.2269 23.1473 21.1614 23.1192C20.6543 22.9013 20.1597 22.6599 19.696 22.3577C18.5366 21.6022 17.6299 20.6075 16.9178 19.4286C16.6844 19.0425 16.7049 18.9426 17.0122 18.612C17.3101 18.2914 17.6054 17.9676 17.7863 17.5575C17.8635 17.3817 17.8745 17.216 17.8021 17.0408C17.5326 16.3877 17.2672 15.7332 16.9932 15.082C16.8852 14.8253 16.7692 14.5712 16.6383 14.3257C16.5231 14.1093 16.3277 14.0006 16.0784 13.9991C15.9553 13.9983 15.832 13.9988 15.7084 13.9988Z" fill="#181818"/>
</svg>
