<svg width="193" height="158" viewBox="0 0 193 158" fill="none" xmlns="http://www.w3.org/2000/svg">
<g clip-path="url(#clip0)">
<path d="M166.985 41.0369C170.43 40.5037 174.266 42.9336 175.393 46.6986C175.688 47.6133 175.751 48.682 175.801 49.4688L175.977 52.0157L176.247 57.1073C176.594 63.8961 176.685 70.6871 176.729 77.4759C176.692 84.2647 176.599 91.0557 176.254 97.8445C175.937 104.633 175.465 111.424 174.563 118.213C173.662 111.424 173.189 104.633 172.873 97.8445C172.528 91.0557 172.435 84.2647 172.398 77.4759C172.441 70.6871 172.534 63.8961 172.879 57.1073L173.15 52.0157C173.219 50.3445 173.505 48.5107 173.334 47.1798C172.987 44.2514 170.408 41.5051 166.985 41.0369Z" fill="url(#paint0_linear)"/>
<path d="M59.7647 118.211C58.8673 111.409 58.3991 104.607 58.0805 97.8029C57.7359 91.0032 57.6427 84.1993 57.5993 77.3974C57.6361 70.5956 57.7294 63.7938 58.074 56.9898L58.3449 51.8873L58.5205 49.3361C58.5595 48.5558 58.6571 47.4221 58.9844 46.5334C60.2676 42.7922 64.1389 40.538 67.5723 41.0343C64.1714 41.522 61.4836 44.1751 61.0414 47.0818C60.8051 48.3954 61.1259 50.1945 61.1866 51.8873L61.4576 56.9898C61.8022 63.7916 61.8954 70.5934 61.9323 77.3974C61.8889 84.1993 61.7957 91.0011 61.4511 97.8051C61.1324 104.607 60.6621 111.409 59.7647 118.211Z" fill="url(#paint1_linear)"/>
<path d="M154.338 51.7903C157.483 51.6624 160.628 51.4825 163.773 51.4002L164.185 51.3893L164.2 51.8272C164.489 60.3609 164.868 68.8924 165.05 77.4261C165.302 85.9599 165.416 94.4914 165.588 103.025L165.624 104.82L163.771 104.842L140.468 105.104L117.164 105.193L93.8607 105.108L70.5572 104.852L68.6931 104.833L68.7299 103.027C68.9055 94.4936 69.0139 85.962 69.2675 77.4283C69.4517 68.8946 69.8267 60.363 70.1215 51.8293L70.1367 51.3828L70.555 51.3958C73.7413 51.4934 76.9276 51.6841 80.1118 51.8293C76.9255 51.9746 73.7391 52.1675 70.555 52.2628L70.9885 51.8293C71.2833 60.363 71.6583 68.8946 71.8425 77.4283C72.0961 85.962 72.2045 94.4936 72.3801 103.027L70.555 101.202L93.8585 100.946L117.162 100.862L140.466 100.951L163.769 101.213L161.953 103.029C162.124 94.4957 162.239 85.9642 162.49 77.4305C162.672 68.8968 163.052 60.3652 163.34 51.8315L163.765 52.2585C160.624 52.148 157.481 51.9442 154.338 51.7903Z" fill="url(#paint2_linear)"/>
<path opacity="0.2" d="M189.255 138.029L178.896 123.663H64.102L49.408 142.364C47.1126 147.415 50.7866 153.155 56.2966 153.155L182.369 148.819C187.879 148.822 191.78 143.082 189.255 138.029ZM138.029 143.238H105.199C104.05 143.238 103.593 142.319 103.593 141.172L105.429 133.826C105.659 133.137 106.118 132.678 107.035 132.678H136.193C136.882 132.678 137.572 133.137 137.799 133.826L139.635 141.172C139.867 142.091 138.948 143.238 138.029 143.238Z" fill="url(#paint3_linear)"/>
<path d="M189.073 138.146C186.589 135.057 184.172 131.921 181.634 128.873C179.137 125.798 176.582 122.767 174.007 119.765L174.561 120.034C164.996 120.363 155.428 120.868 145.863 121.1C136.297 121.308 126.73 121.345 117.164 121.126L88.4657 120.257C78.9002 119.991 69.3326 119.943 59.7671 120.023L60.3133 119.757C55.4753 126.038 50.7652 132.419 46.0225 138.775L46.1721 138.528C45.0536 141.159 45.9423 144.358 48.1598 145.962C49.2175 146.812 50.5549 147.159 51.8685 147.174L56.8712 147.085C63.5755 146.949 70.2798 146.825 76.9841 146.773C90.3926 146.621 103.801 146.444 117.212 146.509C130.621 146.602 144.029 146.738 157.44 147.4L177.553 148.219C180.882 148.249 184.43 149.023 187.005 146.84C188.295 145.869 189.195 144.423 189.589 142.858C189.986 141.3 189.75 139.577 189.073 138.146ZM189.44 137.914C190.229 139.49 190.487 141.276 190.101 142.982C189.717 144.679 188.75 146.223 187.411 147.341C186.097 148.501 184.357 149.144 182.594 149.244L177.555 149.42L157.442 150.239C144.033 150.898 130.625 151.037 117.214 151.13C103.806 151.195 90.397 151.017 76.9862 150.865C70.282 150.813 63.5777 150.688 56.8734 150.553L51.8208 150.449C49.8028 150.369 47.7653 149.628 46.2631 148.288C43.1267 145.715 42.2163 141.023 43.972 137.531L44.0566 137.364L44.1238 137.283C49.1764 131.171 54.2636 125.087 59.2209 118.898L59.4355 118.629L59.7671 118.634C69.3326 118.714 78.9002 118.666 88.4657 118.4L117.164 117.53C126.73 117.314 136.297 117.348 145.863 117.556C155.428 117.788 164.996 118.293 174.561 118.623L174.932 118.636L175.116 118.892C177.44 122.121 179.783 125.325 182.183 128.483C184.543 131.672 187.025 134.769 189.44 137.914Z" fill="#1E2533"/>
<path d="M133.694 139.119C130.711 139.089 127.729 139.464 124.744 139.973C121.762 140.468 118.779 140.869 115.794 140.849C112.812 140.89 109.829 140.546 106.844 140.153C105.353 139.971 103.862 139.778 102.37 139.692L101.252 139.614C100.94 139.603 100.37 139.635 99.8604 139.371C98.7701 138.79 98.6184 137.632 98.5881 136.837L98.5859 136.768L98.6076 136.674C99.208 134.223 99.6263 131.726 99.9666 129.209L99.9927 129.123C100.11 128.654 100.37 128.058 100.912 127.616C101.449 127.172 102.106 127.005 102.622 126.962L104.737 126.736C106.129 126.606 107.521 126.496 108.912 126.428L117.262 126.075C120.045 125.995 122.828 126.008 125.611 126.129C127.003 126.157 128.394 126.27 129.786 126.394L131.891 126.649C133.334 126.797 134.424 127.772 134.758 129.062L134.789 129.164C134.956 130.928 135.064 132.706 135.289 134.455C135.365 135.372 135.586 136.111 135.649 137.149C135.523 138.187 134.747 139.05 133.694 139.119ZM133.694 138.686C134.416 138.66 135.077 137.825 135.023 137.14C134.828 136.453 134.502 135.51 134.19 134.724C133.566 133.074 132.827 131.455 132.142 129.821L132.17 129.92C132.062 129.877 131.806 129.905 131.854 130.037L129.784 130.291C128.392 130.414 127.001 130.527 125.609 130.555C122.826 130.677 120.043 130.69 117.259 130.61L108.91 130.256C107.518 130.189 106.127 130.079 104.735 129.948L102.676 129.725C102.334 129.732 102.475 129.485 102.191 129.857L102.214 129.773C101.33 132.153 100.524 134.555 99.8994 137L99.919 136.839C99.8843 137.479 100.123 138.044 100.45 138.142C100.695 138.285 101.686 138.153 102.37 138.118C103.862 138.033 105.353 137.841 106.844 137.656C109.827 137.264 112.809 136.922 115.794 136.961C118.777 136.941 121.759 137.342 124.744 137.836C127.729 138.343 130.711 138.718 133.694 138.686Z" fill="#1E2533"/>
<path opacity="0.2" d="M90.0604 34.2894V57.3437H134.879V24.3295H90.0604V26.82" fill="url(#paint4_linear)"/>
<path d="M87.8931 29.9544C88.0318 32.2368 88.2247 34.5193 88.318 36.8017L88.6561 43.6491C88.9032 48.214 89.0874 52.7789 89.2348 57.3438L87.8931 56.0021C95.3625 55.755 102.832 55.5447 110.304 55.4385C117.773 55.2954 125.242 55.2261 132.714 55.2109L130.581 57.3438C130.52 51.1185 130.583 44.8933 130.612 38.6702C130.614 32.4449 130.757 26.2197 130.843 19.9966L132.716 21.8694C128.982 21.8304 125.247 21.6916 121.512 21.6071C117.777 21.5247 114.043 21.3968 110.308 21.2538C106.573 21.1389 102.838 20.9568 99.1038 20.7639C95.369 20.558 91.6343 20.4366 87.8996 20.1613L88.0665 19.9944L87.8996 22.485L87.7327 19.9944L87.7219 19.8405L87.8996 19.8275C91.6343 19.5544 95.369 19.4309 99.1038 19.2249C102.838 19.0299 106.573 18.85 110.308 18.7351C114.043 18.5942 117.777 18.4663 121.512 18.3818C125.247 18.2972 128.982 18.1607 132.716 18.1195L134.563 18.1L134.589 19.9923C134.676 26.2175 134.819 32.4428 134.821 38.6659C134.849 44.8911 134.912 51.1164 134.851 57.3394L134.83 59.4788L132.716 59.4745C125.247 59.4593 117.777 59.39 110.306 59.2469C102.836 59.1385 95.3669 58.9304 87.8953 58.6833L86.5124 58.6378L86.5536 57.3416C86.7009 52.7767 86.883 48.2118 87.1323 43.6469L87.4704 36.7996C87.5615 34.5193 87.7544 32.2368 87.8931 29.9544Z" fill="#1E2533"/>
<path d="M82.9122 72.2825L110.698 71.3266C119.795 71.0362 128.761 70.7609 137.691 70.62L136.028 72.2825C135.827 62.7387 135.764 53.1928 135.651 43.649L135.526 15.0154L137.691 17.1808C119.431 17.1461 101.172 17.0529 82.9122 16.7278L84.6267 15.0132C84.4815 24.3533 84.2084 33.7302 83.9136 43.2328L82.9122 72.2825ZM82.9122 72.2825L81.9108 44.063C81.6181 34.478 81.345 24.7651 81.1998 15.0132L81.1738 13.329L82.9143 13.2987C101.174 12.9736 119.434 12.8804 137.693 12.8457L139.867 12.8435L139.858 15.0132L139.733 43.6468C139.62 53.1906 139.557 62.7366 139.356 72.2804L139.319 73.9689L137.691 73.9451C128.364 73.8042 119.067 73.5289 109.905 73.2384L82.9122 72.2825Z" fill="#1E2533"/>
<path d="M94.4458 76.1755C102.732 77.6884 110.937 79.5113 119.126 81.3776C127.304 83.2938 135.452 85.3139 143.578 87.4165L141.016 88.8991L144.517 75.1632L148.188 61.4707C150.735 52.3691 153.313 43.274 156.133 34.2439L157.013 35.7633C150.672 33.7302 144.356 31.6168 138.092 29.3062C144.66 30.4983 151.175 31.8834 157.669 33.3508L158.816 33.6088L158.549 34.8703C156.601 44.128 154.407 53.3228 152.183 62.5089L148.7 76.2492L145.045 89.946L144.495 92.0074L142.481 91.4308C134.414 89.1158 126.368 86.7185 118.35 84.2193C110.345 81.6746 102.353 79.08 94.4458 76.1755Z" fill="#1E2533"/>
<path d="M141.469 74.4523C141.649 68.0449 142.835 61.9064 144.239 55.8264C144.979 52.7961 145.794 49.7853 146.752 46.8136C147.71 43.8419 148.722 40.8853 149.953 37.9851L150.792 39.4504C148.776 38.5855 146.773 37.6686 144.829 36.5502C147.073 36.5935 149.262 36.8385 151.434 37.1354L152.433 37.272L152.273 38.6007C151.895 41.7285 151.301 44.7956 150.653 47.8497C150.003 50.9038 149.212 53.9211 148.343 56.9166C146.531 62.8926 144.504 68.8058 141.469 74.4523Z" fill="#1E2533"/>
<path d="M87.1303 94.8037C86.2264 93.3839 85.7777 91.9663 85.4309 90.5466C85.1123 89.1268 84.9649 87.7092 84.9627 86.2895C84.9584 84.8697 85.108 83.4521 85.4244 82.0324C85.7669 80.6126 86.2199 79.195 87.1281 77.7753C88.0363 79.195 88.4894 80.6126 88.8318 82.0324C89.1505 83.4521 89.2979 84.8697 89.2935 86.2895C89.2914 87.7092 89.144 89.1268 88.8253 90.5466C88.4829 91.9663 88.0342 93.3839 87.1303 94.8037Z" fill="#1E2533"/>
<path d="M80.9488 91.29C81.7638 91.2531 82.4552 91.3918 83.1553 91.5176C83.823 91.6866 84.4927 91.8557 85.0975 92.1136C86.333 92.5948 87.445 93.2473 88.4746 94.0146L85.8388 94.1121C86.7513 93.3838 87.7462 92.7574 88.8474 92.2545C89.9745 91.7842 91.145 91.368 92.5973 91.2878C92.257 92.7011 91.637 93.7783 90.9716 94.8014C90.2801 95.792 89.4825 96.659 88.6024 97.4242L87.3778 98.4885L85.9645 97.5217C84.9046 96.7956 83.9248 95.9546 83.0708 94.9423C82.6308 94.4524 82.2536 93.8759 81.8765 93.2971C81.534 92.6815 81.1785 92.0746 80.9488 91.29Z" fill="#1E2533"/>
<path d="M109.918 36.3161C111.891 36.392 113.579 34.8985 114.256 33.3552C114.96 31.7902 115.318 30.5113 115.626 29.0179C115.929 27.5765 115.953 25.6061 114.739 24.1994C113.573 22.8078 111.577 22.2573 109.92 22.6908C108.254 23.1243 106.981 24.065 106.056 25.1531C105.145 26.3019 104.792 27.6632 104.72 29.0179C104.681 30.39 104.959 31.7469 105.624 33.3118C106.27 34.8747 107.955 36.3443 109.918 36.3161ZM109.918 36.7496C107.942 36.7344 105.718 36.587 103.587 35.3515C102.562 34.7273 101.634 33.8191 101.038 32.7006C100.444 31.5821 100.13 30.3011 100.091 29.0201C100.006 26.432 101.27 23.8851 103.158 22.2594C105.009 20.5492 107.647 19.8751 109.918 20.3216C112.203 20.7421 114.115 21.8086 115.725 23.2153C117.308 24.5852 118.948 26.5252 119.239 29.0222C119.56 31.4694 118.298 34.1008 116.206 35.3125C114.106 36.5632 111.889 36.6867 109.918 36.7496Z" fill="url(#paint5_linear)"/>
<path d="M125.902 54.2008C125.499 52.1199 125.035 50.2255 124.049 48.6019C123.145 46.9589 121.823 45.6497 120.407 44.6245C118.92 43.6881 117.325 42.9684 115.632 42.7734C114.733 42.678 114.078 42.6346 112.977 42.6802L109.927 42.7105L106.877 42.6845C105.774 42.6411 105.12 42.6802 104.222 42.782C102.527 42.9728 100.938 43.6989 99.4514 44.6331C98.0359 45.6562 96.7159 46.9654 95.812 48.6063C94.8258 50.2298 94.3619 52.1221 93.9544 54.2029C93.4017 52.2283 93.2673 49.9827 93.8352 47.8173C94.4031 45.6584 95.6256 43.6339 97.2968 42.0234C98.9723 40.4107 101.149 39.2944 103.459 38.7482C104.042 38.6311 104.628 38.5076 105.224 38.4837L106.114 38.4209L106.877 38.4014L109.929 38.3754L112.981 38.4057L113.744 38.4252L114.635 38.4881C115.231 38.5098 115.816 38.6398 116.4 38.7547C118.71 39.3009 120.884 40.4194 122.558 42.0299C124.229 43.6382 125.451 45.6627 126.019 47.8195C126.585 49.9805 126.451 52.2261 125.902 54.2008Z" fill="url(#paint6_linear)"/>
</g>
<g filter="url(#filter0_dd)">
<rect x="42.1279" y="24.0024" width="48" height="48" rx="24" fill="#C4C4C4"/>
<rect x="42.1279" y="24.0024" width="48" height="48" rx="24" fill="url(#paint7_linear)"/>
</g>
<path d="M68.0995 41.4116H66.1755L62.9092 43.5466V45.4386L66.0413 43.3932H66.118V54.5025H68.0995V41.4116Z" fill="white"/>
<defs>
<filter id="filter0_dd" x="0.527209" y="0.890929" width="131.201" height="131.201" filterUnits="userSpaceOnUse" color-interpolation-filters="sRGB">
<feFlood flood-opacity="0" result="BackgroundImageFix"/>
<feColorMatrix in="SourceAlpha" type="matrix" values="0 0 0 0 0 0 0 0 0 0 0 0 0 0 0 0 0 0 127 0" result="hardAlpha"/>
<feMorphology radius="4.6223" operator="erode" in="SourceAlpha" result="effect1_dropShadow"/>
<feOffset dy="18.4892"/>
<feGaussianBlur stdDeviation="23.1115"/>
<feColorMatrix type="matrix" values="0 0 0 0 0.980392 0 0 0 0 0.470588 0 0 0 0 0.27451 0 0 0 0.25 0"/>
<feBlend mode="normal" in2="BackgroundImageFix" result="effect1_dropShadow"/>
<feColorMatrix in="SourceAlpha" type="matrix" values="0 0 0 0 0 0 0 0 0 0 0 0 0 0 0 0 0 0 127 0" result="hardAlpha"/>
<feOffset dy="2"/>
<feColorMatrix type="matrix" values="0 0 0 0 0.908333 0 0 0 0 0.443806 0 0 0 0 0.268715 0 0 0 1 0"/>
<feBlend mode="normal" in2="effect1_dropShadow" result="effect2_dropShadow"/>
<feBlend mode="normal" in="SourceGraphic" in2="effect2_dropShadow" result="shape"/>
</filter>
<linearGradient id="paint0_linear" x1="166.985" y1="79.5882" x2="176.728" y2="79.5882" gradientUnits="userSpaceOnUse">
<stop offset="1.58946e-07" stop-color="#FC8C5F"/>
<stop offset="1" stop-color="#FA7846"/>
</linearGradient>
<linearGradient id="paint1_linear" x1="57.5995" y1="79.5901" x2="67.5718" y2="79.5901" gradientUnits="userSpaceOnUse">
<stop offset="1.58946e-07" stop-color="#FC8C5F"/>
<stop offset="1" stop-color="#FA7846"/>
</linearGradient>
<linearGradient id="paint2_linear" x1="68.3892" y1="78.2875" x2="165.938" y2="78.2875" gradientUnits="userSpaceOnUse">
<stop offset="1.58946e-07" stop-color="#FC8C5F"/>
<stop offset="1" stop-color="#FA7846"/>
</linearGradient>
<linearGradient id="paint3_linear" x1="48.7122" y1="138.41" x2="190.041" y2="138.41" gradientUnits="userSpaceOnUse">
<stop offset="1.58946e-07" stop-color="#FC8C5F"/>
<stop offset="1" stop-color="#FA7846"/>
</linearGradient>
<linearGradient id="paint4_linear" x1="90.0602" y1="40.8361" x2="134.88" y2="40.8361" gradientUnits="userSpaceOnUse">
<stop offset="1.58946e-07" stop-color="#FC8C5F"/>
<stop offset="1" stop-color="#FA7846"/>
</linearGradient>
<linearGradient id="paint5_linear" x1="100.238" y1="28.4682" x2="119.6" y2="28.4682" gradientUnits="userSpaceOnUse">
<stop offset="1.58946e-07" stop-color="#FC8C5F"/>
<stop offset="1" stop-color="#FA7846"/>
</linearGradient>
<linearGradient id="paint6_linear" x1="91.7838" y1="46.2883" x2="128.07" y2="46.2883" gradientUnits="userSpaceOnUse">
<stop offset="1.58946e-07" stop-color="#FC8C5F"/>
<stop offset="1" stop-color="#FA7846"/>
</linearGradient>
<linearGradient id="paint7_linear" x1="42.1279" y1="48.0024" x2="90.1279" y2="48.0024" gradientUnits="userSpaceOnUse">
<stop stop-color="#FC8C5F"/>
<stop offset="1" stop-color="#FA7846"/>
</linearGradient>
<clipPath id="clip0">
<rect width="150" height="140.313" fill="white" transform="translate(42.21 12.8435)"/>
</clipPath>
</defs>
</svg>
