<svg width="17" height="16" viewBox="0 0 17 16" fill="none" xmlns="http://www.w3.org/2000/svg">
<path d="M0.0750015 7.30002C-0.0249989 7.50002 -0.024999 7.80002 0.0750014 8.10002C0.175002 8.20002 0.175 8.30002 0.275 8.40002L6.975 15.1C7.375 15.5 7.975 15.5 8.375 15.1C8.775 14.7 8.775 14.1 8.375 13.7L3.375 8.70002L15.475 8.70002C16.075 8.70002 16.475 8.30002 16.475 7.70002C16.475 7.10002 16.075 6.70002 15.475 6.70002L3.375 6.70002L8.375 1.70002C8.775 1.30002 8.775 0.700023 8.375 0.300023C8.175 0.100023 7.875 2.40437e-05 7.675 2.40262e-05C7.475 2.40087e-05 7.175 0.100023 6.975 0.300023L0.275 7.00002C0.175 7.10002 0.0750015 7.20002 0.0750015 7.30002Z" fill="#201A2A"/>
</svg>
