<svg width="180" height="40" viewBox="0 0 180 40" fill="none" xmlns="http://www.w3.org/2000/svg">
<path d="M20.7 16.3C20.5 15.1 20 14 19.4 13.1C19 12.4 18.4 11.7 17.8 11.1C15.9 9.2 13.3 8 10.4 8C7.6 8 4.9 9.2 3.1 11.1C2.5 11.7 2 12.4 1.5 13.1C0.9 14.1 0.5 15.2 0.2 16.3C0.1 17 0 17.7 0 18.4V32H5.9V30.2V26.6V26L10.4 30.5L14.9 26V32H20.8V18.4C20.9 17.7 20.8 17 20.7 16.3ZM13.4 21.4C12.8 22 11.9 22.5 11 22.6C10.8 22.6 10.7 22.6 10.5 22.6C10.3 22.6 10.2 22.6 10 22.6C7.9 22.4 6.3 20.6 6.3 18.5C6.3 18.3 6.3 18.2 6.3 18C6.4 17 6.8 16.1 7.5 15.5C8.3 14.7 9.3 14.3 10.5 14.3C11.7 14.3 12.7 14.8 13.5 15.5C14 16.1 14.5 17 14.6 17.9C14.6 18.1 14.6 18.2 14.6 18.4C14.6 19.6 14.1 20.6 13.4 21.4Z" fill="#882FF2"/>
<path d="M102.841 15.4C101.841 14.9 100.641 14.6 99.4415 14.6C98.1415 14.6 96.9415 14.9 95.9415 15.4C94.9415 16 94.1415 16.8 93.5415 17.8C92.9415 18.8 92.7415 20.1 92.7415 21.4C92.7415 22.8 93.0414 24 93.6414 25C94.2414 26 95.0415 26.8 96.0415 27.4C97.0415 28 98.2415 28.2 99.5415 28.2C100.641 28.2 101.641 28 102.441 27.6C103.341 27.2 104.041 26.7 104.641 25.9C105.241 25.2 105.641 24.4 105.841 23.5H101.441C101.041 24.4 100.341 24.8 99.3415 24.8C98.6415 24.8 98.0414 24.6 97.6414 24.1C97.1414 23.7 96.9415 23 96.8415 22.2H106.141C106.141 21.8 106.241 21.4 106.241 21C106.241 19.7 105.941 18.5 105.441 17.5C104.641 16.8 103.841 16 102.841 15.4ZM96.7415 20.2C96.8415 19.5 97.1414 18.9 97.6414 18.5C98.1414 18.1 98.6415 17.9 99.3415 17.9C100.041 17.9 100.641 18.1 101.141 18.5C101.641 18.9 101.841 19.5 101.841 20.2H96.7415Z" fill="#201A2A"/>
<path d="M112.241 17.1V14.8H108.141V28.2H112.241V22C112.241 20.9 112.541 20.1 113.041 19.7C113.541 19.3 114.341 19 115.341 19H116.441V14.7C115.541 14.7 114.741 14.9 114.041 15.3C113.341 15.7 112.741 16.3 112.241 17.1Z" fill="#201A2A"/>
<path d="M126.941 20.9C126.341 20.7 125.541 20.4 124.541 20.1C123.641 19.9 123.041 19.7 122.641 19.5C122.241 19.3 122.041 19 122.041 18.6C122.041 18.3 122.141 18 122.441 17.8C122.741 17.6 123.041 17.5 123.541 17.5C124.141 17.5 124.541 17.6 124.941 17.9C125.241 18.2 125.441 18.5 125.541 19H129.341C129.241 17.6 128.641 16.5 127.641 15.7C126.641 14.9 125.341 14.5 123.641 14.5C122.541 14.5 121.541 14.7 120.741 15.1C119.941 15.5 119.341 16 118.841 16.6C118.441 17.2 118.241 17.9 118.241 18.7C118.241 19.6 118.441 20.3 118.941 20.9C119.441 21.4 119.941 21.8 120.641 22.1C121.241 22.3 122.041 22.6 123.041 22.8C123.941 23 124.541 23.2 124.941 23.4C125.341 23.6 125.541 23.9 125.541 24.2C125.541 24.5 125.441 24.8 125.141 25C124.841 25.2 124.441 25.3 123.941 25.3C123.341 25.3 122.941 25.2 122.541 24.9C122.141 24.6 121.941 24.2 121.941 23.8H117.941C118.041 24.7 118.341 25.4 118.841 26.1C119.341 26.8 120.041 27.3 121.041 27.7C121.941 28.1 122.941 28.3 124.141 28.3C125.241 28.3 126.141 28.1 127.041 27.8C127.841 27.4 128.541 27 128.941 26.4C129.341 25.8 129.641 25.1 129.641 24.3C129.641 23.4 129.341 22.6 128.941 22.1C128.041 21.5 127.541 21.1 126.941 20.9Z" fill="#201A2A"/>
<path d="M177.941 16.2C177.041 15.2 175.741 14.7 174.241 14.7C173.341 14.7 172.541 14.9 171.841 15.2C171.141 15.5 170.541 16 170.141 16.6V14.8H166.041V28.2H170.141V20.9C170.141 20 170.341 19.3 170.841 18.8C171.341 18.3 171.941 18.1 172.741 18.1C173.541 18.1 174.141 18.3 174.641 18.8C175.141 19.3 175.341 20 175.341 20.9V28.2H179.441V20.4C179.341 18.6 178.841 17.2 177.941 16.2Z" fill="#201A2A"/>
<path d="M147.841 14.5V28.2H144.341V19.7L139.641 26.2L134.941 19.7V28.2H131.341V14.5H135.141L139.641 20.9L144.141 14.5H147.841Z" fill="#201A2A"/>
<path d="M51.8414 14.5C49.9414 14.5 48.2414 15.3 46.9414 16.5C45.6414 17.8 44.9414 19.5 44.9414 21.4C44.9414 25.2 48.0414 28.3 51.8414 28.3C53.7414 28.3 55.4414 27.5 56.7414 26.3C58.0414 25 58.7414 23.3 58.7414 21.4C58.7414 19.5 57.9414 17.8 56.7414 16.5C55.4414 15.3 53.7414 14.5 51.8414 14.5ZM54.2414 23.9C53.6414 24.5 52.7414 24.9 51.7414 24.9C49.8414 24.9 48.2414 23.3 48.2414 21.4C48.2414 20.4 48.6414 19.6 49.2414 18.9C49.8414 18.3 50.7414 17.9 51.7414 17.9C52.7414 17.9 53.5414 18.3 54.2414 18.9C54.8414 19.5 55.2414 20.4 55.2414 21.4C55.3414 22.4 54.9414 23.3 54.2414 23.9Z" fill="#201A2A"/>
<path d="M35.7414 14.5C33.8414 14.5 32.1414 15.3 30.8414 16.5C29.5414 17.8 28.8414 19.5 28.8414 21.4C28.8414 25.2 31.9414 28.3 35.7414 28.3C37.6414 28.3 39.3414 27.5 40.6414 26.3C41.9414 25 42.6414 23.3 42.6414 21.4C42.6414 19.5 41.8414 17.8 40.6414 16.5C39.4414 15.3 37.6414 14.5 35.7414 14.5ZM38.2414 23.9C37.6414 24.5 36.7414 24.9 35.7414 24.9C33.8414 24.9 32.2414 23.3 32.2414 21.4C32.2414 20.4 32.6414 19.6 33.2414 18.9C33.8414 18.3 34.7414 17.9 35.7414 17.9C36.7414 17.9 37.5414 18.3 38.2414 18.9C38.8414 19.5 39.2414 20.4 39.2414 21.4C39.2414 22.4 38.8414 23.3 38.2414 23.9Z" fill="#201A2A"/>
<path d="M32.3414 21.4H28.8414V32H32.3414V21.4Z" fill="#201A2A"/>
<path d="M67.8414 14.5C65.9414 14.5 64.2414 15.3 62.9414 16.5C61.6414 17.8 60.9414 19.5 60.9414 21.4C60.9414 25.2 64.0414 28.3 67.8414 28.3C69.7414 28.3 71.4414 27.5 72.7414 26.3C74.0414 25 74.7414 23.3 74.7414 21.4C74.7414 19.5 73.9414 17.8 72.7414 16.5C71.5414 15.3 69.8414 14.5 67.8414 14.5ZM70.3414 23.9C69.7414 24.5 68.8414 24.9 67.8414 24.9C65.9414 24.9 64.3414 23.3 64.3414 21.4C64.3414 20.4 64.7414 19.6 65.3414 18.9C65.9414 18.3 66.8414 17.9 67.8414 17.9C68.8414 17.9 69.6414 18.3 70.3414 18.9C70.9414 19.5 71.3414 20.4 71.3414 21.4C71.3414 22.4 70.9414 23.3 70.3414 23.9Z" fill="#201A2A"/>
<path d="M64.4414 21.4H60.9414V32H64.4414V21.4Z" fill="#201A2A"/>
<path d="M83.9414 14.5C82.0414 14.5 80.3414 15.3 79.0414 16.5C77.7414 17.8 77.0414 19.5 77.0414 21.4C77.0414 25.2 80.1414 28.3 83.9414 28.3C85.8414 28.3 87.5414 27.5 88.8414 26.3C90.1414 25 90.8414 23.3 90.8414 21.4C90.8414 19.5 90.0414 17.8 88.8414 16.5C87.6414 15.3 85.8414 14.5 83.9414 14.5ZM86.4414 23.9C85.8414 24.5 84.9414 24.9 83.9414 24.9C82.0414 24.9 80.4414 23.3 80.4414 21.4C80.4414 20.4 80.8414 19.6 81.4414 18.9C82.0414 18.3 82.9414 17.9 83.9414 17.9C84.9414 17.9 85.7414 18.3 86.4414 18.9C87.0414 19.5 87.4414 20.4 87.4414 21.4C87.4414 22.4 87.0414 23.3 86.4414 23.9Z" fill="#201A2A"/>
<path d="M80.5414 21.4H77.0414V32H80.5414V21.4Z" fill="#201A2A"/>
<path d="M156.941 14.5C155.041 14.5 153.341 15.3 152.041 16.5C150.741 17.8 150.041 19.5 150.041 21.4C150.041 25.2 153.141 28.3 156.941 28.3C158.841 28.3 160.541 27.5 161.841 26.3C163.141 25 163.841 23.3 163.841 21.4C163.841 19.5 163.041 17.8 161.841 16.5C160.541 15.3 158.841 14.5 156.941 14.5ZM159.341 23.9C158.741 24.5 157.841 24.9 156.841 24.9C154.941 24.9 153.341 23.3 153.341 21.4C153.341 20.4 153.741 19.6 154.341 18.9C154.941 18.3 155.841 17.9 156.841 17.9C157.841 17.9 158.641 18.3 159.341 18.9C159.941 19.5 160.341 20.4 160.341 21.4C160.441 22.4 160.041 23.3 159.341 23.9Z" fill="#201A2A"/>
<path d="M163.941 21.4H160.441V28.1H163.941V21.4Z" fill="#201A2A"/>
</svg>
