<svg width="164" height="21" viewBox="0 0 164 21" fill="none" xmlns="http://www.w3.org/2000/svg">
<path d="M7.83491 9.10272H4.49225V17.8619H3.5674V9.10272H0.224731V8.26465H7.83491V9.10272ZM19.2813 8.26465V17.8619H18.3696V13.3742H12.8073V17.8619H11.8825V8.26465H12.8073V12.5361H18.3696V8.26465H19.2813ZM30.5812 17.0238V17.8619H24.2791V8.26465H30.4623V9.10272H25.2039V12.5631H29.7885V13.3606H25.2039V17.0238H30.5812Z" fill="#4D4D4D"/>
<path d="M67.9445 17.8619V8.26465H71.9081C72.3132 8.26465 72.6831 8.35027 73.0179 8.52148C73.3614 8.69269 73.6566 8.92699 73.9031 9.22437C74.1497 9.51275 74.3391 9.83716 74.4712 10.1976C74.6121 10.5491 74.6826 10.9095 74.6826 11.279C74.6826 11.7476 74.5946 12.1846 74.4184 12.5902C74.2511 12.9957 74.0088 13.3381 73.6917 13.6175C73.3746 13.8968 73.0092 14.0771 72.5951 14.1582L74.894 17.8619H73.8503L71.6439 14.3204H68.8693V17.8619H67.9445ZM68.8693 13.4823H71.9345C72.3045 13.4823 72.626 13.3787 72.899 13.1714C73.172 12.9551 73.3834 12.6803 73.5332 12.3469C73.683 12.0134 73.7578 11.6575 73.7578 11.279C73.7578 10.8915 73.6698 10.5355 73.4935 10.2111C73.3263 9.87771 73.0972 9.61186 72.8065 9.41361C72.5159 9.20634 72.1988 9.10272 71.8552 9.10272H68.8693V13.4823ZM85.7872 9.10272H82.4445V17.8619H81.5197V9.10272H78.177V8.26465H85.7872V9.10272Z" fill="#4D4D4D"/>
<path d="M101.214 17.9287C100.554 17.9287 99.9546 17.7935 99.4174 17.5232C98.8802 17.2438 98.4177 16.8744 98.0301 16.4148C97.6425 15.9552 97.3431 15.437 97.1317 14.8603C96.9203 14.2745 96.8146 13.6753 96.8146 13.0625C96.8146 12.4227 96.9248 11.8144 97.1449 11.2377C97.365 10.6519 97.6734 10.1338 98.0697 9.68319C98.4748 9.2236 98.9462 8.86315 99.4834 8.60181C100.021 8.33146 100.602 8.19629 101.227 8.19629C101.879 8.19629 102.474 8.33598 103.011 8.61532C103.548 8.89467 104.011 9.26867 104.398 9.73726C104.795 10.2058 105.094 10.7285 105.297 11.3053C105.508 11.882 105.614 12.4723 105.614 13.076C105.614 13.7158 105.504 14.3286 105.284 14.9144C105.063 15.4911 104.755 16.0093 104.359 16.4688C103.962 16.9194 103.495 17.2754 102.958 17.5367C102.421 17.798 101.84 17.9287 101.214 17.9287ZM97.7394 13.0625C97.7394 13.5852 97.8232 14.0853 97.9905 14.5629C98.1577 15.0405 98.3955 15.4686 98.7039 15.847C99.0123 16.2255 99.3777 16.5274 99.8005 16.7527C100.232 16.969 100.703 17.0771 101.214 17.0771C101.751 17.0771 102.232 16.9645 102.654 16.7392C103.086 16.5049 103.452 16.194 103.751 15.8065C104.059 15.419 104.293 14.9909 104.451 14.5224C104.61 14.0447 104.689 13.5581 104.689 13.0625C104.689 12.5398 104.605 12.0397 104.438 11.5621C104.271 11.0845 104.028 10.6564 103.711 10.2779C103.403 9.89946 103.038 9.60208 102.615 9.38581C102.192 9.16953 101.725 9.06139 101.214 9.06139C100.686 9.06139 100.206 9.17404 99.7741 9.39932C99.3513 9.6246 98.9859 9.93101 98.6775 10.3185C98.3781 10.697 98.1445 11.125 97.9772 11.6026C97.8187 12.0803 97.7394 12.5669 97.7394 13.0625ZM110 17.8611V8.26388H116.157V9.10194H110.925V12.6299H115.338V13.4139H110.925V17.8611H110Z" fill="#4D4D4D"/>
<path d="M131.162 8.33223H132.034L133.355 11.7386L134.69 8.33223H135.575L133.937 12.428L135.733 16.767L139.129 8.26465H140.133L136.156 17.8619H135.337L133.368 13.1173L131.387 17.8619H130.581L126.617 8.26465H127.608L131.017 16.767L132.8 12.428L131.162 8.33223ZM150.397 17.0238V17.8619H144.095V8.26465H150.279V9.10272H145.02V12.5631H149.605V13.3606H145.02V17.0238H150.397ZM161.844 15.3882C161.844 15.8659 161.725 16.2939 161.487 16.6724C161.25 17.0419 160.928 17.3347 160.523 17.551C160.127 17.7583 159.691 17.8619 159.215 17.8619H154.789V8.26465H159.307C159.748 8.26465 160.127 8.3863 160.444 8.62961C160.761 8.86392 161.008 9.1703 161.184 9.54879C161.36 9.91827 161.448 10.3058 161.448 10.7113C161.448 11.1889 161.329 11.6304 161.091 12.036C160.853 12.4415 160.523 12.7434 160.1 12.9416C160.629 13.1038 161.051 13.4057 161.369 13.8473C161.686 14.2888 161.844 14.8025 161.844 15.3882ZM155.714 9.0892V12.6307H158.937C159.246 12.6307 159.519 12.5496 159.757 12.3874C160.003 12.2162 160.193 11.9999 160.325 11.7386C160.466 11.4682 160.536 11.1754 160.536 10.86C160.536 10.5355 160.47 10.2382 160.338 9.96782C160.206 9.69748 160.025 9.48571 159.796 9.33251C159.567 9.1703 159.307 9.0892 159.017 9.0892H155.714ZM160.919 15.226C160.919 14.9106 160.849 14.6132 160.708 14.3339C160.567 14.0545 160.373 13.8292 160.127 13.658C159.889 13.4868 159.616 13.4012 159.307 13.4012H155.714V17.0373H159.215C159.532 17.0373 159.818 16.9517 160.074 16.7805C160.329 16.6093 160.532 16.3885 160.681 16.1182C160.84 15.8388 160.919 15.5414 160.919 15.226Z" fill="#4D4D4D"/>
<path d="M63.5139 17.9499L61.2558 17.9499L58.2984 14.1095H58.3199H58.3232L58.3211 14.1068L52.4764 6.43274L52.4749 6.43112L52.4738 6.43274L46.6291 14.1068L46.6269 14.1095H46.6302H54.7819L57.7393 17.9499H41.5782L52.5462 0.101562L63.5139 17.9499Z" fill="url(#paint0_linear)"/>
<path d="M63.4592 17.8497L52.4943 0.00612167L41.5295 17.8497H57.6841L54.7293 14.0127H46.5784H46.572L46.576 14.0073L52.4207 6.33319L52.4233 6.32996L52.4257 6.33319L58.2704 14.0073L58.2746 14.0127H58.268H58.2499L61.2047 17.8497H63.4592ZM63.4651 17.8531L61.2032 17.853L58.2433 14.0094H58.268L52.4233 6.33527L46.5784 14.0094H54.7307L57.6907 17.853H41.5236L52.4943 0L63.4651 17.853V17.8531Z" fill="#707070"/>
<path d="M63.4595 17.8497L52.4946 0.00612167L41.5297 17.8497H57.6843L54.7296 14.0127H46.5786H46.5722L46.5763 14.0073L52.421 6.33319L52.4236 6.32996L52.4259 6.33319L58.2706 14.0073L58.2749 14.0127H58.2683H58.2501L61.2049 17.8497H63.4595ZM63.4654 17.8531L61.2035 17.853L58.2435 14.0094H58.2683L52.4236 6.33527L46.5786 14.0094H54.731L57.691 17.853H41.5238L52.4946 0L63.4654 17.853V17.8531Z" fill="#707070"/>
<defs>
<linearGradient id="paint0_linear" x1="59.6972" y1="18.9316" x2="54.782" y2="1.64337" gradientUnits="userSpaceOnUse">
<stop stop-color="#244AFC"/>
<stop offset="0.221" stop-color="#244AFC"/>
<stop offset="0.561" stop-color="#763A65"/>
<stop offset="0.798" stop-color="#DE466D"/>
<stop offset="1" stop-color="#DA6251"/>
</linearGradient>
</defs>
</svg>
