<svg width="19" height="17" viewBox="0 0 19 17" fill="none" xmlns="http://www.w3.org/2000/svg">
<path d="M3.25 0.6875C2.4212 0.6875 1.62634 1.01674 1.04029 1.60279C0.45424 2.18884 0.125 2.9837 0.125 3.8125V4.12656L9.5 9.175L18.875 4.12813V3.8125C18.875 2.9837 18.5458 2.18884 17.9597 1.60279C17.3737 1.01674 16.5788 0.6875 15.75 0.6875H3.25Z" fill="#F90101" fill-opacity="0.63"/>
<path d="M18.875 5.90137L9.87031 10.7498C9.7565 10.8111 9.62926 10.8431 9.5 10.8431C9.37074 10.8431 9.2435 10.8111 9.12969 10.7498L0.125 5.90137V13.1873C0.125 14.0161 0.45424 14.811 1.04029 15.397C1.62634 15.9831 2.4212 16.3123 3.25 16.3123H15.75C16.5788 16.3123 17.3737 15.9831 17.9597 15.397C18.5458 14.811 18.875 14.0161 18.875 13.1873V5.90137Z" fill="#F90101" fill-opacity="0.63"/>
</svg>
