<svg width="289" height="64" viewBox="0 0 289 64" fill="none" xmlns="http://www.w3.org/2000/svg">
<path d="M78.0387 20.0386H71.983H66.9248V22.0814V26.1312V28.1741V33.2632V35.3061H71.983H78.0387H83.0969V33.2632V29.6076C83.0969 28.7475 82.5982 27.9591 81.8502 27.5648L81.1022 27.1706L81.8502 26.7764C82.6339 26.3821 83.0969 25.5937 83.0969 24.7335V22.0814V20.0386H78.0387ZM78.0387 33.2632H71.983V28.1741H75.759C77.0057 28.1741 78.0387 29.2134 78.0387 30.4678V33.2632ZM75.759 26.167H71.983V22.1172H78.0387V23.8734C78.0387 25.1277 77.0057 26.167 75.759 26.167Z" fill="url(#paint0_linear)"/>
<path d="M187.075 23.1206H183.05V35.3059H187.075V23.1206Z" fill="black"/>
<path d="M115.405 21.8664V33.5142C115.405 34.5176 116.225 35.3061 117.186 35.3061H129.761C130.758 35.3061 131.542 34.4817 131.542 33.5142V30.2527H126.483V33.2991H120.428V22.1172H126.483V25.1636H131.542V21.9022C131.542 20.8988 130.723 20.1103 129.761 20.1103H117.186C116.189 20.0386 115.405 20.8629 115.405 21.8664Z" fill="black"/>
<path d="M105.289 22.0814V20.0386H97.2026H92.1804V22.0814V26.167V28.1741V33.2632V35.3061H97.2026H105.289V33.2632H97.2026V28.1741H104.292V26.167H97.2026V22.0814H105.289Z" fill="url(#paint1_linear)"/>
<path d="M90.1496 32.2598H85.0916V35.3061H90.1496V32.2598Z" fill="url(#paint2_linear)"/>
<path d="M113.375 32.2598H108.316V35.3061H113.375V32.2598Z" fill="url(#paint3_linear)"/>
<path d="M191.137 23.1206H179.026V24.1241H191.137V23.1206Z" fill="black"/>
<path d="M247.668 23.1206H243.642V35.3059H247.668V23.1206Z" fill="black"/>
<path d="M251.693 23.1206H239.582V24.1241H251.693V23.1206Z" fill="black"/>
<path d="M193.132 23.1206V35.3059H197.156V29.2133H200.612C201.503 29.2133 202.215 29.93 202.215 30.826V35.3418H206.24V30.9335C206.24 30.5035 206.062 30.1093 205.777 29.8225L205.242 29.2849L205.777 28.7473C206.062 28.4606 206.24 28.0664 206.24 27.6363V23.2281H193.132V23.1206ZM200.647 28.1739H197.193V24.1241H202.25V26.597C202.215 27.4571 201.538 28.1739 200.647 28.1739Z" fill="black"/>
<path d="M163.85 24.1959V28.0666C163.85 28.6758 164.349 29.1777 164.955 29.1777H172.258C172.649 29.1777 172.97 29.5002 172.97 29.8944V33.335C172.97 33.8367 172.542 34.2668 172.044 34.2668H168.838C168.339 34.2668 167.911 33.8367 167.911 33.335V33.2633H163.887V34.1951C163.887 34.8044 164.385 35.3061 164.99 35.3061H175.927C176.531 35.3061 177.03 34.8044 177.03 34.1951V29.2852C177.03 28.6758 176.531 28.1741 175.927 28.1741H168.589C168.197 28.1741 167.876 27.8516 167.876 27.4574V25.0561C167.876 24.5544 168.303 24.1243 168.802 24.1243H172.008C172.507 24.1243 172.934 24.5544 172.934 25.0561V25.1277H176.96V24.1959C176.96 23.5867 176.461 23.085 175.855 23.085H164.92C164.349 23.1208 163.85 23.5867 163.85 24.1959Z" fill="black"/>
<path d="M133.572 24.1602V34.2309C133.572 34.8044 134.035 35.3061 134.641 35.3061H145.648C146.218 35.3061 146.716 34.8403 146.716 34.2309V24.1602C146.716 23.5867 146.254 23.085 145.648 23.085H134.641C134.035 23.1208 133.572 23.5867 133.572 24.1602ZM141.587 34.2668H138.666C138.096 34.2668 137.597 33.8008 137.597 33.1916V25.1636C137.597 24.5902 138.061 24.0884 138.666 24.0884H141.623C142.192 24.0884 142.691 24.5544 142.691 25.1636V33.1916C142.656 33.8008 142.192 34.2668 141.587 34.2668Z" fill="black"/>
<path d="M259.779 24.1602V34.2309C259.779 34.8044 260.243 35.3061 260.848 35.3061H271.855C272.425 35.3061 272.924 34.8403 272.924 34.2309V24.1602C272.924 23.5867 272.46 23.085 271.855 23.085H260.848C260.243 23.1208 259.779 23.5867 259.779 24.1602ZM267.83 34.2668H264.873C264.304 34.2668 263.805 33.8008 263.805 33.1916V25.1636C263.805 24.5902 264.267 24.0884 264.873 24.0884H267.83C268.4 24.0884 268.899 24.5544 268.899 25.1636V33.1916C268.863 33.8008 268.4 34.2668 267.83 34.2668Z" fill="black"/>
<path d="M257.748 23.1206H253.724V35.3059H257.748V23.1206Z" fill="black"/>
<path d="M224.442 24.1597V34.2663C224.442 34.8398 224.906 35.3057 225.475 35.3057H236.447C237.053 35.3057 237.551 34.8039 237.551 34.1947V31.2559H233.526V33.2629C233.526 33.8362 233.063 34.3022 232.493 34.3022H229.501C228.931 34.3022 228.468 33.8362 228.468 33.2629V25.199C228.468 24.6256 228.931 24.1597 229.501 24.1597H232.493C233.063 24.1597 233.526 24.6256 233.526 25.199V27.206H237.551V24.2672C237.551 23.658 237.053 23.1562 236.447 23.1562H225.475C224.906 23.1204 224.442 23.5862 224.442 24.1597Z" fill="black"/>
<path d="M218.387 23.1206V32.7971C218.387 33.6215 217.71 34.2666 216.927 34.2666H214.825C214.006 34.2666 213.365 33.5856 213.365 32.7971V23.1206H209.339V33.8365C209.339 34.6608 210.016 35.3059 210.8 35.3059H220.952C221.771 35.3059 222.412 34.6249 222.412 33.8365V23.1206H218.387Z" fill="black"/>
<path d="M157.795 23.1206V29.2133L152.773 23.1206H148.712V35.3059H152.773V29.2133L157.795 35.3059H161.856V23.1206H157.795Z" fill="black"/>
<path d="M284.037 23.1206V29.2133L278.979 23.1206H274.918V35.3059H278.979V29.2133L284.037 35.3059H288.063V23.1206H284.037Z" fill="black"/>
<path d="M288.063 38.3525H66.9248V39.356H288.063V38.3525Z" fill="black"/>
<path d="M94.1035 48.3159H96.1343V50.968C95.8142 51.0755 95.4931 51.1472 95.2083 51.183C94.9235 51.2188 94.6387 51.2547 94.3176 51.2547C93.5339 51.2547 92.9643 51.0397 92.5725 50.5737C92.1806 50.1079 91.9666 49.4627 91.9666 48.6026C91.9666 47.7783 92.216 47.1332 92.6795 46.6673C93.1421 46.2013 93.7833 45.9863 94.6387 45.9863C95.1729 45.9863 95.6708 46.0938 96.1343 46.3088L95.7779 47.169C95.4223 46.9898 95.0305 46.8823 94.6024 46.8823C94.1398 46.8823 93.748 47.0257 93.4985 47.3482C93.2491 47.6708 93.0713 48.1009 93.0713 48.6026C93.0713 49.1402 93.1774 49.5703 93.4269 49.857C93.6763 50.1436 93.9974 50.287 94.4246 50.287C94.6387 50.287 94.8872 50.2512 95.1012 50.2154V49.1402H94.1398V48.3159H94.1035Z" fill="black"/>
<path d="M98.3783 49.2115V51.1826H97.3098V46.0576H98.8055C99.4831 46.0576 100.017 46.201 100.337 46.4518C100.659 46.7027 100.836 47.0969 100.836 47.5988C100.836 47.8854 100.765 48.1721 100.587 48.3872C100.409 48.6022 100.195 48.8172 99.8749 48.9248C100.622 50.0717 101.121 50.8243 101.371 51.1468H100.195L98.9842 49.1757H98.3783V49.2115ZM98.3783 48.3514H98.7348C99.0912 48.3514 99.3397 48.2796 99.4831 48.1721C99.6255 48.0646 99.7316 47.8854 99.7316 47.6345C99.7316 47.3837 99.6608 47.2045 99.4831 47.1328C99.3044 47.0612 99.0549 46.9894 98.6994 46.9894H98.3783V48.3514Z" fill="black"/>
<path d="M106.642 48.6384C106.642 49.4985 106.429 50.1436 106.001 50.5737C105.574 51.0038 104.968 51.2547 104.22 51.2547C103.472 51.2547 102.831 51.0397 102.439 50.5737C102.047 50.1079 101.798 49.4627 101.798 48.6026C101.798 47.7424 102.012 47.0973 102.439 46.6673C102.866 46.2372 103.472 45.9863 104.256 45.9863C105.039 45.9863 105.645 46.2013 106.037 46.6673C106.429 47.1332 106.642 47.7783 106.642 48.6384ZM102.938 48.6384C102.938 49.2118 103.045 49.6419 103.258 49.9286C103.472 50.2154 103.792 50.3587 104.22 50.3587C105.075 50.3587 105.503 49.7853 105.503 48.6384C105.503 47.4915 105.075 46.9182 104.22 46.9182C103.792 46.9182 103.472 47.0615 103.258 47.3482C103.045 47.6349 102.938 48.065 102.938 48.6384Z" fill="black"/>
<path d="M110.704 49.7853C110.704 50.2511 110.525 50.6096 110.205 50.8605C109.884 51.1113 109.421 51.2547 108.815 51.2547C108.281 51.2547 107.782 51.1472 107.39 50.9321V49.9286C107.747 50.072 108.032 50.1795 108.246 50.2511C108.459 50.3229 108.708 50.3587 108.887 50.3587C109.136 50.3587 109.314 50.3229 109.421 50.2154C109.528 50.1079 109.599 50.0003 109.599 49.8211C109.599 49.7136 109.564 49.6419 109.528 49.5703C109.492 49.4985 109.385 49.4269 109.279 49.3552C109.172 49.2835 108.958 49.176 108.601 48.9968C108.281 48.8534 108.067 48.7101 107.889 48.5667C107.711 48.4234 107.604 48.28 107.533 48.1008C107.462 47.9216 107.39 47.7066 107.39 47.4558C107.39 46.9898 107.533 46.6314 107.854 46.3806C108.174 46.1297 108.566 45.9863 109.1 45.9863C109.35 45.9863 109.634 46.0221 109.848 46.0938C110.063 46.1655 110.347 46.2372 110.597 46.3447L110.24 47.2048C109.955 47.0973 109.741 47.0257 109.564 46.9539C109.385 46.8823 109.207 46.8823 109.029 46.8823C108.815 46.8823 108.673 46.9182 108.566 47.0257C108.459 47.1332 108.388 47.2407 108.388 47.384C108.388 47.4915 108.423 47.5633 108.459 47.6349C108.495 47.7066 108.566 47.7783 108.673 47.85C108.78 47.9216 108.993 48.0291 109.35 48.2084C109.813 48.4234 110.133 48.6742 110.312 48.8893C110.49 49.1043 110.704 49.4269 110.704 49.7853Z" fill="black"/>
<path d="M118.077 48.6384C118.077 49.4985 117.863 50.1436 117.436 50.5737C117.009 51.0038 116.403 51.2547 115.654 51.2547C114.907 51.2547 114.266 51.0397 113.874 50.5737C113.482 50.1079 113.233 49.4627 113.233 48.6026C113.233 47.7424 113.446 47.0973 113.874 46.6673C114.301 46.2372 114.907 45.9863 115.691 45.9863C116.474 45.9863 117.079 46.2013 117.471 46.6673C117.863 47.1332 118.077 47.7783 118.077 48.6384ZM114.372 48.6384C114.372 49.2118 114.479 49.6419 114.693 49.9286C114.907 50.2154 115.227 50.3587 115.654 50.3587C116.51 50.3587 116.937 49.7853 116.937 48.6384C116.937 47.4915 116.51 46.9182 115.654 46.9182C115.227 46.9182 114.907 47.0615 114.693 47.3482C114.479 47.6349 114.372 48.065 114.372 48.6384Z" fill="black"/>
<path d="M122.066 51.1826H119.146V46.0576H122.066V46.9536H120.214V48.0646H121.924V48.9606H120.214V50.2867H122.066V51.1826Z" fill="black"/>
<path d="M127.267 46.0578V49.355C127.267 49.7492 127.196 50.0718 127.017 50.3585C126.84 50.6452 126.59 50.8602 126.305 51.0036C126.021 51.147 125.629 51.2186 125.165 51.2186C124.524 51.2186 123.99 51.0395 123.634 50.7169C123.278 50.3944 123.099 49.9284 123.099 49.3192V46.022H124.169V49.14C124.169 49.5342 124.239 49.8209 124.418 50.0001C124.596 50.1793 124.845 50.2868 125.202 50.2868C125.557 50.2868 125.807 50.1793 125.985 50.0001C126.163 49.8209 126.234 49.5342 126.234 49.14V46.022H127.267V46.0578Z" fill="black"/>
<path d="M131.4 46.0576H132.503L130.758 51.1826H129.583L127.873 46.0576H128.977L129.939 49.104C129.975 49.2832 130.045 49.4982 130.117 49.7491C130.189 49.9999 130.224 50.1433 130.224 50.2508C130.259 50.0358 130.331 49.6774 130.473 49.1398L131.4 46.0576Z" fill="black"/>
<path d="M134.213 49.2115V51.1826H133.145V46.0576H134.641C135.318 46.0576 135.852 46.201 136.172 46.4518C136.493 46.7027 136.671 47.0969 136.671 47.5988C136.671 47.8854 136.6 48.1721 136.422 48.3872C136.244 48.6022 136.03 48.8172 135.71 48.9248C136.458 50.0717 136.956 50.8243 137.205 51.1468H135.994L134.784 49.1757H134.213V49.2115ZM134.213 48.3514H134.569C134.926 48.3514 135.175 48.2796 135.318 48.1721C135.46 48.0646 135.567 47.8854 135.567 47.6345C135.567 47.3837 135.496 47.2045 135.318 47.1328C135.139 47.0612 134.891 46.9894 134.534 46.9894H134.213V48.3514Z" fill="black"/>
<path d="M140.768 51.1826H137.846V46.0576H140.768V46.9536H138.916V48.0646H140.626V48.9606H138.916V50.2867H140.768V51.1826Z" fill="black"/>
<path d="M143.261 49.7136V48.8535H145.114V49.7136H143.261Z" fill="black"/>
<path d="M150.813 49.7853C150.813 50.2511 150.635 50.6096 150.315 50.8605C149.994 51.1113 149.531 51.2547 148.925 51.2547C148.391 51.2547 147.892 51.1472 147.5 50.9321V49.9286C147.856 50.072 148.141 50.1795 148.355 50.2511C148.569 50.3229 148.819 50.3587 148.997 50.3587C149.246 50.3587 149.424 50.3229 149.531 50.2154C149.638 50.1079 149.709 50.0003 149.709 49.8211C149.709 49.7136 149.673 49.6419 149.638 49.5703C149.603 49.4985 149.495 49.4269 149.388 49.3552C149.281 49.2835 149.067 49.176 148.712 48.9968C148.391 48.8534 148.178 48.7101 147.999 48.5667C147.821 48.4234 147.714 48.28 147.643 48.1008C147.572 47.9216 147.5 47.7066 147.5 47.4558C147.5 46.9898 147.643 46.6314 147.964 46.3806C148.284 46.1297 148.676 45.9863 149.211 45.9863C149.459 45.9863 149.745 46.0221 149.958 46.0938C150.172 46.1655 150.457 46.2372 150.706 46.3447L150.35 47.2048C150.065 47.0973 149.851 47.0257 149.673 46.9539C149.495 46.8823 149.317 46.8823 149.139 46.8823C148.925 46.8823 148.783 46.9182 148.676 47.0257C148.569 47.1332 148.498 47.2407 148.498 47.384C148.498 47.4915 148.533 47.5633 148.569 47.6349C148.605 47.7066 148.676 47.7783 148.783 47.85C148.89 47.9216 149.104 48.0291 149.459 48.2084C149.923 48.4234 150.243 48.6742 150.422 48.8893C150.599 49.1043 150.813 49.4269 150.813 49.7853Z" fill="black"/>
<path d="M154.696 51.1826H151.775V46.0576H154.696V46.9536H152.844V48.0646H154.553V48.9606H152.844V50.2867H154.696V51.1826Z" fill="black"/>
<path d="M157.902 46.9182C157.51 46.9182 157.19 47.0615 156.976 47.384C156.762 47.7066 156.655 48.1009 156.655 48.6742C156.655 49.8211 157.083 50.3945 157.937 50.3945C158.294 50.3945 158.721 50.287 159.22 50.1079V51.0038C158.792 51.183 158.329 51.2547 157.83 51.2547C157.083 51.2547 156.512 51.0397 156.12 50.5737C155.728 50.1079 155.515 49.4627 155.515 48.6384C155.515 48.1009 155.622 47.6349 155.8 47.2407C155.978 46.8464 156.263 46.5239 156.619 46.3088C156.976 46.0938 157.403 45.9863 157.902 45.9863C158.401 45.9863 158.899 46.0938 159.397 46.3447L159.042 47.2407C158.863 47.1332 158.65 47.0615 158.471 46.9898C158.294 46.9182 158.079 46.9182 157.902 46.9182Z" fill="black"/>
<path d="M164.883 48.6384C164.883 49.4985 164.67 50.1436 164.242 50.5737C163.815 51.0038 163.209 51.2547 162.462 51.2547C161.713 51.2547 161.072 51.0397 160.68 50.5737C160.288 50.1079 160.039 49.4627 160.039 48.6026C160.039 47.7424 160.253 47.0973 160.68 46.6673C161.107 46.2372 161.713 45.9863 162.497 45.9863C163.281 45.9863 163.886 46.2013 164.278 46.6673C164.67 47.1332 164.883 47.7783 164.883 48.6384ZM161.179 48.6384C161.179 49.2118 161.286 49.6419 161.499 49.9286C161.713 50.2154 162.033 50.3587 162.462 50.3587C163.316 50.3587 163.743 49.7853 163.743 48.6384C163.743 47.4915 163.316 46.9182 162.462 46.9182C162.033 46.9182 161.713 47.0615 161.499 47.3482C161.286 47.6349 161.179 48.065 161.179 48.6384Z" fill="black"/>
<path d="M170.476 51.1826H169.123L166.914 47.312H166.879C166.914 47.993 166.949 48.4947 166.949 48.7815V51.1826H165.988V46.0576H167.341L169.55 49.8924H169.585C169.55 49.2115 169.55 48.7456 169.55 48.4947V46.0576H170.511V51.1826H170.476Z" fill="black"/>
<path d="M175.962 48.5664C175.962 49.4266 175.712 50.0717 175.25 50.5017C174.786 50.9317 174.074 51.1826 173.183 51.1826H171.759V46.0576H173.361C174.181 46.0576 174.822 46.2727 175.285 46.7027C175.749 47.1328 175.962 47.7779 175.962 48.5664ZM174.858 48.6022C174.858 47.4912 174.359 46.9536 173.398 46.9536H172.827V50.2867H173.291C174.324 50.2867 174.858 49.7491 174.858 48.6022Z" fill="black"/>
<path d="M183.478 48.6384C183.478 49.4985 183.264 50.1436 182.837 50.5737C182.41 51.0038 181.804 51.2547 181.056 51.2547C180.272 51.2547 179.667 51.0397 179.275 50.5737C178.883 50.1079 178.634 49.4627 178.634 48.6026C178.634 47.7424 178.847 47.0973 179.275 46.6673C179.702 46.2372 180.307 45.9863 181.091 45.9863C181.875 45.9863 182.48 46.2013 182.872 46.6673C183.264 47.1332 183.478 47.7783 183.478 48.6384ZM179.773 48.6384C179.773 49.2118 179.88 49.6419 180.094 49.9286C180.307 50.2154 180.628 50.3587 181.056 50.3587C181.911 50.3587 182.338 49.7853 182.338 48.6384C182.338 47.4915 181.911 46.9182 181.056 46.9182C180.628 46.9182 180.307 47.0615 180.094 47.3482C179.88 47.6349 179.773 48.065 179.773 48.6384Z" fill="black"/>
<path d="M187.467 51.1826H184.547V46.0576H187.467V46.9536H185.615V48.0646H187.325V48.9606H185.615V50.2867H187.467V51.1826Z" fill="black"/>
<path d="M192.668 46.0578V49.355C192.668 49.7492 192.597 50.0718 192.419 50.3585C192.241 50.6452 191.992 50.8602 191.707 51.0036C191.421 51.147 191.029 51.2186 190.567 51.2186C189.925 51.2186 189.391 51.0395 189.035 50.7169C188.678 50.3944 188.5 49.9284 188.5 49.3192V46.022H189.569V49.14C189.569 49.5342 189.641 49.8209 189.818 50.0001C189.997 50.1793 190.246 50.2868 190.602 50.2868C190.959 50.2868 191.208 50.1793 191.386 50.0001C191.564 49.8209 191.635 49.5342 191.635 49.14V46.022H192.668V46.0578Z" fill="black"/>
<path d="M196.801 46.0576H197.905L196.159 51.1826H194.984L193.274 46.0576H194.378L195.34 49.104C195.376 49.2832 195.446 49.4982 195.518 49.7491C195.589 49.9999 195.625 50.1433 195.625 50.2508C195.661 50.0358 195.732 49.6774 195.875 49.1398L196.801 46.0576Z" fill="black"/>
<path d="M199.614 49.2115V51.1826H198.546V46.0576H200.043C200.719 46.0576 201.253 46.201 201.574 46.4518C201.895 46.7027 202.072 47.0969 202.072 47.5988C202.072 47.8854 202.002 48.1721 201.823 48.3872C201.645 48.6022 201.431 48.8172 201.111 48.9248C201.858 50.0717 202.357 50.8243 202.607 51.1468H201.396L200.185 49.1757H199.614V49.2115ZM199.614 48.3514H199.971C200.327 48.3514 200.577 48.2796 200.719 48.1721C200.862 48.0646 200.969 47.8854 200.969 47.6345C200.969 47.3837 200.897 47.2045 200.719 47.1328C200.54 47.0612 200.291 46.9894 199.935 46.9894H199.614V48.3514Z" fill="black"/>
<path d="M206.169 51.1826H203.248V46.0576H206.169V46.9536H204.316V48.0646H206.026V48.9606H204.316V50.2867H206.169V51.1826Z" fill="black"/>
<path d="M208.663 49.7136V48.8535H210.515V49.7136H208.663Z" fill="black"/>
<path d="M216.143 51.1826H213.222V46.0576H216.143V46.9536H214.291V48.0646H216.001V48.9606H214.291V50.2867H216.143V51.1826Z" fill="black"/>
<path d="M219.171 51.1826H218.102V46.9536H216.713V46.0576H220.56V46.9536H219.171V51.1826Z" fill="black"/>
<path d="M224.442 51.1826L224.087 49.9642H222.234L221.878 51.1826H220.703L222.483 46.0576H223.801L225.618 51.1826H224.442ZM223.837 49.0681C223.481 47.9571 223.303 47.3478 223.267 47.2045C223.231 47.0612 223.196 46.9536 223.16 46.8461C223.089 47.1328 222.875 47.8854 222.519 49.0681H223.837Z" fill="black"/>
<path d="M230.783 51.1826H229.429L227.221 47.312H227.185C227.221 47.993 227.257 48.4947 227.257 48.7815V51.1826H226.294V46.0576H227.649L229.857 49.8924H229.893C229.857 49.2115 229.857 48.7456 229.857 48.4947V46.0576H230.819V51.1826H230.783Z" fill="black"/>
<path d="M234.203 46.9182C233.811 46.9182 233.491 47.0615 233.277 47.384C233.063 47.7066 232.957 48.1009 232.957 48.6742C232.957 49.8211 233.384 50.3945 234.238 50.3945C234.595 50.3945 235.022 50.287 235.521 50.1079V51.0038C235.093 51.183 234.63 51.2547 234.132 51.2547C233.384 51.2547 232.813 51.0397 232.421 50.5737C232.03 50.1079 231.816 49.4627 231.816 48.6384C231.816 48.1009 231.923 47.6349 232.101 47.2407C232.279 46.8464 232.565 46.5239 232.92 46.3088C233.277 46.0938 233.704 45.9863 234.203 45.9863C234.702 45.9863 235.201 46.0938 235.699 46.3447L235.343 47.2407C235.164 47.1332 234.951 47.0615 234.772 46.9898C234.595 46.9182 234.381 46.9182 234.203 46.9182Z" fill="black"/>
<path d="M240.757 51.1826H239.688V48.9606H237.658V51.1826H236.589V46.0576H237.658V48.0646H239.688V46.0576H240.757V51.1826Z" fill="black"/>
<path d="M244.96 51.1826H242.04V46.0576H244.96V46.9536H243.108V48.0646H244.818V48.9606H243.108V50.2867H244.96V51.1826Z" fill="black"/>
<path d="M246.029 51.1826V46.0576H247.098V51.1826H246.029Z" fill="black"/>
<path d="M250.34 51.1826H249.271V46.9536H247.882V46.0576H251.728V46.9536H250.34V51.1826Z" fill="black"/>
<path d="M255.434 51.1826H252.512V46.0576H255.434V46.9536H253.581V48.0646H255.291V48.9606H253.581V50.2867H255.434V51.1826Z" fill="black"/>
<path d="M27.5772 2L1 21.7516V45.2298L27.5772 62L56 45.2298V21.7516L27.5772 2Z" stroke="url(#paint4_linear)" stroke-width="2"/>
<path d="M3 21.1321L28 5V12.5283L3 24V21.1321Z" fill="url(#paint5_linear)"/>
<path d="M54 21.1321L28 5V12.5283L54 24V21.1321Z" fill="url(#paint6_linear)"/>
<path d="M3 26.1506L28 16V23.4794L3 29V26.1506Z" fill="url(#paint7_linear)"/>
<path d="M54 26.9315L28 16V23.9459L54 30V26.9315Z" fill="url(#paint8_linear)"/>
<path d="M3 31.675L28 28V35L3 33.95V31.675Z" fill="url(#paint9_linear)"/>
<path d="M54 30.6L45 30V34H54V30.6Z" fill="url(#paint10_linear)"/>
<path d="M40 29.75L28 28V35L40 34.3V29.75Z" fill="url(#paint11_linear)"/>
<path d="M3 36L27 39.4138V47L3 39.0345V36Z" fill="url(#paint12_linear)"/>
<path d="M54 36L46 37.2069V41L54 38.5862V36Z" fill="url(#paint13_linear)"/>
<path d="M54 41L45 43.7317L45.1915 48L54 43.7317V41Z" fill="url(#paint14_linear)"/>
<path d="M40 38L27 39.5V47L40 43.0625V38Z" fill="url(#paint15_linear)"/>
<path d="M3 41L27 50.766V58L3 43.7128V41Z" fill="url(#paint16_linear)"/>
<path d="M40 46L27 50.6154V58L40 51.1692V46Z" fill="url(#paint17_linear)"/>
<defs>
<linearGradient id="paint0_linear" x1="75.005" y1="35.2942" x2="75.005" y2="20.0555" gradientUnits="userSpaceOnUse">
<stop stop-color="#830208"/>
<stop offset="1" stop-color="#EF060D"/>
</linearGradient>
<linearGradient id="paint1_linear" x1="98.7336" y1="35.2942" x2="98.7336" y2="20.0555" gradientUnits="userSpaceOnUse">
<stop stop-color="#830208"/>
<stop offset="1" stop-color="#EF060D"/>
</linearGradient>
<linearGradient id="paint2_linear" x1="87.6265" y1="35.2943" x2="87.6265" y2="32.2465" gradientUnits="userSpaceOnUse">
<stop stop-color="#830208"/>
<stop offset="1" stop-color="#EF060D"/>
</linearGradient>
<linearGradient id="paint3_linear" x1="110.851" y1="35.2943" x2="110.851" y2="32.2465" gradientUnits="userSpaceOnUse">
<stop stop-color="#830208"/>
<stop offset="1" stop-color="#EF060D"/>
</linearGradient>
<linearGradient id="paint4_linear" x1="70.7651" y1="-16.2609" x2="-33.6771" y2="46.5803" gradientUnits="userSpaceOnUse">
<stop stop-color="#71040F"/>
<stop offset="1" stop-color="#FA0102"/>
</linearGradient>
<linearGradient id="paint5_linear" x1="-3.52986" y1="24" x2="27.4974" y2="8.13935" gradientUnits="userSpaceOnUse">
<stop offset="0.170281" stop-color="#870003"/>
<stop offset="1" stop-color="#F90101"/>
</linearGradient>
<linearGradient id="paint6_linear" x1="60.7911" y1="24" x2="29.0592" y2="7.13021" gradientUnits="userSpaceOnUse">
<stop offset="0.170281" stop-color="#870003"/>
<stop offset="1" stop-color="#F90101"/>
</linearGradient>
<linearGradient id="paint7_linear" x1="26.6941" y1="19.7397" x2="3.2651" y2="28.6301" gradientUnits="userSpaceOnUse">
<stop stop-color="#F20101"/>
<stop offset="1" stop-color="#870003"/>
</linearGradient>
<linearGradient id="paint8_linear" x1="29.3581" y1="20.0273" x2="53.9328" y2="29.0328" gradientUnits="userSpaceOnUse">
<stop stop-color="#F20101"/>
<stop offset="1" stop-color="#870003"/>
</linearGradient>
<linearGradient id="paint9_linear" x1="29.6791" y1="29.05" x2="1.12897" y2="35.7699" gradientUnits="userSpaceOnUse">
<stop stop-color="#F90101"/>
<stop offset="0.569823" stop-color="#AE0002"/>
<stop offset="0.860794" stop-color="#870003"/>
</linearGradient>
<linearGradient id="paint10_linear" x1="24.352" y1="28.4" x2="56.1703" y2="35.6821" gradientUnits="userSpaceOnUse">
<stop stop-color="#F90101"/>
<stop offset="0.569823" stop-color="#AE0002"/>
<stop offset="0.860794" stop-color="#870003"/>
</linearGradient>
<linearGradient id="paint11_linear" x1="26.1439" y1="29.05" x2="54.5624" y2="35.7044" gradientUnits="userSpaceOnUse">
<stop stop-color="#F90101"/>
<stop offset="0.569823" stop-color="#AE0002"/>
<stop offset="0.860794" stop-color="#870003"/>
</linearGradient>
<linearGradient id="paint12_linear" x1="28.8045" y1="40.5517" x2="0.892181" y2="46.4151" gradientUnits="userSpaceOnUse">
<stop stop-color="#F90101"/>
<stop offset="0.569823" stop-color="#AE0002"/>
<stop offset="0.860794" stop-color="#870003"/>
</linearGradient>
<linearGradient id="paint13_linear" x1="27.0734" y1="39.9655" x2="55.8139" y2="46.8953" gradientUnits="userSpaceOnUse">
<stop stop-color="#F90101"/>
<stop offset="0.569823" stop-color="#AE0002"/>
<stop offset="0.860794" stop-color="#870003"/>
</linearGradient>
<linearGradient id="paint14_linear" x1="24.352" y1="45.0976" x2="55.5915" y2="53.4729" gradientUnits="userSpaceOnUse">
<stop stop-color="#F90101"/>
<stop offset="0.569823" stop-color="#AE0002"/>
<stop offset="0.860794" stop-color="#870003"/>
</linearGradient>
<linearGradient id="paint15_linear" x1="25.175" y1="40.625" x2="55.926" y2="47.9057" gradientUnits="userSpaceOnUse">
<stop stop-color="#F90101"/>
<stop offset="0.569823" stop-color="#AE0002"/>
<stop offset="0.860794" stop-color="#870003"/>
</linearGradient>
<linearGradient id="paint16_linear" x1="28.8045" y1="51.8511" x2="1.00934" y2="57.9741" gradientUnits="userSpaceOnUse">
<stop stop-color="#F90101"/>
<stop offset="0.569823" stop-color="#AE0002"/>
<stop offset="0.860794" stop-color="#870003"/>
</linearGradient>
<linearGradient id="paint17_linear" x1="25.175" y1="51.7231" x2="55.8747" y2="59.1053" gradientUnits="userSpaceOnUse">
<stop stop-color="#F90101"/>
<stop offset="0.569823" stop-color="#AE0002"/>
<stop offset="0.860794" stop-color="#870003"/>
</linearGradient>
</defs>
</svg>
