<svg width="25" height="25" viewBox="0 0 25 25" fill="none" xmlns="http://www.w3.org/2000/svg">
<path d="M18.125 22.9165C13.8722 22.9109 9.79516 21.2191 6.78796 18.2119C3.78076 15.2047 2.08889 11.1276 2.08337 6.87479C2.08337 5.60396 2.58821 4.38519 3.48682 3.48657C4.38543 2.58796 5.60421 2.08313 6.87504 2.08313C7.14415 2.08108 7.4128 2.1055 7.67712 2.15604C7.93266 2.19386 8.18386 2.25666 8.42712 2.34354C8.59822 2.40357 8.75067 2.50722 8.86943 2.64424C8.98818 2.78126 9.0691 2.94691 9.10421 3.12479L10.5313 9.37479C10.5698 9.54444 10.5651 9.72102 10.5178 9.88842C10.4705 10.0558 10.382 10.2087 10.2605 10.3331C10.125 10.479 10.1146 10.4894 8.83337 11.156C9.85941 13.4069 11.6596 15.2145 13.9063 16.2498C14.5834 14.9581 14.5938 14.9477 14.7396 14.8123C14.864 14.6907 15.0169 14.6022 15.1843 14.5549C15.3517 14.5076 15.5283 14.503 15.698 14.5415L21.948 15.9685C22.1201 16.0085 22.2793 16.0916 22.4105 16.2101C22.5418 16.3285 22.6407 16.4784 22.698 16.6456C22.7859 16.8929 22.8521 17.1473 22.8959 17.406C22.9378 17.6678 22.9587 17.9326 22.9584 18.1977C22.9392 19.4631 22.4201 20.6695 21.5146 21.5536C20.6091 22.4377 19.3905 22.9276 18.125 22.9165Z" fill="#F90101" fill-opacity="0.5"/>
</svg>
