<svg width="21" height="21" viewBox="0 0 21 21" fill="none" xmlns="http://www.w3.org/2000/svg">
<path d="M16.1249 20.9165C11.8721 20.9109 7.79504 19.2191 4.78784 16.2119C1.78063 13.2047 0.0887644 9.12761 0.083252 4.87479C0.083252 3.60396 0.588087 2.38519 1.4867 1.48657C2.38531 0.587962 3.60409 0.0831269 4.87492 0.0831269C5.14402 0.0810771 5.41268 0.1055 5.677 0.156043C5.93253 0.193856 6.18374 0.256658 6.427 0.343544C6.59809 0.403574 6.75055 0.507224 6.8693 0.644244C6.98805 0.781263 7.06898 0.946907 7.10408 1.12479L8.53117 7.37479C8.56963 7.54444 8.565 7.72102 8.51769 7.88842C8.47038 8.05582 8.38191 8.20871 8.26033 8.33313C8.12492 8.47896 8.1145 8.48938 6.83325 9.15604C7.85929 11.4069 9.6595 13.2145 11.9062 14.2498C12.5833 12.9581 12.5937 12.9477 12.7395 12.8123C12.8639 12.6907 13.0168 12.6022 13.1842 12.5549C13.3516 12.5076 13.5282 12.503 13.6978 12.5415L19.9478 13.9685C20.12 14.0085 20.2792 14.0916 20.4104 14.2101C20.5416 14.3285 20.6405 14.4784 20.6978 14.6456C20.7858 14.8929 20.852 15.1473 20.8958 15.406C20.9377 15.6678 20.9586 15.9326 20.9583 16.1977C20.939 17.4631 20.42 18.6695 19.5145 19.5536C18.6089 20.4377 17.3904 20.9276 16.1249 20.9165Z" fill="#F90101" fill-opacity="0.63"/>
</svg>
