<svg width="25" height="25" viewBox="0 0 25 25" fill="none" xmlns="http://www.w3.org/2000/svg">
<path d="M22.4407 6.76859C22.9167 8.62484 22.9167 12.4998 22.9167 12.4998C22.9167 12.4998 22.9167 16.3748 22.4407 18.2311C22.1761 19.2571 21.4021 20.0644 20.4219 20.3373C18.6417 20.8332 12.5 20.8332 12.5 20.8332C12.5 20.8332 6.3615 20.8332 4.57817 20.3373C3.59379 20.0603 2.82087 19.254 2.55942 18.2311C2.08337 16.3748 2.08337 12.4998 2.08337 12.4998C2.08337 12.4998 2.08337 8.62484 2.55942 6.76859C2.824 5.74255 3.59796 4.93525 4.57817 4.66234C6.3615 4.1665 12.5 4.1665 12.5 4.1665C12.5 4.1665 18.6417 4.1665 20.4219 4.66234C21.4063 4.93942 22.1792 5.74567 22.4407 6.76859ZM10.4167 16.1457L16.6667 12.4998L10.4167 8.854V16.1457Z" fill="#F90101" fill-opacity="0.5"/>
</svg>
