<svg width="181" height="172" viewBox="0 0 181 172" fill="none" xmlns="http://www.w3.org/2000/svg">
<path d="M101.674 1.60557C110.029 -1.95052 119.863 0.553531 125.228 7.60293L127.332 10.3676C130.558 14.6071 135.534 17.3373 141.011 17.8726L144.582 18.2216C153.689 19.1117 160.888 25.9529 161.825 34.6067L162.192 38.0006C162.756 43.205 165.629 47.9339 170.09 50.9996L172.999 52.9989C180.418 58.0966 183.053 67.4418 179.31 75.3813L177.843 78.495C175.592 83.2698 175.592 88.7302 177.843 93.505L179.31 96.6187C183.053 104.558 180.418 113.903 172.999 119.001L170.09 121C165.629 124.066 162.756 128.795 162.192 133.999L161.825 137.393C160.888 146.047 153.689 152.888 144.582 153.778L141.011 154.127C135.534 154.663 130.558 157.393 127.332 161.632L125.228 164.397C119.863 171.446 110.029 173.951 101.674 170.394L98.3977 169C93.3731 166.861 87.6269 166.861 82.6023 169L79.3257 170.394C70.9708 173.951 61.1365 171.446 55.772 164.397L53.6682 161.632C50.442 157.393 45.4657 154.663 39.989 154.127L36.4175 153.778C27.3109 152.888 20.1117 146.047 19.1751 137.393L18.8078 133.999C18.2445 128.795 15.3714 124.066 10.9101 121L8.00075 119.001C0.582493 113.903 -2.05259 104.558 1.68959 96.6187L3.1572 93.505C5.40775 88.7302 5.40775 83.2698 3.15721 78.495L1.68959 75.3813C-2.05259 67.4418 0.582494 58.0966 8.00075 52.9989L10.9101 50.9996C15.3714 47.9339 18.2445 43.205 18.8078 38.0006L19.1751 34.6067C20.1117 25.9529 27.3109 19.1117 36.4175 18.2216L39.989 17.8726C45.4657 17.3373 50.442 14.6071 53.6682 10.3676L55.772 7.60293C61.1365 0.55353 70.9708 -1.95053 79.3257 1.60557L82.6023 3.00021C87.6269 5.13886 93.373 5.13886 98.3977 3.00022L101.674 1.60557Z" fill="white"/>
<path d="M99.7656 10.0388C107.72 6.62886 117.076 9.03496 122.172 15.7795L123.043 16.9314C126.28 21.2162 131.269 23.9697 136.752 24.5094L138.23 24.6548C146.903 25.5085 153.733 32.0653 154.621 40.3267L154.773 41.7408C155.339 47.009 158.226 51.7887 162.698 54.8841L163.902 55.7171C170.953 60.5968 173.445 69.528 169.897 77.1089L169.29 78.4063C167.029 83.237 167.029 88.763 169.29 93.5937L169.897 94.8911C173.445 102.472 170.953 111.403 163.902 116.283L162.698 117.116C158.226 120.211 155.339 124.991 154.773 130.259L154.621 131.673C153.733 139.935 146.903 146.491 138.23 147.345L136.752 147.491C131.269 148.03 126.28 150.784 123.043 155.069L122.172 156.22C117.076 162.965 107.72 165.371 99.7656 161.961L98.41 161.38C93.3771 159.223 87.6229 159.223 82.59 161.38L81.2344 161.961C73.2798 165.371 63.9237 162.965 58.8276 156.22L57.9572 155.069C54.7196 150.784 49.7311 148.03 44.2479 147.491L42.7704 147.345C34.0974 146.491 27.2672 139.935 26.3794 131.673L26.2274 130.259C25.6612 124.991 22.7743 120.211 18.3018 117.116L17.0982 116.283C10.0474 111.403 7.55504 102.472 11.1029 94.8911L11.7101 93.5937C13.9709 88.763 13.9709 83.237 11.7101 78.4063L11.1029 77.1089C7.55504 69.528 10.0474 60.5968 17.0982 55.7171L18.3018 54.8841C22.7743 51.7887 25.6612 47.009 26.2274 41.7408L26.3794 40.3267C27.2672 32.0652 34.0974 25.5085 42.7704 24.6548L44.248 24.5094C49.7311 23.9697 54.7196 21.2162 57.9572 16.9314L58.8276 15.7795C63.9237 9.03495 73.2798 6.62887 81.2344 10.0388L82.59 10.6199C87.6229 12.7773 93.3771 12.7773 98.41 10.6199L99.7656 10.0388Z" stroke="#FA7846"/>
</svg>
