<svg width="113" height="94" viewBox="0 0 113 94" fill="none" xmlns="http://www.w3.org/2000/svg">
<path d="M108.612 93.3169C108.787 93.5308 109.102 93.5624 109.316 93.3877L112.8 90.5402C113.014 90.3654 113.046 90.0504 112.871 89.8366C112.696 89.6228 112.381 89.5911 112.167 89.7658L109.07 92.297L106.539 89.1997C106.364 88.9859 106.049 88.9542 105.835 89.1289C105.622 89.3037 105.59 89.6187 105.765 89.8325L108.612 93.3169ZM14.6274 0.165742C1.29704 15.0052 -2.82042 32.3046 3.67633 45.5943C10.1787 58.8953 27.1835 67.9204 55.5261 66.4992L55.476 65.5005C27.3194 66.9123 10.8234 57.9373 4.57473 45.1551C-1.67955 32.3614 2.20174 15.4945 15.3713 0.834011L14.6274 0.165742ZM55.5261 66.4992C83.7003 65.0866 96.8937 71.8257 103.064 78.77C106.153 82.2471 107.51 85.8055 108.097 88.49C108.39 89.833 108.491 90.957 108.518 91.7416C108.532 92.1338 108.527 92.4408 108.52 92.6474C108.516 92.7507 108.511 92.8289 108.508 92.8801C108.506 92.9056 108.504 92.9245 108.503 92.9363C108.503 92.9422 108.502 92.9464 108.502 92.9487C108.502 92.9499 108.502 92.9507 108.502 92.951C108.502 92.9511 108.502 92.951 108.502 92.9511C108.502 92.9509 108.502 92.9505 108.999 93.0006C109.497 93.0506 109.497 93.05 109.497 93.0493C109.497 93.049 109.497 93.0482 109.497 93.0474C109.497 93.0459 109.498 93.0439 109.498 93.0415C109.498 93.0367 109.499 93.03 109.5 93.0216C109.501 93.0048 109.503 92.9808 109.505 92.95C109.509 92.8885 109.515 92.7995 109.519 92.685C109.528 92.456 109.532 92.1248 109.518 91.7067C109.489 90.8708 109.382 89.6863 109.074 88.2766C108.458 85.4558 107.034 81.7329 103.811 78.1058C97.3568 70.8414 83.8011 64.0802 55.476 65.5005L55.5261 66.4992Z" fill="#FA7846"/>
</svg>
