<svg width="77" height="53" viewBox="0 0 77 53" fill="none" xmlns="http://www.w3.org/2000/svg">
<path d="M1.41911 52.4556C1.49265 52.5724 1.64699 52.6075 1.76385 52.534L3.6682 51.3357C3.78506 51.2622 3.82018 51.1078 3.74665 50.9909C3.67311 50.8741 3.51877 50.839 3.40191 50.9125L1.70916 51.9777L0.643985 50.2849C0.57045 50.1681 0.416105 50.1329 0.299244 50.2065C0.182384 50.28 0.147262 50.4344 0.220797 50.5512L1.41911 52.4556ZM37.4998 34L37.5737 33.7611L37.4998 34ZM76.5508 1.75563C66.2661 -0.376557 59.9277 0.957656 55.9076 4.13226C51.8958 7.30027 50.257 12.2536 49.2551 17.2006C48.7545 19.6724 48.4078 22.1734 48.0116 24.4474C47.6134 26.7332 47.1641 28.7979 46.4578 30.4486C45.7526 32.0964 44.8037 33.3027 43.4223 33.9139C42.038 34.5265 40.1684 34.5642 37.5737 33.7611L37.4259 34.2388C40.0813 35.0607 42.0869 35.0516 43.6246 34.3712C45.1651 33.6895 46.1851 32.3567 46.9174 30.6453C47.6486 28.9366 48.1056 26.8217 48.5042 24.5333C48.9049 22.2332 49.2458 19.7655 49.7451 17.2998C50.7432 12.3719 52.3543 7.57533 56.2175 4.52467C60.0723 1.48061 66.2338 0.127384 76.4493 2.24522L76.5508 1.75563ZM37.5737 33.7611C30.1333 31.4582 24.1408 31.4521 19.3364 32.7547C14.5322 34.0572 10.9347 36.6633 8.276 39.5547C5.6187 42.4446 3.89772 45.6207 2.84121 48.0716C2.3127 49.2977 1.94974 50.3439 1.71867 51.0847C1.60311 51.4552 1.52049 51.7493 1.46661 51.9516C1.43967 52.0527 1.41991 52.1308 1.40681 52.1841C1.40026 52.2107 1.39537 52.231 1.39208 52.2449C1.39043 52.2519 1.38919 52.2572 1.38834 52.2609C1.38791 52.2627 1.38758 52.2642 1.38735 52.2652C1.38723 52.2657 1.38713 52.2661 1.38707 52.2664C1.38699 52.2667 1.38694 52.2669 1.63071 52.3224C1.87448 52.3779 1.87447 52.3779 1.87449 52.3778C1.87453 52.3777 1.87457 52.3775 1.87464 52.3772C1.8748 52.3765 1.87504 52.3754 1.87539 52.3739C1.87608 52.371 1.87716 52.3663 1.87863 52.3601C1.88158 52.3477 1.88612 52.3287 1.8923 52.3036C1.90468 52.2534 1.92366 52.1783 1.94976 52.0803C2.00197 51.8844 2.08266 51.5969 2.19598 51.2336C2.42266 50.5069 2.77975 49.4773 3.30037 48.2695C4.34214 45.8528 6.03582 42.7297 8.64405 39.8932C11.2509 37.0582 14.7698 34.5108 19.4673 33.2372C24.1647 31.9637 30.0594 31.9587 37.4259 34.2388L37.5737 33.7611Z" fill="#FA7846"/>
</svg>
