<svg width="216" height="50" viewBox="0 0 216 50" fill="none" xmlns="http://www.w3.org/2000/svg">
<path d="M215.5 1.62123C215.51 1.34526 215.294 1.11353 215.018 1.10364L210.521 0.942524C210.245 0.932636 210.013 1.14834 210.003 1.4243C209.993 1.70027 210.209 1.932 210.485 1.94188L214.482 2.0851L214.339 6.08254C214.329 6.3585 214.545 6.59023 214.821 6.60012C215.097 6.61001 215.329 6.39431 215.339 6.11834L215.5 1.62123ZM0.502001 1.64802C1.06642 7.9372 2.59113 12.1107 4.96053 14.6464C7.35264 17.2064 10.5286 18.018 14.1848 17.7587C17.824 17.5007 21.9943 16.1799 26.4675 14.4173C30.9375 12.6559 35.7864 10.4208 40.7386 8.32561C50.6977 4.11208 61.1543 0.43175 70.6204 1.78456C80.009 3.12629 88.5507 9.44715 94.6317 25.5806L95.5675 25.2279C89.3985 8.86129 80.6133 2.20249 70.7619 0.794619C60.9881 -0.602174 50.2918 3.19795 40.349 7.40465C35.3502 9.51955 30.561 11.7295 26.1009 13.4869C21.6442 15.243 17.5928 16.5146 14.1141 16.7612C10.6523 17.0067 7.81405 16.2355 5.69118 13.9637C3.5456 11.6675 2.05457 7.76035 1.498 1.55863L0.502001 1.64802ZM94.6317 25.5806C97.72 33.7739 101.94 39.58 106.982 43.4406C112.025 47.3024 117.86 49.1929 124.137 49.6061C136.666 50.4309 150.989 45.3717 164.469 38.3218C177.963 31.2645 190.68 22.1755 200.019 14.8564C204.69 11.1958 208.519 7.97556 211.18 5.66995C212.511 4.51711 213.55 3.5928 214.257 2.9563C214.611 2.63805 214.881 2.39174 215.063 2.22477C215.154 2.14129 215.224 2.07764 215.27 2.03476C215.293 2.01331 215.311 1.99706 215.323 1.98612C215.328 1.98064 215.333 1.9765 215.336 1.97369C215.337 1.97229 215.339 1.97119 215.339 1.97049C215.34 1.96973 215.341 1.96931 215 1.60332C214.659 1.23734 214.659 1.2376 214.658 1.23819C214.658 1.23884 214.657 1.23977 214.655 1.24106C214.653 1.24364 214.648 1.24757 214.643 1.25282C214.631 1.26332 214.614 1.27913 214.592 1.30012C214.546 1.3421 214.478 1.40483 214.388 1.48739C214.208 1.65249 213.939 1.89688 213.588 2.21316C212.886 2.84571 211.851 3.76577 210.526 4.91411C207.874 7.2109 204.058 10.4204 199.402 14.0693C190.088 21.3691 177.424 30.4178 164.006 37.4357C150.573 44.4611 136.452 49.4146 124.203 48.6083C118.09 48.2059 112.453 46.37 107.59 42.6466C102.725 38.9221 98.6042 33.2846 95.5675 25.2279L94.6317 25.5806Z" fill="#FA7846"/>
</svg>
