<svg width="140" height="35" viewBox="0 0 140 35" fill="none" xmlns="http://www.w3.org/2000/svg">
<path d="M138.999 0.974109C138.985 0.698337 138.75 0.486372 138.474 0.500671L133.98 0.733691C133.704 0.74799 133.492 0.98314 133.507 1.25891C133.521 1.53468 133.756 1.74665 134.032 1.73235L138.027 1.52522L138.234 5.51985C138.248 5.79563 138.483 6.00759 138.759 5.99329C139.035 5.97899 139.247 5.74384 139.232 5.46807L138.999 0.974109ZM0.667345 6.87328C19.1055 23.3045 36.9732 31.1962 53.4149 33.7674C69.8538 36.3382 84.833 33.5852 97.49 28.7799C110.145 23.9756 120.486 17.117 127.661 11.463C131.25 8.63532 134.049 6.10692 135.952 4.28396C136.904 3.37242 137.632 2.63708 138.123 2.12869C138.368 1.87448 138.555 1.677 138.68 1.54257C138.743 1.47535 138.79 1.4239 138.822 1.38901C138.838 1.37156 138.85 1.35825 138.858 1.34918C138.862 1.34464 138.866 1.34116 138.868 1.33876C138.869 1.33756 138.87 1.33656 138.87 1.33596C138.871 1.33523 138.871 1.33477 138.5 1C138.129 0.665229 138.129 0.665312 138.128 0.665666C138.128 0.666143 138.127 0.666765 138.126 0.667717C138.125 0.669621 138.122 0.672595 138.118 0.676627C138.111 0.684691 138.1 0.696987 138.085 0.713415C138.055 0.746271 138.009 0.795657 137.948 0.860782C137.827 0.991034 137.645 1.18423 137.404 1.43406C136.921 1.93372 136.202 2.65981 135.261 3.56175C133.377 5.36574 130.602 7.87249 127.042 10.6776C119.921 16.2892 109.668 23.0869 97.135 27.8451C84.6045 32.6023 69.8025 35.318 53.5694 32.7794C37.3393 30.2413 19.6445 22.4455 1.33265 6.12672L0.667345 6.87328Z" fill="#FA7846"/>
</svg>
