<svg width="68" height="69" viewBox="0 0 68 69" fill="none" xmlns="http://www.w3.org/2000/svg">
<path d="M31.5163 0.202156C30.7327 0.53907 26.9475 3.46349 25.5796 4.75723C25.0085 5.30977 24.9554 5.79493 25.4335 6.26661C26.0046 6.85958 26.3366 6.73829 28.0897 5.25587C29.9757 3.65216 31.9546 2.18321 32.3796 2.0754C32.8577 1.94064 33.0303 2.22364 33.1897 3.36915C33.5218 5.60626 34.385 7.8838 35.5936 9.71661C36.3507 10.8486 38.7014 13.207 40.0428 14.1774C40.6272 14.5951 42.4202 15.7945 44.0272 16.8457C45.6343 17.8969 47.3741 19.0828 47.8921 19.4736C51.7171 22.3846 53.5233 25.6459 53.7491 30.0527C53.8288 31.6565 53.7092 33.9609 53.5366 33.9609C53.4835 33.9609 53.0983 33.4623 52.6866 32.8424C52.2749 32.2359 51.4382 31.1578 50.8272 30.457C49.8046 29.2846 49.6983 29.0959 49.4991 28.2334C48.8616 25.5785 47.4405 23.9344 43.496 21.3199C38.4093 17.9373 37.5061 17.3039 36.4303 16.401C34.7436 14.9725 33.0702 13.1262 32.1538 11.6842C31.0382 9.94571 30.8522 9.73009 30.3608 9.58184C29.4975 9.35274 29.2452 9.50098 27.3593 11.4416C24.7827 14.083 23.0694 16.3066 21.5421 19.002C19.8288 22.0207 18.66 25.4842 18.3679 28.3412C18.2882 29.1498 18.2616 29.2037 17.1725 30.457C16.5616 31.1578 15.7249 32.2359 15.3132 32.8424C14.9015 33.4623 14.5163 33.9609 14.4765 33.9609C14.3304 33.9609 14.2108 32.4785 14.2108 30.8479C14.2108 23.6649 17.478 16.1854 23.4679 9.67618C24.0389 9.05626 24.1718 8.82716 24.1718 8.43634C24.1718 7.87032 23.76 7.41212 23.2288 7.41212C22.4452 7.41212 18.8858 11.7381 16.8007 15.2285C12.8429 21.832 11.289 29.7428 12.7499 35.9555L12.989 36.9932L12.4843 38.543C10.8374 43.5428 10.9171 49.1895 12.6835 53.9197C14.8616 59.6877 18.8725 64.1215 24.3311 66.7764C27.4257 68.2723 30.2944 68.9191 33.9999 68.9191C37.0811 68.9326 39.2991 68.5553 41.9022 67.558C43.9077 66.8033 46.9491 65.0649 47.9983 64.0811C48.4764 63.6363 48.4764 62.9221 47.9983 62.5447C47.5069 62.1539 47.2811 62.1809 46.471 62.7604C44.7842 63.9463 44.346 64.2024 42.9647 64.8897C36.8288 67.9084 29.3647 67.5984 23.5343 64.0811C21.8874 63.0838 20.7718 62.1943 19.2577 60.6445C16.4288 57.7875 14.5694 54.2701 13.653 50.0385C13.414 48.9199 13.3608 48.2865 13.3608 45.9551C13.3608 42.8285 13.5468 41.6156 14.4233 39.0686C15.4991 35.9285 16.9733 33.5566 19.3772 31.1309C22.4186 28.0447 25.646 26.2523 29.8429 25.309C30.9585 25.0529 31.5429 25.0125 33.9999 25.0125C36.4569 25.0125 37.0413 25.0529 38.1569 25.309C42.3538 26.2523 45.5811 28.0447 48.6225 31.1309C51.0264 33.5566 52.5007 35.9285 53.5764 39.0686C54.4397 41.5752 54.6389 42.842 54.6389 45.8877C54.6389 48.2865 54.5991 48.7582 54.2936 50.2002C53.5764 53.5693 52.0889 56.7363 50.0038 59.2969C49.2733 60.1863 49.1671 60.5232 49.4592 60.9949C49.7249 61.3992 50.1233 61.5609 50.5749 61.4801C51.1858 61.3588 53.1382 58.5961 54.3069 56.2107C56.0733 52.626 56.8171 49.0951 56.671 45.0791C56.5913 42.6938 56.246 40.7531 55.5155 38.543L55.0108 36.9932L55.2499 35.9555C55.8342 33.4354 55.9272 29.7293 55.4491 27.4248C54.7983 24.2982 53.6561 22.1959 51.2788 19.8106C49.7382 18.2607 48.3835 17.25 44.4257 14.6895C38.1038 10.6061 36.0585 8.07247 35.1952 3.23438C35.0624 2.42579 34.8499 1.59024 34.7436 1.38809C34.1593 0.242584 32.6585 -0.309952 31.5163 0.202156ZM30.5866 12.9645C32.4858 15.7945 34.9561 18.099 38.7546 20.5922C43.5624 23.7592 44.5983 24.4869 45.5014 25.3629C46.046 25.902 46.5639 26.441 46.6436 26.5893C46.7897 26.8857 46.8428 26.9127 45.7007 26.1715C43.9077 25.0125 40.9858 23.867 38.3827 23.2875C37.1608 23.0315 36.6163 22.991 33.9999 22.991C31.3835 22.991 30.8389 23.0315 29.6171 23.2875C26.7483 23.9209 23.9858 25.0529 21.8343 26.4815C21.1968 26.8992 20.6522 27.2092 20.6124 27.1688C20.4929 27.0475 21.1171 24.8104 21.6749 23.3818C22.6577 20.8483 24.0788 18.4225 26.1374 15.8215C27.2132 14.4469 29.5639 11.8594 29.7366 11.8594C29.7897 11.8594 30.1749 12.358 30.5866 12.9645Z" fill="#FA7846"/>
<path d="M18.5537 2.69533C17.7303 3.35568 17.4912 5.57931 18.0756 7.07521C18.4342 7.97814 18.8592 8.31505 19.4303 8.16681C19.6295 8.12638 19.8818 7.92423 20.0146 7.73556C20.2006 7.4256 20.2138 7.30431 20.0678 6.83263C19.656 5.41759 19.6295 5.08068 19.8553 4.44728C20.2537 3.38263 20.2537 3.15353 19.8818 2.77619C19.4701 2.35841 19.0185 2.33146 18.5537 2.69533Z" fill="#FA7846"/>
<path d="M40.5075 4.3125C40.1489 4.67637 40.1489 5.5793 40.5208 6.18575C40.7466 6.56309 40.7864 6.77872 40.7068 7.19649C40.4677 8.61153 40.4677 8.58458 40.7599 8.88106C41.1185 9.24493 41.8489 9.2584 42.1544 8.90801C42.8185 8.1668 42.938 6.65743 42.4333 5.55235C42.2474 5.14805 42.1013 4.74375 42.1013 4.64942C42.1013 4.37989 41.57 4.04297 41.145 4.04297C40.9325 4.04297 40.6536 4.16426 40.5075 4.3125Z" fill="#FA7846"/>
<path d="M49.778 6.94044C49.4991 7.10215 49.3928 7.3043 49.2733 7.89727C49.0741 8.86758 49.1936 9.68966 49.7647 11.3742C50.3092 12.9645 50.3092 13.5844 49.7381 14.959C49.4061 15.7676 49.3928 15.8484 49.5787 16.2527C49.8444 16.8053 50.4553 16.9805 50.9467 16.6436C51.385 16.3471 51.8897 15.2016 52.0756 14.0291C52.2616 12.9106 52.1022 11.792 51.571 10.4982C51.292 9.81094 51.2256 9.40665 51.2124 8.46329C51.1991 7.19649 51.0928 6.95391 50.4686 6.81915C50.2827 6.77872 49.9772 6.83262 49.778 6.94044Z" fill="#FA7846"/>
<path d="M12.4577 11.3338C11.8601 11.6842 11.8601 13.234 12.4444 14.8242C12.803 15.7811 12.7898 16.5088 12.4179 17.25C12.1257 17.816 12.1655 18.3686 12.5241 18.7055C13.1882 19.3389 13.9054 18.9885 14.3569 17.816C14.7952 16.684 14.7687 15.3229 14.3038 13.9887C14.1046 13.4227 13.9452 12.7489 13.9452 12.4928C13.9452 11.8324 13.839 11.6033 13.4007 11.3877C12.9624 11.1586 12.7765 11.1451 12.4577 11.3338Z" fill="#FA7846"/>
<path d="M32.0739 28.5838C25.4067 29.325 19.6427 34.1362 17.6106 40.6319C17.0661 42.3838 16.8403 43.9606 16.8403 45.9551C16.8536 49.5668 17.77 52.6395 19.7622 55.7256C20.5591 56.9655 23.0427 59.4856 24.3442 60.3616C27.3192 62.383 30.427 63.3399 33.9997 63.3399C38.5552 63.3399 42.5263 61.7362 45.7934 58.5692C47.3075 57.1002 48.3833 55.6582 49.2598 53.9198C50.6012 51.2649 51.1458 48.9469 51.1591 45.8877C51.1591 41.1709 49.4192 36.9258 46.0856 33.5567C44.0669 31.5082 41.5036 29.9584 38.8606 29.1768C37.5989 28.8129 37.3333 28.8264 36.9216 29.2846C36.2708 29.9719 36.7888 30.6996 38.2497 31.1309C42.3669 32.3438 45.6606 35.1469 47.613 39.0821C48.702 41.2787 49.1669 43.3541 49.1669 45.9551C49.1536 53.0707 44.5981 58.9869 37.6255 60.941C36.7356 61.1836 36.2309 61.2375 34.0661 61.2375C31.2505 61.251 30.4005 61.0893 28.1825 60.1729C25.0083 58.8657 21.9802 56.0086 20.413 52.8686C18.6466 49.3377 18.3278 44.7422 19.5895 40.9822C20.4528 38.3947 22.2856 35.7129 24.3708 34.0149C26.8278 31.9934 29.4309 30.9018 32.5919 30.5783C34.2255 30.4031 34.6638 30.1875 34.6638 29.5002C34.6638 28.5973 33.9997 28.3547 32.0739 28.5838Z" fill="#1E2533"/>
<path d="M33.3356 33.2602C33.0966 33.4488 33.0434 33.651 33.0301 34.217C33.0169 34.8504 33.07 34.9852 33.3887 35.2547C33.588 35.4299 33.8669 35.5781 33.9997 35.5781C34.1325 35.5781 34.4114 35.4299 34.6106 35.2547C34.9294 34.9852 34.9825 34.8504 34.9692 34.217C34.9559 33.4084 34.6505 33.0176 33.9997 33.0176C33.8005 33.0176 33.495 33.1254 33.3356 33.2602Z" fill="#1E2533"/>
<path d="M24.9687 36.791C24.557 37.2088 24.6234 37.7883 25.1414 38.3678C25.7125 39.0012 26.3101 39.0416 26.7883 38.4891C27.2133 37.9904 27.1734 37.6939 26.6156 37.0605C26.0578 36.4272 25.4203 36.3328 24.9687 36.791Z" fill="#1E2533"/>
<path d="M41.3845 37.0606C40.8267 37.6939 40.7868 37.9904 41.2118 38.4891C41.69 39.0416 42.2876 39.0012 42.8587 38.3678C43.6157 37.5188 43.3235 36.5215 42.3142 36.5215C41.9556 36.5215 41.7696 36.6293 41.3845 37.0606Z" fill="#1E2533"/>
<path d="M33.3227 38.6643L33.0039 38.9203V42.6533V46.3863L33.3227 46.6424C33.6016 46.8715 33.8672 46.8984 35.7266 46.8984C37.6523 46.8984 37.825 46.8715 38.0508 46.6289C38.4226 46.2111 38.3695 45.5643 37.9312 45.1869C37.6125 44.9039 37.4398 44.877 36.3242 44.877H35.0891L35.0359 41.8986C34.9961 38.9607 34.9961 38.9203 34.6773 38.6643C34.2789 38.3408 33.7211 38.3408 33.3227 38.6643Z" fill="#1E2533"/>
<path d="M21.8209 45.0117C21.2365 45.2543 21.0638 46.1707 21.5154 46.6289C21.7146 46.8311 21.9537 46.8984 22.4982 46.8984C23.1224 46.8984 23.2552 46.8445 23.4943 46.548C23.9459 45.9686 23.8396 45.3891 23.2287 45.0791C22.817 44.85 22.2591 44.8365 21.8209 45.0117Z" fill="#1E2533"/>
<path d="M44.8239 45.0252C44.1731 45.4025 44.0536 45.9686 44.5052 46.548C44.7442 46.8445 44.877 46.8984 45.5013 46.8984C46.0458 46.8984 46.2849 46.8311 46.4841 46.6289C46.8161 46.292 46.8294 45.6721 46.5106 45.2813C46.2317 44.9309 45.2356 44.7826 44.8239 45.0252Z" fill="#1E2533"/>
<path d="M25.2344 53.4481C24.5969 54.041 24.5172 54.6205 25.0086 55.0922C25.4336 55.4965 25.9383 55.4695 26.4828 54.9844C27.0407 54.4857 27.1602 54.0275 26.9078 53.5154C26.536 52.8012 25.9649 52.7742 25.2344 53.4481Z" fill="#1E2533"/>
<path d="M41.2913 53.219C40.7866 53.6233 40.8663 54.3645 41.4772 54.9305C42.0616 55.483 42.5928 55.5235 43.0046 55.0787C43.4694 54.5801 43.3897 54.0276 42.7655 53.4481C42.1678 52.909 41.7561 52.8416 41.2913 53.219Z" fill="#1E2533"/>
<path d="M33.442 56.4803C32.778 56.8711 32.9241 58.5557 33.6412 58.8117C34.2123 59.0274 34.7037 58.7713 34.903 58.1649C35.2881 56.9385 34.3983 55.9008 33.442 56.4803Z" fill="#1E2533"/>
</svg>
