<svg width="189" height="183" viewBox="0 0 189 183" fill="none" xmlns="http://www.w3.org/2000/svg">
<path d="M106.168 1.70826C114.892 -2.07527 125.161 0.588931 130.763 8.08916L132.96 11.0306C136.328 15.5413 141.525 18.4461 147.244 19.0156L150.973 19.387C160.482 20.3339 167.999 27.6127 168.977 36.8199L169.361 40.4309C169.949 45.9681 172.949 50.9994 177.608 54.2612L180.646 56.3883C188.392 61.8121 191.143 71.755 187.236 80.2022L185.703 83.515C183.353 88.5952 183.353 94.4048 185.703 99.485L187.236 102.798C191.143 111.245 188.392 121.188 180.646 126.612L177.608 128.739C172.949 132.001 169.949 137.032 169.361 142.569L168.977 146.18C167.999 155.387 160.482 162.666 150.973 163.613L147.244 163.984C141.525 164.554 136.328 167.459 132.96 171.969L130.763 174.911C125.161 182.411 114.892 185.075 106.168 181.292L102.747 179.808C97.5001 177.533 91.5 177.533 86.2532 179.808L82.8318 181.292C74.1076 185.075 63.8387 182.411 58.2371 174.911L56.0403 171.969C52.6715 167.459 47.4753 164.554 41.7565 163.984L38.0271 163.613C28.518 162.666 21.0006 155.387 20.0226 146.18L19.6391 142.569C19.0509 137.032 16.0508 132.001 11.3923 128.739L8.35438 126.612C0.608239 121.188 -2.14331 111.245 1.76426 102.798L3.29675 99.485C5.64677 94.4048 5.64677 88.5952 3.29675 83.515L1.76427 80.2022C-2.14331 71.755 0.60824 61.812 8.35438 56.3883L11.3923 54.2612C16.0508 50.9994 19.0509 45.9681 19.639 40.4309L20.0226 36.8199C21.0006 27.6127 28.518 20.334 38.0271 19.387L41.7565 19.0156C47.4753 18.4461 52.6715 15.5413 56.0403 11.0306L58.2371 8.08916C63.8387 0.588931 74.1076 -2.07527 82.8318 1.70826L86.2532 3.19209C91.4999 5.4675 97.5 5.46751 102.747 3.19209L106.168 1.70826Z" fill="white"/>
<path d="M15.332 125.848L14.9024 126.463L15.332 125.848L14.0103 124.924C6.34478 119.567 3.63583 109.762 7.49252 101.44L8.15929 100.002C10.6657 94.5933 10.6656 88.4067 8.15929 82.9985L7.49252 81.5597C3.63583 73.2378 6.34479 63.4332 14.0103 58.0758L15.332 57.152C20.29 53.6869 23.4906 48.3359 24.1183 42.4378L24.2852 40.8696C25.2502 31.8009 32.6751 24.6017 42.1057 23.6643L43.7283 23.503C49.806 22.8988 55.3361 19.8167 58.9252 15.0198L59.8811 13.7423C65.4213 6.33779 75.5939 3.69534 84.2433 7.43959L85.732 8.084C91.3109 10.4991 97.6891 10.4991 103.268 8.084L104.757 7.43958C113.406 3.69534 123.579 6.3378 129.119 13.7423L130.075 15.0198C133.664 19.8167 139.194 22.8988 145.272 23.503L146.894 23.6643C156.325 24.6017 163.75 31.8009 164.715 40.8696L164.882 42.4378C165.509 48.3359 168.71 53.6869 173.668 57.1521L174.99 58.0758C182.655 63.4333 185.364 73.2378 181.507 81.5597L180.841 82.9985C178.334 88.4066 178.334 94.5933 180.841 100.002L181.507 101.44C185.364 109.762 182.655 119.567 174.99 124.924L173.668 125.848C168.71 129.313 165.509 134.664 164.882 140.562L164.715 142.13C163.75 151.199 156.325 158.398 146.894 159.336L145.272 159.497C139.194 160.101 133.664 163.183 130.075 167.98L129.119 169.258C123.579 176.662 113.406 179.305 104.757 175.56L103.268 174.916C97.6891 172.501 91.3109 172.501 85.7319 174.916L84.2433 175.56C75.5939 179.305 65.4213 176.662 59.8811 169.258L59.2805 169.707L59.8811 169.258L58.9252 167.98C55.3361 163.183 49.806 160.101 43.7283 159.497L42.1057 159.336C32.6751 158.398 25.2502 151.199 24.2852 142.13L24.1183 140.562C23.4906 134.664 20.29 129.313 15.332 125.848Z" stroke="#FBF2EA" stroke-width="1.5"/>
</svg>
