<svg width="20" height="20" viewBox="0 0 20 20" fill="none" xmlns="http://www.w3.org/2000/svg">
<path d="M1.25003 4.34375C1.90628 4.34375 2.90628 4.34375 3.46878 4.34375C3.75003 4.34375 3.96878 4.53125 4.06253 4.78125C4.34378 5.59375 4.96878 7.375 5.68753 8.59375C6.65628 10.1875 7.28128 10.7813 7.68753 10.7188C8.09378 10.625 7.96878 9.5625 7.96878 8.71875C7.96878 7.875 8.06253 6.4375 7.65628 5.78125L7.03128 4.875C6.87503 4.65625 7.03128 4.375 7.28128 4.375H10.8438C11.1875 4.375 11.4688 4.65625 11.4688 5V9.53125C11.4688 9.53125 11.625 10.3438 12.5 9.5C13.375 8.65625 14.3125 7.09375 15.0938 5.5L15.4063 4.75C15.5 4.53125 15.7188 4.375 15.9688 4.375H18.2813C18.7188 4.375 19.0313 4.8125 18.875 5.21875L18.625 5.875C18.625 5.875 17.7813 7.5625 16.9063 8.75C16.0313 9.96875 15.8438 10.25 15.9688 10.5625C16.0938 10.875 18.3438 12.9688 18.9063 13.9688C19.0625 14.25 19.1875 14.5 19.3125 14.7188C19.5313 15.125 19.2188 15.6562 18.75 15.6562H16.125C15.9063 15.6562 15.6875 15.5312 15.5938 15.3438L15.3438 14.9375C15.3438 14.9375 13.75 13.0625 12.7813 12.4688C11.7813 11.9063 11.8125 12.7188 11.8125 12.7188V14.375C11.8125 15.0625 11.25 15.625 10.5625 15.625H9.93753C9.93753 15.625 6.50003 15.625 3.75003 11.5313C1.59378 8.34375 0.875028 6.28125 0.625028 5.09375C0.562528 4.71875 0.843778 4.34375 1.25003 4.34375Z" fill="#5181B8"/>
</svg>
