<svg width="20" height="20" viewBox="0 0 20 20" fill="none" xmlns="http://www.w3.org/2000/svg">
<path fill-rule="evenodd" clip-rule="evenodd" d="M9.97403 8.45889e-06C7.99705 0.00514389 6.06596 0.59616 4.42475 1.69838C2.78354 2.8006 1.50586 4.36456 0.753156 6.19265C0.00045284 8.02073 -0.193499 10.0309 0.195808 11.9692C0.585115 13.9075 1.54021 15.6868 2.94041 17.0825C4.34062 18.4782 6.12309 19.4275 8.06261 19.8105C10.0021 20.1935 12.0117 19.9931 13.8373 19.2344C15.6629 18.4758 17.2227 17.1931 18.3196 15.5483C19.4165 13.9035 20.0013 11.9705 20 9.99352C19.9948 7.33904 18.9358 4.79523 17.0558 2.92127C15.1757 1.0473 12.6285 -0.00343948 9.97403 8.45889e-06ZM9.97403 18.9546C8.20367 18.9503 6.47429 18.4215 5.00431 17.4349C3.53433 16.4483 2.38969 15.0482 1.71497 13.4115C1.04025 11.7747 0.865707 9.97473 1.21339 8.23884C1.56108 6.50296 2.4154 4.90904 3.66844 3.65841C4.92148 2.40779 6.51704 1.55655 8.2536 1.21221C9.99015 0.867877 11.7898 1.04589 13.4252 1.72377C15.0607 2.40165 16.4585 3.54899 17.4423 5.02087C18.426 6.49276 18.9515 8.22316 18.9524 9.99352C18.9489 12.3717 18.0012 14.6511 16.3176 16.3307C14.6339 18.0103 12.3522 18.9525 9.97403 18.9502V18.9546Z" fill="#313131"/>
<path d="M14.5444 9.23359V8.46514C14.544 8.00894 14.4471 7.55744 14.2596 7.13733C14.0721 6.71722 13.7977 6.33701 13.4527 6.01916C12.7553 5.36519 11.8138 4.99891 10.8331 5H10.1669C9.18694 4.99945 8.24633 5.36569 7.54943 6.01916C7.2043 6.33683 6.93 6.71705 6.74283 7.13723C6.55567 7.55742 6.45944 8.009 6.45989 8.46514V9.23359L6 10.0204V11.1537C6.00082 11.6604 6.10847 12.1617 6.31662 12.6284C6.52477 13.095 6.82921 13.5174 7.21203 13.8708C7.99169 14.5959 9.04055 15.0015 10.1325 15H10.8739C11.9631 15.0002 13.0088 14.5947 13.7858 13.8708C14.1693 13.5178 14.4744 13.0955 14.6829 12.6288C14.8914 12.1621 14.9993 11.6606 15 11.1537V10.0204L14.5444 9.23359ZM10.9341 12.711V13.618C10.9346 13.6845 10.9173 13.7501 10.8839 13.8085C10.8504 13.867 10.8019 13.9165 10.7428 13.9523H10.5623C10.541 13.9554 10.5192 13.9554 10.4979 13.9523H10.4549C10.437 13.9541 10.419 13.9541 10.4011 13.9523H10.3195C10.2593 13.9157 10.2096 13.8653 10.1751 13.8059C10.1406 13.7464 10.1223 13.6798 10.1218 13.6119V12.711C9.8727 12.6192 9.66555 12.4474 9.53656 12.2254C9.40758 12.0035 9.36497 11.7456 9.41619 11.4968C9.46741 11.2481 9.60919 11.0243 9.81675 10.8647C10.0243 10.7051 10.2844 10.6198 10.5516 10.6237H10.5752C10.8424 10.6198 11.1025 10.7051 11.31 10.8647C11.5176 11.0243 11.6594 11.2481 11.7106 11.4968C11.7618 11.7456 11.7192 12.0035 11.5902 12.2254C11.4612 12.4474 11.2541 12.6192 11.005 12.711H10.9341ZM12.8875 9.25805H8.11461V8.46514C8.11514 8.21307 8.16884 7.96364 8.27255 7.73155C8.37626 7.49946 8.52788 7.2894 8.71848 7.11374C9.10385 6.75117 9.62411 6.5469 10.1669 6.54505H10.8331C11.3759 6.54669 11.8963 6.75098 12.2815 7.11374C12.4717 7.28968 12.6231 7.4998 12.7268 7.73182C12.8305 7.96385 12.8844 8.21314 12.8854 8.46514L12.8875 9.25805Z" fill="#00AFF0"/>
</svg>
