<svg width="18" height="20" viewBox="0 0 18 20" fill="none" xmlns="http://www.w3.org/2000/svg">
<path d="M5.9737 10.3708C4.38123 10.3708 3.0947 11.6573 3.11824 13.2341C3.13393 14.246 3.6909 15.1246 4.51067 15.6149C4.23218 15.1874 4.06744 14.6814 4.0596 14.1362C4.03606 12.5594 5.32259 11.2729 6.91506 11.2729C7.22885 11.2729 7.53087 11.3239 7.81327 11.4141V8.25662C7.5191 8.21348 7.21708 8.18994 6.91506 8.18994C6.89937 8.18994 6.8876 8.18994 6.87191 8.18994V10.512C6.58951 10.4218 6.28749 10.3708 5.9737 10.3708Z" fill="#F00044"/>
<path d="M12.8574 0.902344H12.8339H12.0181C12.2534 2.08297 12.9163 3.11062 13.842 3.8088C13.234 3.00472 12.8653 2.0006 12.8574 0.902344Z" fill="#F00044"/>
<path d="M17.6584 5.70739C17.3485 5.70739 17.0504 5.67601 16.7563 5.62109V7.88428C15.6894 7.88428 14.6539 7.6764 13.6811 7.26063C13.0536 6.99391 12.4691 6.65267 11.9318 6.24082L11.9475 13.2187C11.9396 14.7876 11.3199 16.2585 10.1981 17.3685C9.2842 18.2706 8.12711 18.8472 6.87197 19.0316C6.57779 19.0747 6.27577 19.0982 5.97375 19.0982C4.63231 19.0982 3.35363 18.6629 2.31421 17.8588C2.43188 18 2.55739 18.1373 2.69468 18.2706C3.82431 19.3846 5.32264 20.0004 6.91903 20.0004C7.22105 20.0004 7.52307 19.9769 7.81725 19.9337C9.0724 19.7494 10.2295 19.1728 11.1434 18.2706C12.2652 17.1606 12.8849 15.6897 12.8928 14.1208L12.8339 7.14296C13.3674 7.55481 13.9518 7.89997 14.5833 8.16277C15.5599 8.57461 16.5954 8.78642 17.6584 8.78642" fill="#F00044"/>
<path d="M2.6829 9.92733C3.80076 8.81731 5.28733 8.2015 6.87195 8.18974V7.35428C6.57778 7.31113 6.27576 7.2876 5.97374 7.2876C4.37343 7.2876 2.87117 7.90341 1.74154 9.02519C0.631514 10.1274 -0.00390429 11.6336 1.80523e-05 13.1986C1.80523e-05 14.7753 0.62367 16.2541 1.74938 17.3719C1.92981 17.5484 2.11416 17.7132 2.31028 17.8622C1.42383 16.8071 0.941379 15.4892 0.937457 14.1007C0.941379 12.5357 1.57288 11.0295 2.6829 9.92733Z" fill="#08FFF9"/>
<path d="M16.7563 5.62071V4.78133H16.7485C15.6581 4.78133 14.6539 4.42048 13.8459 3.80859C14.548 4.73426 15.5757 5.39322 16.7563 5.62071Z" fill="#08FFF9"/>
<path d="M6.75432 16.9131C7.12694 16.9327 7.48387 16.8817 7.81335 16.7758C8.95083 16.4032 9.77059 15.3442 9.77059 14.0969L9.77452 9.4293V0.902138H12.0181C11.9593 0.607962 11.9279 0.309865 11.924 0H8.83316V8.52324L8.82923 13.1908C8.82923 14.4381 8.00946 15.4972 6.87199 15.8698C6.54251 15.9796 6.18558 16.0306 5.81296 16.0071C5.33835 15.9796 4.89513 15.8384 4.51074 15.6109C4.99319 16.3561 5.81688 16.8621 6.75432 16.9131Z" fill="#08FFF9"/>
<path d="M6.872 19.0314C8.12715 18.847 9.28424 18.2705 10.1981 17.3683C11.3199 16.2583 11.9397 14.7874 11.9475 13.2185L11.9318 6.24065C12.4653 6.65249 13.0497 6.99766 13.6812 7.26045C14.6578 7.6723 15.6933 7.88411 16.7563 7.88411V5.62092C15.5757 5.39342 14.548 4.73447 13.8459 3.8088C12.9202 3.11062 12.2534 2.08297 12.022 0.902344H9.77453V9.42558L9.77061 14.0932C9.77061 15.3405 8.95084 16.3995 7.81336 16.7721C7.48388 16.8819 7.12695 16.9329 6.75433 16.9094C5.81297 16.8584 4.9932 16.3524 4.51075 15.6111C3.69098 15.1247 3.13401 14.2422 3.11832 13.2303C3.09479 11.6535 4.38131 10.3669 5.97378 10.3669C6.28757 10.3669 6.58959 10.4179 6.872 10.5081V8.18613C5.28737 8.19789 3.80081 8.8137 2.68294 9.92372C1.57292 11.0259 0.937502 12.5321 0.941424 14.0932C0.941424 15.4817 1.42387 16.7996 2.31424 17.8547C3.35758 18.6588 4.63234 19.0941 5.97378 19.0941C6.2758 19.0981 6.57782 19.0745 6.872 19.0314Z" fill="black"/>
</svg>
