<svg width="20" height="20" viewBox="0 0 20 20" fill="none" xmlns="http://www.w3.org/2000/svg">
<path d="M1.82617 0L0 3.65153V17.5H5V20H7.25586L9.75586 17.5H14.7559L20 12.2559V0H1.82617ZM18.3333 11.4225L14.7559 15H9.75586L6.66667 18.0892V15H2.5V1.66667H18.3333V11.4225Z" fill="#82469B"/>
<path opacity="0.2" d="M1.82617 0L0 3.65153V3.85986L1.82617 0.208333H20V0H1.82617Z" fill="white"/>
<path opacity="0.1" d="M5 17.2915H0V17.4998H5V17.2915Z" fill="#010101"/>
<path opacity="0.1" d="M9.75586 17.2915L7.25586 19.7915H5V19.9998H7.25586L9.75586 17.4998H14.7559L20 12.2557V12.0474L14.7559 17.2915H9.75586Z" fill="#010101"/>
<path d="M7.91667 10.8333C7.68636 10.8333 7.5 10.647 7.5 10.4167V5.41667C7.5 5.18636 7.68636 5 7.91667 5C8.14697 5 8.33333 5.18636 8.33333 5.41667V10.4167C8.33333 10.647 8.14697 10.8333 7.91667 10.8333Z" fill="#82469B"/>
<path d="M12.9167 10.8333C12.6864 10.8333 12.5 10.647 12.5 10.4167V5.41667C12.5 5.18636 12.6864 5 12.9167 5C13.147 5 13.3333 5.18636 13.3333 5.41667V10.4167C13.3333 10.647 13.147 10.8333 12.9167 10.8333Z" fill="#82469B"/>
<path d="M1.82617 0L0 3.65153V17.5H5V20H7.25586L9.75586 17.5H14.7559L20 12.2559V0H1.82617ZM18.3333 11.4225L14.7559 15H9.75586L6.66667 18.0892V15H2.5V1.66667H18.3333V11.4225ZM7.91667 10.8333C8.14697 10.8333 8.33333 10.647 8.33333 10.4167V5.41667C8.33333 5.18636 8.14697 5 7.91667 5C7.68636 5 7.5 5.18636 7.5 5.41667V10.4167C7.5 10.647 7.68636 10.8333 7.91667 10.8333ZM12.9167 10.8333C13.147 10.8333 13.3333 10.647 13.3333 10.4167V5.41667C13.3333 5.18636 13.147 5 12.9167 5C12.6864 5 12.5 5.18636 12.5 5.41667V10.4167C12.5 10.647 12.6864 10.8333 12.9167 10.8333Z" fill="url(#paint0_linear)"/>
<defs>
<linearGradient id="paint0_linear" x1="-0.199028" y1="4.07835" x2="19.5245" y2="13.2756" gradientUnits="userSpaceOnUse">
<stop stop-color="white" stop-opacity="0.2"/>
<stop offset="1" stop-color="white" stop-opacity="0"/>
</linearGradient>
</defs>
</svg>
