<svg width="20" height="20" viewBox="0 0 20 20" fill="none" xmlns="http://www.w3.org/2000/svg">
<path d="M10 20C15.5228 20 20 15.5228 20 10C20 4.47715 15.5228 0 10 0C4.47715 0 0 4.47715 0 10C0 15.5228 4.47715 20 10 20Z" fill="#039BE5"/>
<path d="M4.57581 9.78351L14.2175 6.06601C14.665 5.90434 15.0558 6.17517 14.9108 6.85184L14.9116 6.85101L13.27 14.5852C13.1483 15.1335 12.8225 15.2668 12.3666 15.0085L9.86664 13.166L8.66081 14.3277C8.52747 14.461 8.41497 14.5735 8.15664 14.5735L8.33414 12.0293L12.9675 7.84351C13.1691 7.66601 12.9225 7.56601 12.6566 7.74267L6.93081 11.3477L4.46247 10.5777C3.92664 10.4077 3.91497 10.0418 4.57581 9.78351Z" fill="white"/>
</svg>
