<svg width="12" height="18" viewBox="0 0 12 18" fill="none" xmlns="http://www.w3.org/2000/svg">
<path d="M10.0366 11.7337C9.07532 12.3442 7.75267 12.5862 6.87903 12.6775L7.61228 13.4002L10.2892 16.0771C11.2681 17.0805 9.67517 18.6488 8.68587 17.6805C8.01579 16.9998 7.03333 16.0175 6.00892 14.993L3.332 17.677C2.34263 18.6418 0.749814 17.0594 1.73919 16.0736C2.41981 15.3929 3.39165 14.4106 4.4161 13.3967L5.13884 12.6739C4.27579 12.5827 2.93208 12.3546 1.96021 11.7303C0.816455 10.9934 0.314776 10.5619 0.756807 9.66023C1.01642 9.14801 1.7286 8.71648 2.67239 9.46027C2.67239 9.46027 3.94595 10.4742 6.00188 10.4742C8.05778 10.4742 9.33134 9.46027 9.33134 9.46027C10.2751 8.71996 10.9838 9.14801 11.2469 9.66023C11.6821 10.5619 11.1804 10.9934 10.0366 11.7337ZM1.44802 4.56602C1.44802 2.05051 3.49341 0.015625 5.99845 0.015625C8.50349 0.015625 10.5488 2.05051 10.5488 4.56602C10.5488 7.07105 8.50349 9.1059 5.99845 9.1059C3.49341 9.1059 1.44802 7.07105 1.44802 4.56602ZM3.7636 4.56602C3.7636 5.79746 4.767 6.80086 5.99845 6.80086C7.22981 6.80086 8.23333 5.79746 8.23333 4.56602C8.23333 3.32402 7.22985 2.32066 5.99845 2.32066C4.76696 2.32066 3.7636 3.32402 3.7636 4.56602Z" fill="#FF7E00"/>
</svg>
