<svg width="20" height="20" viewBox="0 0 20 20" fill="none" xmlns="http://www.w3.org/2000/svg">
<g clip-path="url(#clip0)">
<path fill-rule="evenodd" clip-rule="evenodd" d="M10.201 3.73362C13.2431 2.48603 16.2869 1.24488 19.3289 -0.00244141C18.5454 2.20275 17.7621 4.4082 16.9814 6.61527C17.9895 7.87733 18.9961 9.14153 20.0045 10.4025C16.2848 11.928 12.565 13.4538 8.84462 14.9788C8.84546 13.7521 8.84608 12.5257 8.84462 11.299C6.017 12.46 3.18854 13.6173 0.360716 14.7767C0.361969 11.2074 0.361552 7.638 0.361134 4.0689C2.8755 3.03894 5.38987 2.00871 7.90445 0.979012C8.6692 0.664368 9.43541 0.35428 10.1995 0.0372242C10.2002 1.26954 10.1972 2.50158 10.201 3.73362ZM1.7148 5.34731C1.71668 7.69321 1.71334 10.0394 1.71647 12.3855C4.09363 11.4172 6.46829 10.4392 8.84462 9.46851C8.84587 7.12234 8.84587 4.77618 8.84483 2.42975C6.4685 3.40477 4.09071 4.37256 1.7148 5.34731ZM14.2781 3.88478C12.9188 4.44385 11.5588 4.99997 10.2 5.56011C10.1995 7.90386 10.1981 10.2481 10.2006 12.5922C12.6256 11.5978 15.0514 10.6065 17.4764 9.61243C16.7749 8.72907 16.0707 7.84972 15.3678 6.96797C15.8807 5.58209 16.3921 4.1954 16.9035 2.80899C16.0277 3.1641 15.1535 3.52699 14.2781 3.88478ZM1.34704 16.2484C1.62563 16.213 1.91215 16.2837 2.16003 16.4515C2.44551 16.6437 2.67941 16.961 2.81055 17.3394C2.92959 17.6761 2.96259 18.0582 2.91518 18.4219C2.8659 18.7929 2.72472 19.1415 2.51839 19.4085C2.30705 19.684 2.02722 19.8721 1.72963 19.9351C1.4287 20.0002 1.11127 19.9421 0.838321 19.7652C0.524025 19.565 0.270709 19.2123 0.140605 18.7939C0.0207337 18.412 0.00507114 17.9792 0.0931993 17.5839C0.169842 17.2419 0.325006 16.9299 0.534676 16.697C0.759799 16.4427 1.04841 16.2837 1.34704 16.2484Z" fill="#6515DD"/>
</g>
<defs>
<clipPath id="clip0">
<rect width="20" height="20" fill="white"/>
</clipPath>
</defs>
</svg>
