<svg width="20" height="20" viewBox="0 0 20 20" fill="none" xmlns="http://www.w3.org/2000/svg">
<g clip-path="url(#clip0)">
<path d="M18.7718 5.19897C18.5508 4.34219 17.9035 3.66684 17.0825 3.43612C15.5826 3.00781 9.58315 3.00781 9.58315 3.00781C9.58315 3.00781 3.58379 3.00781 2.08392 3.4198C1.27878 3.65036 0.615626 4.34234 0.394673 5.19897C0 6.7639 0 10.0094 0 10.0094C0 10.0094 0 13.2713 0.394673 14.8199C0.615772 15.6765 1.26298 16.352 2.08406 16.5827C3.59958 17.0111 9.58329 17.0111 9.58329 17.0111C9.58329 17.0111 15.5826 17.0111 17.0825 16.5991C17.9036 16.3685 18.5508 15.693 18.7719 14.8364C19.1666 13.2713 19.1666 10.0259 19.1666 10.0259C19.1666 10.0259 19.1824 6.7639 18.7718 5.19897Z" fill="#FF0000"/>
<path d="M7.67297 13.0079L12.6619 10.0096L7.67297 7.01123V13.0079Z" fill="white"/>
</g>
<defs>
<clipPath id="clip0">
<rect width="19.1667" height="20" fill="white"/>
</clipPath>
</defs>
</svg>
