<svg width="20" height="20" viewBox="0 0 20 20" fill="none" xmlns="http://www.w3.org/2000/svg">
<path d="M6.28961 18.1255C13.8368 18.1255 17.9648 11.8728 17.9648 6.45033C17.9648 6.27275 17.9648 6.09596 17.9528 5.91994C18.7559 5.33904 19.4491 4.61986 20 3.79596C19.2511 4.12779 18.4566 4.34537 17.6432 4.44154C18.4996 3.92889 19.141 3.12193 19.4472 2.17193C18.6418 2.64986 17.7605 2.98674 16.8416 3.16795C16.0657 2.34291 14.9821 1.87451 13.8497 1.87451C11.5965 1.87451 9.74246 3.72857 9.74246 5.9817C9.74246 6.29428 9.77816 6.60588 9.84879 6.91033C6.55121 6.74506 3.47457 5.18529 1.39199 2.62314C0.309023 4.48744 0.869375 6.90346 2.66238 8.10072C2.00945 8.08139 1.37055 7.90521 0.8 7.58713V7.63912C0.800547 9.58498 2.18465 11.2763 4.09199 11.6615C3.48793 11.8263 2.85398 11.8503 2.23922 11.7319C2.77543 13.3993 4.32168 14.5487 6.07281 14.5815C4.62008 15.7232 2.82449 16.3434 0.976797 16.3415C0.650313 16.3409 0.324141 16.3212 0 16.2823C1.87633 17.4864 4.06016 18.1253 6.28961 18.1223" fill="#1DA1F2"/>
</svg>
