<svg width="22" height="22" viewBox="0 0 22 22" fill="none" xmlns="http://www.w3.org/2000/svg">
<path d="M13.75 9.16667L17.9236 7.08033C18.0633 7.01052 18.2185 6.97756 18.3746 6.98458C18.5306 6.99161 18.6823 7.03839 18.8151 7.12049C18.948 7.20258 19.0577 7.31727 19.1338 7.45367C19.2099 7.59006 19.2499 7.74364 19.25 7.89983V14.1002C19.2499 14.2564 19.2099 14.4099 19.1338 14.5463C19.0577 14.6827 18.948 14.7974 18.8151 14.8795C18.6823 14.9616 18.5306 15.0084 18.3746 15.0154C18.2185 15.0224 18.0633 14.9895 17.9236 14.9197L13.75 12.8333V9.16667ZM4.58333 16.5H11.9167C12.4029 16.5 12.8692 16.3068 13.213 15.963C13.5568 15.6192 13.75 15.1529 13.75 14.6667V7.33333C13.75 6.8471 13.5568 6.38079 13.213 6.03697C12.8692 5.69315 12.4029 5.5 11.9167 5.5H4.58333C4.0971 5.5 3.63079 5.69315 3.28697 6.03697C2.94315 6.38079 2.75 6.8471 2.75 7.33333V14.6667C2.75 15.1529 2.94315 15.6192 3.28697 15.963C3.63079 16.3068 4.0971 16.5 4.58333 16.5Z" stroke="#C2CFE0" stroke-width="2" stroke-linecap="round" stroke-linejoin="round"/>
</svg>
