<svg width="22" height="16" viewBox="0 0 22 16" fill="none" xmlns="http://www.w3.org/2000/svg">
<path d="M15.7083 7.58333C17.2033 7.58333 18.4058 6.37 18.4058 4.875C18.4058 3.38 17.2033 2.16667 15.7083 2.16667C14.2133 2.16667 13 3.38 13 4.875C13 6.37 14.2133 7.58333 15.7083 7.58333ZM7.58333 6.5C9.38167 6.5 10.8225 5.04833 10.8225 3.25C10.8225 1.45167 9.38167 0 7.58333 0C5.785 0 4.33333 1.45167 4.33333 3.25C4.33333 5.04833 5.785 6.5 7.58333 6.5ZM15.7083 9.75C13.7258 9.75 9.75 10.7467 9.75 12.7292V15.1667H21.6667V12.7292C21.6667 10.7467 17.6908 9.75 15.7083 9.75ZM7.58333 8.66667C5.05917 8.66667 0 9.93417 0 12.4583V15.1667H7.58333V12.7292C7.58333 11.8083 7.94083 10.1942 10.1508 8.97C9.20833 8.775 8.29833 8.66667 7.58333 8.66667Z" fill="#C2CFE0"/>
</svg>
