<svg width="16" height="20" viewBox="0 0 16 20" fill="none" xmlns="http://www.w3.org/2000/svg">
<path d="M11.6666 5.41667C11.6666 6.38913 11.2803 7.32176 10.5927 8.00939C9.90507 8.69703 8.97244 9.08333 7.99998 9.08333C7.02752 9.08333 6.09489 8.69703 5.40726 8.00939C4.71962 7.32176 4.33331 6.38913 4.33331 5.41667C4.33331 4.44421 4.71962 3.51158 5.40726 2.82394C6.09489 2.13631 7.02752 1.75 7.99998 1.75C8.97244 1.75 9.90507 2.13631 10.5927 2.82394C11.2803 3.51158 11.6666 4.44421 11.6666 5.41667V5.41667ZM7.99998 11.8333C6.29817 11.8333 4.66607 12.5094 3.46271 13.7127C2.25935 14.9161 1.58331 16.5482 1.58331 18.25H14.4166C14.4166 16.5482 13.7406 14.9161 12.5372 13.7127C11.3339 12.5094 9.70179 11.8333 7.99998 11.8333V11.8333Z" stroke="#C2CFE0" stroke-width="2" stroke-linecap="round" stroke-linejoin="round"/>
</svg>
