<svg width="20" height="17" viewBox="0 0 20 17" fill="none" xmlns="http://www.w3.org/2000/svg">
<path d="M2.95814 2.7917C2.57509 3.17474 2.27124 3.62948 2.06394 4.12995C1.85664 4.63042 1.74994 5.16682 1.74994 5.70853C1.74994 6.25024 1.85664 6.78664 2.06394 7.28711C2.27124 7.78758 2.57509 8.24232 2.95814 8.62536L9.99997 15.6672L17.0418 8.62536C17.8154 7.85177 18.25 6.80256 18.25 5.70853C18.25 4.61451 17.8154 3.56529 17.0418 2.7917C16.2682 2.01811 15.219 1.58351 14.125 1.58351C13.0309 1.58351 11.9817 2.01811 11.2081 2.7917L9.99997 3.99987L8.79181 2.7917C8.40877 2.40865 7.95403 2.1048 7.45356 1.8975C6.95308 1.69019 6.41668 1.5835 5.87497 1.5835C5.33327 1.5835 4.79686 1.69019 4.29639 1.8975C3.79592 2.1048 3.34118 2.40865 2.95814 2.7917V2.7917Z" stroke="#C2CFE0" stroke-width="2" stroke-linecap="round" stroke-linejoin="round"/>
</svg>
