<svg width="18" height="18" viewBox="0 0 18 18" fill="none" xmlns="http://www.w3.org/2000/svg">
<path d="M6.54333 9.07667H7.24333V8.37667V2.29V1.59H6.54333H2.29H1.59V2.29V8.37667V9.07667H2.29H6.54333ZM6.54333 16.41H7.24333V15.71V13.29V12.59H6.54333H2.29H1.59V13.29V15.71V16.41H2.29H6.54333ZM15.71 16.41H16.41V15.71V9.62333V8.92333H15.71H11.4567H10.7567V9.62333V15.71V16.41H11.4567H15.71ZM10.7567 4.71V5.41H11.4567H15.71H16.41V4.71V2.29V1.59H15.71H11.4567H10.7567V2.29V4.71ZM1.85 9.21667C1.62909 9.21667 1.45 9.03758 1.45 8.81667V1.85C1.45 1.62909 1.62909 1.45 1.85 1.45H6.98333C7.20425 1.45 7.38333 1.62909 7.38333 1.85V8.81667C7.38333 9.03758 7.20425 9.21667 6.98333 9.21667H1.85ZM1.85 16.55C1.62909 16.55 1.45 16.3709 1.45 16.15V12.85C1.45 12.6291 1.62909 12.45 1.85 12.45H6.98333C7.20425 12.45 7.38333 12.6291 7.38333 12.85V16.15C7.38333 16.3709 7.20425 16.55 6.98333 16.55H1.85ZM11.0167 16.55C10.7958 16.55 10.6167 16.3709 10.6167 16.15V9.18333C10.6167 8.96242 10.7958 8.78333 11.0167 8.78333H16.15C16.3709 8.78333 16.55 8.96242 16.55 9.18333V16.15C16.55 16.3709 16.3709 16.55 16.15 16.55H11.0167ZM10.6167 1.85C10.6167 1.62909 10.7958 1.45 11.0167 1.45H16.15C16.3709 1.45 16.55 1.62909 16.55 1.85V5.15C16.55 5.37092 16.3709 5.55 16.15 5.55H11.0167C10.7958 5.55 10.6167 5.37091 10.6167 5.15V1.85Z" fill="#C2CFE0" stroke="#C2CFE0" stroke-width="1.4"/>
</svg>
