<svg width="22" height="22" viewBox="0 0 22 22" fill="none" xmlns="http://www.w3.org/2000/svg">
<path d="M13.75 11C13.75 11.7293 13.4603 12.4288 12.9445 12.9445C12.4288 13.4603 11.7293 13.75 11 13.75C10.2707 13.75 9.57118 13.4603 9.05546 12.9445C8.53973 12.4288 8.25 11.7293 8.25 11C8.25 10.2707 8.53973 9.57118 9.05546 9.05546C9.57118 8.53973 10.2707 8.25 11 8.25C11.7293 8.25 12.4288 8.53973 12.9445 9.05546C13.4603 9.57118 13.75 10.2707 13.75 11V11Z" stroke="#C9D5E4" stroke-width="2" stroke-linecap="round" stroke-linejoin="round"/>
<path d="M2.25317 11.0002C3.42101 7.28125 6.89609 4.5835 11 4.5835C15.1048 4.5835 18.579 7.28125 19.7468 11.0002C18.579 14.7191 15.1048 17.4168 11 17.4168C6.89609 17.4168 3.42101 14.7191 2.25317 11.0002V11.0002Z" stroke="#C9D5E4" stroke-width="2" stroke-linecap="round" stroke-linejoin="round"/>
</svg>
