<svg width="22" height="22" viewBox="0 0 22 22" fill="none" xmlns="http://www.w3.org/2000/svg">
<path d="M14.6667 3.6665V14.6665L11 12.8332L7.33335 14.6665V3.6665H14.6667ZM5.50002 18.3332H16.5C16.9862 18.3332 17.4526 18.14 17.7964 17.7962C18.1402 17.4524 18.3334 16.9861 18.3334 16.4998V5.49984C18.3334 5.01361 18.1402 4.54729 17.7964 4.20347C17.4526 3.85966 16.9862 3.6665 16.5 3.6665H5.50002C5.01379 3.6665 4.54747 3.85966 4.20366 4.20347C3.85984 4.54729 3.66669 5.01361 3.66669 5.49984V16.4998C3.66669 16.9861 3.85984 17.4524 4.20366 17.7962C4.54747 18.14 5.01379 18.3332 5.50002 18.3332Z" stroke="#C2CFE0" stroke-width="2" stroke-linecap="round" stroke-linejoin="round"/>
</svg>
