<svg width="20" height="20" viewBox="0 0 20 20" fill="none" xmlns="http://www.w3.org/2000/svg">
<path d="M7.50002 10.8332C9.34097 10.8332 10.8334 9.34079 10.8334 7.49984C10.8334 5.65889 9.34097 4.1665 7.50002 4.1665C5.65907 4.1665 4.16669 5.65889 4.16669 7.49984C4.16669 9.34079 5.65907 10.8332 7.50002 10.8332Z" fill="#C2CFE0"/>
<path d="M7.49998 12.4998C5.27498 12.4998 0.833313 13.6165 0.833313 15.8332V17.4998H14.1666V15.8332C14.1666 13.6165 9.72498 12.4998 7.49998 12.4998ZM13.9666 4.4665L12.5666 5.87484C13.2666 6.85817 13.2666 8.13317 12.5666 9.1165L13.9666 10.5248C15.65 8.8415 15.65 6.29984 13.9666 4.4665ZM16.725 1.6665L15.3666 3.02484C17.675 5.5415 17.675 9.32484 15.3666 11.9748L16.725 13.3332C19.975 10.0915 19.9833 5.0415 16.725 1.6665Z" fill="#C2CFE0"/>
</svg>
