<svg width="20" height="36" viewBox="0 0 20 36" fill="none" xmlns="http://www.w3.org/2000/svg">
<path fill-rule="evenodd" clip-rule="evenodd" d="M0 2C0 0.895431 0.895431 0 2 0H18C19.1046 0 20 0.895431 20 2V18C20 19.1046 19.1046 20 18 20H2C0.895431 20 0 19.1046 0 18V2Z" fill="#0072FF"/>
<path fill-rule="evenodd" clip-rule="evenodd" d="M8.49995 12.0852L6.76495 10.3502C6.56995 10.1552 6.25495 10.1552 6.05995 10.3502C5.86495 10.5452 5.86495 10.8602 6.05995 11.0552L8.14995 13.1452C8.34495 13.3402 8.65995 13.3402 8.85495 13.1452L14.1449 7.85516C14.3399 7.66016 14.3399 7.34516 14.1449 7.15016C13.9499 6.95516 13.6349 6.95516 13.4399 7.15016L8.49995 12.0852Z" fill="white"/>
</svg>
