<svg width="51" height="51" viewBox="0 0 51 51" fill="none" xmlns="http://www.w3.org/2000/svg">
<g clip-path="url(#clip0)">
<path d="M24.0056 0.0423309C18.2246 0.37413 12.8066 2.62809 8.49455 6.49652C8.14522 6.80989 8.79916 8.13002 8.46477 8.4645C8.09153 8.83774 6.73515 8.22444 6.38811 8.61621C2.58612 12.9083 0.371307 18.2786 0.0425962 24.0054C0.0142075 24.5009 0.995958 24.9992 0.995958 25.4996C0.995958 26 0.0142075 26.4983 0.0425962 26.9938C0.372801 32.7478 2.60724 38.142 6.4424 42.4441C6.7727 42.8146 7.78603 43.2798 7.78603 43.2798C7.78603 43.2798 8.18507 44.227 8.55571 44.5573C12.8578 48.3922 18.2519 50.6265 24.0056 50.9567C24.5012 50.9852 25.4999 50.376 25.4999 50.376L26.4961 26.4598L25.517 0.454515C25.517 0.454515 24.5012 0.0139422 24.0056 0.0423309Z" fill="#FDCB02"/>
<path d="M25.5 0.974913V44.7979C25.5 44.7979 26.4986 50.985 26.9941 50.9565C32.7688 50.6251 38.1812 48.3757 42.4909 44.5152C42.8453 44.1978 42.196 42.8734 42.5351 42.5344C42.9038 42.1657 44.2559 42.7839 44.599 42.3971C48.4086 38.1026 50.628 32.7267 50.9571 26.9936C50.9855 26.4979 49.0077 25.9997 49.0077 25.4992C49.0077 24.9988 50.9855 24.5006 50.9571 24.005C50.6269 18.2511 48.3925 12.8568 44.5573 8.55469C44.2271 8.18424 43.0559 7.91819 43.0559 7.91819C43.0559 7.91819 42.8148 6.77188 42.4441 6.44148C38.1419 2.60671 32.7478 0.373571 26.994 0.0434657C26.5518 0.0180653 25.5 0.974913 25.5 0.974913Z" fill="#FDAE02"/>
<path d="M14.5356 12.4228L8.49549 6.49805C8.14606 6.81142 7.80321 7.13445 7.46872 7.46894C7.09538 7.84228 6.73669 8.22617 6.38965 8.61804L12.4227 14.5358L14.5356 12.4228Z" fill="#FDAE02"/>
<path d="M24.0059 42.5V50.9555C24.5015 50.984 24.9995 51.0001 25.5 51.0001H25.5001L26.4962 47.6398L25.5001 42.5H24.0059Z" fill="#FDAE02"/>
<path d="M26.994 42.5H25.5V51C26.0004 51 26.4984 50.9839 26.994 50.9554V42.5Z" fill="#FD8C02"/>
<path d="M24.0059 0.0445254V8.50007H25.5001L26.4962 3.68077L25.5001 0C25.5001 0 24.5015 0.0160371 24.0059 0.0445254Z" fill="#FDAE02"/>
<path d="M26.994 0.0445254C26.4984 0.0160371 26.0004 0 25.5 0V8.50007H26.994V0.0445254Z" fill="#FD8C02"/>
<path d="M36.4644 38.5769L42.4901 44.5144C42.8445 44.1969 43.1923 43.8698 43.5313 43.5308C43.9001 43.162 44.2546 42.7829 44.5978 42.396L38.5775 36.4639L36.4644 38.5769Z" fill="#FD8C02"/>
<path d="M42.5 26.9941H50.9554C50.9839 26.4985 51 26.0005 51 25.5C51 24.9995 50.9839 24.5015 50.9554 24.0059H42.5V26.9941Z" fill="#FD8C02"/>
<path d="M8.50007 24.0059H0.0445254C0.0160371 24.5015 0 24.9995 0 25.5C0 26.0005 0.0160371 26.4985 0.0445254 26.9941H8.50007V24.0059Z" fill="#FDAE02"/>
<path d="M38.5775 14.5354L44.5563 8.55647C44.226 8.18592 43.8853 7.82245 43.5312 7.46844C43.1773 7.11453 42.8139 6.77376 42.4432 6.44336L36.4644 12.4222L38.5775 14.5354Z" fill="#FD8C02"/>
<path d="M12.4228 36.4639L6.44385 42.4428C6.77415 42.8134 7.11492 43.1768 7.46893 43.5309C7.82284 43.8848 8.18631 44.2255 8.55696 44.5559L14.5359 38.577L12.4228 36.4639Z" fill="#FDAE02"/>
<path d="M25.5 7.00684C15.3022 7.00684 7.00586 15.3032 7.00586 25.5009C7.00586 35.6986 15.3022 43.9951 25.5 43.9951H25.5001L26.4962 26.3672L25.5001 7.00684H25.5Z" fill="#FFDF8E"/>
<path d="M43.9941 25.5C43.9941 15.3023 35.6976 7.00596 25.5 7.00586V43.9941C35.6976 43.9941 43.9941 35.6977 43.9941 25.5Z" fill="#FFD664"/>
<path d="M24.0059 14.8105V19.0606H25.5L26.4961 17.0711L25.5 14.8105H24.0059Z" fill="#FDAE02"/>
<path d="M25.5 14.8105H26.9941V19.0606H25.5V14.8105Z" fill="#FD8C02"/>
<path d="M21.7576 36.1891L22.2316 22.2458C20.5875 20.5896 18.0142 20.221 15.9401 21.4385C13.5896 22.8181 12.7092 25.8053 13.9356 28.2392L17.9415 36.1891H21.7576Z" fill="#FDAE02"/>
<path d="M35.0596 21.4385C32.9853 20.221 30.412 20.5896 28.7681 22.2457L29.3503 36.189H33.0579L37.064 28.2391C38.2904 25.8052 37.41 22.818 35.0596 21.4385Z" fill="#FD8C02"/>
<path d="M21.7578 36.1895H25.5322L26.4961 27.0956L25.5 17.5664C23.7363 17.5664 22.0746 18.3414 20.941 19.6927C19.8075 21.0439 19.3332 22.815 19.6412 24.5596L21.7578 36.1895Z" fill="#FDCB02"/>
<path d="M29.3506 36.1895L31.3602 24.5518C31.6668 22.8149 31.1926 21.0438 30.0589 19.6926C28.9254 18.3414 27.2638 17.5664 25.5 17.5664V36.1896H29.3506V36.1895Z" fill="#FDAE02"/>
</g>
<defs>
<clipPath id="clip0">
<rect width="51" height="51" fill="white"/>
</clipPath>
</defs>
</svg>
