<svg width="22" height="22" viewBox="0 0 22 22" fill="none" xmlns="http://www.w3.org/2000/svg">
<g clip-path="url(#clip0)">
<path d="M21.5847 14.0375L13.707 21.9095H11.4107L0 10.4918V8.54982L8.05476 0.500769C8.60832 -0.052787 9.50562 -0.0521157 10.0592 0.50144L21.5847 12.0333C22.1389 12.5869 22.138 13.4848 21.5847 14.0375Z" fill="#C9EF3F"/>
<path d="M3.54102 5.0138L6.54781 2.00684L20.0789 15.5379L17.0719 18.5449L3.54102 5.0138Z" fill="#3C3C47"/>
<path d="M20.5534 11.0008L15.8722 6.31738H2.23386L0 8.5499V10.4919L11.4107 21.9096H13.707L20.5534 15.0682V11.0008Z" fill="#BADB31"/>
<path d="M4.84473 6.31738L17.0726 18.5445L20.0791 15.538L10.8585 6.31738H4.84473Z" fill="#202026"/>
<path d="M17.7185 21.9096H1.41746C0.63429 21.9096 0 21.2753 0 20.4922V9.15232C0 8.36915 0.63429 7.73486 1.41746 7.73486H17.7185C18.5017 7.73486 19.136 8.36915 19.136 9.15232V20.4922C19.136 21.2747 18.5017 21.9096 17.7185 21.9096Z" fill="#48C8EF"/>
<path d="M0 11.2788H19.136V15.5312H0V11.2788Z" fill="#3C3C47"/>
<path d="M2.83447 17.6572H4.96075V19.0747H2.83447V17.6572Z" fill="white"/>
<path d="M6.37793 17.6572H9.21286V19.0747H6.37793V17.6572Z" fill="white"/>
<path d="M10.6309 17.6572H12.7571V19.0747H10.6309V17.6572Z" fill="white"/>
<path d="M14.1743 17.6572H16.3006V19.0747H14.1743V17.6572Z" fill="white"/>
<path d="M8.50488 2.06494H9.92235V3.48241H8.50488V2.06494Z" fill="white"/>
<path d="M10.6309 4.19092H12.0483V5.60838H10.6309V4.19092Z" fill="white"/>
</g>
<defs>
<clipPath id="clip0">
<rect width="22" height="22" fill="white"/>
</clipPath>
</defs>
</svg>
