<svg width="18" height="20" viewBox="0 0 18 20" fill="none" xmlns="http://www.w3.org/2000/svg">
<path d="M14.7652 13.2145C14.8132 13.5757 14.7052 13.7322 14.5852 13.7322C14.4652 13.7322 14.2973 13.5878 14.1173 13.2988C13.9373 13.0099 13.8653 12.6848 13.9613 12.5163C14.0213 12.4079 14.1413 12.3598 14.3093 12.42C14.6092 12.5283 14.7292 12.9978 14.7652 13.2145ZM13.0614 14.0091C13.4334 14.3221 13.5414 14.6954 13.3494 14.9482C13.2414 15.0926 13.0614 15.1649 12.8574 15.1649C12.6535 15.1649 12.4375 15.0926 12.2935 14.9602C11.9576 14.6713 11.8616 14.1897 12.0775 13.9248C12.1615 13.8165 12.3055 13.7563 12.4615 13.7563C12.6655 13.7683 12.8814 13.8526 13.0614 14.0091ZM12.4495 17.0189C14.0333 17.0189 15.7491 17.5607 17.6448 19.2582C17.8368 19.4267 18.0888 19.2221 17.9208 19.0054C16.049 16.6337 14.3213 16.1882 12.6055 15.803C10.4937 15.3334 9.41387 14.1416 8.65796 12.8413C8.50198 12.5765 8.44199 12.6246 8.42999 12.9617C8.41799 13.371 8.44199 13.9128 8.53798 14.4425C8.45399 14.4425 8.37 14.4425 8.28601 14.4425C5.27439 14.4425 2.82669 11.9865 2.82669 8.96473C2.82669 5.94291 5.27439 3.48693 8.28601 3.48693C11.2976 3.48693 13.7453 5.94291 13.7453 8.96473C13.7453 9.18143 13.7333 9.39814 13.7093 9.6028C13.3134 9.53057 12.5215 9.51853 11.9696 9.56668C11.7656 9.57872 11.7896 9.68708 11.9456 9.71115C13.7453 10.0362 14.9932 11.1558 15.2691 13.2025C15.2811 13.2507 15.3411 13.2627 15.3651 13.2266C16.109 11.9865 16.529 10.5298 16.529 8.97677C16.529 4.4019 12.8334 0.693848 8.27401 0.693848C3.71458 0.693848 0.019043 4.4019 0.019043 8.97677C0.019043 13.5516 3.71458 17.2597 8.27401 17.2597C9.48586 17.2597 10.6857 17.0189 12.4495 17.0189Z" fill="#FF8C00"/>
</svg>
