<svg width="38" height="12" viewBox="0 0 38 12" fill="none" xmlns="http://www.w3.org/2000/svg">
<path d="M16.4666 11.8268H13.3883L15.3137 0.210449H18.3918L16.4666 11.8268Z" fill="#00579F"/>
<path d="M27.6257 0.494553C27.0185 0.259513 26.0555 0 24.8647 0C21.8248 0 19.6842 1.58171 19.671 3.84309C19.6458 5.51153 21.2037 6.43822 22.3689 6.99453C23.5598 7.56299 23.9647 7.93403 23.9647 8.44074C23.9525 9.21895 23.0023 9.57767 22.116 9.57767C20.8871 9.57767 20.2286 9.39272 19.2278 8.95976L18.8225 8.77416L18.3917 11.3818C19.1137 11.7027 20.4438 11.9875 21.8248 12C25.0548 12 27.1576 10.4428 27.1825 8.03291C27.1948 6.71054 26.3721 5.69729 24.5986 4.86931C23.5219 4.33781 22.8626 3.97942 22.8626 3.43559C22.8752 2.9412 23.4203 2.43482 24.6356 2.43482C25.6364 2.41002 26.3716 2.64473 26.9286 2.87961L27.2071 3.00296L27.6257 0.494553Z" fill="#00579F"/>
<path d="M31.7169 7.71152C31.9704 7.04418 32.9459 4.46137 32.9459 4.46137C32.9331 4.48617 33.1989 3.78171 33.3509 3.34924L33.566 4.35017C33.566 4.35017 34.149 7.13073 34.2756 7.71152C33.7945 7.71152 32.3249 7.71152 31.7169 7.71152ZM35.5167 0.210449H33.1356C32.4014 0.210449 31.8435 0.420359 31.5267 1.17426L26.9543 11.8266H30.1843C30.1843 11.8266 30.716 10.3929 30.8303 10.0841C31.1847 10.0841 34.3267 10.0841 34.7826 10.0841C34.8709 10.4919 35.1499 11.8266 35.1499 11.8266H38L35.5167 0.210449Z" fill="#00579F"/>
<path d="M10.8171 0.210449L7.8025 8.13167L7.47307 6.52515C6.91573 4.67144 5.16778 2.65742 3.21716 1.656L5.97846 11.8144H9.23365L14.0721 0.210449H10.8171Z" fill="#00579F"/>
<path d="M5.0033 0.210449H0.0506674L0 0.44516C3.86336 1.40914 6.42199 3.73276 7.47322 6.52564L6.39657 1.18691C6.21932 0.444996 5.6746 0.234922 5.0033 0.210449Z" fill="#FAA61A"/>
</svg>
