<svg width="40" height="15" viewBox="0 0 40 15" fill="none" xmlns="http://www.w3.org/2000/svg">
<g clip-path="url(#clip0)">
<path d="M18.9187 7.32807V11.7251H17.4415V0.866452H21.3592C21.8269 0.857228 22.2918 0.935548 22.7272 1.09689C23.1626 1.25824 23.5599 1.49941 23.8961 1.8065C24.2357 2.09494 24.506 2.44868 24.6887 2.84395C24.8715 3.23922 24.9626 3.66686 24.9558 4.09813C24.9655 4.5317 24.8759 4.96213 24.693 5.35992C24.51 5.75771 24.2382 6.11345 23.8961 6.40276C23.211 7.01963 22.3654 7.32778 21.3592 7.32721H18.9187V7.32807ZM18.9187 2.20331V5.99381H21.3959C21.6675 6.00142 21.9378 5.95541 22.1894 5.85873C22.4411 5.76206 22.6687 5.61685 22.8575 5.43239C23.0454 5.25992 23.1947 5.05363 23.2966 4.82572C23.3986 4.59781 23.4512 4.35291 23.4512 4.10549C23.4512 3.85808 23.3986 3.61317 23.2966 3.38526C23.1947 3.15736 23.0454 2.95107 22.8575 2.7786C22.671 2.59025 22.4443 2.44148 22.1923 2.34215C21.9403 2.24282 21.6689 2.1952 21.3959 2.20244H18.9187V2.20331Z" fill="#D6D6D6"/>
<path d="M28.3598 4.05322C29.4516 4.05322 30.3134 4.32874 30.9453 4.87977C31.5771 5.4308 31.8927 6.1863 31.8921 7.14627V11.7252H30.4792V10.6942H30.4149C29.8033 11.5433 28.9898 11.9678 27.9744 11.9678C27.1077 11.9678 26.3826 11.7252 25.799 11.24C25.519 11.0173 25.2951 10.7384 25.1437 10.4237C24.9923 10.1089 24.9171 9.76623 24.9237 9.42058C24.9237 8.65179 25.2314 8.0404 25.8467 7.58641C26.4621 7.13241 27.2835 6.90484 28.3111 6.90368C29.1883 6.90368 29.9106 7.0553 30.4783 7.35854V7.03971C30.4799 6.80406 30.426 6.57102 30.3205 6.35747C30.215 6.14393 30.0605 5.95524 29.8681 5.80509C29.4775 5.47228 28.9684 5.29069 28.4423 5.29651C27.6172 5.29651 26.9642 5.62516 26.4835 6.28247L25.1825 5.50878C25.8981 4.53841 26.9572 4.05322 28.3598 4.05322ZM26.4486 9.4509C26.4476 9.62843 26.4916 9.80361 26.5768 9.96185C26.662 10.1201 26.7861 10.2568 26.9386 10.3606C27.2653 10.6033 27.6708 10.7319 28.0863 10.7245C28.7097 10.7235 29.3072 10.4892 29.7479 10.073C30.2373 9.63804 30.4819 9.12773 30.4819 8.54205C30.0213 8.19548 29.3791 8.0222 28.5552 8.0222C27.9551 8.0222 27.4548 8.15881 27.0542 8.43201C26.6495 8.70926 26.4486 9.04629 26.4486 9.4509Z" fill="#D6D6D6"/>
<path d="M40.0028 4.29541L35.0704 14.9998H33.5455L35.3759 11.2543L32.1326 4.29541H33.7382L36.0824 9.63244H36.1145L38.3945 4.29541H40.0028Z" fill="#D6D6D6"/>
<path d="M12.9495 6.38023C12.9501 5.95513 12.912 5.53077 12.8357 5.11182H6.60596V7.51435H10.1741C10.1011 7.89807 9.94654 8.26385 9.71979 8.58965C9.49304 8.91545 9.19877 9.19452 8.85473 9.41003V10.9696H10.9842C12.2311 9.88395 12.9495 8.27851 12.9495 6.38023Z" fill="#4285F4"/>
<path d="M6.60598 12.4763C8.38867 12.4763 9.88969 11.9236 10.9843 10.9705L8.85476 9.41099C8.26205 9.79047 7.4987 10.0071 6.60598 10.0071C4.88292 10.0071 3.42044 8.91021 2.89746 7.43213H0.703735V9.0393C1.25356 10.0725 2.09665 10.941 3.13889 11.5479C4.18113 12.1548 5.3815 12.4763 6.60598 12.4763Z" fill="#34A853"/>
<path d="M2.89739 7.43199C2.62091 6.65746 2.62091 5.81871 2.89739 5.04419V3.43701H0.703662C0.24113 4.30615 0.000244141 5.26538 0.000244141 6.23809C0.000244141 7.2108 0.24113 8.17003 0.703662 9.03916L2.89739 7.43199Z" fill="#FBBC04"/>
<path d="M6.60598 2.46916C7.54805 2.45463 8.45834 2.79075 9.14009 3.40488L11.0255 1.62442C9.82997 0.564014 8.24611 -0.0181686 6.60598 -7.90045e-05C5.3815 -2.63056e-05 4.18113 0.321403 3.13889 0.928324C2.09665 1.53524 1.25356 2.40377 0.703735 3.43693L2.89746 5.04411C3.42044 3.56603 4.88292 2.46916 6.60598 2.46916Z" fill="#EA4335"/>
</g>
<defs>
<clipPath id="clip0">
<rect width="40" height="15" fill="white"/>
</clipPath>
</defs>
</svg>
