<svg width="25" height="18" viewBox="0 0 25 18" fill="none" xmlns="http://www.w3.org/2000/svg">
<path d="M16.1228 0C11.1794 0 7.24707 4.0443 7.24707 9C7.24707 14.0127 11.2355 18 16.1228 18C21.0101 18 24.9985 13.9557 24.9985 9C24.9985 4.0443 21.0101 0 16.1228 0ZM16.1228 12.3608C14.3252 12.3608 12.8085 10.8228 12.8085 9C12.8085 7.17722 14.3252 5.63924 16.1228 5.63924C17.9204 5.63924 19.4371 7.17722 19.4371 9C19.3811 10.8228 17.9204 12.3608 16.1228 12.3608Z" fill="#8B3FFD"/>
<path d="M7.19047 2.62012V15.7214H4.04465L0 2.62012H7.19047Z" fill="#8B3FFD"/>
</svg>
