<svg width="35" height="15" viewBox="0 0 35 15" fill="none" xmlns="http://www.w3.org/2000/svg">
<path d="M6.3998 1.93387C5.98964 2.44053 5.33339 2.84015 4.67714 2.78306C4.59511 2.098 4.9164 1.37012 5.29238 0.920552C5.70253 0.399619 6.42031 0.0285442 7.00136 0C7.06972 0.713606 6.80312 1.41294 6.3998 1.93387ZM6.99452 2.91865C6.04433 2.86156 5.23085 3.4824 4.77968 3.4824C4.32167 3.4824 3.63124 2.94719 2.87929 2.96147C1.90175 2.97574 0.992572 3.55376 0.493549 4.47431C-0.531842 6.31541 0.226947 9.04139 1.21816 10.54C1.70351 11.2821 2.28456 12.0956 3.05019 12.0671C3.7748 12.0385 4.06191 11.5747 4.93691 11.5747C5.81874 11.5747 6.07167 12.0671 6.8373 12.0528C7.63027 12.0385 8.12929 11.3107 8.61464 10.5685C9.16835 9.72645 9.39394 8.9058 9.40761 8.86299C9.39394 8.84872 7.87636 8.24215 7.86269 6.41532C7.84902 4.8882 9.05898 4.16032 9.11367 4.11751C8.43007 3.06137 7.36367 2.94719 6.99452 2.91865ZM12.4838 0.849191V11.9743H14.1381V8.17079H16.4281C18.5199 8.17079 19.9896 6.67222 19.9896 4.50285C19.9896 2.33349 18.5473 0.849191 16.4828 0.849191H12.4838ZM14.1381 2.30495H16.0453C17.4809 2.30495 18.3012 3.10419 18.3012 4.50999C18.3012 5.91579 17.4809 6.72217 16.0385 6.72217H14.1381V2.30495ZM23.0111 12.0599C24.0502 12.0599 25.0141 11.5105 25.4516 10.6399H25.4857V11.9743H27.017V6.43673C27.017 4.83111 25.7865 3.79638 23.893 3.79638C22.1361 3.79638 20.8373 4.84539 20.7894 6.28687H22.2797C22.4027 5.60181 23.0111 5.15224 23.8451 5.15224C24.8568 5.15224 25.4242 5.64462 25.4242 6.5509V7.16461L23.3598 7.29305C21.4389 7.41437 20.3998 8.23501 20.3998 9.66223C20.3998 11.1037 21.473 12.0599 23.0111 12.0599ZM23.4555 10.7398C22.5736 10.7398 22.0131 10.2973 22.0131 9.61941C22.0131 8.92008 22.5531 8.51332 23.5853 8.4491L25.4242 8.32778V8.95576C25.4242 9.99762 24.5766 10.7398 23.4555 10.7398ZM29.0609 15C30.6742 15 31.433 14.3578 32.0961 12.4096L35.0014 3.90343H33.3197L31.3715 10.4757H31.3373L29.3891 3.90343H27.6596L30.4623 12.0029L30.3119 12.4952C30.059 13.3302 29.6488 13.6513 28.9174 13.6513C28.7875 13.6513 28.5346 13.637 28.432 13.6227V14.9572C28.5277 14.9857 28.9379 15 29.0609 15Z" fill="#D6D6D6"/>
</svg>
