<svg width="28" height="18" viewBox="0 0 28 18" fill="none" xmlns="http://www.w3.org/2000/svg">
<path d="M17.7115 2.18701H10.2709V15.8145H17.7115V2.18701Z" fill="#FF5F00"/>
<path d="M10.7417 9.00015C10.7405 7.68773 11.0323 6.39223 11.595 5.21174C12.1577 4.03125 12.9766 2.99671 13.9896 2.18643C12.7351 1.18149 11.2286 0.556537 9.6421 0.382994C8.05563 0.209451 6.45326 0.494316 5.01814 1.20504C3.58301 1.91577 2.37303 3.02368 1.52651 4.40213C0.67999 5.78058 0.231079 7.37396 0.231079 9.00015C0.231079 10.6263 0.67999 12.2197 1.52651 13.5982C2.37303 14.9766 3.58301 16.0845 5.01814 16.7953C6.45326 17.506 8.05563 17.7908 9.6421 17.6173C11.2286 17.4438 12.7351 16.8188 13.9896 15.8139C12.9766 15.0036 12.1578 13.969 11.5951 12.7885C11.0324 11.6081 10.7406 10.3126 10.7417 9.00015Z" fill="#EB001B"/>
<path d="M27.7493 9.00015C27.7493 10.6263 27.3005 12.2197 26.454 13.5981C25.6075 14.9766 24.3976 16.0845 22.9625 16.7952C21.5274 17.506 19.9251 17.7908 18.3386 17.6173C16.7522 17.4438 15.2456 16.8188 13.9912 15.8139C15.0033 15.0028 15.8215 13.9681 16.3841 12.7878C16.9467 11.6074 17.239 10.3124 17.239 9.00015C17.239 7.68793 16.9467 6.39285 16.3841 5.21254C15.8215 4.03224 15.0033 2.99753 13.9912 2.18643C15.2456 1.18149 16.7522 0.556532 18.3386 0.382991C19.9251 0.20945 21.5274 0.494328 22.9625 1.20506C24.3976 1.9158 25.6075 3.02371 26.454 4.40216C27.3005 5.78061 27.7493 7.37398 27.7493 9.00015Z" fill="#F79E1B"/>
</svg>
