<svg width="54" height="54" viewBox="0 0 54 54" fill="none" xmlns="http://www.w3.org/2000/svg">
<mask id="mask0" mask-type="alpha" maskUnits="userSpaceOnUse" x="0" y="0" width="54" height="54">
<path d="M54 0.771484H0.147339V53.8448H54V0.771484Z" fill="white"/>
</mask>
<g mask="url(#mask0)">
<path fill-rule="evenodd" clip-rule="evenodd" d="M43.6511 3.75989C48.5011 4.15332 50.4173 5.82115 51.0344 10.5276C51.9864 17.7937 52.0419 25.1261 50.9087 32.3783C50.0902 37.6156 47.5723 40.1081 42.3775 39.9252C37.5962 39.7563 34.1278 41.4249 30.8323 44.5592C29.7811 45.56 27.7681 47.1112 24.7933 49.2129C25.3587 45.8625 25.7671 43.507 26.0186 42.1462C26.4089 40.0386 26.0116 39.1283 23.6202 39.1152C20.0361 39.0959 16.4405 38.8128 12.8734 38.4248C7.41865 37.83 5.07582 35.6693 4.18945 30.3433C3.11408 23.8865 2.44062 17.3679 2.37737 10.8231C2.33108 5.93763 3.87857 4.47732 8.68148 3.90261C15.1962 3.12269 21.731 2.99541 28.2827 3.01161C33.4073 3.24766 38.5419 3.34564 43.6511 3.75989ZM33.8972 44.4512C35.7417 42.9053 37.5237 42.0821 40.0794 42.1369C49.0241 42.3259 52.5634 39.2487 53.4482 30.4181C54.1263 23.6535 54.3068 16.8294 53.2531 10.0709C52.3844 4.50201 49.6197 1.84906 44.0708 1.49498C32.288 0.742064 20.4928 0.296178 8.70771 1.60298C2.35191 2.30884 0.0538254 4.63469 0.150253 11.0669C0.255169 18.1231 0.871536 25.1647 2.22231 32.1045C3.09788 36.6027 5.946 39.2672 10.4666 40.125C14.1424 40.8224 17.8646 40.9991 21.5836 40.8818C23.7066 40.8155 24.6308 41.1912 24.0036 43.6088C23.243 46.5387 22.8395 49.5612 22.0388 53.8449C26.6002 50.2516 30.3255 47.4436 33.8972 44.4512Z" fill="black"/>
</g>
<path fill-rule="evenodd" clip-rule="evenodd" d="M15.0526 17.7692C15.1822 23.1638 21.4007 30.9645 26.6773 32.3168C27.1502 32.4379 27.6909 32.4641 28.1677 32.37C34.0652 31.2075 40.3817 22.9802 40.0268 16.9592C39.6998 11.4072 34.7912 8.50587 29.9682 11.2784C28.0635 12.373 26.918 12.4016 24.9724 11.2846C19.7807 8.30529 14.9053 11.6263 15.0526 17.7692Z" fill="#FE5252"/>
</svg>
