<svg width="43" height="39" viewBox="0 0 43 39" fill="none" xmlns="http://www.w3.org/2000/svg">
<path fill-rule="evenodd" clip-rule="evenodd" d="M0.0346043 11.2263C-0.313209 5.96494 1.98205 4.89901 5.96617 3.71761C8.45833 2.97912 10.9275 2.16865 13.4484 1.52449C14.027 1.37686 14.5931 1.09567 14.8151 1.77352C14.9969 2.32915 14.3454 2.37203 13.9371 2.55489C11.1065 3.82604 8.12261 4.63375 5.17891 5.55939C2.00111 6.55885 0.967045 8.56727 1.5184 12.1084C1.96028 14.9444 2.34227 17.8231 3.1628 20.5559C4.04595 23.4964 4.67292 26.5857 6.5995 29.1351C7.74788 30.6549 9.16152 31.4023 11.0542 31.2831C13.2536 31.145 15.3719 30.5333 17.4491 29.9207C19.9473 29.1841 22.389 28.2088 24.7671 27.0813C28.368 25.3737 29.6683 22.4752 28.2952 18.643C27.7813 17.2086 27.7629 15.694 27.3987 14.2295C26.6184 11.0952 26.1584 7.87625 24.8878 4.87941C23.6227 1.89543 20.5005 0.732401 17.5613 2.21765C16.7868 2.6088 16.2306 2.44248 15.9584 1.81977C15.6765 1.17439 16.4505 0.915263 16.8545 0.7615C22.3403 -1.32349 25.823 0.934253 27.2929 6.78337C28.072 9.88222 28.9518 12.9691 29.4792 16.1142C29.8709 18.4498 30.5953 20.7979 30.2341 23.2127C29.8797 25.582 28.3623 27.1429 26.3429 28.1512C23.0622 29.7893 19.641 31.0384 16.0906 32.0057C14.6358 32.4024 13.1529 32.6088 11.7099 32.8434C8.76803 33.3225 6.05146 32.1922 4.38287 28.5476C2.54279 24.5274 1.43992 20.2955 0.591407 15.8811C0.346426 14.3282 0.142275 12.7881 0.0346043 11.2263Z" fill="black"/>
<path fill-rule="evenodd" clip-rule="evenodd" d="M40.4785 15.4022C40.8807 15.4022 41.2863 15.4372 41.6837 15.3937C42.2136 15.3355 42.4193 15.6574 42.4728 16.0752C42.53 16.5172 42.5055 16.9818 41.9338 17.1288C37.6802 18.2199 37.5103 24.6519 41.0404 26.6165C41.4814 26.8619 42.148 27.3115 41.8431 28.1299C41.5585 28.8939 40.9194 28.7429 40.3269 28.7919C39.3461 28.873 38.3595 28.6583 37.386 29.1288C34.3264 30.6082 33.384 33.1603 34.866 36.3057C35.0465 36.6886 35.0934 37.0699 35.1911 37.455C35.2942 37.8614 35.2897 38.3674 34.9555 38.5454C34.6013 38.7338 34.1846 38.6581 33.743 38.3138C32.5601 37.3925 31.4269 36.3869 29.9134 35.948C27.3602 35.207 24.8233 34.4685 22.2144 35.5966C21.3736 35.9599 20.8661 36.7474 20.3344 37.4856C20.1526 37.7383 20.0779 38.4125 19.4845 38.0195C19.1161 37.7751 19.0006 37.39 19.1055 36.9444C19.4751 35.3773 20.5739 34.3809 21.9322 33.8568C24.4171 32.8978 26.9585 33.4087 29.4425 34.0302C30.4355 34.2786 31.5361 35.2089 32.3118 34.9574C33.4148 34.5999 32.457 33.2271 32.6345 32.2852C33.0779 29.9347 34.4447 28.2074 36.8031 27.5988C38.3795 27.1924 38.3704 27.0322 37.683 25.6066C36.4965 23.1483 36.2146 20.6397 37.9171 18.2521C38.5086 17.4226 38.4294 16.9656 37.4195 16.5702C34.5046 15.428 32.8577 12.9987 33.3429 9.93721C33.3891 9.64592 33.3459 9.34177 33.6296 9.10867C34.0352 8.77542 34.0116 7.69877 34.8336 8.16343C35.4001 8.48443 34.9588 9.07467 34.7432 9.59722C34.1882 10.941 35.2053 13.4924 37.3143 14.7694C38.3263 15.3826 39.3836 15.4188 40.4785 15.4022Z" fill="black"/>
<path fill-rule="evenodd" clip-rule="evenodd" d="M10.353 16.1626C10.1116 17.4987 10.9155 18.7799 11.6874 19.909C13.6016 22.7095 17.5219 23.3337 19.2107 19.8391C19.4651 19.3126 19.433 18.6504 19.6532 18.0999C20.4456 16.1194 19.7609 14.3864 18.6905 12.8187C17.5866 11.2024 15.8539 11.3877 14.2183 11.6921C11.6553 12.169 10.3536 13.6485 10.353 16.1626ZM21.2704 16.4135C21.4156 20.0189 20.3001 22.4001 17.1187 23.572C15.1035 24.3142 13.5462 23.5423 12.018 22.3848C9.28718 20.317 8.11822 16.0526 9.83158 13.4549C11.247 11.3087 13.1161 9.62829 16.0296 9.83106C18.4997 10.0029 19.9551 11.4143 20.9592 13.5168C21.4627 14.5714 21.1933 15.7084 21.2704 16.4135Z" fill="black"/>
<path fill-rule="evenodd" clip-rule="evenodd" d="M18.1793 6.44679C18.1992 5.01698 18.7368 4.33699 19.7 4.29656C20.897 4.25368 21.4118 5.05925 21.4617 6.05074C21.5092 6.99568 20.9264 7.89467 19.9465 7.85975C19.0128 7.82637 18.1248 7.29095 18.1793 6.44679Z" fill="black"/>
</svg>
