<svg width="63" height="58" viewBox="0 0 63 58" fill="none" xmlns="http://www.w3.org/2000/svg">
<path fill-rule="evenodd" clip-rule="evenodd" d="M5.3859 35.569C7.84327 39.3934 10.2398 43.2609 12.833 46.9915C14.8268 49.8595 17.3595 52.1439 21.2511 51.1282C23.9993 50.4112 26.7463 49.5557 29.3402 48.4133C33.2204 46.7046 33.7188 46.6732 36.0373 50.1813C36.9584 51.5744 38.1065 52.7278 39.2262 53.9287C39.4296 54.1469 39.4641 54.5747 39.9139 54.404C40.3248 54.247 40.2067 53.8624 40.2102 53.5657C40.2342 51.6051 40.2742 49.6436 40.2369 47.6837C40.1922 45.3416 41.3068 43.7295 43.2909 42.6585C48.7033 39.7375 53.5163 36.0152 57.9134 31.7423C61.5934 28.1655 61.0058 25.7096 59.2808 22.0881C56.8984 17.0856 53.901 12.4328 51.1037 7.66421C48.0698 2.49219 43.7807 0.649269 38.1312 2.69312C34.4398 4.02861 30.7795 5.47673 27.1922 7.13284C19.176 10.8328 11.8235 15.5013 5.09663 21.1969C3.28687 22.7298 2.05249 24.4793 2.41398 26.7468C2.27896 30.2392 3.70566 32.9541 5.3859 35.569ZM51.8989 5.68983C55.7225 11.2512 58.9743 17.1386 61.9121 23.205C63.2638 25.9965 62.2276 30.1183 59.3421 33.0177C54.9203 37.4606 49.7948 41.0024 44.3313 44.0007C42.6228 44.9382 42.133 46.1744 42.031 47.7928C41.8512 50.6581 41.7809 53.53 41.6553 56.3992C41.6365 56.8293 41.8571 57.3406 41.3319 57.6354C40.7471 57.963 40.3774 57.5647 39.9551 57.2421C37.6119 55.4514 35.5832 53.3397 33.9194 50.9265C32.9594 49.5341 32.145 49.3552 30.5621 50.0624C27.1246 51.5976 23.4981 52.7863 19.7808 53.3192C16.9431 53.7262 14.4999 52.2271 12.7823 49.9941C8.38058 44.2718 3.87482 38.5045 1.24004 31.7666C-1.09408 25.7979 -0.513201 22.7156 6.29058 17.495C13.6313 11.8626 21.5843 7.26588 30.0546 3.64048C33.6368 2.10681 37.1943 0.138698 41.4666 0.153611C46.2341 -0.678371 49.3407 1.96867 51.8989 5.68983Z" fill="black"/>
<path fill-rule="evenodd" clip-rule="evenodd" d="M38.8023 20.56C39.5716 22.4645 37.4506 22.0093 36.832 22.8008C36.4203 23.3275 35.6561 22.6266 35.5227 21.8982C35.1494 19.8618 34.074 18.148 33.1183 16.3671C32.8066 15.7871 32.4114 15.3197 31.8721 15.6105C31.4219 15.853 31.6637 16.4059 31.8812 16.9573C32.5963 18.7732 33.6662 20.4218 34.0771 22.3982C34.5673 24.7568 35.7377 25.2901 37.5047 24.3569C40.2137 22.926 40.2486 22.9064 41.7542 25.5432C42.0266 26.0204 42.5058 26.3073 42.6942 26.9062C42.8155 27.2923 43.1008 28.3508 43.9906 27.9034C44.8238 27.485 44.241 26.5287 44.0377 26.2477C42.2393 23.7654 41.1356 20.7837 38.7403 18.6488C38.376 19.3709 38.5586 19.9564 38.8023 20.56ZM48.1341 15.9566C48.0725 14.979 48.0764 13.9916 47.9225 13.0297C47.8429 12.5321 47.4378 12.0113 46.8577 12.0804C46.2031 12.1581 46.4774 12.808 46.4601 13.1953C46.4103 14.3036 46.4664 15.4166 46.4421 16.5268C46.4327 16.9471 46.6242 17.6166 46.0158 17.6496C45.6116 17.6716 45.1308 17.4059 44.8764 16.8149C44.3913 15.6862 43.4859 14.8471 42.5659 14.0289C42.3225 13.8123 42.1942 13.4783 41.8472 13.651C41.4622 13.8417 41.3209 14.1949 41.5061 14.6399C41.6549 14.9975 41.6839 15.4288 41.9006 15.7305C43.8811 18.4855 45.7431 21.3076 47.2828 24.342C47.6635 25.0923 48.4968 25.8485 49.3049 25.2756C49.9423 24.8235 49.6475 23.8726 49.1039 23.1937C48.8704 22.9021 48.7381 22.5277 48.5717 22.1851C48.4285 21.8884 47.8437 21.7228 48.2703 21.253C48.5156 20.983 48.8315 20.9453 49.1565 21.0956C50.2166 21.5862 51.4856 21.1212 52.5107 21.917C53.1823 22.4386 53.8036 21.9076 54.1498 21.3578C54.6992 20.4846 53.6132 20.4324 53.2906 20.2115C52.8051 19.8795 52.0664 19.8999 51.4302 19.808C48.0795 19.3238 48.0054 19.2433 48.1341 15.9566ZM13.338 23.3926C13.3059 26.1252 15.2345 28.1832 17.7712 28.1228C19.8451 28.0733 22.0799 25.6402 22.0874 23.4252C22.0949 21.0701 20.1834 19.02 17.9478 18.9859C15.4386 18.9474 13.3671 20.9277 13.338 23.3926ZM16.6302 38.3452C16.3096 40.2305 16.9784 42.1892 17.4258 44.1863C17.655 45.2082 18.4231 45.0615 18.9043 44.7722C23.2064 42.1911 27.784 40.1465 32.2183 37.8256C32.9562 37.4394 33.3781 37.1086 32.566 36.0996C31.4447 34.7064 30.4474 33.2053 29.0474 32.0817C24.4278 28.3759 22.7609 28.6922 18.6304 31.5983C16.412 33.159 16.4956 35.7091 16.6302 38.3452Z" fill="#FCFCFC"/>
<path fill-rule="evenodd" clip-rule="evenodd" d="M16.6302 38.3455C16.4956 35.7091 16.412 33.159 18.6303 31.5986C22.7609 28.6922 24.4278 28.3763 29.0474 32.0821C30.4474 33.2053 31.4447 34.7068 32.566 36.0996C33.3781 37.1089 32.9561 37.4394 32.2183 37.8259C27.7839 40.1468 23.2063 42.1915 18.9043 44.7726C18.4231 45.0614 17.655 45.2082 17.4258 44.1867C16.9783 42.1895 16.3095 40.2308 16.6302 38.3455Z" fill="#FE5252"/>
<path fill-rule="evenodd" clip-rule="evenodd" d="M13.3379 23.3927C13.367 20.9277 15.4385 18.9474 17.9477 18.9859C20.1833 19.02 22.0951 21.0702 22.0873 23.4252C22.0798 25.6406 19.845 28.0734 17.7711 28.1228C15.2348 28.1832 13.3057 26.1253 13.3379 23.3927Z" fill="#FE5252"/>
<path fill-rule="evenodd" clip-rule="evenodd" d="M48.1339 15.9566C48.0051 19.2433 48.0793 19.3238 51.43 19.808C52.0666 19.9003 52.8053 19.8795 53.2908 20.2119C53.613 20.4324 54.699 20.4846 54.1495 21.3582C53.8038 21.9076 53.1825 22.439 52.5109 21.917C51.4857 21.1212 50.2168 21.5866 49.1563 21.096C48.8313 20.9453 48.5154 20.9834 48.2705 21.253C47.8438 21.7228 48.4282 21.8884 48.5719 22.1851C48.7379 22.5277 48.8702 22.9021 49.1037 23.1937C49.6473 23.8726 49.9421 24.8239 49.3051 25.2756C48.4969 25.8485 47.6633 25.0923 47.2826 24.342C45.7432 21.308 43.8813 18.4855 41.9008 15.7309C41.6837 15.4288 41.6551 14.9978 41.5063 14.6403C41.3211 14.1953 41.462 13.8417 41.847 13.651C42.194 13.4787 42.3227 13.8123 42.5656 14.0289C43.486 14.8475 44.3915 15.6866 44.8766 16.8153C45.1306 17.4059 45.6114 17.6716 46.016 17.6496C46.6244 17.6166 46.4324 16.9471 46.4419 16.5268C46.4662 15.4166 46.4105 14.3036 46.4599 13.1953C46.4776 12.8084 46.2028 12.1581 46.8575 12.0804C47.4376 12.0113 47.843 12.5321 47.9223 13.0297C48.0766 13.9916 48.0723 14.9794 48.1339 15.9566Z" fill="black"/>
<path fill-rule="evenodd" clip-rule="evenodd" d="M38.7402 18.6496C41.1356 20.7845 42.2393 23.7663 44.0376 26.2485C44.241 26.5295 44.8238 27.4859 43.9905 27.9043C43.1008 28.3517 42.8154 27.2932 42.6942 26.9071C42.5058 26.3082 42.0265 26.0213 41.7541 25.5441C40.2486 22.9073 40.2136 22.9269 37.5047 24.3577C35.7377 25.291 34.5673 24.7576 34.0771 22.3991C33.6661 20.4227 32.5962 18.774 31.8811 16.9582C31.6637 16.4068 31.4219 15.8539 31.8721 15.6113C32.4114 15.3205 32.8066 15.7879 33.1182 16.368C34.0739 18.1489 35.1494 19.8627 35.5226 21.8991C35.6561 22.6275 36.4202 23.3284 36.832 22.8017C37.4505 22.0101 39.5715 22.4654 38.8022 20.5608C38.5585 19.9573 38.376 19.3717 38.7402 18.6496Z" fill="black"/>
</svg>
