<svg width="27" height="18" viewBox="0 0 27 18" fill="none" xmlns="http://www.w3.org/2000/svg">
<g clip-path="url(#clip0)">
<path d="M16.3481 0C11.3355 0 7.34814 4.04431 7.34814 9C7.34814 14.0126 11.3925 18 16.3481 18C21.3038 18 25.3481 13.9557 25.3481 9C25.4051 4.04431 21.3038 0 16.3481 0ZM16.3481 12.3607C14.5254 12.3607 12.9874 10.8228 12.9874 9C12.9874 7.17721 14.5254 5.63926 16.3481 5.63926C18.1709 5.63926 19.7089 7.17721 19.7089 9C19.7089 10.8228 18.2279 12.3607 16.3481 12.3607Z" fill="#8B3FFD"/>
<path d="M7.3481 2.62012V15.7214H4.10126L0 2.62012H7.3481Z" fill="#8B3FFD"/>
</g>
<defs>
<clipPath id="clip0">
<rect width="27" height="18" fill="white"/>
</clipPath>
</defs>
</svg>
