<svg width="20" height="20" viewBox="0 0 20 20" fill="none" xmlns="http://www.w3.org/2000/svg">
<path d="M3.15846 10.3237C3.05499 10.2039 2.9641 10.095 2.8866 10C2.9641 9.90497 3.05499 9.79609 3.15846 9.67628C3.54711 9.22626 4.10884 8.62713 4.80062 8.02983C6.2059 6.81647 8.04436 5.7 10 5.7C11.9556 5.7 13.7941 6.81647 15.1994 8.02983C15.8912 8.62713 16.4529 9.22626 16.8415 9.67628C16.945 9.79609 17.0359 9.90497 17.1134 10C17.0359 10.095 16.945 10.2039 16.8415 10.3237C16.4529 10.7737 15.8912 11.3729 15.1994 11.9702C13.7941 13.1835 11.9556 14.3 10 14.3C8.04436 14.3 6.2059 13.1835 4.80062 11.9702C4.10884 11.3729 3.54711 10.7737 3.15846 10.3237Z" stroke="#90A0B7" stroke-width="1.4"/>
<circle cx="10" cy="10" r="2.3" stroke="#90A0B7" stroke-width="1.4"/>
<path d="M3.15846 10.3237C3.05499 10.2039 2.9641 10.095 2.8866 10C2.9641 9.90497 3.05499 9.79609 3.15846 9.67628C3.54711 9.22626 4.10884 8.62713 4.80062 8.02983C6.2059 6.81647 8.04436 5.7 10 5.7C11.9556 5.7 13.7941 6.81647 15.1994 8.02983C15.8912 8.62713 16.4529 9.22626 16.8415 9.67628C16.945 9.79609 17.0359 9.90497 17.1134 10C17.0359 10.095 16.945 10.2039 16.8415 10.3237C16.4529 10.7737 15.8912 11.3729 15.1994 11.9702C13.7941 13.1835 11.9556 14.3 10 14.3C8.04436 14.3 6.2059 13.1835 4.80062 11.9702C4.10884 11.3729 3.54711 10.7737 3.15846 10.3237Z" stroke="#CBCBCB" stroke-width="1.4"/>
<circle cx="10" cy="10" r="2.3" stroke="#CBCBCB" stroke-width="1.4"/>
<path d="M17.495 3.49497C17.7683 3.22161 17.7683 2.77839 17.495 2.50503C17.2216 2.23166 16.7784 2.23166 16.505 2.50503L17.495 3.49497ZM2.50503 16.505C2.23166 16.7784 2.23166 17.2216 2.50503 17.495C2.77839 17.7683 3.22161 17.7683 3.49497 17.495L2.50503 16.505ZM16.505 2.50503L2.50503 16.505L3.49497 17.495L17.495 3.49497L16.505 2.50503Z" fill="#CBCBCB"/>
</svg>
