<svg width="44" height="44" viewBox="0 0 44 44" fill="none" xmlns="http://www.w3.org/2000/svg">
<g clip-path="url(#clip0)">
<path d="M41.14 4.08203H10.5316C9.6536 4.08203 8.81156 4.43084 8.19073 5.05167L0.969639 12.2728C0.348808 12.8936 0 13.7356 0 14.6136V37.0584C0 38.6313 1.28696 39.9184 2.86 39.9184H41.1409C42.7135 39.9184 44 38.6318 44 37.0593V6.94203C44 5.36907 42.713 4.08203 41.14 4.08203Z" fill="url(#paint0_linear)"/>
<path d="M41.14 4.08203H10.5316C9.6536 4.08203 8.81157 4.43084 8.19073 5.05167L0.96964 12.2728C0.50902 12.7334 0.198605 13.3159 0.0688477 13.9443L26.0428 39.9183H41.141C42.7135 39.9183 44 38.6317 44 37.0592V6.94203C44 5.36907 42.7131 4.08203 41.14 4.08203Z" fill="url(#paint1_linear)"/>
<path d="M19.245 36.445H6.0147C5.12288 36.445 4.3999 35.722 4.3999 34.8302V24.2911C4.3999 23.3993 5.12288 22.6763 6.0147 22.6763H19.245C20.1368 22.6763 20.8598 23.3993 20.8598 24.2911V34.8303C20.8597 35.722 20.1368 36.445 19.245 36.445Z" fill="url(#paint2_linear)"/>
<path d="M19.245 22.6763H8.80103L20.8597 34.7349V24.2911C20.8597 23.3993 20.1368 22.6763 19.245 22.6763Z" fill="url(#paint3_linear)"/>
<path d="M28.6682 21.3235H15.4378C14.546 21.3235 13.823 20.6005 13.823 19.7087V9.16949C13.823 8.27767 14.546 7.55469 15.4378 7.55469H28.6681C29.5599 7.55469 30.2829 8.27767 30.2829 9.16949V19.7087C30.2829 20.6005 29.56 21.3235 28.6682 21.3235Z" fill="url(#paint4_linear)"/>
<path d="M28.6683 36.445H24.3543C23.4625 36.445 22.7395 35.722 22.7395 34.8302V24.2911C22.7395 23.3993 23.4625 22.6763 24.3543 22.6763H28.6683C29.5601 22.6763 30.2831 23.3993 30.2831 24.2911V34.8303C30.283 35.722 29.5601 36.445 28.6683 36.445Z" fill="url(#paint5_linear)"/>
<path d="M10.3286 21.3235H6.0147C5.12288 21.3235 4.3999 20.6005 4.3999 19.7087V10.5499C4.3999 8.89574 5.74087 7.55469 7.3951 7.55469H10.3287C11.2205 7.55469 11.9435 8.27767 11.9435 9.16949V19.7087C11.9434 20.6005 11.2204 21.3235 10.3286 21.3235Z" fill="url(#paint6_linear)"/>
<path d="M10.3286 7.55566H7.3951C5.74087 7.55566 4.3999 8.89663 4.3999 10.5508V18.2762L7.44807 21.3244H10.3287C11.2205 21.3244 11.9435 20.6014 11.9435 19.7096V9.17038C11.9434 8.27864 11.2204 7.55566 10.3286 7.55566Z" fill="url(#paint7_linear)"/>
<path d="M37.9852 28.2078H33.6712C32.7794 28.2078 32.0564 27.4848 32.0564 26.593V16.0538C32.0564 15.1619 32.7794 14.439 33.6712 14.439H37.9852C38.877 14.439 39.6 15.1619 39.6 16.0538V26.593C39.6 27.4848 38.877 28.2078 37.9852 28.2078Z" fill="url(#paint8_linear)"/>
<path d="M37.9852 36.445H33.6712C32.7794 36.445 32.0564 35.722 32.0564 34.8302V31.1753C32.0564 30.2835 32.7794 29.5605 33.6712 29.5605H37.9852C38.877 29.5605 39.6 30.2835 39.6 31.1753V34.8302C39.6 35.722 38.877 36.445 37.9852 36.445Z" fill="url(#paint9_linear)"/>
<path d="M37.9852 12.9569H33.6712C32.7794 12.9569 32.0564 12.2339 32.0564 11.3421V9.16949C32.0564 8.27767 32.7794 7.55469 33.6712 7.55469H37.9852C38.877 7.55469 39.6 8.27767 39.6 9.16949V11.3421C39.6 12.234 38.877 12.9569 37.9852 12.9569Z" fill="url(#paint10_linear)"/>
<path d="M0.0980947 13.8106C0.087483 13.8566 0.0777339 13.9013 0.0688477 13.9445H8.8289C9.44922 13.9445 9.95203 13.4417 9.95203 12.8213V4.13428C9.88352 4.14644 9.81157 4.16076 9.73746 4.17716C9.08445 4.32158 8.48907 4.65736 8.01611 5.13023L1.04962 12.0967C0.578557 12.5677 0.247781 13.1615 0.0980947 13.8106Z" fill="url(#paint11_linear)"/>
<path d="M0 34.2847V37.0585C0 38.6314 1.28696 39.9185 2.86 39.9185H41.1409C42.7135 39.9185 44 38.6319 44 37.0594V34.2848H0V34.2847Z" fill="url(#paint12_linear)"/>
<path d="M19.245 36.4455H6.0147C5.12288 36.4455 4.3999 35.7225 4.3999 34.8307V24.2916C4.3999 23.3997 5.12288 22.6768 6.0147 22.6768H19.245C20.1368 22.6768 20.8598 23.3997 20.8598 24.2916V34.8308C20.8597 35.7225 20.1368 36.4455 19.245 36.4455Z" fill="url(#paint13_linear)"/>
</g>
<defs>
<linearGradient id="paint0_linear" x1="9.3349" y1="9.33511" x2="35.4654" y2="35.4656" gradientUnits="userSpaceOnUse">
<stop stop-color="#EDF5FF"/>
<stop offset="1" stop-color="#C7E9FF"/>
</linearGradient>
<linearGradient id="paint1_linear" x1="24.9296" y1="12.7486" x2="1.41474" y2="-10.7663" gradientUnits="userSpaceOnUse">
<stop stop-color="#7ACBFF" stop-opacity="0"/>
<stop offset="1" stop-color="#2F73A0"/>
</linearGradient>
<linearGradient id="paint2_linear" x1="12.6298" y1="26.2937" x2="12.6298" y2="42.4568" gradientUnits="userSpaceOnUse">
<stop stop-color="#E4E08E"/>
<stop offset="1" stop-color="#6FA953"/>
</linearGradient>
<linearGradient id="paint3_linear" x1="20.2981" y1="29.186" x2="-1.27049" y2="5.46053" gradientUnits="userSpaceOnUse">
<stop stop-color="#43765A" stop-opacity="0"/>
<stop offset="1" stop-color="#43765A"/>
</linearGradient>
<linearGradient id="paint4_linear" x1="16.7049" y1="9.09098" x2="23.9172" y2="16.3034" gradientUnits="userSpaceOnUse">
<stop stop-color="#7ACBFF"/>
<stop offset="1" stop-color="#45A2E0"/>
</linearGradient>
<linearGradient id="paint5_linear" x1="22.317" y1="26.4558" x2="28.9602" y2="31.3734" gradientUnits="userSpaceOnUse">
<stop stop-color="#FFCE47"/>
<stop offset="1" stop-color="#FF9356"/>
</linearGradient>
<linearGradient id="paint6_linear" x1="7.21918" y1="13.4866" x2="11.3446" y2="17.6121" gradientUnits="userSpaceOnUse">
<stop stop-color="#FF4181"/>
<stop offset="1" stop-color="#843561"/>
</linearGradient>
<linearGradient id="paint7_linear" x1="14.8192" y1="20.0365" x2="0.984986" y2="6.20228" gradientUnits="userSpaceOnUse">
<stop stop-color="#843561" stop-opacity="0"/>
<stop offset="1" stop-color="#3A2F4D"/>
</linearGradient>
<linearGradient id="paint8_linear" x1="31.8406" y1="17.3357" x2="40.2551" y2="25.7503" gradientUnits="userSpaceOnUse">
<stop stop-color="#FFF5D9"/>
<stop offset="1" stop-color="#FFCE47"/>
</linearGradient>
<linearGradient id="paint9_linear" x1="32.7733" y1="29.948" x2="37.0546" y2="34.2292" gradientUnits="userSpaceOnUse">
<stop stop-color="#FF755C"/>
<stop offset="1" stop-color="#FF4181"/>
</linearGradient>
<linearGradient id="paint10_linear" x1="33.8372" y1="8.26473" x2="38.4692" y2="12.8967" gradientUnits="userSpaceOnUse">
<stop stop-color="#FF9356"/>
<stop offset="1" stop-color="#FF755C"/>
</linearGradient>
<linearGradient id="paint11_linear" x1="4.06905" y1="8.09799" x2="9.81976" y2="13.8487" gradientUnits="userSpaceOnUse">
<stop stop-color="#EDF5FF"/>
<stop offset="1" stop-color="#C7E9FF"/>
</linearGradient>
<linearGradient id="paint12_linear" x1="22" y1="35.7648" x2="22" y2="42.3783" gradientUnits="userSpaceOnUse">
<stop stop-color="#7ACBFF" stop-opacity="0"/>
<stop offset="1" stop-color="#2F73A0"/>
</linearGradient>
<linearGradient id="paint13_linear" x1="8.48741" y1="25.4187" x2="15.4486" y2="32.38" gradientUnits="userSpaceOnUse">
<stop stop-color="#E4E08E"/>
<stop offset="1" stop-color="#6FA953"/>
</linearGradient>
<clipPath id="clip0">
<rect width="44" height="44" fill="white"/>
</clipPath>
</defs>
</svg>
