<svg width="44" height="44" viewBox="0 0 44 44" fill="none" xmlns="http://www.w3.org/2000/svg">
<g clip-path="url(#clip0)">
<path d="M28.3231 39.5044L30.4892 43.9998H32.2391C33.3036 43.9998 33.9189 42.7926 33.2934 41.9313L31.8821 39.9881C30.5565 38.1629 29.8426 35.9649 29.8426 33.7091V32.1866L27.2031 30.6738V34.307C27.2031 36.1742 27.5952 37.9935 28.3231 39.5044Z" fill="url(#paint0_linear)"/>
<path d="M11.7609 43.9998H13.5109L15.6769 39.5044C16.4049 37.9935 16.7969 36.1742 16.7969 34.307V30.6738L14.1574 32.1866V33.7091C14.1574 35.9649 13.4435 38.1629 12.1179 39.9882L10.7067 41.9313C10.0812 42.7926 10.6964 43.9998 11.7609 43.9998Z" fill="url(#paint1_linear)"/>
<path d="M23.5776 34.3071C23.5776 36.1744 23.6965 37.9937 23.9172 39.5045L24.574 44.0001H30.4892L28.3232 39.5046C27.5952 37.9937 27.2032 36.1745 27.2032 34.3072V30.674L23.5776 28.5962V34.3071Z" fill="url(#paint2_linear)"/>
<path d="M15.677 39.5046L13.5109 44.0001H19.426L20.0827 39.5046C20.3034 37.9937 20.4223 36.1745 20.4223 34.3072V28.5962L16.7968 30.674V34.3072C16.7969 36.1744 16.4049 37.9937 15.677 39.5046Z" fill="url(#paint3_linear)"/>
<path d="M20.4224 34.3071C20.4224 36.1743 20.3035 37.9936 20.0828 39.5044L19.426 44H24.5739L23.9172 39.5045C23.6965 37.9937 23.5776 36.1744 23.5776 34.3072V28.5961L22 27.6919L20.4224 28.5961V34.3071Z" fill="url(#paint4_linear)"/>
<path d="M29.8426 33.7091V32.1866L27.2031 30.6738V34.307C27.2031 34.9811 27.255 35.6486 27.3545 36.298H30.1616C29.9512 35.4561 29.8426 34.5872 29.8426 33.7091Z" fill="url(#paint5_linear)"/>
<path d="M27.2032 34.3072V30.674L23.5776 28.5962V34.3072C23.5776 34.9813 23.5933 35.6488 23.6235 36.2982H27.3545C27.255 35.6489 27.2032 34.9813 27.2032 34.3072Z" fill="url(#paint6_linear)"/>
<path d="M23.6235 36.298C23.5933 35.6487 23.5776 34.9811 23.5776 34.3071V28.5961L22 27.6919L20.4224 28.5961V34.3071C20.4224 34.9811 20.4067 35.6486 20.3765 36.298H23.6235Z" fill="url(#paint7_linear)"/>
<path d="M20.3765 36.2982C20.4067 35.6489 20.4224 34.9813 20.4224 34.3072V28.5962L16.7969 30.674V34.3072C16.7969 34.9813 16.7451 35.6488 16.6455 36.2982H20.3765Z" fill="url(#paint8_linear)"/>
<path d="M16.6456 36.298C16.7451 35.6487 16.797 34.9811 16.797 34.307V30.6738L14.1575 32.1866V33.7091C14.1575 34.5871 14.0489 35.4561 13.8386 36.298H16.6456Z" fill="url(#paint9_linear)"/>
<path d="M14.7563 31.153V17.4756L9.91157 22.3203C7.84969 24.3822 6.69128 27.1788 6.69128 30.0948C6.69128 30.6792 7.1651 31.153 7.74953 31.153H14.7563Z" fill="url(#paint10_linear)"/>
<path d="M29.2437 31.153V17.4756L34.0884 22.3203C36.1504 24.3822 37.3087 27.1788 37.3087 30.0948C37.3087 30.6792 36.8349 31.153 36.2504 31.153H29.2437Z" fill="url(#paint11_linear)"/>
<path d="M19.291 1.25084C15.7 5.46544 13.7278 10.8213 13.7278 16.3582V32.7714H30.2722V16.3581C30.2722 10.8212 28.2999 5.46535 24.709 1.25075C23.2879 -0.416932 20.712 -0.416932 19.291 1.25084Z" fill="url(#paint12_linear)"/>
<path d="M30.2723 32.7713V16.3581C30.2723 10.8212 28.2999 5.46532 24.709 1.25072C23.9985 0.416965 22.9992 0 22 0V32.7713H30.2723Z" fill="url(#paint13_linear)"/>
<path d="M17.9287 10.8466C15.5937 13.1815 15.4373 16.7328 17.7722 19.0678L30.2723 31.5603V16.3581C30.2723 15.7653 30.2483 15.1748 30.2036 14.5874L26.2281 10.6119C23.8931 8.27698 20.2636 8.51165 17.9287 10.8466Z" fill="url(#paint14_linear)"/>
<path d="M21.9756 19.2781C24.4176 19.2781 26.3973 17.2984 26.3973 14.8563C26.3973 12.4143 24.4176 10.4346 21.9756 10.4346C19.5335 10.4346 17.5538 12.4143 17.5538 14.8563C17.5538 17.2984 19.5335 19.2781 21.9756 19.2781Z" fill="url(#paint15_linear)"/>
<path d="M26.2281 10.612C23.8932 8.27711 20.1073 8.27711 17.7723 10.612C15.4374 12.947 15.4374 16.7329 17.7723 19.0678C20.1073 21.4027 23.8927 21.4023 26.2277 19.0674C28.5626 16.7324 28.563 12.9471 26.2281 10.612ZM19.1279 17.7123C17.5413 16.1257 17.5418 13.5537 19.1279 11.9677C20.7145 10.3811 23.2859 10.3811 24.8725 11.9677C26.4585 13.5537 26.4591 16.1257 24.8725 17.7123C23.2863 19.2983 20.7139 19.2983 19.1279 17.7123Z" fill="url(#paint16_linear)"/>
<path d="M24.6661 10.462C22.2483 8.98961 19.0948 9.75607 17.6224 12.1739C16.15 14.5918 16.9168 17.7448 19.3347 19.217C21.752 20.689 24.9052 19.9231 26.3775 17.5053C27.8497 15.0874 27.0834 11.934 24.6661 10.462ZM19.8876 18.3092C17.9712 17.1423 17.3643 14.643 18.5309 12.7272C19.6978 10.8108 22.1966 10.2035 24.1129 11.3704C26.0287 12.537 26.6366 15.0362 25.4697 16.9525C24.3031 18.8683 21.8034 19.4759 19.8876 18.3092Z" fill="url(#paint17_linear)"/>
<path d="M13.7278 25.1909H30.2722V30.193H13.7278V25.1909Z" fill="url(#paint18_linear)"/>
<path d="M13.9454 33.1422H30.0546C30.5495 33.1422 30.9508 32.7409 30.9508 32.246V29.3713C30.9508 28.8764 30.5495 28.4751 30.0546 28.4751H13.9454C13.4505 28.4751 13.0492 28.8764 13.0492 29.3713V32.246C13.0491 32.7409 13.4504 33.1422 13.9454 33.1422Z" fill="url(#paint19_linear)"/>
</g>
<defs>
<linearGradient id="paint0_linear" x1="30.3737" y1="38.7902" x2="30.3737" y2="33.9155" gradientUnits="userSpaceOnUse">
<stop stop-color="#FFCE47"/>
<stop offset="1" stop-color="#FF9356"/>
</linearGradient>
<linearGradient id="paint1_linear" x1="13.6263" y1="39.7646" x2="13.6263" y2="36.8788" gradientUnits="userSpaceOnUse">
<stop stop-color="#FF755C"/>
<stop offset="1" stop-color="#FF4181"/>
</linearGradient>
<linearGradient id="paint2_linear" x1="27.0334" y1="39.3901" x2="27.0334" y2="32.8294" gradientUnits="userSpaceOnUse">
<stop stop-color="#E4E08E"/>
<stop offset="1" stop-color="#6FA953"/>
</linearGradient>
<linearGradient id="paint3_linear" x1="16.9666" y1="37.741" x2="16.9666" y2="31.7552" gradientUnits="userSpaceOnUse">
<stop stop-color="#FF4181"/>
<stop offset="1" stop-color="#843561"/>
</linearGradient>
<linearGradient id="paint4_linear" x1="22" y1="40.5893" x2="22" y2="34.0304" gradientUnits="userSpaceOnUse">
<stop stop-color="#7ACBFF"/>
<stop offset="1" stop-color="#45A2E0"/>
</linearGradient>
<linearGradient id="paint5_linear" x1="28.6823" y1="34.5551" x2="28.6823" y2="32.1069" gradientUnits="userSpaceOnUse">
<stop stop-color="#FF9356" stop-opacity="0"/>
<stop offset="1" stop-color="#FF755C"/>
</linearGradient>
<linearGradient id="paint6_linear" x1="25.4661" y1="34.8645" x2="25.4661" y2="29.9446" gradientUnits="userSpaceOnUse">
<stop stop-color="#43765A" stop-opacity="0"/>
<stop offset="1" stop-color="#43765A"/>
</linearGradient>
<linearGradient id="paint7_linear" x1="22" y1="34.6676" x2="22" y2="27.6358" gradientUnits="userSpaceOnUse">
<stop stop-color="#174461" stop-opacity="0"/>
<stop offset="1" stop-color="#174461"/>
</linearGradient>
<linearGradient id="paint8_linear" x1="18.534" y1="33.5136" x2="18.534" y2="31.0975" gradientUnits="userSpaceOnUse">
<stop stop-color="#843561" stop-opacity="0"/>
<stop offset="1" stop-color="#3A2F4D"/>
</linearGradient>
<linearGradient id="paint9_linear" x1="15.3177" y1="34.8081" x2="15.3177" y2="30.6454" gradientUnits="userSpaceOnUse">
<stop stop-color="#843561" stop-opacity="0"/>
<stop offset="1" stop-color="#3A2F4D"/>
</linearGradient>
<linearGradient id="paint10_linear" x1="10.504" y1="23.9329" x2="15.6103" y2="27.2155" gradientUnits="userSpaceOnUse">
<stop stop-color="#FF4181"/>
<stop offset="1" stop-color="#843561"/>
</linearGradient>
<linearGradient id="paint11_linear" x1="30.4453" y1="24.653" x2="33.7801" y2="29.7593" gradientUnits="userSpaceOnUse">
<stop stop-color="#FF4181"/>
<stop offset="1" stop-color="#843561"/>
</linearGradient>
<linearGradient id="paint12_linear" x1="18.5871" y1="16.3857" x2="23.5739" y2="16.3857" gradientUnits="userSpaceOnUse">
<stop stop-color="#EDF5FF"/>
<stop offset="1" stop-color="#C7E9FF"/>
</linearGradient>
<linearGradient id="paint13_linear" x1="19.7802" y1="15.0326" x2="8.76006" y2="9.40539" gradientUnits="userSpaceOnUse">
<stop stop-color="#7ACBFF" stop-opacity="0"/>
<stop offset="1" stop-color="#2F73A0"/>
</linearGradient>
<linearGradient id="paint14_linear" x1="28.6862" y1="21.526" x2="19.4445" y2="12.2842" gradientUnits="userSpaceOnUse">
<stop stop-color="#7ACBFF" stop-opacity="0"/>
<stop offset="1" stop-color="#2F73A0"/>
</linearGradient>
<linearGradient id="paint15_linear" x1="20.2768" y1="13.1576" x2="23.2784" y2="16.1591" gradientUnits="userSpaceOnUse">
<stop stop-color="white"/>
<stop offset="1" stop-color="#EDF5FF"/>
</linearGradient>
<linearGradient id="paint16_linear" x1="19.7973" y1="12.6372" x2="25.2978" y2="18.1376" gradientUnits="userSpaceOnUse">
<stop stop-color="#DFDFDF"/>
<stop offset="1" stop-color="#9DA6AC"/>
</linearGradient>
<linearGradient id="paint17_linear" x1="24.2842" y1="16.2644" x2="18.5882" y2="12.7939" gradientUnits="userSpaceOnUse">
<stop stop-color="#DFDFDF"/>
<stop offset="1" stop-color="#9DA6AC"/>
</linearGradient>
<linearGradient id="paint18_linear" x1="22" y1="26.5978" x2="22" y2="29.4158" gradientUnits="userSpaceOnUse">
<stop stop-color="#7ACBFF" stop-opacity="0"/>
<stop offset="1" stop-color="#2F73A0"/>
</linearGradient>
<linearGradient id="paint19_linear" x1="22" y1="30.35" x2="22" y2="32.4693" gradientUnits="userSpaceOnUse">
<stop stop-color="#FF755C"/>
<stop offset="1" stop-color="#FF4181"/>
</linearGradient>
<clipPath id="clip0">
<rect width="44" height="44" fill="white"/>
</clipPath>
</defs>
</svg>
