<svg width="44" height="44" viewBox="0 0 44 44" fill="none" xmlns="http://www.w3.org/2000/svg">
<g clip-path="url(#clip0)">
<path d="M37.6892 25.3665C37.6892 22.7738 37.0564 20.3264 35.9381 18.1694C35.2226 18.589 34.3809 19.0903 33.7161 19.509C34.6015 21.2727 35.1009 23.2623 35.1009 25.3665C35.1009 32.2489 29.7664 37.9086 23.015 38.4283V37.6901C23.015 37.2275 22.2697 36.9958 21.8337 37.3229L19.6896 38.9318C19.1448 39.3407 19.1448 40.0097 19.6896 40.4186L21.8337 42.0275C22.2696 42.3547 23.015 42.1229 23.015 41.6603V41.0215C31.1947 40.4966 37.6892 33.6765 37.6892 25.3665Z" fill="url(#paint0_linear)"/>
<path d="M35.6319 16.2471L35.0053 16.6035C32.1831 12.4286 27.4077 9.67725 22.0001 9.67725C16.3047 9.67725 11.3088 12.728 8.55957 17.2809L10.725 18.7024C13.0093 14.8523 17.2079 12.2655 22.0001 12.2655C26.4453 12.2655 30.3801 14.4912 32.7498 17.8864L32.1808 18.2101C31.7786 18.4389 31.9457 19.2013 32.4456 19.4184L34.9043 20.4867C35.5291 20.7581 36.1106 20.4273 36.1966 19.7516L36.535 17.0924C36.6039 16.5518 36.0339 16.0184 35.6319 16.2471Z" fill="url(#paint1_linear)"/>
<path d="M19.6897 40.419C19.1449 40.0101 19.1449 39.3411 19.6897 38.9322L20.435 38.373C13.9463 37.5969 8.89903 32.0611 8.89903 25.3668C8.89903 23.4353 9.32048 21.6008 10.0743 19.9485L10.5594 20.2824C10.9405 20.5448 11.5539 20.0622 11.5316 19.5176L11.4221 16.8392C11.3943 16.1586 10.8432 15.7792 10.1975 15.9961L7.65641 16.8499C7.1398 17.0235 6.90798 17.7687 7.28906 18.0311L7.91532 18.4622C6.88909 20.547 6.31079 22.8903 6.31079 25.3668C6.31079 33.4897 12.5159 40.1902 20.435 40.9781L19.6897 40.419Z" fill="url(#paint2_linear)"/>
<path d="M22.0001 22.6926C27.8489 22.6926 32.5903 17.9512 32.5903 12.1024C32.5903 6.2536 27.8489 1.51221 22.0001 1.51221C16.1513 1.51221 11.4099 6.2536 11.4099 12.1024C11.4099 17.9512 16.1513 22.6926 22.0001 22.6926Z" fill="url(#paint3_linear)"/>
<path d="M32.5579 12.9321C32.3724 15.3335 31.3855 17.5102 29.8638 19.1959C29.0922 20.0505 28.1828 20.7797 27.1711 21.347L20.7448 14.92L18.7103 12.8855C17.7167 11.9911 17.2148 10.6953 17.2148 9.2531C17.2148 6.55427 19.2796 4.49023 21.9784 4.49023C23.4206 4.49023 24.7163 4.9914 25.6108 5.98503L32.5579 12.9321Z" fill="url(#paint4_linear)"/>
<path d="M29.8638 19.1959C29.0922 20.0505 28.1828 20.7797 27.1711 21.347C25.6419 22.2043 23.878 22.6927 22.0001 22.6927C21.3714 22.6927 20.7555 22.6381 20.1572 22.5328L16.0142 18.3898C15.6925 18.2043 15.7067 17.7497 15.9819 17.4442L15.99 17.4361C17.2325 16.0559 18.8521 15.1824 20.7449 14.92C21.1442 14.8647 21.5557 14.8364 21.9779 14.8364C24.3104 14.8364 26.4136 15.6836 27.9105 17.2425L29.8638 19.1959Z" fill="url(#paint5_linear)"/>
<path d="M21.9834 14.14C24.6822 14.14 26.87 11.9522 26.87 9.25337C26.87 6.55454 24.6822 4.3667 21.9834 4.3667C19.2845 4.3667 17.0967 6.55454 17.0967 9.25337C17.0967 11.9522 19.2845 14.14 21.9834 14.14Z" fill="url(#paint6_linear)"/>
<path d="M28.136 17.4812C28.1058 17.4472 28.0755 17.4134 28.0447 17.38C26.5413 15.7404 24.3829 14.7134 21.9829 14.7134C19.5567 14.7134 17.3758 15.7641 15.8713 17.4357C15.8688 17.4385 15.8662 17.4413 15.8637 17.4441C15.5258 17.8193 15.7669 18.4196 16.2693 18.4696C17.7665 18.6188 19.8796 18.7115 22.2223 18.7115C24.3387 18.7115 26.2678 18.6359 27.7248 18.511C28.2334 18.4674 28.4751 17.8628 28.136 17.4812Z" fill="url(#paint7_linear)"/>
<path d="M10.5902 42.4875C16.439 42.4875 21.1804 37.7461 21.1804 31.8973C21.1804 26.0485 16.439 21.3071 10.5902 21.3071C4.74139 21.3071 0 26.0485 0 31.8973C0 37.7461 4.74139 42.4875 10.5902 42.4875Z" fill="url(#paint8_linear)"/>
<path d="M21.1482 32.7269C20.9627 35.1283 19.9759 37.305 18.4541 38.9907C17.6825 39.8454 16.7732 40.5746 15.7614 41.1418L9.33501 34.7148L7.30066 32.6804C6.30703 31.786 5.80518 30.4902 5.80518 29.048C5.80518 26.3492 7.8699 24.2852 10.5687 24.2852C12.0109 24.2852 13.3067 24.7863 14.2012 25.7799L21.1482 32.7269Z" fill="url(#paint9_linear)"/>
<path d="M18.4541 38.9908C17.6825 39.8454 16.7732 40.5746 15.7614 41.1419C14.2322 41.9992 12.4683 42.4876 10.5904 42.4876C9.96171 42.4876 9.34588 42.433 8.74757 42.3277L4.60458 38.1847C4.28286 37.9992 4.29701 37.5446 4.57223 37.2391L4.58034 37.231C5.82286 35.8508 7.44241 34.9773 9.33518 34.7149C9.73455 34.6596 10.146 34.6313 10.5682 34.6313C12.9007 34.6313 15.0039 35.4786 16.5008 37.0375L18.4541 38.9908Z" fill="url(#paint10_linear)"/>
<path d="M10.5734 33.935C13.2723 33.935 15.4601 31.7471 15.4601 29.0483C15.4601 26.3495 13.2723 24.1616 10.5734 24.1616C7.87461 24.1616 5.68677 26.3495 5.68677 29.0483C5.68677 31.7471 7.87461 33.935 10.5734 33.935Z" fill="url(#paint11_linear)"/>
<path d="M16.7261 37.2761C16.6959 37.2421 16.6656 37.2083 16.6348 37.1749C15.1314 35.5353 12.973 34.5083 10.5729 34.5083C8.14682 34.5083 5.96588 35.559 4.46143 37.2306C4.45884 37.2335 4.45634 37.2362 4.45384 37.2391C4.1159 37.6143 4.35695 38.2145 4.85941 38.2645C6.35662 38.4137 8.46966 38.5064 10.8124 38.5064C12.9288 38.5064 14.8579 38.4308 16.3149 38.3059C16.8234 38.2624 17.0652 37.6578 16.7261 37.2761Z" fill="url(#paint12_linear)"/>
<path d="M33.4098 42.4875C39.2586 42.4875 44 37.7461 44 31.8973C44 26.0485 39.2586 21.3071 33.4098 21.3071C27.561 21.3071 22.8196 26.0485 22.8196 31.8973C22.8196 37.7461 27.561 42.4875 33.4098 42.4875Z" fill="url(#paint13_linear)"/>
<path d="M43.9676 32.727C43.7821 35.1284 42.7952 37.3051 41.2735 38.9908C40.5018 39.8454 39.5925 40.5746 38.5808 41.1419L32.1544 34.7149L30.12 32.6804C29.1264 31.786 28.6245 30.4902 28.6245 29.048C28.6245 26.3492 30.6892 24.2852 33.3881 24.2852C34.8302 24.2852 36.126 24.7863 37.0205 25.7799L43.9676 32.727Z" fill="url(#paint14_linear)"/>
<path d="M41.2735 38.9908C40.5018 39.8454 39.5925 40.5746 38.5808 41.1419C37.0515 41.9992 35.2877 42.4876 33.4097 42.4876C32.781 42.4876 32.1652 42.433 31.5669 42.3277L27.4239 38.1847C27.1022 37.9992 27.1163 37.5446 27.3916 37.2391C27.3942 37.2364 27.397 37.2336 27.3997 37.231C28.6422 35.8508 30.2617 34.9773 32.1545 34.7149C32.5539 34.6596 32.9653 34.6313 33.3876 34.6313C35.7201 34.6313 37.8233 35.4786 39.3201 37.0375L41.2735 38.9908Z" fill="url(#paint15_linear)"/>
<path d="M33.393 33.935C36.0919 33.935 38.2797 31.7471 38.2797 29.0483C38.2797 26.3495 36.0919 24.1616 33.393 24.1616C30.6942 24.1616 28.5063 26.3495 28.5063 29.0483C28.5063 31.7471 30.6942 33.935 33.393 33.935Z" fill="url(#paint16_linear)"/>
<path d="M39.5457 37.2761C39.5155 37.2421 39.4851 37.2083 39.4543 37.1749C37.951 35.5353 35.7926 34.5083 33.3925 34.5083C30.9664 34.5083 28.7855 35.559 27.281 37.2306C27.2784 37.2335 27.2759 37.2362 27.2734 37.2391C26.9355 37.6143 27.1765 38.2145 27.679 38.2645C29.1762 38.4137 31.2892 38.5064 33.6319 38.5064C35.7483 38.5064 37.6774 38.4308 39.1344 38.3059C39.643 38.2624 39.8848 37.6578 39.5457 37.2761Z" fill="url(#paint17_linear)"/>
</g>
<defs>
<linearGradient id="paint0_linear" x1="28.363" y1="31.1657" x2="27.1983" y2="24.048" gradientUnits="userSpaceOnUse">
<stop stop-color="#2F73A0"/>
<stop offset="1" stop-color="#174461"/>
</linearGradient>
<linearGradient id="paint1_linear" x1="23.1639" y1="17.0824" x2="14.062" y2="21.9569" gradientUnits="userSpaceOnUse">
<stop stop-color="#2F73A0"/>
<stop offset="1" stop-color="#174461"/>
</linearGradient>
<linearGradient id="paint2_linear" x1="8.77324" y1="23.3464" x2="17.9703" y2="36.1036" gradientUnits="userSpaceOnUse">
<stop stop-color="#2F73A0"/>
<stop offset="1" stop-color="#174461"/>
</linearGradient>
<linearGradient id="paint3_linear" x1="17.6813" y1="7.78367" x2="28.3524" y2="18.4548" gradientUnits="userSpaceOnUse">
<stop stop-color="#7ACBFF"/>
<stop offset="1" stop-color="#45A2E0"/>
</linearGradient>
<linearGradient id="paint4_linear" x1="28.3453" y1="15.6201" x2="20.198" y2="7.47265" gradientUnits="userSpaceOnUse">
<stop stop-color="#2F73A0" stop-opacity="0"/>
<stop offset="1" stop-color="#2F73A0"/>
</linearGradient>
<linearGradient id="paint5_linear" x1="23.6256" y1="22.2881" x2="21.8718" y2="14.2836" gradientUnits="userSpaceOnUse">
<stop stop-color="#2F73A0" stop-opacity="0"/>
<stop offset="1" stop-color="#2F73A0"/>
</linearGradient>
<linearGradient id="paint6_linear" x1="19.5226" y1="9.25337" x2="23.7924" y2="9.25337" gradientUnits="userSpaceOnUse">
<stop stop-color="#EDF5FF"/>
<stop offset="1" stop-color="#C7E9FF"/>
</linearGradient>
<linearGradient id="paint7_linear" x1="19.5227" y1="16.7124" x2="23.7926" y2="16.7124" gradientUnits="userSpaceOnUse">
<stop stop-color="#EDF5FF"/>
<stop offset="1" stop-color="#C7E9FF"/>
</linearGradient>
<linearGradient id="paint8_linear" x1="6.27147" y1="27.5785" x2="16.9426" y2="38.2496" gradientUnits="userSpaceOnUse">
<stop stop-color="#E4E08E"/>
<stop offset="1" stop-color="#6FA953"/>
</linearGradient>
<linearGradient id="paint9_linear" x1="16.9356" y1="35.4149" x2="8.7882" y2="27.2675" gradientUnits="userSpaceOnUse">
<stop stop-color="#43765A" stop-opacity="0"/>
<stop offset="1" stop-color="#43765A"/>
</linearGradient>
<linearGradient id="paint10_linear" x1="12.2158" y1="42.083" x2="10.462" y2="34.0785" gradientUnits="userSpaceOnUse">
<stop stop-color="#43765A" stop-opacity="0"/>
<stop offset="1" stop-color="#43765A"/>
</linearGradient>
<linearGradient id="paint11_linear" x1="8.11272" y1="29.0483" x2="12.3825" y2="29.0483" gradientUnits="userSpaceOnUse">
<stop stop-color="#EDF5FF"/>
<stop offset="1" stop-color="#C7E9FF"/>
</linearGradient>
<linearGradient id="paint12_linear" x1="8.11282" y1="36.5074" x2="12.3826" y2="36.5074" gradientUnits="userSpaceOnUse">
<stop stop-color="#EDF5FF"/>
<stop offset="1" stop-color="#C7E9FF"/>
</linearGradient>
<linearGradient id="paint13_linear" x1="29.091" y1="27.5785" x2="39.7621" y2="38.2496" gradientUnits="userSpaceOnUse">
<stop stop-color="#FF755C"/>
<stop offset="1" stop-color="#FF4181"/>
</linearGradient>
<linearGradient id="paint14_linear" x1="39.755" y1="35.415" x2="31.6076" y2="27.2676" gradientUnits="userSpaceOnUse">
<stop stop-color="#843561" stop-opacity="0"/>
<stop offset="1" stop-color="#3A2F4D"/>
</linearGradient>
<linearGradient id="paint15_linear" x1="35.0351" y1="42.083" x2="33.2814" y2="34.0785" gradientUnits="userSpaceOnUse">
<stop stop-color="#843561" stop-opacity="0"/>
<stop offset="1" stop-color="#3A2F4D"/>
</linearGradient>
<linearGradient id="paint16_linear" x1="30.9323" y1="29.0483" x2="35.2021" y2="29.0483" gradientUnits="userSpaceOnUse">
<stop stop-color="#EDF5FF"/>
<stop offset="1" stop-color="#C7E9FF"/>
</linearGradient>
<linearGradient id="paint17_linear" x1="30.9324" y1="36.5074" x2="35.2022" y2="36.5074" gradientUnits="userSpaceOnUse">
<stop stop-color="#EDF5FF"/>
<stop offset="1" stop-color="#C7E9FF"/>
</linearGradient>
<clipPath id="clip0">
<rect width="44" height="44" fill="white"/>
</clipPath>
</defs>
</svg>
