<svg width="44" height="44" viewBox="0 0 44 44" fill="none" xmlns="http://www.w3.org/2000/svg">
<g clip-path="url(#clip0)">
<path d="M9.95013 7.35818L5.82232 0H2.48738C0.458897 0 -0.71366 1.97603 0.478308 3.38576L3.16774 6.56635C5.69386 9.55387 7.05441 13.1513 7.05441 16.8436V19.3358L12.0845 21.8117V15.865C12.0845 12.8088 11.3374 9.83098 9.95013 7.35818Z" fill="url(#paint0_linear)"/>
<path d="M41.5126 0H38.1777L34.0499 7.35818C32.6627 9.83107 31.9155 12.8088 31.9155 15.865V21.8117L36.9456 19.3358V16.8436C36.9456 13.1513 38.3061 9.55387 40.8323 6.56635L43.5217 3.38584C44.7137 1.97603 43.5411 0 41.5126 0V0Z" fill="url(#paint1_linear)"/>
<path d="M18.9936 15.865C18.9936 12.8088 18.767 9.83107 18.3464 7.35818L17.0948 0H5.82239L9.95019 7.35818C11.3374 9.83107 12.0845 12.8088 12.0845 15.865V21.8117L18.9936 25.2127V15.865Z" fill="url(#paint2_linear)"/>
<path d="M34.0498 7.35818L38.1776 0H26.9051L25.6535 7.35818C25.2329 9.83107 25.0063 12.8088 25.0063 15.865V25.2127L31.9154 21.8117V15.865C31.9154 12.8088 32.6625 9.83098 34.0498 7.35818Z" fill="url(#paint3_linear)"/>
<path d="M25.0065 15.865C25.0065 12.8088 25.233 9.83107 25.6536 7.35818L26.9052 0H17.0948L18.3464 7.35818C18.767 9.83107 18.9936 12.8088 18.9936 15.865V25.2127L22.0001 26.6926L25.0065 25.2127V15.865Z" fill="url(#paint4_linear)"/>
<path d="M7.05441 16.8436V19.3358L12.0845 21.8118V15.8651C12.0845 14.7618 11.9857 13.6693 11.796 12.6064H6.44678C6.84744 13.9843 7.05441 15.4067 7.05441 16.8436Z" fill="url(#paint5_linear)"/>
<path d="M12.0844 15.8651V21.8119L18.9934 25.2128V15.8651C18.9934 14.7618 18.9635 13.6693 18.906 12.6064H11.7959C11.9856 13.6692 12.0844 14.7618 12.0844 15.8651Z" fill="url(#paint6_linear)"/>
<path d="M18.9061 12.6064C18.9637 13.6693 18.9936 14.7618 18.9936 15.8651V25.2128L22 26.6926L25.0064 25.2128V15.8651C25.0064 14.7618 25.0364 13.6693 25.0939 12.6064H18.9061Z" fill="url(#paint7_linear)"/>
<path d="M25.0938 12.6064C25.0363 13.6693 25.0063 14.7618 25.0063 15.8651V25.2128L31.9154 21.8119V15.8651C31.9154 14.7618 32.0142 13.6693 32.2039 12.6064H25.0938Z" fill="url(#paint8_linear)"/>
<path d="M32.204 12.6064C32.0143 13.6693 31.9155 14.7618 31.9155 15.8651V21.8118L36.9456 19.3359V16.8437C36.9456 15.4067 37.1526 13.9843 37.5532 12.6064H32.204Z" fill="url(#paint9_linear)"/>
<path d="M4.55884 29.9994V27.1224C4.55884 25.3327 6.00963 23.8818 7.79939 23.8818C9.58907 23.8818 11.04 25.3326 11.04 27.1224V29.9994C11.04 31.7891 9.58916 33.2399 7.79939 33.2399C6.00972 33.2399 4.55884 31.7891 4.55884 29.9994Z" fill="url(#paint10_linear)"/>
<path d="M33.3469 29.9994V27.1224C33.3469 25.3327 34.7977 23.8818 36.5875 23.8818C38.3772 23.8818 39.8281 25.3326 39.8281 27.1224V29.9994C39.8281 31.7891 38.3773 33.2399 36.5875 33.2399C34.7978 33.2399 33.3469 31.7891 33.3469 29.9994Z" fill="url(#paint11_linear)"/>
<path d="M37.2235 23.1091V28.971C37.2235 30.2454 37.0647 31.4832 36.7668 32.6655C35.1202 39.1797 29.2198 44.0002 22.1934 44.0002C15.167 44.0002 9.2667 39.1797 7.62102 32.6656C7.32216 31.4833 7.16333 30.2455 7.16333 28.971V23.1092C7.16333 20.8808 7.64828 19.3701 8.51862 17.4688H35.8684C36.7386 19.37 37.2235 20.8807 37.2235 23.1091Z" fill="url(#paint12_linear)"/>
<path d="M37.2236 23.1092V28.971C37.2236 30.2455 37.0648 31.4833 36.765 32.6656C35.4351 37.9297 31.3251 42.0886 26.0892 43.4899L15.2649 32.6657L7.16333 24.5641V23.1092C7.16333 20.8808 7.64828 19.3701 8.51862 17.4688H35.8684C36.7387 19.3701 37.2236 20.8808 37.2236 23.1092Z" fill="url(#paint13_linear)"/>
<path d="M38.3686 16.8647C39.2928 16.8647 39.9537 17.7724 39.6547 18.6469C38.2451 22.7691 34.3378 25.7332 29.7396 25.7332H20.5685C18.6088 25.7332 16.7762 25.1947 15.2076 24.2586C14.6268 24.7201 13.9698 25.0885 13.2573 25.3423C12.5357 25.5984 11.7581 25.7369 10.9481 25.7332C7.18619 25.7164 4.17175 22.6001 4.17175 18.8382V18.2196C4.17175 17.4714 4.77826 16.8648 5.52652 16.8648H38.3686V16.8647Z" fill="url(#paint14_linear)"/>
<path d="M15.2076 24.2586C14.6268 24.72 13.9698 25.0884 13.2573 25.3422C12.5357 25.5983 11.7581 25.7368 10.9481 25.7332C7.18618 25.7163 4.17175 22.6 4.17175 18.8381V18.2195C4.17175 17.4713 4.77826 16.8647 5.52652 16.8647H10.215C10.7001 20.0086 12.5826 22.6918 15.2076 24.2586Z" fill="url(#paint15_linear)"/>
<path d="M17.7101 31.5589C17.7101 32.7547 16.7407 33.7242 15.5448 33.7242C14.349 33.7242 13.3795 32.7547 13.3795 31.5589C13.3795 30.363 14.349 29.3936 15.5448 29.3936C16.7407 29.3936 17.7101 30.3629 17.7101 31.5589Z" fill="url(#paint16_linear)"/>
<path d="M16.5135 29.6221C16.6595 29.9135 16.7418 30.2425 16.7418 30.5907C16.7418 31.7865 15.7724 32.756 14.5765 32.756C14.2283 32.756 13.8993 32.6737 13.6079 32.5276C13.9634 33.2372 14.6972 33.7243 15.5449 33.7243C16.7407 33.7243 17.7102 32.7549 17.7102 31.559C17.7102 30.7113 17.223 29.9775 16.5135 29.6221Z" fill="url(#paint17_linear)"/>
<path d="M31.0073 31.5589C31.0073 32.7547 30.0378 33.7242 28.842 33.7242C27.6461 33.7242 26.6766 32.7547 26.6766 31.5589C26.6766 30.363 27.6461 29.3936 28.842 29.3936C30.0379 29.3936 31.0073 30.3629 31.0073 31.5589Z" fill="url(#paint18_linear)"/>
<path d="M29.8106 29.6221C29.9566 29.9135 30.039 30.2425 30.039 30.5907C30.039 31.7865 29.0695 32.756 27.8736 32.756C27.5254 32.756 27.1965 32.6737 26.905 32.5276C27.2606 33.2372 27.9943 33.7243 28.842 33.7243C30.0378 33.7243 31.0073 32.7549 31.0073 31.559C31.0073 30.7113 30.5202 29.9775 29.8106 29.6221Z" fill="url(#paint19_linear)"/>
<path d="M25.1755 37.8976C23.2854 37.0153 21.1016 37.0153 19.2115 37.8976C18.7226 38.1258 18.5039 38.7034 18.7239 39.196C19.2274 40.3235 20.3175 42.0965 22.1935 42.0965C24.0696 42.0965 25.1596 40.3235 25.6632 39.196C25.8831 38.7034 25.6645 38.1258 25.1755 37.8976Z" fill="url(#paint20_linear)"/>
<path d="M22.1935 36.0111C23.2662 36.0111 24.1359 35.2622 24.1359 34.3385C24.1359 33.4148 23.2662 32.666 22.1935 32.666C21.1207 32.666 20.2511 33.4148 20.2511 34.3385C20.2511 35.2622 21.1207 36.0111 22.1935 36.0111Z" fill="url(#paint21_linear)"/>
</g>
<defs>
<linearGradient id="paint0_linear" x1="6.04224" y1="8.52703" x2="6.04224" y2="16.5056" gradientUnits="userSpaceOnUse">
<stop stop-color="#FFCE47"/>
<stop offset="1" stop-color="#FF9356"/>
</linearGradient>
<linearGradient id="paint1_linear" x1="37.9578" y1="6.93198" x2="37.9578" y2="11.6556" gradientUnits="userSpaceOnUse">
<stop stop-color="#FF755C"/>
<stop offset="1" stop-color="#FF4181"/>
</linearGradient>
<linearGradient id="paint2_linear" x1="12.408" y1="7.54548" x2="12.408" y2="18.2837" gradientUnits="userSpaceOnUse">
<stop stop-color="#E4E08E"/>
<stop offset="1" stop-color="#6FA953"/>
</linearGradient>
<linearGradient id="paint3_linear" x1="31.592" y1="10.2447" x2="31.592" y2="20.0418" gradientUnits="userSpaceOnUse">
<stop stop-color="#FF4181"/>
<stop offset="1" stop-color="#843561"/>
</linearGradient>
<linearGradient id="paint4_linear" x1="22.0001" y1="5.58239" x2="22.0001" y2="16.3179" gradientUnits="userSpaceOnUse">
<stop stop-color="#7ACBFF"/>
<stop offset="1" stop-color="#45A2E0"/>
</linearGradient>
<linearGradient id="paint5_linear" x1="9.26563" y1="15.4591" x2="9.26563" y2="19.4661" gradientUnits="userSpaceOnUse">
<stop stop-color="#FF9356" stop-opacity="0"/>
<stop offset="1" stop-color="#FF755C"/>
</linearGradient>
<linearGradient id="paint6_linear" x1="15.3947" y1="14.953" x2="15.3947" y2="23.0057" gradientUnits="userSpaceOnUse">
<stop stop-color="#43765A" stop-opacity="0"/>
<stop offset="1" stop-color="#43765A"/>
</linearGradient>
<linearGradient id="paint7_linear" x1="22" y1="15.2751" x2="22" y2="26.7844" gradientUnits="userSpaceOnUse">
<stop stop-color="#174461" stop-opacity="0"/>
<stop offset="1" stop-color="#174461"/>
</linearGradient>
<linearGradient id="paint8_linear" x1="28.6052" y1="17.1642" x2="28.6052" y2="21.1186" gradientUnits="userSpaceOnUse">
<stop stop-color="#843561" stop-opacity="0"/>
<stop offset="1" stop-color="#3A2F4D"/>
</linearGradient>
<linearGradient id="paint9_linear" x1="34.7344" y1="15.045" x2="34.7344" y2="21.8583" gradientUnits="userSpaceOnUse">
<stop stop-color="#843561" stop-opacity="0"/>
<stop offset="1" stop-color="#3A2F4D"/>
</linearGradient>
<linearGradient id="paint10_linear" x1="6.8364" y1="26.4012" x2="10.4082" y2="34.4117" gradientUnits="userSpaceOnUse">
<stop stop-color="#FFDECF"/>
<stop offset="1" stop-color="#FAA68E"/>
</linearGradient>
<linearGradient id="paint11_linear" x1="35.6245" y1="26.4012" x2="39.1963" y2="34.4117" gradientUnits="userSpaceOnUse">
<stop stop-color="#FFDECF"/>
<stop offset="1" stop-color="#FAA68E"/>
</linearGradient>
<linearGradient id="paint12_linear" x1="21.2913" y1="26.1081" x2="35.9883" y2="40.8051" gradientUnits="userSpaceOnUse">
<stop stop-color="#FFDECF"/>
<stop offset="1" stop-color="#FAA68E"/>
</linearGradient>
<linearGradient id="paint13_linear" x1="22.8477" y1="30.7539" x2="21.6827" y2="17.8776" gradientUnits="userSpaceOnUse">
<stop stop-color="#FF9356" stop-opacity="0"/>
<stop offset="1" stop-color="#FF4181"/>
</linearGradient>
<linearGradient id="paint14_linear" x1="21.0565" y1="16.6134" x2="26.414" y2="31.1103" gradientUnits="userSpaceOnUse">
<stop stop-color="#5A7587"/>
<stop offset="1" stop-color="#092A40"/>
</linearGradient>
<linearGradient id="paint15_linear" x1="10.0239" y1="21.8406" x2="17.1537" y2="27.805" gradientUnits="userSpaceOnUse">
<stop stop-color="#092A40" stop-opacity="0"/>
<stop offset="1" stop-color="#092A40"/>
</linearGradient>
<linearGradient id="paint16_linear" x1="14.7347" y1="30.7487" x2="17.5391" y2="33.5531" gradientUnits="userSpaceOnUse">
<stop stop-color="#5A7587"/>
<stop offset="1" stop-color="#092A40"/>
</linearGradient>
<linearGradient id="paint17_linear" x1="15.6201" y1="32.3888" x2="18.5964" y2="26.8534" gradientUnits="userSpaceOnUse">
<stop stop-color="#092A40" stop-opacity="0"/>
<stop offset="1" stop-color="#092A40"/>
</linearGradient>
<linearGradient id="paint18_linear" x1="28.0318" y1="30.7487" x2="30.8363" y2="33.5531" gradientUnits="userSpaceOnUse">
<stop stop-color="#5A7587"/>
<stop offset="1" stop-color="#092A40"/>
</linearGradient>
<linearGradient id="paint19_linear" x1="28.9172" y1="32.3888" x2="31.8935" y2="26.8533" gradientUnits="userSpaceOnUse">
<stop stop-color="#092A40" stop-opacity="0"/>
<stop offset="1" stop-color="#092A40"/>
</linearGradient>
<linearGradient id="paint20_linear" x1="21.627" y1="37.8751" x2="23.8498" y2="41.654" gradientUnits="userSpaceOnUse">
<stop stop-color="#FF755C"/>
<stop offset="1" stop-color="#FF4181"/>
</linearGradient>
<linearGradient id="paint21_linear" x1="22.1935" y1="35.0161" x2="22.1935" y2="29.7049" gradientUnits="userSpaceOnUse">
<stop stop-color="#FF9356" stop-opacity="0"/>
<stop offset="1" stop-color="#FF4181"/>
</linearGradient>
<clipPath id="clip0">
<rect width="44" height="44" fill="white"/>
</clipPath>
</defs>
</svg>
