<svg width="22" height="23" viewBox="0 0 22 23" fill="none" xmlns="http://www.w3.org/2000/svg">
<path fill-rule="evenodd" clip-rule="evenodd" d="M0 10.1071C0 15.6444 4.48196 20.1604 10.0311 20.1604C10.7122 20.1604 11.3933 20.1003 12.1758 20.0312C13.0486 19.9543 14.0475 19.8661 15.3134 19.8378C17.2342 19.8378 19.3151 20.5367 21.6095 22.5796C21.8229 22.7946 22.143 22.5258 21.9296 22.257C19.6353 19.4077 17.5544 18.8701 15.4735 18.3862C12.9123 17.7949 11.5784 16.3971 10.6713 14.7843C10.5113 14.4617 10.4046 14.5155 10.4046 14.9455C10.3512 15.5907 10.4046 16.182 10.5113 16.7734H10.1911C6.56288 16.7734 3.5749 13.7628 3.5749 10.1071C3.5749 6.45131 6.56288 3.4407 10.1911 3.4407C13.8194 3.4407 16.8074 6.45131 16.8074 10.1071C16.8074 10.3221 16.8074 10.5909 16.754 10.8597C16.2204 10.7522 15.3134 10.7522 14.6197 10.806C14.353 10.806 14.353 10.9135 14.5664 10.9672C16.7007 11.3973 18.1946 12.7413 18.5681 15.2144C18.5681 15.3219 18.6215 15.3219 18.6749 15.2681C19.5286 13.7628 20.0621 11.9887 20.0621 10.1071C20.0621 4.51592 15.5802 0 10.0311 0C4.48196 0 0 4.56968 0 10.1071ZM17.2878 14.2467C17.6613 14.408 17.8213 14.9456 17.8213 15.2144C17.8747 15.6445 17.768 15.8595 17.6079 15.8595C17.4478 15.8595 17.2344 15.6982 17.021 15.3219C16.8076 14.9456 16.7008 14.5693 16.8076 14.3542C16.9676 14.2467 17.1277 14.1929 17.2878 14.2467ZM15.0999 15.9132C15.3133 15.9132 15.5801 16.0207 15.8469 16.2358C16.2737 16.6121 16.4338 17.0422 16.2204 17.3647C16.1137 17.526 15.8469 17.6336 15.6335 17.6336C15.3667 17.6336 15.0999 17.526 14.9398 17.3647C14.513 16.9884 14.4063 16.4508 14.673 16.1282C14.7264 16.0207 14.8865 15.9132 15.0999 15.9132Z" fill="#F28A1A"/>
</svg>
