<svg width="102" height="102" viewBox="0 0 102 102" fill="none" xmlns="http://www.w3.org/2000/svg">
<g clip-path="url(#clip0)">
<path d="M102 51C102 67.6123 94.0573 82.3696 81.7623 91.6814C73.211 98.1579 62.6424 100.613 51.0882 100.613C22.9217 100.613 2.94629 78.4856 2.94629 50.3192C2.94629 34.4756 7.22475 21.0003 18.5593 11.6461C27.375 4.3704 38.6771 0 51 0C79.1666 0 102 22.8334 102 51Z" fill="#FFD764"/>
<path d="M40.569 41.3015C39.7665 43.7235 39.9644 44.8007 40.6739 47.4796C42.499 54.3725 48.401 58.8529 55.4 57.4906C62.8801 56.0347 67.7018 48.7494 66.1486 41.314C66.0425 40.8065 65.9091 40.3119 65.7507 39.831C65.6396 39.4936 65.324 39.2656 64.9689 39.2656H44.0979L41.3501 40.7382C40.9957 40.7382 40.6804 40.9651 40.569 41.3015Z" fill="#FCF7ED"/>
<path d="M55.123 57.5425C48.219 58.739 41.4197 54.4147 39.6198 47.6113C38.9097 44.933 39.0472 42.2507 39.8496 39.8289C39.9605 39.4924 40.2765 39.2666 40.6295 39.2666H44.0979C43.5418 41.6309 43.513 44.1839 44.1349 46.7329C45.5366 52.4897 49.9696 56.6128 55.123 57.5425Z" fill="#F7E5C1"/>
<path d="M85.524 88.5362C76.4425 96.8933 64.3175 101.999 51 101.999C22.834 101.999 0 79.1654 0 50.9994C0 32.4609 9.89215 16.2332 24.6852 7.30566C14.555 16.6252 8.20926 29.994 8.20926 44.8425C8.20926 73.0084 31.0433 95.8425 59.2093 95.8425C68.8367 95.8425 77.8422 93.1745 85.524 88.5362Z" fill="#FFAA4D"/>
<path d="M64.7754 17.3737C63.3092 16.5073 61.4239 16.9939 60.5587 18.4576C59.0162 21.0673 56.0629 22.5019 53.0579 22.101L44.4025 20.9464C44.2563 20.9279 44.0848 20.914 43.9339 20.9117C41.7201 20.8777 39.8978 22.6447 39.8638 24.8585C39.8578 25.2456 39.9069 25.6206 40.0037 25.9762C40.4612 27.6548 43.248 28.2212 45.0748 28.2494C45.0748 28.2494 51.2377 27.6386 56.4454 27.7254C59.4108 27.7749 60.5558 27.9803 62.0521 25.4198L64.5149 21.6471C65.3806 20.1832 66.2391 18.2388 64.7754 17.3737Z" fill="#B36D3C"/>
<path d="M65.8588 21.59L63.8024 25.1118C62.3042 27.673 59.5439 29.2266 56.5783 29.1774C51.3716 29.0912 43.8108 28.9291 43.8108 28.9291C41.9822 28.9003 40.4615 27.6546 40.0059 25.9758C43.5974 26.0517 52.5537 26.2385 56.6255 26.3041L56.7158 26.3062C58.6039 26.3062 60.3669 25.2924 61.3212 23.6628L64.9476 17.4854C66.2755 18.3904 66.69 20.1862 65.8588 21.59Z" fill="#995E34"/>
<path d="M75.2546 17.3737C76.7207 16.5073 78.606 16.9939 79.4712 18.4576C81.0138 21.0673 83.967 22.5019 86.972 22.101L95.6275 20.9464C95.7736 20.9279 95.9452 20.914 96.096 20.9117C98.3098 20.8777 100.132 22.6447 100.166 24.8585C100.173 25.2665 100.118 25.6612 100.01 26.0339C99.5336 27.6833 96.3468 28.2215 94.541 28.2494C94.541 28.2494 89.3737 28.084 84.1659 28.1708C81.2005 28.2202 78.929 27.6396 77.4325 25.0792L75.3104 21.6994C74.4804 20.2952 73.7541 18.3917 75.0815 17.4844C75.1374 17.4456 75.1952 17.4088 75.2546 17.3737Z" fill="#B36D3C"/>
<path d="M100.007 26.0332C99.533 27.6833 98.0266 28.9003 96.2185 28.9291C96.2185 28.9291 88.6598 29.0912 83.451 29.1774C80.4854 29.2266 77.7251 27.673 76.2289 25.1118L74.1705 21.59C73.3413 20.1862 73.7538 18.3904 75.0817 17.4854L78.7081 23.6628C79.6625 25.2924 81.4275 26.3062 83.3135 26.3062L83.4038 26.3041C87.5864 26.2364 96.7049 26.0866 100.007 26.0332Z" fill="#995E34"/>
<path d="M79.6025 72.6327C79.0334 72.6327 78.4865 72.3158 78.2191 71.7703C76.6495 68.5664 73.5825 66.6537 70.0147 66.6537C66.447 66.6537 63.38 68.5664 61.8106 71.7703C61.4365 72.534 60.5142 72.8492 59.7511 72.4755C58.9877 72.1015 58.672 71.1794 59.0459 70.416C61.113 66.1964 65.316 63.5752 70.0147 63.5752C74.7135 63.5752 78.9165 66.1964 80.9837 70.416C81.3577 71.1794 81.042 72.1015 80.2786 72.4755C80.0606 72.5822 79.8299 72.6327 79.6025 72.6327Z" fill="#FFAA4D"/>
<path d="M66.7816 81.2685C66.1399 81.2685 65.541 80.864 65.3239 80.2225C65.0513 79.4172 65.4831 78.5435 66.2882 78.2709C67.3593 77.9083 68.4836 77.7246 69.6302 77.7246H70.4001C71.5463 77.7246 72.6707 77.9085 73.7418 78.2707C74.5472 78.5433 74.979 79.4169 74.7066 80.2221C74.4341 81.0274 73.5602 81.4592 72.7553 81.1869C72.0027 80.9322 71.2103 80.8031 70.4003 80.8031H69.6304C68.8202 80.8031 68.028 80.9322 67.2756 81.1869C67.1118 81.2423 66.9454 81.2685 66.7816 81.2685Z" fill="#FFAA4D"/>
<path d="M63.3392 49.1651C63.6015 50.4207 63.4244 51.6661 62.9123 52.7411C62.1805 54.2776 60.6835 54.8601 58.889 55.2351C55.8388 55.8723 53.784 54.198 53.147 51.1479C52.6302 48.674 52.9658 46.5653 55.061 45.3938C55.549 45.1208 56.0863 44.9164 56.6628 44.7962C59.7128 44.1589 62.702 46.115 63.3392 49.1651Z" fill="#8C818F"/>
<path d="M63.0368 52.4583C62.3513 54.131 60.8736 55.4445 58.9691 55.8405C55.9193 56.4788 52.9312 54.523 52.2929 51.4732C51.7285 48.7662 53.2041 46.1064 55.6751 45.0967C55.2605 46.1064 55.1312 47.2455 55.3714 48.3948C56.0096 51.4445 58.9978 53.4003 62.0475 52.7621C62.3923 52.6902 62.7228 52.5897 63.0368 52.4583Z" fill="#766D78"/>
<path d="M75.5099 41.3017C74.7075 43.7237 74.9053 44.8009 75.6148 47.4798C77.4401 54.3727 83.342 58.8531 90.341 57.4908C97.821 56.0349 102.643 48.7496 101.09 41.3142C100.983 40.8067 100.85 40.3121 100.692 39.831C100.581 39.4936 100.265 39.2656 99.9099 39.2656H79.0389L76.291 40.7382C75.9366 40.7384 75.6213 40.9654 75.5099 41.3017Z" fill="#FCF7ED"/>
<path d="M90.0639 57.5425C83.1599 58.739 76.3606 54.4147 74.5607 47.6113C73.8506 44.933 73.9881 42.2507 74.7906 39.8289C74.9014 39.4924 75.2174 39.2666 75.5704 39.2666H79.0389C78.4827 41.6309 78.4539 44.1839 79.0758 46.7329C80.4775 52.4897 84.9105 56.6128 90.0639 57.5425Z" fill="#F7E5C1"/>
<path d="M98.2801 49.1651C98.5424 50.4207 98.3653 51.6661 97.8532 52.7411C97.1214 54.2777 95.6244 54.8601 93.8299 55.2351C90.7797 55.8723 88.725 54.198 88.0879 51.1479C87.5711 48.674 87.9067 46.5653 90.0019 45.3938C90.4899 45.1208 91.0272 44.9164 91.6037 44.7962C94.6537 44.1589 97.6429 46.115 98.2801 49.1651Z" fill="#8C818F"/>
<path d="M97.9777 52.4593C97.2922 54.1319 95.8145 55.4454 93.91 55.8415C90.8602 56.4798 87.8721 54.5239 87.2338 51.4742C86.6694 48.7672 88.145 46.1074 90.616 45.0977C90.2014 46.1074 90.0722 47.2464 90.3123 48.3957C90.9505 51.4455 93.9387 53.4013 96.9885 52.763C97.3332 52.6912 97.6637 52.5906 97.9777 52.4593Z" fill="#766D78"/>
</g>
<defs>
<clipPath id="clip0">
<rect width="102" height="102" fill="white"/>
</clipPath>
</defs>
</svg>
