<svg width="30" height="30" viewBox="0 0 30 30" fill="none" xmlns="http://www.w3.org/2000/svg">
<g clip-path="url(#clip0)">
<path d="M16.1039 1.36003L20.0719 9.40012L28.9447 10.6894C29.9544 10.8361 30.3575 12.0769 29.6269 12.7891L23.2064 19.0474L24.7221 27.8843C24.8946 28.8898 23.8391 29.6567 22.936 29.1819L15 25.0097L7.06393 29.1819C6.16088 29.6567 5.10538 28.8898 5.27788 27.8843L6.79352 19.0474L0.373076 12.789C-0.357527 12.0768 0.0456554 10.8361 1.05534 10.6894L9.9281 9.40006L13.8961 1.36003C14.3477 0.445094 15.6523 0.445094 16.1039 1.36003Z" fill="url(#paint0_linear)"/>
<path d="M20.0718 9.4001L16.1038 1.36002C15.8781 0.902577 15.439 0.673828 15 0.673828V15.8958L20.0718 9.4001Z" fill="url(#paint1_linear)"/>
<path d="M23.2065 19.0472L29.6269 12.7889C29.9873 12.4376 30.0714 11.9577 29.9432 11.5439L15 15.8956L23.2065 19.0472Z" fill="url(#paint2_linear)"/>
<path d="M24.2361 29.0851L15 15.8955V25.0095L22.936 29.1817C23.3892 29.4199 23.8806 29.3454 24.2361 29.0851Z" fill="url(#paint3_linear)"/>
<path d="M15 15.8955L6.79354 19.0471L5.27796 27.884C5.192 28.385 5.41102 28.8266 5.76393 29.0851L15 15.8955Z" fill="url(#paint4_linear)"/>
<path d="M0.0566406 11.5444L14.9999 15.8961L9.92802 9.40039L1.05525 10.6897C0.54367 10.764 0.188242 11.1194 0.0566406 11.5444Z" fill="url(#paint5_linear)"/>
<path d="M6.79366 19.0472L0.373212 12.7889C0.0128037 12.4376 -0.071278 11.9577 0.056866 11.5439L15.0001 15.8956L6.79366 19.0472Z" fill="url(#paint6_linear)"/>
</g>
<defs>
<linearGradient id="paint0_linear" x1="15.0005" y1="4.01535" x2="15.0005" y2="37.1169" gradientUnits="userSpaceOnUse">
<stop stop-color="#FFCF95"/>
<stop offset="0.427" stop-color="#FFC954"/>
<stop offset="1" stop-color="#FFC200"/>
</linearGradient>
<linearGradient id="paint1_linear" x1="22.7756" y1="8.28402" x2="12.7691" y2="8.28402" gradientUnits="userSpaceOnUse">
<stop stop-color="#FFC200" stop-opacity="0"/>
<stop offset="0.203" stop-color="#FFBB00" stop-opacity="0.203"/>
<stop offset="0.499" stop-color="#FFA700" stop-opacity="0.499"/>
<stop offset="0.852" stop-color="#FF8800" stop-opacity="0.852"/>
<stop offset="1" stop-color="#FF7800"/>
</linearGradient>
<linearGradient id="paint2_linear" x1="24.4851" y1="23.6151" x2="21.835" y2="10.5648" gradientUnits="userSpaceOnUse">
<stop stop-color="#FFC200" stop-opacity="0"/>
<stop offset="0.203" stop-color="#FFBB00" stop-opacity="0.203"/>
<stop offset="0.499" stop-color="#FFA700" stop-opacity="0.499"/>
<stop offset="0.852" stop-color="#FF8800" stop-opacity="0.852"/>
<stop offset="1" stop-color="#FF7800"/>
</linearGradient>
<linearGradient id="paint3_linear" x1="11.6354" y1="30.4733" x2="22.0144" y2="20.0943" gradientUnits="userSpaceOnUse">
<stop stop-color="#FFC200" stop-opacity="0"/>
<stop offset="0.203" stop-color="#FFBB00" stop-opacity="0.203"/>
<stop offset="0.499" stop-color="#FFA700" stop-opacity="0.499"/>
<stop offset="0.852" stop-color="#FF8800" stop-opacity="0.852"/>
<stop offset="1" stop-color="#FF7800"/>
</linearGradient>
<linearGradient id="paint4_linear" x1="4.23396" y1="17.348" x2="11.8842" y2="23.7482" gradientUnits="userSpaceOnUse">
<stop stop-color="#FFC200" stop-opacity="0"/>
<stop offset="0.203" stop-color="#FFBB00" stop-opacity="0.203"/>
<stop offset="0.499" stop-color="#FFA700" stop-opacity="0.499"/>
<stop offset="0.852" stop-color="#FF8800" stop-opacity="0.852"/>
<stop offset="1" stop-color="#FF7800"/>
</linearGradient>
<linearGradient id="paint5_linear" x1="9.96869" y1="6.79129" x2="6.86861" y2="15.5915" gradientUnits="userSpaceOnUse">
<stop stop-color="#FFC200" stop-opacity="0"/>
<stop offset="0.203" stop-color="#FFBB00" stop-opacity="0.203"/>
<stop offset="0.499" stop-color="#FFA700" stop-opacity="0.499"/>
<stop offset="0.852" stop-color="#FF8800" stop-opacity="0.852"/>
<stop offset="1" stop-color="#FF7800"/>
</linearGradient>
<linearGradient id="paint6_linear" x1="21.6384" y1="7.70978" x2="-1.13724" y2="17.41" gradientUnits="userSpaceOnUse">
<stop stop-color="#FFC200" stop-opacity="0"/>
<stop offset="0.203" stop-color="#FFBB00" stop-opacity="0.203"/>
<stop offset="0.499" stop-color="#FFA700" stop-opacity="0.499"/>
<stop offset="0.852" stop-color="#FF8800" stop-opacity="0.852"/>
<stop offset="1" stop-color="#FF7800"/>
</linearGradient>
<clipPath id="clip0">
<rect width="30" height="30" fill="white"/>
</clipPath>
</defs>
</svg>
