<svg width="68" height="68" viewBox="0 0 68 68" fill="none" xmlns="http://www.w3.org/2000/svg">
<g clip-path="url(#clip0)">
<path d="M29.5293 10.7588H41.1615L35.8111 17.3252L29.5293 10.7588Z" fill="#FCC69D"/>
<path d="M45.2563 7.78364L44.3756 6.83735C42.9554 5.3112 40.9642 4.44434 38.8793 4.44434H28.4482V6.1863C28.4482 8.79235 30.5674 10.9015 33.1734 10.8892L41.9079 10.8719L45.2563 7.78364Z" fill="#FCC69D"/>
<path d="M33.4419 53.9722C35.6344 55.6932 38.3957 56.5231 41.1737 56.2956L41.595 56.2611L48.8815 63.5476L66.6721 48.2057L56.582 38.1597L33.4419 53.9722Z" fill="#FCC69D"/>
<path d="M15.314 39.002L1.32861 52.9874L23.8932 63.5553L35.7974 51.607C40.6909 51.4295 45.3358 49.4061 48.7983 45.9437L61.6849 33.0572C63.121 31.6211 63.121 29.2927 61.6849 27.8565C60.2488 26.4204 57.9204 26.4204 56.4842 27.8565L54.8518 29.4889L58.2688 26.0719C59.7049 24.6358 59.7049 22.3075 58.2688 20.8712C56.8327 19.4351 54.5043 19.4351 53.0681 20.8712L49.6511 24.2882L54.3682 19.5711C55.8043 18.135 55.8043 15.8067 54.3682 14.3705C52.9321 12.9344 50.6038 12.9344 49.1675 14.3705L44.4504 19.0876L50.4678 13.0702C51.9039 11.6341 51.9039 9.30579 50.4678 7.86956C49.0317 6.43346 46.7033 6.43346 45.2671 7.86956L35.8114 17.3253" fill="#FCC69D"/>
<path d="M20.5151 33.8012L16.9257 30.2118C15.4896 28.7757 13.1613 28.7757 11.725 30.2118C10.2889 31.6479 10.2889 33.9763 11.725 35.4125L15.3144 39.0019C16.7505 40.438 19.0788 40.438 20.5151 39.0019C21.9512 37.5659 21.9512 35.2373 20.5151 33.8012Z" fill="#FCC69D"/>
<path d="M25.7152 28.6005L20.3412 23.2265C18.9051 21.7904 16.5768 21.7904 15.1406 23.2265C13.7045 24.6626 13.7045 26.9909 15.1406 28.4272L20.5145 33.8011C21.9507 35.2372 24.279 35.2372 25.7152 33.8011C27.1513 32.3649 27.1513 30.0366 25.7152 28.6005Z" fill="#FCC69D"/>
<path d="M30.9162 23.4001L24.2421 16.726C22.806 15.2899 20.4777 15.2899 19.0414 16.726C17.6053 18.1621 17.6053 20.4904 19.0414 21.9267L25.7155 28.6008C27.1516 30.0369 29.48 30.0369 30.9162 28.6008C32.3523 27.1648 32.3523 24.8362 30.9162 23.4001Z" fill="#FCC69D"/>
<path d="M36.1168 18.1994L28.1425 10.225C26.7064 8.78892 24.3781 8.78892 22.9418 10.225C21.5057 11.6611 21.5057 13.9895 22.9418 15.4257L30.9162 23.4C32.3523 24.8361 34.6806 24.8361 36.1168 23.4C37.5529 21.9638 37.5529 19.6355 36.1168 18.1994Z" fill="#FCC69D"/>
<path d="M67.6073 47.2628L64.3655 44.0474C63.8445 43.5306 63.0035 43.5342 62.4868 44.0551C61.9701 44.576 61.9737 45.4171 62.4945 45.9337L65.7362 49.1491C65.9952 49.4061 66.3335 49.5344 66.6716 49.5344C67.0132 49.5344 67.3551 49.4033 67.6147 49.1414C68.1317 48.6205 68.1282 47.7794 67.6073 47.2628Z" fill="black"/>
<path d="M59.1837 40.7577L59.1814 40.76C58.6627 41.2787 58.6639 42.1188 59.1826 42.6376C59.4416 42.8967 59.7815 43.0262 60.1212 43.0262C60.4619 43.0262 60.8026 42.8961 61.0622 42.6365C61.581 42.1177 61.581 41.2766 61.0622 40.7577C60.5436 40.239 59.7027 40.239 59.1837 40.7577Z" fill="black"/>
<path d="M42.5342 55.3221C42.2583 55.0464 41.875 54.9055 41.4863 54.9374L41.0652 54.9719C39.1212 55.1313 37.1996 54.7055 35.522 53.7653L36.3757 52.9085C41.4233 52.5974 46.1504 50.4698 49.7373 46.883L62.6238 33.9966C64.5755 32.0448 64.5755 28.869 62.6237 26.9171C61.9354 26.2289 61.0949 25.7845 60.2094 25.5817C60.513 24.9291 60.6737 24.2128 60.6737 23.4716C60.6737 22.1344 60.153 20.8774 59.2076 19.932C58.4661 19.1904 57.5326 18.7115 56.5193 18.5389C57.0898 16.8009 56.6866 14.8105 55.307 13.4311C54.5485 12.6727 53.6052 12.2105 52.6206 12.0416C52.7856 11.541 52.8726 11.0123 52.8726 10.47C52.8726 9.13288 52.3518 7.87581 51.4065 6.93045C50.461 5.98509 49.2039 5.46434 47.8669 5.46434C47.0178 5.46434 46.2014 5.67498 45.4761 6.07049L45.348 5.93277C43.6822 4.14272 41.3244 3.11621 38.8795 3.11621H28.4484C27.7148 3.11621 27.12 3.71108 27.12 4.4446V6.18657C27.12 6.8837 27.2379 7.56237 27.4633 8.20054C26.8625 7.95098 26.2123 7.8199 25.5422 7.8199C24.205 7.8199 22.9479 8.34066 22.0024 9.28602C20.6223 10.6662 20.2194 12.6581 20.7912 14.3966C19.8059 14.5652 18.8612 15.0276 18.102 15.7867C17.1567 16.7321 16.6359 17.9892 16.6359 19.3262C16.6359 19.8676 16.7226 20.3954 16.8869 20.8949C15.8749 21.0679 14.9423 21.5466 14.2014 22.2876C12.6772 23.8119 12.3434 26.0829 13.2002 27.9342C12.2929 28.1415 11.4597 28.5984 10.7852 29.2727C8.83356 31.2244 8.83356 34.4002 10.7852 36.352L13.4354 39.002L0.389074 52.0485C-0.129691 52.5672 -0.129691 53.4083 0.389074 53.9272C0.648457 54.1865 0.988457 54.3164 1.32832 54.3164C1.66819 54.3164 2.00819 54.1866 2.26757 53.9272L15.4402 40.7546C16.1859 41.1801 17.0322 41.4078 17.9142 41.4078C19.2512 41.4078 20.5083 40.887 21.4538 39.9415C22.4808 38.9145 22.9668 37.5482 22.9127 36.1999C22.9801 36.2027 23.0474 36.2047 23.1148 36.2047C24.3964 36.2046 25.6787 35.7166 26.6543 34.741C27.5997 33.7955 28.1205 32.5384 28.1205 31.2014C28.1205 31.1338 28.1182 31.0666 28.1155 30.9994C28.1821 31.0021 28.2486 31.0042 28.3153 31.0042C29.5971 31.0042 30.8791 30.5162 31.8549 29.5405C32.8002 28.595 33.321 27.3379 33.321 26.0009C33.321 25.9333 33.3187 25.8661 33.3161 25.7989C33.3826 25.8015 33.4492 25.8036 33.5158 25.8036C34.7977 25.8036 36.0796 25.3157 37.0554 24.3399C38.8893 22.506 38.9997 19.5917 37.3874 17.6273L46.2054 8.80935C46.6491 8.36549 47.2388 8.12125 47.8663 8.12125C48.4939 8.12125 49.0837 8.36549 49.5274 8.80935C49.9712 9.25308 50.2154 9.8429 50.2154 10.4703C50.2154 11.0977 49.9712 11.6877 49.5273 12.1313L48.2272 13.4314L43.51 18.1486C42.9912 18.6674 42.9912 19.5085 43.51 20.0274C43.7693 20.2866 44.1093 20.4165 44.4492 20.4165C44.7891 20.4165 45.1291 20.2867 45.3885 20.0274L50.1057 15.3101C51.0214 14.3943 52.5116 14.3941 53.4277 15.31C54.3436 16.226 54.3436 17.7163 53.4277 18.6322L52.1275 19.9324L48.7105 23.3494C48.1917 23.8682 48.1917 24.7093 48.7105 25.2282C48.9699 25.4874 49.3099 25.6173 49.6498 25.6173C49.9896 25.6173 50.3296 25.4875 50.589 25.2282L54.006 21.8112C54.4497 21.3673 55.0397 21.1231 55.667 21.1231C56.2945 21.1231 56.8843 21.3673 57.328 21.8112C57.7718 22.2549 58.016 22.8447 58.016 23.4721C58.016 24.0995 57.7718 24.6895 57.3279 25.1331L55.5433 26.9177L53.9109 28.5501C53.3921 29.0688 53.3921 29.9099 53.9109 30.4288C54.1703 30.6881 54.5103 30.818 54.8502 30.818C55.19 30.818 55.53 30.6882 55.7894 30.4288L57.423 28.7952C58.339 27.8808 59.8282 27.881 60.7438 28.7964C61.6599 29.7123 61.6599 31.2026 60.7438 32.1186L47.8573 45.005C44.6215 48.241 40.3209 50.1143 35.7477 50.2803C35.4116 50.2925 35.0923 50.4319 34.8548 50.6704L22.9506 62.6187C22.4328 63.1384 22.4342 63.9795 22.954 64.4974C23.2132 64.7556 23.5524 64.8848 23.8916 64.8848C24.2322 64.8848 24.5732 64.7545 24.8325 64.4939L33.5885 55.7057C35.8126 57.1325 38.4282 57.8109 41.0877 57.6351L47.9406 64.4881C48.2 64.7473 48.54 64.8772 48.8798 64.8772C49.2197 64.8772 49.5597 64.7475 49.8191 64.4881C50.3379 63.9693 50.3379 63.1282 49.8191 62.6093L42.5342 55.3221ZM29.7765 5.77286H38.8792C40.5892 5.77286 42.238 6.49071 43.4031 7.7426L43.4571 7.80064L35.5266 15.7311L31.878 12.0825C32.2917 12.1708 32.7171 12.2177 33.1501 12.2176C33.1598 12.2176 33.1696 12.2176 33.1794 12.2176L36.8249 12.2005C37.5584 12.197 38.1505 11.5995 38.147 10.8658C38.1435 10.1343 37.5495 9.54367 36.8187 9.54367C36.8166 9.54367 36.8145 9.54367 36.8124 9.54367L33.1669 9.5608C33.1614 9.5608 33.156 9.5608 33.1505 9.5608C32.2523 9.5608 31.4074 9.21217 30.7705 8.57826C30.1295 7.94023 29.7766 7.09102 29.7766 6.18657L29.7765 5.77286ZM19.5753 38.063C19.1316 38.5069 18.5416 38.7511 17.9143 38.7511C17.2868 38.7511 16.697 38.5069 16.2534 38.063L12.664 34.4738C11.7481 33.5579 11.7481 32.0675 12.664 31.1516C13.1077 30.7077 13.6977 30.4635 14.3251 30.4635C14.9525 30.4635 15.5424 30.7077 15.986 31.1516L19.5754 34.7409C20.4912 35.6567 20.4912 37.147 19.5753 38.063ZM25.4641 31.2013C25.4641 31.8287 25.2198 32.4186 24.7761 32.8622C23.8601 33.7781 22.3697 33.7781 21.4539 32.8622L17.8645 29.2728L16.0798 27.4881C15.1639 26.5722 15.1639 25.0819 16.0798 24.1661C16.5235 23.7222 17.1135 23.478 17.7408 23.478C18.3683 23.478 18.9581 23.7222 19.4017 24.1661L24.7757 29.5401C24.7757 29.5401 24.7757 29.5401 24.7758 29.5401C25.2197 29.9839 25.4641 30.5739 25.4641 31.2013ZM30.6646 26.0006C30.6646 26.628 30.4204 27.218 29.9766 27.6616C29.0606 28.5773 27.5703 28.5774 26.6545 27.6616L19.9802 20.9873C19.5365 20.5436 19.2923 19.9538 19.2923 19.3264C19.2923 18.699 19.5365 18.109 19.9804 17.6654C20.4383 17.2075 21.04 16.9785 21.6413 16.9785C22.2424 16.9785 22.8434 17.2072 23.3012 17.6644L26.3432 20.7063L29.9764 24.3395H29.9765C30.4204 24.7832 30.6646 25.3731 30.6646 26.0006ZM35.1773 22.4609C34.2614 23.3768 32.7711 23.3768 31.8553 22.4609L25.181 15.7867C25.1804 15.786 25.1796 15.7853 25.1788 15.7845L23.8808 14.4866C22.9649 13.5705 22.9649 12.0803 23.8808 11.1644C24.3388 10.7063 24.9404 10.4773 25.5419 10.4773C26.1434 10.4773 26.745 10.7063 27.2029 11.1644L35.177 19.1386C35.6209 19.5823 35.8651 20.1723 35.8651 20.7995C35.8653 21.4272 35.6212 22.0173 35.1773 22.4609Z" fill="black"/>
</g>
<defs>
<clipPath id="clip0">
<rect width="68" height="68" fill="white"/>
</clipPath>
</defs>
</svg>
