<svg width="10" height="14" viewBox="0 0 10 14" fill="none" xmlns="http://www.w3.org/2000/svg">
<path d="M9.07422 5.25H5.61043L6.15517 0.652191C6.15698 0.641083 6.15752 0.595047 6.15752 0.583298C6.15752 0.256134 5.90149 0 5.57422 0C5.39168 0 5.21661 0.0869446 5.09827 0.246735L0.440857 7.23338C0.365662 7.33368 0.324219 7.4579 0.324219 7.5833C0.324219 7.91057 0.580353 8.1667 0.907516 8.1667H3.79153L3.24263 13.3566C3.24146 13.367 3.24092 13.4061 3.24092 13.4167C3.24092 13.7439 3.49695 14 3.82422 14C4.00676 14 4.18182 13.9131 4.29729 13.7573L9.54088 6.18332C9.61618 6.08302 9.65752 5.9588 9.65752 5.8333C9.65752 5.50613 9.40149 5.25 9.07422 5.25Z" fill="#FFC107"/>
</svg>
