<svg width="7" height="12" viewBox="0 0 7 12" fill="none" xmlns="http://www.w3.org/2000/svg">
<path d="M6.48242 0.751099C6.55567 0.824341 6.59229 0.908569 6.59229 1.00378C6.59229 1.099 6.55567 1.18323 6.48242 1.25647L2.1648 5.5741L6.48242 9.89172C6.55567 9.96497 6.59229 10.0492 6.59229 10.1444C6.59229 10.2396 6.55567 10.3239 6.48242 10.3971L5.93311 10.9464C5.85986 11.0197 5.77564 11.0563 5.68042 11.0563C5.58521 11.0563 5.50098 11.0197 5.42773 10.9464L0.308106 5.82678C0.234863 5.75354 0.198242 5.66931 0.198242 5.5741C0.198242 5.47888 0.234863 5.39465 0.308106 5.32141L5.42773 0.201782C5.50098 0.12854 5.58521 0.0919189 5.68042 0.0919189C5.77564 0.0919189 5.85986 0.12854 5.93311 0.201782L6.48242 0.751099Z" fill="white"/>
</svg>
