<svg width="12" height="7" viewBox="0 0 12 7" fill="none" xmlns="http://www.w3.org/2000/svg">
<path d="M1.05176 0.49768C1.125 0.424438 1.20923 0.387816 1.30444 0.387816C1.39966 0.387816 1.48389 0.424438 1.55713 0.49768L5.87476 4.81531L10.1924 0.49768C10.2656 0.424438 10.3499 0.387816 10.4451 0.387816C10.5403 0.387816 10.6245 0.424438 10.6978 0.49768L11.2471 1.047C11.3203 1.12024 11.3569 1.20447 11.3569 1.29968C11.3569 1.3949 11.3203 1.47913 11.2471 1.55237L6.12744 6.672C6.0542 6.74524 5.96997 6.78186 5.87476 6.78186C5.77954 6.78186 5.69531 6.74524 5.62207 6.672L0.502441 1.55237C0.429199 1.47913 0.392578 1.3949 0.392578 1.29968C0.392578 1.20447 0.429199 1.12024 0.502441 1.047L1.05176 0.49768Z" fill="#FA7846"/>
</svg>
