<svg width="30" height="26" viewBox="0 0 30 26" fill="none" xmlns="http://www.w3.org/2000/svg">
<path d="M14.7598 0.548828C14.2207 0.689453 0.544927 5.40039 0.375005 5.50586C0.0585985 5.69922 -0.0937453 6.20312 0.0644579 6.51367C0.251958 6.87695 0.357427 6.92969 2.60743 7.69727C3.81446 8.11328 4.79297 8.45898 4.78126 8.4707C4.7754 8.48242 3.80274 8.81641 2.63086 9.2207C1.45899 9.625 0.433599 10 0.351567 10.0586C-0.14062 10.416 -0.0820266 11.2012 0.462895 11.4707C0.580083 11.5293 1.5879 11.8867 2.70704 12.2734C3.83204 12.6543 4.7461 12.9883 4.7461 13.0059C4.7461 13.0234 3.83204 13.3457 2.7129 13.7324C1.5879 14.1133 0.580083 14.4707 0.462895 14.5293C-0.0820266 14.7988 -0.14062 15.584 0.351567 15.9414C0.433599 16 1.45899 16.375 2.63672 16.7793C3.8086 17.1836 4.78126 17.5234 4.78712 17.5352C4.79883 17.5469 3.82618 17.8867 2.62501 18.2969C0.42188 19.0469 0.251958 19.123 0.082036 19.457C-0.0937453 19.7969 0.0410204 20.2949 0.375005 20.4941C0.691411 20.6875 14.7539 25.4922 14.9883 25.4922C15.2168 25.4863 29.3086 20.6816 29.6074 20.5117C29.8008 20.4004 30 20.0488 30 19.8262C30 19.6152 29.8652 19.3223 29.7012 19.1699C29.6133 19.0938 28.7344 18.7598 27.4805 18.332C26.3379 17.9336 25.3535 17.5938 25.2891 17.5703C25.2129 17.5469 25.7344 17.3418 26.9297 16.9316C29.4902 16.0527 29.5313 16.041 29.7129 15.8887C30.1465 15.5195 30.0527 14.7871 29.5371 14.5293C29.4199 14.4707 28.4121 14.1074 27.293 13.7266C26.1738 13.3457 25.2539 13.0176 25.2539 13C25.2539 12.9824 26.168 12.6543 27.293 12.2734C28.4121 11.8926 29.4199 11.5293 29.5371 11.4707C30.0996 11.1895 30.1406 10.3926 29.6133 10.041C29.5195 9.97656 28.4824 9.5957 27.3164 9.19727C26.1504 8.79883 25.2012 8.46484 25.207 8.45898C25.2188 8.44727 26.2031 8.10742 27.3926 7.69727C28.7227 7.24023 29.6133 6.90625 29.7012 6.83008C29.8652 6.67773 30 6.38477 30 6.16797C30 5.93359 29.8301 5.62891 29.625 5.50586C29.4492 5.39453 15.4746 0.566406 15.1699 0.507812C15.0879 0.496094 14.9004 0.507812 14.7598 0.548828ZM22.1309 4.67969C24.5215 5.5 26.4609 6.19141 26.4375 6.20898C26.4141 6.22656 23.8301 7.12305 20.6895 8.20117L14.9824 10.1523L13.5703 9.66602C11.5488 8.97461 9.02344 8.10156 6.12305 7.11133C4.74024 6.63672 3.58594 6.23242 3.56251 6.20898C3.53907 6.19141 4.3711 5.88672 5.40821 5.5293C6.44532 5.17773 9.03516 4.29297 11.1621 3.56055L15.0293 2.23633L16.4063 2.71094C17.168 2.97461 19.7461 3.85938 22.1309 4.67969ZM11.1856 10.6504C13.166 11.3301 14.8711 11.8867 14.9766 11.8867C15.082 11.8867 16.8281 11.3184 18.8555 10.6211L22.5469 9.36133L24.4746 10.0176C25.5293 10.3809 26.4141 10.6914 26.4375 10.709C26.4609 10.7324 23.8945 11.6348 20.7305 12.7188L14.9824 14.6875L9.52735 12.8125C6.52735 11.7812 3.94337 10.8906 3.78516 10.8379L3.49219 10.7383L4.10743 10.5215C6.22266 9.77148 7.42383 9.37305 7.50001 9.39062C7.54688 9.40234 9.20508 9.96484 11.1856 10.6504ZM26.2734 15.1797C26.4668 15.25 26.4902 15.2734 26.3906 15.3086C26.332 15.332 23.7363 16.2227 20.6309 17.2891L14.9824 19.2285L14.7129 19.1348C14.5664 19.0879 13.7168 18.7949 12.832 18.4902C11.9473 18.1855 9.52149 17.3477 7.45313 16.6387C5.37891 15.9238 3.64454 15.3203 3.59766 15.2969C3.52149 15.2559 7.25391 13.9375 7.45313 13.9375C7.51173 13.9375 9.21094 14.5059 11.2324 15.2031C14.0039 16.1523 14.9531 16.457 15.082 16.4336C15.1758 16.4102 16.2481 16.0586 17.4551 15.6426C18.668 15.2266 20.3027 14.6641 21.0938 14.3945L22.5293 13.8965L24.2871 14.5C25.2539 14.8281 26.1504 15.1387 26.2734 15.1797ZM11.1504 19.709C13.166 20.4004 14.8887 20.9688 14.9824 20.9688C15.0762 20.9688 15.375 20.8926 15.6504 20.7988C18.6445 19.7676 20.3262 19.1934 21.3457 18.8477L22.5645 18.4375L24.4805 19.0938C25.5352 19.457 26.4141 19.7676 26.4375 19.791C26.4727 19.8262 15.1113 23.7461 14.9766 23.7402C14.9414 23.7402 12.709 22.9844 10.0195 22.0586C7.33008 21.1328 4.76368 20.248 4.32422 20.1016C3.88477 19.9492 3.53321 19.8145 3.55079 19.7969C3.58594 19.7617 7.31837 18.4668 7.41798 18.4551C7.45313 18.4551 9.13477 19.0176 11.1504 19.709Z" fill="#1E2533"/>
</svg>
