<svg width="30" height="30" viewBox="0 0 30 30" fill="none" xmlns="http://www.w3.org/2000/svg">
<path d="M23.4375 11.25H18.75V13.125H23.4375C23.6861 13.125 23.9246 13.2238 24.1004 13.3996C24.2762 13.5754 24.375 13.8139 24.375 14.0625V15.9375H20.625C19.8793 15.9382 19.1644 16.2348 18.6371 16.7621C18.1098 17.2894 17.8132 18.0043 17.8125 18.75V19.6875C17.8132 20.4332 18.1098 21.1481 18.6371 21.6754C19.1644 22.2027 19.8793 22.4993 20.625 22.5H26.25V14.0625C26.2493 13.3168 25.9527 12.6019 25.4254 12.0746C24.8981 11.5473 24.1832 11.2507 23.4375 11.25ZM20.625 20.625C20.3764 20.625 20.1379 20.5262 19.9621 20.3504C19.7863 20.1746 19.6875 19.9361 19.6875 19.6875V18.75C19.6875 18.5014 19.7863 18.2629 19.9621 18.0871C20.1379 17.9113 20.3764 17.8125 20.625 17.8125H24.375V20.625H20.625Z" fill="#1E2533"/>
<path d="M15 22.5H16.875L11.25 6.5625H9.375L3.75 22.5H5.625L7.21312 17.8125H13.4128L15 22.5ZM7.84781 15.9375L10.1888 9.02719H10.4381L12.7781 15.9375H7.84781Z" fill="#1E2533"/>
</svg>
