<svg width="30" height="30" viewBox="0 0 30 30" fill="none" xmlns="http://www.w3.org/2000/svg">
<path d="M15 0.9375C7.23352 0.9375 0.9375 7.23352 0.9375 15C0.9375 22.7665 7.23352 29.0625 15 29.0625C22.7665 29.0625 29.0625 22.7665 29.0625 15C29.0625 7.23352 22.7665 0.9375 15 0.9375ZM23.6179 23.6179C21.481 25.7484 18.6274 27.007 15.6132 27.1485C12.599 27.29 9.64012 26.3042 7.31304 24.3833C4.98597 22.4623 3.45742 19.7438 3.02525 16.7574C2.59307 13.771 3.28823 10.7306 4.97526 8.22877C6.6623 5.72692 9.22036 3.94276 12.151 3.22396C15.0817 2.50515 18.1749 2.90319 20.8281 4.34051C23.4814 5.77782 25.5044 8.15146 26.5031 10.9989C27.5018 13.8464 27.4046 16.9636 26.2305 19.7433C25.6186 21.1918 24.7313 22.5076 23.6179 23.6179Z" fill="#1E2533"/>
<path d="M8.90625 11.7188H11.25V14.0625H8.90625V11.7188Z" fill="#1E2533"/>
<path d="M18.75 11.7188H21.0938V14.0625H18.75V11.7188Z" fill="#1E2533"/>
<path d="M19.8217 18C19.459 18.9151 18.8291 19.6997 18.0139 20.2516C17.1988 20.8035 16.2363 21.0969 15.252 21.0938H14.7481C13.7637 21.097 12.8012 20.8035 11.986 20.2517C11.1709 19.6998 10.5409 18.9151 10.1782 18L10.1033 17.8125H8.08411L8.43754 18.6962C8.94203 19.9574 9.81286 21.0385 10.9377 21.8001C12.0625 22.5616 13.3897 22.9687 14.7481 22.9688H15.252C16.6104 22.9687 17.9376 22.5616 19.0624 21.8001C20.1872 21.0385 21.0581 19.9574 21.5625 18.6962L21.916 17.8125H19.8966L19.8217 18Z" fill="#1E2533"/>
</svg>
