<svg width="80" height="80" viewBox="0 0 80 80" fill="none" xmlns="http://www.w3.org/2000/svg">
<path d="M39.4375 0.140625C39.25 0.21875 38.9531 0.484375 38.7656 0.734375C38.4375 1.125 38.4219 1.3125 38.4688 2.84375C38.5156 4.4375 38.5312 4.54688 38.9531 4.95312C39.5469 5.54688 40.4531 5.54688 41.0625 4.95312C41.4688 4.53125 41.4844 4.48438 41.4844 2.73438C41.4844 1.03125 41.4688 0.921875 41.0938 0.546875C40.6562 0.109375 39.9375 -0.0625 39.4375 0.140625Z" fill="#FAB9AF"/>
<path d="M30.875 3.20313C30.2344 3.54688 30.0156 3.89063 30 4.57813C30 5.12501 30.125 5.31251 31.0625 6.28126C32.6094 7.90626 33.4688 8.14063 34.2969 7.15626C35 6.31251 34.7813 5.59376 33.3281 4.18751C32.5469 3.42188 31.8438 2.96876 31.4375 2.96876C31.375 2.96876 31.125 3.07813 30.875 3.20313Z" fill="#FAB9AF"/>
<path d="M46.5312 4.35923C45.4688 5.45298 45.3125 5.67173 45.3125 6.17173C45.3125 6.90611 45.6875 7.43736 46.3438 7.65611C47.125 7.92173 47.5781 7.68736 48.8906 6.32798C49.8594 5.34361 50 5.10923 50 4.60923C50 3.76548 49.3125 3.12486 48.4219 3.12486C47.7812 3.12486 47.6719 3.20298 46.5312 4.35923Z" fill="#FAB9AF"/>
<path d="M38.2031 8.65625C35.8594 9.10937 33.3594 10.9219 32.125 13.0312L31.5156 14.0625L31.125 13.8125C29.6719 12.8594 28.5312 12.5 26.9531 12.5C24.5937 12.5 22.4687 13.6875 21.1406 15.75C20.2812 17.0781 20.1406 17.7656 20.0469 20.7031C19.9219 24.7187 20.2969 26.0625 22.0625 27.9062C22.5625 28.4219 22.9687 28.9531 22.9687 29.0781C22.9687 29.2344 22.4219 29.4219 21.2344 29.7187C19.1719 30.2187 18.0937 30.7031 17.0625 31.6406C15.3281 33.2031 14.7031 34.7969 14.5781 37.9687C14.5156 39.7969 14.5469 40.1562 14.7969 40.625C15.2656 41.5156 15.4687 41.5625 19.5781 41.5625H23.2812V44.6875C23.2812 48.2969 23.3906 48.7656 24.2812 49.1406C24.7187 49.3281 25.75 49.375 29.4219 49.375C31.9531 49.375 34.2344 49.3281 34.5156 49.2812C35.7656 49.0312 36.2187 47.5937 35.3281 46.7031C34.9062 46.2812 34.7812 46.25 33.7812 46.25H32.6875L32.625 44.2812L32.5781 42.3125L32.0469 41.8437C31.6094 41.4531 31.4375 41.3906 30.9531 41.4687C30.5937 41.5156 30.2344 41.7344 29.9687 42.0312C29.5469 42.5 29.5312 42.5469 29.5312 44.375V46.25H27.9687H26.4062V44.0937C26.4062 42.9062 26.4844 41.5312 26.5781 41.0312C26.9531 38.9687 28.25 37.2344 30.0312 36.4062C30.9375 35.9844 35.5625 34.7187 35.7031 34.8594C35.7344 34.8906 36.4062 36.3906 37.1875 38.2031C38.0312 40.1406 38.7812 41.625 39 41.8281C39.2656 42.0781 39.5937 42.1875 40 42.1875C40.4062 42.1875 40.7344 42.0781 41 41.8281C41.2344 41.625 41.9531 40.2031 42.8125 38.2031C43.6094 36.3906 44.2656 34.9062 44.2969 34.875C44.4219 34.7344 49.1406 36.0156 49.9844 36.4062C51.7344 37.2344 53.0469 39 53.4219 41.0312C53.5156 41.5312 53.5937 42.9062 53.5937 44.0937V46.25H52.0469H50.5L50.4375 44.2812L50.3906 42.3125L49.8594 41.8437C49.4219 41.4531 49.25 41.3906 48.7656 41.4687C48.4062 41.5156 48.0469 41.7344 47.7812 42.0312C47.3594 42.5 47.3437 42.5469 47.3437 44.375V46.25H46.1562C45.0625 46.25 44.9375 46.2812 44.5156 46.7031C43.625 47.5937 44.0781 49.0312 45.3281 49.2812C45.6094 49.3281 47.9219 49.375 50.5 49.375C55.7812 49.375 56.0937 49.3281 56.4844 48.375C56.6719 47.9531 56.7187 47.0937 56.7187 44.7031V41.5781L60.625 41.5312L64.5312 41.4844L64.9531 41.0469C65.3594 40.6406 65.3906 40.5312 65.4375 38.9375C65.5625 35.5 64.875 33.4531 63.0937 31.7812C61.9062 30.7031 60.9687 30.25 58.7344 29.7031C57.5625 29.4219 57.0312 29.2344 57.0312 29.0781C57.0312 28.9531 57.4375 28.4219 57.9531 27.9062C59.625 26.1562 60 24.9687 60 21.3906C60 18.5156 59.8594 17.6094 59.2031 16.3125C58.0312 13.9844 55.625 12.5 53.0156 12.5C51.875 12.5 50.3281 12.8906 49.5781 13.375C49.375 13.5 49.0469 13.7031 48.8437 13.8437C48.4687 14.0781 48.4531 14.0781 48.1094 13.4062C46.2812 9.8125 42.2031 7.85937 38.2031 8.65625ZM41.5312 11.7812C43.5781 12.3281 45.3281 14.1094 45.8437 16.1562L45.9531 16.5937L45.2812 16.2187C43.0625 14.9219 42.7969 14.8125 42.3281 14.9062C42.0625 14.9531 41.4219 15.375 40.8906 15.8594C39.2812 17.3125 37.9375 17.7969 35.4844 17.8125H34.0156L34.1094 16.8906C34.4219 13.3594 38.0625 10.8594 41.5312 11.7812ZM29 16.1875C29.6875 16.6094 30.4687 17.4844 30.4687 17.8281C30.4687 17.9062 30.2031 18.0781 29.8906 18.2187C28.6094 18.7812 27.0781 19.0781 25.1094 19.1719L23.1094 19.2656L23.2187 18.8125C23.5625 17.3906 24.1719 16.5781 25.3906 15.9844C26.5156 15.4531 27.9375 15.5312 29 16.1875ZM54.2344 15.7812C55.3594 16.0937 56.5156 17.4219 56.7969 18.7031L56.9062 19.2187H55.6562C54.9531 19.2187 53.8594 19.1406 53.1875 19.0469C51.9062 18.875 49.6719 18.1406 49.5781 17.875C49.5469 17.7812 49.7344 17.4219 49.9844 17.0781C50.8437 15.875 52.625 15.3437 54.2344 15.7812ZM44.4062 19.3281L45.9375 20.2187V21.9531C45.9375 24.4531 45.4844 25.6406 44.0156 26.9844C43.0937 27.8281 42.3125 28.2187 41.0312 28.4531C38.4062 28.9375 35.7187 27.5156 34.5625 25.0312C34.2187 24.2969 34.1406 23.8594 34.0937 22.5312L34.0312 20.9375H35.5625C36.4219 20.9375 37.5937 20.8281 38.2031 20.7031C39.4219 20.4375 41.1719 19.6406 42.1094 18.9219C42.4531 18.6562 42.7656 18.4375 42.7969 18.4375C42.8281 18.4375 43.5469 18.8437 44.4062 19.3281ZM30.9375 22.0937C30.9375 24.2812 30.2344 25.6719 28.7656 26.4375C26.6562 27.5469 24.0312 26.4531 23.3594 24.1875C23.2344 23.75 23.125 23.1562 23.125 22.8906V22.3906L25.2812 22.2969C27.2969 22.2031 29.6406 21.7812 30.2969 21.4062C30.8125 21.0937 30.9375 21.2187 30.9375 22.0937ZM49.9531 21.4844C51.1406 21.9375 52.625 22.2031 54.75 22.2969L56.9062 22.3906L56.8281 23.2812C56.4844 27.1719 51.3437 28.25 49.6094 24.7969C49.2812 24.125 49.2187 23.7812 49.2187 22.625C49.2187 21.875 49.25 21.25 49.2969 21.25C49.3281 21.25 49.6406 21.3594 49.9531 21.4844ZM33.6406 29C34.3906 29.7344 34.875 30.2969 34.7187 30.2344C34.5781 30.1719 33.6875 29.9375 32.75 29.7187C31.8281 29.4844 31.0156 29.2187 30.9844 29.1094C30.9219 28.9531 32.0156 27.75 32.2812 27.6562C32.2969 27.6562 32.9062 28.2656 33.6406 29ZM48.4219 28.2656C48.8281 28.6406 49.0781 28.9687 49.0156 29.0937C48.9687 29.2187 48.3906 29.4375 47.6406 29.6094C46.9219 29.7656 46.0469 30 45.7187 30.1094C45.375 30.2187 45.0781 30.2969 45.0625 30.2656C45.0312 30.2344 45.3437 29.9687 45.75 29.6719C46.1562 29.3594 46.7344 28.7812 47.0312 28.3906C47.3281 27.9844 47.6094 27.6719 47.6562 27.6719C47.7031 27.6719 48.0469 27.9375 48.4219 28.2656ZM27.8906 30.625C28.0312 31.5 28.6406 31.9531 30.0781 32.2656C30.7187 32.4062 31.25 32.5469 31.25 32.5781C31.25 32.6094 30.8437 32.75 30.3594 32.8906C28 33.5781 25.625 35.4531 24.5625 37.4531L24.0469 38.4375H20.8281H17.6094L17.7031 37.2656C17.8594 35.4375 18.4375 34.3594 19.6562 33.5781C20.125 33.2812 21.125 32.9531 22.7812 32.5625C25.5781 31.875 26.0937 31.5781 26.0937 30.5625V30H26.9375H27.7812L27.8906 30.625ZM53.9062 30.5625C53.9062 31.5625 54.4375 31.8906 56.9531 32.4844C58.1562 32.7656 59.4219 33.125 59.7656 33.2656C61.3281 33.9531 62.1406 35.2031 62.2969 37.1875L62.3906 38.4375H59.1719H55.9531L55.4375 37.4531C54.375 35.4531 52 33.5781 49.6562 32.8906C49.1562 32.75 48.75 32.6094 48.75 32.5781C48.75 32.5469 49.2812 32.4062 49.9219 32.2656C51.3594 31.9531 51.9844 31.4844 52.125 30.6094L52.2344 30H53.0625H53.9062V30.5625ZM41.875 32.1094C41.875 32.375 41.4531 33.5312 40.9531 34.6719L40.0312 36.7656L39.7969 36.3125C39.1094 34.9687 38.125 32.4687 38.125 32.0937V31.6406H40H41.875V32.1094Z" fill="#FA7846"/>
<path d="M4.53125 24.5311C2.67188 24.7499 0.875 26.2655 0.3125 28.078C0.015625 29.0624 0 29.5155 0 41.953C0 50.2186 0.0625 55.2655 0.171875 56.0468C0.375 57.5624 1.09375 59.7655 1.82812 61.0936C2.45312 62.2499 5.4375 66.4999 5.9375 66.953C6.89062 67.8124 8.70312 66.6874 8.375 65.4218C8.32812 65.2343 7.54688 64.0155 6.65625 62.7343C5.75 61.4374 4.71875 59.828 4.39062 59.1405C3.17188 56.703 3.21875 57.4686 3.17188 42.5468C3.125 30.8593 3.14062 29.1718 3.34375 28.7655C4.0625 27.3749 6.01562 27.2343 6.9375 28.4843C7.26562 28.9218 7.26562 29.078 7.34375 39.8905C7.4375 51.9374 7.40625 51.5468 8.42188 53.5936C9.17188 55.0936 9.70312 55.7655 12.6094 58.8593C17.8906 64.4999 18.25 64.8436 18.9219 64.8436C19.3281 64.8436 19.6562 64.7186 19.9844 64.4374C20.3906 64.0936 20.4688 63.9218 20.4688 63.3436C20.4688 62.6718 20.4375 62.6249 17.0781 59.0468C11.8281 53.4686 12 53.6874 12 52.4843C12 51.0468 12.9375 50.0936 14.375 50.078C15.2188 50.078 15.2812 50.1093 18.125 52.0155C21.9375 54.578 23.125 55.4999 24.5312 56.9686C26.4844 59.0155 27.9844 61.5311 28.9531 64.3749C29.1719 65.0155 29.9844 68.5624 30.7656 72.2655C32.2344 79.2186 32.3594 79.6249 33.1562 79.9061C34.0781 80.2343 35.1562 79.4843 35.1562 78.5155C35.1562 77.953 32.9531 67.2343 32.3594 64.9061C31.6094 61.9999 30.1719 58.9843 28.3281 56.5624C27.4844 55.4374 25.3281 53.328 24.0625 52.3593C22.3594 51.0468 17.2344 47.6561 16.4531 47.3124C14.8594 46.6093 12.8281 46.828 11.2656 47.8749L10.4844 48.4061L10.4375 38.3905C10.3906 28.4843 10.3906 28.3436 10.0469 27.6249C9.07812 25.4999 6.84375 24.2655 4.53125 24.5311Z" fill="#1E2533"/>
<path d="M72.5781 24.9843C71.5 25.4843 70.4375 26.5468 69.9531 27.6249C69.6094 28.3436 69.6094 28.4843 69.5625 38.3905L69.5156 48.4061L68.7344 47.8749C67.1719 46.828 65.1406 46.6093 63.5469 47.3124C62.7656 47.6561 57.6406 51.0468 55.9375 52.3593C54.6719 53.328 52.5156 55.4374 51.6719 56.5624C49.8281 58.9843 48.3906 61.9999 47.6406 64.9061C47.0469 67.2343 44.8438 77.953 44.8438 78.5155C44.8438 79.4843 45.9219 80.2343 46.8438 79.9061C47.6406 79.6249 47.7656 79.2186 49.2344 72.2655C50.0156 68.5624 50.8281 65.0155 51.0469 64.3749C52.0156 61.5311 53.5156 59.0155 55.4688 56.9686C56.875 55.4999 58.0625 54.578 61.875 52.0155C64.7188 50.1093 64.7812 50.078 65.625 50.078C67.0625 50.0936 68 51.0468 68 52.4843C68 53.6874 68.1719 53.4686 62.9375 59.0468C59.5625 62.6249 59.5312 62.6718 59.5312 63.3436C59.5312 63.9218 59.6094 64.0936 60.0156 64.4374C60.3438 64.7186 60.6719 64.8436 61.0781 64.8436C61.75 64.8436 62.1094 64.4999 67.3906 58.8593C70.2969 55.7655 70.8281 55.0936 71.5781 53.5936C72.5938 51.5468 72.5625 51.9374 72.6562 39.8905C72.7344 29.078 72.7344 28.9218 73.0625 28.4843C73.9844 27.2343 75.9375 27.3749 76.6406 28.7499C76.8438 29.1405 76.875 30.9843 76.875 41.9218C76.875 55.8436 76.8438 56.3124 75.9688 58.4374C75.3594 59.8436 74.875 60.578 68.5 69.5468C65.4219 73.8749 62.8125 77.6874 62.7031 78.0155C62.5312 78.5155 62.5312 78.6718 62.7344 79.0624C63.2031 79.9686 64.0625 80.2343 64.8906 79.7186C65.375 79.4218 77.4531 62.4843 78.2344 60.9999C78.9219 59.703 79.6406 57.4999 79.8281 56.0468C79.9375 55.2655 80 50.2186 80 41.953C80 29.5155 79.9844 29.0624 79.6875 28.078C79.2656 26.7343 78.2969 25.6405 76.9531 24.9999C76.125 24.6093 75.7812 24.5311 74.75 24.5311C73.7188 24.5311 73.3594 24.6093 72.5781 24.9843Z" fill="#1E2533"/>
<path d="M39.0156 46.625C37.6094 47.9375 39.3594 50.1093 40.8906 48.9687C42.0625 48.0937 41.4531 46.25 40 46.25C39.6094 46.25 39.2969 46.375 39.0156 46.625Z" fill="#FAB9AF"/>
<path d="M9.2969 69.4221C9.03128 69.6408 8.8594 69.9846 8.7969 70.4065C8.7344 70.9533 8.78128 71.1252 9.1719 71.5627C9.51565 71.9377 9.75003 72.0627 10.2032 72.0784C11.2344 72.1096 12.0469 71.1565 11.8125 70.219C11.5313 69.1252 10.1407 68.6877 9.2969 69.4221Z" fill="#1E2533"/>
<path d="M12.4688 74.0625C11.6875 74.8437 11.8594 75.4687 13.4844 77.7344C14.7813 79.5781 15.25 80 15.9844 80C16.4531 80 16.9844 79.6094 17.2656 79.0625C17.4688 78.6719 17.4688 78.5156 17.2969 78.0156C17.0469 77.2969 14.9844 74.3594 14.4219 73.9062C13.8125 73.4375 13.0469 73.5 12.4688 74.0625Z" fill="#1E2533"/>
</svg>
