<svg width="290" height="68" viewBox="0 0 290 68" fill="none" xmlns="http://www.w3.org/2000/svg">
<path d="M156.5 33.4804L156.012 33.5881L156.5 33.4804ZM285.646 67.8322C285.842 68.0275 286.158 68.0275 286.354 67.8322L289.536 64.6503C289.731 64.455 289.731 64.1384 289.536 63.9431C289.34 63.7479 289.024 63.7479 288.828 63.9431L286 66.7716L283.172 63.9431C282.976 63.7479 282.66 63.7479 282.464 63.9431C282.269 64.1384 282.269 64.455 282.464 64.6503L285.646 67.8322ZM1.46007 56.1958C6.78039 43.6946 18.2602 32.2553 32.7559 23.0732C47.2441 13.8958 64.6993 7.00317 81.9001 3.57142C99.1071 0.138422 116.014 0.17752 129.427 4.81351C142.815 9.44135 152.715 18.6422 156.012 33.5881L156.988 33.3727C153.605 18.0325 143.414 8.59032 129.753 3.86838C116.116 -0.845396 99.0148 -0.862866 81.7044 2.59075C64.3877 6.04562 46.8168 12.9828 32.2208 22.2284C17.6322 31.4693 5.96961 43.0461 0.539932 55.8042L1.46007 56.1958ZM156.012 33.5881C157.795 41.6735 161.189 47.444 165.791 51.4282C170.389 55.4092 176.152 57.5717 182.618 58.5156C195.523 60.3995 211.358 57.4428 226.647 54.2409C234.308 52.6363 241.835 50.9689 248.83 49.7981C255.828 48.6271 262.257 47.9601 267.716 48.345C273.177 48.73 277.603 50.1632 280.667 53.131C283.721 56.0902 285.5 60.6541 285.5 67.4787H286.5C286.5 60.4835 284.673 55.6202 281.363 52.4128C278.061 49.2138 273.363 47.7406 267.786 47.3474C262.208 46.9541 255.686 47.637 248.665 48.8119C241.643 49.987 234.085 51.6612 226.442 53.2621C211.12 56.471 195.462 59.3799 182.763 57.5261C176.426 56.6011 170.859 54.4939 166.445 50.6722C162.035 46.8537 158.734 41.2884 156.988 33.3727L156.012 33.5881Z" fill="#FA7846"/>
</svg>
