<svg width="101" height="34" viewBox="0 0 101 34" fill="none" xmlns="http://www.w3.org/2000/svg">
<path d="M98.6085 0.895732C98.4991 0.812672 98.3426 0.835125 98.259 0.945878L96.8954 2.75073C96.8118 2.86148 96.8326 3.0186 96.9419 3.10166C97.0513 3.18472 97.2078 3.16227 97.2915 3.05151L98.5035 1.4472L100.088 2.65034C100.197 2.7334 100.354 2.71095 100.437 2.60019C100.521 2.48944 100.5 2.33232 100.391 2.24926L98.6085 0.895732ZM62.957 17.4643L63.2064 17.4619L62.957 17.4643ZM98.2098 1.13173C99.2048 8.63776 97.4826 12.4376 94.472 14.2332C92.9502 15.1409 91.0697 15.5569 88.9732 15.6553C86.8776 15.7537 84.5834 15.534 82.2461 15.1845C79.9078 14.8349 77.5411 14.3578 75.2914 13.9436C73.0474 13.5304 70.9195 13.1797 69.0809 13.09C67.25 13.0007 65.6611 13.167 64.5233 13.8278C63.3574 14.505 62.7077 15.6746 62.7077 17.4667L63.2064 17.4619C63.2064 15.8108 63.791 14.8297 64.7696 14.2613C65.7764 13.6766 67.2422 13.5025 69.0519 13.5907C70.854 13.6786 72.9526 14.0235 75.197 14.4367C77.4356 14.8489 79.8188 15.3291 82.1681 15.6804C84.5182 16.0318 86.849 16.2567 88.9917 16.1561C91.1335 16.0556 93.1046 15.6292 94.7234 14.6637C97.994 12.713 99.7093 8.6439 98.7042 1.06081L98.2098 1.13173ZM62.7077 17.4667C62.7077 21.8926 61.7397 25.1835 60.0699 27.5693C58.4017 29.9526 56.0157 31.4574 53.1321 32.2813C47.3478 33.9342 39.5982 32.8368 31.7988 30.6081C24.0102 28.3826 16.2168 25.0426 10.3674 22.2569C7.4435 20.8645 5.00699 19.6113 3.30174 18.7063C2.44915 18.2539 1.77944 17.8886 1.32311 17.6365C1.09494 17.5104 0.920121 17.4127 0.802462 17.3465C0.743633 17.3135 0.699095 17.2883 0.669324 17.2714C0.654438 17.263 0.643244 17.2566 0.635801 17.2524C0.63208 17.2502 0.629297 17.2487 0.627458 17.2476C0.626539 17.2471 0.625872 17.2467 0.625411 17.2464C0.62498 17.2462 0.624787 17.2461 0.5 17.4643C0.375213 17.6825 0.375496 17.6827 0.376017 17.683C0.376507 17.6832 0.377265 17.6837 0.378245 17.6842C0.380204 17.6853 0.383109 17.687 0.386952 17.6892C0.394639 17.6936 0.406079 17.7001 0.421213 17.7087C0.451482 17.7258 0.496527 17.7513 0.555873 17.7846C0.674563 17.8514 0.850456 17.9497 1.07974 18.0764C1.5383 18.3297 2.21044 18.6964 3.06566 19.1502C4.77603 20.0578 7.21898 21.3143 10.1504 22.7104C16.0117 25.5018 23.8326 28.8543 31.6582 31.0905C39.473 33.3235 47.3378 34.4569 53.2641 32.7635C56.2359 31.9143 58.7294 30.3517 60.4768 27.8551C62.2226 25.3609 63.2064 21.9593 63.2064 17.4619L62.7077 17.4667Z" fill="#FA7846"/>
</svg>
