<svg width="41" height="34" viewBox="0 0 41 34" fill="none" xmlns="http://www.w3.org/2000/svg">
<path d="M38.28 33.6188C38.3457 33.7403 38.4973 33.7856 38.6188 33.72L40.5984 32.6505C40.7199 32.5849 40.7652 32.4332 40.6995 32.3117C40.6339 32.1902 40.4822 32.145 40.3608 32.2106L38.6011 33.1612L37.6505 31.4016C37.5849 31.2801 37.4332 31.2348 37.3117 31.3004C37.1903 31.3661 37.145 31.5177 37.2106 31.6392L38.28 33.6188ZM0.839027 -0.232038C0.589057 -0.23585 0.589054 -0.235634 0.589049 -0.235334C0.589046 -0.235121 0.589041 -0.234735 0.589035 -0.23431C0.589024 -0.233459 0.589009 -0.23227 0.588993 -0.230749C0.588959 -0.227706 0.588917 -0.223328 0.588879 -0.217643C0.588803 -0.206274 0.588741 -0.189673 0.588788 -0.168053C0.588882 -0.124814 0.589412 -0.0614903 0.591135 0.020222C0.594579 0.183632 0.602795 0.420673 0.621846 0.717759C0.659934 1.31174 0.741398 2.14681 0.914979 3.11401C1.26154 5.04504 1.97821 7.51944 3.46439 9.65192C4.95528 11.7912 7.21916 13.5829 10.6383 14.1325C14.048 14.6805 18.5788 13.9888 24.6041 11.2273L24.3958 10.7727C18.4211 13.5111 13.9943 14.1655 10.7176 13.6388C7.45028 13.1136 5.29893 11.4098 3.87459 9.36604C2.44554 7.31552 1.74698 4.9194 1.40711 3.02568C1.23748 2.08049 1.15794 1.26462 1.12082 0.685761C1.10227 0.396425 1.09433 0.166566 1.09102 0.0096824C1.08937 -0.0687521 1.08887 -0.128924 1.08878 -0.169143C1.08874 -0.189253 1.0888 -0.204372 1.08887 -0.21429C1.0889 -0.219249 1.08893 -0.222908 1.08896 -0.225239C1.08897 -0.226405 1.08898 -0.227239 1.08899 -0.227738C1.08899 -0.227988 1.089 -0.22811 1.089 -0.228235C1.089 -0.228273 1.089 -0.228227 0.839027 -0.232038ZM24.6041 11.2273C30.5814 8.48769 34.3493 8.56321 36.6756 10.0842C39.0101 11.6106 40.0019 14.6608 40.2506 18.1428C40.4984 21.6113 40.0028 25.4305 39.4419 28.391C39.1617 29.8694 38.866 31.13 38.6405 32.0207C38.5277 32.4659 38.4325 32.8186 38.3656 33.0596C38.3321 33.1801 38.3057 33.2727 38.2878 33.3349C38.2788 33.3661 38.2719 33.3896 38.2673 33.4053C38.265 33.4132 38.2632 33.4191 38.2621 33.4229C38.2615 33.4249 38.2611 33.4263 38.2608 33.4272C38.2607 33.4277 38.2606 33.428 38.2605 33.4282C38.2605 33.4284 38.2604 33.4285 38.5 33.5C38.7396 33.5715 38.7396 33.5713 38.7397 33.571C38.7398 33.5707 38.7399 33.5703 38.7401 33.5697C38.7404 33.5686 38.7409 33.567 38.7415 33.5649C38.7428 33.5606 38.7446 33.5544 38.747 33.5462C38.7519 33.5298 38.759 33.5054 38.7682 33.4735C38.7866 33.4097 38.8134 33.3155 38.8473 33.1934C38.9152 32.949 39.0114 32.5927 39.1252 32.1434C39.3527 31.245 39.6508 29.9743 39.9331 28.484C40.4972 25.507 41.0016 21.6387 40.7493 18.1072C40.498 14.5892 39.4898 11.3269 36.9493 9.66575C34.4005 7.99929 30.4185 8.01231 24.3958 10.7727L24.6041 11.2273Z" fill="#FA7846"/>
</svg>
