<svg width="210" height="107" viewBox="0 0 210 107" fill="none" xmlns="http://www.w3.org/2000/svg">
<path d="M209.375 96.6401C209.479 96.3842 209.356 96.0926 209.1 95.9888L204.93 94.2973C204.674 94.1935 204.382 94.3168 204.278 94.5727C204.175 94.8285 204.298 95.1201 204.554 95.2239L208.26 96.7275L206.757 100.434C206.653 100.69 206.776 100.982 207.032 101.085C207.288 101.189 207.58 101.066 207.684 100.81L209.375 96.6401ZM135.412 96.4521L135.781 96.1146L135.412 96.4521ZM208.912 96.4521C208.717 95.9916 208.717 95.9917 208.717 95.9918C208.716 95.9919 208.716 95.9921 208.715 95.9925C208.714 95.9931 208.711 95.994 208.708 95.9953C208.702 95.9979 208.693 96.0018 208.68 96.007C208.655 96.0174 208.618 96.0331 208.568 96.0537C208.468 96.0949 208.32 96.1559 208.124 96.2347C207.734 96.3922 207.158 96.6209 206.416 96.9042C204.933 97.4709 202.79 98.2561 200.153 99.1288C194.879 100.875 187.638 102.968 179.763 104.363C171.884 105.759 163.393 106.451 155.612 105.41C147.831 104.37 140.801 101.602 135.781 96.1146L135.043 96.7897C140.274 102.507 147.556 105.342 155.479 106.402C163.401 107.461 172.004 106.753 179.937 105.348C187.874 103.942 195.164 101.834 200.468 100.078C203.12 99.2001 205.278 98.4096 206.773 97.8383C207.521 97.5527 208.103 97.3218 208.499 97.162C208.697 97.0821 208.848 97.0201 208.95 96.9778C209.001 96.9567 209.04 96.9405 209.066 96.9296C209.079 96.9241 209.089 96.92 209.096 96.9171C209.099 96.9157 209.102 96.9146 209.104 96.9139C209.104 96.9135 209.105 96.9132 209.106 96.913C209.106 96.9128 209.106 96.9127 208.912 96.4521ZM135.781 96.1146C130.588 90.4391 131.066 83.8252 133.321 77.399C134.449 74.1846 136.013 71.0477 137.509 68.1336C138.996 65.2366 140.431 62.5353 141.257 60.247C142.07 57.9948 142.379 55.9248 141.305 54.4403C140.235 52.9613 137.959 52.2958 134.278 52.3585C126.853 52.4849 112.879 55.6023 88.2682 62.9732L88.5551 63.9311C113.194 56.552 127.033 53.4819 134.295 53.3583C137.958 53.296 139.745 53.9898 140.495 55.0265C141.241 56.0576 141.128 57.6595 140.316 59.9073C139.518 62.119 138.124 64.7458 136.619 67.6769C135.123 70.591 133.531 73.7822 132.377 77.0678C130.07 83.6416 129.485 90.7152 135.043 96.7897L135.781 96.1146ZM88.2682 62.9732C63.7031 70.3303 46.1006 70.0581 33.5089 65.5826C20.9308 61.1119 13.2864 52.4233 8.67522 42.7986C4.0586 33.1626 2.48752 22.5952 2.07521 14.4192C1.86922 10.3343 1.95282 6.85413 2.08778 4.39656C2.15525 3.16794 2.23554 2.19538 2.2988 1.53117C2.33043 1.19908 2.3578 0.944114 2.37718 0.772808C2.38687 0.687156 2.39457 0.622423 2.39979 0.579427C2.40241 0.557929 2.4044 0.541866 2.40573 0.53134C2.40639 0.526077 2.40688 0.522198 2.4072 0.519716C2.40736 0.518474 2.40746 0.517664 2.40754 0.517042C2.4076 0.516582 2.40762 0.516474 1.91177 0.452148C1.41593 0.387823 1.41585 0.38842 1.41573 0.389369C1.41562 0.390155 1.41546 0.391455 1.41526 0.393024C1.41486 0.396163 1.41428 0.400701 1.41354 0.406627C1.41205 0.418479 1.40988 0.435881 1.4071 0.458731C1.40155 0.504431 1.39353 0.571923 1.38352 0.660389C1.36351 0.837319 1.33552 1.09816 1.30331 1.43636C1.23889 2.11272 1.15755 3.09866 1.08928 4.34172C0.95277 6.82752 0.868406 10.3434 1.07648 14.4695C1.49231 22.7153 3.07749 33.4292 7.77338 43.2307C12.4747 53.0435 20.299 61.9486 33.174 66.5248C46.0354 71.0962 63.8704 71.324 88.5551 63.9311L88.2682 62.9732Z" fill="#FA7846"/>
</svg>
