<svg width="49" height="113" viewBox="0 0 49 113" fill="none" xmlns="http://www.w3.org/2000/svg">
<path d="M4.25473 112.436C4.49541 112.571 4.80027 112.486 4.93565 112.245L7.14187 108.323C7.27725 108.082 7.1919 107.777 6.95122 107.642C6.71054 107.507 6.40568 107.592 6.2703 107.833L4.30922 111.319L0.822936 109.358C0.582258 109.222 0.2774 109.308 0.142016 109.548C0.00663137 109.789 0.0919883 110.094 0.332666 110.229L4.25473 112.436ZM18 1C17.5622 0.758461 17.562 0.758828 17.5617 0.759306C17.5616 0.759613 17.5612 0.760202 17.5609 0.760815C17.5602 0.762042 17.5593 0.76371 17.5582 0.765818C17.5559 0.770033 17.5526 0.776005 17.5485 0.783712C17.5402 0.799127 17.5282 0.821486 17.5128 0.850625C17.4821 0.908903 17.4379 0.994312 17.3822 1.10554C17.2709 1.32797 17.1138 1.65378 16.9278 2.07243C16.556 2.90953 16.0683 4.11907 15.6008 5.61671C14.6666 8.60952 13.8082 12.7675 14.1262 17.4098C14.4445 22.0578 15.9422 27.1867 19.7126 32.1032C23.4811 37.0173 29.4984 41.6912 38.812 45.4683L39.1878 44.5416C30.0015 40.8162 24.1438 36.2382 20.5061 31.4947C16.8703 26.7536 15.4305 21.8191 15.1238 17.3415C14.8168 12.8581 15.6459 8.82829 16.5554 5.91469C17.0098 4.45913 17.4831 3.28582 17.8417 2.47837C18.021 2.07474 18.1715 1.76285 18.2765 1.55315C18.3289 1.44832 18.37 1.36905 18.3976 1.31667C18.4114 1.29048 18.4218 1.27102 18.4286 1.25844C18.432 1.25215 18.4345 1.24759 18.436 1.24476C18.4368 1.24335 18.4373 1.24237 18.4376 1.24184C18.4378 1.24157 18.4378 1.24149 18.4379 1.24136C18.4379 1.24139 18.4378 1.24154 18 1ZM38.812 45.4683C43.4356 47.3434 46.0304 48.9749 47.1711 50.4471C47.7261 51.1634 47.9147 51.8138 47.858 52.4287C47.7999 53.0572 47.4786 53.7242 46.8675 54.4494C45.6336 55.9136 43.363 57.4491 40.3999 59.1807C38.9276 60.0411 37.3011 60.9408 35.5692 61.8974C33.8389 62.8531 32.005 63.8646 30.1257 64.945C22.6175 69.2611 14.319 74.7092 8.78426 82.2515C3.22808 89.823 0.4754 99.4806 4.01839 112.135L4.98135 111.865C1.52434 99.518 4.20915 90.1763 9.59047 82.8431C14.9932 75.4808 23.1322 70.1187 30.624 65.812C32.4947 64.7366 34.321 63.7292 36.0526 62.7728C37.7826 61.8173 39.4198 60.9117 40.9045 60.0441C43.8555 58.3195 46.2724 56.7073 47.6322 55.0938C48.318 54.2801 48.7701 53.4257 48.8537 52.5206C48.9385 51.6019 48.6369 50.7063 47.9615 49.8346C46.6413 48.1307 43.8142 46.4178 39.1878 44.5416L38.812 45.4683Z" fill="#FA7846"/>
</svg>
