<svg width="164" height="97" viewBox="0 0 164 97" fill="none" xmlns="http://www.w3.org/2000/svg">
<path d="M60 6.50055L59.7852 6.95208L60 6.50055ZM104 52.5014L104.153 52.0254L104 52.5014ZM162 52.5014L162.462 52.3092L162 52.5014ZM138.002 95.4525C137.975 95.7273 138.176 95.972 138.451 95.999L142.93 96.4391C143.204 96.4661 143.449 96.2652 143.476 95.9904C143.503 95.7156 143.302 95.4709 143.027 95.4439L139.047 95.0527L139.438 91.0719C139.465 90.7971 139.264 90.5524 138.989 90.5254C138.714 90.4984 138.47 90.6993 138.443 90.9741L138.002 95.4525ZM0.5 2.50141C0.571217 2.99631 0.57129 2.9963 0.571513 2.99627C0.571787 2.99623 0.572159 2.99617 0.572705 2.9961C0.573796 2.99594 0.575483 2.9957 0.577761 2.99537C0.582317 2.99472 0.589238 2.99374 0.598496 2.99243C0.617012 2.98981 0.644878 2.9859 0.681871 2.98076C0.755858 2.9705 0.866353 2.95536 1.01158 2.93598C1.30204 2.89723 1.73142 2.84155 2.28552 2.77404C3.39374 2.63901 5.0007 2.45669 6.99285 2.26791C10.9777 1.89031 16.501 1.48712 22.6551 1.38456C34.9898 1.17899 49.7613 2.18433 59.7852 6.95208L60.2148 6.04902C49.9635 1.17316 34.9851 0.178929 22.6385 0.384694C16.452 0.487796 10.902 0.893 6.89851 1.27237C4.89653 1.46208 3.28065 1.64539 2.16457 1.78138C1.60651 1.84937 1.17337 1.90554 0.879346 1.94476C0.732333 1.96438 0.620096 1.97975 0.544411 1.99026C0.506568 1.99551 0.477864 1.99954 0.458519 2.00228C0.448846 2.00364 0.441513 2.00469 0.436548 2.00539C0.434066 2.00575 0.432175 2.00602 0.43088 2.0062C0.430232 2.0063 0.429708 2.00637 0.429384 2.00642C0.429009 2.00647 0.428783 2.00651 0.5 2.50141ZM59.7852 6.95208C70.0982 11.8573 75.5041 21.4301 81.1455 30.8318C86.757 40.1836 92.6034 49.3619 103.847 52.9774L104.153 52.0254C93.3111 48.5391 87.6326 39.6993 82.003 30.3173C76.4033 20.9852 70.8519 11.1085 60.2148 6.04902L59.7852 6.95208ZM103.847 52.9774C109.36 54.7502 115.239 54.2911 121.046 52.9736C126.844 51.6583 132.649 49.4657 137.976 47.7356C143.342 45.9928 148.203 44.726 152.245 45.152C154.251 45.3633 156.041 45.991 157.589 47.1788C159.138 48.3679 160.476 50.1418 161.538 52.6936L162.462 52.3092C161.348 49.6333 159.915 47.7031 158.197 46.3854C156.478 45.0664 154.505 44.3846 152.35 44.1575C148.07 43.7064 143.018 45.0467 137.667 46.7845C132.278 48.5349 126.563 50.6965 120.825 51.9984C115.096 53.2982 109.421 53.7195 104.153 52.0254L103.847 52.9774ZM161.538 52.6936C163.309 56.948 162.797 61.7016 160.964 66.4948C159.131 71.2871 155.998 76.0643 152.617 80.3152C149.238 84.5627 145.628 88.2643 142.861 90.9054C141.478 92.2254 140.307 93.2792 139.482 94.0024C139.069 94.364 138.744 94.6429 138.522 94.831C138.411 94.9251 138.325 94.9965 138.268 95.0441C138.24 95.0679 138.218 95.0858 138.204 95.0977C138.196 95.1036 138.191 95.108 138.188 95.1109C138.186 95.1124 138.185 95.1134 138.184 95.1141C138.183 95.1144 138.183 95.1147 138.183 95.1148C138.183 95.1149 138.183 95.115 138.5 95.5014C138.817 95.8878 138.817 95.8877 138.818 95.8874C138.818 95.8872 138.819 95.8868 138.819 95.8864C138.82 95.8855 138.822 95.8843 138.824 95.8826C138.828 95.8794 138.833 95.8746 138.841 95.8683C138.856 95.8556 138.879 95.8369 138.908 95.8123C138.968 95.763 139.055 95.6899 139.168 95.5941C139.394 95.4026 139.724 95.1199 140.141 94.7543C140.975 94.0231 142.157 92.9598 143.551 91.6288C146.339 88.9678 149.984 85.232 153.399 80.9378C156.812 76.6471 160.014 71.7785 161.898 66.852C163.782 61.9264 164.368 56.8883 162.462 52.3092L161.538 52.6936Z" fill="#FA7846"/>
</svg>
