<svg width="94" height="113" viewBox="0 0 94 113" fill="none" xmlns="http://www.w3.org/2000/svg">
<path d="M93.4635 103.473C93.5671 103.217 93.4435 102.925 93.1875 102.821L89.016 101.134C88.76 101.03 88.4685 101.154 88.365 101.41C88.2614 101.666 88.385 101.957 88.6409 102.061L92.349 103.561L90.8488 107.269C90.7452 107.525 90.8688 107.816 91.1248 107.92C91.3808 108.024 91.6723 107.9 91.7758 107.644L93.4635 103.473ZM1 0.999939C0.97722 1.49942 0.97722 1.49942 0.977471 1.49943C0.977889 1.49945 0.978389 1.49947 0.979223 1.49951C0.980889 1.49959 0.983551 1.49972 0.987199 1.4999C0.994494 1.50027 1.00573 1.50084 1.02084 1.50165C1.05106 1.50328 1.09674 1.50586 1.15729 1.50964C1.27839 1.51718 1.45893 1.52949 1.69407 1.5484C2.16437 1.58621 2.85292 1.65043 3.72095 1.75581C5.4573 1.96659 7.91011 2.34184 10.7697 2.99925C16.4939 4.31525 23.8222 6.75609 30.2966 11.2506C36.7632 15.7397 42.372 22.2718 44.6971 31.79C47.0242 41.3165 46.0773 53.8971 39.3043 70.5054L40.2303 70.883C47.0548 54.1483 48.0607 41.3457 45.6685 31.5527C43.2743 21.7514 37.4915 15.0279 30.8669 10.4291C24.2501 5.83581 16.7876 3.35669 10.9937 2.02468C8.09421 1.35808 5.60619 0.977324 3.84146 0.763095C2.95894 0.655963 2.25689 0.590426 1.77422 0.551614C1.53288 0.532207 1.34635 0.519479 1.2195 0.511572C1.15607 0.507619 1.10756 0.504871 1.07457 0.503096C1.05808 0.502209 1.04546 0.501564 1.03681 0.501134C1.03248 0.500919 1.02914 0.500758 1.0268 0.500646C1.02563 0.500591 1.02462 0.500544 1.02404 0.500516C1.02328 0.500481 1.02278 0.500458 1 0.999939ZM39.3043 70.5054C32.4948 87.2033 32.3375 97.7793 36.1835 104.177C40.0431 110.598 47.7929 112.591 56.1912 112.497C64.6152 112.402 73.872 110.208 81.003 108.049C84.5727 106.968 87.6184 105.893 89.7723 105.088C90.8493 104.686 91.7037 104.35 92.2894 104.116C92.5823 103.998 92.808 103.906 92.9609 103.843C93.0373 103.811 93.0956 103.787 93.1348 103.771C93.1545 103.762 93.1694 103.756 93.1795 103.752C93.1845 103.75 93.1883 103.748 93.191 103.747C93.1923 103.747 93.1933 103.746 93.194 103.746C93.1947 103.746 93.1952 103.745 93 103.285C92.8049 102.825 92.8047 102.825 92.8042 102.825C92.8036 102.825 92.8028 102.826 92.8017 102.826C92.7994 102.827 92.796 102.828 92.7913 102.83C92.7819 102.834 92.7677 102.84 92.7488 102.848C92.711 102.864 92.6542 102.888 92.5793 102.919C92.4295 102.98 92.2069 103.071 91.9174 103.188C91.3383 103.42 90.4912 103.752 89.4222 104.151C87.2839 104.951 84.2586 106.018 80.7132 107.092C73.6139 109.241 64.4634 111.404 56.1799 111.497C47.8707 111.59 40.6126 109.604 37.0406 103.662C33.455 97.6973 33.4423 87.528 40.2303 70.883L39.3043 70.5054Z" fill="#FA7846"/>
</svg>
