<svg width="250" height="210" viewBox="0 0 250 210" fill="none" xmlns="http://www.w3.org/2000/svg">
<path d="M247.333 189.971C247.593 190.063 247.879 189.927 247.971 189.667L249.476 185.426C249.568 185.166 249.432 184.88 249.172 184.788C248.912 184.695 248.626 184.831 248.534 185.092L247.196 188.861L243.426 187.524C243.166 187.431 242.88 187.567 242.788 187.828C242.696 188.088 242.832 188.374 243.092 188.466L247.333 189.971ZM0.865732 14.8406C14.4501 0.268427 40.0387 -4.56397 60.6365 10.9617C81.241 26.4925 96.9961 62.5167 90.5023 129.952L91.4977 130.048C98.0039 62.4831 82.259 26.0075 61.2385 10.1632C40.2113 -5.68616 14.0499 -0.76878 0.134268 14.1587L0.865732 14.8406ZM90.5023 129.952C87.2515 163.71 89.2664 184.424 94.8138 196.135C97.5967 202.01 101.282 205.648 105.658 207.505C110.025 209.357 115.014 209.408 120.357 208.238C131.022 205.903 143.282 198.663 155.26 190.745C167.279 182.8 179.013 174.176 188.737 168.94L188.263 168.059C178.487 173.323 166.658 182.012 154.709 189.911C142.718 197.837 130.603 204.971 120.143 207.261C114.924 208.404 110.162 208.329 106.049 206.584C101.944 204.843 98.419 201.41 95.7175 195.707C90.2961 184.262 88.2485 163.789 91.4977 130.048L90.5023 129.952ZM188.737 168.94C198.406 163.734 206.863 162.448 214.106 163.417C221.354 164.387 227.427 167.619 232.313 171.516C237.201 175.413 240.887 179.965 243.354 183.549C244.586 185.339 245.512 186.885 246.129 187.981C246.437 188.529 246.668 188.965 246.821 189.262C246.898 189.411 246.956 189.525 246.993 189.602C247.012 189.64 247.026 189.669 247.036 189.688C247.04 189.697 247.044 189.704 247.046 189.709C247.047 189.711 247.048 189.713 247.048 189.714C247.048 189.714 247.048 189.714 247.049 189.715C247.049 189.715 247.049 189.715 247.5 189.5C247.951 189.285 247.951 189.284 247.951 189.284C247.951 189.283 247.95 189.283 247.95 189.282C247.949 189.28 247.948 189.278 247.947 189.275C247.944 189.27 247.94 189.262 247.935 189.251C247.925 189.23 247.91 189.199 247.89 189.158C247.849 189.077 247.79 188.958 247.71 188.804C247.552 188.496 247.315 188.05 247 187.491C246.371 186.372 245.429 184.801 244.177 182.982C241.675 179.346 237.924 174.711 232.937 170.734C227.948 166.755 221.709 163.425 214.238 162.426C206.762 161.426 198.094 162.766 188.263 168.059L188.737 168.94Z" fill="#FA7846"/>
</svg>
