<svg width="90" height="108" viewBox="0 0 90 108" fill="none" xmlns="http://www.w3.org/2000/svg">
<path d="M89.2047 2.14347C89.284 2.03044 89.2566 1.87453 89.1436 1.79523L87.3017 0.502916C87.1887 0.423614 87.0328 0.450952 86.9535 0.563977C86.8742 0.677002 86.9015 0.832915 87.0145 0.912218L88.6518 2.06094L87.503 3.69814C87.4237 3.81117 87.4511 3.96708 87.5641 4.04638C87.6771 4.12569 87.833 4.09835 87.9123 3.98532L89.2047 2.14347ZM1 107C1.07886 107.237 1.07921 107.237 1.07987 107.237C1.08048 107.237 1.08143 107.236 1.08265 107.236C1.08509 107.235 1.08871 107.234 1.0935 107.232C1.10307 107.229 1.1173 107.224 1.1361 107.218C1.17369 107.205 1.22956 107.186 1.30295 107.161C1.44974 107.111 1.66666 107.036 1.94779 106.937C2.51004 106.74 3.32919 106.445 4.35795 106.06C6.41539 105.289 9.31164 104.151 12.6683 102.686C19.3796 99.7574 27.9405 95.5149 35.3182 90.2655C42.6869 85.0226 48.9196 78.7445 50.9055 71.7306C51.9008 68.2154 51.8274 64.5215 50.3037 60.6966C48.7817 56.8758 45.818 52.9375 41.0546 48.9169L40.7321 49.299C45.4531 53.2837 48.3561 57.1585 49.8392 60.8816C51.3206 64.6005 51.3908 68.1812 50.4244 71.5944C48.487 78.4371 42.3753 84.6307 35.0284 89.8581C27.6906 95.0791 19.1648 99.3056 12.4683 102.228C9.12112 103.689 6.23321 104.823 4.18246 105.592C3.15712 105.976 2.34117 106.269 1.78185 106.466C1.50219 106.564 1.28669 106.638 1.14127 106.688C1.06856 106.713 1.01337 106.732 0.976436 106.744C0.957968 106.75 0.944065 106.755 0.934819 106.758C0.930196 106.76 0.926737 106.761 0.924454 106.762C0.923312 106.762 0.922485 106.762 0.921912 106.762C0.92138 106.763 0.921143 106.763 1 107ZM41.0546 48.9169C36.3311 44.9301 33.5604 41.2257 32.3028 37.804C31.0483 34.3909 31.2931 31.2435 32.632 28.3432C33.9747 25.4348 36.4236 22.7631 39.5949 20.3292C42.7648 17.8966 46.6431 15.7117 50.8252 13.7728C59.1896 9.89491 68.7429 7.01283 76.2104 5.09973C79.943 4.14347 83.1522 3.42989 85.4279 2.95543C86.5657 2.71821 87.4701 2.54078 88.0897 2.42271C88.3996 2.36368 88.6382 2.31948 88.7992 2.29007C88.8798 2.27536 88.9409 2.26435 88.9818 2.25703C89.0023 2.25337 89.0177 2.25063 89.0279 2.24881C89.0331 2.2479 89.0369 2.24722 89.0395 2.24678C89.0407 2.24655 89.0417 2.24639 89.0423 2.24628C89.0429 2.24617 89.0432 2.24612 89 1.99988C88.9568 1.75363 88.9564 1.7537 88.9557 1.75383C88.9551 1.75394 88.954 1.75413 88.9527 1.75436C88.95 1.75484 88.946 1.75554 88.9407 1.75647C88.9302 1.75834 88.9145 1.76113 88.8937 1.76484C88.8522 1.77227 88.7905 1.78339 88.7094 1.7982C88.5472 1.82784 88.3073 1.87227 87.9961 1.93155C87.3739 2.05011 86.4667 2.2281 85.3259 2.46595C83.0442 2.94165 79.8275 3.6569 76.0863 4.61538C68.606 6.53175 59.0193 9.42275 50.6149 13.3192C46.4125 15.2675 42.4992 17.4702 39.2905 19.9326C36.0834 22.3938 33.5671 25.1248 32.1781 28.1337C30.7853 31.1507 30.532 34.4355 31.8335 37.9765C33.1318 41.5089 35.9711 45.2806 40.7321 49.299L41.0546 48.9169Z" fill="#FA7846"/>
</svg>
