<svg width="76" height="37" viewBox="0 0 76 37" fill="none" xmlns="http://www.w3.org/2000/svg">
<path d="M49.5418 33.8C49.4313 34.0531 49.5468 34.3478 49.7998 34.4584L53.9235 36.26C54.1765 36.3705 54.4713 36.255 54.5818 36.002C54.6924 35.7489 54.5769 35.4542 54.3238 35.3436L50.6584 33.7422L52.2598 30.0768C52.3703 29.8237 52.2548 29.529 52.0018 29.4184C51.7487 29.3079 51.4539 29.4234 51.3434 29.6764L49.5418 33.8ZM0.607562 4.34312C6.32176 11.581 12.7101 14.2507 19.3182 14.3814C25.8864 14.5112 32.6281 12.1307 39.0713 9.38037C45.5572 6.61183 51.7064 3.4881 57.2393 1.99876C62.7463 0.516412 67.4582 0.706486 71.1468 4.38722L71.8532 3.67936C67.7918 -0.373327 62.6287 -0.487536 56.9794 1.03313C51.3561 2.54681 45.0678 5.73341 38.6787 8.46065C32.2469 11.2061 25.6761 13.5069 19.338 13.3816C13.0399 13.2571 6.92824 10.7353 1.39244 3.72347L0.607562 4.34312ZM71.1468 4.38722C73.0354 6.27172 74.0965 8.11331 74.5415 9.88349C74.9856 11.6505 74.825 13.3831 74.21 15.0694C72.9712 18.4659 69.8943 21.6562 66.2599 24.4188C62.6388 27.1713 58.5291 29.4511 55.3168 31.045C53.7123 31.8412 52.3353 32.4645 51.3602 32.8884C50.8727 33.1004 50.4859 33.2624 50.2214 33.3712C50.0892 33.4256 49.9877 33.4667 49.9194 33.4941C49.8853 33.5078 49.8595 33.5181 49.8425 33.5249C49.8339 33.5282 49.8275 33.5308 49.8234 33.5324C49.8213 33.5332 49.8198 33.5338 49.8188 33.5342C49.8183 33.5344 49.818 33.5345 49.8178 33.5346C49.8176 33.5347 49.8176 33.5347 50 34.0002C50.1824 34.4657 50.1827 34.4656 50.1831 34.4655C50.1834 34.4654 50.1839 34.4652 50.1846 34.4649C50.1859 34.4644 50.1877 34.4637 50.1901 34.4627C50.1949 34.4608 50.2019 34.4581 50.2111 34.4544C50.2294 34.4472 50.2565 34.4364 50.2919 34.4222C50.3627 34.3937 50.467 34.3515 50.602 34.296C50.872 34.1848 51.265 34.0203 51.7589 33.8055C52.7467 33.3761 54.1392 32.7457 55.7613 31.9408C59.0022 30.3327 63.1737 28.0208 66.8651 25.2149C70.5432 22.4191 73.8101 19.0843 75.1494 15.412C75.8235 13.5638 76.0105 11.6261 75.5113 9.63974C75.0128 7.65649 73.8396 5.66158 71.8532 3.67936L71.1468 4.38722Z" fill="#FA7846"/>
</svg>
