<svg width="65" height="49" viewBox="0 0 65 49" fill="none" xmlns="http://www.w3.org/2000/svg">
<path d="M62.1819 48.4824C62.2893 48.5692 62.4467 48.5525 62.5335 48.4452L63.9481 46.6955C64.0349 46.5881 64.0182 46.4307 63.9109 46.3439C63.8035 46.2571 63.6461 46.2738 63.5593 46.3811L62.3018 47.9364L60.7466 46.6789C60.6392 46.5921 60.4818 46.6088 60.395 46.7162C60.3082 46.8235 60.3249 46.981 60.4322 47.0678L62.1819 48.4824ZM0.839068 0.767961C0.601881 0.846967 0.601951 0.847177 0.602055 0.84749C0.602136 0.847731 0.602275 0.848147 0.602436 0.848629C0.602759 0.849593 0.603221 0.850966 0.60382 0.852744C0.605019 0.8563 0.606771 0.861477 0.60908 0.868243C0.613698 0.881775 0.620541 0.901665 0.629634 0.927665C0.647818 0.979663 0.674999 1.0561 0.711362 1.155C0.784084 1.35278 0.893545 1.64042 1.04122 2.00202C1.33654 2.72512 1.7849 3.74446 2.39818 4.93263C3.62399 7.30756 5.51236 10.3642 8.16018 13.0776C10.8086 15.7916 14.2237 18.169 18.501 19.1689C22.7813 20.1695 27.9004 19.7849 33.9433 17.0152L33.735 16.5607C27.7778 19.2911 22.772 19.6539 18.6148 18.682C14.4545 17.7095 11.1196 15.3944 8.51802 12.7284C5.91583 10.0617 4.05418 7.05087 2.84248 4.7033C2.237 3.53022 1.79473 2.52456 1.50411 1.81297C1.35881 1.45722 1.25148 1.17509 1.18064 0.982446C1.14523 0.886127 1.11894 0.812186 1.1016 0.762607C1.09293 0.737818 1.0865 0.719121 1.08229 0.706762C1.08018 0.700583 1.07862 0.695989 1.07762 0.69301C1.07712 0.691521 1.07675 0.690436 1.07652 0.689759C1.07641 0.68942 1.07634 0.689219 1.07629 0.689049C1.07625 0.68895 1.07626 0.688954 0.839068 0.767961ZM33.9433 17.0152C39.8748 14.2966 44.5649 14.8932 48.2822 17.2796C52.0187 19.6783 54.806 23.9071 56.8608 28.5148C58.9132 33.1173 60.2213 38.0671 61.0162 41.8704C61.4135 43.7711 61.6822 45.3835 61.8516 46.5201C61.9362 47.0884 61.996 47.5377 62.0346 47.8446C62.0539 47.998 62.0679 48.1158 62.0771 48.1951C62.0817 48.2347 62.085 48.2647 62.0872 48.2847C62.0883 48.2947 62.0892 48.3022 62.0897 48.3071C62.09 48.3096 62.0902 48.3115 62.0903 48.3126C62.0903 48.3132 62.0904 48.3137 62.0904 48.314C62.0905 48.3142 62.0905 48.3143 62.3391 48.288C62.5877 48.2617 62.5877 48.2614 62.5876 48.261C62.5876 48.2607 62.5875 48.2601 62.5874 48.2594C62.5873 48.258 62.5871 48.256 62.5868 48.2533C62.5862 48.248 62.5853 48.2401 62.5842 48.2297C62.5819 48.209 62.5784 48.1782 62.5738 48.1377C62.5644 48.0568 62.5502 47.9373 62.5307 47.7822C62.4917 47.4718 62.4314 47.0188 62.3461 46.4465C62.1756 45.3019 61.9052 43.6798 61.5057 41.7681C60.7069 37.9464 59.3899 32.9586 57.3174 28.3112C55.2472 23.6688 52.4096 19.3351 48.5523 16.8588C44.6759 14.3703 39.8034 13.7793 33.735 16.5607L33.9433 17.0152Z" fill="#FA7846"/>
</svg>
