<svg width="140" height="77" viewBox="0 0 140 77" fill="none" xmlns="http://www.w3.org/2000/svg">
<path d="M0.767688 76.1241C0.807941 76.2562 0.947639 76.3306 1.07971 76.2904L3.23197 75.6344C3.36404 75.5942 3.43848 75.4545 3.39822 75.3224C3.35797 75.1903 3.21827 75.1159 3.0862 75.1561L1.17308 75.7392L0.590005 73.8261C0.549752 73.694 0.410054 73.6196 0.27798 73.6598C0.145907 73.7001 0.0714722 73.8398 0.111725 73.9719L0.767688 76.1241ZM1.00683 76.0512C1.22746 76.1688 1.22751 76.1687 1.22766 76.1684C1.22784 76.1681 1.2281 76.1676 1.22847 76.1669C1.22922 76.1655 1.23038 76.1634 1.23196 76.1604C1.23511 76.1546 1.23991 76.1457 1.24636 76.1338C1.25927 76.11 1.27878 76.0743 1.30488 76.0272C1.3571 75.9329 1.43569 75.7929 1.54061 75.6109C1.75046 75.247 2.0656 74.7156 2.48556 74.0475C3.32554 72.7112 4.58464 70.8289 6.2592 68.6479C9.60897 64.2851 14.6176 58.7321 21.255 53.9649C34.518 44.439 54.2956 38.0384 80.3964 50.5833L80.613 50.1326C54.323 37.4968 34.3516 43.9429 20.9634 53.5588C14.2752 58.3625 9.23262 63.9542 5.86261 68.3434C4.17728 70.5384 2.90934 72.4338 2.06225 73.7814C1.63869 74.4552 1.32028 74.9921 1.10747 75.3612C1.00107 75.5457 0.921054 75.6882 0.86749 75.7849C0.840708 75.8333 0.820538 75.8702 0.806986 75.8951C0.80021 75.9076 0.795089 75.9171 0.791623 75.9236C0.78989 75.9268 0.788571 75.9292 0.787666 75.9309C0.787214 75.9318 0.786845 75.9325 0.786619 75.9329C0.786354 75.9334 0.786193 75.9337 1.00683 76.0512ZM80.3964 50.5833C93.5413 56.9011 103.825 56.9815 111.85 53.4988C119.865 50.0203 125.577 43.0082 129.631 35.2393C133.686 27.4682 136.094 18.9139 137.49 12.3081C138.188 9.00401 138.633 6.18473 138.903 4.1909C139.038 3.19393 139.13 2.4032 139.188 1.86128C139.217 1.5903 139.237 1.38152 139.251 1.24025C139.257 1.16962 139.262 1.11586 139.265 1.07965C139.267 1.06154 139.268 1.04781 139.269 1.03856C139.269 1.03393 139.269 1.03042 139.27 1.02804C139.27 1.02684 139.27 1.0259 139.27 1.02531C139.27 1.02466 139.27 1.02429 139.021 1.00381C138.772 0.983328 138.772 0.983528 138.772 0.983998C138.772 0.984539 138.772 0.985307 138.771 0.986381C138.771 0.988521 138.771 0.991796 138.771 0.99618C138.77 1.00496 138.769 1.01819 138.767 1.03582C138.764 1.07106 138.759 1.12382 138.753 1.19344C138.74 1.3327 138.719 1.53938 138.691 1.80817C138.633 2.34576 138.542 3.13177 138.408 4.12368C138.138 6.10761 137.696 8.91464 137.001 12.2048C135.61 18.7873 133.213 27.2929 129.188 35.008C125.161 42.7252 119.519 49.6254 111.651 53.0401C103.792 56.4506 93.6636 56.4051 80.613 50.1326L80.3964 50.5833Z" fill="#FA7846"/>
</svg>
