<svg width="106" height="143" viewBox="0 0 106 143" fill="none" xmlns="http://www.w3.org/2000/svg">
<path d="M0.538462 139.808C0.432253 140.063 0.552792 140.355 0.807692 140.462L4.96154 142.192C5.21644 142.299 5.50918 142.178 5.61538 141.923C5.72159 141.668 5.60105 141.375 5.34615 141.269L1.65385 139.731L3.19231 136.038C3.29852 135.784 3.17798 135.491 2.92308 135.385C2.66818 135.278 2.37544 135.399 2.26923 135.654L0.538462 139.808ZM1.19037 140.462C14.1241 135.137 20.9814 124.579 24.8207 112.377C28.6544 100.192 29.5 86.2992 30.3737 74.2236C30.8114 68.1728 31.2554 62.5845 32.0785 57.8642C32.9036 53.1322 34.0988 49.3475 35.9918 46.8573C36.9318 45.6207 38.0388 44.7103 39.3561 44.1558C40.6741 43.6009 42.2324 43.3899 44.093 43.5975C47.8324 44.0148 52.7438 46.1176 59.2236 50.4166L59.7764 49.5834C53.2562 45.2574 48.1832 43.0477 44.2039 42.6037C42.2051 42.3806 40.4704 42.6017 38.9681 43.2341C37.4651 43.8668 36.2244 44.8988 35.1957 46.2521C33.1512 48.9416 31.9244 52.9264 31.0933 57.6924C30.2602 62.4702 29.8135 68.1085 29.3763 74.1514C28.5 86.2633 27.6581 100.027 23.8668 112.076C20.081 124.109 13.3759 134.363 0.809625 139.538L1.19037 140.462ZM59.2236 50.4166C72.2778 59.0776 81.8137 60.4355 88.7498 57.3554C95.6606 54.2866 99.7807 46.8989 102.23 38.5787C104.685 30.2373 105.499 20.8287 105.703 13.5217C105.805 9.86492 105.754 6.72739 105.677 4.50333C105.639 3.39118 105.595 2.50714 105.559 1.90043C105.542 1.59706 105.527 1.36301 105.516 1.20443C105.51 1.12514 105.506 1.06471 105.503 1.02391C105.502 1.00352 105.501 0.988027 105.5 0.977542C105.499 0.9723 105.499 0.968308 105.499 0.965579C105.499 0.964215 105.499 0.963119 105.499 0.962435C105.499 0.961656 105.498 0.961195 105 1C104.502 1.03881 104.502 1.03898 104.502 1.03947C104.502 1.04006 104.502 1.04087 104.502 1.04204C104.502 1.04439 104.502 1.04799 104.503 1.05284C104.503 1.06255 104.504 1.07726 104.506 1.09686C104.509 1.13607 104.513 1.19488 104.518 1.27253C104.529 1.42782 104.544 1.65843 104.561 1.95821C104.596 2.5578 104.64 3.43401 104.678 4.53769C104.754 6.74526 104.805 9.86165 104.703 13.4939C104.501 20.7651 103.69 30.0752 101.27 38.2963C98.8443 46.5386 94.8395 53.5571 88.344 56.4415C81.8739 59.3145 72.7222 58.1724 59.7764 49.5834L59.2236 50.4166Z" fill="#FA7846"/>
</svg>
