<svg width="191" height="150" viewBox="0 0 191 150" fill="none" xmlns="http://www.w3.org/2000/svg">
<g clip-path="url(#clip0)">
<path d="M142.497 108.918C146.446 105.145 150.403 101.381 154.462 97.7251C156.445 95.8701 158.631 94.1129 160.462 92.2393C162.338 90.2959 164.077 88.1407 165.904 86.1158L165.808 86.2229C167.186 84.2818 169.125 82.7038 171.371 81.7426L171.429 81.717L171.615 81.6727C174.45 80.9885 177.567 81.6029 180.017 83.4044C181.283 84.3912 182.214 85.6247 182.838 87.0654C183.436 88.5014 183.667 90.0981 183.497 91.6598L183.49 91.7203L183.462 91.8599C182.88 94.6971 181.249 97.3201 178.93 99.1146L179.154 98.9237L170.144 107.936C167.179 110.947 163.956 113.826 161.109 116.859C158.184 120.068 155.044 123.078 151.753 125.903C150.226 127.304 148.11 128.848 146.041 129.797C143.937 130.805 141.705 131.499 139.471 131.88C134.986 132.662 130.59 132.481 126.337 132.339L113.574 131.908L100.789 131.354L94.3979 131.066C92.3055 131.07 89.9897 130.295 88.3303 131.894C89.0308 131.087 90.0805 130.558 91.2 130.491L94.3956 130.302L100.787 130.014L113.571 129.46C117.84 129.339 122.076 129.143 126.375 129.085C130.627 129.036 134.821 128.98 138.717 128.103C140.658 127.656 142.525 127.051 144.235 126.157C146.011 125.242 147.349 124.232 148.937 122.726C152.028 119.903 154.965 116.919 157.774 113.824C163.728 107.575 169.902 101.735 176.058 95.7793L176.191 95.6513L176.282 95.5885C177.834 94.4969 178.996 92.8281 179.47 90.9522L179.435 91.1501C179.575 90.2726 179.489 89.3556 179.182 88.5061C178.905 87.6612 178.356 86.8373 177.727 86.2601C177.036 85.669 176.121 85.1686 175.181 84.9079C174.229 84.6332 173.214 84.5844 172.216 84.7124L172.46 84.6426C170.666 85.2011 169.004 86.2741 167.728 87.7334L167.638 87.8381L167.633 87.8428C165.61 89.6861 163.502 91.4014 161.565 93.3588C159.464 95.272 157.285 96.8127 155.181 98.5723L142.497 108.918Z" fill="#1E2533"/>
<path d="M115.798 107.544C117.856 106.574 119.913 106.092 121.971 105.72C124.028 105.377 126.086 105.219 128.143 105.217C130.201 105.212 132.258 105.373 134.315 105.713C136.373 106.08 138.43 106.567 140.488 107.542C138.43 108.517 136.373 109.004 134.315 109.371C132.258 109.714 130.201 109.872 128.143 109.867C126.086 109.865 124.028 109.707 121.971 109.364C119.913 108.997 117.856 108.513 115.798 107.544Z" fill="#1E2533"/>
<path d="M80.2233 101.7C83.4677 97.5878 88.239 94.5645 93.5246 93.2216C96.1546 92.528 99.001 92.3627 101.529 92.2999L109.321 91.995C119.708 91.7017 130.098 91.5831 140.485 91.725L140.66 91.7274L140.79 91.746C143.239 92.0904 145.533 93.5334 146.814 95.6305C148.166 97.7065 148.447 100.337 147.861 102.559C147.277 104.752 146.197 106.718 144.244 108.203C143.278 108.922 141.961 109.481 140.574 109.441L137.82 109.33C130.48 108.953 123.139 108.513 115.798 107.701C123.139 106.888 130.48 106.448 137.82 106.071L140.574 105.96C141.035 105.913 141.486 105.694 141.954 105.285C142.88 104.463 143.623 103.004 143.893 101.652C144.533 98.9378 142.589 96.5032 140.178 96.2123L140.481 96.2333C130.093 96.3729 119.704 96.2565 109.316 95.9633L101.524 95.6584C98.8637 95.5537 96.4827 95.3465 94.0087 95.7212C89.0978 96.352 84.3009 98.435 80.2233 101.7Z" fill="#1E2533"/>
<path d="M122.766 27.3947C135.455 26.8478 148.144 26.6127 160.831 26.2171L161.983 26.1821L162.009 27.3947L162.533 52.673L162.884 77.9513L162.912 79.9785L160.831 80.0041C145.903 80.188 130.975 80.2252 116.047 80.2671L93.6543 80.2206L71.2621 80.0809L69.1115 80.067L69.1325 77.9513C69.2186 69.526 69.314 61.0984 69.4955 52.673C69.6259 44.2477 69.8633 35.8201 70.0797 27.3947L70.11 26.1775L71.2621 26.2124C83.9513 26.6057 96.6404 26.8478 109.327 27.3947C96.6428 27.944 83.9536 28.1861 71.2644 28.5771L72.4467 27.3947C72.6632 35.8201 72.8983 44.2477 73.0309 52.673C73.2125 61.0984 73.3056 69.526 73.394 77.9513L71.2644 75.8241L93.6567 75.6844L116.049 75.6379C130.977 75.6797 145.905 75.7147 160.833 75.9008L158.781 77.9536L159.132 52.6754L159.656 27.3971L160.833 28.5747C148.144 28.1791 135.455 27.9417 122.766 27.3947Z" fill="#1E2533"/>
<path d="M116.976 20.9382C119.83 16.7442 123.353 12.9621 127.852 10.1319C130.101 8.72617 132.677 7.58572 135.679 7.3204C137.164 7.15515 138.768 7.38556 140.264 7.92553C141.012 8.20017 141.726 8.56325 142.389 8.9915C142.734 9.21958 143.076 9.46397 143.448 9.81075C143.637 9.99462 143.825 10.1738 144.075 10.5276C144.196 10.751 144.349 10.8348 144.542 11.6099C144.563 11.7402 144.577 11.7844 144.587 11.9892C144.596 12.1731 144.573 12.4082 144.545 12.5455L144.505 12.6828L144.414 12.9598C144.291 13.3089 144.102 13.7302 143.933 13.9699L143.437 14.5727C143.074 15.0196 142.797 15.1639 142.469 15.4618C141.84 15.9482 141.24 16.3439 140.639 16.679C139.436 17.3819 138.258 17.9312 137.053 18.4362C134.632 19.3835 132.235 20.2377 129.768 20.8614C124.873 22.1927 119.883 23.0539 114.809 23.3122H114.723L114.795 23.282H114.798C119.408 21.15 124.04 19.3393 128.576 17.4168C130.822 16.409 133.101 15.5153 135.228 14.4144C136.285 13.8768 137.372 13.3671 138.3 12.7713C138.782 12.4896 139.212 12.1708 139.559 11.8892C139.683 11.7588 139.957 11.5773 139.957 11.5098C139.988 11.4679 140.02 11.4306 140.06 11.3957C140.067 11.3818 139.962 11.4912 139.974 11.5633L139.976 11.6238L139.983 11.6541C139.957 11.7728 139.934 11.9892 139.943 12.1522C139.955 12.336 139.96 12.3616 139.978 12.4733C140.139 13.0948 140.206 13.0412 140.241 13.1367C140.313 13.2321 140.285 13.1832 140.251 13.1506C140.169 13.0668 140.011 12.9365 139.839 12.8155C139.462 12.5548 139.064 12.3384 138.647 12.1684C137.811 11.8263 136.887 11.6867 135.887 11.7076C133.88 11.6541 131.697 12.4361 129.551 13.3252C125.255 15.2546 121.17 18.1057 116.976 20.9382Z" fill="url(#paint0_linear)"/>
<path d="M80.1278 7.86963C80.3536 7.21329 81.0262 6.83858 81.5755 6.4592C82.1597 6.0938 82.7811 5.77494 83.4421 5.55383C84.7548 5.05576 86.1838 4.94637 87.6012 5.01852C90.4407 5.19541 93.2313 6.10311 95.831 7.29941C98.4354 8.50502 100.916 9.99225 103.158 11.7448C105.434 13.4601 107.494 15.4245 109.379 17.5332L114.474 23.2284L107.124 21.3385C102.192 20.0701 97.4137 18.1848 92.8217 15.9249C90.5245 14.8031 88.2529 13.644 86.0255 12.4291C84.9037 11.8402 83.8191 11.1769 82.7578 10.4927C81.7593 9.76882 80.5677 9.0799 80.1278 7.86963ZM80.1278 7.86963C80.5933 9.06593 81.7896 9.73158 82.8369 10.36C83.9332 10.9721 85.1062 11.4283 86.2746 11.8752C88.6299 12.7363 91.0737 13.3461 93.5292 13.8721C95.9823 14.3981 98.4517 14.8426 100.905 15.3081C103.344 15.8202 105.799 16.2577 108.215 16.8442L105.96 20.6496C102.259 16.7977 98.7124 12.7782 94.5416 9.42436C92.4609 7.75326 90.1358 6.34051 87.5081 5.70511C86.1978 5.4747 84.8176 5.36298 83.491 5.72141C82.2341 6.10776 80.7981 6.67798 80.1278 7.86963Z" fill="url(#paint1_linear)"/>
<path d="M108.993 76.7433C108.541 72.5306 108.227 68.318 107.948 64.103C107.689 59.8903 107.438 55.6777 107.287 51.4627C106.928 43.0373 106.749 34.6097 106.707 26.1844L106.696 23.9221L108.99 23.8988C113.468 23.8546 117.946 23.8476 122.424 23.8965L124.724 23.9221L124.712 26.1844C124.668 34.6097 124.503 43.0373 124.137 51.4627C123.991 55.6753 123.732 59.888 123.476 64.103C123.195 68.3156 122.883 72.5283 122.427 76.7433C121.971 72.5306 121.659 68.318 121.377 64.103C121.121 59.8903 120.863 55.6777 120.716 51.4627C120.351 43.0373 120.185 34.6097 120.141 26.1844L122.427 28.4699C117.949 28.5165 113.471 28.5118 108.993 28.4676L111.276 26.1844C111.234 34.6097 111.055 43.0373 110.696 51.4627C110.547 55.6753 110.294 59.888 110.035 64.103C109.756 68.3156 109.444 72.5283 108.993 76.7433Z" fill="url(#paint2_linear)"/>
<path d="M60.3653 96.9898C64.82 95.1604 69.3399 93.5894 73.8831 92.1161L75.2027 91.6879L75.6915 93.2054C76.9553 97.1364 78.1702 101.081 79.2711 105.052C80.4418 109.006 81.4007 113.014 82.4597 116.996C83.3883 121.011 84.4194 125 85.234 129.043C86.1184 133.07 86.8934 137.122 87.6149 141.188L87.8942 142.766L86.5187 143.001C81.8196 143.809 77.0972 144.521 72.3097 144.97C76.7551 143.136 81.2657 141.567 85.7995 140.092L84.7056 141.907C83.4418 137.976 82.2292 134.031 81.126 130.06C79.9553 126.106 79.0011 122.098 77.9421 118.116C77.0158 114.101 75.9871 110.11 75.1725 106.067C74.288 102.04 73.5153 97.9882 72.7915 93.9222L74.5976 95.0115C69.8915 95.8237 65.1621 96.5359 60.3653 96.9898Z" fill="url(#paint3_linear)"/>
<path d="M72.3124 145C70.3713 141.239 68.8747 137.366 67.5318 133.453C66.1889 129.541 65.0065 125.589 63.9964 121.591C62.9654 117.599 62.1391 113.556 61.4479 109.479C60.759 105.401 60.2306 101.281 60.1445 97.05V97.0011L60.1748 96.9988L60.3656 96.9895L60.1981 97.0803L60.2283 97.0291C62.1647 100.793 63.659 104.665 64.9903 108.58C66.3192 112.497 67.5132 116.447 68.5047 120.448C69.5148 124.444 70.3527 128.484 71.0323 132.564C71.7096 136.647 72.2332 140.766 72.3124 145Z" fill="url(#paint4_linear)"/>
<path opacity="0.2" d="M65.2225 99.4173L76.9389 98.7703L86.6512 142.475L72.0838 144.902" fill="url(#paint5_linear)"/>
<path d="M75.477 38.7162C76.7687 38.6371 77.7183 38.9024 78.5887 39.2469C79.4383 39.6123 80.1574 40.108 80.7649 40.7132C81.3747 41.3183 81.8681 42.0375 82.2358 42.8847C82.5826 43.7528 82.8456 44.7024 82.7618 45.9988C81.4654 46.0802 80.5135 45.8172 79.6477 45.4728C78.8005 45.1074 78.079 44.6116 77.4762 44.0018C76.8711 43.392 76.3753 42.6729 76.0099 41.8257C75.6631 40.9575 75.3978 40.0079 75.477 38.7162Z" fill="url(#paint6_linear)"/>
<path d="M87.8578 46.0012C87.7787 44.7095 88.044 43.7599 88.3885 42.8895C88.7539 42.0399 89.2496 41.3208 89.8548 40.7133C90.4599 40.1035 91.1791 39.6101 92.0263 39.2424C92.8944 38.8956 93.844 38.6326 95.1404 38.7164C95.2218 40.0127 94.9588 40.9647 94.6144 41.8305C94.249 42.6777 93.7532 43.3992 93.1434 44.002C92.5336 44.6071 91.8145 45.1029 90.9673 45.4683C90.0991 45.8127 89.1495 46.078 87.8578 46.0012Z" fill="url(#paint7_linear)"/>
<path d="M82.7584 51.0983C82.8375 52.39 82.5722 53.3396 82.2277 54.2101C81.8623 55.0596 81.3666 55.7788 80.7615 56.3862C80.1563 56.996 79.4372 57.4894 78.59 57.8572C77.7218 58.204 76.7722 58.467 75.4759 58.3832C75.3944 57.0868 75.6574 56.1349 76.0019 55.2691C76.3673 54.4219 76.863 53.7004 77.4728 53.0976C78.0826 52.4924 78.8018 51.9967 79.6489 51.6313C80.5171 51.2868 81.4667 51.0215 82.7584 51.0983Z" fill="url(#paint8_linear)"/>
<path d="M95.1443 58.3829C93.8526 58.4621 92.903 58.1967 92.0325 57.8523C91.183 57.4869 90.4638 56.9911 89.8564 56.386C89.2466 55.7808 88.7532 55.0617 88.3854 54.2145C88.0386 53.3463 87.7756 52.3967 87.8594 51.1004C89.1558 51.0189 90.1077 51.2819 90.9735 51.6264C91.8207 51.9918 92.5422 52.4875 93.145 53.0973C93.7502 53.7071 94.2459 54.4263 94.6113 55.2735C94.9558 56.1416 95.2234 57.0912 95.1443 58.3829Z" fill="url(#paint9_linear)"/>
<path d="M160.969 10.9769C161.626 11.7333 162.757 12.4059 163.404 13.8396C164.067 15.2314 163.488 17.0817 162.177 17.9103C160.846 18.7947 159.233 18.5643 158.107 18.406C156.936 18.2315 155.777 18.0662 154.508 17.4378C151.75 16.2811 151.115 11.6798 153.652 9.3849C154.259 8.83563 154.999 8.41902 155.786 8.23282C156.573 8.04663 157.411 8.16533 158.107 8.49117C159.547 9.14518 160.243 10.2856 160.969 10.9769ZM160.639 11.305C159.955 10.5766 158.665 10.8931 158.107 11.5541C157.527 12.2709 157.392 12.6107 157.166 12.897C156.985 13.1926 156.682 13.3904 156.491 13.8373C156.373 14.2492 156.163 14.8241 156.31 15.6341C156.452 16.4277 157.278 17.0841 158.107 16.9025C158.982 16.7512 159.354 15.6992 159.431 15.1639C159.54 14.5821 159.782 14.4471 160.439 13.8396C161.095 13.2694 161.405 11.959 160.639 11.305Z" fill="url(#paint10_linear)"/>
<path d="M148.276 38.0682C149.246 40.4958 149.728 42.9233 150.1 45.3531C150.442 47.7806 150.601 50.2081 150.603 52.638C150.608 55.0655 150.447 57.493 150.107 59.9229C149.739 62.3504 149.253 64.7779 148.278 67.2077C147.303 64.7802 146.816 62.3527 146.448 59.9229C146.106 57.4954 145.948 55.0678 145.953 52.638C145.955 50.2105 146.113 47.783 146.455 45.3531C146.823 42.9233 147.305 40.4958 148.276 38.0682Z" fill="url(#paint11_linear)"/>
</g>
<g filter="url(#filter0_dd)">
<rect x="42" y="26" width="48" height="48" rx="24" fill="#C4C4C4"/>
<rect x="42" y="26" width="48" height="48" rx="24" fill="url(#paint12_linear)"/>
</g>
<path d="M66.016 56.6791C68.6879 56.6791 70.6502 55.0811 70.6438 52.9078C70.6502 51.2522 69.6467 50.0633 67.908 49.7949V49.6926C69.2759 49.341 70.1644 48.2672 70.158 46.797C70.1644 44.873 68.5856 43.2302 66.0671 43.2302C63.6637 43.2302 61.7333 44.6812 61.6694 46.8098H63.5806C63.6254 45.6081 64.7567 44.8794 66.0415 44.8794C67.3775 44.8794 68.2532 45.6912 68.2468 46.8993C68.2532 48.1649 67.2369 48.9958 65.7859 48.9958H64.68V50.6066H65.7859C67.6012 50.6066 68.6495 51.5271 68.6495 52.8439C68.6495 54.1159 67.5437 54.9788 66.0032 54.9788C64.5842 54.9788 63.4783 54.2501 63.4016 53.0868H61.3945C61.4776 55.2217 63.3697 56.6791 66.016 56.6791Z" fill="white"/>
<defs>
<filter id="filter0_dd" x="0.39928" y="2.88849" width="131.201" height="131.201" filterUnits="userSpaceOnUse" color-interpolation-filters="sRGB">
<feFlood flood-opacity="0" result="BackgroundImageFix"/>
<feColorMatrix in="SourceAlpha" type="matrix" values="0 0 0 0 0 0 0 0 0 0 0 0 0 0 0 0 0 0 127 0" result="hardAlpha"/>
<feMorphology radius="4.6223" operator="erode" in="SourceAlpha" result="effect1_dropShadow"/>
<feOffset dy="18.4892"/>
<feGaussianBlur stdDeviation="23.1115"/>
<feColorMatrix type="matrix" values="0 0 0 0 0.980392 0 0 0 0 0.470588 0 0 0 0 0.27451 0 0 0 0.25 0"/>
<feBlend mode="normal" in2="BackgroundImageFix" result="effect1_dropShadow"/>
<feColorMatrix in="SourceAlpha" type="matrix" values="0 0 0 0 0 0 0 0 0 0 0 0 0 0 0 0 0 0 127 0" result="hardAlpha"/>
<feOffset dy="2"/>
<feColorMatrix type="matrix" values="0 0 0 0 0.908333 0 0 0 0 0.443806 0 0 0 0 0.268715 0 0 0 1 0"/>
<feBlend mode="normal" in2="effect1_dropShadow" result="effect2_dropShadow"/>
<feBlend mode="normal" in="SourceGraphic" in2="effect2_dropShadow" result="shape"/>
</filter>
<linearGradient id="paint0_linear" x1="113.916" y1="15.2891" x2="144.589" y2="15.2891" gradientUnits="userSpaceOnUse">
<stop offset="1.58946e-07" stop-color="#FC8C5F"/>
<stop offset="1" stop-color="#FA7846"/>
</linearGradient>
<linearGradient id="paint1_linear" x1="77.7978" y1="14.1141" x2="114.521" y2="14.1141" gradientUnits="userSpaceOnUse">
<stop offset="1.58946e-07" stop-color="#FC8C5F"/>
<stop offset="1" stop-color="#FA7846"/>
</linearGradient>
<linearGradient id="paint2_linear" x1="106.664" y1="50.3038" x2="124.754" y2="50.3038" gradientUnits="userSpaceOnUse">
<stop offset="1.58946e-07" stop-color="#FC8C5F"/>
<stop offset="1" stop-color="#FA7846"/>
</linearGradient>
<linearGradient id="paint3_linear" x1="59.8083" y1="118.332" x2="88.9821" y2="118.332" gradientUnits="userSpaceOnUse">
<stop offset="1.58946e-07" stop-color="#FC8C5F"/>
<stop offset="1" stop-color="#FA7846"/>
</linearGradient>
<linearGradient id="paint4_linear" x1="57.3758" y1="120.994" x2="74.5686" y2="120.994" gradientUnits="userSpaceOnUse">
<stop offset="1.58946e-07" stop-color="#FC8C5F"/>
<stop offset="1" stop-color="#FA7846"/>
</linearGradient>
<linearGradient id="paint5_linear" x1="65.2218" y1="121.836" x2="86.6512" y2="121.836" gradientUnits="userSpaceOnUse">
<stop offset="1.58946e-07" stop-color="#FC8C5F"/>
<stop offset="1" stop-color="#FA7846"/>
</linearGradient>
<linearGradient id="paint6_linear" x1="73.1486" y1="42.3587" x2="85.0876" y2="42.3587" gradientUnits="userSpaceOnUse">
<stop offset="1.58946e-07" stop-color="#FC8C5F"/>
<stop offset="1" stop-color="#FA7846"/>
</linearGradient>
<linearGradient id="paint7_linear" x1="85.5306" y1="42.3576" x2="97.4697" y2="42.3576" gradientUnits="userSpaceOnUse">
<stop offset="1.58946e-07" stop-color="#FC8C5F"/>
<stop offset="1" stop-color="#FA7846"/>
</linearGradient>
<linearGradient id="paint8_linear" x1="73.1475" y1="54.7419" x2="85.0865" y2="54.7419" gradientUnits="userSpaceOnUse">
<stop offset="1.58946e-07" stop-color="#FC8C5F"/>
<stop offset="1" stop-color="#FA7846"/>
</linearGradient>
<linearGradient id="paint9_linear" x1="85.5322" y1="54.7402" x2="97.4713" y2="54.7402" gradientUnits="userSpaceOnUse">
<stop offset="1.58946e-07" stop-color="#FC8C5F"/>
<stop offset="1" stop-color="#FA7846"/>
</linearGradient>
<linearGradient id="paint10_linear" x1="153.329" y1="9.92999" x2="162.015" y2="18.6164" gradientUnits="userSpaceOnUse">
<stop offset="1.58946e-07" stop-color="#FC8C5F"/>
<stop offset="1" stop-color="#FA7846"/>
</linearGradient>
<linearGradient id="paint11_linear" x1="145.948" y1="52.6359" x2="150.601" y2="52.6359" gradientUnits="userSpaceOnUse">
<stop offset="1.58946e-07" stop-color="#FC8C5F"/>
<stop offset="1" stop-color="#FA7846"/>
</linearGradient>
<linearGradient id="paint12_linear" x1="42" y1="50" x2="90" y2="50" gradientUnits="userSpaceOnUse">
<stop stop-color="#FC8C5F"/>
<stop offset="1" stop-color="#FA7846"/>
</linearGradient>
<clipPath id="clip0">
<rect width="123.71" height="140" fill="white" transform="translate(60.1445 5)"/>
</clipPath>
</defs>
</svg>
