<svg width="30" height="30" viewBox="0 0 30 30" fill="none" xmlns="http://www.w3.org/2000/svg">
<path d="M8.05664 1.95703C7.83984 2.05078 7.64648 2.26172 7.56445 2.47852C7.52344 2.58398 7.5 3.49219 7.5 5.06836V7.49414L4.98633 7.51172C2.54883 7.5293 2.4668 7.53516 2.30859 7.65234C2.2207 7.7168 2.0918 7.8457 2.02734 7.93359L1.9043 8.0918V17.8125V27.5332L2.02734 27.6914C2.0918 27.7793 2.2207 27.9082 2.30859 27.9727L2.4668 28.0957H12.1875H21.9082L22.0664 27.9727C22.1543 27.9082 22.2832 27.7793 22.3477 27.6914C22.4648 27.5332 22.4707 27.4512 22.4883 25.0195L22.5059 22.5059L25.0195 22.4883C27.4512 22.4707 27.5332 22.4648 27.6914 22.3477C27.7793 22.2832 27.9082 22.1543 27.9727 22.0664L28.0957 21.9082V12.1934V2.47852L27.9375 2.27344C27.6094 1.83984 28.459 1.875 17.8008 1.875C9.96094 1.88086 8.20312 1.89258 8.05664 1.95703ZM10.8398 3.76758C10.8398 3.77344 10.5117 4.10742 10.1074 4.51172L9.375 5.24414V4.49414V3.75H10.1074C10.5117 3.75 10.8398 3.75586 10.8398 3.76758ZM12.4805 6.82617L9.4043 9.90234L9.38672 8.89453L9.375 7.88672L11.4375 5.81836L13.5059 3.75H14.5312H15.5566L12.4805 6.82617ZM14.8242 9.16992L9.4043 14.5898L9.38672 13.582L9.375 12.5742L13.7812 8.16211L18.1934 3.75H19.2188H20.2441L14.8242 9.16992ZM17.168 11.5137L9.4043 19.2773L9.38672 18.2695L9.375 17.2617L16.125 10.5059L22.8809 3.75H23.9062H24.9316L17.168 11.5137ZM19.5 13.8691L12.7441 20.625H11.7188H10.6934L18.457 12.8613L26.2207 5.09766L26.2383 6.10547L26.25 7.11328L19.5 13.8691ZM7.51172 15.6328L7.5293 21.8965L7.6875 22.1016C8.00977 22.5293 7.55273 22.5 14.4375 22.5H20.625V24.375V26.25H12.1875H3.75V17.8125V9.375H5.625H7.5L7.51172 15.6328ZM21.8438 16.2129L17.4316 20.625H16.4062H15.3809L20.8008 15.2051L26.2207 9.78516L26.2383 10.793L26.25 11.8008L21.8438 16.2129ZM24.1875 18.5566L22.1191 20.625H21.0938H20.0684L23.1445 17.5488L26.2207 14.4727L26.2383 15.4805L26.25 16.4883L24.1875 18.5566ZM26.25 19.8926V20.625H25.5059H24.7559L25.4883 19.8926C25.8926 19.4883 26.2266 19.1602 26.2324 19.1602C26.2441 19.1602 26.25 19.4883 26.25 19.8926Z" fill="#1E2533"/>
</svg>
