<svg width="30" height="30" viewBox="0 0 30 30" fill="none" xmlns="http://www.w3.org/2000/svg">
<path d="M8.99411 3.83207C8.77731 3.92582 8.58395 4.13676 8.50192 4.35356C8.40231 4.60551 8.41989 6.69731 8.5195 6.93168C8.84762 7.7227 10.0488 7.64652 10.2656 6.82035L10.3359 6.56254H17.3437H24.3515L24.4218 6.82035C24.6386 7.64652 25.8398 7.7227 26.1679 6.93168C26.2851 6.66215 26.2851 4.58793 26.1679 4.3184C25.8398 3.52738 24.6386 3.60356 24.4218 4.42973L24.3515 4.68754H17.3379H10.3242L10.289 4.48246C10.1836 3.93168 9.52145 3.5977 8.99411 3.83207Z" fill="#1E2533"/>
<path d="M4.30666 8.51953C4.20705 8.56055 4.05471 8.68359 3.96682 8.7832C3.54494 9.28711 3.7969 10.0957 4.42971 10.2656L4.68752 10.3359V17.3438V24.3516L4.42971 24.4219C3.60354 24.6387 3.52737 25.8398 4.31838 26.168C4.58791 26.2852 6.66213 26.2852 6.93166 26.168C7.72268 25.8398 7.64651 24.6387 6.82033 24.4219L6.56252 24.3516V17.3438V10.3359L6.82033 10.2656C7.64651 10.0488 7.72268 8.84766 6.93166 8.51953C6.66799 8.4082 4.55862 8.4082 4.30666 8.51953Z" fill="#1E2533"/>
<path d="M9.87305 8.49023C9.3457 8.61914 8.86523 9.01758 8.61328 9.52148L8.4668 9.81445V17.3438V24.873L8.60156 25.1367C8.80664 25.5586 9.04102 25.8047 9.44531 26.0215L9.81445 26.2207H17.3438H24.873L25.2422 26.0215C25.6523 25.7988 25.8281 25.6172 26.0625 25.1719L26.2207 24.873V17.3438V9.81445L26.0215 9.44531C25.8047 9.04102 25.5586 8.80664 25.1367 8.60156L24.873 8.4668L17.4609 8.45508C13.3828 8.45508 9.97266 8.4668 9.87305 8.49023ZM24.375 17.3438V24.375H17.3438H10.3125V17.3438V10.3125H17.3438H24.375V17.3438Z" fill="#1E2533"/>
</svg>
