<svg width="80" height="80" viewBox="0 0 80 80" fill="none" xmlns="http://www.w3.org/2000/svg">
<path d="M38.7031 0.15638C37.9219 0.359505 36.8438 0.922005 35.2813 1.93763C32.7188 3.59388 33.0313 3.51575 29.2188 3.53138C26.125 3.547 25.7969 3.56263 24.9531 3.89075C23.5469 4.43763 22.625 5.46888 21.3281 7.96888C19.8281 10.8439 19.4063 11.2658 16.7031 12.672C14.1406 14.0001 13.1875 14.797 12.5469 16.172C12.1094 17.1095 12.1094 17.1251 12.0938 20.4689C12.0781 24.3595 12.1406 24.1251 10.4688 26.7345C8.96875 29.047 8.5625 30.0783 8.5625 31.5001C8.5625 32.922 8.95313 33.8907 10.4531 36.2189C12.1406 38.8439 12.0781 38.6095 12.0938 42.5001C12.1094 45.8439 12.1094 45.8595 12.5469 46.797C13.1875 48.172 14.1563 48.9845 16.7188 50.3126C19.3125 51.6564 19.8125 52.1407 20.875 54.2345C22.4375 57.3595 23.3594 58.4532 24.9844 59.0939C25.75 59.4064 26.1406 59.4376 28.0781 59.4376L30.3125 59.422L30.3438 68.922C30.3906 78.2345 30.3906 78.422 30.7188 78.8439C31.2188 79.5314 31.7813 79.8751 32.5313 79.9532C33.1719 80.0314 33.4844 79.9064 36.625 78.3282L40.0156 76.6251L43.3906 78.3282C46.5156 79.9064 46.8125 80.0314 47.4688 79.9532C48.2188 79.8751 48.7813 79.5314 49.2813 78.8439C49.5938 78.4376 49.6094 78.172 49.6563 74.2032L49.7031 70.0001L49.3125 69.6095C48.7813 69.0782 48.0938 69.0939 47.6719 69.6251C47.3594 70.0157 47.3438 70.2345 47.3438 73.8439C47.3438 75.9376 47.3125 77.6564 47.2656 77.6564C47.2188 77.6564 45.7188 76.9064 43.9375 75.9845C41.2188 74.5782 40.6094 74.3126 40 74.3126C39.4063 74.3126 38.7813 74.5782 36.0625 75.9845C34.2969 76.9064 32.7969 77.6564 32.75 77.6564C32.7031 77.6564 32.6563 73.6095 32.6563 68.672C32.6563 62.5001 32.7031 59.6876 32.8125 59.6876C33.0781 59.6876 33.7813 60.0782 35.2344 61.0314C35.9531 61.5001 37.0156 62.1095 37.6094 62.3907C38.5469 62.8282 38.8281 62.8907 40 62.8907C41.1719 62.8907 41.4531 62.8282 42.3906 62.3907C42.9844 62.1095 44.0469 61.5001 44.7656 61.0314C46.2188 60.0782 46.9219 59.6876 47.1875 59.6876C47.2813 59.6876 47.3438 60.6407 47.3438 62.4845C47.3438 65.0626 47.375 65.297 47.6719 65.6876C48.1094 66.2501 48.9219 66.2501 49.3594 65.6876C49.6719 65.297 49.6875 65.0626 49.6875 62.3439V59.422L51.8438 59.4376C54.25 59.4532 54.9063 59.3126 56.0313 58.547C57.0313 57.8907 57.6719 57.0157 58.9688 54.547C59.6875 53.1876 60.2656 52.297 60.6875 51.9064C61.0469 51.5782 62.2656 50.8439 63.3906 50.2501C65.8281 49.0001 66.8125 48.1564 67.4531 46.797C67.8906 45.8595 67.8906 45.8439 67.9063 42.5001C67.9219 38.6251 67.8594 38.8439 69.5313 36.2501C70.8438 34.2032 71.2188 33.4064 71.4063 32.297C71.6719 30.672 71.2031 29.297 69.5313 26.7345C67.875 24.2033 67.9219 24.3595 67.9063 20.4689C67.8906 17.1251 67.8906 17.1095 67.4531 16.172C66.8125 14.797 65.8594 14.0001 63.2969 12.672C60.5938 11.2658 60.1719 10.8439 58.6719 7.96888C57.375 5.46888 56.4531 4.43763 55.0469 3.89075C54.2031 3.56263 53.875 3.547 50.7813 3.53138C46.9531 3.51575 47.3125 3.6095 44.6094 1.8595C42.5938 0.56263 41.6094 0.15638 40.3594 0.0782547C39.7813 0.0470047 39.0313 0.0782547 38.7031 0.15638ZM41.2031 2.62513C41.625 2.78138 42.6875 3.39075 43.5938 3.9845C44.5 4.57825 45.6563 5.25013 46.1719 5.46888C47.0781 5.84388 47.2344 5.8595 50.4688 5.8595C53.5781 5.87513 53.875 5.89075 54.4531 6.20325C55.2188 6.59388 55.8125 7.422 56.7969 9.37513C57.7813 11.3439 58.6406 12.547 59.5313 13.2033C59.9219 13.4845 61.0938 14.172 62.125 14.7033C64.4688 15.9376 64.9063 16.2658 65.3281 17.1408C65.6563 17.8126 65.6719 18.0001 65.5781 20.3595C65.5313 21.7501 65.5625 23.297 65.6406 23.8126C65.8281 24.9689 66.4375 26.3126 67.4688 27.8283C69.6563 31.0939 69.6563 31.7814 67.4219 35.2189C65.6719 37.8907 65.4531 38.797 65.5781 42.6095C65.6719 44.9845 65.6563 45.1564 65.3281 45.8439C64.8906 46.7345 64.2344 47.2189 61.7344 48.5157C58.9688 49.9376 58.2656 50.6876 56.6719 53.8282C55.0469 57.0626 54.9531 57.1095 50.4688 57.1095C46.5313 57.1095 46.5625 57.0939 43.7813 58.8907C41.5781 60.297 40.8906 60.6251 40 60.6251C39.1094 60.6251 38.4219 60.297 36.2813 58.922C33.4531 57.1095 33.4688 57.1095 29.5313 57.1095C24.9844 57.1095 25 57.1251 23.1719 53.547C21.6406 50.547 20.9844 49.8907 18.125 48.4376C15.7969 47.2501 15.1094 46.7189 14.6719 45.8439C14.3594 45.172 14.3438 44.9845 14.4219 42.5939C14.5469 38.7657 14.3281 37.8907 12.5781 35.2189C10.3438 31.7814 10.3438 31.0939 12.5313 27.8283C13.5625 26.3126 14.1719 24.9689 14.3594 23.8283C14.4375 23.3126 14.4688 21.797 14.4219 20.4533C14.3125 17.6564 14.4219 17.1408 15.2813 16.3126C15.5938 16.0001 16.6094 15.3751 17.5469 14.8908C20.9375 13.1564 21.6719 12.4376 23.2031 9.37513C24.1719 7.422 24.7813 6.6095 25.5469 6.18763C26.1406 5.87513 26.3594 5.8595 29.2188 5.90638C33.0313 5.96888 33.5156 5.84388 36.1875 4.12513C39.0156 2.297 39.7656 2.07825 41.2031 2.62513Z" fill="#1E2533"/>
<path d="M36.5625 9.45312C33.2344 10 29 11.6875 28.4531 12.6719C28.1406 13.2188 28.4375 13.9688 29.0781 14.2188C29.4844 14.3906 29.6562 14.3438 31 13.6875C33.9219 12.2812 36.0937 11.7344 39.3125 11.6094C44.9687 11.3906 50.125 13.4219 54.1406 17.4531C56.9062 20.2188 58.75 23.6875 59.625 27.7344C60 29.4688 60 33.5 59.625 35.2344C57.7969 43.6562 51.5469 49.75 43.2187 51.1875C41.0937 51.5625 37.3125 51.4219 35.2812 50.8906C26.9062 48.6875 21.0625 41.9531 20.1406 33.4531C19.6719 29.0312 20.8437 24.2812 23.3594 20.4688C23.7344 19.9062 24.5625 18.8281 25.2187 18.0625C25.875 17.3125 26.4062 16.5625 26.4062 16.4062C26.4062 16.0469 25.8594 15.375 25.5 15.2812C24.7812 15.0938 23.6406 16.0938 21.9219 18.4375C17.8125 24.0469 16.625 31.5 18.7656 38.25C21.2187 45.9531 27.5312 51.6094 35.6406 53.375C37.5156 53.7969 42.4844 53.7969 44.3594 53.375C53.5625 51.375 60.3125 44.4219 61.9844 35.2656C62.3281 33.3438 62.3281 29.625 61.9844 27.7031C60.3281 18.5781 53.5312 11.6094 44.375 9.60938C42.7344 9.25 38.2969 9.15625 36.5625 9.45312Z" fill="#FAB9AF"/>
<path d="M52.7344 25.5315C52.5938 25.7346 51.4688 28.3283 50.2187 31.2971C47.8437 36.969 47.8125 37.0783 48.5 37.6565C48.875 37.9533 49.6562 37.9221 49.9844 37.5627C50.375 37.1565 54.7188 26.7502 54.7344 26.219C54.75 25.5783 54.2813 25.1565 53.5781 25.1565C53.1094 25.1565 52.9219 25.2502 52.7344 25.5315Z" fill="#FA7846"/>
<path d="M30.4844 25.8281C29.7344 26.125 28.7969 26.9531 28.3906 27.7031C28.0625 28.3125 28.0469 28.5468 28.0469 31.4843C28.0469 35.0468 28.1406 35.3906 29.4062 36.4687C31.2969 38.0937 34.2656 37.3593 35.2812 35C35.5937 34.2812 35.7344 30.1406 35.4844 28.8281C35.1406 27 33.7656 25.75 31.9687 25.6718C31.4531 25.6562 30.7812 25.7187 30.4844 25.8281ZM32.5781 28.2187C33.1406 28.5937 33.2812 29.2343 33.2812 31.5156C33.2812 34.3437 32.9844 35 31.7187 35C31.375 35 31.0781 34.8593 30.7656 34.5468L30.3125 34.0937V31.4843V28.875L30.7656 28.4218C31.2969 27.9062 31.9844 27.8281 32.5781 28.2187Z" fill="#FA7846"/>
<path d="M39.5156 25.8281C38.3906 26.25 37.2969 27.4531 37.1094 28.5C37.0469 28.7656 37.0312 30.2969 37.0625 31.8906L37.1094 34.7969L37.5781 35.5625C37.875 36.0312 38.3438 36.5 38.8125 36.7969C39.5 37.2188 39.7188 37.2656 40.7813 37.2656C41.8438 37.2656 42.0625 37.2188 42.75 36.7969C43.2188 36.5 43.6875 36.0312 43.9844 35.5625L44.4531 34.7969L44.5 31.7344C44.5469 29.2344 44.5 28.5781 44.2969 28.0312C44.0156 27.2812 43.1875 26.375 42.4531 26C41.7969 25.6562 40.2188 25.5625 39.5156 25.8281ZM41.7031 28.375L42.1875 28.7812V31.4844V34.1719L41.7813 34.5938C41.2344 35.1406 40.5 35.1406 39.8594 34.5938L39.375 34.1875V31.5312V28.875L39.8281 28.4219C40.4063 27.8438 41.0625 27.8281 41.7031 28.375Z" fill="#FA7846"/>
<path d="M22.7344 26.1721C22.5156 26.3752 22.3438 26.7346 22.3438 26.9533C22.3438 27.5471 23 28.1252 23.6719 28.1252H24.2188V32.1096C24.2188 35.3127 24.2656 36.2033 24.4531 36.5471C24.8281 37.2815 25.6719 37.4221 26.2188 36.8283C26.5625 36.469 26.5625 36.3908 26.5625 31.4533V26.4221L26.1562 26.1096C25.8125 25.8283 25.5156 25.7815 24.4219 25.7815C23.2344 25.7815 23.0781 25.8127 22.7344 26.1721Z" fill="#FA7846"/>
<path d="M46.8125 26.3439C46.2031 26.9689 46.2344 27.9533 46.8906 28.5002C47.5625 29.0627 48.3125 29.047 48.9219 28.4533C49.9063 27.4689 49.2813 25.9377 47.8906 25.9377C47.3906 25.9377 47.1406 26.0314 46.8125 26.3439Z" fill="#FA7846"/>
<path d="M53.8906 34.516C53.0938 35.3129 53.3125 36.5472 54.3281 36.9691C54.9844 37.2504 55.7969 37.0472 56.1719 36.516C56.8437 35.5472 56.0937 34.0629 54.9219 34.0629C54.5 34.0629 54.2344 34.1879 53.8906 34.516Z" fill="#FA7846"/>
</svg>
