<svg width="35" height="37" viewBox="0 0 35 37" fill="none" xmlns="http://www.w3.org/2000/svg">
<g filter="url(#filter0_d_143_1738)">
<circle cx="17.5" cy="17.5" r="17.5" transform="rotate(90 17.5 17.5)" fill="white"/>
<circle cx="17.5" cy="17.5" r="17.5" transform="rotate(90 17.5 17.5)" fill="url(#paint0_linear_143_1738)"/>
</g>
<path d="M12.6768 15.1422C12.75 15.069 12.8342 15.0323 12.9294 15.0323C13.0247 15.0323 13.1089 15.069 13.1821 15.1422L17.4998 19.4598L21.8174 15.1422C21.8906 15.069 21.9749 15.0323 22.0701 15.0323C22.1653 15.0323 22.2495 15.069 22.3228 15.1422L22.8721 15.6915C22.9453 15.7648 22.9819 15.849 22.9819 15.9442C22.9819 16.0394 22.9453 16.1237 22.8721 16.1969L17.7524 21.3165C17.6792 21.3898 17.595 21.4264 17.4998 21.4264C17.4045 21.4264 17.3203 21.3898 17.2471 21.3165L12.1274 16.1969C12.0542 16.1237 12.0176 16.0394 12.0176 15.9442C12.0176 15.849 12.0542 15.7648 12.1274 15.6915L12.6768 15.1422Z" fill="white"/>
<defs>
<filter id="filter0_d_143_1738" x="0" y="0" width="35" height="36.4583" filterUnits="userSpaceOnUse" color-interpolation-filters="sRGB">
<feFlood flood-opacity="0" result="BackgroundImageFix"/>
<feColorMatrix in="SourceAlpha" type="matrix" values="0 0 0 0 0 0 0 0 0 0 0 0 0 0 0 0 0 0 127 0" result="hardAlpha"/>
<feOffset dy="1.45833"/>
<feColorMatrix type="matrix" values="0 0 0 0 0.908333 0 0 0 0 0.443806 0 0 0 0 0.268715 0 0 0 1 0"/>
<feBlend mode="normal" in2="BackgroundImageFix" result="effect1_dropShadow_143_1738"/>
<feBlend mode="normal" in="SourceGraphic" in2="effect1_dropShadow_143_1738" result="shape"/>
</filter>
<linearGradient id="paint0_linear_143_1738" x1="0" y1="17.5" x2="35" y2="17.5" gradientUnits="userSpaceOnUse">
<stop stop-color="#FC8C5F"/>
<stop offset="1" stop-color="#FA7846"/>
</linearGradient>
</defs>
</svg>
