<svg width="80" height="80" viewBox="0 0 80 80" fill="none" xmlns="http://www.w3.org/2000/svg">
<path d="M1.01562 7.65625C0 8.32812 0 8.26562 0 15.6719C0 23.0469 0 23.0781 0.953125 23.7656L1.48438 24.1406H8.4375H15.3906L15.9219 23.7656C16.7812 23.1562 16.875 22.7031 16.875 19.3906C16.875 17.7656 16.8281 16.3125 16.7812 16.1719C16.625 15.7656 15.8125 15.4844 15.3125 15.6562C14.625 15.8906 14.5312 16.3438 14.5312 19.2188V21.875H8.4375H2.34375V15.7812V9.6875H8.4375H14.5312V10.6094C14.5312 11.7656 14.9219 12.3438 15.7031 12.3438C16.6094 12.3438 16.875 11.8906 16.875 10.3438C16.875 8.8125 16.6094 8.07812 15.875 7.64062C15.4219 7.35938 14.9688 7.34375 8.4375 7.34375C1.78125 7.34375 1.46875 7.35938 1.01562 7.65625Z" fill="#FA7846"/>
<path d="M28.5 7.48451C27.9687 7.71889 27.4062 8.51576 26.6562 10.0783C26.2812 10.8908 25.8906 11.5626 25.7968 11.5626C25.7031 11.5626 24.875 11.672 23.9531 11.8126C21.3125 12.2033 20.6875 12.7658 20.7656 14.7501C20.7812 15.0939 21.125 15.547 22.2812 16.7189L23.7656 18.2501L23.4375 20.0783C23.25 21.1095 23.1562 22.1095 23.2031 22.3751C23.4531 23.4689 24.8437 24.3751 25.8906 24.1251C26.125 24.0626 27.0312 23.6408 27.8906 23.1876L29.4531 22.3595L30.9375 23.1564C32.7812 24.1408 33.25 24.2814 34.0468 24.0626C34.75 23.8751 35.5468 23.0626 35.7031 22.3595C35.75 22.0939 35.6562 21.0939 35.4687 20.047L35.1406 18.2189L36.5468 16.8283C37.5781 15.8283 38 15.2814 38.125 14.8595C38.375 13.8908 37.8906 12.7189 37.0625 12.2814C36.7187 12.1095 33.75 11.5626 33.1093 11.5626C33.0312 11.5626 32.6093 10.8439 32.2031 9.95326C31.25 7.95326 30.7656 7.46889 29.6562 7.39076C29.2031 7.37514 28.6875 7.40639 28.5 7.48451ZM31.3125 13.1095C31.7968 13.6408 32.3906 13.8439 34.1875 14.0626L35.7812 14.2658L34.3906 15.6876C32.7031 17.422 32.6562 17.5783 33.0781 20.0001C33.25 20.9533 33.3593 21.7189 33.3281 21.7189C33.2812 21.7189 32.5156 21.3283 31.6093 20.8595C30.625 20.3439 29.7656 20.0001 29.4687 20.0001C29.1718 20.0001 28.2968 20.3439 27.3125 20.8595C26.4062 21.3283 25.625 21.7189 25.5937 21.7189C25.5625 21.7189 25.6562 20.9533 25.8281 20.0001C26.25 17.5783 26.2031 17.422 24.5156 15.6876L23.125 14.2658L24.7187 14.0626C25.6093 13.9533 26.5 13.797 26.7187 13.7189C27.4062 13.4689 27.875 12.8595 28.6718 11.2501L29.4531 9.67201L30.2031 11.2033C30.625 12.047 31.125 12.9064 31.3125 13.1095Z" fill="#1E2533"/>
<path d="M49.0938 7.68756C48.7031 7.92193 48.3594 8.45318 47.7031 9.75005C47.2344 10.7032 46.8281 11.5001 46.8125 11.5157C46.8125 11.5157 45.9844 11.6563 45 11.7969C43.0625 12.0782 42.5469 12.2813 42.0469 12.9063C41.1406 14.0626 41.5156 15.2813 43.3438 16.9844L44.6406 18.2032L44.3281 20.2032L44 22.2032L44.3438 22.8751C44.5469 23.2344 44.9219 23.6563 45.1875 23.8282C46.0625 24.3438 46.7813 24.2188 48.6719 23.2501L50.3906 22.3751L51.9375 23.2032C53.8438 24.2344 54.3125 24.3282 55.2344 23.9219C56.5625 23.3438 56.7813 22.4844 56.3125 19.7344L56.0625 18.2501L57.4688 16.8126C58.25 16.0157 58.9375 15.1876 59 14.9376C59.1875 14.1563 58.9688 13.2813 58.4219 12.7188C57.8906 12.1719 57.3906 12.0001 55.1875 11.7032L53.8906 11.5313L53 9.7813C52.3438 8.51568 51.9688 7.95318 51.5781 7.70318C50.875 7.23443 49.7969 7.21881 49.0938 7.68756ZM51.25 11.5313C52.2813 13.5469 52.5781 13.7501 54.9688 14.0469C55.8438 14.1563 56.5625 14.2969 56.5625 14.3438C56.5625 14.3907 55.9688 15.0313 55.25 15.7813C54.4844 16.5626 53.875 17.3126 53.8125 17.5782C53.7188 17.9844 53.8125 19.0626 54.1563 21.1407L54.2656 21.7344L52.5 20.8594C51.5313 20.3907 50.5313 20.0001 50.2969 20.0001C50.0469 20.0001 49.1094 20.3907 48.1875 20.8751C47.2813 21.3438 46.5156 21.7188 46.4844 21.6876C46.4531 21.6563 46.5781 20.8282 46.75 19.8438C47.1406 17.5157 47.0313 17.2032 45.2813 15.5469C44.5938 14.8907 44.0469 14.3438 44.0781 14.3126C44.1094 14.2813 44.7813 14.1876 45.5469 14.0782C48.2813 13.7188 48.5781 13.5001 49.625 11.1407C49.9375 10.4376 50.25 9.8438 50.2969 9.8438C50.3438 9.8438 50.7813 10.6094 51.25 11.5313Z" fill="#1E2533"/>
<path d="M69.9844 7.70313C69.5938 7.95313 69.2188 8.51563 68.5781 9.76563L67.7031 11.4844L65.7031 11.8281C63.5938 12.1875 63.2031 12.375 62.7188 13.3125C62.4531 13.8125 62.4375 14.7344 62.6719 15.2031C62.7656 15.3906 63.4531 16.1563 64.1875 16.9063L65.5156 18.2656L65.2656 19.8281C64.9219 21.8594 64.9375 22.4688 65.3125 23.0938C65.6406 23.625 66.6719 24.2031 67.3125 24.2188C67.5 24.2188 68.4688 23.7969 69.4531 23.2969L71.2344 22.375L73.0469 23.2969C74.0313 23.7969 74.9844 24.2188 75.1563 24.2188C75.7188 24.2188 76.7188 23.7188 77.0313 23.2813C77.5156 22.5938 77.5625 22.0156 77.25 20.0781L76.9688 18.2969L78.4063 16.8125C79.4688 15.7188 79.8438 15.2031 79.9219 14.7969C80.125 13.7344 79.6563 12.7344 78.7656 12.2656C78.5313 12.1563 77.5156 11.9219 76.5313 11.7813L74.7344 11.5156L73.8438 9.73438C73.1875 8.39063 72.8438 7.89063 72.4531 7.65625C71.75 7.21875 70.6719 7.25 69.9844 7.70313ZM72.1094 11.4219C73.1406 13.5156 73.3594 13.6719 75.6406 14C76.625 14.1563 77.4531 14.2969 77.5 14.3281C77.5313 14.3594 76.9688 14.9688 76.2188 15.6875C74.5156 17.3281 74.4375 17.5156 74.8438 19.875C75.0156 20.8438 75.125 21.6406 75.1094 21.6719C75.0781 21.6875 74.3125 21.3281 73.3906 20.8594C72.4688 20.3906 71.5 20 71.25 20C71 20 70.0313 20.3906 69.1094 20.8594C68.1875 21.3281 67.4063 21.6875 67.3906 21.6563C67.3594 21.625 67.4375 20.9688 67.5625 20.2188C67.7031 19.4531 67.8125 18.4844 67.8125 18.0625C67.8125 17.3125 67.7969 17.2813 66.4063 15.875C65.6406 15.0781 65 14.3906 65 14.3438C65 14.2969 65.7031 14.1719 66.5625 14.0625C68.9688 13.7656 69.2656 13.5625 70.3125 11.5313C70.7813 10.5938 71.2031 9.84375 71.25 9.84375C71.2969 9.84375 71.6875 10.5625 72.1094 11.4219Z" fill="#1E2533"/>
<path d="M10.8437 12.4062C10.6562 12.5312 9.89062 13.4531 9.125 14.4375L7.73437 16.2344L6.875 15.2812C6.14062 14.4844 5.92187 14.3281 5.5 14.3281C4.84375 14.3281 4.32812 14.8281 4.32812 15.4531C4.32812 15.8281 4.57812 16.2187 5.46875 17.2187C7.03125 18.9844 7.29687 19.2188 7.79687 19.2188C8.32812 19.2188 8.65625 18.8594 10.8594 16.0312C12.75 13.6094 12.8906 13.2187 12.125 12.5469C11.6406 12.125 11.2969 12.0937 10.8437 12.4062Z" fill="#1E2533"/>
<path d="M1.125 31.875C0.84375 32.0469 0.484375 32.4062 0.3125 32.6875C0.015625 33.1875 0 33.5 0 40C0 46.5 0.015625 46.8125 0.3125 47.3125C0.84375 48.1719 1.45312 48.4375 2.98438 48.4375C4.64062 48.4375 5.0625 48.2031 5.0625 47.2656C5.0625 46.4062 4.60938 46.0938 3.34375 46.0938H2.34375V40V33.9062H8.4375H14.5312V40V46.0938H11.8594C8.64062 46.0938 8.28125 46.2188 8.28125 47.2969C8.28125 47.6094 8.40625 47.9375 8.59375 48.125C8.89062 48.4219 9.10938 48.4375 12.0781 48.4375C15.6094 48.4375 15.9219 48.3594 16.5625 47.3125C16.8594 46.8125 16.875 46.5 16.875 40C16.875 33.5 16.8594 33.1875 16.5625 32.6875C16.3906 32.4062 16.0312 32.0469 15.75 31.875C15.25 31.5781 14.9375 31.5625 8.4375 31.5625C1.9375 31.5625 1.625 31.5781 1.125 31.875Z" fill="#FA7846"/>
<path d="M28.5937 31.7344C27.9219 32.0156 27.6406 32.375 26.7812 34.0781C25.8594 35.9219 26.0312 35.8125 23.9062 36.0937C23.1719 36.1875 22.3906 36.3437 22.1719 36.4219C21.5625 36.6562 20.9219 37.3906 20.7812 38.0312C20.5469 39.0625 20.8437 39.6406 22.3594 41.1562L23.75 42.5625L23.4219 44.4687L23.0937 46.375L23.4062 47.0937C23.7656 47.875 24.625 48.4375 25.4687 48.4375C25.7344 48.4375 26.7031 48.0469 27.6875 47.5625L29.4375 46.6875L31.2656 47.5781C32.8437 48.3594 33.1719 48.4688 33.7187 48.4062C34.5937 48.2812 35.2344 47.7812 35.5469 46.9687C35.7969 46.3125 35.7969 46.1875 35.4844 44.4375L35.1562 42.5937L36.5469 41.1875C38.0469 39.6406 38.3437 39.0469 38.125 38.0469C37.9844 37.4219 37.4844 36.7969 36.875 36.4844C36.6562 36.375 35.8125 36.2031 35 36.0937C34.1875 35.9844 33.3906 35.8437 33.2187 35.7812C33.0625 35.7344 32.5469 34.9531 32.0469 33.9844C31.5625 33.0469 30.9844 32.1406 30.7656 31.9844C30.2812 31.625 29.1406 31.5 28.5937 31.7344ZM30.375 35.75C30.9062 36.8281 31.3906 37.5469 31.6562 37.7187C31.875 37.875 32.75 38.1094 33.5781 38.2344C36.1094 38.6094 36.0156 38.4219 34.4062 39.9687C32.7187 41.5937 32.6719 41.75 33.0625 44.125C33.2031 45.0469 33.2969 45.8281 33.25 45.875C33.2031 45.9219 32.5 45.5937 31.6875 45.1562C29.6875 44.0937 29.2344 44.0937 27.2344 45.1719C26.4219 45.6094 25.7187 45.9219 25.6719 45.875C25.625 45.8281 25.7031 45.0469 25.8437 44.125C26.2344 41.75 26.1875 41.5937 24.5 39.9687C23.2344 38.7344 23.125 38.5937 23.4531 38.5312C23.6562 38.5 24.5156 38.3594 25.3437 38.2344C26.3437 38.0781 27.0312 37.875 27.3281 37.6719C27.625 37.4531 28.0625 36.7656 28.5781 35.7031C29 34.7969 29.4062 34.0625 29.4531 34.0625C29.4844 34.0625 29.9062 34.8281 30.375 35.75Z" fill="#1E2533"/>
<path d="M49.4531 31.7347C48.75 32.141 48.375 32.6566 47.625 34.141C47.1875 35.0003 46.8281 35.7191 46.7969 35.7503C46.7812 35.7816 45.9062 35.9222 44.875 36.0785C42.6875 36.4222 42.1875 36.6878 41.7969 37.7347C41.3437 38.9222 41.5312 39.391 43.1875 41.0941L44.6406 42.5785L44.3281 44.4222C43.9531 46.6253 44.0625 47.2503 44.9219 47.9066C45.9219 48.6566 46.5469 48.5941 48.5781 47.5628L50.3594 46.6566L52.0937 47.5472C54.3594 48.7191 55.1406 48.7035 56.1562 47.5003C56.6562 46.9066 56.6875 46.1097 56.2969 43.9378L56.0312 42.4691L57.3906 41.1566C58.1406 40.4378 58.8281 39.6722 58.9062 39.4535C59.3437 38.3285 58.8594 37.0316 57.8125 36.5316C57.5156 36.391 56.5 36.1566 55.5469 36.0316C54.4844 35.891 53.8125 35.7191 53.7656 35.5941C53.4375 34.6253 52.0937 32.2972 51.6875 32.016C51.1406 31.6097 49.9219 31.4691 49.4531 31.7347ZM52.5156 37.6878C52.75 37.8597 53.5156 38.0785 54.3906 38.2191C56.8906 38.6097 56.7969 38.4222 55.3594 39.891C54.6562 40.5941 54.0156 41.3285 53.9219 41.516C53.6875 41.9847 53.7031 42.8128 54 44.4222C54.1406 45.1722 54.2187 45.8441 54.1719 45.891C54.125 45.9378 53.4062 45.6097 52.5937 45.1722C50.6094 44.0941 50.1875 44.0941 48.1094 45.1722C47.25 45.6097 46.5156 45.9535 46.4844 45.9222C46.4531 45.891 46.5625 45.1253 46.7344 44.2191C47.1562 41.9066 47.1094 41.766 45.4375 40.0628C43.8437 38.4378 43.8125 38.5628 46.0156 38.2816C48.1875 37.9847 48.4687 37.766 49.6094 35.4691L50.3437 34.0003L51.2344 35.7035C51.7187 36.641 52.2812 37.5316 52.5156 37.6878Z" fill="#1E2533"/>
<path d="M1.64062 55.8906C1.07812 56.0312 0.4375 56.5937 0.21875 57.125C0.046875 57.5469 0 58.9844 0 64.3125C0 71.6875 0 71.7187 1.01562 72.3437C1.5 72.6406 1.78125 72.6562 8.45312 72.6562C14.9688 72.6562 15.4219 72.6406 15.875 72.3594C16.8594 71.75 16.875 71.6875 16.875 64.2656C16.875 56.8906 16.875 56.9062 15.8906 56.1875C15.4531 55.875 15.25 55.8594 8.70312 55.8281C4.98438 55.8281 1.8125 55.8437 1.64062 55.8906ZM14.5312 64.2187V70.3125H8.4375H2.34375V64.2187V58.125H8.4375H14.5312V64.2187Z" fill="#FA7846"/>
<path d="M28.4375 56.1251C27.7969 56.4533 27.6563 56.6408 26.7969 58.297L25.875 60.1095L24.375 60.297C23.5625 60.4064 22.625 60.5626 22.3125 60.6408C21.6563 60.8126 21.0156 61.5001 20.7969 62.2658C20.5313 63.2345 20.8438 63.8439 22.3594 65.3908L23.75 66.8126L23.4375 68.5939C23.2656 69.5783 23.1719 70.5939 23.2188 70.8595C23.3594 71.5001 23.8281 72.1408 24.375 72.422C25.2344 72.8751 26 72.7189 27.8125 71.7814L29.4688 70.9064L31.125 71.7814C32.3594 72.4533 32.9219 72.6564 33.4219 72.6564C34.5625 72.6564 35.4531 71.9533 35.6875 70.8595C35.7344 70.5939 35.6406 69.5783 35.4688 68.5939L35.1563 66.797L36.5781 65.3751C37.6406 64.3126 38.0156 63.8126 38.125 63.3751C38.375 62.2189 37.6563 60.9064 36.5938 60.6408C36.2813 60.5626 35.3438 60.4064 34.5156 60.297L33.0313 60.0939L32.0938 58.297C31.25 56.6408 31.1094 56.4533 30.4688 56.1251C30.0938 55.9376 29.625 55.7814 29.4531 55.7814C29.2813 55.7814 28.8125 55.9376 28.4375 56.1251ZM31.6719 61.9689C32.0156 62.1876 32.75 62.3908 33.9844 62.5783L35.7969 62.8439L34.4063 64.2814C33.3594 65.3439 32.9688 65.8439 32.8906 66.2501C32.8438 66.5626 32.9219 67.547 33.0938 68.547L33.3906 70.297L31.7031 69.4376C30.6094 68.8908 29.8125 68.5939 29.4531 68.5939C29.0938 68.5939 28.3438 68.8751 27.2969 69.4064C26.4219 69.8595 25.6563 70.2501 25.6094 70.2814C25.5625 70.297 25.6563 69.5001 25.8281 68.4845C26.0156 67.3751 26.0938 66.4533 26.0313 66.172C25.9688 65.9064 25.3438 65.1251 24.5156 64.2814L23.1094 62.8439L24.4844 62.6564C27.3125 62.2814 27.5625 62.1095 28.6719 59.8595L29.4375 58.2814L30.3125 59.9533C30.9063 61.1251 31.3281 61.7345 31.6719 61.9689Z" fill="#1E2533"/>
</svg>
