<svg width="25" height="18" viewBox="0 0 25 18" fill="none" xmlns="http://www.w3.org/2000/svg">
<path fill-rule="evenodd" clip-rule="evenodd" d="M2.23593 17.1552C2.39528 17.2624 2.59587 17.3264 2.81334 17.3264V17.3248C2.98972 17.3245 3.16245 17.2819 3.31169 17.2016C3.46092 17.1214 3.58059 17.0068 3.65696 16.8711C3.73332 16.7354 3.76328 16.5841 3.74338 16.4345C3.72349 16.2849 3.65454 16.1432 3.54448 16.0256C2.65374 15.086 2.09294 13.9504 1.92696 12.7501C1.76098 11.5499 1.99662 10.334 2.60659 9.24329C3.21657 8.15256 4.17596 7.23154 5.37373 6.58679C6.57151 5.94205 7.95872 5.59994 9.37483 5.60005H20.6231L20.8912 5.60325L21.1536 5.61605L18.0847 8.23363L17.9779 8.34563C17.8442 8.50989 17.7875 8.71092 17.8188 8.90912C17.8502 9.10731 17.9674 9.28829 18.1474 9.41638C18.3273 9.54447 18.557 9.61039 18.7911 9.60114C19.0252 9.5919 19.2467 9.50815 19.412 9.36642L24.0988 5.36646L24.2057 5.25446C24.3307 5.10054 24.3884 4.91407 24.3689 4.72754C24.3494 4.54101 24.2538 4.36623 24.0988 4.23366L19.412 0.233696L19.2808 0.142498C19.1005 0.0358143 18.882 -0.0134926 18.6634 0.00317383C18.4449 0.0198383 18.2401 0.101418 18.0847 0.233696L17.9779 0.345695C17.8529 0.499613 17.7951 0.686079 17.8146 0.872612C17.8342 1.05914 17.9297 1.23392 18.0847 1.36649L21.1911 4.01447C21.002 4.00483 20.8126 4.00003 20.6231 4.00006H9.37483L8.96802 4.00646C7.23514 4.07051 5.55706 4.54366 4.12052 5.37325C2.68397 6.20284 1.54531 7.35635 0.831224 8.7054C0.117144 10.0545 -0.14435 11.5462 0.0758476 13.0145C0.296045 14.4829 0.989296 15.8703 2.07845 17.0224L2.11032 17.0544L2.23593 17.1552Z" fill="#FF9118"/>
</svg>
