<svg width="25" height="18" viewBox="0 0 25 18" fill="none" xmlns="http://www.w3.org/2000/svg">
<path fill-rule="evenodd" clip-rule="evenodd" d="M22.7641 17.1552C22.6047 17.2624 22.4041 17.3264 22.1867 17.3264V17.3248C22.0103 17.3245 21.8375 17.2819 21.6883 17.2016C21.5391 17.1214 21.4194 17.0068 21.343 16.8711C21.2667 16.7354 21.2367 16.5841 21.2566 16.4345C21.2765 16.2849 21.3455 16.1432 21.4555 16.0256C22.3463 15.086 22.9071 13.9504 23.073 12.7501C23.239 11.5499 23.0034 10.334 22.3934 9.24329C21.7834 8.15256 20.824 7.23154 19.6263 6.58679C18.4285 5.94205 17.0413 5.59994 15.6252 5.60005H4.3769L4.10882 5.60325L3.84636 5.61605L6.91526 8.23363L7.02212 8.34563C7.1558 8.50989 7.21255 8.71092 7.18117 8.90912C7.1498 9.10731 7.03258 9.28829 6.85261 9.41638C6.67265 9.54447 6.443 9.61039 6.20891 9.60114C5.97483 9.5919 5.75329 9.50815 5.58797 9.36642L0.901188 5.36646L0.79433 5.25446C0.669328 5.10054 0.611557 4.91407 0.631084 4.72754C0.65061 4.54101 0.746196 4.36623 0.901188 4.23366L5.58797 0.233696L5.7192 0.142498C5.89954 0.0358143 6.11803 -0.0134926 6.33659 0.00317383C6.55515 0.0198383 6.75993 0.101418 6.91526 0.233696L7.02212 0.345695C7.14712 0.499613 7.20489 0.686079 7.18536 0.872612C7.16584 1.05914 7.07025 1.23392 6.91526 1.36649L3.80886 4.01447C3.998 4.00483 4.18743 4.00003 4.3769 4.00006H15.6252L16.032 4.00646C17.7649 4.07051 19.4429 4.54366 20.8795 5.37325C22.316 6.20284 23.4547 7.35635 24.1688 8.7054C24.8829 10.0545 25.1444 11.5462 24.9242 13.0145C24.704 14.4829 24.0107 15.8703 22.9215 17.0224L22.8897 17.0544L22.7641 17.1552Z" fill="#FF9118"/>
</svg>
