<svg width="145" height="100" viewBox="0 0 145 100" fill="none" xmlns="http://www.w3.org/2000/svg">
<path d="M5.05053 0.669353C4.86791 0.462211 4.55196 0.442325 4.34482 0.624937L0.969246 3.60076C0.762104 3.78337 0.742218 4.09933 0.92483 4.30647C1.10744 4.51361 1.4234 4.5335 1.63054 4.35089L4.63105 1.70571L7.27622 4.70622C7.45883 4.91336 7.77479 4.93324 7.98193 4.75063C8.18908 4.56802 8.20896 4.25206 8.02635 4.04492L5.05053 0.669353ZM4.67546 43L5.16075 42.8796L4.67546 43ZM4.67546 1C4.17645 0.968593 4.17644 0.96874 4.17642 0.969014C4.17641 0.969276 4.17638 0.969678 4.17635 0.9702C4.17628 0.971244 4.17619 0.972797 4.17606 0.974853C4.1758 0.978967 4.17542 0.985097 4.17491 0.993217C4.1739 1.00946 4.1724 1.03365 4.17043 1.06558C4.16649 1.12944 4.16068 1.22424 4.15321 1.34819C4.13825 1.59608 4.1166 1.96058 4.08981 2.4274C4.03621 3.36103 3.96202 4.70402 3.8796 6.34206C3.71475 9.61791 3.51691 14.075 3.38499 18.7985C3.25311 23.5212 3.18699 28.515 3.28609 32.863C3.38483 37.1947 3.64797 40.9346 4.19016 43.1204L5.16075 42.8796C4.64872 40.8154 4.38476 37.1803 4.28583 32.8402C4.18728 28.5163 4.25294 23.5413 4.3846 18.8265C4.51625 14.1125 4.71373 9.66334 4.87833 6.39232C4.96063 4.75692 5.03469 3.41631 5.08816 2.48471C5.1149 2.01891 5.13649 1.65539 5.15139 1.40841C5.15884 1.28492 5.16462 1.19056 5.16853 1.12714C5.17049 1.09542 5.17198 1.07144 5.17297 1.05541C5.17347 1.04739 5.17385 1.04137 5.1741 1.03736C5.17423 1.03535 5.17432 1.03385 5.17438 1.03286C5.17442 1.03236 5.17444 1.032 5.17445 1.03175C5.17447 1.03152 5.17448 1.03141 4.67546 1ZM4.19016 43.1204C4.86867 45.8557 5.97675 47.7582 7.44605 49.0497C8.91436 50.3403 10.6974 50.9801 12.6515 51.2739C14.5984 51.5666 16.7469 51.5198 18.9665 51.4142C21.2015 51.3079 23.5079 51.1421 25.8373 51.1789C30.4802 51.2523 35.1026 52.1323 39.0362 55.8523C42.9845 59.5862 46.3143 66.2522 48.1816 78.078L49.1693 77.922C47.2866 65.9978 43.9022 59.0777 39.7233 55.1257C35.5297 51.1598 30.612 50.2543 25.8531 50.179C23.4817 50.1415 21.1218 50.3105 18.919 50.4154C16.7009 50.5209 14.6401 50.5616 12.8002 50.285C10.9674 50.0095 9.38602 49.4235 8.10624 48.2986C6.82745 47.1745 5.80376 45.4719 5.16075 42.8796L4.19016 43.1204ZM48.1816 78.078C49.1324 84.0997 51.3739 88.6526 54.5942 91.9851C57.8126 95.3157 61.9775 97.3954 66.7237 98.5255C76.1965 100.781 88.0593 99.2711 99.6126 96.2967C111.18 93.3186 122.505 88.8539 130.932 85.1372C135.147 83.2782 138.64 81.6051 141.08 80.3963C142.3 79.7919 143.257 79.3035 143.909 78.9659C144.236 78.7972 144.486 78.6661 144.655 78.5771C144.739 78.5326 144.803 78.4986 144.846 78.4756C144.868 78.4642 144.884 78.4555 144.895 78.4496C144.9 78.4467 144.905 78.4444 144.907 78.4429C144.909 78.4422 144.91 78.4416 144.911 78.4412C144.911 78.4408 144.912 78.4406 144.675 78C144.439 77.5594 144.439 77.5596 144.438 77.5599C144.438 77.5602 144.437 77.5607 144.435 77.5614C144.433 77.5628 144.429 77.5649 144.424 77.5677C144.413 77.5732 144.397 77.5817 144.376 77.5928C144.334 77.6152 144.271 77.6486 144.188 77.6925C144.022 77.7804 143.774 77.9102 143.45 78.0778C142.802 78.4128 141.851 78.8986 140.636 79.5002C138.207 80.7035 134.727 82.3702 130.528 84.2222C122.127 87.9274 110.858 92.3689 99.3633 95.3283C87.8541 98.2914 76.1856 99.7504 66.9553 97.5527C62.3499 96.4561 58.3703 94.4538 55.3133 91.2903C52.2583 88.1287 50.0935 83.7753 49.1693 77.922L48.1816 78.078Z" fill="#FA7846"/>
</svg>
