<svg width="125" height="39" viewBox="0 0 125 39" fill="none" xmlns="http://www.w3.org/2000/svg">
<path d="M3.58595 38.7803C3.74074 39.009 4.05161 39.0689 4.28028 38.9141L8.00678 36.3915C8.23545 36.2367 8.29534 35.9258 8.14055 35.6972C7.98575 35.4685 7.67489 35.4086 7.44621 35.5634L4.13377 37.8057L1.89151 34.4932C1.73671 34.2645 1.42584 34.2047 1.19717 34.3595C0.968492 34.5142 0.9086 34.8251 1.0634 35.0538L3.58595 38.7803ZM124 1C123.528 0.83387 123.528 0.833769 123.528 0.833834C123.528 0.834079 123.528 0.83431 123.528 0.834798C123.528 0.835772 123.527 0.837409 123.526 0.839702C123.525 0.844288 123.522 0.851497 123.519 0.861273C123.511 0.880824 123.501 0.91064 123.486 0.950271C123.456 1.02953 123.411 1.14804 123.35 1.30218C123.227 1.61049 123.041 2.06121 122.786 2.62553C122.277 3.75443 121.497 5.3364 120.415 7.14132C118.249 10.7544 114.883 15.243 110.078 18.785C105.28 22.3221 99.0424 24.9195 91.1039 24.7579C83.1588 24.5962 73.4672 21.6699 61.7722 14.0806L61.2278 14.9194C73.0328 22.5801 82.9037 25.5913 91.0836 25.7577C99.2701 25.9243 105.72 23.2404 110.672 19.59C115.617 15.9445 119.064 11.3394 121.273 7.65555C122.378 5.81204 123.176 4.19479 123.698 3.03658C123.959 2.45734 124.152 1.99254 124.279 1.67121C124.343 1.51053 124.391 1.38569 124.422 1.30031C124.438 1.25762 124.45 1.22479 124.459 1.20228C124.463 1.19102 124.466 1.18234 124.468 1.1763C124.469 1.17328 124.47 1.17091 124.471 1.16922C124.471 1.16837 124.471 1.1676 124.471 1.16717C124.471 1.16657 124.472 1.16613 124 1ZM61.7722 14.0806C49.9616 6.41629 40.3782 4.04911 32.6338 4.8857C24.8827 5.72302 19.0562 9.7606 14.7471 14.7351C10.4429 19.7039 7.63606 25.6243 5.90622 30.287C5.0403 32.6211 4.44188 34.6465 4.05963 36.0898C3.86847 36.8115 3.73128 37.3881 3.64165 37.7853C3.59684 37.984 3.56391 38.1378 3.54208 38.2426C3.53116 38.2949 3.52301 38.3351 3.51754 38.3624C3.5148 38.376 3.51273 38.3865 3.51132 38.3937C3.51061 38.3973 3.51007 38.4001 3.50969 38.402C3.5095 38.403 3.50933 38.4038 3.50924 38.4043C3.50911 38.405 3.50903 38.4054 4 38.5C4.49097 38.5946 4.49097 38.5946 4.491 38.5944C4.49107 38.5941 4.49115 38.5937 4.49128 38.593C4.49154 38.5917 4.49197 38.5895 4.49255 38.5865C4.49373 38.5805 4.49555 38.5713 4.49804 38.5589C4.50302 38.534 4.51065 38.4964 4.52103 38.4466C4.5418 38.347 4.57357 38.1985 4.61714 38.0054C4.70427 37.6192 4.83856 37.0547 5.0263 36.3458C5.40187 34.9277 5.99095 32.9336 6.84378 30.6349C8.55144 26.0319 11.3071 20.2336 15.5029 15.3899C19.6938 10.5519 25.3048 6.68323 32.7412 5.87992C40.1843 5.07589 49.5384 7.33371 61.2278 14.9194L61.7722 14.0806Z" fill="#FA7846"/>
</svg>
