<svg width="57" height="211" viewBox="0 0 57 211" fill="none" xmlns="http://www.w3.org/2000/svg">
<path d="M3.70834 114.115L4.15735 114.335L3.70834 114.115ZM19.4985 210.035C19.5175 210.31 19.7562 210.518 20.0317 210.499L24.5211 210.19C24.7966 210.171 25.0045 209.933 24.9856 209.657C24.9666 209.382 24.728 209.174 24.4525 209.193L20.4619 209.467L20.1875 205.477C20.1685 205.201 19.9298 204.993 19.6544 205.012C19.3789 205.031 19.1709 205.27 19.1898 205.545L19.4985 210.035ZM19.9974 1.00024C19.7305 1.42306 19.7305 1.42308 19.7307 1.4232C19.731 1.42339 19.7314 1.42362 19.732 1.42399C19.7331 1.42473 19.735 1.42589 19.7375 1.42748C19.7425 1.43066 19.7501 1.43555 19.7604 1.44212C19.781 1.45528 19.8121 1.4752 19.8533 1.50181C19.9356 1.55504 20.0583 1.63503 20.2185 1.74115C20.5387 1.9534 21.0084 2.27017 21.6035 2.68641C22.7936 3.51895 24.4848 4.74914 26.4841 6.33673C30.484 9.5129 35.7106 14.1145 40.6252 19.8191C50.4687 31.2452 58.9742 46.9901 54.0688 64.5383L55.0319 64.8075C60.0734 46.7722 51.3024 30.6808 41.3828 19.1664C36.4157 13.4008 31.139 8.75612 27.106 5.5536C25.0888 3.95183 23.3812 2.70957 22.1766 1.86699C21.5743 1.44567 21.0977 1.1242 20.7709 0.90762C20.6075 0.799325 20.4816 0.717244 20.3962 0.662005C20.3534 0.634385 20.3208 0.613475 20.2987 0.599354C20.2877 0.592293 20.2792 0.586929 20.2735 0.583272C20.2706 0.581443 20.2684 0.580041 20.2668 0.579067C20.2661 0.57858 20.2654 0.578171 20.265 0.577928C20.2646 0.577626 20.2643 0.577431 19.9974 1.00024ZM54.0688 64.5383C51.6022 73.3622 47.9227 79.3902 43.6317 83.8346C39.3361 88.2838 34.4053 91.1698 29.3925 93.6824C19.4098 98.686 8.97546 102.227 3.25933 113.895L4.15735 114.335C9.68755 103.047 19.7007 99.6588 29.8406 94.5763C34.8892 92.0458 39.9386 89.0995 44.3511 84.5292C48.7683 79.9541 52.525 73.7754 55.0319 64.8075L54.0688 64.5383ZM3.25933 113.895C-1.16138 122.918 0.194564 130.675 4.0514 137.889C7.88032 145.052 14.2208 151.753 19.7701 158.647C25.3524 165.581 30.1653 172.738 31.1773 180.936C32.1852 189.102 29.4316 198.412 19.6204 209.672L20.3743 210.329C30.3076 198.928 33.2229 189.346 32.1697 180.814C31.1206 172.315 26.1424 164.968 20.5491 158.02C14.9228 151.031 8.70332 144.47 4.9333 137.418C1.19119 130.418 -0.090717 123.006 4.15735 114.335L3.25933 113.895Z" fill="#FA7846"/>
</svg>
