<svg width="56" height="152" viewBox="0 0 56 152" fill="none" xmlns="http://www.w3.org/2000/svg">
<path d="M1.00346 150.441C0.971032 150.716 1.16705 150.964 1.44128 150.997L5.91015 151.525C6.18438 151.557 6.43298 151.361 6.4654 151.087C6.49783 150.813 6.30181 150.564 6.02758 150.532L2.05526 150.062L2.52498 146.09C2.55741 145.816 2.36139 145.567 2.08716 145.535C1.81293 145.502 1.56433 145.698 1.5319 145.972L1.00346 150.441ZM51.3384 1.25897C56.9709 10.5618 54.5361 20.1635 48.2799 29.621C42.0173 39.0881 32.0042 48.2807 22.7319 56.6544C18.1054 60.8325 13.6627 64.8079 9.99106 68.4949C6.32591 72.1753 3.38871 75.6072 1.80257 78.7053C0.210955 81.8141 -0.0722146 84.7062 1.79796 87.1539C3.61784 89.5358 7.39114 91.3617 13.506 92.6568L13.7133 91.6785C7.63602 90.3913 4.17988 88.6243 2.59258 86.5468C1.05557 84.5351 1.18746 82.1011 2.69269 79.1611C4.2034 76.2103 7.04483 72.8706 10.6996 69.2005C14.3479 65.537 18.7665 61.5829 23.4022 57.3965C32.6542 49.0411 42.7689 39.7644 49.1139 30.1728C55.4652 20.5715 58.1177 10.5251 52.1938 0.741034L51.3384 1.25897ZM13.506 92.6568C25.6227 95.2232 30.7072 100.077 31.8008 105.735C32.9104 111.475 29.9824 118.293 25.4308 124.924C20.8983 131.528 14.8417 137.823 9.90724 142.474C7.44202 144.798 5.26108 146.708 3.69696 148.036C2.91497 148.7 2.28734 149.219 1.85568 149.571C1.63986 149.747 1.47304 149.882 1.36042 149.972C1.30411 150.017 1.26136 150.051 1.23281 150.074C1.21853 150.085 1.20781 150.094 1.20071 150.099C1.19717 150.102 1.19453 150.104 1.19281 150.105C1.19195 150.106 1.19135 150.107 1.19092 150.107C1.19055 150.107 1.19041 150.107 1.5 150.5C1.80959 150.893 1.80992 150.892 1.81047 150.892C1.81097 150.892 1.81176 150.891 1.81275 150.89C1.81472 150.889 1.81762 150.886 1.82142 150.883C1.82903 150.877 1.84027 150.868 1.85507 150.857C1.88467 150.833 1.92849 150.798 1.98588 150.752C2.10066 150.66 2.26973 150.524 2.48789 150.346C2.92418 149.99 3.55686 149.467 4.34426 148.798C5.91891 147.461 8.11308 145.54 10.5932 143.202C15.5494 138.53 21.6643 132.179 26.2553 125.49C30.8272 118.83 33.9746 111.711 32.7827 105.545C31.5748 99.2965 25.9809 94.2768 13.7133 91.6785L13.506 92.6568Z" fill="#FA7846"/>
</svg>
