<svg width="211" height="55" viewBox="0 0 211 55" fill="none" xmlns="http://www.w3.org/2000/svg">
<path d="M107 40L106.661 40.3674L107 40ZM210.854 4.35355C211.049 4.15829 211.049 3.8417 210.854 3.64644L207.672 0.464497C207.476 0.269237 207.16 0.269241 206.964 0.464505C206.769 0.659769 206.769 0.976352 206.964 1.17161L209.793 4.00001L206.964 6.82847C206.769 7.02373 206.769 7.34031 206.965 7.53557C207.16 7.73083 207.476 7.73083 207.672 7.53556L210.854 4.35355ZM0.543349 26.7036C2.63592 31.3961 5.28551 34.5972 8.41883 36.6451C11.5517 38.6927 15.1273 39.5607 19.0268 39.6561C26.7886 39.846 35.9582 36.9691 45.7035 34.1047C65.2929 28.3468 87.3902 22.5791 106.661 40.3674L107.339 39.6326C87.6098 21.4209 64.9571 27.4032 45.4215 33.1453C35.6043 36.0309 26.6177 38.8415 19.0513 38.6564C15.2867 38.5643 11.9053 37.7292 8.96593 35.808C6.02699 33.8872 3.48908 30.8539 1.45665 26.2964L0.543349 26.7036ZM106.661 40.3674C112.977 46.1975 117.968 50.0325 122.039 52.2603C126.111 54.4877 129.324 55.1412 132.05 54.5056C134.776 53.8701 136.899 51.9729 138.848 49.3714C140.794 46.775 142.625 43.3946 144.725 39.7088C148.941 32.3097 154.324 23.5274 164.163 16.5817C173.996 9.64035 188.331 4.50024 210.5 4.5V3.5C188.169 3.50025 173.622 8.68067 163.586 15.7648C153.557 22.8446 148.085 31.7926 143.857 39.2137C141.734 42.938 139.945 46.2401 138.048 48.7718C136.155 51.2983 134.212 52.9748 131.823 53.5317C129.435 54.0883 126.485 53.5528 122.519 51.383C118.554 49.2136 113.634 45.4431 107.339 39.6326L106.661 40.3674Z" fill="#FA7846"/>
</svg>
