<svg width="137" height="80" viewBox="0 0 137 80" fill="none" xmlns="http://www.w3.org/2000/svg">
<path d="M0.573158 76.2391C0.429345 76.4749 0.503866 76.7825 0.739604 76.9264L4.58118 79.2699C4.81692 79.4137 5.1246 79.3392 5.26842 79.1035C5.41223 78.8677 5.33771 78.5601 5.10197 78.4162L1.68724 76.3331L3.77041 72.9183C3.91422 72.6826 3.8397 72.3749 3.60396 72.2311C3.36822 72.0873 3.06054 72.1618 2.91672 72.3975L0.573158 76.2391ZM49 37.4995L49.3689 37.162L49 37.4995ZM1 76.4995C1.11769 76.9855 1.11805 76.9854 1.11866 76.9852C1.11921 76.9851 1.12008 76.9849 1.12118 76.9846C1.12338 76.9841 1.12662 76.9833 1.13089 76.9823C1.13942 76.9802 1.15205 76.9771 1.16872 76.973C1.20207 76.9648 1.25154 76.9526 1.31654 76.9365C1.44655 76.9041 1.63869 76.8559 1.88815 76.7921C2.38705 76.6646 3.11528 76.4748 4.03435 76.2254C5.87238 75.7266 8.47429 74.9893 11.5321 74.0343C17.6451 72.1253 25.5921 69.343 32.9036 65.8542C40.1963 62.3743 46.9327 58.157 50.5489 53.3476C52.3649 50.9324 53.4175 48.3366 53.3235 45.5921C53.2294 42.8448 51.9891 40.026 49.3689 37.162L48.6311 37.837C51.1364 40.5753 52.2402 43.1769 52.3241 45.6263C52.4081 48.0783 51.4726 50.4551 49.7496 52.7466C46.2879 57.3506 39.7429 61.4827 32.4729 64.9517C25.2216 68.4118 17.3245 71.1777 11.234 73.0798C8.19017 74.0304 5.60054 74.7642 3.77246 75.2603C2.85847 75.5083 2.13499 75.6969 1.64046 75.8233C1.3932 75.8865 1.20319 75.9342 1.07522 75.966C1.01124 75.9819 0.962772 75.9939 0.930419 76.0018C0.914242 76.0058 0.902095 76.0087 0.894051 76.0107C0.890029 76.0117 0.887032 76.0124 0.885072 76.0129C0.884091 76.0131 0.8834 76.0133 0.882908 76.0134C0.882477 76.0135 0.882305 76.0136 1 76.4995ZM49.3689 37.162C48.0592 35.7304 47.4336 34.5077 47.3075 33.4697C47.1847 32.4593 47.5265 31.5493 48.3299 30.6957C49.147 29.8277 50.432 29.0322 52.1467 28.3075C53.8554 27.5852 55.9564 26.9474 58.3727 26.3768C68.056 24.0901 82.5545 22.937 96.4845 21.6223C103.438 20.966 110.243 20.2696 116.208 19.3709C122.165 18.4734 127.322 17.369 130.962 15.8844C132.781 15.1425 134.259 14.291 135.269 13.2928C136.289 12.2835 136.847 11.1057 136.76 9.75448C136.674 8.42648 135.971 7.01948 134.67 5.5202C133.366 4.01701 131.424 2.37971 128.781 0.585774L128.219 1.41325C130.826 3.18181 132.689 4.76326 133.915 6.17561C135.144 7.59185 135.696 8.79715 135.762 9.81877C135.826 10.8171 135.431 11.7262 134.566 12.5817C133.689 13.4483 132.348 14.2394 130.585 14.9584C127.061 16.3956 122.003 17.4866 116.059 18.382C110.124 19.2763 103.343 19.9705 96.3905 20.6267C82.508 21.937 67.9128 23.0964 58.1429 25.4035C55.6959 25.9814 53.5362 26.6345 51.7574 27.3864C49.9845 28.1357 48.5552 28.9975 47.6018 30.0103C46.6347 31.0377 46.1498 32.2321 46.3148 33.5903C46.4765 34.921 47.2533 36.3311 48.6311 37.837L49.3689 37.162Z" fill="#FA7846"/>
</svg>
