<svg width="78" height="34" viewBox="0 0 78 34" fill="none" xmlns="http://www.w3.org/2000/svg">
<path d="M75.9159 33.7353C76.046 33.7816 76.189 33.7137 76.2353 33.5836L76.9897 31.4639C77.036 31.3338 76.9681 31.1908 76.8381 31.1445C76.708 31.0982 76.565 31.1661 76.5187 31.2962L75.848 33.1804L73.9638 32.5098C73.8338 32.4635 73.6908 32.5314 73.6445 32.6615C73.5982 32.7915 73.6661 32.9345 73.7962 32.9808L75.9159 33.7353ZM1.00024 0.499573C0.823467 0.67635 0.823632 0.676514 0.823918 0.676801C0.824176 0.677058 0.824584 0.677466 0.8251 0.67798C0.82613 0.679009 0.827646 0.680521 0.829645 0.682512C0.833642 0.686493 0.839568 0.692389 0.847399 0.700159C0.86306 0.715699 0.886341 0.738736 0.917041 0.768953C0.978442 0.829386 1.06953 0.918536 1.1887 1.03385C1.42706 1.26449 1.77782 1.59981 2.22827 2.01943C3.12914 2.85862 4.42902 4.03518 6.02629 5.38583C9.21975 8.08623 13.6069 11.4867 18.3738 14.278C23.1358 17.0662 28.3021 19.2618 33.0488 19.5229C35.4261 19.6536 37.7048 19.2995 39.7741 18.2858C41.8446 17.2716 43.691 15.604 45.213 13.1308L44.7871 12.8688C43.3091 15.2706 41.5305 16.8687 39.5541 17.8368C37.5766 18.8056 35.3865 19.1507 33.0763 19.0236C28.4481 18.7691 23.3645 16.6208 18.6265 13.8465C13.8935 11.0751 9.53065 7.69432 6.34914 5.00403C4.75893 3.65935 3.46507 2.48823 2.56908 1.65357C2.1211 1.23626 1.77264 0.903125 1.53639 0.674526C1.41826 0.560228 1.3282 0.47207 1.26777 0.412598C1.23756 0.382862 1.21476 0.360298 1.19957 0.345225C1.19197 0.337688 1.18628 0.332024 1.18251 0.328273C1.18063 0.326397 1.17923 0.325 1.17831 0.324085C1.17785 0.323628 1.17753 0.323305 1.1773 0.323076C1.1771 0.322875 1.17702 0.322796 1.00024 0.499573ZM45.213 13.1308C46.6963 10.7204 48.2725 9.25443 49.8824 8.50885C51.4877 7.76543 53.1511 7.7267 54.8365 8.21639C58.228 9.20176 61.687 12.321 64.8072 16.0965C67.9192 19.8621 70.6611 24.239 72.6265 27.6785C73.6087 29.3974 74.396 30.8805 74.9376 31.9335C75.2084 32.4599 75.4177 32.8788 75.5592 33.1659C75.6299 33.3094 75.6838 33.4199 75.7198 33.4945C75.7378 33.5318 75.7514 33.56 75.7605 33.5789C75.765 33.5884 75.7684 33.5955 75.7706 33.6002C75.7718 33.6025 75.7726 33.6043 75.7731 33.6054C75.7734 33.606 75.7736 33.6064 75.7737 33.6067C75.7739 33.6069 75.7739 33.6071 75.9997 33.4998C76.2256 33.3925 76.2255 33.3923 76.2253 33.392C76.2251 33.3917 76.2249 33.3911 76.2246 33.3905C76.224 33.3892 76.2231 33.3873 76.2219 33.3849C76.2195 33.3799 76.216 33.3725 76.2114 33.3628C76.2021 33.3434 76.1882 33.3146 76.1699 33.2768C76.1333 33.2012 76.079 33.0895 76.0077 32.9448C75.865 32.6554 75.6544 32.234 75.3822 31.7048C74.8379 30.6465 74.0471 29.1568 73.0606 27.4304C71.0885 23.9793 68.3305 19.5749 65.1926 15.778C62.0629 11.991 58.5219 8.76649 54.976 7.73624C53.1927 7.21812 51.403 7.25362 49.6723 8.05514C47.9463 8.8545 46.3038 10.4042 44.7871 12.8688L45.213 13.1308Z" fill="#FA7846"/>
</svg>
