<svg width="92" height="89" viewBox="0 0 92 89" fill="none" xmlns="http://www.w3.org/2000/svg">
<path d="M5.34185 88.9744C5.60382 89.0617 5.88699 88.9201 5.97431 88.6581L7.39735 84.3891C7.48467 84.1271 7.34309 83.8439 7.08112 83.7566C6.81915 83.6693 6.53599 83.8109 6.44866 84.0728L5.18374 87.8676L1.38901 86.6026C1.12704 86.5153 0.843881 86.6569 0.756556 86.9189C0.669232 87.1808 0.810811 87.464 1.07278 87.5513L5.34185 88.9744ZM90.5266 0.839049C89.488 3.89369 88.0267 6.01258 86.2857 7.4537C84.5444 8.89495 82.492 9.68427 80.2293 10.0292C75.6747 10.7234 70.3477 9.61028 65.1719 8.44966C62.6015 7.87329 60.0696 7.28644 57.7313 6.92676C55.3958 6.56755 53.2079 6.42686 51.3254 6.76578C49.4278 7.10743 47.8185 7.94168 46.6973 9.53782C45.5869 11.1185 45 13.3835 45 16.5H46C46 13.4916 46.5693 11.4597 47.5156 10.1126C48.451 8.78107 49.7987 8.05673 51.5026 7.74995C53.2218 7.44044 55.2799 7.56147 57.5792 7.91514C59.8756 8.26836 62.3672 8.84556 64.9531 9.42543C70.0898 10.5773 75.6065 11.7454 80.38 11.0177C82.7814 10.6517 85.0141 9.80428 86.9233 8.22404C88.8326 6.64368 90.3869 4.35631 91.4734 1.16095L90.5266 0.839049ZM45 16.5C45 22.5141 43.225 26.7053 40.4228 29.8634C37.6055 33.0387 33.7179 35.2066 29.4228 37.1052C27.2766 38.0539 25.0459 38.9282 22.8036 39.8301C20.5663 40.7299 18.3219 41.6553 16.1723 42.6986C11.8748 44.7844 7.91627 47.3595 5.09677 51.2043L5.90317 51.7957C8.58366 48.1405 12.3752 45.6531 16.6089 43.5983C18.7249 42.5713 20.9415 41.6568 23.1768 40.7578C25.4072 39.8608 27.6608 38.9774 29.8271 38.0198C34.1571 36.1058 38.207 33.8675 41.1708 30.5271C44.1499 27.1696 46 22.7358 46 16.5H45ZM5.09677 51.2043C-0.523237 58.8679 -0.501837 68.2864 0.883442 75.7166C1.57758 79.4397 2.61818 82.6871 3.4848 85.0033C3.91831 86.162 4.30882 87.0891 4.5916 87.7278C4.733 88.0472 4.84752 88.2946 4.92706 88.4629C4.96683 88.5471 4.99786 88.6115 5.01915 88.6552C5.02979 88.6771 5.038 88.6938 5.04364 88.7052C5.04646 88.711 5.04864 88.7154 5.05017 88.7184C5.05093 88.72 5.05153 88.7212 5.05196 88.722C5.05217 88.7225 5.05237 88.7229 5.05248 88.7231C5.05264 88.7234 5.05275 88.7236 5.49997 88.5C5.94718 88.2764 5.94721 88.2765 5.9472 88.2765C5.94714 88.2763 5.94709 88.2762 5.94698 88.276C5.94674 88.2755 5.94634 88.2747 5.94577 88.2736C5.94464 88.2713 5.94286 88.2677 5.94044 88.2628C5.93559 88.253 5.92818 88.2379 5.91835 88.2177C5.89868 88.1773 5.86929 88.1163 5.83118 88.0357C5.75496 87.8744 5.64389 87.6345 5.50599 87.323C5.23018 86.7 4.84725 85.7911 4.42139 84.6529C3.56926 82.3754 2.54736 79.1852 1.8665 75.5333C0.501784 68.2134 0.523183 59.132 5.90317 51.7957L5.09677 51.2043Z" fill="#FA7846"/>
</svg>
