<svg width="158" height="83" viewBox="0 0 158 83" fill="none" xmlns="http://www.w3.org/2000/svg">
<path d="M157.461 66.7994C157.568 66.545 157.449 66.2518 157.194 66.1445L153.047 64.3968C152.793 64.2896 152.5 64.4089 152.392 64.6634C152.285 64.9179 152.405 65.2111 152.659 65.3183L156.345 66.8718L154.792 70.5578C154.684 70.8123 154.804 71.1055 155.058 71.2128C155.313 71.32 155.606 71.2007 155.713 70.9462L157.461 66.7994ZM1.65526 13.967C1.52473 13.7566 1.48155 13.5499 1.50693 13.3331C1.53342 13.1068 1.63872 12.8395 1.85619 12.5309C2.29683 11.9055 3.13256 11.2019 4.35692 10.4572C6.79359 8.97504 10.5966 7.43217 15.2657 6.05153C24.5958 3.29258 37.2633 1.21636 49.0837 1.53169C60.9354 1.84785 71.7865 4.56393 77.653 11.2354C83.4666 17.8467 84.5417 28.5499 76.3481 45.2674L77.246 45.7075C85.5102 28.8461 84.6151 17.6384 78.404 10.5751C72.2459 3.57197 61.0181 0.849704 49.1104 0.532045C37.1713 0.213552 24.3988 2.30804 14.9821 5.09258C10.2777 6.48368 6.38065 8.05575 3.83725 9.6028C2.57158 10.3726 1.59728 11.1622 1.03873 11.9549C0.756617 12.3553 0.565036 12.7783 0.51371 13.2168C0.461278 13.6648 0.559345 14.0974 0.805498 14.4942L1.65526 13.967ZM76.3481 45.2674C72.2179 53.6941 70.3511 60.3973 70.2929 65.6709C70.2345 70.9662 72.0018 74.8258 75.1169 77.4987C78.2113 80.1539 82.5813 81.5914 87.6514 82.1786C92.7274 82.7665 98.5556 82.5081 104.619 81.7264C116.747 80.163 129.892 76.4959 139.993 73.2253C145.047 71.5893 149.344 70.0507 152.378 68.9209C153.895 68.356 155.097 67.8933 155.92 67.5716C156.331 67.4107 156.648 67.2851 156.862 67.1996C156.969 67.1569 157.05 67.1242 157.105 67.1021C157.132 67.0911 157.153 67.0827 157.167 67.077C157.174 67.0742 157.179 67.0721 157.183 67.0706C157.185 67.0699 157.186 67.0693 157.187 67.069C157.188 67.0686 157.188 67.0684 157 66.6053C156.811 66.1422 156.811 66.1423 156.81 66.1426C156.81 66.1429 156.808 66.1434 156.807 66.1441C156.803 66.1454 156.798 66.1475 156.792 66.1502C156.778 66.1556 156.758 66.1638 156.731 66.1747C156.677 66.1963 156.597 66.2286 156.491 66.2709C156.279 66.3556 155.965 66.4803 155.556 66.6403C154.737 66.9602 153.541 67.421 152.029 67.9838C149.006 69.1095 144.723 70.6432 139.685 72.274C129.606 75.5372 116.529 79.1828 104.491 80.7346C98.4721 81.5106 92.7321 81.7604 87.7664 81.1852C82.7949 80.6094 78.6498 79.2124 75.7681 76.7398C72.9071 74.2849 71.2372 70.7233 71.2929 65.682C71.3488 60.619 73.1473 54.0702 77.246 45.7075L76.3481 45.2674Z" fill="#FA7846"/>
</svg>
