<svg width="150" height="101" viewBox="0 0 150 101" fill="none" xmlns="http://www.w3.org/2000/svg">
<path d="M145.08 100.137C145.261 100.346 145.577 100.368 145.785 100.187L149.181 97.2333C149.389 97.0521 149.411 96.7362 149.23 96.5279C149.049 96.3195 148.733 96.2975 148.524 96.4788L145.506 99.1039L142.881 96.0858C142.7 95.8775 142.384 95.8555 142.176 96.0367C141.967 96.218 141.945 96.5338 142.127 96.7421L145.08 100.137ZM2.64095 1.72539C2.43008 1.3523 2.2271 1.05451 2.03053 0.851174C1.93242 0.749681 1.81702 0.651749 1.68362 0.585289C1.54646 0.516958 1.36092 0.468683 1.15787 0.523867C0.954932 0.579019 0.82035 0.714189 0.738076 0.840096C0.658031 0.962593 0.609826 1.10119 0.57833 1.23063C0.515205 1.49006 0.494437 1.81939 0.50122 2.1897C0.528373 3.67221 1.01335 6.32124 1.97985 9.62781C3.9183 16.2596 7.84035 25.6938 14.1514 34.0247C20.4631 42.3567 29.1936 49.6212 40.7493 51.8239C52.3112 54.0277 66.6005 51.1451 83.9857 39.3868L83.4255 38.5585C66.1864 50.2179 52.1635 52.9815 40.9365 50.8416C29.7034 48.7004 21.1681 41.6312 14.9485 33.4209C8.72808 25.2096 4.85301 15.8931 2.93968 9.34725C1.98029 6.065 1.52572 3.51847 1.50105 2.17138C1.49488 1.83429 1.51664 1.60409 1.54998 1.46706C1.56672 1.39827 1.58023 1.37941 1.5752 1.38711C1.56794 1.39823 1.52166 1.46127 1.42013 1.48886C1.31848 1.51649 1.24745 1.48522 1.2377 1.48037C1.23171 1.47738 1.25663 1.48939 1.31155 1.54621C1.42106 1.65948 1.57501 1.87178 1.77039 2.21744L2.64095 1.72539ZM83.9857 39.3868C101.247 27.7121 113.581 25.7666 122.388 29.1858C131.208 32.6104 136.697 41.4939 140.074 51.9809C143.444 62.4501 144.669 74.3937 145.047 83.7376C145.236 88.406 145.214 92.4179 145.144 95.262C145.109 96.684 145.063 97.8136 145.025 98.5871C145.006 98.9738 144.989 99.2715 144.977 99.4721C144.971 99.5724 144.967 99.6484 144.963 99.6991C144.962 99.7245 144.961 99.7436 144.96 99.7562C144.959 99.7625 144.959 99.7672 144.959 99.7703C144.959 99.7718 144.959 99.7729 144.958 99.7736C144.958 99.7743 144.958 99.7746 145.457 99.8093C145.956 99.844 145.956 99.8435 145.956 99.8425C145.956 99.8416 145.956 99.8403 145.956 99.8385C145.957 99.8351 145.957 99.83 145.957 99.8232C145.958 99.8098 145.96 99.7899 145.961 99.7637C145.965 99.7113 145.97 99.6336 145.976 99.5316C145.988 99.3276 146.005 99.0264 146.024 98.6359C146.062 97.8551 146.109 96.7172 146.144 95.2865C146.214 92.4252 146.236 88.3912 146.046 83.6971C145.666 74.3161 144.437 62.2689 141.026 51.6744C137.62 41.0979 131.999 31.8449 122.749 28.2536C113.485 24.6567 100.788 26.8155 83.4255 38.5585L83.9857 39.3868Z" fill="#FA7846"/>
</svg>
