<svg width="80" height="80" viewBox="0 0 80 80" fill="none" xmlns="http://www.w3.org/2000/svg">
<path d="M7.29688 2.67188C6.54688 2.84375 5.32813 3.46875 4.70313 4L4.20312 4.42188L4.5625 4.79688C4.76563 5.01563 5.1875 5.39063 5.5 5.65625L6.09375 6.10938L6.59375 5.71875C6.89063 5.5 7.45313 5.23438 7.875 5.125C8.625 4.92188 8.625 4.92188 8.53125 4.375C8.48438 4.07813 8.4375 3.53125 8.4375 3.15625C8.4375 2.4375 8.39063 2.40625 7.29688 2.67188Z" fill="#FA7846"/>
<path d="M12.3438 3.75V5H14.2187H16.0937V3.75V2.5H14.2187H12.3438V3.75Z" fill="#FA7846"/>
<path d="M19.8438 3.75V5H21.7188H23.5938V3.75V2.5H21.7188H19.8438V3.75Z" fill="#FA7846"/>
<path d="M27.5 3.75V5H29.375H31.25V3.75V2.5H29.375H27.5V3.75Z" fill="#FA7846"/>
<path d="M47.2812 2.67188C46.3125 2.90625 44.8906 3.73438 44.2031 4.48438C43.8594 4.85938 43.3438 5.64062 43.0781 6.21875L42.5781 7.26562L42.5312 18L42.4844 28.75H40H37.5V28.125V27.5H36.25H35V28.1094V28.7188L32.3906 28.7812C29.8281 28.8281 29.75 28.8438 28.7188 29.3281C28.1406 29.5938 27.3594 30.1094 26.9688 30.4688C26.0938 31.2812 25.2188 32.9688 25.0781 34.1406C24.9688 34.9844 24.9531 35 24.4375 35H23.9062V36.25V37.5H24.4531H25V40V42.5H16.25H7.5V60V77.5H40H72.5V60V42.5H66.25H60V40.0156V37.5156L66.375 37.4688L72.75 37.4219L73.9375 36.8438C75.3594 36.1406 76.2344 35.2344 76.9219 33.7812L77.4219 32.7344V19.9844V7.25L76.8438 6.0625C76.1406 4.64062 75.2344 3.76562 73.7812 3.07812L72.7344 2.57812L60.3125 2.54688C53.1406 2.53125 47.6406 2.59375 47.2812 2.67188ZM72.4062 5.1875C73.2656 5.4375 74.5625 6.73438 74.8125 7.59375C75.0781 8.51562 75.0781 31.4844 74.8125 32.4062C74.5625 33.2656 73.2656 34.5625 72.4062 34.8125C71.9531 34.9375 70.0469 35 65.9062 35H60.0625L59.8906 34.0156C59.7969 33.4844 59.6719 32.9219 59.6094 32.7656C59.5 32.5156 59.6562 32.5 61.625 32.5H63.75V31.25V30H62.5H61.25V20V10H64.375H67.5V11.25V12.5H68.75H70V10V7.5H60H50V10V12.5H51.25H52.5V11.25V10H55.625H58.75V20V30H58.1875C57.8438 30 57.1406 29.7656 56.4375 29.4062L55.25 28.8281L50.125 28.7812L45 28.7344V18.4844C45 10.8906 45.0469 8.07812 45.1875 7.59375C45.4219 6.79688 46.7344 5.45312 47.5 5.20312C48.3125 4.95312 71.5312 4.9375 72.4062 5.1875ZM54.9062 31.4375C55.7656 31.6875 57.0625 32.9844 57.3125 33.8438C57.4375 34.2969 57.5 36.0156 57.5 39.4688V44.4531L54.375 41.3281L51.25 38.2031L45 44.4531L38.75 50.7031L35.625 47.5781L32.5 44.4531L30 46.9531L27.5 49.4531V41.9688C27.5 36.5469 27.5469 34.3125 27.6875 33.8438C27.9219 33.0469 29.2344 31.7031 30 31.4531C30.8125 31.2031 54.0312 31.1875 54.9062 31.4375ZM54.4062 44.9531L57.5 48.0469V53.0312C57.5 56.4844 57.4375 58.2031 57.3125 58.6562C57.0625 59.5156 55.7656 60.8125 54.9062 61.0625C54.5312 61.1719 53.3438 61.25 52.1406 61.25H50.0312L49.9219 60.3906C49.7812 59.2188 48.9062 57.5312 48.0312 56.7188C47 55.7656 45.5781 55.1562 44.1562 55.0469L43 54.9531L41.7812 53.7344L40.5469 52.5L45.8594 47.1875C48.7812 44.2656 51.2031 41.875 51.25 41.875C51.2969 41.875 52.7188 43.2656 54.4062 44.9531ZM25 47.5V50H17.5H10V47.5V45H17.5H25V47.5ZM70 47.5V50H65H60V47.5V45H65H70V47.5ZM36.125 51.6719L39.6719 55.2188L38.8125 55.5625C37.2031 56.2188 35.9531 57.5469 35.3438 59.25C35.1406 59.8281 35 60 34.75 60C34.2031 60 33.3906 60.3281 32.7812 60.7969C32.125 61.3125 31.2344 61.3906 30.0938 61.0625C29.2344 60.8125 27.9375 59.5156 27.6875 58.6562C27.5781 58.2656 27.5 57.0156 27.5 55.5312V53.0469L29.9531 50.5938C31.3125 49.2344 32.4531 48.125 32.5 48.125C32.5469 48.125 34.1719 49.7188 36.125 51.6719ZM25.0312 55.7344L25.0781 58.9844L25.5781 60.0312C25.8438 60.6094 26.3594 61.3906 26.7188 61.7812C27.5156 62.6562 29.2188 63.5312 30.3594 63.6719L31.1875 63.7812L31.375 64.5625C31.7031 65.9531 32.7969 67.0469 34.2031 67.3906L35 67.5781V68.4219C35 68.875 35.0781 69.5469 35.1875 69.9062C35.4375 70.7656 36.7344 72.0625 37.5938 72.3125C38.0312 72.4375 39.625 72.5 42.5312 72.5C47.5781 72.5 47.8906 72.4375 48.9531 71.25C49.3281 70.8438 49.7188 70.2188 49.8125 69.875C49.9219 69.5 50 68.1875 50 66.5156V63.7812L52.625 63.7344L55.25 63.6719L56.4375 63.0938C57.8594 62.3906 58.7344 61.4844 59.4219 60.0312L59.9219 58.9844L59.9688 55.7344L60.0312 52.5H65.0156H70V63.75V75H40H10V63.75V52.5H17.4844H24.9688L25.0312 55.7344ZM44.9062 57.6875C45.7656 57.9375 47.0625 59.2344 47.3125 60.0938C47.4375 60.5312 47.5 62.1094 47.5 64.9844V69.2344L47.1094 69.6094L46.7344 70H42.5H38.2656L37.8906 69.6094C37.5156 69.25 37.5 69.1562 37.5 67.1094V65H36.0156C34.6406 65 34.4844 64.9688 34.1406 64.6094C33.625 64.1094 33.625 63.3906 34.1406 62.8906C34.4844 62.5312 34.6406 62.5 36.0156 62.5H37.5V61.625C37.5 61.1406 37.5781 60.4531 37.6875 60.0938C37.9219 59.2969 39.2344 57.9531 40 57.7031C40.75 57.4688 44.1094 57.4531 44.9062 57.6875Z" fill="#1E2533"/>
<path d="M32.5 33.9531C31.7344 34.2031 30.4219 35.5469 30.1875 36.3437C29.75 37.8125 30.0625 38.9844 31.1719 40.0781C32.75 41.6719 34.75 41.6719 36.3281 40.0781C37.9219 38.5 37.9219 36.5 36.3281 34.9219C35.2344 33.8125 33.9531 33.5 32.5 33.9531ZM34.6094 36.6406C35.3906 37.4062 34.8438 38.75 33.75 38.75C33.1094 38.75 32.5 38.1406 32.5 37.5C32.5 36.8594 33.1094 36.25 33.75 36.25C34.0469 36.25 34.375 36.3906 34.6094 36.6406Z" fill="#FA7846"/>
<path d="M11.6406 46.6406C11.3906 46.875 11.25 47.2031 11.25 47.5C11.25 47.7969 11.3906 48.125 11.6406 48.3594C11.875 48.6094 12.2031 48.75 12.5 48.75C12.7969 48.75 13.125 48.6094 13.3594 48.3594C13.6094 48.125 13.75 47.7969 13.75 47.5C13.75 47.2031 13.6094 46.875 13.3594 46.6406C13.125 46.3906 12.7969 46.25 12.5 46.25C12.2031 46.25 11.875 46.3906 11.6406 46.6406Z" fill="#FA7846"/>
<path d="M15.3906 46.6406C15.1406 46.875 15 47.2031 15 47.5C15 47.7969 15.1406 48.125 15.3906 48.3594C15.625 48.6094 15.9531 48.75 16.25 48.75C16.5469 48.75 16.875 48.6094 17.1094 48.3594C17.3594 48.125 17.5 47.7969 17.5 47.5C17.5 47.2031 17.3594 46.875 17.1094 46.6406C16.875 46.3906 16.5469 46.25 16.25 46.25C15.9531 46.25 15.625 46.3906 15.3906 46.6406Z" fill="#FA7846"/>
<path d="M19.1406 46.6406C18.8906 46.875 18.75 47.2031 18.75 47.5C18.75 47.7969 18.8906 48.125 19.1406 48.3594C19.375 48.6094 19.7031 48.75 20 48.75C20.2969 48.75 20.625 48.6094 20.8594 48.3594C21.1094 48.125 21.25 47.7969 21.25 47.5C21.25 47.2031 21.1094 46.875 20.8594 46.6406C20.625 46.3906 20.2969 46.25 20 46.25C19.7031 46.25 19.375 46.3906 19.1406 46.6406Z" fill="#FA7846"/>
<path d="M34.7031 5.21875L33.875 6.0625L34.2656 6.59375C34.4844 6.875 34.7656 7.45312 34.8594 7.85938C35.0625 8.57812 35.0781 8.59375 35.7031 8.59375C36.0469 8.59375 36.5937 8.54688 36.9219 8.48438L37.5156 8.39062L37.4219 7.75C37.2344 6.64062 36.0469 4.375 35.6562 4.375C35.5937 4.375 35.1562 4.75 34.7031 5.21875Z" fill="#FA7846"/>
<path d="M2.5 10.625V12.5H3.75H5V10.625V8.75H3.75H2.5V10.625Z" fill="#FA7846"/>
<path d="M35 14.2188V16.0938H36.25H37.5V14.2188V12.3438H36.25H35V14.2188Z" fill="#FA7846"/>
<path d="M2.5 18.2031V20.1562H3.75H5V18.2031V16.25H3.75H2.5V18.2031Z" fill="#FA7846"/>
<path d="M35 21.7969V23.75H36.25H37.5V21.7969V19.8438H36.25H35V21.7969Z" fill="#FA7846"/>
<path d="M2.5 25.7812V27.6562H3.75H5V25.7812V23.9062H3.75H2.5V25.7812Z" fill="#FA7846"/>
<path d="M3.23438 31.5156L2.46875 31.5781L2.57813 32.2344C2.70313 33.0625 3.60938 34.9687 4.10938 35.4375L4.48438 35.7812L5.29688 34.8437L6.10938 33.9062L5.71875 33.3906C5.5 33.1094 5.23438 32.5469 5.14063 32.1406C4.92188 31.3281 5.0625 31.375 3.23438 31.5156Z" fill="#FA7846"/>
<path d="M8.75 36.25V37.5H10.625H12.5V36.25V35H10.625H8.75V36.25Z" fill="#FA7846"/>
<path d="M16.25 36.25V37.5H18.2031H20.1562V36.25V35H18.2031H16.25V36.25Z" fill="#FA7846"/>
</svg>
