<svg width="122" height="201" viewBox="0 0 122 201" fill="none" xmlns="http://www.w3.org/2000/svg">
<path d="M59.2 194.13C58.0931 192.556 57.9832 192.433 57.8164 192.163L38.9787 159.692C38.2971 158.55 37.1372 157.364 38.1737 156.54C39.1849 155.737 39.8417 157.597 40.5412 158.683L59.6239 190.383L69.2469 138.516C73.6305 104.099 69.6213 56.0517 48.381 26.2734C32.285 6.13723 28.8875 3.22909 30.8056 0.0411451C39.4623 2.56794 46.6779 12.7366 55.0264 22.2393C75.1486 50.6532 78.2211 104.629 71.2992 139.594L61.6825 190.968L91.4526 168.89C92.4649 168.028 94.9807 166.285 95.6977 167.398C96.4146 168.51 93.9988 170.082 92.9866 170.945C92.9653 170.963 92.9439 170.98 92.9224 170.997L60.976 194.815C60.226 195.433 59.7535 194.917 59.2 194.13Z" fill="#DE466D"/>
</svg>
