<svg width="320" height="280" viewBox="0 0 320 280" fill="none" xmlns="http://www.w3.org/2000/svg">
<path d="M42 207C44 203 44.1329 202.637 44.5 202L90 128C91.5796 125.357 92.744 121.647 95.5 123C98.1887 124.32 95.1354 127.659 93.6883 130.281L50 204.001L164.71 170.501C238.71 144.001 284.28 73.5244 252.5 9.00047C251.615 6.19107 250.448 2.96089 253.498 2.00023C256.549 1.03957 258.114 4.19094 258.999 7.00034C286.5 75.9996 242.499 154.345 164.71 176.001L51 209.001L127 249.5C129.809 250.761 135.983 254.312 134.5 257C133.017 259.688 127.292 256.173 124.483 254.912C124.424 254.885 124.366 254.858 124.309 254.83L42.5 211.501C40.4597 210.546 41 209 42 207Z" fill="#DE466D"/>
</svg>
