<svg width="20" height="20" viewBox="0 0 20 20" fill="none" xmlns="http://www.w3.org/2000/svg">
<path d="M10 0C4.47707 0 0 4.47723 0 10C0 15.5231 4.47707 20 10 20C15.5229 20 20 15.5231 20 10C20 4.47723 15.5229 0 10 0ZM10 15C9.30961 15 8.75 14.4406 8.75 13.75C8.75 13.0597 9.30961 12.5 10 12.5C10.6904 12.5 11.25 13.0597 11.25 13.75C11.25 14.4406 10.6904 15 10 15ZM11.25 10.625H8.75L8.125 5.625C8.125 5.27984 8.40484 5 8.75 5H11.25C11.5952 5 11.875 5.27984 11.875 5.625L11.25 10.625Z" fill="#DE466D"/>
</svg>
