<svg width="32" height="32" viewBox="0 0 32 32" fill="none" xmlns="http://www.w3.org/2000/svg">
<path d="M15.9999 25.39C16.7345 25.39 17.3299 24.7945 17.3299 24.06C17.3299 23.3254 16.7345 22.73 15.9999 22.73C15.2654 22.73 14.6699 23.3254 14.6699 24.06C14.6699 24.7945 15.2654 25.39 15.9999 25.39Z" fill="#DE466D"/>
<path d="M16 20.6099C15.7348 20.6099 15.4804 20.5045 15.2929 20.317C15.1054 20.1294 15 19.8751 15 19.6099V7.60986C15 7.34465 15.1054 7.09029 15.2929 6.90276C15.4804 6.71522 15.7348 6.60986 16 6.60986C16.2652 6.60986 16.5196 6.71522 16.7071 6.90276C16.8946 7.09029 17 7.34465 17 7.60986V19.6099C17 19.8751 16.8946 20.1294 16.7071 20.317C16.5196 20.5045 16.2652 20.6099 16 20.6099Z" fill="#DE466D"/>
<path d="M16 32C12.8355 32 9.74207 31.0616 7.11088 29.3035C4.4797 27.5454 2.42894 25.0466 1.21793 22.1229C0.0069325 19.1993 -0.309921 15.9823 0.307443 12.8786C0.924806 9.77487 2.44866 6.92394 4.6863 4.6863C6.92394 2.44866 9.77487 0.924806 12.8786 0.307443C15.9823 -0.309921 19.1993 0.0069325 22.1229 1.21793C25.0466 2.42894 27.5454 4.4797 29.3035 7.11088C31.0616 9.74207 32 12.8355 32 16C32 20.2435 30.3143 24.3131 27.3137 27.3137C24.3131 30.3143 20.2435 32 16 32ZM16 2.00001C13.2311 2.00001 10.5243 2.82109 8.22202 4.35943C5.91974 5.89777 4.12532 8.08427 3.06569 10.6424C2.00607 13.2006 1.72882 16.0155 2.26901 18.7313C2.80921 21.447 4.14258 23.9416 6.10051 25.8995C8.05845 27.8574 10.553 29.1908 13.2687 29.731C15.9845 30.2712 18.7994 29.9939 21.3576 28.9343C23.9157 27.8747 26.1022 26.0803 27.6406 23.778C29.1789 21.4757 30 18.7689 30 16C30 12.287 28.525 8.72602 25.8995 6.10051C23.274 3.475 19.713 2.00001 16 2.00001Z" fill="#DE466D"/>
</svg>
