<svg width="188" height="24" viewBox="0 0 188 24" fill="none" xmlns="http://www.w3.org/2000/svg">
<path d="M9.00885 10.4033H5.16529V20.4138H4.10186V10.4033H0.258301V9.44556H9.00885V10.4033ZM22.1704 9.44556V20.4138H21.1221V15.285H14.7264V20.4138H13.6629V9.44556H14.7264V14.3272H21.1221V9.44556H22.1704ZM35.1636 19.456V20.4138H27.9171V9.44556H35.0269V10.4033H28.9805V14.3581H34.2521V15.2696H28.9805V19.456H35.1636Z" fill="white"/>
<path d="M78.126 20.4138V9.44556H82.6835C83.1493 9.44556 83.5747 9.5434 83.9597 9.73907C84.3547 9.93474 84.694 10.2025 84.9775 10.5424C85.261 10.872 85.4789 11.2427 85.6308 11.6547C85.7927 12.0563 85.8739 12.4683 85.8739 12.8905C85.8739 13.4261 85.7727 13.9256 85.57 14.389C85.3777 14.8525 85.0991 15.2438 84.7345 15.5631C84.3698 15.8823 83.9496 16.0883 83.4735 16.181L86.1169 20.4138H84.9168L82.3797 16.3664H79.1894V20.4138H78.126ZM79.1894 15.4086H82.7139C83.1393 15.4086 83.5091 15.2902 83.8229 15.0533C84.1368 14.8061 84.3799 14.492 84.5522 14.1109C84.7244 13.7299 84.8104 13.3231 84.8104 12.8905C84.8104 12.4477 84.7092 12.0409 84.5066 11.6701C84.3142 11.2891 84.0508 10.9852 83.7166 10.7587C83.3824 10.5218 83.0178 10.4033 82.6228 10.4033H79.1894V15.4086ZM98.6424 10.4033H94.7988V20.4138H93.7354V10.4033H89.8918V9.44556H98.6424V10.4033Z" fill="white"/>
<path d="M116.381 20.4912C115.622 20.4912 114.933 20.3367 114.315 20.0277C113.697 19.7085 113.166 19.2862 112.72 18.761C112.274 18.2357 111.93 17.6435 111.687 16.9844C111.444 16.315 111.322 15.6301 111.322 14.9298C111.322 14.1986 111.449 13.5034 111.702 12.8443C111.955 12.1748 112.31 11.5827 112.766 11.0677C113.231 10.5425 113.773 10.1305 114.391 9.83186C115.009 9.52289 115.677 9.36841 116.396 9.36841C117.146 9.36841 117.83 9.52805 118.447 9.8473C119.065 10.1666 119.597 10.594 120.042 11.1295C120.498 11.665 120.842 12.2624 121.076 12.9215C121.319 13.5806 121.44 14.2552 121.44 14.9452C121.44 15.6765 121.313 16.3768 121.06 17.0462C120.807 17.7053 120.453 18.2975 119.997 18.8228C119.541 19.3377 119.004 19.7445 118.387 20.0432C117.769 20.3418 117.1 20.4912 116.381 20.4912ZM112.386 14.9298C112.386 15.5271 112.482 16.0987 112.674 16.6445C112.867 17.1904 113.14 17.6796 113.495 18.1121C113.849 18.5447 114.27 18.8897 114.756 19.1472C115.252 19.3943 115.794 19.5179 116.381 19.5179C116.999 19.5179 117.551 19.3892 118.037 19.1317C118.533 18.8639 118.954 18.5086 119.298 18.0658C119.653 17.6229 119.921 17.1337 120.103 16.5982C120.286 16.0524 120.377 15.4962 120.377 14.9298C120.377 14.3325 120.28 13.7609 120.088 13.215C119.896 12.6692 119.617 12.18 119.252 11.7474C118.898 11.3149 118.478 10.975 117.992 10.7279C117.505 10.4807 116.969 10.3571 116.381 10.3571C115.774 10.3571 115.221 10.4858 114.725 10.7433C114.239 11.0008 113.819 11.3509 113.464 11.7938C113.12 12.2263 112.852 12.7155 112.659 13.2614C112.477 13.8072 112.386 14.3634 112.386 14.9298ZM126.484 20.4139V9.44565H133.563V10.4034H127.547V14.4354H132.621V15.3314H127.547V20.4139H126.484Z" fill="white"/>
<path d="M150.816 9.5228H151.819L153.338 13.4158L154.872 9.5228H155.89L154.006 14.2036L156.072 19.1625L159.977 9.44556H161.131L156.558 20.4138H155.617L153.353 14.9915L151.074 20.4138H150.147L145.59 9.44556H146.729L150.649 19.1625L152.7 14.2036L150.816 9.5228ZM172.934 19.456V20.4138H165.687V9.44556H172.797V10.4033H166.751V14.3581H172.022V15.2696H166.751V19.456H172.934ZM186.096 17.5868C186.096 18.1326 185.959 18.6218 185.685 19.0544C185.412 19.4766 185.042 19.8113 184.576 20.0585C184.121 20.2954 183.619 20.4138 183.072 20.4138H177.983V9.44556H183.179C183.685 9.44556 184.121 9.58459 184.485 9.86266C184.85 10.1304 185.134 10.4806 185.336 10.9131C185.539 11.3354 185.64 11.7782 185.64 12.2417C185.64 12.7875 185.503 13.2922 185.23 13.7556C184.956 14.2191 184.576 14.5641 184.09 14.7907C184.698 14.976 185.184 15.3211 185.549 15.8257C185.913 16.3303 186.096 16.9174 186.096 17.5868ZM179.047 10.3879V14.4353H182.753C183.108 14.4353 183.422 14.3427 183.695 14.1573C183.979 13.9616 184.197 13.7144 184.349 13.4158C184.511 13.1068 184.592 12.7721 184.592 12.4116C184.592 12.0409 184.516 11.701 184.364 11.392C184.212 11.0831 184.004 10.8411 183.741 10.666C183.478 10.4806 183.179 10.3879 182.845 10.3879H179.047ZM185.032 17.4014C185.032 17.041 184.951 16.7011 184.789 16.3818C184.627 16.0626 184.404 15.8051 184.121 15.6094C183.847 15.4137 183.533 15.3159 183.179 15.3159H179.047V19.4715H183.072C183.437 19.4715 183.766 19.3736 184.06 19.178C184.354 18.9823 184.587 18.73 184.759 18.421C184.941 18.1018 185.032 17.7619 185.032 17.4014Z" fill="white"/>
<path d="M73.0317 20.5129L70.4353 20.5128L67.0347 16.1239H67.0594H67.0632L67.0608 16.1208L60.3402 7.35037L60.3386 7.34853L60.3373 7.35037L53.6167 16.1208L53.6143 16.1239H53.6181H62.9912L66.3918 20.5128H47.8091L60.4205 0.114746L73.0317 20.5129Z" fill="url(#paint0_linear)"/>
<path d="M72.9687 20.3997L60.3608 0.00699619L47.7529 20.3997H66.3282L62.9307 16.0145H53.5584H53.551L53.5556 16.0083L60.2762 7.23793L60.2792 7.23424L60.2819 7.23793L67.0024 16.0083L67.0073 16.0145H66.9997H66.9788L70.3764 20.3997H72.9687ZM72.9755 20.4035L70.3747 20.4035L66.9712 16.0107H66.9997L60.2792 7.2403L53.5584 16.0107H62.9323L66.3358 20.4035H47.7461L60.3608 0L72.9755 20.4035V20.4035Z" fill="#707070"/>
<path d="M72.9687 20.3997L60.3608 0.00699619L47.7529 20.3997H66.3282L62.9307 16.0145H53.5584H53.551L53.5556 16.0083L60.2762 7.23793L60.2792 7.23424L60.2819 7.23793L67.0024 16.0083L67.0073 16.0145H66.9997H66.9788L70.3764 20.3997H72.9687ZM72.9755 20.4035L70.3747 20.4035L66.9712 16.0107H66.9997L60.2792 7.2403L53.5584 16.0107H62.9323L66.3358 20.4035H47.7461L60.3608 0L72.9755 20.4035V20.4035Z" fill="#707070"/>
<defs>
<linearGradient id="paint0_linear" x1="68.6432" y1="21.6347" x2="63.0549" y2="1.85888" gradientUnits="userSpaceOnUse">
<stop stop-color="#244AFC"/>
<stop offset="0.221" stop-color="#244AFC"/>
<stop offset="0.561" stop-color="#763A65"/>
<stop offset="0.798" stop-color="#DE466D"/>
<stop offset="1" stop-color="#DA6251"/>
</linearGradient>
</defs>
</svg>
