<svg width="121" height="121" viewBox="0 0 121 121" fill="none" xmlns="http://www.w3.org/2000/svg">
<circle cx="60" cy="60" r="60" fill="white"/>
<path fill-rule="evenodd" clip-rule="evenodd" d="M60.7549 1.5C93.4743 1.5 120 28.0257 120 60.7549C120 93.4743 93.4743 120 60.7549 120C28.0257 120 1.5 93.4743 1.5 60.7549C1.5 28.0257 28.0257 1.5 60.7549 1.5Z" stroke="black" stroke-width="0.200003"/>
<circle cx="59.625" cy="59.625" r="36.375" fill="#416783"/>
<path d="M94.6299 53.895C91.2732 55.8057 87.9092 56.9652 79.6451 55.5422C71.381 54.1192 62.3026 46.0327 62.1786 33.1703C62.8597 26.0259 63.2492 27.5249 63.9738 24.8882C86.1376 28.8069 93.7858 44.1357 94.6299 53.895Z" fill="white"/>
<path fill-rule="evenodd" clip-rule="evenodd" d="M60.0049 0C93.1425 0 120 26.8673 120 60.0049C120 93.1425 93.1425 120 60.0049 120C26.8673 120 0 93.1425 0 60.0049C0 26.8673 26.8673 0 60.0049 0ZM60.0049 2.40412C91.8178 2.40412 117.606 28.192 117.606 60.0049C117.606 91.8178 91.8178 117.606 60.0049 117.606C28.192 117.606 2.40412 91.8178 2.40412 60.0049C2.40412 28.192 28.192 2.40412 60.0049 2.40412Z" fill="#37474F"/>
<path fill-rule="evenodd" clip-rule="evenodd" d="M60.0046 18.3988C82.9762 18.3988 101.601 37.0234 101.601 60.0048C101.601 63.4197 101.189 66.7364 100.413 69.9059L110.805 74.4296C112.1 69.847 112.797 65.0093 112.797 60.0048C112.797 30.8414 89.1582 7.20246 60.0046 7.20246C30.8411 7.20246 7.20222 30.8414 7.20222 60.0048C7.20222 65.0289 7.89892 69.8863 9.21383 74.4884L19.6055 69.9648C18.8205 66.7756 18.3986 63.4393 18.3986 60.0048C18.3986 37.0234 37.0231 18.3988 60.0046 18.3988ZM101.297 72.7123C99.5696 78.3448 96.714 83.4769 93.0048 87.873L91.9941 86.5875L92.0039 86.5777L91.2287 85.6259L90.4633 84.6741C83.2706 93.535 72.2999 99.1969 60.0046 99.1969C47.7387 99.1969 36.7974 93.5742 29.6145 84.7624L28.0739 86.666L27.0436 87.9319C23.3147 83.526 20.4396 78.3645 18.7028 72.7123L16.4949 73.6838C18.3789 79.699 21.4798 85.1745 25.503 89.8257L23.4619 92.3476C19.0462 87.3627 15.6412 81.4751 13.5511 74.9889L11.3432 75.9603C13.5805 82.7998 17.2308 89.0015 21.9311 94.2317L20.9106 95.4975L19.3798 97.3816C29.4673 108.333 43.9313 115.201 60.0046 115.201C76.1073 115.201 90.6007 108.303 100.698 97.2932L99.1672 95.4092L99.0691 95.5171L97.3126 93.3093L98.0682 94.2317C102.778 89.0015 106.419 82.7998 108.666 75.9603L106.458 74.9889C104.368 81.4653 100.953 87.3529 96.5472 92.3378L94.5258 89.7865C98.5392 85.1451 101.63 79.6794 103.514 73.6838L101.297 72.7123ZM99.8443 72.0058L98.9612 71.6133L97.6266 71.0245C98.6472 67.5312 99.1967 63.8318 99.1967 60.0048C99.1967 38.3481 81.6515 20.8029 60.0046 20.8029C38.3479 20.8029 20.8027 38.3481 20.8027 60.0048C20.8027 63.8514 21.3522 67.5704 22.3923 71.0834L21.2835 71.574L20.1747 72.0549L9.87128 76.608L8.97832 77.0005L7.66342 77.5794C5.80881 72.0647 4.7981 66.1476 4.7981 60.0048C4.7981 29.5166 29.5164 4.79834 60.0046 4.79834C90.483 4.79834 115.201 29.5166 115.201 60.0048C115.201 66.128 114.2 72.0254 112.356 77.5304L111.266 77.0496L99.8443 72.0058ZM90.5516 88.2361L97.5383 97.1362C87.9611 106.812 74.6844 112.797 60.0046 112.797C45.3051 112.797 32.0088 106.802 22.4414 97.1068L29.5164 88.3048C37.1115 96.4788 47.9545 101.601 60.0046 101.601C72.0742 101.601 82.9566 96.4493 90.5516 88.2361Z" fill="#37474F"/>
<path fill-rule="evenodd" clip-rule="evenodd" d="M60.0053 23.8252C79.984 23.8252 96.175 40.026 96.175 60.0048C96.175 79.9835 79.984 96.1745 60.0053 96.1745C40.0265 96.1745 23.8257 79.9835 23.8257 60.0048C23.8257 40.026 40.0265 23.8252 60.0053 23.8252Z" stroke="black" stroke-width="0.200003"/>
<path fill-rule="evenodd" clip-rule="evenodd" d="M48.6519 36.5623H49.6724V29.9584L51.9784 28.0056H53.7937H55.6189L57.9249 29.9584V36.5623H58.9454V39.5061H57.9249H55.089V36.5623V33.9129H52.5083V36.5623V39.5061H49.6724H48.6519V36.5623ZM52.5083 29.9584V32.3723H55.089V29.9584H53.7937H52.5083Z" fill="white"/>
<path fill-rule="evenodd" clip-rule="evenodd" d="M69.2389 55.6382H72.0355H74.5574L76.4905 57.3849V60.2698L75.4503 61.0352L76.4611 61.8006V64.8327L74.5574 66.6284H72.0355H69.2389H68.1987V63.9692H69.2389V58.2876H68.1987V55.6382H69.2389ZM73.8312 58.2876H72.0355V60.1422H73.8312V58.2876ZM73.8312 62.0557H72.0355V63.9692H73.8312V62.0557Z" fill="white"/>
<path fill-rule="evenodd" clip-rule="evenodd" d="M89.6005 65.5784H86.8235V64.1752H84.7922V69.6998H86.8235V68.3063H89.6005V72.3296H88.5996H86.8235H83.6736L81.8975 70.7595V63.3117L83.6736 61.5552H86.8235H88.5996H89.6005V65.5784Z" fill="white"/>
<path fill-rule="evenodd" clip-rule="evenodd" d="M68.4541 75.6267H75.3721L77.2169 77.707V84.8409L75.3721 86.6562H68.4541V83.8596H69.298V78.4233H68.4541V75.6267ZM74.7637 78.4233H72.2418V83.8596H74.7637V78.4233Z" fill="white"/>
<path fill-rule="evenodd" clip-rule="evenodd" d="M52.4297 81.387H60.7313V82.7509V84.1149V85.4887H58.0426V84.1149H56.2665V85.9008H58.1014V87.7162H56.2665V89.6591H58.0426V88.4423H60.7313V89.6591V91.1899V92.3968H52.4297V89.6591H53.4011V84.1149H52.4297V81.387Z" fill="white"/>
<path fill-rule="evenodd" clip-rule="evenodd" d="M60.005 22.4026C80.7688 22.4026 97.5976 39.2314 97.5976 60.005C97.5976 80.7688 80.7688 97.5976 60.005 97.5976C39.2314 97.5976 22.4026 80.7688 22.4026 60.005C22.4026 39.2314 39.2314 22.4026 60.005 22.4026ZM55.8935 79.5226C52.2333 77.6778 48.6419 77.6287 45.1191 79.5029C48.7204 78.7375 52.3118 78.7375 55.8935 79.5226ZM62.9292 78.139L62.2619 77.874V44.8443L62.9292 45.07V78.139ZM61.2905 79.081C54.7748 76.8044 48.2984 76.3432 41.8907 78.5315C37.6221 76.9418 33.5597 76.7554 29.7425 77.9918C29.6346 77.8151 29.5365 77.6483 29.4383 77.4815C33.5695 76.3432 37.7105 76.3236 41.8907 77.8936C48.3573 75.4895 54.8239 75.8624 61.2905 79.081ZM30.3607 78.9927C33.7952 77.5011 36.6998 78.0703 39.4081 79.4637C36.1306 78.7572 33.1181 78.5805 30.606 79.3754C30.5275 79.2478 30.4392 79.1202 30.3607 78.9927ZM30.9789 79.9249C41.9496 79.9249 52.9202 79.9249 63.8909 79.9249C63.8909 67.973 63.8909 56.021 63.8909 44.0691C63.5768 43.9514 63.253 43.8336 62.9292 43.7159C60.947 43.1565 58.8471 42.8622 56.6687 42.8622C50.7614 42.8622 45.4135 45.0602 41.4982 48.6222C38.2109 45.6392 33.9227 43.6079 29.1538 43.029C35.1493 32.1663 46.7087 24.7969 60.005 24.7969C79.444 24.7969 95.2033 40.5562 95.2033 60.005C95.2033 79.444 79.444 95.2033 60.005 95.2033C47.955 95.2033 37.3278 89.1587 30.9789 79.9249ZM28.7514 76.2157C33.0494 74.8909 37.4259 74.8517 41.8907 76.5199C48.1414 74.361 54.608 74.5573 61.3101 77.4717V44.6186C61.1138 44.5696 60.9078 44.5303 60.7115 44.4911V76.5002C55.0496 73.6251 48.3377 73.4485 41.8907 75.8231C37.3768 74.155 32.8728 73.998 28.3589 75.4306C28.4865 75.6956 28.6141 75.9507 28.7514 76.2157ZM28.5257 44.2261C33.1868 44.6971 37.3768 46.6302 40.5562 49.525L41.4982 50.4278C45.2368 46.5517 50.6437 44.1182 56.6687 44.1182C57.6205 44.1182 58.5625 44.1771 59.4849 44.2948V74.4199C53.3323 71.9766 47.4349 72.2219 41.9103 74.626C37.0726 72.7812 32.4508 72.7518 27.8487 74.3414C25.8861 69.9649 24.7969 65.1076 24.7969 60.005C24.7969 54.137 26.2296 48.6222 28.7711 43.7551C28.6827 43.9121 28.6042 44.0691 28.5257 44.2261Z" fill="#37474F"/>
<path fill-rule="evenodd" clip-rule="evenodd" d="M94.6442 53.7347C91.6808 55.187 88.3542 56.0014 84.8315 56.0014C72.4674 56.0014 62.4584 45.9826 62.4584 33.6284C62.4584 30.5864 63.057 27.6917 64.156 25.0422C63.8126 25.003 63.4691 24.9735 63.1257 24.9441C62.0463 27.623 61.4575 30.557 61.4575 33.6284C61.4575 46.5321 71.9179 56.9925 84.8315 56.9925C88.4033 56.9925 91.7887 56.1977 94.811 54.7552C94.762 54.4117 94.7031 54.0781 94.6442 53.7347Z" fill="white"/>
<path fill-rule="evenodd" clip-rule="evenodd" d="M28.5254 44.2261C33.1865 44.6972 37.3765 46.6303 40.5558 49.525L41.4979 50.4278C45.2365 46.5518 50.6433 44.1182 56.6684 44.1182C57.6202 44.1182 58.5622 44.1771 59.4846 44.2948V74.4199C53.332 71.9766 47.4346 72.2219 41.91 74.626C37.0723 72.7812 32.4505 72.7518 27.8483 74.3414C25.8956 69.965 24.8064 65.1077 24.8064 60.005C24.8064 54.137 26.2391 48.6222 28.7707 43.7551C28.6824 43.9121 28.6039 44.0691 28.5254 44.2261ZM28.7511 76.2157C33.0491 74.8811 37.4256 74.8517 41.8904 76.5199C48.1509 74.3513 54.6077 74.5573 61.3098 77.4717V44.6186C61.1135 44.5696 60.9173 44.5303 60.7112 44.4911V76.5002C55.0493 73.6251 48.3373 73.4485 41.8904 75.8232C37.3863 74.155 32.8725 73.998 28.3586 75.4307C28.4862 75.6956 28.6236 75.9507 28.7511 76.2157ZM30.3604 78.9829C33.7949 77.5011 36.7093 78.0703 39.4078 79.4637C36.1303 78.7572 33.1178 78.5805 30.6057 79.3754C30.5272 79.2478 30.4389 79.1202 30.3604 78.9829ZM61.2902 79.081C54.7745 76.8044 48.2981 76.3432 41.8904 78.5315C37.6218 76.9418 33.5692 76.7456 29.7422 77.982C29.6441 77.8152 29.5361 77.6483 29.438 77.4717C33.5692 76.3432 37.7102 76.3236 41.8904 77.8937C48.357 75.4895 54.8236 75.8624 61.2902 79.081ZM62.9387 78.139L62.2616 77.874V44.8443L62.9387 45.07V78.139ZM55.8932 79.5226C52.233 77.6778 48.6415 77.6287 45.1188 79.5029C48.7299 78.7375 52.3213 78.7375 55.8932 79.5226Z" fill="white"/>
<path d="M24.728 96.0177L28.7709 91.7786L31.6951 94.5556L31.0082 95.2719L28.9475 93.3094L27.9859 94.3201L29.7718 96.0177L29.0849 96.734L27.3088 95.0364L25.5817 96.842L24.728 96.0177ZM29.8699 96.891C30.2232 96.4102 30.5862 96.0471 30.9689 95.8214C31.2437 95.6546 31.5479 95.5369 31.8815 95.478C32.2053 95.4191 32.5095 95.4191 32.8039 95.4878C33.1866 95.5761 33.5791 95.7527 33.9716 96.0373C34.6781 96.5378 35.0805 97.156 35.1982 97.8919C35.3062 98.6377 35.0805 99.3933 34.531 100.168C33.9814 100.944 33.3436 101.405 32.6077 101.542C31.8815 101.68 31.1652 101.503 30.4587 101.003C29.7423 100.492 29.3302 99.8741 29.2223 99.1381C29.1143 98.4022 29.3302 97.6564 29.8699 96.891ZM30.8904 97.5681C30.5077 98.1078 30.3409 98.6083 30.39 99.0695C30.439 99.5306 30.6549 99.8937 31.0474 100.168C31.4301 100.443 31.8423 100.532 32.2936 100.433C32.7352 100.325 33.1572 100.002 33.5497 99.4423C33.9422 98.8928 34.109 98.4022 34.0599 97.9606C34.0109 97.519 33.795 97.156 33.3927 96.8714C32.9904 96.5868 32.5782 96.4985 32.1366 96.5966C31.6951 96.6948 31.2829 97.0186 30.8904 97.5681ZM33.6478 103.044L36.5818 97.9508L37.5729 98.5297L37.7103 103.142L39.663 99.7269L40.6247 100.276L37.6907 105.359L36.6701 104.771L36.5229 100.247L34.5996 103.583L33.6478 103.044ZM41.027 100.453L43.0386 101.248C43.49 101.425 43.8236 101.591 44.0297 101.758C44.3143 101.974 44.5203 102.249 44.6577 102.582C44.7853 102.916 44.8441 103.279 44.8245 103.672C44.8049 104.074 44.697 104.525 44.4909 105.036C44.3143 105.487 44.1082 105.85 43.8727 106.135C43.5783 106.478 43.2545 106.723 42.9012 106.861C42.6363 106.979 42.3223 107.018 41.9592 106.998C41.6844 106.979 41.3508 106.89 40.9387 106.723L38.8682 105.909L41.027 100.453ZM41.7629 101.807L40.3401 105.428L41.1644 105.752C41.4686 105.87 41.6943 105.938 41.8414 105.958C42.0377 105.987 42.2143 105.968 42.3811 105.909C42.5382 105.84 42.705 105.703 42.8718 105.497C43.0484 105.281 43.2152 104.957 43.382 104.535C43.5489 104.113 43.6372 103.78 43.647 103.524C43.6666 103.269 43.6274 103.053 43.5489 102.867C43.4605 102.69 43.333 102.533 43.1367 102.416C42.9993 102.317 42.705 102.18 42.2634 102.003L41.7629 101.807ZM49.4856 109.432L48.259 109.078L48.1314 107.656L45.8647 107.018L45.0306 108.166L43.8236 107.822L47.6211 102.798L48.8281 103.142L49.4856 109.432ZM48.0333 106.596L47.837 104.29L46.4829 106.154L48.0333 106.596ZM50.8594 109.549L51.7229 104.751L50.0056 104.447L50.1823 103.475L54.7648 104.29L54.5882 105.271L52.8906 104.957L52.0271 109.765L50.8594 109.549ZM54.4508 110.158L54.9022 104.309L56.0797 104.398L55.6382 110.246L54.4508 110.158ZM56.5998 107.391C56.6194 106.792 56.7176 106.292 56.904 105.889C57.0512 105.595 57.2376 105.33 57.4731 105.104C57.7086 104.869 57.9638 104.702 58.2483 104.594C58.6114 104.447 59.0432 104.378 59.5142 104.388C60.3875 104.408 61.0646 104.702 61.5749 105.251C62.0753 105.801 62.3206 106.557 62.2912 107.508C62.2716 108.46 61.9968 109.196 61.4669 109.716C60.937 110.246 60.2403 110.491 59.3768 110.472C58.5035 110.452 57.8166 110.168 57.3161 109.618C56.8157 109.069 56.5802 108.333 56.5998 107.391ZM57.8264 107.381C57.8068 108.048 57.9442 108.558 58.2483 108.912C58.5427 109.265 58.9352 109.442 59.4062 109.451C59.8773 109.461 60.2698 109.304 60.5838 108.971C60.8978 108.637 61.0548 108.136 61.0744 107.45C61.094 106.772 60.9567 106.272 60.6721 105.929C60.3875 105.595 59.995 105.418 59.5044 105.408C59.0137 105.389 58.6212 105.556 58.3072 105.879C58.003 106.203 57.8362 106.704 57.8264 107.381ZM63.1449 110.374L62.4089 104.545L63.5472 104.408L66.4322 107.999L65.9415 104.103L67.0307 103.956L67.7667 109.785L66.5892 109.932L63.7435 106.409L64.2341 110.236L63.1449 110.374ZM71.2208 109.226L69.6213 103.573L71.3385 103.093L73.4385 106.655L73.3502 102.514L75.0576 102.033L76.6669 107.675L75.6071 107.979L74.3412 103.534L74.4884 108.293L73.3894 108.607L71.0245 104.476L72.2806 108.921L71.2208 109.226ZM75.3716 101.905L77.5108 100.934C77.9425 100.738 78.2565 100.62 78.4822 100.561C78.7079 100.502 78.9238 100.492 79.1397 100.522C79.3555 100.561 79.5616 100.649 79.7579 100.787C79.9443 100.924 80.1013 101.111 80.1994 101.336C80.3172 101.582 80.3466 101.846 80.3074 102.111C80.2681 102.386 80.1602 102.622 79.9738 102.828C80.3466 102.779 80.6705 102.828 80.9452 102.975C81.22 103.132 81.4358 103.358 81.5732 103.672C81.6812 103.917 81.7302 104.172 81.7204 104.457C81.7106 104.741 81.6419 104.996 81.5045 105.222C81.377 105.448 81.1709 105.634 80.8961 105.801C80.7293 105.899 80.2976 106.105 79.6107 106.429L77.7953 107.253L75.3716 101.905ZM76.8631 102.298L77.4126 103.534L78.1191 103.21C78.5411 103.024 78.806 102.896 78.8944 102.838C79.071 102.739 79.1887 102.602 79.2476 102.455C79.3065 102.298 79.2967 102.141 79.2182 101.964C79.1397 101.797 79.0415 101.689 78.9042 101.621C78.757 101.562 78.6 101.562 78.4135 101.621C78.2958 101.66 77.9818 101.788 77.4813 102.023L76.8631 102.298ZM77.8149 104.417L78.4626 105.86L79.4635 105.399C79.856 105.232 80.1013 105.104 80.1896 105.036C80.3368 104.937 80.435 104.8 80.484 104.643C80.5429 104.486 80.5233 104.309 80.435 104.123C80.3663 103.956 80.2583 103.838 80.1308 103.76C80.0032 103.691 79.856 103.652 79.6892 103.672C79.5126 103.681 79.1789 103.809 78.6883 104.025L77.8149 104.417ZM83.1923 104.741L80.2681 99.6484L84.0362 97.4798L84.5269 98.3433L81.7891 99.9133L82.4466 101.052L84.9881 99.5797L85.4787 100.443L82.9372 101.905L83.732 103.289L86.5679 101.66L87.0585 102.514L83.1923 104.741ZM87.9221 101.886L84.5465 97.1363L85.5179 96.4494L88.3146 100.384L90.7089 98.6769L91.2878 99.4914L87.9221 101.886ZM91.8766 98.9026L88.0398 94.4673L91.3173 91.6216L91.9649 92.3772L89.5804 94.4378L90.4341 95.4289L92.6518 93.5056L93.3093 94.2514L91.0916 96.1747L92.1317 97.3817L94.6045 95.2327L95.2522 95.9883L91.8766 98.9026Z" fill="black"/>
<path d="M17.6822 68.6008L10.8231 69.8274L10.568 68.4242L16.2692 67.4135L15.6412 63.9398L16.8187 63.7337L17.6822 68.6008ZM16.8579 61.781L13.9043 61.8497L9.9007 64.5286L9.85164 62.8702L12.5992 61.1334L9.77314 59.5928L9.73389 57.954L13.8749 60.4268L16.8187 60.3582L16.8579 61.781ZM14.6893 52.2626L15.2781 50.9575C16.014 51.2617 16.5439 51.6837 16.8579 52.2136C17.1621 52.7533 17.2701 53.3911 17.1818 54.1369C17.064 55.0691 16.6519 55.7854 15.9355 56.3055C15.229 56.8158 14.3262 57.012 13.2272 56.8648C12.0693 56.7176 11.2058 56.3055 10.6367 55.6284C10.0675 54.9415 9.85164 54.1172 9.96939 53.136C10.0773 52.2823 10.4208 51.6248 10.9899 51.1538C11.3334 50.879 11.7946 50.6926 12.3735 50.6043L12.5305 52.0369C12.1576 52.0762 11.8436 52.2136 11.6081 52.4491C11.3628 52.6846 11.2156 52.9888 11.1665 53.3617C11.1077 53.8817 11.2352 54.3233 11.5689 54.6962C11.8927 55.0593 12.4815 55.2948 13.3057 55.4027C14.1889 55.5205 14.8365 55.442 15.2486 55.1672C15.6608 54.9023 15.9061 54.5098 15.965 53.9995C16.014 53.6266 15.9355 53.2832 15.7393 52.9888C15.5332 52.6846 15.18 52.4491 14.6893 52.2626ZM17.7018 50.0057L10.9409 48.0824L12.3637 43.0779L13.502 43.4017L12.4716 47.0423L13.973 47.4642L14.9346 44.0886L16.0729 44.4124L15.1113 47.788L16.9463 48.3081L18.0158 44.54L19.1541 44.8638L17.7018 50.0057ZM19.6349 43.755L13.2272 40.8602L15.3762 36.1207L16.4556 36.6113L14.8954 40.0556L16.3182 40.6934L17.7705 37.4945L18.8499 37.9851L17.4074 41.1841L19.1443 41.9691L20.7536 38.3972L21.833 38.8879L19.6349 43.755ZM23.8544 35.5025L18.3298 31.1554L19.7331 29.3695C20.263 28.6924 20.6457 28.2705 20.8615 28.1037C21.1952 27.8584 21.5779 27.7308 22.0292 27.7406C22.4708 27.7406 22.9124 27.9172 23.354 28.2607C23.6974 28.5354 23.9329 28.82 24.0605 29.1242C24.1979 29.4284 24.2567 29.7228 24.2469 30.0172C24.2273 30.3115 24.1586 30.5765 24.0507 30.8022C23.8937 31.1064 23.6189 31.5185 23.2264 32.019L22.6475 32.7451L24.7376 34.3838L23.8544 35.5025ZM20.1452 30.7727L21.7152 32.0091L22.1961 31.4008C22.5395 30.9592 22.7358 30.6452 22.7946 30.4587C22.8535 30.2625 22.8535 30.076 22.7946 29.8896C22.7456 29.713 22.6278 29.556 22.4708 29.4284C22.2648 29.2714 22.0489 29.2027 21.833 29.2125C21.6073 29.2321 21.411 29.3106 21.2344 29.4676C21.097 29.5756 20.8812 29.8307 20.5672 30.233L20.1452 30.7727ZM27.8286 30.3704L22.9811 25.2776L25.1399 23.2169C25.6894 22.6969 26.1212 22.3632 26.4548 22.2258C26.7982 22.0787 27.1417 22.059 27.5146 22.1473C27.8875 22.2357 28.2113 22.4319 28.5057 22.7361C28.8687 23.1188 29.0552 23.5407 29.065 24.0019C29.0846 24.4631 28.8982 24.9342 28.5155 25.4248C28.8589 25.3463 29.1729 25.3169 29.4673 25.3365C29.7617 25.3463 30.2131 25.4444 30.8411 25.6014L32.4013 26.0037L31.1747 27.1715L29.379 26.7691C28.7412 26.622 28.3192 26.5434 28.123 26.5434C27.9365 26.5336 27.7599 26.5533 27.6127 26.622C27.4753 26.6906 27.2791 26.8378 27.0436 27.0635L26.8375 27.2598L28.8589 29.3891L27.8286 30.3704ZM26.0623 26.4551L26.8179 25.729C27.3183 25.258 27.6029 24.944 27.6814 24.787C27.7697 24.63 27.7991 24.4631 27.7697 24.2963C27.7403 24.1197 27.6519 23.9627 27.5048 23.8155C27.3478 23.6389 27.1613 23.5506 26.9749 23.5309C26.7786 23.5113 26.5922 23.5604 26.3959 23.6978C26.2978 23.7664 26.0427 23.9921 25.6305 24.3945L24.8259 25.1599L26.0623 26.4551ZM33.0588 25.6407L28.7215 20.1161L29.8402 19.233L34.1774 24.7575L33.0588 25.6407ZM36.7876 22.9225L30.8803 18.3694L32.1756 17.5354L36.4834 20.9502L35.1194 15.6513L36.3951 14.827L38.0829 22.0983L36.7876 22.9225ZM40.909 20.489L38.3282 13.9439L43.1659 12.0402L43.6075 13.1392L40.0945 14.5327L40.6636 15.9849L43.9313 14.6897L44.363 15.7985L41.0954 17.084L41.7921 18.8601L45.4424 17.4176L45.8742 18.5264L40.909 20.489ZM48.3961 10.4604L50.9474 10.009C51.5263 9.91085 51.9679 9.8716 52.2819 9.90104C52.7137 9.95011 53.0964 10.1071 53.4398 10.3622C53.7833 10.6076 54.0678 10.9412 54.3033 11.3631C54.529 11.7753 54.7057 12.3052 54.8136 12.9528C54.9216 13.5219 54.9314 14.0322 54.8627 14.464C54.7842 15.0037 54.6075 15.4551 54.3426 15.8181C54.1463 16.1027 53.852 16.3382 53.4693 16.5443C53.1749 16.7013 52.7726 16.819 52.2623 16.9172L49.6325 17.3882L48.3961 10.4604ZM50.0054 11.3828L50.8296 15.9653L51.8698 15.7789C52.2525 15.7102 52.5272 15.6415 52.6941 15.563C52.9099 15.4649 53.0768 15.3373 53.2043 15.1705C53.3319 15.0135 53.4104 14.7682 53.4496 14.4443C53.4889 14.1107 53.4595 13.6789 53.3613 13.1491C53.273 12.6094 53.1553 12.2168 53.0081 11.9421C52.8609 11.6771 52.6842 11.4711 52.488 11.3435C52.2917 11.2159 52.0562 11.1473 51.7913 11.1374C51.5852 11.1276 51.2025 11.1669 50.6334 11.2748L50.0054 11.3828ZM56.6388 16.3088L56.4622 9.28284L61.6629 9.15527L61.6923 10.3426L57.9144 10.4407L57.9537 12.001L61.4667 11.9127L61.4961 13.1L57.9831 13.1883L58.0322 15.092L61.9475 14.9939L61.9769 16.1812L56.6388 16.3088ZM65.902 16.5541L67.1384 9.6361L68.4926 9.88142L70.514 15.0233L71.3383 10.3819L72.6335 10.6174L71.3971 17.5354L70.0037 17.29L68.0117 12.2365L67.1973 16.7896L65.902 16.5541ZM72.2803 17.7414L72.7513 16.5541L77.8736 13.6691L74.812 12.4622L75.2535 11.3533L80.0324 13.2472L79.63 14.2677L74.3115 17.2704L78.0306 18.7325L77.5988 19.8413L72.2803 17.7414ZM78.4133 20.1259L81.9164 14.0322L86.4303 16.6228L85.8415 17.6531L82.564 15.7691L81.779 17.1232L84.8308 18.8797L84.2322 19.91L81.1903 18.1536L80.2384 19.8021L83.6336 21.7548L83.0449 22.7852L78.4133 20.1259ZM84.1243 23.4524L88.4615 17.9279L89.5507 18.7718L88.9129 24.2669L91.8175 20.5577L92.8576 21.3721L88.5106 26.9065L87.3919 26.0234L88.0101 20.6264L85.1546 24.2669L84.1243 23.4524ZM93.7898 28.4275L94.6533 27.613L96.7631 29.8209L94.7318 31.754C94.3197 31.7442 93.8389 31.6068 93.2894 31.3517C92.7399 31.0966 92.2688 30.7531 91.8665 30.3312C91.3563 29.8013 91.0324 29.2321 90.8754 28.6237C90.7184 28.0154 90.7577 27.4168 90.9834 26.8182C91.2091 26.2196 91.5721 25.6897 92.0628 25.2285C92.5927 24.7183 93.1716 24.3846 93.7898 24.208C94.4178 24.0412 95.0458 24.0608 95.6739 24.2767C96.1547 24.4435 96.6257 24.7673 97.0869 25.258C97.6855 25.886 98.0289 26.5042 98.0976 27.1126C98.1663 27.721 98.0191 28.2999 97.6462 28.8494L96.4785 28.0055C96.6649 27.7014 96.7336 27.3775 96.6944 27.0341C96.6453 26.7005 96.4883 26.3864 96.2038 26.0921C95.772 25.6505 95.2912 25.4248 94.7613 25.4346C94.2216 25.4444 93.6721 25.7094 93.1127 26.2491C92.5043 26.8182 92.1805 27.3873 92.1315 27.9467C92.0922 28.4962 92.2688 28.9966 92.681 29.4284C92.887 29.6443 93.1324 29.8209 93.4267 29.9583C93.7211 30.0957 93.9959 30.1742 94.2608 30.2134L94.9085 29.605L93.7898 28.4275ZM96.1056 32.382L97.2047 31.6068L98.7354 33.7656L97.6364 34.5408L96.1056 32.382ZM99.6676 41.7826L98.9023 40.4579L99.9817 39.1332L98.5784 36.6898L96.9005 36.9744L96.1547 35.6693L103.603 34.531L104.358 35.8361L99.6676 41.7826ZM100.786 38.1421L102.553 35.9931L99.8246 36.4641L100.786 38.1421ZM100.139 43.4606L102.896 42.3714L105.732 38.4757L106.34 40.0262L104.368 42.5971L107.547 43.0779L108.146 44.5989L103.406 43.6961L100.659 44.7853L100.139 43.4606ZM105.212 46.9638C105.918 46.8362 106.537 46.8362 107.047 46.9638C107.43 47.0619 107.783 47.2189 108.116 47.4348C108.44 47.6605 108.705 47.9254 108.901 48.2198C109.157 48.6221 109.343 49.1029 109.441 49.6623C109.618 50.6828 109.451 51.5561 108.931 52.2823C108.401 53.0084 107.577 53.4794 106.448 53.6757C105.33 53.8719 104.397 53.7247 103.652 53.2341C102.916 52.7435 102.454 51.9781 102.268 50.9674C102.091 49.937 102.258 49.0637 102.778 48.3375C103.298 47.6212 104.113 47.16 105.212 46.9638ZM105.516 48.3964C104.731 48.5338 104.172 48.8282 103.828 49.2599C103.495 49.6917 103.367 50.1922 103.465 50.7515C103.573 51.3108 103.858 51.7327 104.319 52.0173C104.78 52.3019 105.418 52.3706 106.223 52.2332C107.017 52.086 107.577 51.8113 107.91 51.3893C108.234 50.9674 108.352 50.4767 108.244 49.8978C108.146 49.3188 107.861 48.8871 107.4 48.6025C106.939 48.3277 106.321 48.259 105.516 48.3964ZM103.092 55.4322L110.118 55.2555L110.157 56.6391L105.516 59.6418L110.226 59.5241L110.265 60.839L103.239 61.0156L103.2 59.6026L107.744 56.6293L103.132 56.7471L103.092 55.4322ZM105.251 66.0692L106.429 66.2164L106.046 69.2485L103.269 68.8952C103.014 68.5616 102.818 68.1004 102.67 67.5116C102.523 66.9327 102.484 66.3537 102.562 65.7748C102.651 65.0486 102.886 64.4304 103.259 63.93C103.632 63.4295 104.132 63.0763 104.731 62.8702C105.339 62.674 105.977 62.6151 106.645 62.7034C107.371 62.7917 107.999 63.0272 108.529 63.4001C109.058 63.7828 109.431 64.2832 109.657 64.9014C109.834 65.3823 109.883 65.9514 109.794 66.6187C109.686 67.4822 109.422 68.1397 108.99 68.5812C108.568 69.013 108.028 69.2681 107.361 69.327L107.282 67.8845C107.636 67.8355 107.93 67.6883 108.165 67.4429C108.391 67.1976 108.538 66.8738 108.587 66.4617C108.666 65.8533 108.538 65.3332 108.185 64.9211C107.842 64.5089 107.282 64.2538 106.517 64.1557C105.693 64.0576 105.045 64.1557 104.584 64.4697C104.123 64.7935 103.858 65.2449 103.779 65.8435C103.74 66.128 103.76 66.4322 103.838 66.7462C103.917 67.0602 104.025 67.3252 104.162 67.5607L105.045 67.6785L105.251 66.0692Z" fill="black"/>
</svg>
