<svg width="69" height="30" viewBox="0 0 69 30" fill="none" xmlns="http://www.w3.org/2000/svg">
<path d="M9.53508 0.431641L9.53508 2.45313L3.07512 2.45313L3.07512 10.9521L5.94914 10.9521C7.16789 10.9521 7.77727 10.457 7.77727 9.4668C7.77727 8.36523 7.00969 7.81445 5.47453 7.81445L4.52531 7.81445L4.52531 5.79297L5.55363 5.79297C8.58879 5.79297 10.1064 6.98535 10.1064 9.37012C10.1064 11.79 8.77043 13 6.09856 13L0.737228 13L0.737228 0.431641L9.53508 0.431641ZM20.2518 13L20.2518 3.77148L22.5809 3.77148L22.5809 13L20.2518 13ZM13.5721 3.77148L13.5721 11.1279L16.367 11.1279C16.9412 11.1279 17.2283 10.8086 17.2283 10.1699C17.2283 9.71875 16.9295 9.49316 16.3318 9.49316L14.7674 9.49316L14.7674 7.64746L16.4109 7.64746C18.5203 7.64746 19.575 8.51465 19.575 10.249C19.575 12.083 18.5555 13 16.5164 13L11.243 13L11.243 3.77148L13.5721 3.77148ZM31.1794 3.77148L31.1794 5.61719L28.279 5.61719L28.279 13L25.9499 13L25.9499 5.61719L23.0495 5.61719L23.0495 3.77148L31.1794 3.77148ZM31.0855 8.38574C31.0855 5.19238 32.6968 3.5957 35.9195 3.5957C39.1422 3.5957 40.7535 5.19238 40.7535 8.38574C40.7535 11.5791 39.1422 13.1758 35.9195 13.1758C32.7086 13.1758 31.0972 11.5791 31.0855 8.38574ZM33.4146 8.35059C33.4146 10.3369 34.2496 11.3301 35.9195 11.3301C37.5894 11.3301 38.4244 10.3369 38.4244 8.35059C38.4244 6.41113 37.5894 5.44141 35.9195 5.44141C34.2496 5.44141 33.4146 6.41113 33.4146 8.35059ZM41.7495 13L41.7495 3.77148L47.0229 3.77148C49.062 3.77148 50.0815 4.54199 50.0815 6.08301C50.0815 7.03809 49.5073 7.74707 48.3588 8.20996C49.6127 8.52051 50.2397 9.27637 50.2397 10.4775C50.2397 12.1592 49.1059 13 46.8383 13L41.7495 13ZM46.478 11.1543C47.392 11.1543 47.8491 10.8232 47.8491 10.1611C47.8491 9.53418 47.4301 9.2207 46.5922 9.2207L45.6254 9.2207L45.6254 7.62988C47.0317 7.4248 47.7348 6.98828 47.7348 6.32031C47.7348 5.85156 47.477 5.61719 46.9614 5.61719L44.0786 5.61719L44.0786 11.1543L46.478 11.1543ZM50.7171 10.126C50.7171 8.29199 52.053 7.375 54.7249 7.375C55.3519 7.375 55.9788 7.43359 56.6058 7.55078L56.6058 6.85645C56.6058 6.03027 56.0111 5.61719 54.8216 5.61719C53.8138 5.61719 52.6946 5.76367 51.4642 6.05664L51.4642 4.21094C52.6946 3.91797 53.8138 3.77148 54.8216 3.77148C57.5638 3.77148 58.9349 4.78516 58.9349 6.8125L58.9349 13L57.5814 13L56.7552 12.1738C55.9525 12.7246 55.0677 13 54.1009 13C51.845 13 50.7171 12.042 50.7171 10.126ZM56.6058 9.13281C56.0198 9.01563 55.3929 8.95703 54.7249 8.95703C53.6058 8.95703 53.0462 9.33789 53.0462 10.0996C53.0462 10.9199 53.515 11.3301 54.4525 11.3301C55.2259 11.3301 55.9437 11.0898 56.6058 10.6094L56.6058 9.13281ZM65.8283 13L65.8283 5.64355L63.6047 5.64355C63.1184 5.64355 62.8752 5.90137 62.8752 6.41699C62.8752 7.17871 63.5197 7.69141 64.8088 7.95508L64.8088 9.19434L62.3215 13L59.632 13L62.4533 9.05371C61.1115 8.36816 60.4406 7.46582 60.4406 6.34668C60.4406 4.62988 61.4309 3.77148 63.4113 3.77148L68.1574 3.77148L68.1574 13L65.8283 13ZM11.0394 20.7715L11.0394 22.6172L8.13902 22.6172L8.13902 30L5.80992 30L5.80992 22.6172L2.90953 22.6172L2.90953 20.7715L11.0394 20.7715ZM15.2786 20.7715C18.0793 20.7715 19.4797 22.2012 19.4797 25.0605C19.4797 25.4414 19.4534 25.8223 19.4006 26.2031L13.2746 26.2031C13.2746 27.5039 14.2297 28.1543 16.1399 28.1543C17.0715 28.1543 18.0032 28.0664 18.9348 27.8906L18.9348 29.7363C18.1204 29.9121 17.1301 30 15.9641 30C12.6184 30 10.9455 28.4268 10.9455 25.2803C10.9455 22.2744 12.3899 20.7715 15.2786 20.7715ZM13.2746 24.5859L17.2121 24.5859L17.2121 24.5156C17.2121 23.2383 16.5676 22.5996 15.2786 22.5996C14.0481 22.5996 13.3801 23.2617 13.2746 24.5859ZM22.963 25.3857L19.5089 20.7715L22.1017 20.7715L24.255 23.6543L26.4083 20.7715L29.0011 20.7715L25.5558 25.3857L29.0011 30L26.4083 30L24.255 27.1172L22.1017 30L19.5089 30L22.963 25.3857ZM29.4697 30L29.4697 20.7715L31.7988 20.7715L31.7988 24.375L35.9736 24.375L35.9736 20.7715L38.3027 20.7715L38.3027 30L35.9736 30L35.9736 26.2207L31.7988 26.2207L31.7988 30L29.4697 30ZM46.4706 30L46.4706 23.7949L42.2079 30L39.8788 30L39.8788 20.7715L42.12 20.7715L42.12 27.293L46.3827 20.7715L48.7118 20.7715L48.7118 30L46.4706 30ZM52.617 20.71L52.617 30L50.2878 30L50.2878 20.71L52.617 20.71ZM56.8357 30L55.5437 27.8379C54.6765 26.5664 54.0144 25.9307 53.5574 25.9307L53.5574 24.3223C54.2195 24.3223 54.7908 23.7246 55.2712 22.5293C55.7517 21.3281 56.6599 20.7275 57.9959 20.7275L58.9363 20.7275L58.9363 22.626L58.242 22.626C57.6677 22.626 57.2019 22.9805 56.8445 23.6895C56.4871 24.3984 56.03 24.8965 55.4734 25.1836C56.2234 25.3066 57.0818 26.1387 58.0486 27.6797L59.5076 30L56.8357 30ZM59.7653 27.126C59.7653 25.292 61.1012 24.375 63.7731 24.375C64.4 24.375 65.027 24.4336 65.6539 24.5508L65.6539 23.8564C65.6539 23.0303 65.0592 22.6172 63.8698 22.6172C62.862 22.6172 61.7428 22.7637 60.5123 23.0566L60.5123 21.2109C61.7428 20.918 62.862 20.7715 63.8698 20.7715C66.612 20.7715 67.983 21.7852 67.983 23.8125L67.983 30L66.6295 30L65.8034 29.1738C65.0006 29.7246 64.1159 30 63.1491 30C60.8932 30 59.7653 29.042 59.7653 27.126ZM65.6539 26.1328C65.068 26.0156 64.4411 25.957 63.7731 25.957C62.6539 25.957 62.0944 26.3379 62.0944 27.0996C62.0944 27.9199 62.5631 28.3301 63.5006 28.3301C64.2741 28.3301 64.9918 28.0898 65.6539 27.6094L65.6539 26.1328Z" fill="black"/>
</svg>
