<svg width="30" height="90" viewBox="0 0 30 90" fill="none" xmlns="http://www.w3.org/2000/svg">
    <path d="M1.62358 3.61633C8.55353 8.14698 14.4 14.1603 19.1617 21.6549C23.9255 29.1501 26.9072 37.0275 28.1075 45.2876C29.1069 51.4835 28.9059 57.3498 27.508 62.8778C26.1088 68.4085 23.4101 73.5051 19.4126 78.1697C15.4144 82.8323 9.8858 86.3649 2.82187 88.7629M6.5807 18.0055C5.88141 15.9746 5.33046 14.4585 4.93126 13.4591C4.53206 12.4597 3.99751 11.1938 3.33446 9.65987C2.91954 8.71176 2.49026 7.76572 2.01382 6.84632C1.4697 5.79637 0.2721 2.35805 2.83341 2.86457L3.23329 2.86662C5.8151 2.87961 8.47143 3.28155 11.1052 3.11134C13.6043 2.95002 15.6099 2.25962 17.8636 1.24316" stroke="#FA7846" stroke-width="1.5" stroke-miterlimit="10" stroke-linecap="round" stroke-linejoin="round"/>
</svg>
