<svg width="115" height="73" viewBox="0 0 115 73" fill="none" xmlns="http://www.w3.org/2000/svg">
<path d="M112.907 48.9259C103.064 55.3136 91.92 59.4475 79.4772 61.3266C67.0323 63.2079 55.113 62.5604 43.718 59.3844C35.114 57.1306 27.6248 53.5095 21.2598 48.5307C14.8921 43.5485 9.83147 37.1306 6.07483 29.2766C2.32125 21.4229 0.909124 12.2326 1.84739 1.70215M91.4148 47.1085C94.448 47.3654 96.7289 47.5198 98.253 47.5748C99.7772 47.6298 101.724 47.6621 104.093 47.6814C105.559 47.6866 107.032 47.6721 108.496 47.5812C110.169 47.4774 115.312 47.8946 113.188 50.9246L112.956 51.4418C111.461 54.7811 109.418 57.9942 108.13 61.5057C106.907 64.8377 106.653 67.8329 106.68 71.3366" stroke="#FA7846" stroke-width="1.5" stroke-miterlimit="10" stroke-linecap="round" stroke-linejoin="round"/>
</svg>
