<svg width="101" height="100" viewBox="0 0 101 100" fill="none" xmlns="http://www.w3.org/2000/svg">
<g clip-path="url(#clip0)">
<path opacity="0.2" d="M55.7009 87.3537C77.7889 87.3537 95.6948 68.8083 95.6948 45.9314C95.6948 23.0545 77.7889 4.50916 55.7009 4.50916C33.6129 4.50916 15.707 23.0545 15.707 45.9314C15.707 68.8083 33.6129 87.3537 55.7009 87.3537Z" fill="url(#paint0_linear)"/>
<path d="M93.1406 11.1011C90.0344 15.6319 86.4445 19.6808 82.7288 23.6021C79.1199 27.6319 74.6862 30.8353 70.584 34.37C66.5008 37.9256 63.0556 42.1174 59.5914 46.2901C57.8526 48.3697 56.0319 50.3694 54.1789 52.3349C52.3201 54.2946 50.5223 56.3171 48.614 58.2273L47.1971 59.6461L45.744 58.2273C42.6873 55.2449 39.8135 52.0797 36.9834 48.8706C34.1629 45.6521 31.4528 42.323 28.9275 38.8093L29.196 38.5408C32.7098 41.0661 36.0369 43.7762 39.2573 46.5967C42.4664 49.4267 45.6316 52.3006 48.614 55.3573H45.744C47.6542 53.449 49.6748 51.6511 51.6364 49.7924C53.6018 47.9393 55.5996 46.1187 57.6812 44.3799C61.8539 40.9137 66.0457 37.4704 69.6013 33.3873C73.1379 29.2869 76.3412 24.8514 80.3692 21.2424C84.2905 17.5268 88.3394 13.9369 92.8701 10.8307L93.1406 11.1011Z" fill="url(#paint1_linear)"/>
<path d="M72.5034 8.37935C62.9182 3.62198 52.0722 2.02603 41.8204 3.84099C36.7107 4.69991 31.7 6.26348 27.1579 8.7431C22.6119 11.1961 18.4373 14.3118 14.8017 17.9988C7.41423 25.2568 2.52926 35.2419 1.47989 45.7794C0.443859 56.332 3.40531 67.1799 9.47105 75.7367C15.6092 84.2402 24.4002 90.6392 34.2692 93.6749C44.1343 96.6364 54.9441 96.4021 64.5617 92.8408C69.3991 91.1382 73.9298 88.5938 77.9939 85.4267C82.0067 82.1948 85.5014 78.3058 88.3143 73.9503C94.0163 65.2945 96.7587 54.5171 95.8598 43.9625L96.2293 43.8692C97.0634 46.484 97.1263 49.2436 97.0844 51.9327C97.1758 54.6542 96.8463 57.3662 96.454 60.0705C95.517 65.4602 93.6182 70.7108 90.8796 75.5044C88.1448 80.3036 84.5606 84.642 80.3403 88.2738C76.0876 91.8733 71.174 94.6748 65.9596 96.6516C64.655 97.1506 63.3448 97.6381 61.9773 97.9352C60.6176 98.2438 59.2863 98.6989 57.8999 98.8799L53.7595 99.4969L49.5811 99.6683C44.0125 99.6683 38.4495 98.8208 33.1684 97.0801C22.5833 93.5892 13.499 86.1808 7.73227 76.8813C4.78415 72.2515 2.83968 67.0771 1.55988 61.8188C0.360062 56.5415 -0.22842 51.0852 0.251507 45.6727C0.666682 40.2697 1.81698 34.8953 3.83191 29.797C5.8278 24.6892 8.8102 19.949 12.4935 15.8239C19.8999 7.60232 30.4164 2.1422 41.4014 0.915722C52.3388 -0.598333 63.7333 2.03746 72.6957 8.04606L72.5034 8.37935Z" fill="#1E2533"/>
</g>
<defs>
<linearGradient id="paint0_linear" x1="15.708" y1="45.9322" x2="95.6958" y2="45.9322" gradientUnits="userSpaceOnUse">
<stop offset="1.58946e-07" stop-color="#FC8C5F"/>
<stop offset="1" stop-color="#FA7846"/>
</linearGradient>
<linearGradient id="paint1_linear" x1="27.7174" y1="35.2384" x2="94.3532" y2="35.2384" gradientUnits="userSpaceOnUse">
<stop offset="1.58946e-07" stop-color="#FC8C5F"/>
<stop offset="1" stop-color="#FA7846"/>
</linearGradient>
<clipPath id="clip0">
<rect width="100" height="99.1716" fill="white" transform="translate(0.0825195 0.5)"/>
</clipPath>
</defs>
</svg>
