<svg width="16" height="20" viewBox="0 0 16 20" fill="none" xmlns="http://www.w3.org/2000/svg">
<path fill-rule="evenodd" clip-rule="evenodd" d="M5.19867 2.28243C5.17473 2.29455 5.14942 2.30597 5.12274 2.31636L2.84507 3.83481C2.70624 3.93808 2.5295 4.18295 2.42864 4.66707C2.3282 5.14921 2.32055 5.79712 2.4579 6.57542L2.45914 6.58245L2.4591 6.58246C2.74079 8.27256 3.49947 10.3672 4.73905 12.2743C6.00183 14.217 7.43789 15.8337 8.83747 16.8601C8.84997 16.8692 8.86218 16.8788 8.87408 16.8887C9.35628 17.2905 9.93525 17.549 10.5604 17.7306C10.8372 17.7796 11.1264 17.7328 11.3759 17.6236L13.5672 15.8134L13.6071 15.7735L10.4869 12.9457L10.3189 13.1137C10.2938 13.1388 10.2669 13.1621 10.2386 13.1834C9.49221 13.7431 8.42836 13.5472 7.89356 12.8342C7.88523 12.8231 7.87722 12.8117 7.86952 12.8002C7.73264 12.5949 7.58651 12.3941 7.42683 12.1747C7.36574 12.0907 7.30266 12.004 7.23736 11.9133C7.0135 11.6024 6.77597 11.2607 6.56028 10.8861C6.14728 10.2643 5.73053 9.53465 5.41328 8.79438L5.40628 8.77748C5.05919 7.90975 5.4316 7.06852 6.05112 6.60387L6.05113 6.60386L6.44961 6.30501C6.45618 6.30008 6.46282 6.29527 6.46954 6.29057L5.19867 2.28243ZM6.48569 6.34143C6.48576 6.34217 6.48582 6.34325 6.48582 6.34464C6.48582 6.34749 6.48555 6.34903 6.48554 6.34905C6.48554 6.34907 6.48578 6.34767 6.48676 6.34465L6.48695 6.34521C6.48689 6.34502 6.48682 6.34483 6.48676 6.34464M6.62425 1.81559C6.40458 0.996243 5.60113 0.637017 4.88856 0.783383C4.8499 0.788605 4.81079 0.796535 4.77153 0.807527C4.69136 0.82997 4.62144 0.86213 4.56181 0.897904C4.53537 0.913764 4.51182 0.929822 4.49122 0.94507C4.45676 0.961101 4.42343 0.979794 4.39154 1.00105L2.00063 2.59499C1.99393 2.59947 1.98729 2.60405 1.98073 2.60873C1.4233 3.0069 1.10654 3.65859 0.960172 4.36114C0.811757 5.07353 0.819191 5.91867 0.980097 6.83255C1.29659 8.72813 2.13164 11.0152 3.48138 13.0917C4.80365 15.126 6.34941 16.8907 7.93212 18.0562C8.63269 18.6343 9.42945 18.9676 10.1803 19.1822C10.1998 19.1877 10.2194 19.1925 10.2393 19.1964C10.9244 19.3335 11.5917 19.1949 12.1164 18.9326C12.1671 18.9072 12.2149 18.8762 12.2586 18.84L14.55 16.9472C14.5683 16.9321 14.5859 16.9161 14.6027 16.8993L14.7023 16.7997L14.2127 16.3102L14.7023 16.7997C14.9722 16.5298 15.1461 16.1713 15.1461 15.7713C15.1461 15.3713 14.9722 15.0128 14.7023 14.7429C14.6936 14.7342 14.6847 14.7257 14.6756 14.7175L11.4982 11.8379C11.0922 11.4467 10.3152 11.2314 9.67148 11.6604C9.63035 11.6878 9.59202 11.7193 9.55707 11.7542L9.31477 11.9965C9.2928 12.0054 9.26141 12.0109 9.22067 12.0044C9.16646 11.9959 9.12512 11.9704 9.10073 11.9429C8.94974 11.7179 8.7831 11.489 8.62326 11.2694C8.56583 11.1904 8.50928 11.1127 8.45465 11.0369C8.2347 10.7314 8.02898 10.4331 7.84965 10.1193C7.84111 10.1043 7.83205 10.0897 7.8225 10.0753C7.44518 9.50935 7.07285 8.85651 6.79645 8.21388C6.76688 8.13615 6.7699 8.0719 6.78925 8.01386C6.81125 7.94785 6.86211 7.87063 6.95113 7.80386L7.27588 7.5603C7.62098 7.39468 7.81908 7.09111 7.90998 6.81841C8.01042 6.51709 8.0111 6.17888 7.91202 5.87705L6.62425 1.81559Z" fill="#FA7846"/>
</svg>
