<svg width="17" height="17" viewBox="0 0 17 17" fill="none" xmlns="http://www.w3.org/2000/svg">
<g clip-path="url(#clip0)">
<path d="M8.84181 4.375C9.40837 4.375 9.86745 4.83421 9.86745 5.40064C9.86745 5.96707 9.40837 6.42628 8.84181 6.42628C8.27525 6.42628 7.81617 5.96707 7.81617 5.40064C7.81617 4.83421 8.27525 4.375 8.84181 4.375ZM8.49993 6.90491C9.52557 6.90491 9.77432 7.51004 9.65945 8.25657L9.18369 11.3494C9.18369 11.3494 9.52557 11.3494 10.2093 11.0075C10.2093 11.0075 9.86745 12.375 8.49993 12.375C7.47429 12.375 7.22554 11.7699 7.34041 11.0233L7.81617 7.93056C7.81617 7.93056 7.47429 7.93056 6.79053 8.27244C6.79053 8.27244 7.13241 6.90491 8.49993 6.90491Z" fill="#FA7846"/>
</g>
<circle cx="8.5" cy="8.375" r="7.4" stroke="#FA7846" stroke-width="1.2"/>
<defs>
<clipPath id="clip0">
<rect width="3.4188" height="8" fill="white" transform="translate(6.79053 4.375)"/>
</clipPath>
</defs>
</svg>
