<svg width="31" height="27" viewBox="0 0 31 27" fill="none" xmlns="http://www.w3.org/2000/svg">
<path d="M9.89485 25.5732C10.4473 25.9482 11.7468 26.1586 12.4299 26.1586H23.7721C25.3328 26.1586 26.6034 24.8881 26.6034 23.3273C26.6034 23.0261 26.5565 22.7329 26.4647 22.4537C27.5777 22.0717 28.3795 21.0156 28.3795 19.775C28.3795 19.3721 28.2918 18.9762 28.1252 18.6121C28.8572 18.0876 29.315 17.2349 29.315 16.3124C29.315 15.5644 29.0248 14.8683 28.5231 14.3517C29.0248 13.8332 29.315 13.137 29.315 12.3901C29.315 10.8303 28.0444 9.56278 26.4837 9.56278H19.386V4.13755C19.386 2.49003 18.0457 1.14868 16.3971 1.14868H14.998C14.6469 1.14868 14.3617 1.43391 14.3617 1.78495V7.09749L9.6535 13.155" stroke="#FC8C5F" stroke-width="1.5" stroke-miterlimit="10" stroke-linecap="round" stroke-linejoin="round"/>
<path d="M9.90519 12.7708H1.31458V25.6377H9.90519V12.7708Z" stroke="#FC8C5F" stroke-width="1.5" stroke-miterlimit="10" stroke-linecap="round" stroke-linejoin="round"/>
</svg>
