<svg width="16" height="20" viewBox="0 0 16 20" fill="none" xmlns="http://www.w3.org/2000/svg">
<path d="M7.32466 18.3912C6.74597 17.5232 5.9744 16.4622 5.00993 15.112C3.85257 13.4724 3.081 12.315 2.79165 11.7363C2.21298 10.9647 1.82719 10.2896 1.6343 9.7109C1.44141 9.13227 1.44141 8.45713 1.44141 7.78201C1.44141 6.62465 1.73074 5.46728 2.30943 4.50282C2.8881 3.53835 3.65967 2.67033 4.72059 2.09165C5.68506 1.51298 6.84242 1.22363 7.99982 1.22363C9.1571 1.22363 10.3145 1.51298 11.2789 2.09165C12.2434 2.67033 13.1115 3.44191 13.6901 4.50282C14.2688 5.46728 14.5582 6.62465 14.5582 7.78201C14.5582 8.55358 14.4617 9.13227 14.2688 9.7109C14.0759 10.2896 13.6901 10.9647 13.2079 11.8327C12.8221 12.4114 12.0505 13.4724 10.9896 15.2084L8.67495 18.4876C8.48206 18.6805 8.28916 18.777 7.99982 18.777C7.71044 18.777 7.4211 18.6805 7.32466 18.3912ZM7.99982 10.4825C8.77131 10.4825 9.44644 10.1931 9.92868 9.7109C10.5074 9.13227 10.7003 8.55358 10.7003 7.78201C10.7003 7.01044 10.4109 6.3353 9.92868 5.85307C9.34999 5.2744 8.77131 4.98505 7.99982 4.98505C7.22821 4.98505 6.55308 5.2744 6.07085 5.85307C5.49216 6.3353 5.20283 7.01044 5.20283 7.78201C5.20283 8.55358 5.49216 9.13227 6.07085 9.7109C6.55308 10.2896 7.22821 10.4825 7.99982 10.4825Z" stroke="#FA7846" stroke-width="1.5" stroke-linecap="round" stroke-linejoin="round"/>
</svg>
