<svg width="25" height="24" viewBox="0 0 25 24" fill="none" xmlns="http://www.w3.org/2000/svg">
<path d="M4.99213 12.3198C5.03251 13.3194 5.27379 14.3284 5.73331 15.2923C6.39989 16.684 7.42631 17.7827 8.65447 18.5356C9.88296 19.2887 11.3105 19.6959 12.7649 19.6959C13.8803 19.6959 15.0092 19.4564 16.0847 18.9533C17.1602 18.4503 18.0603 17.7373 18.7613 16.8837L18.8245 16.8067L18.9017 16.8696L19.743 17.5541L19.8212 17.6177L19.757 17.6954C18.9365 18.6876 17.882 19.5216 16.6325 20.1074C15.3829 20.6933 14.0616 20.9712 12.7623 20.9712C11.0639 20.9712 9.40419 20.497 7.97293 19.6197L7.97274 19.6196C6.54397 18.7393 5.34098 17.4529 4.56726 15.8366L4.56716 15.8364C4.04934 14.748 3.7701 13.6061 3.7104 12.4706C3.53062 12.7128 3.25277 13.0864 2.97104 13.4652L4.99213 12.3198ZM4.99213 12.3198C5.20075 12.5267 5.56161 12.8851 5.9263 13.2498L5.9265 13.25C6.24897 13.5708 6.68603 13.5298 7.01387 13.4283C7.18057 13.3766 7.32779 13.307 7.43291 13.2506C7.48563 13.2223 7.52818 13.1972 7.55777 13.179C7.57257 13.1698 7.58415 13.1624 7.59217 13.1572L7.60149 13.1511L7.60406 13.1494L7.60482 13.1489L7.60506 13.1487L7.60514 13.1486L7.54888 13.066L7.60521 13.1486L7.70529 13.0804L7.61935 12.995L4.2433 9.64212L4.16146 9.56084L4.09261 9.65338L1.25864 13.4618L1.18651 13.5587L1.29523 13.6115L1.33887 13.5215L1.2953 13.6115L1.29539 13.6116L1.29565 13.6117L1.29648 13.6121L1.29928 13.6134L1.30941 13.6181C1.31811 13.6221 1.33067 13.6278 1.34667 13.6346C1.37865 13.6483 1.42448 13.667 1.48084 13.6873C1.59321 13.7278 1.74921 13.7752 1.9218 13.8019C2.26116 13.8544 2.69971 13.8308 2.97097 13.4653L4.99213 12.3198Z" fill="#FC8C5F" stroke="#FC8C5F" stroke-width="0.2"/>
<path d="M23.8241 11.6372C23.508 11.5194 23.0832 11.4537 22.7452 11.737L22.7438 11.7374L22.7254 11.7537C22.6234 11.8443 22.5218 11.9345 22.4235 12.0218C22.1818 12.2365 21.9598 12.4337 21.7998 12.5766C21.8138 12.3846 21.8218 12.1908 21.8218 11.9955C21.8218 10.7088 21.541 9.40031 20.9491 8.16293C20.1753 6.54389 18.9723 5.26019 17.5436 4.37991L17.5434 4.37979C16.1121 3.50258 14.4524 3.02842 12.7542 3.02842C11.4549 3.02842 10.1336 3.30633 8.88406 3.89219L8.88403 3.8922C7.28761 4.64148 6.01016 5.79431 5.12365 7.16807L5.0689 7.25291L5.15427 7.30684L6.07165 7.88631L6.15538 7.9392L6.20908 7.85598C6.96956 6.67741 8.06062 5.6904 9.43443 5.04618C10.51 4.54306 11.639 4.30368 12.7544 4.30368C14.2088 4.30368 15.6362 4.71092 16.8648 5.46405C18.093 6.21697 19.1196 7.31571 19.7861 8.70735C20.2942 9.77182 20.536 10.8916 20.536 11.9927C20.536 12.1532 20.5293 12.3127 20.5181 12.4724L20.39 12.2791C20.2267 12.0326 20.009 11.7032 19.7913 11.3718L19.7912 11.3715C19.5403 10.9919 19.1035 10.9447 18.7617 10.9788C18.5879 10.9962 18.4295 11.0351 18.315 11.0694C18.2576 11.0866 18.2108 11.1027 18.1781 11.1147C18.1618 11.1207 18.1489 11.1257 18.14 11.1292L18.1296 11.1333L18.1268 11.1345L18.1259 11.1348L18.1257 11.135L18.1256 11.135L18.1642 11.2272L18.1255 11.135L18.0142 11.1817L18.0807 11.2824L20.6971 15.2443L20.7607 15.3406L20.847 15.264L24.4053 12.1024L24.3963 12.0923C24.4162 12.0737 24.4334 12.0501 24.4389 12.0276V11.805L24.3312 11.9006C24.3051 11.8831 24.272 11.8616 24.233 11.8379C24.1312 11.776 23.9879 11.6982 23.8241 11.6372ZM24.1291 12.0088C24.1461 12.0191 24.1619 12.029 24.1763 12.0383L8.969 4.07325C10.1913 3.50018 11.4835 3.22842 12.7542 3.22842C14.4153 3.22842 16.0388 3.69223 17.4388 4.55028C18.8362 5.41125 20.0122 6.66635 20.7686 8.24921L20.7687 8.24924C21.3474 9.45908 21.6218 10.738 21.6218 11.9955C21.6218 12.2693 21.6057 12.5409 21.5788 12.8103L21.5528 13.0695L21.7455 12.8943C21.8757 12.7759 22.1925 12.4945 22.5552 12.1724C22.6479 12.0901 22.7436 12.0051 22.8399 11.9195L22.8404 11.9194L22.8588 11.9031C23.114 11.677 23.4523 11.7121 23.7543 11.8246C23.9026 11.8798 24.0342 11.9511 24.1291 12.0088Z" fill="#FC8C5F" stroke="#FC8C5F" stroke-width="0.2"/>
</svg>
