<svg width="24" height="25" viewBox="0 0 24 25" fill="none" xmlns="http://www.w3.org/2000/svg">
<path d="M5.02714 12.9877V2.574C5.01812 2.07574 5.41503 1.66503 5.91329 1.65601C5.92019 1.65601 5.92762 1.65601 5.93452 1.65601H5.92921H22.0816C22.5799 1.65601 22.9837 2.05982 22.9837 2.55808L22.989 14.8157M22.989 14.8157L18.6538 11.8123C18.2669 11.548 17.7432 11.6218 17.4439 11.9821L16.9717 12.5605C16.613 13.0014 16.0807 13.2646 15.5124 13.2822C14.9436 13.3087 14.3923 13.0789 14.0107 12.656L9.87711 8.19339C9.69829 7.9944 9.43828 7.88881 9.17137 7.90685C8.905 7.91852 8.65772 8.04906 8.49747 8.26237L5.03244 12.8789V18.7158C5.03244 19.2141 5.43625 19.6179 5.93452 19.6179H22.0816C22.0885 19.6179 22.096 19.6179 22.1029 19.6179C22.6011 19.6089 22.998 19.1982 22.989 18.6999V14.8157ZM1.01025 6.6015V19.8673C1.01291 21.9564 2.70456 23.6502 4.79366 23.656H18.0595M16.6639 8.59137C18.0149 8.59137 19.1101 7.49614 19.1101 6.14515C19.1101 4.79416 18.0149 3.69894 16.6639 3.69894C15.3129 3.69894 14.2177 4.79416 14.2177 6.14515C14.2209 7.49508 15.314 8.58871 16.6639 8.59137Z" stroke="#FC8C5F" stroke-width="1.5" stroke-miterlimit="10" stroke-linecap="round" stroke-linejoin="round"/>
</svg>
