<svg width="16" height="17" viewBox="0 0 16 17" fill="none" xmlns="http://www.w3.org/2000/svg">
<rect y="0.760498" width="16" height="16" rx="8" fill="#FC8C5F"/>
<path d="M11.9284 8.22464V9.29607C11.9284 9.44488 11.8763 9.57137 11.7722 9.67554C11.668 9.7797 11.5415 9.83179 11.3927 9.83179H9.07129V12.1532C9.07129 12.302 9.01921 12.4285 8.91504 12.5327C8.81087 12.6368 8.68438 12.6889 8.53557 12.6889H7.46415C7.31534 12.6889 7.18885 12.6368 7.08468 12.5327C6.98052 12.4285 6.92843 12.302 6.92843 12.1532V9.83179H4.607C4.45819 9.83179 4.33171 9.7797 4.22754 9.67554C4.12337 9.57137 4.07129 9.44488 4.07129 9.29607V8.22464C4.07129 8.07583 4.12337 7.94935 4.22754 7.84518C4.33171 7.74101 4.45819 7.68893 4.607 7.68893H6.92843V5.3675C6.92843 5.21869 6.98052 5.0922 7.08468 4.98804C7.18885 4.88387 7.31534 4.83179 7.46415 4.83179H8.53557C8.68438 4.83179 8.81087 4.88387 8.91504 4.98804C9.01921 5.0922 9.07129 5.21869 9.07129 5.3675V7.68893H11.3927C11.5415 7.68893 11.668 7.74101 11.7722 7.84518C11.8763 7.94935 11.9284 8.07583 11.9284 8.22464Z" fill="white"/>
</svg>
