<svg width="15" height="14" viewBox="0 0 15 14" fill="none" xmlns="http://www.w3.org/2000/svg">
<path fill-rule="evenodd" clip-rule="evenodd" d="M0.716667 0H0.25V0.466667V5.13333H1.18333V1.5933L5.05335 5.46331L5.71331 4.80335L1.8433 0.933333H5.38333V0H0.716667ZM13.7833 0H14.25V0.466667V5.13333H13.3167V1.5933L9.44665 5.46331L8.78669 4.80335L12.6567 0.933333H9.11667V0H13.7833ZM14.25 14H13.7833H9.11667V13.0667H12.6567L8.78669 9.19665L9.44665 8.53669L13.3167 12.4067V8.86667H14.25V13.5333V14ZM0.716667 14H0.25V13.5333V8.86667H1.18333V12.4067L5.05335 8.53669L5.71331 9.19665L1.8433 13.0667H5.38333V14H0.716667Z" fill="#FA7846"/>
</svg>
