<svg width="17" height="16" viewBox="0 0 17 16" fill="none" xmlns="http://www.w3.org/2000/svg">
<path d="M13.9854 2.44531C12.5439 0.96875 10.5752 0.125 8.46582 0.125C4.17676 0.125 0.661133 3.64062 0.661133 7.92969C0.661133 9.33594 1.04785 10.6719 1.71582 11.832L0.625977 15.875L4.73926 14.8203C5.89941 15.418 7.16504 15.7695 8.46582 15.7695C12.79 15.7695 16.376 12.2539 16.376 7.96484C16.376 5.85547 15.4619 3.92188 13.9854 2.44531ZM8.46582 14.4336C7.30566 14.4336 6.18066 14.1172 5.16113 13.5195L4.9502 13.3789L2.48926 14.0469L3.15723 11.6562L2.98145 11.4102C2.34863 10.3555 1.99707 9.16016 1.99707 7.92969C1.99707 4.37891 4.91504 1.46094 8.50098 1.46094C10.2236 1.46094 11.8408 2.12891 13.0713 3.35938C14.3018 4.58984 15.04 6.20703 15.04 7.96484C15.04 11.5156 12.0518 14.4336 8.46582 14.4336ZM12.0518 9.58203C11.8408 9.47656 10.8916 9.01953 10.7158 8.94922C10.54 8.87891 10.3994 8.84375 10.2588 9.05469C10.1533 9.23047 9.7666 9.6875 9.66113 9.82812C9.52051 9.93359 9.41504 9.96875 9.23926 9.86328C8.0791 9.30078 7.34082 8.84375 6.56738 7.54297C6.35645 7.19141 6.77832 7.22656 7.12988 6.48828C7.2002 6.34766 7.16504 6.24219 7.12988 6.13672C7.09473 6.03125 6.67285 5.08203 6.53223 4.69531C6.35645 4.30859 6.21582 4.34375 6.0752 4.34375C5.96973 4.34375 5.8291 4.34375 5.72363 4.34375C5.58301 4.34375 5.37207 4.37891 5.19629 4.58984C5.02051 4.80078 4.52832 5.25781 4.52832 6.20703C4.52832 7.19141 5.19629 8.10547 5.30176 8.24609C5.40723 8.35156 6.67285 10.3203 8.6416 11.1641C9.87207 11.7266 10.3643 11.7617 10.9971 11.6562C11.3486 11.6211 12.1221 11.1992 12.2979 10.7422C12.4736 10.2852 12.4736 9.89844 12.4033 9.82812C12.3682 9.72266 12.2275 9.6875 12.0518 9.58203Z" fill="white"/>
</svg>
