<svg width="100" height="100" viewBox="0 0 100 100" fill="none" xmlns="http://www.w3.org/2000/svg">
<g clip-path="url(#clip0_108_260)">
<path d="M69.375 0.332031C69.1602 0.527344 67.3242 4.31641 65.3125 8.73047C63.3008 13.1641 61.5625 16.9336 61.4453 17.0898C61.2891 17.2852 58.4375 17.793 51.6016 18.8477C46.3086 19.6484 41.8945 20.3125 41.7773 20.3125C41.3281 20.3125 40.625 21.2891 40.625 21.9141C40.625 22.4805 41.2891 23.2031 47.5977 29.5312L54.5508 36.5039L53.0469 45.6055C51.3672 55.625 51.3672 55.625 52.5781 56.0352C53.3594 56.3086 53.1445 56.4062 62.5586 51.3086L70.332 47.0898L78.7109 51.6797C83.4766 54.2773 87.3242 56.25 87.5977 56.25C88.1836 56.25 89.0625 55.4688 89.0625 54.9414C89.0625 54.7461 88.3984 50.5273 87.5586 45.5469L86.0742 36.5039L93.0469 29.5117C99.9609 22.5781 100.02 22.5 99.9609 21.7773C99.9219 21.25 99.7656 20.9375 99.4141 20.6836C99.043 20.4297 96.4453 19.9609 89.1602 18.8477C82.2852 17.793 79.3359 17.2852 79.1797 17.0703C79.0625 16.9141 77.3242 13.1641 75.3125 8.73047C73.3008 4.31641 71.4648 0.527344 71.25 0.332031C71.0352 0.15625 70.6055 0 70.3125 0C70.0195 0 69.5898 0.15625 69.375 0.332031ZM73.6523 12.7539C76.5234 19.1211 76.875 19.7852 77.4219 20.0391C77.7539 20.1758 81.7969 20.8789 86.4258 21.582C91.0352 22.2852 94.8242 22.8906 94.8633 22.9102C94.8828 22.9492 92.2852 25.6641 89.0625 28.9648C85.8398 32.2656 83.125 35.1562 83.0273 35.3906C82.9102 35.7031 83.2812 38.3398 84.1797 43.75C84.9023 48.1055 85.4883 51.6797 85.4687 51.6992C85.4297 51.7383 82.1094 49.9609 78.0664 47.7539C74.0234 45.5469 70.5273 43.75 70.3125 43.75C70.0977 43.75 66.6602 45.5273 62.6758 47.6758C58.7109 49.8438 55.4102 51.5625 55.3516 51.5039C55.293 51.4453 55.8203 47.9102 56.5234 43.6719C57.2266 39.4336 57.8125 35.8008 57.8125 35.6055C57.8125 35.4297 55.0195 32.4805 51.6211 29.0625C48.2031 25.6445 45.5078 22.8516 45.6055 22.8516C45.7227 22.8516 49.707 22.2461 54.4727 21.5039C61.5234 20.4102 63.1836 20.0977 63.4766 19.8047C63.75 19.5117 66.5625 13.457 69.7656 6.26953C69.9805 5.80078 70.2148 5.50781 70.3125 5.58594C70.3906 5.68359 71.8945 8.90625 73.6523 12.7539Z" fill="#FA7846"/>
<path d="M22.3633 17.6758C21.9531 18.0664 21.875 18.3398 21.875 19.2383V20.3125H20.8008C19.4922 20.3125 18.75 20.8789 18.75 21.875C18.75 22.8711 19.4922 23.4375 20.8008 23.4375H21.875V24.5117C21.875 25.8203 22.4414 26.5625 23.4375 26.5625C24.4336 26.5625 25 25.8203 25 24.5117V23.4375H26.0742C27.3828 23.4375 28.125 22.8711 28.125 21.875C28.125 20.8789 27.3828 20.3125 26.0742 20.3125H25V19.2383C25 17.9297 24.4336 17.1875 23.4375 17.1875C23.0664 17.1875 22.6562 17.3633 22.3633 17.6758Z" fill="#FC8C5F"/>
<path d="M30.332 37.793C29.8242 38.1445 29.7266 38.4375 26.0742 51.1719C23.8086 59.043 23.3008 60.6055 22.7148 61.5234C21.9336 62.7148 20.293 64.3555 19.3555 64.9023L18.75 65.2539V64.3555C18.75 63.6719 18.6328 63.3398 18.2617 62.9883L17.793 62.5H9.375H0.957031L0.488281 62.9883L0 63.457V81.25V99.043L0.488281 99.5117L0.957031 100H9.375H17.793L18.2617 99.5117C18.6133 99.1602 18.75 98.8281 18.75 98.2422C18.75 97.8125 18.8086 97.4609 18.8672 97.4609C18.9453 97.4609 20.957 98.0273 23.3594 98.7305L27.7344 100.02L41.9531 99.9609L56.1523 99.9023L57.2656 99.3555C58.6719 98.6719 60.0195 97.1875 60.4492 95.8789C61.0547 94.0625 60.7422 91.5039 59.7852 90.2344L59.4141 89.7656L60.293 88.9844C61.6211 87.8125 62.3047 86.25 62.3047 84.3555C62.3047 83.0469 62.2266 82.6953 61.6602 81.6016L61.0352 80.332L61.8945 79.5898C63.1836 78.457 63.8672 76.8555 63.8672 74.9805C63.8672 73.6914 63.7891 73.3203 63.2227 72.2266L62.5977 70.957L63.5156 70.1367C64.0234 69.6875 64.668 68.8281 64.9805 68.2031C65.4492 67.2656 65.5273 66.8555 65.5273 65.5273C65.5078 64.1211 65.4492 63.8281 64.8438 62.7344C64.1406 61.4063 63.3203 60.6055 61.9141 59.9219C61.0352 59.4727 60.9961 59.4727 50.1367 59.4141L39.2188 59.3555L39.3359 58.6328C40.0195 54.3555 40.6445 48.3594 40.5469 47.0508C40.1562 42.3047 37.4805 38.8867 33.3008 37.793C31.8359 37.4219 30.8594 37.4219 30.332 37.793ZM33.6523 41.2109C35 41.8555 35.8789 42.6953 36.5234 44.0234C37.6367 46.2891 37.6562 47.0898 36.7383 54.3359C36.3086 57.832 35.9375 60.8789 35.9375 61.0938C35.9375 61.3086 36.1133 61.6797 36.3086 61.9336L36.6797 62.4023L48.5938 62.5C60.2539 62.5977 60.5273 62.5977 61.0547 63.0078C62.0898 63.7695 62.4023 64.3945 62.4023 65.625C62.4023 66.8555 62.0898 67.4805 61.0547 68.2422C60.5664 68.6328 60.1758 68.6523 55.625 68.75C50.7812 68.8477 50.7422 68.8477 50.3711 69.3164C49.9023 69.9023 49.9023 70.7227 50.3711 71.3086C50.7422 71.7773 50.8203 71.7773 54.8438 71.875C59.3359 71.9727 59.4531 72.0117 60.4297 73.3203C60.9961 74.082 60.9961 75.918 60.4297 76.6797C59.4336 78.0078 59.4336 78.0273 54.0625 78.125C49.2188 78.2227 49.1797 78.2227 48.8086 78.6914C48.3398 79.2773 48.3398 80.0977 48.8086 80.6836C49.1797 81.1523 49.2578 81.1523 53.2812 81.25C57.7734 81.3477 57.8906 81.3867 58.8672 82.6953C59.4336 83.457 59.4336 85.293 58.8672 86.0547C57.8711 87.3828 57.8711 87.4023 52.5 87.5C47.6562 87.5977 47.6172 87.5977 47.2461 88.0664C46.7773 88.6523 46.7773 89.4727 47.2461 90.0586C47.6172 90.5273 47.6953 90.5273 51.7188 90.625C55.4883 90.7227 55.8789 90.7617 56.3672 91.1328C57.4023 91.8945 57.7148 92.5195 57.7148 93.75C57.7148 94.9805 57.4023 95.6055 56.3672 96.3672C55.8398 96.7773 55.625 96.7773 42.0703 96.8359L28.3203 96.875L24.8633 95.8984C22.9492 95.3516 20.8008 94.7266 20.0781 94.5117L18.75 94.1211V81.3867L18.7695 68.6523L20.3125 67.9297C22.2266 67.0117 23.8281 65.5664 25.2734 63.418L26.3672 61.8164L29.2969 51.5625C30.8984 45.918 32.2656 41.1914 32.3242 41.0547C32.4414 40.7227 32.6758 40.7617 33.6523 41.2109ZM15.625 81.25V96.875H9.375H3.125V81.25V65.625H9.375H15.625V81.25Z" fill="white"/>
<path d="M80.1758 75.4883C79.7656 75.8789 79.6875 76.1523 79.6875 77.0508V78.125H78.6133C77.3047 78.125 76.5625 78.6914 76.5625 79.6875C76.5625 80.6836 77.3047 81.25 78.6133 81.25H79.6875V82.3242C79.6875 83.6328 80.2539 84.375 81.25 84.375C82.2461 84.375 82.8125 83.6328 82.8125 82.3242V81.25H83.8867C85.1953 81.25 85.9375 80.6836 85.9375 79.6875C85.9375 78.6914 85.1953 78.125 83.8867 78.125H82.8125V77.0508C82.8125 75.7422 82.2461 75 81.25 75C80.8789 75 80.4688 75.1758 80.1758 75.4883Z" fill="#FC8C5F"/>
</g>
<defs>
<clipPath id="clip0_108_260">
<rect width="100" height="100" fill="white"/>
</clipPath>
</defs>
</svg>
