<svg width="115" height="212" viewBox="0 0 115 212" fill="none" xmlns="http://www.w3.org/2000/svg">
<path d="M77.5257 209.342C77.4383 209.604 77.5799 209.887 77.8419 209.974L82.111 211.397C82.3729 211.485 82.6561 211.343 82.7434 211.081C82.8307 210.819 82.6892 210.536 82.4272 210.449L78.6325 209.184L79.8974 205.389C79.9847 205.127 79.8431 204.844 79.5811 204.757C79.3192 204.669 79.036 204.811 78.9487 205.073L77.5257 209.342ZM78.2236 209.947C91.1147 203.502 96.6252 194.584 98.1974 184.318C99.7609 174.107 97.4217 162.593 94.7372 150.95C92.0434 139.266 89.0003 127.445 89.0469 116.479C89.0933 105.547 92.2115 95.5144 101.823 87.3816L101.177 86.6182C91.2885 94.9854 88.0942 105.328 88.0469 116.474C87.9997 127.586 91.0816 139.546 93.7628 151.175C96.4533 162.844 98.7391 174.174 97.2089 184.166C95.6873 194.103 90.3853 202.748 77.7764 209.053L78.2236 209.947ZM101.823 87.3816C111.661 79.0569 115.737 69.9387 114.834 60.7868C113.933 51.6615 108.094 42.631 98.3851 34.4305C78.9669 18.0287 43.8553 4.75791 0.548898 0.502336L0.451102 1.49754C43.6447 5.74203 78.5331 18.9712 97.7399 35.1944C107.344 43.3064 112.973 52.1197 113.838 60.885C114.701 69.6237 110.839 78.443 101.177 86.6182L101.823 87.3816Z" fill="#FA7846"/>
</svg>
