<svg width="453" height="104" viewBox="0 0 453 104" fill="none" xmlns="http://www.w3.org/2000/svg">
<path d="M452.985 38.3296C453.052 38.0618 452.889 37.7902 452.621 37.7231L448.256 36.63C447.988 36.5629 447.717 36.7256 447.65 36.9935C447.583 37.2614 447.745 37.5329 448.013 37.6L451.894 38.5717L450.922 42.4519C450.855 42.7198 451.017 42.9913 451.285 43.0584C451.553 43.1255 451.825 42.9627 451.892 42.6948L452.985 38.3296ZM1.29778 7.21318C8.40165 1.94662 14.7572 0.614132 20.6186 2.02663C26.5096 3.44628 31.9962 7.66018 37.2941 13.6899C42.5876 19.7147 47.648 27.5002 52.7002 35.98C55.2252 40.2181 57.7444 44.6232 60.2881 49.0636C62.8309 53.5025 65.3979 57.9762 68.0146 62.3446C73.2466 71.0787 78.6887 79.4107 84.5599 86.2311C90.429 93.049 96.7544 98.3891 103.763 101.097C110.792 103.812 118.468 103.865 126.984 100.177C135.482 96.498 144.802 89.1016 155.171 76.9486L154.411 76.2995C144.093 88.3918 134.89 95.6644 126.586 99.2598C118.3 102.847 110.896 102.781 104.124 100.164C97.3312 97.5399 91.1344 92.3356 85.3178 85.5787C79.5033 78.8242 74.096 70.5508 68.8725 61.8307C66.2615 57.4719 63.6991 53.0063 61.1558 48.5665C58.6133 44.1282 56.0895 39.7151 53.5593 35.4682C48.5011 26.9783 43.4023 19.127 38.0453 13.0299C32.6927 6.93786 27.0376 2.54489 20.8528 1.05446C14.6385 -0.44312 7.98444 1.01109 0.702225 6.40986L1.29778 7.21318ZM155.171 76.9486C175.784 52.791 196.177 43.401 217.268 41.5914C238.402 39.778 260.279 45.5676 283.899 51.8924C331.111 64.5346 385.035 79.2329 452.757 38.637L452.243 37.7793C384.902 78.1465 331.346 63.5623 284.158 50.9264C260.577 44.6122 238.523 38.7639 217.182 40.595C195.799 42.4298 175.173 51.9667 154.411 76.2995L155.171 76.9486Z" fill="#FA7846"/>
</svg>
