<svg width="164" height="114" viewBox="0 0 164 114" fill="none" xmlns="http://www.w3.org/2000/svg">
<path d="M161.984 0.874642C161.915 0.60732 161.642 0.446736 161.375 0.51597L157.018 1.64419C156.751 1.71342 156.59 1.98626 156.66 2.25358C156.729 2.5209 157.002 2.68148 157.269 2.61225L161.141 1.60939L162.144 5.48163C162.213 5.74895 162.486 5.90954 162.754 5.8403C163.021 5.77107 163.181 5.49824 163.112 5.23092L161.984 0.874642ZM0.678657 104.577C6.59393 109.539 12.0184 112.28 17.042 113.281C22.0738 114.283 26.6685 113.532 30.9017 111.568C39.3321 107.657 46.327 98.9352 52.611 89.7365C55.7531 85.1369 58.7538 80.3609 61.6534 76.0048C64.5643 71.6316 67.389 67.6569 70.2236 64.5797C73.0642 61.4961 75.8683 59.3662 78.7248 58.6055C81.5432 57.8549 84.49 58.4176 87.6941 60.8955L88.3059 60.1045C84.8992 57.47 81.637 56.7951 78.4675 57.6391C75.3362 58.473 72.3736 60.7698 69.4881 63.9022C66.5966 67.0411 63.7357 71.0719 60.8209 75.4507C57.8948 79.8467 54.9297 84.5694 51.7853 89.1724C45.4961 98.3787 38.6349 106.878 30.4809 110.661C26.422 112.544 22.0425 113.257 17.2374 112.3C12.4241 111.342 7.14898 108.699 1.32134 103.811L0.678657 104.577ZM87.6941 60.8955C94.5389 66.1889 102.681 64.9276 110.887 60.2651C119.093 55.6028 127.498 47.4743 135.044 38.7457C142.597 30.0093 149.318 20.6367 154.149 13.4516C156.565 9.85826 158.51 6.81022 159.851 4.65997C160.521 3.58481 161.041 2.73401 161.393 2.15162C161.569 1.86043 161.703 1.63633 161.794 1.48483C161.839 1.40908 161.873 1.35147 161.896 1.31271C161.907 1.29333 161.916 1.27866 161.922 1.26878C161.925 1.26384 161.927 1.2601 161.929 1.25757C161.929 1.25631 161.93 1.25532 161.93 1.25468C161.931 1.254 161.931 1.25362 161.5 1C161.069 0.74638 161.069 0.74661 161.069 0.747143C161.068 0.747727 161.068 0.748563 161.067 0.749727C161.066 0.752055 161.064 0.755592 161.061 0.760327C161.055 0.769797 161.047 0.784059 161.036 0.803027C161.013 0.840964 160.979 0.897725 160.935 0.972622C160.845 1.12242 160.712 1.34476 160.537 1.63414C160.187 2.2129 159.67 3.05981 159.002 4.13083C157.666 6.27295 155.728 9.31122 153.319 12.8936C148.501 20.0601 141.805 29.3968 134.288 38.0917C126.764 46.7943 118.448 54.8188 110.393 59.3956C102.339 63.9722 94.6827 65.036 88.3059 60.1045L87.6941 60.8955Z" fill="#FA7846"/>
</svg>
