<svg width="12" height="6" viewBox="0 0 12 6" fill="none" xmlns="http://www.w3.org/2000/svg">
<path d="M10.4095 0.199777C10.3426 0.132813 10.2656 0.09933 10.1785 0.09933C10.0914 0.09933 10.0144 0.132813 9.94747 0.199777L5.99993 4.14732L2.05239 0.199777C1.98542 0.132813 1.90841 0.0993303 1.82136 0.0993304C1.7343 0.0993304 1.65729 0.132813 1.59033 0.199777L1.0881 0.70201C1.02114 0.768974 0.987653 0.845983 0.987653 0.933036C0.987653 1.02009 1.02114 1.0971 1.0881 1.16406L5.7689 5.84487C5.83587 5.91183 5.91288 5.94531 5.99993 5.94531C6.08698 5.94531 6.16399 5.91183 6.23096 5.84487L10.9118 1.16406C10.9787 1.0971 11.0122 1.02009 11.0122 0.933036C11.0122 0.845982 10.9787 0.768973 10.9118 0.702009L10.4095 0.199777Z" fill="#1E2533"/>
</svg>
