<svg width="213" height="214" fill="none" xmlns="http://www.w3.org/2000/svg"><path d="M121.572 2.117a20 20 0 0 1 24.382 6.533l4.363 6.033a19.997 19.997 0 0 0 14.16 8.175l7.406.762a20 20 0 0 1 17.849 17.849l.761 7.406a20.001 20.001 0 0 0 8.176 14.16l6.033 4.363a20 20 0 0 1 6.533 24.382l-3.043 6.794a19.997 19.997 0 0 0 0 16.351l3.043 6.795a20 20 0 0 1-6.533 24.382l-6.033 4.362a20.002 20.002 0 0 0-8.176 14.161l-.761 7.406a20.001 20.001 0 0 1-17.849 17.849l-7.406.761a19.998 19.998 0 0 0-14.16 8.176l-4.363 6.033a20 20 0 0 1-24.382 6.533l-6.795-3.044a20.005 20.005 0 0 0-16.35 0l-6.795 3.044a20 20 0 0 1-24.382-6.533l-4.363-6.033a20.001 20.001 0 0 0-14.16-8.176l-7.406-.761a20 20 0 0 1-17.849-17.849l-.762-7.406a20.001 20.001 0 0 0-8.175-14.161l-6.033-4.362a20 20 0 0 1-6.533-24.382l3.043-6.795a20 20 0 0 0 0-16.35L1.97 91.78a20 20 0 0 1 6.533-24.382l6.033-4.363a20 20 0 0 0 8.175-14.16l.762-7.406a20 20 0 0 1 17.849-17.85l7.406-.76a20 20 0 0 0 14.16-8.176L67.25 8.65a20 20 0 0 1 24.382-6.533l6.794 3.043a20 20 0 0 0 16.351 0l6.795-3.043Z" fill="#fff"/><path d="M119.673 11.039a19.25 19.25 0 0 1 23.467 6.288l2.946 4.073a20.75 20.75 0 0 0 14.691 8.483l5.001.514a19.25 19.25 0 0 1 17.179 17.18l.515 5a20.748 20.748 0 0 0 8.482 14.691l4.073 2.946a19.25 19.25 0 0 1 6.288 23.468l-2.055 4.587a20.75 20.75 0 0 0 0 16.964l2.055 4.588a19.25 19.25 0 0 1-6.288 23.468l-4.073 2.945a20.75 20.75 0 0 0-8.482 14.692l-.515 5a19.25 19.25 0 0 1-17.179 17.18l-5.001.514a20.751 20.751 0 0 0-14.691 8.482l-2.946 4.074a19.25 19.25 0 0 1-23.467 6.288l-4.588-2.055a20.75 20.75 0 0 0-16.964 0l-4.588 2.055a19.25 19.25 0 0 1-23.468-6.288l-2.945-4.074a20.751 20.751 0 0 0-14.692-8.482l-5-.514a19.25 19.25 0 0 1-17.18-17.18l-.514-5a20.751 20.751 0 0 0-8.482-14.692l-4.073-2.945a19.25 19.25 0 0 1-6.288-23.468l2.054-4.588a20.749 20.749 0 0 0 0-16.964l-2.055-4.587a19.25 19.25 0 0 1 6.289-23.468l4.073-2.946a20.75 20.75 0 0 0 8.482-14.691l.514-5a19.25 19.25 0 0 1 17.18-17.18l5-.514A20.75 20.75 0 0 0 67.12 21.4l2.945-4.074a19.25 19.25 0 0 1 23.468-6.288l4.588 2.055a20.75 20.75 0 0 0 16.964 0l4.588-2.055Z" stroke="#FBF2EA" stroke-width="1.5"/></svg>