<svg display="none" xmlns="http://www.w3.org/2000/svg"><symbol id="arrow" viewBox="0 0 30 90" fill="none"><g><path d="M1.62358 3.61633C8.55353 8.14698 14.4 14.1603 19.1617 21.6549C23.9255 29.1501 26.9072 37.0275 28.1075 45.2876C29.1069 51.4835 28.9059 57.3498 27.508 62.8778C26.1088 68.4085 23.4101 73.5051 19.4126 78.1697C15.4144 82.8323 9.8858 86.3649 2.82187 88.7629M6.5807 18.0055C5.88141 15.9746 5.33046 14.4585 4.93126 13.4591C4.53206 12.4597 3.99751 11.1938 3.33446 9.65987C2.91954 8.71176 2.49026 7.76572 2.01382 6.84632C1.4697 5.79637 0.2721 2.35805 2.83341 2.86457L3.23329 2.86662C5.8151 2.87961 8.47143 3.28155 11.1052 3.11134C13.6043 2.95002 15.6099 2.25962 17.8636 1.24316" stroke="#FA7846" stroke-width="1.5" stroke-miterlimit="10" stroke-linecap="round" stroke-linejoin="round"/></g></symbol><symbol id="size" viewBox="0 0 15 14" fill="none"><g><path fill-rule="evenodd" clip-rule="evenodd" d="M0.716667 0H0.25V0.466667V5.13333H1.18333V1.5933L5.05335 5.46331L5.71331 4.80335L1.8433 0.933333H5.38333V0H0.716667ZM13.7833 0H14.25V0.466667V5.13333H13.3167V1.5933L9.44665 5.46331L8.78669 4.80335L12.6567 0.933333H9.11667V0H13.7833ZM14.25 14H13.7833H9.11667V13.0667H12.6567L8.78669 9.19665L9.44665 8.53669L13.3167 12.4067V8.86667H14.25V13.5333V14ZM0.716667 14H0.25V13.5333V8.86667H1.18333V12.4067L5.05335 8.53669L5.71331 9.19665L1.8433 13.0667H5.38333V14H0.716667Z" fill="#FA7846"/></g></symbol><symbol id="kviz-arrow" viewBox="0 0 171 61" fill="none"><g><path d="M7.70331 59.2055C15.3746 45.4236 26.01 33.5 39.607 23.4372C53.205 13.3704 67.7703 6.63823 83.3042 3.23926C94.9424 0.501598 106.117 0.0894544 116.811 1.99754C127.51 3.90786 137.56 8.3462 146.965 15.311C156.366 22.2774 163.827 32.305 169.34 45.4036M34.3753 47.8381C30.6108 49.4418 27.8043 50.694 25.9593 51.5878C24.1143 52.4816 21.7811 53.6688 18.956 55.1364C17.2105 56.0531 15.4709 56.9969 13.7883 58.0267C11.8668 59.2028 5.49529 61.9439 6.11112 57.0082L6.06089 56.2481C5.73611 51.3403 6.14034 46.2382 5.46042 41.2564C4.81561 36.5294 3.23223 32.8118 0.995667 28.6668" stroke="#FA7846" stroke-width="1.5" stroke-miterlimit="10" stroke-linecap="round" stroke-linejoin="round"/></g></symbol><symbol id="gift" viewBox="0 0 31 33" fill="none"><g><path d="M15.8317 1.33398V8.41401M3.50607 14.2707V31.3338H16.4244M16.3878 31.3338H27.6985V14.2707M16.9114 8.75226H1.31976V14.2707H16.9114M16.3878 14.2707H29.8848V8.75226H16.3878V14.2707ZM20.0943 3.70201C19.7885 3.7083 19.4869 3.77166 19.2062 3.89315C19.1129 3.93347 19.0197 3.97851 18.9349 4.03402C18.8631 4.08062 18.7967 4.13613 18.7322 4.19268C18.6348 4.2791 18.5432 4.37179 18.4547 4.46656C18.2169 4.7195 17.9996 4.99128 17.7897 5.26777C17.4744 5.68304 17.179 6.1135 16.8926 6.54917C16.4663 7.19747 16.0636 7.85995 15.6698 8.52813L15.6023 8.64385C16.3139 8.64125 17.0262 8.62656 17.7367 8.59149C18.317 8.56321 18.8972 8.52293 19.4738 8.45538C19.8099 8.41661 20.1461 8.36895 20.4782 8.29981C20.6337 8.26784 20.7876 8.23117 20.9389 8.1851C21.0416 8.15473 21.1432 8.11965 21.2396 8.07359C21.3474 8.02223 21.4469 7.95208 21.5412 7.88084C21.7769 7.70177 21.9763 7.47815 22.1272 7.22424C22.2659 6.99172 22.3638 6.73461 22.4152 6.46853C22.4775 6.14488 22.4712 5.8103 22.3948 5.48981C22.2444 4.86141 21.825 4.29951 21.2537 3.99212C21.0552 3.88425 20.8442 3.80413 20.6232 3.75595C20.5138 3.73238 20.4027 3.71772 20.2906 3.7083C20.2252 3.7041 20.1597 3.70201 20.0943 3.70201ZM11.5213 2.2038C11.1946 2.21532 10.873 2.28182 10.5719 2.41222C9.89327 2.70704 9.36647 3.30193 9.15645 4.0115C9.08104 4.26496 9.04648 4.52993 9.05277 4.79386C9.05957 5.08973 9.11875 5.38298 9.22609 5.65791C9.34079 5.95063 9.51046 6.22082 9.7246 6.45233C9.75657 6.48632 9.78854 6.51938 9.82312 6.55076C9.89217 6.61311 9.96862 6.66757 10.0467 6.71884C10.1646 6.79637 10.2871 6.86702 10.4117 6.93357C10.7919 7.13621 11.1894 7.30697 11.5889 7.46506C12.0665 7.65462 12.5514 7.82638 13.0394 7.98774C13.8396 8.25265 14.6487 8.48886 15.4614 8.714L15.6028 8.75276C15.4457 8.17621 15.2807 7.60074 15.1047 7.02939C14.8518 6.20673 14.58 5.3877 14.2554 4.59068C14.1203 4.25972 13.9768 3.93243 13.8113 3.61561C13.7019 3.40719 13.5851 3.19615 13.4348 3.01339C13.394 2.96364 13.3484 2.91861 13.3012 2.87514C13.2306 2.8102 13.1567 2.74841 13.0782 2.69081C12.7959 2.48292 12.4697 2.33681 12.1266 2.26141C11.9874 2.23155 11.8466 2.21479 11.7041 2.20694C11.6433 2.2038 11.5821 2.20327 11.5213 2.2038Z" stroke="#FC8C5F" stroke-width="1.5" stroke-miterlimit="10" stroke-linecap="round" stroke-linejoin="round"/><path fill-rule="evenodd" clip-rule="evenodd" d="M15.602 8.00195C16.0162 8.00195 16.352 8.33774 16.352 8.75195V31.3335C16.352 31.7477 16.0162 32.0835 15.602 32.0835C15.1878 32.0835 14.852 31.7477 14.852 31.3335V8.75195C14.852 8.33774 15.1878 8.00195 15.602 8.00195Z" fill="#FC8C5F"/></g></symbol><symbol id="check" viewBox="0 0 34 33" fill="none"><g><path d="M32.7573 3.43042L18.424 17.7638L12.7573 12.0971" stroke="#FA7846" stroke-width="1.5" stroke-miterlimit="10" stroke-linecap="round" stroke-linejoin="round"/><path d="M24.2026 3.5C21.8693 2.16667 19.3693 1.5 16.7026 1.5C8.3693 1.5 1.70264 8.16667 1.70264 16.5C1.70264 24.8333 8.3693 31.5 16.7026 31.5C25.036 31.5 31.7026 24.8333 31.7026 16.5C31.7026 15.8333 31.7026 15.3333 31.536 14.6667" stroke="#FA7846" stroke-width="1.5" stroke-miterlimit="10" stroke-linecap="round" stroke-linejoin="round"/></g></symbol><symbol id="lock" fill="none"><g><path d="M10.1672 6.21647V4.0364C10.1672 2.58734 8.81117 1.34277 7.06532 1.34277C5.31937 1.34277 3.96418 2.58352 3.96418 4.0364V6.21647H10.1672ZM1.30566 6.21647V15.0779H12.8257V6.21647H1.30566Z" stroke="#FC8C5F" stroke-width="1.5" stroke-miterlimit="10" stroke-linecap="round" stroke-linejoin="round"/><path d="M7.0647 11.9495V9.29102" stroke="#FC8C5F" stroke-width="1.5" stroke-miterlimit="10" stroke-linecap="round" stroke-linejoin="round"/></g></symbol><symbol id="work-arrow" viewBox="0 0 112 22" fill="none"><g><path d="M109.689 16.8619C65.1278 -8.13809 21.3258 -0.136093 1.08984 20.6899M96.0348 20.0049L111.216 17.8189L104.588 4.52791" stroke="#FA7846" stroke-width="1.5" stroke-miterlimit="10" stroke-linecap="round" stroke-linejoin="round"/></g></symbol><symbol id="info" viewBox="0 0 17 17" fill="none"><g clip-path="url(#clip0)"><path d="M8.84181 4.375C9.40837 4.375 9.86745 4.83421 9.86745 5.40064C9.86745 5.96707 9.40837 6.42628 8.84181 6.42628C8.27525 6.42628 7.81617 5.96707 7.81617 5.40064C7.81617 4.83421 8.27525 4.375 8.84181 4.375ZM8.49993 6.90491C9.52557 6.90491 9.77432 7.51004 9.65945 8.25657L9.18369 11.3494C9.18369 11.3494 9.52557 11.3494 10.2093 11.0075C10.2093 11.0075 9.86745 12.375 8.49993 12.375C7.47429 12.375 7.22554 11.7699 7.34041 11.0233L7.81617 7.93056C7.81617 7.93056 7.47429 7.93056 6.79053 8.27244C6.79053 8.27244 7.13241 6.90491 8.49993 6.90491Z" fill="#FA7846"/></g><circle cx="8.5" cy="8.375" r="7.4" stroke="#FA7846" stroke-width="1.2"/><defs><clipPath id="clip0"><rect width="3.4188" height="8" fill="white" transform="translate(6.79053 4.375)"/></clipPath></defs></symbol><symbol id="mail" viewBox="0 0 19 15" fill="none"><g><path d="M17.5 1.70096V11.6242C17.5 12.7288 16.6046 13.6242 15.5 13.6242H3.5C2.39543 13.6242 1.5 12.7288 1.5 11.6242V1.70096H17.5ZM1.5 1.85456C1.5 1.6849 1.63754 1.54736 1.8072 1.54736H17.1928C17.3625 1.54736 17.5 1.6849 17.5 1.85456V1.85456L9.5 8.31664L1.5 1.85456V1.85456Z" stroke="#E3AC9C" stroke-width="1.5" stroke-linecap="round" stroke-linejoin="round"/></g></symbol><symbol id="phone" viewBox="0 0 15 19" fill="none"><g><path d="M5.42304 8.08479C5.7219 8.78214 6.12038 9.47948 6.51886 10.0772C6.91731 10.7745 7.4155 11.3723 7.81396 11.97C8.11281 12.3685 8.7105 12.4681 9.10896 12.1692L9.4078 11.8704C9.70676 11.6712 10.1052 11.7708 10.3044 11.97L13.4924 14.8591C13.7912 15.1579 13.7912 15.5564 13.4924 15.8552L13.3927 15.9548L11.1014 17.8476C10.7029 18.0469 10.2048 18.1465 9.70676 18.0469C9.00934 17.8476 8.31204 17.5488 7.71434 17.0507C6.22001 15.9548 4.72569 14.2613 3.43062 12.2688C2.13555 10.2764 1.33858 8.08479 1.03971 6.29161C0.740856 4.59807 1.03971 3.30299 1.73706 2.80488L4.12797 1.21094C4.22758 1.21094 4.22758 1.11133 4.32721 1.11133C4.72569 1.0117 5.12418 1.21094 5.2238 1.60944L6.51886 5.69389C6.61849 5.99275 6.51886 6.39124 6.22001 6.49086L5.82153 6.78972C5.42304 7.08859 5.2238 7.58668 5.42304 8.08479Z" stroke="#E3AC9C" stroke-width="1.5" stroke-miterlimit="10" stroke-linecap="round" stroke-linejoin="round"/></g></symbol><symbol id="lock-popup" viewBox="0 0 24 24" fill="none"><g><path d="M15.4999 9.74982V7.28967C15.4999 5.65445 13.9697 4.25 11.9996 4.25C10.0293 4.25 8.50005 5.65014 8.50005 7.28967V9.74982H15.4999ZM5.5 9.74982V19.7497H18.5V9.74982H5.5Z" stroke="#E3AC9C" stroke-width="1.5" stroke-miterlimit="10" stroke-linecap="round" stroke-linejoin="round"/><path d="M11.999 16.2193V13.2192" stroke="#E3AC9C" stroke-width="1.5" stroke-miterlimit="10" stroke-linecap="round" stroke-linejoin="round"/></g></symbol><symbol id="user-popup" viewBox="0 0 24 25" fill="none"><g><path d="M11.1796 13.1484H12.9709C16.3065 13.1484 19.0234 16.3417 19.0859 20.2714H5.08594C5.14765 16.3417 7.86537 13.1484 11.1796 13.1484Z" stroke="#E3AC9C" stroke-width="1.5" stroke-miterlimit="10" stroke-linecap="round" stroke-linejoin="round"/><path d="M9.26147 8.48139V6.51654C9.26147 5.01821 10.4652 3.81445 11.9636 3.81445C13.4619 3.81445 14.6656 5.01821 14.6656 6.51654V8.48139C14.6656 9.97972 13.4619 11.1835 11.9636 11.1835C10.4652 11.1835 9.26147 9.97972 9.26147 8.48139Z" stroke="#E3AC9C" stroke-width="1.5" stroke-miterlimit="10" stroke-linecap="round" stroke-linejoin="round"/></g></symbol><symbol id="email" viewBox="0 0 18 15" fill="none"><g><path d="M16.8203 1.70096V11.6242C16.8203 12.7288 15.9249 13.6242 14.8203 13.6242H2.82031C1.71574 13.6242 0.820312 12.7288 0.820312 11.6242V1.70096H16.8203ZM0.820312 1.85456C0.820312 1.6849 0.957851 1.54736 1.12751 1.54736H16.5131C16.6828 1.54736 16.8203 1.6849 16.8203 1.85456V1.85456L8.82031 8.31664L0.820312 1.85456V1.85456Z" stroke="white" stroke-width="1.5" stroke-linecap="round" stroke-linejoin="round"/></g></symbol><symbol id="wh" viewBox="0 0 17 16" fill="none"><g><path d="M13.9854 2.44531C12.5439 0.96875 10.5752 0.125 8.46582 0.125C4.17676 0.125 0.661133 3.64062 0.661133 7.92969C0.661133 9.33594 1.04785 10.6719 1.71582 11.832L0.625977 15.875L4.73926 14.8203C5.89941 15.418 7.16504 15.7695 8.46582 15.7695C12.79 15.7695 16.376 12.2539 16.376 7.96484C16.376 5.85547 15.4619 3.92188 13.9854 2.44531ZM8.46582 14.4336C7.30566 14.4336 6.18066 14.1172 5.16113 13.5195L4.9502 13.3789L2.48926 14.0469L3.15723 11.6562L2.98145 11.4102C2.34863 10.3555 1.99707 9.16016 1.99707 7.92969C1.99707 4.37891 4.91504 1.46094 8.50098 1.46094C10.2236 1.46094 11.8408 2.12891 13.0713 3.35938C14.3018 4.58984 15.04 6.20703 15.04 7.96484C15.04 11.5156 12.0518 14.4336 8.46582 14.4336ZM12.0518 9.58203C11.8408 9.47656 10.8916 9.01953 10.7158 8.94922C10.54 8.87891 10.3994 8.84375 10.2588 9.05469C10.1533 9.23047 9.7666 9.6875 9.66113 9.82812C9.52051 9.93359 9.41504 9.96875 9.23926 9.86328C8.0791 9.30078 7.34082 8.84375 6.56738 7.54297C6.35645 7.19141 6.77832 7.22656 7.12988 6.48828C7.2002 6.34766 7.16504 6.24219 7.12988 6.13672C7.09473 6.03125 6.67285 5.08203 6.53223 4.69531C6.35645 4.30859 6.21582 4.34375 6.0752 4.34375C5.96973 4.34375 5.8291 4.34375 5.72363 4.34375C5.58301 4.34375 5.37207 4.37891 5.19629 4.58984C5.02051 4.80078 4.52832 5.25781 4.52832 6.20703C4.52832 7.19141 5.19629 8.10547 5.30176 8.24609C5.40723 8.35156 6.67285 10.3203 8.6416 11.1641C9.87207 11.7266 10.3643 11.7617 10.9971 11.6562C11.3486 11.6211 12.1221 11.1992 12.2979 10.7422C12.4736 10.2852 12.4736 9.89844 12.4033 9.82812C12.3682 9.72266 12.2275 9.6875 12.0518 9.58203Z" fill="white"/></g></symbol><symbol id="save" viewBox="0 0 24 18" fill="none"><g><path d="M9.00587 9.41069L11.5705 7.04032C11.6731 6.94503 11.7601 6.92132 11.8839 6.9218C12.0086 6.92417 12.1306 6.97821 12.1972 7.04032L14.7619 9.41069M11.8839 1.23291C13.4938 1.23291 15.1079 1.85134 16.3357 3.09958C17.2883 4.06811 17.6229 5.51712 17.8365 6.77365C20.2743 7.17614 22.3757 9.07457 22.3757 11.6625C22.3757 14.5369 20.0738 16.8774 17.2464 16.8774H5.82196C3.37597 16.8774 1.39209 14.8604 1.39209 12.3737C1.39209 9.95255 3.5091 8.23214 5.86579 8.12926C5.79771 6.40435 6.14697 4.41395 7.43956 3.09958C8.66641 1.85229 10.274 1.23291 11.8839 1.23291ZM11.8699 13.5588V6.9218V13.5588Z" stroke="#FC8C5F" stroke-width="1.5" stroke-miterlimit="10" stroke-linecap="round" stroke-linejoin="round"/></g></symbol><symbol id="picture" viewBox="0 0 24 25" fill="none"><g><path d="M5.02714 12.9877V2.574C5.01812 2.07574 5.41503 1.66503 5.91329 1.65601C5.92019 1.65601 5.92762 1.65601 5.93452 1.65601H5.92921H22.0816C22.5799 1.65601 22.9837 2.05982 22.9837 2.55808L22.989 14.8157M22.989 14.8157L18.6538 11.8123C18.2669 11.548 17.7432 11.6218 17.4439 11.9821L16.9717 12.5605C16.613 13.0014 16.0807 13.2646 15.5124 13.2822C14.9436 13.3087 14.3923 13.0789 14.0107 12.656L9.87711 8.19339C9.69829 7.9944 9.43828 7.88881 9.17137 7.90685C8.905 7.91852 8.65772 8.04906 8.49747 8.26237L5.03244 12.8789V18.7158C5.03244 19.2141 5.43625 19.6179 5.93452 19.6179H22.0816C22.0885 19.6179 22.096 19.6179 22.1029 19.6179C22.6011 19.6089 22.998 19.1982 22.989 18.6999V14.8157ZM1.01025 6.6015V19.8673C1.01291 21.9564 2.70456 23.6502 4.79366 23.656H18.0595M16.6639 8.59137C18.0149 8.59137 19.1101 7.49614 19.1101 6.14515C19.1101 4.79416 18.0149 3.69894 16.6639 3.69894C15.3129 3.69894 14.2177 4.79416 14.2177 6.14515C14.2209 7.49508 15.314 8.58871 16.6639 8.59137Z" stroke="#FC8C5F" stroke-width="1.5" stroke-miterlimit="10" stroke-linecap="round" stroke-linejoin="round"/></g></symbol><symbol id="arrow-small" viewBox="0 0 115 73" fill="none"><g><path d="M112.907 48.9259C103.064 55.3136 91.92 59.4475 79.4772 61.3266C67.0323 63.2079 55.113 62.5604 43.718 59.3844C35.114 57.1306 27.6248 53.5095 21.2598 48.5307C14.8921 43.5485 9.83147 37.1306 6.07483 29.2766C2.32125 21.4229 0.909124 12.2326 1.84739 1.70215M91.4148 47.1085C94.448 47.3654 96.7289 47.5198 98.253 47.5748C99.7772 47.6298 101.724 47.6621 104.093 47.6814C105.559 47.6866 107.032 47.6721 108.496 47.5812C110.169 47.4774 115.312 47.8946 113.188 50.9246L112.956 51.4418C111.461 54.7811 109.418 57.9942 108.13 61.5057C106.907 64.8377 106.653 67.8329 106.68 71.3366" stroke="#FA7846" stroke-width="1.5" stroke-miterlimit="10" stroke-linecap="round" stroke-linejoin="round"/></g></symbol><symbol id="footer-mail" viewBox="0 0 18 14" fill="none"><g><path fill-rule="evenodd" clip-rule="evenodd" d="M0.608548 0.475162C0.794835 0.311007 1.03939 0.211426 1.3072 0.211426H16.6928C16.9606 0.211426 17.2052 0.311007 17.3915 0.475163C17.6065 0.607019 17.75 0.844267 17.75 1.11503V11.0382C17.75 12.557 16.5188 13.7882 15 13.7882H3C1.48122 13.7882 0.25 12.557 0.25 11.0382V1.11503C0.25 0.844267 0.393476 0.607018 0.608548 0.475162ZM1.75 2.83856V11.0382C1.75 11.7286 2.30964 12.2882 3 12.2882H15C15.6904 12.2882 16.25 11.7286 16.25 11.0382V2.83856L9.47128 8.31414C9.19634 8.53623 8.80366 8.53623 8.52872 8.31414L1.75 2.83856ZM2.9319 1.86503L9 6.76659L15.0681 1.86503H2.9319Z" fill="#FA7846"/></g></symbol><symbol id="footer-phone" viewBox="0 0 16 20" fill="none"><g><path fill-rule="evenodd" clip-rule="evenodd" d="M5.19867 2.28243C5.17473 2.29455 5.14942 2.30597 5.12274 2.31636L2.84507 3.83481C2.70624 3.93808 2.5295 4.18295 2.42864 4.66707C2.3282 5.14921 2.32055 5.79712 2.4579 6.57542L2.45914 6.58245L2.4591 6.58246C2.74079 8.27256 3.49947 10.3672 4.73905 12.2743C6.00183 14.217 7.43789 15.8337 8.83747 16.8601C8.84997 16.8692 8.86218 16.8788 8.87408 16.8887C9.35628 17.2905 9.93525 17.549 10.5604 17.7306C10.8372 17.7796 11.1264 17.7328 11.3759 17.6236L13.5672 15.8134L13.6071 15.7735L10.4869 12.9457L10.3189 13.1137C10.2938 13.1388 10.2669 13.1621 10.2386 13.1834C9.49221 13.7431 8.42836 13.5472 7.89356 12.8342C7.88523 12.8231 7.87722 12.8117 7.86952 12.8002C7.73264 12.5949 7.58651 12.3941 7.42683 12.1747C7.36574 12.0907 7.30266 12.004 7.23736 11.9133C7.0135 11.6024 6.77597 11.2607 6.56028 10.8861C6.14728 10.2643 5.73053 9.53465 5.41328 8.79438L5.40628 8.77748C5.05919 7.90975 5.4316 7.06852 6.05112 6.60387L6.05113 6.60386L6.44961 6.30501C6.45618 6.30008 6.46282 6.29527 6.46954 6.29057L5.19867 2.28243ZM6.48569 6.34143C6.48576 6.34217 6.48582 6.34325 6.48582 6.34464C6.48582 6.34749 6.48555 6.34903 6.48554 6.34905C6.48554 6.34907 6.48578 6.34767 6.48676 6.34465L6.48695 6.34521C6.48689 6.34502 6.48682 6.34483 6.48676 6.34464M6.62425 1.81559C6.40458 0.996243 5.60113 0.637017 4.88856 0.783383C4.8499 0.788605 4.81079 0.796535 4.77153 0.807527C4.69136 0.82997 4.62144 0.86213 4.56181 0.897904C4.53537 0.913764 4.51182 0.929822 4.49122 0.94507C4.45676 0.961101 4.42343 0.979794 4.39154 1.00105L2.00063 2.59499C1.99393 2.59947 1.98729 2.60405 1.98073 2.60873C1.4233 3.0069 1.10654 3.65859 0.960172 4.36114C0.811757 5.07353 0.819191 5.91867 0.980097 6.83255C1.29659 8.72813 2.13164 11.0152 3.48138 13.0917C4.80365 15.126 6.34941 16.8907 7.93212 18.0562C8.63269 18.6343 9.42945 18.9676 10.1803 19.1822C10.1998 19.1877 10.2194 19.1925 10.2393 19.1964C10.9244 19.3335 11.5917 19.1949 12.1164 18.9326C12.1671 18.9072 12.2149 18.8762 12.2586 18.84L14.55 16.9472C14.5683 16.9321 14.5859 16.9161 14.6027 16.8993L14.7023 16.7997L14.2127 16.3102L14.7023 16.7997C14.9722 16.5298 15.1461 16.1713 15.1461 15.7713C15.1461 15.3713 14.9722 15.0128 14.7023 14.7429C14.6936 14.7342 14.6847 14.7257 14.6756 14.7175L11.4982 11.8379C11.0922 11.4467 10.3152 11.2314 9.67148 11.6604C9.63035 11.6878 9.59202 11.7193 9.55707 11.7542L9.31477 11.9965C9.2928 12.0054 9.26141 12.0109 9.22067 12.0044C9.16646 11.9959 9.12512 11.9704 9.10073 11.9429C8.94974 11.7179 8.7831 11.489 8.62326 11.2694C8.56583 11.1904 8.50928 11.1127 8.45465 11.0369C8.2347 10.7314 8.02898 10.4331 7.84965 10.1193C7.84111 10.1043 7.83205 10.0897 7.8225 10.0753C7.44518 9.50935 7.07285 8.85651 6.79645 8.21388C6.76688 8.13615 6.7699 8.0719 6.78925 8.01386C6.81125 7.94785 6.86211 7.87063 6.95113 7.80386L7.27588 7.5603C7.62098 7.39468 7.81908 7.09111 7.90998 6.81841C8.01042 6.51709 8.0111 6.17888 7.91202 5.87705L6.62425 1.81559Z" fill="#FA7846"/></g></symbol><symbol id="map" viewBox="0 0 16 20" fill="none"><g><path d="M7.32466 18.3912C6.74597 17.5232 5.9744 16.4622 5.00993 15.112C3.85257 13.4724 3.081 12.315 2.79165 11.7363C2.21298 10.9647 1.82719 10.2896 1.6343 9.7109C1.44141 9.13227 1.44141 8.45713 1.44141 7.78201C1.44141 6.62465 1.73074 5.46728 2.30943 4.50282C2.8881 3.53835 3.65967 2.67033 4.72059 2.09165C5.68506 1.51298 6.84242 1.22363 7.99982 1.22363C9.1571 1.22363 10.3145 1.51298 11.2789 2.09165C12.2434 2.67033 13.1115 3.44191 13.6901 4.50282C14.2688 5.46728 14.5582 6.62465 14.5582 7.78201C14.5582 8.55358 14.4617 9.13227 14.2688 9.7109C14.0759 10.2896 13.6901 10.9647 13.2079 11.8327C12.8221 12.4114 12.0505 13.4724 10.9896 15.2084L8.67495 18.4876C8.48206 18.6805 8.28916 18.777 7.99982 18.777C7.71044 18.777 7.4211 18.6805 7.32466 18.3912ZM7.99982 10.4825C8.77131 10.4825 9.44644 10.1931 9.92868 9.7109C10.5074 9.13227 10.7003 8.55358 10.7003 7.78201C10.7003 7.01044 10.4109 6.3353 9.92868 5.85307C9.34999 5.2744 8.77131 4.98505 7.99982 4.98505C7.22821 4.98505 6.55308 5.2744 6.07085 5.85307C5.49216 6.3353 5.20283 7.01044 5.20283 7.78201C5.20283 8.55358 5.49216 9.13227 6.07085 9.7109C6.55308 10.2896 7.22821 10.4825 7.99982 10.4825Z" stroke="#FA7846" stroke-width="1.5" stroke-linecap="round" stroke-linejoin="round"/></g></symbol><symbol id="like" viewBox="0 0 31 27" fill="none"><g><path d="M9.89485 25.5732C10.4473 25.9482 11.7468 26.1586 12.4299 26.1586H23.7721C25.3328 26.1586 26.6034 24.8881 26.6034 23.3273C26.6034 23.0261 26.5565 22.7329 26.4647 22.4537C27.5777 22.0717 28.3795 21.0156 28.3795 19.775C28.3795 19.3721 28.2918 18.9762 28.1252 18.6121C28.8572 18.0876 29.315 17.2349 29.315 16.3124C29.315 15.5644 29.0248 14.8683 28.5231 14.3517C29.0248 13.8332 29.315 13.137 29.315 12.3901C29.315 10.8303 28.0444 9.56278 26.4837 9.56278H19.386V4.13755C19.386 2.49003 18.0457 1.14868 16.3971 1.14868H14.998C14.6469 1.14868 14.3617 1.43391 14.3617 1.78495V7.09749L9.6535 13.155" stroke="#FC8C5F" stroke-width="1.5" stroke-miterlimit="10" stroke-linecap="round" stroke-linejoin="round"/><path d="M9.90519 12.7708H1.31458V25.6377H9.90519V12.7708Z" stroke="#FC8C5F" stroke-width="1.5" stroke-miterlimit="10" stroke-linecap="round" stroke-linejoin="round"/></g></symbol><symbol id="log" viewBox="0 0 12 9" fill="none"><g><path d="M5.25016 8.875C5.01204 8.875 4.78213 8.7854 4.60627 8.6239L1.08233 5.386C0.695031 5.0301 0.66972 4.42799 1.02553 4.04001C1.38203 3.65409 1.9835 3.62808 2.37147 3.98322L5.18858 6.5725L10.068 1.18801C10.4211 0.797978 11.024 0.768558 11.414 1.12164C11.8033 1.47471 11.8334 2.07686 11.4797 2.46689L5.95632 8.563C5.78525 8.7505 5.54782 8.8627 5.29395 8.875C5.2789 8.875 5.26453 8.875 5.25016 8.875Z" fill="white"/></g></symbol><symbol id="plus" viewBox="0 0 16 17" fill="none"><g><rect y="0.760498" width="16" height="16" rx="8" fill="#FC8C5F"/><path d="M11.9284 8.22464V9.29607C11.9284 9.44488 11.8763 9.57137 11.7722 9.67554C11.668 9.7797 11.5415 9.83179 11.3927 9.83179H9.07129V12.1532C9.07129 12.302 9.01921 12.4285 8.91504 12.5327C8.81087 12.6368 8.68438 12.6889 8.53557 12.6889H7.46415C7.31534 12.6889 7.18885 12.6368 7.08468 12.5327C6.98052 12.4285 6.92843 12.302 6.92843 12.1532V9.83179H4.607C4.45819 9.83179 4.33171 9.7797 4.22754 9.67554C4.12337 9.57137 4.07129 9.44488 4.07129 9.29607V8.22464C4.07129 8.07583 4.12337 7.94935 4.22754 7.84518C4.33171 7.74101 4.45819 7.68893 4.607 7.68893H6.92843V5.3675C6.92843 5.21869 6.98052 5.0922 7.08468 4.98804C7.18885 4.88387 7.31534 4.83179 7.46415 4.83179H8.53557C8.68438 4.83179 8.81087 4.88387 8.91504 4.98804C9.01921 5.0922 9.07129 5.21869 9.07129 5.3675V7.68893H11.3927C11.5415 7.68893 11.668 7.74101 11.7722 7.84518C11.8763 7.94935 11.9284 8.07583 11.9284 8.22464Z" fill="white"/></g></symbol><symbol id="" fill="none"><g></g></symbol><symbol id="" fill="none"><g></g></symbol><symbol id="" fill="none"><g></g></symbol><symbol id="" fill="none"><g></g></symbol></svg>