<svg width="25" height="25" viewBox="0 0 25 25" fill="none" xmlns="http://www.w3.org/2000/svg">
<circle cx="12.5" cy="12.5" r="12.5" fill="white"/>
<circle cx="12.5" cy="12.5" r="12.5" fill="#02BC4D"/>
<g clip-path="url(#clip0_259_320)">
<path d="M11.3582 17.986C11.0865 17.986 10.8241 17.8837 10.6234 17.6994L6.60142 14.0039C6.1594 13.5978 6.13051 12.9105 6.53661 12.4677C6.94348 12.0273 7.62995 11.9976 8.07275 12.4029L11.2879 15.3581L16.857 9.21271C17.2599 8.76756 17.948 8.73398 18.3931 9.13696C18.8375 9.53993 18.8718 10.2272 18.4681 10.6723L12.1642 17.6299C11.9689 17.8438 11.698 17.9719 11.4082 17.986C11.391 17.986 11.3746 17.986 11.3582 17.986Z" fill="white"/>
</g>
<defs>
<clipPath id="clip0_259_320">
<rect width="12.5" height="9.13095" fill="white" transform="translate(6.25 8.85449)"/>
</clipPath>
</defs>
</svg>
