<svg width="63" height="53" viewBox="0 0 63 53" fill="none" xmlns="http://www.w3.org/2000/svg">
<path opacity="0.2" d="M43.6416 31.5929C43.6416 41.7008 35.4692 49.9252 25.4251 49.9252C15.3933 49.9252 7.23047 41.7008 7.23047 31.5929C7.23047 21.485 15.3933 13.2606 25.4251 13.2606C35.4692 13.2606 43.6416 21.485 43.6416 31.5929Z" fill="url(#paint0_linear_2733:186)"/>
<path d="M26.3282 16.5927C26.6625 16.6963 26.8048 16.7991 26.9209 16.9028C27.0091 17.0064 27.0807 17.1092 26.9689 17.2129C26.8554 17.3165 26.5752 17.4193 26.5228 17.523C26.4609 17.6266 26.5551 17.7294 26.7193 17.8331C26.8904 17.9367 27.0187 18.0395 27.0667 18.1432C27.133 18.2468 27.202 18.3496 27.1741 18.4533C27.0972 18.6597 26.8877 18.8662 26.3291 19.0735H26.1545C25.5958 18.867 25.3863 18.6606 25.3095 18.4533C25.2807 18.3496 25.3496 18.2468 25.4168 18.1432C25.464 18.0395 25.5932 17.9367 25.7643 17.8331C25.9284 17.7294 26.0227 17.6266 25.9607 17.523C25.9083 17.4193 25.6272 17.3165 25.5137 17.2129C25.4029 17.1092 25.4736 17.0064 25.5617 16.9028C25.6778 16.7991 25.8193 16.6963 26.1545 16.5927H26.3282Z" fill="#1E2533"/>
<path d="M18.0813 19.0368C18.4226 18.9577 18.5972 18.9753 18.7482 19.0069C18.8765 19.0517 18.9891 19.1053 18.9437 19.2511C18.8966 19.3979 18.7054 19.628 18.7115 19.744C18.7089 19.8652 18.8425 19.9065 19.0354 19.9135C19.2353 19.917 19.3977 19.9416 19.4902 20.0075C19.5993 20.0637 19.7102 20.1182 19.7372 20.2219C19.773 20.4397 19.6945 20.7235 19.3139 21.1838L19.1629 21.2717C18.5762 21.3736 18.2925 21.3007 18.1232 21.1601C18.0472 21.0846 18.0551 20.9607 18.0621 20.8377C18.0516 20.7244 18.1118 20.5698 18.2087 20.3949C18.2995 20.2228 18.3301 20.0857 18.2244 20.0277C18.1276 19.9645 17.8334 20.0163 17.6841 19.9838C17.5366 19.9504 17.5462 19.8248 17.5715 19.6913C17.6204 19.5437 17.692 19.3829 17.9303 19.1246L18.0813 19.0368Z" fill="#1E2533"/>
<path d="M12.5654 25.0625C12.822 24.8226 12.9818 24.7506 13.1284 24.7014C13.262 24.6759 13.3859 24.6654 13.4191 24.8147C13.4514 24.965 13.3999 25.261 13.4628 25.3585C13.5204 25.4648 13.6566 25.4332 13.8277 25.3427C14.0022 25.2452 14.155 25.1846 14.2676 25.1951C14.3898 25.189 14.5129 25.1802 14.588 25.2566C14.7268 25.427 14.8001 25.7126 14.6988 26.3029L14.6116 26.4549C14.1541 26.8388 13.8722 26.917 13.6557 26.8809C13.5527 26.8537 13.4977 26.7421 13.4427 26.6323C13.3772 26.5392 13.3528 26.3758 13.3493 26.1746C13.3423 25.9805 13.3013 25.8461 13.1808 25.8487C13.0656 25.8426 12.836 26.0358 12.6911 26.0824C12.5462 26.1281 12.4929 26.0139 12.4484 25.8856C12.417 25.7328 12.3995 25.5579 12.4781 25.2144L12.5654 25.0625Z" fill="#1E2533"/>
<path d="M10.7832 33.0555C10.8862 32.7191 10.9883 32.5759 11.0914 32.4591C11.1944 32.3703 11.2965 32.2983 11.3995 32.4107C11.5025 32.5249 11.6046 32.8069 11.7076 32.8596C11.8107 32.922 11.9128 32.8271 12.0158 32.662C12.1188 32.4898 12.2209 32.3607 12.3239 32.3123C12.4269 32.2456 12.5291 32.1762 12.6321 32.2043C12.8372 32.2816 13.0432 32.4924 13.2484 33.0547V33.2304C13.0432 33.7926 12.8372 34.0034 12.6321 34.0807C12.5291 34.1097 12.4269 34.0403 12.3239 33.9727C12.2209 33.9252 12.1188 33.7952 12.0158 33.623C11.9128 33.4579 11.8107 33.363 11.7076 33.4254C11.6046 33.4781 11.5025 33.761 11.3995 33.8752C11.2965 33.9867 11.1944 33.9156 11.0914 33.8269C10.9883 33.71 10.8862 33.5677 10.7832 33.2304V33.0555Z" fill="#1E2533"/>
<path d="M13.2121 40.8751C13.1336 40.5316 13.1519 40.3559 13.1824 40.2039C13.227 40.0748 13.2802 39.9615 13.4251 40.0072C13.5709 40.0546 13.7996 40.247 13.9148 40.2417C14.0353 40.2444 14.0763 40.11 14.0833 39.9158C14.0868 39.7146 14.1112 39.5512 14.1767 39.4581C14.2326 39.3483 14.2867 39.2367 14.3897 39.2095C14.6062 39.1735 14.8882 39.2525 15.3456 39.6364L15.4329 39.7884C15.5341 40.3788 15.4608 40.6643 15.322 40.8347C15.2469 40.9111 15.1239 40.9023 15.0016 40.8962C14.889 40.9067 14.7363 40.8461 14.5617 40.7486C14.3906 40.6572 14.2544 40.6265 14.1968 40.7328C14.1339 40.8303 14.1854 41.1264 14.1531 41.2766C14.12 41.425 13.9951 41.4154 13.8625 41.389C13.7158 41.3398 13.5561 41.2678 13.2994 41.028L13.2121 40.8751Z" fill="#1E2533"/>
<path d="M19.2 46.4243C18.9617 46.166 18.8901 46.0053 18.8412 45.8577C18.8159 45.7233 18.8054 45.5985 18.9538 45.5652C19.1031 45.5327 19.3973 45.5845 19.4942 45.5212C19.5998 45.4633 19.5684 45.3262 19.4785 45.154C19.3816 44.9783 19.3213 44.8246 19.3318 44.7104C19.3257 44.5874 19.317 44.4635 19.3929 44.388C19.5623 44.2474 19.846 44.1736 20.4326 44.2764L20.5836 44.3643C20.9651 44.8246 21.0428 45.1083 21.007 45.3262C20.9799 45.4299 20.869 45.4852 20.7599 45.5406C20.6674 45.6064 20.505 45.631 20.3051 45.6346C20.1122 45.6416 19.9787 45.6838 19.9813 45.8041C19.9752 45.9201 20.1672 46.1511 20.2143 46.2969C20.2597 46.4428 20.1463 46.4964 20.0188 46.5412C19.8669 46.5728 19.6932 46.5904 19.3519 46.5113L19.2 46.4243Z" fill="#1E2533"/>
<path d="M26.3282 45.7374C26.6625 45.8411 26.8048 45.9439 26.9209 46.0475C27.0091 46.1512 27.0807 46.254 26.9689 46.3576C26.8554 46.4613 26.5752 46.5641 26.5228 46.6677C26.4609 46.7714 26.5551 46.8742 26.7193 46.9779C26.8904 47.0815 27.0187 47.1843 27.0667 47.288C27.133 47.3916 27.202 47.4944 27.1741 47.5981C27.0972 47.8045 26.8877 48.011 26.3291 48.2183H26.1545C25.5958 48.0118 25.3863 47.8054 25.3095 47.5981C25.2807 47.4944 25.3496 47.3916 25.4168 47.288C25.464 47.1843 25.5932 47.0815 25.7643 46.9779C25.9284 46.8742 26.0227 46.7714 25.9607 46.6677C25.9083 46.5641 25.6272 46.4613 25.5137 46.3576C25.4029 46.254 25.4736 46.1512 25.5617 46.0475C25.6778 45.9439 25.8193 45.8411 26.1545 45.7374H26.3282Z" fill="#1E2533"/>
<path d="M32.5607 44.2766C32.902 44.1975 33.0766 44.2159 33.2276 44.2467C33.3559 44.2915 33.4685 44.3451 33.4231 44.4909C33.376 44.6376 33.1848 44.8678 33.1901 44.9837C33.1874 45.105 33.321 45.1463 33.5139 45.1533C33.7138 45.1568 33.8762 45.1814 33.9687 45.2473C34.0778 45.3035 34.1887 45.358 34.2158 45.4616C34.2516 45.6795 34.173 45.9633 33.7924 46.4236L33.6414 46.5114C33.0548 46.6133 32.7711 46.5395 32.6017 46.3999C32.5258 46.3243 32.5336 46.2004 32.5406 46.0775C32.5301 45.9641 32.5904 45.8095 32.6873 45.6338C32.778 45.4616 32.8086 45.3246 32.703 45.2666C32.6061 45.2034 32.3119 45.2552 32.1626 45.2227C32.0151 45.1893 32.0247 45.0637 32.05 44.9302C32.0989 44.7826 32.1705 44.6218 32.4088 44.3635L32.5607 44.2766Z" fill="#1E2533"/>
<path d="M37.6455 39.6355C37.9021 39.3957 38.0619 39.3228 38.2085 39.2744C38.3421 39.249 38.466 39.2384 38.4992 39.3869C38.5315 39.5371 38.48 39.8332 38.5428 39.9307C38.6005 40.037 38.7366 40.0053 38.9077 39.9149C39.0823 39.8173 39.2351 39.7567 39.3477 39.7673C39.4699 39.7611 39.593 39.7523 39.6681 39.8288C39.8069 39.9992 39.8802 40.2847 39.7789 40.875L39.6916 41.027C39.2342 41.4109 38.9522 41.49 38.7358 41.454C38.6328 41.4267 38.5778 41.3152 38.5228 41.2053C38.4573 41.1122 38.4328 40.9488 38.4294 40.7477C38.4224 40.5535 38.3805 40.4191 38.2609 40.4217C38.1457 40.4156 37.9161 40.6089 37.7712 40.6563C37.6263 40.702 37.573 40.5878 37.5285 40.4595C37.4971 40.3067 37.4796 40.1318 37.5582 39.7884L37.6455 39.6355Z" fill="#1E2533"/>
<path d="M39.7441 33.0555C39.8471 32.7191 39.9493 32.5759 40.0523 32.4591C40.1553 32.3703 40.2574 32.2983 40.3604 32.4107C40.4634 32.5249 40.5656 32.8069 40.6686 32.8596C40.7716 32.922 40.8737 32.8271 40.9767 32.662C41.0797 32.4898 41.1819 32.3607 41.2849 32.3123C41.3879 32.2456 41.49 32.1762 41.593 32.2043C41.7982 32.2816 42.0042 32.4924 42.2093 33.0547V33.2304C42.0042 33.7926 41.7982 34.0034 41.593 34.0807C41.49 34.1097 41.3879 34.0403 41.2849 33.9727C41.1819 33.9252 41.0797 33.7952 40.9767 33.623C40.8737 33.4579 40.7716 33.363 40.6686 33.4254C40.5656 33.4781 40.4634 33.761 40.3604 33.8752C40.2574 33.9867 40.1553 33.9156 40.0523 33.8269C39.9493 33.71 39.8471 33.5677 39.7441 33.2304V33.0555Z" fill="#1E2533"/>
<path d="M38.2942 26.3026C38.2156 25.9591 38.2339 25.7834 38.2645 25.6315C38.309 25.5023 38.3622 25.389 38.5071 25.4347C38.6529 25.4821 38.8816 25.6745 38.9969 25.6684C39.1173 25.671 39.1584 25.5366 39.1653 25.3424C39.1688 25.1413 39.1933 24.9779 39.2588 24.8847C39.3146 24.7749 39.3687 24.6634 39.4717 24.6361C39.6882 24.6001 39.9702 24.6792 40.4276 25.0622L40.5149 25.2142C40.6162 25.8045 40.5428 26.09 40.4041 26.2605C40.329 26.3369 40.2059 26.329 40.0837 26.322C39.9711 26.3325 39.8174 26.2719 39.6437 26.1744C39.4726 26.083 39.3364 26.0523 39.2788 26.1586C39.216 26.2561 39.2675 26.5521 39.2352 26.7023C39.202 26.8508 39.0772 26.8411 38.9445 26.8157C38.7978 26.7665 38.6381 26.6944 38.3814 26.4546L38.2942 26.3026Z" fill="#1E2533"/>
<path d="M33.6805 21.1836C33.4421 20.9253 33.3706 20.7646 33.3217 20.617C33.2964 20.4826 33.2859 20.3578 33.4343 20.3245C33.5836 20.2919 33.8777 20.3438 33.9746 20.2805C34.0803 20.2225 34.0488 20.0855 33.9589 19.9133C33.862 19.7376 33.8018 19.5839 33.8123 19.4706C33.8062 19.3476 33.7974 19.2237 33.8734 19.1482C34.0427 19.0085 34.3264 18.9347 34.913 19.0366L35.0641 19.1244C35.4455 19.5848 35.5232 19.8685 35.4874 20.0864C35.4604 20.19 35.3495 20.2454 35.2404 20.3007C35.1479 20.3666 34.9855 20.3912 34.7856 20.3947C34.5927 20.4018 34.4591 20.443 34.4617 20.5643C34.4556 20.6802 34.6477 20.9113 34.6939 21.0571C34.7393 21.2029 34.6258 21.2565 34.4984 21.3013C34.3465 21.333 34.1728 21.3505 33.8315 21.2715L33.6805 21.1836Z" fill="#1E2533"/>
<path d="M26.3293 21.2277C26.7151 22.158 26.8792 23.0892 26.977 24.0204C27.0765 24.9516 27.0722 25.8828 26.8199 26.8148C26.5772 27.7469 26.455 28.679 26.572 29.6102C26.6584 30.5414 26.9587 31.4717 27.0399 32.4029L27.073 32.7842L26.7483 33.0091C26.6881 33.0512 26.7518 33.1549 26.8216 32.8316C26.8443 32.6638 26.7404 32.46 26.6654 32.3967C26.5903 32.3221 26.5528 32.308 26.5301 32.2931C26.4096 32.2694 26.6523 32.2641 26.8042 32.2527L27.2886 32.221C27.9346 32.1815 28.5806 32.1991 29.2266 32.2579C30.5185 32.3809 31.8096 32.5821 33.1015 33.0565V33.2322C31.8096 33.7074 30.5185 33.9077 29.2266 34.0307C28.5806 34.0896 27.9346 34.1072 27.2886 34.0676L26.8042 34.036C26.6339 34.0114 26.5493 34.0509 26.1128 33.9517C25.9347 33.8972 25.7444 33.8155 25.5489 33.6319C25.3533 33.4615 25.1726 33.0969 25.2049 32.7666C25.2992 32.1112 25.6213 31.9619 25.8029 31.8038L25.5122 32.4099C25.5873 31.4778 25.8823 30.5458 25.9626 29.6137C26.0744 28.6816 25.9452 27.7504 25.6973 26.8201C25.4389 25.8898 25.4293 24.9577 25.5227 24.0265C25.6152 23.0944 25.7732 22.1624 26.1529 21.2303L26.3293 21.2277Z" fill="url(#paint1_linear_2733:186)"/>
<path d="M46.1628 32.4055C46.1515 37.5701 44.3235 42.813 40.7209 46.7266C37.182 50.6789 31.8196 52.9876 26.4929 52.8523C23.8348 52.7803 21.2064 52.1618 18.8145 51.0681C16.4218 49.97 14.2691 48.4098 12.4525 46.5404C8.81761 42.8042 6.58114 37.7046 6.43798 32.4055C6.2468 27.1153 8.3113 21.7179 12.0719 17.8876C13.9383 15.9664 16.1852 14.4115 18.6521 13.3494C21.1173 12.2803 23.8121 11.7558 26.4937 11.7532C29.1745 11.7883 31.8606 12.3259 34.3074 13.417C36.763 14.4861 38.9611 16.1043 40.7401 18.066C44.3314 21.9946 46.1707 27.2374 46.1628 32.4055ZM45.9882 32.4055C45.9664 29.8377 45.4295 27.2716 44.3558 24.9595C43.2891 22.6473 41.7719 20.5697 39.9274 18.883C36.2314 15.5228 31.3909 13.5822 26.4929 13.627C21.6088 13.6331 16.7491 15.5807 13.2338 19.056C9.71237 22.512 7.55097 27.3595 7.39384 32.4055C7.33885 34.9198 7.73604 37.4735 8.68405 39.8314C9.6146 42.1936 11.0515 44.3556 12.8541 46.138C16.4785 49.7214 21.5695 51.5425 26.4937 51.3896C31.4389 51.2868 36.2541 49.3296 39.9475 45.9465C41.7868 44.2502 43.3039 42.1708 44.3707 39.8568C45.4418 37.542 45.9743 34.9725 45.9882 32.4055Z" fill="#1E2533"/>
<path d="M31.2962 4.11734C32.0966 3.17121 32.9504 2.29096 33.812 1.42038L34.1096 2.25407C32.2887 2.45173 30.4154 2.4816 28.6835 2.66959C26.9288 2.85759 25.2188 3.24676 23.6073 3.86873C22.002 4.50299 20.4979 5.38412 19.2112 6.56305C17.9254 7.73934 16.8307 9.18709 16.0625 10.8799C16.2231 9.00348 17.0908 7.19907 18.3068 5.69949C19.5438 4.20431 21.177 3.02802 22.964 2.28482C24.7448 1.51438 26.6635 1.13751 28.556 1.0523C29.5023 1.00047 30.4608 1.03824 31.3634 1.10149C32.2791 1.15157 33.1939 1.22624 34.1096 1.31321L35.4531 1.44059L34.4073 2.14689C33.393 2.83123 32.3725 3.50767 31.2962 4.11734Z" fill="url(#paint2_linear_2733:186)"/>
<path d="M41.2065 7.32388C41.492 6.59474 42.0375 6.00439 42.5517 5.43074C43.0921 4.87554 43.6525 4.33351 44.2609 3.85034C44.8659 3.35663 45.4996 2.89982 46.1203 2.47463C46.7471 2.0433 47.3642 1.59702 47.998 1.17799L48.2398 2.56072L45.6218 2.10567C44.7323 1.91943 43.9554 1.80786 43.1209 1.75339C42.3038 1.74197 41.4955 1.76394 40.7133 1.92909C39.9294 2.08634 39.1891 2.38766 38.4751 2.76629C37.0443 3.53848 35.8344 4.77012 34.5015 5.98858C33.8293 6.58947 33.1021 7.19474 32.2432 7.59533C31.3894 8.0091 30.4248 8.11803 29.5449 7.9889C30.4336 7.85712 31.248 7.53823 31.9211 7.03749C32.5941 6.53412 33.158 5.89195 33.7228 5.2243C34.8332 3.8846 36.0073 2.40084 37.6624 1.37477C39.2913 0.306526 41.3244 -0.0905501 43.2134 0.0175038C45.1504 0.169482 46.8151 0.686911 48.5436 1.08223L50.4291 1.51269L48.7854 2.46497C48.128 2.84535 47.4541 3.19938 46.7898 3.56835C46.1203 3.94434 45.4516 4.27114 44.8144 4.6524C44.1762 5.03718 43.5329 5.42635 42.921 5.86208C42.3151 6.30132 41.677 6.72212 41.2065 7.32388Z" fill="url(#paint3_linear_2733:186)"/>
<path d="M49.1129 24.5095C50.0819 24.3944 50.8073 23.6864 51.3668 22.9722C51.6453 22.6015 51.8819 22.2017 52.0835 21.788C52.1953 21.5719 52.245 21.3944 52.396 21.1151C52.5409 20.8752 52.7077 20.6565 52.891 20.4729C53.6234 19.7191 54.4876 19.2245 55.3736 18.7633C56.3155 18.3136 57.164 18.0219 58.0693 17.6591L57.8493 18.7467L55.9323 17.1065C55.3073 16.5882 54.6604 16.1024 53.9778 15.6825C52.6178 14.8383 51.1233 14.2435 49.5983 13.9817L47.6062 13.64L49.2395 12.447C49.8209 12.0227 50.4686 11.811 51.084 11.7012C51.393 11.6458 51.6985 11.616 52.0006 11.6037L52.7609 11.5527C53.7639 11.4631 54.7547 11.2611 55.7027 10.9343C56.6499 10.6163 57.5612 10.1524 58.3495 9.59457C58.4437 9.52605 58.5424 9.45402 58.6148 9.39252L58.9221 9.12898L59.5367 8.60276L60.7649 7.54946L61.1691 8.89266C59.8518 8.67656 58.5825 8.50174 57.2181 8.19866C55.8764 7.89822 54.5801 7.3764 53.3859 6.80011C52.1891 6.23963 51.0334 5.71606 49.758 5.63084C49.1234 5.5878 48.4844 5.60449 47.869 5.79073C47.2527 5.96467 46.6704 6.28883 46.1152 6.65516C46.6023 6.20801 47.1235 5.76437 47.7564 5.48589C48.3823 5.19863 49.0806 5.06773 49.765 5.03698C51.1573 4.96407 52.5357 5.39804 53.7665 5.86013C55.0087 6.31518 56.2186 6.68854 57.4765 6.89762C58.7126 7.08825 60.0779 7.18752 61.3768 7.36146L62.9961 7.57757L61.7819 8.70467L60.5947 9.80541L60.0011 10.3562L59.7043 10.6312C59.5751 10.7498 59.459 10.8411 59.3394 10.936C58.3853 11.6476 57.3526 12.1703 56.2675 12.5577C55.1833 12.9416 54.0555 13.2043 52.9137 13.2965L52.0634 13.3431C51.8269 13.3501 51.5955 13.3703 51.3747 13.4063C50.9321 13.4775 50.5332 13.6198 50.2381 13.8298L49.8793 12.2959C51.6802 12.6095 53.3528 13.3677 54.8184 14.3639C55.5534 14.862 56.2483 15.4093 56.8882 16.0119L58.7152 17.7917L59.5035 18.5595L58.4953 18.8793L57.1274 19.3133C56.6586 19.4582 56.2178 19.5777 55.8031 19.7429C54.9572 20.0793 54.1114 20.5045 53.4296 21.0527C53.2559 21.1888 53.1153 21.3426 52.9914 21.499C52.8919 21.6298 52.76 21.9004 52.6274 22.0972C52.3611 22.5215 52.0503 22.916 51.6977 23.2673C51.0124 23.9543 50.0993 24.5675 49.1129 24.5095Z" fill="url(#paint4_linear_2733:186)"/>
<path d="M3.42686 8.67749C4.07982 8.70384 4.83404 8.69594 5.58215 9.10443C6.32502 9.49624 6.77546 10.4222 6.64714 11.2734C6.52929 12.1449 5.92609 12.7914 5.38836 13.2465C4.83841 13.7165 4.20727 14.0907 3.42774 14.2612C1.81978 14.7048 -0.070129 13.1314 0.00407084 11.2725C0.0197837 10.8245 0.133266 10.3756 0.344517 9.98731C0.558387 9.59814 0.89185 9.29067 1.25587 9.08686C2.01445 8.68627 2.77129 8.68452 3.42686 8.67749ZM3.42686 8.85319C2.77565 8.84265 2.23618 9.38028 2.07556 9.91264C1.90708 10.4485 1.85208 10.8579 1.8678 11.2725C1.8966 11.6802 1.98215 12.0922 2.2484 12.4585C2.5225 12.7994 2.89524 13.1226 3.42686 13.2992C3.95325 13.4749 4.6193 13.3089 4.98943 12.845C5.37876 12.3742 5.31241 11.7162 5.1902 11.2725C5.06624 10.8087 4.97982 10.4301 4.79563 9.89507C4.62279 9.37062 4.0807 8.82332 3.42686 8.85319Z" fill="url(#paint5_linear_2733:186)"/>
<path d="M50.1867 29.2051C50.6625 29.1656 51.0082 29.257 51.325 29.3773C51.634 29.5056 51.8942 29.683 52.1133 29.9018C52.3324 30.1205 52.5087 30.3823 52.6362 30.6933C52.7566 31.0113 52.8457 31.3609 52.8055 31.8406C52.3289 31.881 51.9815 31.7914 51.6655 31.6702C51.3565 31.5419 51.0963 31.3645 50.879 31.144C50.6616 30.9235 50.4853 30.6617 50.3578 30.3507C50.2382 30.0318 50.1483 29.6839 50.1867 29.2051Z" fill="url(#paint6_linear_2733:186)"/>
<path d="M54.6382 31.8408C54.5989 31.3621 54.6897 31.0142 54.8093 30.6953C54.9367 30.3843 55.1131 30.1225 55.3304 29.902C55.5478 29.6815 55.8079 29.5041 56.117 29.3758C56.433 29.2546 56.7804 29.165 57.257 29.2054C57.2972 29.685 57.2081 30.0347 57.0877 30.3527C56.9602 30.6637 56.7839 30.9255 56.5648 31.1442C56.3457 31.3629 56.0855 31.5404 55.7765 31.6687C55.4605 31.789 55.1139 31.8804 54.6382 31.8408Z" fill="url(#paint7_linear_2733:186)"/>
<path d="M52.8044 33.6855C52.8437 34.1643 52.7529 34.5121 52.6333 34.831C52.5058 35.142 52.3295 35.4038 52.1121 35.6243C51.8948 35.8448 51.6346 36.0223 51.3256 36.1505C51.0096 36.2718 50.6622 36.3614 50.1855 36.321C50.1454 35.8413 50.2344 35.4917 50.3549 35.1736C50.4823 34.8627 50.6587 34.6009 50.8778 34.3821C51.0969 34.1634 51.357 33.9859 51.6661 33.8577C51.9829 33.7373 52.3295 33.646 52.8044 33.6855Z" fill="url(#paint8_linear_2733:186)"/>
<path d="M57.2575 36.3208C56.7817 36.3604 56.4361 36.269 56.1192 36.1486C55.8102 36.0204 55.55 35.8429 55.3309 35.6242C55.1118 35.4054 54.9355 35.1437 54.808 34.8327C54.6876 34.5147 54.5985 34.165 54.6387 33.6854C55.1153 33.645 55.4627 33.7346 55.7787 33.8558C56.0877 33.984 56.3479 34.1615 56.5652 34.382C56.7826 34.6025 56.9589 34.8643 57.0864 35.1753C57.2069 35.4942 57.2968 35.842 57.2575 36.3208Z" fill="url(#paint9_linear_2733:186)"/>
<path d="M4.21197 19.2687C4.44679 19.5437 4.86493 19.7817 5.10848 20.3071C5.35727 20.8175 5.14602 21.4992 4.6659 21.8014C4.17705 22.1238 3.58782 22.0307 3.18103 21.9709C2.75678 21.905 2.33864 21.8488 1.87337 21.623C0.862505 21.2084 0.624192 19.512 1.55213 18.6678C1.77385 18.4658 2.04534 18.3129 2.33341 18.2453C2.6206 18.1794 2.92788 18.2259 3.18103 18.3489C3.70567 18.5958 3.95096 19.0192 4.21197 19.2687ZM4.08889 19.3934C3.84272 19.1299 3.37482 19.2555 3.18103 19.505C2.97851 19.7765 2.94359 19.8977 2.87026 19.9943C2.81352 20.0954 2.70615 20.1542 2.63457 20.3071C2.59005 20.4476 2.50538 20.6488 2.54902 20.9431C2.59092 21.2312 2.8851 21.4728 3.18103 21.4043C3.49354 21.3472 3.6175 20.9563 3.63583 20.7656C3.66551 20.5574 3.75019 20.5214 3.99636 20.308C4.24165 20.1085 4.36386 19.6289 4.08889 19.3934Z" fill="url(#paint10_linear_2733:186)"/>
<defs>
<linearGradient id="paint0_linear_2733:186" x1="7.22994" y1="31.5928" x2="43.6413" y2="31.5928" gradientUnits="userSpaceOnUse">
<stop offset="1.58946e-07" stop-color="#FC8C5F"/>
<stop offset="1" stop-color="#FA7846"/>
</linearGradient>
<linearGradient id="paint1_linear_2733:186" x1="25.1401" y1="27.6577" x2="33.1022" y2="27.6577" gradientUnits="userSpaceOnUse">
<stop offset="1.58946e-07" stop-color="#FC8C5F"/>
<stop offset="1" stop-color="#FA7846"/>
</linearGradient>
<linearGradient id="paint2_linear_2733:186" x1="15.2084" y1="5.95408" x2="36.5412" y2="5.95408" gradientUnits="userSpaceOnUse">
<stop offset="1.58946e-07" stop-color="#FC8C5F"/>
<stop offset="1" stop-color="#FA7846"/>
</linearGradient>
<linearGradient id="paint3_linear_2733:186" x1="29.5444" y1="4.02007" x2="50.7246" y2="4.02007" gradientUnits="userSpaceOnUse">
<stop offset="1.58946e-07" stop-color="#FC8C5F"/>
<stop offset="1" stop-color="#FA7846"/>
</linearGradient>
<linearGradient id="paint4_linear_2733:186" x1="45.5882" y1="14.7714" x2="63.2749" y2="14.7714" gradientUnits="userSpaceOnUse">
<stop offset="1.58946e-07" stop-color="#FC8C5F"/>
<stop offset="1" stop-color="#FA7846"/>
</linearGradient>
<linearGradient id="paint5_linear_2733:186" x1="0.062034" y1="11.5076" x2="6.79135" y2="11.5076" gradientUnits="userSpaceOnUse">
<stop offset="1.58946e-07" stop-color="#FC8C5F"/>
<stop offset="1" stop-color="#FA7846"/>
</linearGradient>
<linearGradient id="paint6_linear_2733:186" x1="49.314" y1="30.5232" x2="53.6787" y2="30.5232" gradientUnits="userSpaceOnUse">
<stop offset="1.58946e-07" stop-color="#FC8C5F"/>
<stop offset="1" stop-color="#FA7846"/>
</linearGradient>
<linearGradient id="paint7_linear_2733:186" x1="53.7655" y1="30.5228" x2="58.1302" y2="30.5228" gradientUnits="userSpaceOnUse">
<stop offset="1.58946e-07" stop-color="#FC8C5F"/>
<stop offset="1" stop-color="#FA7846"/>
</linearGradient>
<linearGradient id="paint8_linear_2733:186" x1="49.3129" y1="35.0036" x2="53.6776" y2="35.0036" gradientUnits="userSpaceOnUse">
<stop offset="1.58946e-07" stop-color="#FC8C5F"/>
<stop offset="1" stop-color="#FA7846"/>
</linearGradient>
<linearGradient id="paint9_linear_2733:186" x1="53.766" y1="35.0027" x2="58.1307" y2="35.0027" gradientUnits="userSpaceOnUse">
<stop offset="1.58946e-07" stop-color="#FC8C5F"/>
<stop offset="1" stop-color="#FA7846"/>
</linearGradient>
<linearGradient id="paint10_linear_2733:186" x1="1.43175" y1="18.8729" x2="4.62595" y2="22.047" gradientUnits="userSpaceOnUse">
<stop offset="1.58946e-07" stop-color="#FC8C5F"/>
<stop offset="1" stop-color="#FA7846"/>
</linearGradient>
</defs>
</svg>
