<svg width="17" height="16" viewBox="0 0 17 16" fill="none" xmlns="http://www.w3.org/2000/svg">
<g clip-path="url(#clip0_1775:396)">
<path d="M8.84181 4C9.40837 4 9.86745 4.45921 9.86745 5.02564C9.86745 5.59207 9.40837 6.05128 8.84181 6.05128C8.27525 6.05128 7.81617 5.59207 7.81617 5.02564C7.81617 4.45921 8.27525 4 8.84181 4ZM8.49993 6.52991C9.52557 6.52991 9.77432 7.13504 9.65945 7.88157L9.18369 10.9744C9.18369 10.9744 9.52557 10.9744 10.2093 10.6325C10.2093 10.6325 9.86745 12 8.49993 12C7.47429 12 7.22554 11.3949 7.34041 10.6483L7.81617 7.55556C7.81617 7.55556 7.47429 7.55556 6.79053 7.89744C6.79053 7.89744 7.13241 6.52991 8.49993 6.52991Z" fill="#FA7846"/>
</g>
<circle cx="8.5" cy="8" r="7.4" stroke="#FA7846" stroke-width="1.2"/>
<defs>
<clipPath id="clip0_1775:396">
<rect width="3.4188" height="8" fill="white" transform="translate(6.79053 4)"/>
</clipPath>
</defs>
</svg>
