<svg width="116" height="166" viewBox="0 0 116 166" fill="none" xmlns="http://www.w3.org/2000/svg">
<path fill-rule="evenodd" clip-rule="evenodd" d="M99.7083 123.2C97.2282 139.535 91.115 153.472 81.3623 164.995C81.1081 165.295 80.5659 165.295 80.1514 164.995C79.7369 164.695 79.607 164.208 79.8613 163.907C89.4735 152.55 95.5098 138.804 97.9609 122.659C100.416 106.512 98.9238 90.3623 93.4954 74.2006L93.4913 74.1886C89.6208 62.0343 83.6608 51.0007 75.6349 41.0928C67.6129 31.1918 57.3981 22.6174 44.9716 15.3654C32.6033 8.15113 18.2126 3.65093 1.76123 1.90836C1.27813 1.85719 0.841545 1.47383 0.786096 1.05211C0.73066 0.63039 1.07733 0.329994 1.56044 0.381167C18.2589 2.14991 32.9782 6.73098 45.6904 14.1458C58.3454 21.5312 68.7859 30.2872 76.9938 40.4178C85.1857 50.5305 91.2505 61.7705 95.1812 74.1111C100.685 90.5011 102.191 106.866 99.7083 123.2Z" fill="#FA7846"/>
<path fill-rule="evenodd" clip-rule="evenodd" d="M115.958 162.063C115.967 162.478 115.58 162.74 115.094 162.649C109.618 161.618 105.021 161.12 99.9514 161.794C97.262 162.152 94.684 162.781 92.1049 163.462C91.6063 163.593 91.107 163.727 90.6067 163.861C88.5341 164.416 86.4457 164.975 84.3243 165.406L83.5913 165.555C82.3116 166.081 81.0681 166.084 79.9474 165.454C78.8814 164.855 78.218 163.836 77.7952 162.877C76.9373 160.933 76.7444 158.492 76.7951 157.326C76.8787 155.402 76.8433 153.441 76.7764 151.467C76.6512 148.271 76.5225 145.645 76.3754 143.585C76.2289 141.533 75.8958 138.428 75.3693 134.267C75.3159 133.846 75.6645 133.547 76.1479 133.6C76.6312 133.653 77.0663 134.038 77.1196 134.459C77.647 138.626 77.9838 141.761 78.133 143.851C78.2817 145.932 78.4111 148.576 78.5364 151.777L78.5365 151.78C78.6038 153.765 78.6406 155.765 78.5548 157.739C78.5088 158.798 78.6997 160.998 79.4235 162.639C79.7915 163.473 80.2185 163.983 80.632 164.215C80.9705 164.405 81.5708 164.554 82.614 164.11C82.6589 164.091 82.7068 164.077 82.7572 164.066L83.5638 163.902C85.6329 163.481 87.6634 162.938 89.732 162.384C90.2374 162.249 90.7451 162.113 91.2563 161.978C93.8447 161.295 96.5042 160.643 99.3031 160.271C104.648 159.56 109.481 160.096 115.062 161.147C115.549 161.238 115.95 161.649 115.958 162.063Z" fill="#FA7846"/>
</svg>
