<svg width="52" height="53" viewBox="0 0 52 53" fill="none" xmlns="http://www.w3.org/2000/svg">
<path fill-rule="evenodd" clip-rule="evenodd" d="M26 50.7119C39.2548 50.7119 50 39.9667 50 26.7119C50 13.4571 39.2548 2.71191 26 2.71191C12.7452 2.71191 2 13.4571 2 26.7119C2 39.9667 12.7452 50.7119 26 50.7119ZM26 52.7119C40.3594 52.7119 52 41.0713 52 26.7119C52 12.3525 40.3594 0.711914 26 0.711914C11.6406 0.711914 0 12.3525 0 26.7119C0 41.0713 11.6406 52.7119 26 52.7119Z" fill="url(#paint0_linear_27_158)"/>
<path d="M26 15.7119C19.9234 15.7119 15 20.6353 15 26.7119C15 32.7885 19.9234 37.7119 26 37.7119C32.0766 37.7119 37 32.7885 37 26.7119C37 20.6353 32.0766 15.7119 26 15.7119ZM28.5327 31.2405L24.6206 28.3974C24.4831 28.2954 24.4032 28.1357 24.4032 27.9672V20.5022C24.4032 20.2095 24.6427 19.97 24.9355 19.97H27.0645C27.3573 19.97 27.5968 20.2095 27.5968 20.5022V26.6099L30.4133 28.6591C30.6528 28.8321 30.7016 29.1647 30.5286 29.4043L29.2778 31.1252C29.1048 31.3603 28.7722 31.4135 28.5327 31.2405Z" fill="black"/>
<path d="M26 15.7119C19.9234 15.7119 15 20.6353 15 26.7119C15 32.7885 19.9234 37.7119 26 37.7119C32.0766 37.7119 37 32.7885 37 26.7119C37 20.6353 32.0766 15.7119 26 15.7119ZM28.5327 31.2405L24.6206 28.3974C24.4831 28.2954 24.4032 28.1357 24.4032 27.9672V20.5022C24.4032 20.2095 24.6427 19.97 24.9355 19.97H27.0645C27.3573 19.97 27.5968 20.2095 27.5968 20.5022V26.6099L30.4133 28.6591C30.6528 28.8321 30.7016 29.1647 30.5286 29.4043L29.2778 31.1252C29.1048 31.3603 28.7722 31.4135 28.5327 31.2405Z" fill="url(#paint1_linear_27_158)"/>
<defs>
<linearGradient id="paint0_linear_27_158" x1="26" y1="0.711914" x2="26" y2="52.7119" gradientUnits="userSpaceOnUse">
<stop stop-color="#FC8C5F"/>
<stop offset="1" stop-color="#FC8C5F"/>
</linearGradient>
<linearGradient id="paint1_linear_27_158" x1="15" y1="26.7119" x2="37" y2="26.7119" gradientUnits="userSpaceOnUse">
<stop stop-color="#FC8C5F"/>
<stop offset="1" stop-color="#FC8C5F"/>
</linearGradient>
</defs>
</svg>
