<svg width="52" height="53" viewBox="0 0 52 53" fill="none" xmlns="http://www.w3.org/2000/svg">
<path fill-rule="evenodd" clip-rule="evenodd" d="M26 50.7119C39.2548 50.7119 50 39.9667 50 26.7119C50 13.4571 39.2548 2.71191 26 2.71191C12.7452 2.71191 2 13.4571 2 26.7119C2 39.9667 12.7452 50.7119 26 50.7119ZM26 52.7119C40.3594 52.7119 52 41.0713 52 26.7119C52 12.3525 40.3594 0.711914 26 0.711914C11.6406 0.711914 0 12.3525 0 26.7119C0 41.0713 11.6406 52.7119 26 52.7119Z" fill="url(#paint0_linear_27_174)"/>
<path d="M37.2052 16.0214C36.9621 15.4789 36.2677 15.4572 35.9769 15.9693C34.6314 18.3087 32.2226 19.7671 29.4708 19.7671H25.9986C21.3979 19.7671 17.6653 23.4997 17.6653 28.1004C17.6653 28.4042 17.7 28.695 17.7304 28.9901C20.4995 27.0066 24.4969 25.3226 30.1653 25.3226C30.5472 25.3226 30.8597 25.6351 30.8597 26.0171C30.8597 26.399 30.5472 26.7115 30.1653 26.7115C19.2538 26.7115 14.6271 33.3999 13.6028 35.9129C13.3163 36.6204 13.6549 37.4276 14.3623 37.7184C15.0741 38.0136 15.8814 37.6707 16.1766 36.9676C16.2417 36.8113 17.0837 34.8886 19.2972 33.0353C20.7035 34.9407 23.3771 36.7592 26.8884 36.386C33.7026 35.8912 38.4986 29.7801 38.4986 22.2974C38.4986 20.1186 38.0299 17.8617 37.2052 16.0214Z" fill="black"/>
<path d="M37.2052 16.0214C36.9621 15.4789 36.2677 15.4572 35.9769 15.9693C34.6314 18.3087 32.2226 19.7671 29.4708 19.7671H25.9986C21.3979 19.7671 17.6653 23.4997 17.6653 28.1004C17.6653 28.4042 17.7 28.695 17.7304 28.9901C20.4995 27.0066 24.4969 25.3226 30.1653 25.3226C30.5472 25.3226 30.8597 25.6351 30.8597 26.0171C30.8597 26.399 30.5472 26.7115 30.1653 26.7115C19.2538 26.7115 14.6271 33.3999 13.6028 35.9129C13.3163 36.6204 13.6549 37.4276 14.3623 37.7184C15.0741 38.0136 15.8814 37.6707 16.1766 36.9676C16.2417 36.8113 17.0837 34.8886 19.2972 33.0353C20.7035 34.9407 23.3771 36.7592 26.8884 36.386C33.7026 35.8912 38.4986 29.7801 38.4986 22.2974C38.4986 20.1186 38.0299 17.8617 37.2052 16.0214Z" fill="url(#paint1_linear_27_174)"/>
<defs>
<linearGradient id="paint0_linear_27_174" x1="26" y1="0.711914" x2="26" y2="52.7119" gradientUnits="userSpaceOnUse">
<stop stop-color="#FC8C5F"/>
<stop offset="1" stop-color="#FC8C5F"/>
</linearGradient>
<linearGradient id="paint1_linear_27_174" x1="13.501" y1="26.712" x2="38.4986" y2="26.712" gradientUnits="userSpaceOnUse">
<stop stop-color="#FC8C5F"/>
<stop offset="1" stop-color="#FC8C5F"/>
</linearGradient>
</defs>
</svg>
