<svg width="52" height="53" viewBox="0 0 52 53" fill="none" xmlns="http://www.w3.org/2000/svg">
<path fill-rule="evenodd" clip-rule="evenodd" d="M26 50.7119C39.2548 50.7119 50 39.9667 50 26.7119C50 13.4571 39.2548 2.71191 26 2.71191C12.7452 2.71191 2 13.4571 2 26.7119C2 39.9667 12.7452 50.7119 26 50.7119ZM26 52.7119C40.3594 52.7119 52 41.0713 52 26.7119C52 12.3525 40.3594 0.711914 26 0.711914C11.6406 0.711914 0 12.3525 0 26.7119C0 41.0713 11.6406 52.7119 26 52.7119Z" fill="url(#paint0_linear_27_166)"/>
<path d="M36.2783 18.2988L26.9033 14.3926C26.6177 14.2741 26.3116 14.2131 26.0024 14.2131C25.6933 14.2131 25.3871 14.2741 25.1016 14.3926L15.7266 18.2988C14.8525 18.6602 14.2812 19.5147 14.2812 20.4619C14.2812 30.1543 19.8721 36.8535 25.0967 39.0313C25.6729 39.2705 26.3223 39.2705 26.8984 39.0313C31.083 37.2881 37.7188 31.2676 37.7188 20.4619C37.7188 19.5147 37.1475 18.6602 36.2783 18.2988ZM26.0049 36.0039L26 17.4004L34.5889 20.9795C34.4277 28.3721 30.5801 33.7285 26.0049 36.0039Z" fill="black"/>
<path d="M36.2783 18.2988L26.9033 14.3926C26.6177 14.2741 26.3116 14.2131 26.0024 14.2131C25.6933 14.2131 25.3871 14.2741 25.1016 14.3926L15.7266 18.2988C14.8525 18.6602 14.2812 19.5147 14.2812 20.4619C14.2812 30.1543 19.8721 36.8535 25.0967 39.0313C25.6729 39.2705 26.3223 39.2705 26.8984 39.0313C31.083 37.2881 37.7188 31.2676 37.7188 20.4619C37.7188 19.5147 37.1475 18.6602 36.2783 18.2988ZM26.0049 36.0039L26 17.4004L34.5889 20.9795C34.4277 28.3721 30.5801 33.7285 26.0049 36.0039Z" fill="url(#paint1_linear_27_166)"/>
<defs>
<linearGradient id="paint0_linear_27_166" x1="26" y1="0.711914" x2="26" y2="52.7119" gradientUnits="userSpaceOnUse">
<stop stop-color="#FC8C5F"/>
<stop offset="1" stop-color="#FC8C5F"/>
</linearGradient>
<linearGradient id="paint1_linear_27_166" x1="14.2812" y1="26.7119" x2="37.7188" y2="26.7119" gradientUnits="userSpaceOnUse">
<stop stop-color="#FC8C5F"/>
<stop offset="1" stop-color="#FC8C5F"/>
</linearGradient>
</defs>
</svg>
