<svg width="137" height="126" viewBox="0 0 137 126" fill="none" xmlns="http://www.w3.org/2000/svg">
<g clip-path="url(#clip0)">
<path d="M116.046 123.526C113.856 124.417 111.666 124.859 109.476 125.201C107.287 125.515 105.097 125.661 102.907 125.663C100.717 125.667 98.5274 125.52 96.3376 125.208C94.1478 124.87 91.958 124.424 89.7682 123.528C91.958 122.633 94.1478 122.187 96.3376 121.849C98.5274 121.535 100.717 121.39 102.907 121.394C105.097 121.396 107.287 121.542 109.476 121.856C111.666 122.193 113.856 122.638 116.046 123.526Z" fill="url(#paint0_linear)"/>
<path d="M2.2829 43.3047C3.17377 44.0695 3.61601 44.8365 3.95783 45.6013C4.27188 46.3661 4.41715 47.1331 4.41929 47.8979C4.42356 48.6627 4.27615 49.4297 3.96424 50.1945C3.62455 50.9615 3.17805 51.7263 2.2829 52.4912C1.38775 51.7263 0.94125 50.9594 0.6037 50.1945C0.289651 49.4297 0.142241 48.6649 0.146514 47.8979C0.14865 47.1331 0.293924 46.3661 0.607973 45.6013C0.949795 44.8365 1.39203 44.0717 2.2829 43.3047Z" fill="url(#paint1_linear)"/>
<path d="M2.2829 64.4551C3.17377 66.6449 3.61601 68.8347 3.95783 71.0245C4.27188 73.2143 4.41715 75.4041 4.41929 77.5939C4.42356 79.7837 4.27615 81.9735 3.96424 84.1632C3.62455 86.353 3.17805 88.5428 2.2829 90.7326C1.38775 88.5428 0.94125 86.353 0.6037 84.1632C0.289651 81.9735 0.142241 79.7837 0.146514 77.5939C0.14865 75.4041 0.293924 73.2143 0.607973 71.0245C0.949795 68.8347 1.39203 66.6449 2.2829 64.4551Z" fill="url(#paint2_linear)"/>
<path d="M79.941 123.526C79.1932 124.417 78.4455 124.859 77.6978 125.201C76.95 125.515 76.2023 125.661 75.4546 125.663C74.7068 125.667 73.9591 125.52 73.2113 125.208C72.4636 124.87 71.7159 124.424 70.9681 123.528C71.7159 122.633 72.4636 122.187 73.2113 121.849C73.9591 121.535 74.7068 121.39 75.4546 121.394C76.2023 121.396 76.95 121.542 77.6978 121.856C78.4455 122.193 79.1932 122.638 79.941 123.526Z" fill="url(#paint3_linear)"/>
<path opacity="0.2" d="M126.276 113.468H15.1434V32.168H126.276V113.468Z" fill="url(#paint4_linear)"/>
<path d="M47.6453 25.6539C48.784 23.259 50.2517 21.176 51.7899 19.1593C53.3601 17.1724 54.9645 15.2176 56.8937 13.5683C58.8207 11.9191 61.0554 10.5582 62.8798 8.81061C64.7107 7.06945 66.2852 5.08689 67.723 2.974L68.3041 2.12158L69.4257 2.974C71.4617 4.52074 73.4208 6.14226 75.2367 7.89624C77.0825 9.62457 78.9391 11.3401 80.6204 13.2222C82.2932 15.113 83.8848 17.0806 85.3781 19.14C86.8651 21.2059 88.3029 23.3188 89.5035 25.6539L89.1937 25.9466C86.9334 24.6113 84.9081 23.0518 82.932 21.4473C80.9644 19.8365 79.0929 18.1338 77.3026 16.3521C75.523 14.5639 73.9164 12.6091 72.2992 10.6671C70.652 8.75293 69.1501 6.702 67.723 4.57843H69.4236C67.4004 6.13799 65.5119 7.82574 63.8818 9.75489C62.2432 11.6776 61.0148 13.9871 59.4809 16.0081C57.9469 18.0313 56.0904 19.7468 54.1976 21.4302C52.2727 23.0817 50.2794 24.6711 47.955 25.9466L47.6453 25.6539Z" fill="#1E2533"/>
<path d="M126.429 113.617C117.11 113.929 107.68 114.258 98.1003 114.459C88.5464 114.69 78.9412 114.952 69.242 115.081C59.5556 115.224 49.8244 115.337 40.0803 115.343C30.3384 115.384 20.5708 115.175 10.8716 114.935L9.37189 114.899L9.40393 113.47C9.73507 98.8527 10.2136 84.2334 10.2136 69.6162C10.2414 62.3077 10.1303 54.9991 10.094 47.6884L9.70303 25.7583L9.68166 24.6175L10.8716 24.5897C30.1055 24.1112 49.3394 23.8164 68.5733 23.6903L97.4252 23.4831C107.043 23.4446 116.659 23.4895 126.277 23.5771L128.465 23.5963L128.458 25.7583C128.435 33.1972 128.264 40.6297 128.142 48.0409L127.7 70.2016L126.429 113.617ZM126.128 113.316L124.854 69.0223L124.412 47.3294C124.292 40.1234 124.119 32.9366 124.096 25.7583L126.277 27.9396C116.659 28.0251 107.043 28.0699 97.4252 28.0336L68.5754 27.8285C49.3415 27.7025 30.1077 27.4076 10.8738 26.9291L12.0424 25.7605L11.6493 47.6862C11.6151 54.9948 11.504 62.3034 11.5296 69.6141C11.5296 84.2313 12.0082 98.8505 12.3393 113.468L10.8716 112C20.4063 111.761 29.8727 111.551 39.3646 111.592C48.8545 111.596 58.3571 111.709 67.9046 111.855C77.4414 111.983 87.0701 112.246 96.7501 112.476C106.407 112.675 116.21 113.004 126.128 113.316Z" fill="#1E2533"/>
<path d="M114.604 101.319H22.6219V37.9087H114.604V101.319Z" fill="white"/>
<path d="M114.755 101.47C107.408 101.804 99.9117 102.109 92.3169 102.361C84.7199 102.611 77.0289 102.81 69.293 102.959C61.5465 103.077 53.7764 103.218 45.9743 103.184C38.1744 103.173 30.3638 102.912 22.6236 102.671L21.2286 102.628L21.2692 101.319L21.7734 85.4666C21.8994 80.1834 21.9614 74.8979 21.9763 69.6147C21.9699 64.3314 21.9379 59.0459 21.8439 53.7627L21.4508 37.9107L21.4251 36.7784L22.6236 36.7378C37.9544 36.2293 53.2851 35.958 68.6136 35.8191C76.279 35.7486 83.9444 35.6034 91.6097 35.629C99.2751 35.582 106.94 35.6995 114.606 35.7593L116.783 35.7764L116.753 37.9064C116.605 48.7251 116.362 59.5459 115.973 70.1787L115.401 86.0072L114.755 101.47ZM114.452 101.169L113.234 69.0485C112.845 58.546 112.604 48.2273 112.454 37.9085L114.602 40.0556C106.936 40.1154 99.2708 40.2329 91.6054 40.1859C83.9401 40.2116 76.2747 40.0663 68.6094 39.9958C53.2787 39.8569 37.9479 39.5856 22.6194 39.0771L23.788 37.9085L23.3949 53.7605C23.3009 59.0438 23.2688 64.3292 23.2624 69.6125C23.2774 74.8958 23.3393 80.1812 23.4654 85.4645L23.9696 101.316L22.6172 99.9642C30.2057 99.7228 37.7258 99.4621 45.2565 99.4514C52.7852 99.4173 60.3437 99.5583 67.9279 99.6758C75.5227 99.8274 83.1624 100.026 90.894 100.274L114.452 101.169Z" fill="url(#paint5_linear)"/>
<path opacity="0.2" d="M79.735 76.124C86.0608 76.124 91.1903 70.9967 91.1903 64.6687C91.1903 58.3407 86.063 53.2134 79.735 53.2134C73.407 53.2134 68.2797 58.3407 68.2797 64.6687C68.2797 70.9967 73.407 76.124 79.735 76.124Z" fill="url(#paint6_linear)"/>
<path d="M77.5987 73.7742C80.6046 73.8532 83.322 71.9454 84.7363 69.6701C86.1869 67.3799 86.9689 65.0662 87.2744 62.5325C87.5713 60.05 87.1611 57.0548 85.2106 54.9205C83.3135 52.797 80.2927 51.8164 77.5987 52.2479C74.894 52.6709 72.5867 54.0361 70.9267 55.8605C69.2774 57.7406 68.4912 60.1355 68.425 62.5325C68.3823 64.9466 69.0916 67.3372 70.5016 69.6274C71.886 71.9219 74.5992 73.8062 77.5987 73.7742ZM77.5987 74.2014C74.5885 74.1907 71.3433 73.6075 68.4955 71.6378C67.1111 70.6465 65.8955 69.3048 65.1051 67.7111C64.3167 66.1195 63.9023 64.327 63.8638 62.5346C63.7784 58.922 65.4597 55.3606 68.0725 53.0063C70.6447 50.5687 74.2979 49.4663 77.6008 49.9086C80.9143 50.3188 83.8519 51.8057 86.1869 53.9463C88.4985 56.0443 90.5559 59.0096 90.8336 62.5325C91.1605 66.0062 89.477 69.6509 86.6634 71.595C83.8391 73.584 80.6003 74.1437 77.5987 74.2014Z" fill="url(#paint7_linear)"/>
<path d="M101.962 100.921C101.603 97.7787 101.056 94.7941 99.6678 92.1749C98.3817 89.5322 96.3927 87.3424 94.1645 85.6248C91.8465 84.0161 89.2614 82.8112 86.5141 82.4181C85.0891 82.2279 83.8949 82.1382 82.2605 82.1852L77.6096 82.2343L72.9587 82.1873L71.7965 82.1745L70.7625 82.2172C70.0682 82.2044 69.3952 82.3668 68.7051 82.4245C65.9556 82.8111 63.377 84.0246 61.0569 85.629C58.8308 87.3467 56.8418 89.5344 55.5557 92.1771C54.1649 94.7963 53.618 97.7787 53.2569 100.923C52.6737 97.8834 52.6288 94.5549 53.6073 91.4016C54.5623 88.2504 56.453 85.3556 58.9333 83.059C61.4372 80.7837 64.5947 79.1878 67.9531 78.4486C68.797 78.2948 69.6473 78.1218 70.5083 78.1004L71.7965 78.0256L72.9587 78.0128L77.6096 77.9658L82.2605 78.015L83.4248 78.0278L84.7131 78.1026C85.5741 78.1196 86.4222 78.3034 87.2661 78.4551C90.6223 79.1921 93.7799 80.7901 96.2816 83.0654C98.762 85.3599 100.651 88.2547 101.605 91.4037C102.588 94.5549 102.543 97.8812 101.962 100.921Z" fill="url(#paint8_linear)"/>
<path d="M49.4688 73.7829C51.8829 73.8598 54.015 72.1955 55.0127 70.339C56.0446 68.4654 56.5829 66.7371 56.8906 64.7951C57.1854 62.9023 57.0188 60.4946 55.487 58.7769C54.0064 57.0721 51.571 56.335 49.4688 56.7644C47.3537 57.1896 45.6339 58.3112 44.3906 59.7169C43.16 61.1803 42.6174 62.9899 42.549 64.7951C42.5084 66.6174 42.9763 68.4206 43.9654 70.2963C44.9332 72.1699 47.0611 73.8107 49.4688 73.7829ZM49.4688 74.2102C47.0504 74.1973 44.3927 73.8577 41.9594 72.3066C40.7822 71.5247 39.7354 70.4309 39.0581 69.1106C38.383 67.7903 38.0263 66.2927 37.9878 64.7972C37.9045 61.7764 39.3423 58.8004 41.5364 56.8648C43.692 54.846 46.7598 53.9871 49.4688 54.4294C52.1927 54.8417 54.5427 56.0872 56.4612 57.807C58.354 59.4883 60.1699 61.8661 60.4477 64.7994C60.7724 67.6835 59.3303 70.7407 56.9376 72.2682C54.532 73.8342 51.8786 74.1482 49.4688 74.2102Z" fill="url(#paint9_linear)"/>
<path d="M51.7445 80.0977C50.6037 80.5677 49.4628 80.8497 48.3241 81.1403C47.2154 81.3881 46.2412 81.7192 45.2712 82.0653C43.357 82.8045 41.6437 83.7851 40.0969 84.9836C38.5416 86.1779 37.1893 87.6263 36.0186 89.3055C34.8265 90.9847 33.8736 92.8989 32.9614 95.1699C31.2053 90.5425 33.3203 84.7443 37.4649 81.6167C39.518 80.0187 42.0325 79.0124 44.5769 78.7881C45.2157 78.7582 45.8523 78.739 46.4826 78.7817C47.1064 78.8714 47.7537 78.927 48.322 79.053C49.465 79.3457 50.6058 79.6277 51.7445 80.0977Z" fill="url(#paint10_linear)"/>
<path d="M119.523 40.5276C120.688 40.4315 121.534 40.6536 122.309 40.9463C123.066 41.2582 123.702 41.6898 124.238 42.2218C124.775 42.7537 125.206 43.3904 125.518 44.1466C125.813 44.92 126.031 45.7703 125.933 46.9368C124.766 47.035 123.916 46.8171 123.142 46.5223C122.386 46.2104 121.75 45.7788 121.218 45.2426C120.686 44.7064 120.254 44.0697 119.942 43.3134C119.65 42.5379 119.429 41.6919 119.523 40.5276Z" fill="url(#paint11_linear)"/>
<path d="M130.419 46.937C130.323 45.7726 130.545 44.9266 130.838 44.1511C131.15 43.3948 131.581 42.7582 132.113 42.222C132.645 41.6857 133.282 41.2542 134.038 40.9423C134.811 40.6474 135.662 40.4295 136.828 40.5278C136.926 41.6943 136.708 42.5446 136.414 43.3179C136.102 44.0742 135.67 44.7108 135.134 45.2428C134.598 45.7748 133.961 46.2063 133.205 46.5182C132.431 46.8109 131.583 47.0331 130.419 46.937Z" fill="url(#paint12_linear)"/>
<path d="M125.933 51.4234C126.029 52.5877 125.807 53.4337 125.514 54.2092C125.202 54.9655 124.77 55.6021 124.238 56.1384C123.706 56.6746 123.07 57.1061 122.314 57.4181C121.54 57.7129 120.69 57.9308 119.523 57.8325C119.425 56.666 119.643 55.8158 119.938 55.0424C120.25 54.2861 120.681 53.6495 121.218 53.1175C121.754 52.5856 122.39 52.154 123.147 51.8421C123.922 51.5494 124.77 51.3294 125.933 51.4234Z" fill="url(#paint13_linear)"/>
<path d="M136.828 57.8325C135.664 57.9286 134.818 57.7064 134.042 57.4137C133.286 57.1018 132.649 56.6703 132.113 56.1383C131.577 55.6064 131.145 54.9697 130.833 54.2134C130.539 53.4401 130.321 52.5898 130.419 51.4233C131.586 51.325 132.436 51.5429 133.209 51.8378C133.965 52.1497 134.602 52.5812 135.134 53.1175C135.666 53.6537 136.098 54.2903 136.409 55.0466C136.704 55.8221 136.924 56.6703 136.828 57.8325Z" fill="url(#paint14_linear)"/>
<path d="M41.1866 7.81949C41.7613 8.48818 42.7846 9.06714 43.3807 10.3447C43.9895 11.5859 43.4725 13.2438 42.2975 13.9787C41.1011 14.7627 39.6591 14.5363 38.6635 14.391C37.6252 14.2308 36.6019 14.0941 35.4632 13.545C32.9893 12.5366 32.4061 8.41127 34.677 6.3582C35.2197 5.86683 35.8841 5.4951 36.5891 5.3306C37.2962 5.17037 38.0461 5.28146 38.6657 5.58055C39.9475 6.18088 40.5478 7.21062 41.1866 7.81949ZM40.8854 8.12072C40.2829 7.4798 39.1378 7.78531 38.6635 8.39204C38.17 9.05005 38.0824 9.34701 37.903 9.58201C37.7641 9.82769 37.5013 9.97083 37.3262 10.3426C37.2172 10.6844 37.01 11.1736 37.1168 11.8893C37.2193 12.59 37.9393 13.1775 38.6635 13.0109C39.4284 12.872 39.7317 11.9214 39.7766 11.4578C39.8492 10.9514 40.0565 10.8638 40.6589 10.3447C41.2592 9.85974 41.5605 8.69327 40.8854 8.12072Z" fill="url(#paint15_linear)"/>
</g>
<defs>
<linearGradient id="paint0_linear" x1="102.906" y1="121.391" x2="102.906" y2="125.662" gradientUnits="userSpaceOnUse">
<stop offset="1.58946e-07" stop-color="#FC8C5F"/>
<stop offset="1" stop-color="#FA7846"/>
</linearGradient>
<linearGradient id="paint1_linear" x1="0.146514" y1="47.8983" x2="4.41822" y2="47.8983" gradientUnits="userSpaceOnUse">
<stop offset="1.58946e-07" stop-color="#FC8C5F"/>
<stop offset="1" stop-color="#FA7846"/>
</linearGradient>
<linearGradient id="paint2_linear" x1="0.146514" y1="77.5943" x2="4.41822" y2="77.5943" gradientUnits="userSpaceOnUse">
<stop offset="1.58946e-07" stop-color="#FC8C5F"/>
<stop offset="1" stop-color="#FA7846"/>
</linearGradient>
<linearGradient id="paint3_linear" x1="75.4539" y1="121.391" x2="75.4539" y2="125.662" gradientUnits="userSpaceOnUse">
<stop offset="1.58946e-07" stop-color="#FC8C5F"/>
<stop offset="1" stop-color="#FA7846"/>
</linearGradient>
<linearGradient id="paint4_linear" x1="15.1436" y1="72.8181" x2="126.277" y2="72.8181" gradientUnits="userSpaceOnUse">
<stop offset="1.58946e-07" stop-color="#FC8C5F"/>
<stop offset="1" stop-color="#FA7846"/>
</linearGradient>
<linearGradient id="paint5_linear" x1="20.4853" y1="69.404" x2="116.74" y2="69.404" gradientUnits="userSpaceOnUse">
<stop offset="1.58946e-07" stop-color="#FC8C5F"/>
<stop offset="1" stop-color="#FA7846"/>
</linearGradient>
<linearGradient id="paint6_linear" x1="68.2797" y1="64.6702" x2="91.1881" y2="64.6702" gradientUnits="userSpaceOnUse">
<stop offset="1.58946e-07" stop-color="#FC8C5F"/>
<stop offset="1" stop-color="#FA7846"/>
</linearGradient>
<linearGradient id="paint7_linear" x1="64.007" y1="62.008" x2="91.1882" y2="62.008" gradientUnits="userSpaceOnUse">
<stop offset="1.58946e-07" stop-color="#FC8C5F"/>
<stop offset="1" stop-color="#FA7846"/>
</linearGradient>
<linearGradient id="paint8_linear" x1="51.1191" y1="89.4425" x2="104.1" y2="89.4425" gradientUnits="userSpaceOnUse">
<stop offset="1.58946e-07" stop-color="#FC8C5F"/>
<stop offset="1" stop-color="#FA7846"/>
</linearGradient>
<linearGradient id="paint9_linear" x1="38.131" y1="64.2612" x2="60.8044" y2="64.2612" gradientUnits="userSpaceOnUse">
<stop offset="1.58946e-07" stop-color="#FC8C5F"/>
<stop offset="1" stop-color="#FA7846"/>
</linearGradient>
<linearGradient id="paint10_linear" x1="30.825" y1="86.9651" x2="51.7454" y2="86.9651" gradientUnits="userSpaceOnUse">
<stop offset="1.58946e-07" stop-color="#FC8C5F"/>
<stop offset="1" stop-color="#FA7846"/>
</linearGradient>
<linearGradient id="paint11_linear" x1="117.388" y1="43.7335" x2="128.07" y2="43.7335" gradientUnits="userSpaceOnUse">
<stop offset="1.58946e-07" stop-color="#FC8C5F"/>
<stop offset="1" stop-color="#FA7846"/>
</linearGradient>
<linearGradient id="paint12_linear" x1="128.283" y1="43.732" x2="138.965" y2="43.732" gradientUnits="userSpaceOnUse">
<stop offset="1.58946e-07" stop-color="#FC8C5F"/>
<stop offset="1" stop-color="#FA7846"/>
</linearGradient>
<linearGradient id="paint13_linear" x1="117.388" y1="54.6292" x2="128.07" y2="54.6292" gradientUnits="userSpaceOnUse">
<stop offset="1.58946e-07" stop-color="#FC8C5F"/>
<stop offset="1" stop-color="#FA7846"/>
</linearGradient>
<linearGradient id="paint14_linear" x1="128.284" y1="54.6275" x2="138.965" y2="54.6275" gradientUnits="userSpaceOnUse">
<stop offset="1.58946e-07" stop-color="#FC8C5F"/>
<stop offset="1" stop-color="#FA7846"/>
</linearGradient>
<linearGradient id="paint15_linear" x1="34.3824" y1="6.85534" x2="42.1505" y2="14.6235" gradientUnits="userSpaceOnUse">
<stop offset="1.58946e-07" stop-color="#FC8C5F"/>
<stop offset="1" stop-color="#FA7846"/>
</linearGradient>
<clipPath id="clip0">
<rect width="136.707" height="125" fill="white" transform="translate(0.146484 0.662598)"/>
</clipPath>
</defs>
</svg>
