<svg width="58" height="58" viewBox="0 0 58 58" fill="none" xmlns="http://www.w3.org/2000/svg">
<path d="M42.2998 0H15.7C7.04289 0 0 7.04289 0 15.7V42.3003C0 50.957 7.04289 57.9999 15.7 57.9999H42.3003C50.957 57.9999 57.9999 50.957 57.9999 42.3003V15.7C57.9999 7.04289 50.957 0 42.2998 0V0ZM28.9999 44.8588C20.2552 44.8588 13.141 37.7447 13.141 28.9999C13.141 20.2552 20.2552 13.141 28.9999 13.141C37.7447 13.141 44.8588 20.2552 44.8588 28.9999C44.8588 37.7447 37.7447 44.8588 28.9999 44.8588ZM45.2381 16.8811C42.6539 16.8811 40.552 14.7792 40.552 12.195C40.552 9.61075 42.6539 7.50841 45.2381 7.50841C47.8223 7.50841 49.9246 9.61075 49.9246 12.195C49.9246 14.7792 47.8223 16.8811 45.2381 16.8811Z" fill="white"/>
<path d="M29 16.5413C22.1305 16.5413 16.5413 22.1301 16.5413 29C16.5413 35.8694 22.1305 41.4587 29 41.4587C35.8698 41.4587 41.4587 35.8694 41.4587 29C41.4587 22.1301 35.8698 16.5413 29 16.5413Z" fill="white"/>
<path d="M45.2381 10.9092C44.5292 10.9092 43.9521 11.4862 43.9521 12.1951C43.9521 12.904 44.5292 13.481 45.2381 13.481C45.9474 13.481 46.5244 12.9044 46.5244 12.1951C46.5244 11.4858 45.9474 10.9092 45.2381 10.9092Z" fill="white"/>
</svg>
