<svg width="230" height="68" viewBox="0 0 230 68" fill="none" xmlns="http://www.w3.org/2000/svg">
<path fill-rule="evenodd" clip-rule="evenodd" d="M40.0594 8.10659C33.6878 3.46517 25.215 1.14446 14.641 1.14446H0L9.65899 8.39271H16.7761C21.182 8.39271 25.0117 9.02852 28.2652 10.3001C31.5188 11.5082 34.1962 13.9878 36.2975 17.7391C38.3987 21.4268 39.4493 26.7359 39.4493 33.6662C39.4493 43.5213 37.4159 50.3245 33.3489 54.0757C29.282 57.827 23.995 59.7027 17.4878 59.7027H9.65899L0 66.8555H16.7761C25.9267 66.8555 33.6878 64.3759 40.0594 59.4166C46.4987 54.3936 49.7184 45.8102 49.7184 33.6662C49.7184 21.2043 46.4987 12.6844 40.0594 8.10659Z" fill="#282828"/>
<path fill-rule="evenodd" clip-rule="evenodd" d="M83.1237 7.43899L90.3479 0.67576C88.0444 0.225253 85.5008 0 82.717 0C78.4467 0 74.617 0.731183 71.2279 2.19355C67.9065 3.65591 65.2969 5.69051 63.399 8.29734C61.5689 10.9042 60.6538 13.8607 60.6538 17.1669C60.6538 22.0626 62.3145 25.9411 65.6358 28.8022C68.9572 31.6634 74.2103 34.1113 81.3952 36.1459C85.4622 37.2903 88.5463 38.4348 90.6475 39.5792C92.8166 40.7237 94.3417 42.0271 95.2228 43.4895C96.104 44.8883 96.5446 46.6685 96.5446 48.8303C96.5446 52.6452 95.1211 55.5699 92.2743 57.6045C89.4274 59.5755 85.835 60.561 81.4969 60.561L74.1994 67.3928C76.5397 67.7976 79.0061 68 81.5986 68C86.75 68 91.1898 67.1734 94.9178 65.5203C98.7136 63.8672 101.594 61.5783 103.56 58.6536C105.594 55.7288 106.61 52.359 106.61 48.5442C106.61 44.6021 105.695 41.3595 103.865 38.8163C102.103 36.2094 99.7642 34.1749 96.8496 32.7125C93.935 31.2501 90.2747 29.8831 85.8689 28.6115C81.6664 27.4035 78.4467 26.259 76.2099 25.1781C74.0408 24.0972 72.5496 22.921 71.7362 21.6494C70.9228 20.3142 70.5162 18.6928 70.5162 16.7854C70.5162 13.7335 71.7023 11.4128 74.0747 9.82328C76.4471 8.23375 79.4634 7.43899 83.1237 7.43899Z" fill="#282828"/>
<path d="M94.5509 2.19348L88.4517 8.29727L93.8657 9.82321L99.5813 4.10338L94.5509 2.19348Z" fill="#F4CF87"/>
<path d="M9.65899 20.4088L0 30.075V55.2979L9.65899 45.6317V20.4088Z" fill="#F4CF87"/>
<path d="M134.296 19.9598C136.124 19.9598 137.687 20.216 138.985 20.7284C140.283 21.2151 141.541 21.9837 142.759 23.0341L140.693 25.2631C139.66 24.4689 138.64 23.8924 137.634 23.5337C136.654 23.1494 135.594 22.9573 134.455 22.9573C133.025 22.9573 131.846 23.2775 130.919 23.918C129.992 24.5585 129.528 25.4937 129.528 26.7234C129.528 27.492 129.687 28.1453 130.005 28.6833C130.323 29.1957 130.906 29.6697 131.753 30.1052C132.627 30.5408 133.886 31.0019 135.528 31.4887C137.25 32.0011 138.68 32.5519 139.819 33.1412C140.958 33.7304 141.872 34.5503 142.561 35.6007C143.276 36.6255 143.633 37.9321 143.633 39.5205C143.633 41.0577 143.236 42.4156 142.442 43.5941C141.673 44.7726 140.548 45.6949 139.064 46.361C137.607 47.0272 135.872 47.3602 133.859 47.3602C130.071 47.3602 126.972 46.2201 124.562 43.94L126.628 41.711C127.74 42.5821 128.866 43.2482 130.005 43.7094C131.144 44.1449 132.415 44.3627 133.819 44.3627C135.515 44.3627 136.919 43.9656 138.031 43.1714C139.144 42.3515 139.7 41.173 139.7 39.6358C139.7 38.7647 139.528 38.0474 139.183 37.4838C138.839 36.8945 138.243 36.3693 137.395 35.9081C136.574 35.447 135.369 34.9858 133.78 34.5247C130.972 33.7048 128.919 32.7185 127.621 31.5656C126.323 30.4127 125.674 28.8499 125.674 26.8771C125.674 25.5449 126.032 24.3536 126.747 23.3032C127.489 22.2527 128.508 21.4329 129.806 20.8436C131.131 20.2544 132.627 19.9598 134.296 19.9598Z" fill="#282828"/>
<path d="M164.567 26.1854C166.475 26.1854 167.958 26.7362 169.018 27.8379C170.104 28.9395 170.647 30.4511 170.647 32.3726V46.8991H166.991V32.8722C166.991 31.4375 166.7 30.4255 166.117 29.8362C165.561 29.247 164.74 28.9523 163.654 28.9523C162.568 28.9523 161.601 29.2598 160.753 29.8747C159.905 30.4895 159.111 31.3606 158.369 32.4879V46.8991H154.714V18.5379L158.369 18.1536V29.4519C160.011 27.2742 162.077 26.1854 164.567 26.1854Z" fill="#282828"/>
<path d="M191.581 26.1854C194.521 26.1854 196.799 27.1333 198.415 29.0292C200.058 30.9251 200.879 33.4999 200.879 36.7536C200.879 38.8544 200.508 40.7119 199.766 42.3259C199.025 43.9143 197.952 45.1569 196.548 46.0536C195.144 46.9247 193.475 47.3602 191.541 47.3602C188.601 47.3602 186.31 46.4123 184.668 44.5164C183.025 42.6205 182.204 40.0457 182.204 36.792C182.204 34.6912 182.575 32.8466 183.317 31.2581C184.058 29.6441 185.131 28.4015 186.535 27.5304C187.939 26.6337 189.621 26.1854 191.581 26.1854ZM191.581 29.0292C187.952 29.0292 186.138 31.6168 186.138 36.792C186.138 41.9416 187.939 44.5164 191.541 44.5164C195.144 44.5164 196.945 41.9288 196.945 36.7536C196.945 31.604 195.157 29.0292 191.581 29.0292Z" fill="#282828"/>
<path d="M222.252 26.1854C224.928 26.1854 226.888 27.1077 228.133 28.9523C229.378 30.797 230 33.3974 230 36.7536C230 39.9305 229.285 42.4924 227.855 44.4395C226.424 46.3867 224.398 47.3602 221.775 47.3602C219.444 47.3602 217.617 46.5916 216.292 45.0544V54.6619L212.637 55.0846V26.6466H215.776L216.054 29.3751C216.822 28.3503 217.749 27.5689 218.835 27.0308C219.921 26.4672 221.06 26.1854 222.252 26.1854ZM220.901 44.478C224.345 44.478 226.067 41.9032 226.067 36.7536C226.067 31.5784 224.491 28.9908 221.338 28.9908C220.305 28.9908 219.365 29.2854 218.517 29.8747C217.67 30.4639 216.928 31.2197 216.292 32.142V42.0185C216.822 42.8127 217.484 43.4276 218.279 43.8631C219.074 44.273 219.948 44.478 220.901 44.478Z" fill="#282828"/>
</svg>
