<svg width="112" height="112" viewBox="0 0 112 112" fill="none" xmlns="http://www.w3.org/2000/svg">
<g clip-path="url(#clip0)">
<path d="M111.014 22.2515L77.0463 56L111.014 89.7485C111.628 88.4651 112 87.0463 112 85.5313V26.4687C112 24.9535 111.628 23.5349 111.014 22.2515Z" fill="white"/>
<path d="M102.156 16.625H9.84362C8.32834 16.625 6.90975 16.9975 5.62634 17.6116L49.0401 60.8066C52.8787 64.6453 59.121 64.6453 62.9596 60.8066L106.373 17.6116C105.09 16.9975 103.671 16.625 102.156 16.625Z" fill="white"/>
<path d="M0.986562 22.2515C0.372531 23.5349 0 24.9535 0 26.4687V85.5313C0 87.0465 0.372531 88.4653 0.986562 89.7485L34.9538 56L0.986562 22.2515Z" fill="white"/>
<path d="M72.4061 60.6404L67.5995 65.447C61.2035 71.843 50.796 71.843 44.4 65.447L39.5936 60.6404L5.62634 94.3889C6.90975 95.0029 8.32834 95.3755 9.84362 95.3755H102.156C103.671 95.3755 105.09 95.0029 106.373 94.3889L72.4061 60.6404Z" fill="white"/>
</g>
<defs>
<clipPath id="clip0">
<rect width="112" height="112" fill="white"/>
</clipPath>
</defs>
</svg>
