<svg width="96" height="96" viewBox="0 0 96 96" fill="none" xmlns="http://www.w3.org/2000/svg">
<g clip-path="url(#clip0)">
<path d="M34.2705 53.0549L34.2703 53.0548L25.0354 48.2064L24.8587 48.1137L24.6668 48.168C21.0874 49.1813 17.2033 49.1166 13.645 47.9718C9.69882 46.7022 6.34971 44.2365 3.95659 40.8383L3.95655 40.8383C-2.06986 32.2831 -0.0125322 20.4178 8.54259 14.3898L8.2546 13.9811L8.54259 14.3898C12.6876 11.4693 17.7193 10.3388 22.7154 11.2053C27.7114 12.0717 32.0688 14.8306 34.9891 18.9761L34.9891 18.9762C37.3826 22.3723 38.5773 26.3552 38.4454 30.4986C38.3263 34.2365 37.0797 37.9158 34.9201 40.9437L34.8041 41.1064L34.8321 41.3042L36.2942 51.6281L36.7893 51.558L36.2942 51.6281C36.3675 52.1451 36.1451 52.6594 35.7184 52.9602L35.7183 52.9602C35.4795 53.1287 35.1988 53.2142 34.9167 53.2142C34.6954 53.2142 34.4735 53.1616 34.2705 53.0549ZM34.0379 53.4975C34.3141 53.6426 34.616 53.7142 34.9167 53.7142C35.2998 53.7142 35.6815 53.598 36.0065 53.3689L34.0379 53.4975ZM10.1452 16.6641L10.1452 16.6641C2.84323 21.8091 1.08755 31.9342 6.23127 39.2362C10.369 45.1116 17.7359 47.5462 24.5573 45.2923L24.5574 45.2923C24.6997 45.2452 24.8469 45.2219 24.9937 45.2219C25.2165 45.2219 25.4386 45.2757 25.6405 45.3815L32.2942 48.875L33.1586 49.3289L33.0217 48.3622L31.9682 40.9232C31.9152 40.5493 32.0167 40.1698 32.2491 39.8719C36.6029 34.2971 36.7939 26.3665 32.7149 20.5787C30.2234 17.0419 26.502 14.6858 22.24 13.9465L22.1548 14.4375L22.24 13.9465C17.9787 13.2074 13.6813 14.1727 10.1452 16.6641Z" fill="#F4CF87" stroke="white"/>
<path d="M19.0885 17.9336C15.9175 17.9336 13.3379 20.5136 13.3379 23.6848V24.4337C13.3379 25.478 14.1845 26.3248 15.2288 26.3248C16.2732 26.3248 17.1198 25.478 17.1198 24.4337V23.6848C17.1198 22.6175 18.0213 21.7158 19.0883 21.7158C20.1554 21.7158 21.0569 22.6175 21.0569 23.6848V24.4337C21.0569 24.7235 20.4473 25.4518 20.0438 25.9338C19.1491 27.0028 18.0357 28.3331 18.0357 30.1552V32.5175C18.0357 33.5619 18.8823 34.4086 19.9266 34.4086C20.971 34.4086 21.8176 33.5621 21.8176 32.5175V30.1552C21.8176 29.7071 22.4161 28.9922 22.9439 28.3614C23.7882 27.3528 24.8388 26.0975 24.8388 24.4338V23.685C24.8391 20.5136 22.2593 17.9336 19.0885 17.9336Z" fill="#F4CF87"/>
<path d="M19.932 37.8508C18.8876 37.8508 18.041 38.6974 18.041 39.742V39.7472C18.041 40.7916 18.8876 41.6357 19.932 41.6357C20.9763 41.6357 21.8229 40.7865 21.8229 39.742C21.8231 38.6974 20.9763 37.8508 19.932 37.8508Z" fill="#F4CF87"/>
<path d="M95.1037 78.833L95.1038 78.8334L91.9709 83.0436L92.3607 83.3567C92.3608 83.3567 92.3608 83.3566 92.3609 83.3566C92.5562 83.1132 92.689 82.7299 92.7156 82.1371C92.7425 81.5397 92.664 80.6817 92.3872 79.4352C90.7535 72.0524 87.7162 64.196 78.493 60.1098L78.104 59.9374L77.8716 60.2939L69.7067 72.8217L70.1256 73.0947L69.7067 72.8217C69.472 73.182 69.0839 73.4134 68.6552 73.4486L68.6546 73.4486C68.6172 73.4518 68.5793 73.4533 68.5412 73.4533C68.1528 73.4533 67.7799 73.2906 67.5155 73.0017L67.5154 73.0016L60.4946 65.3336L60.1259 64.9308L59.7571 65.3336L52.7366 73.0015C52.4718 73.2905 52.099 73.4533 51.7107 73.4533C51.6726 73.4533 51.6347 73.4518 51.5973 73.4486L51.5967 73.4486C51.168 73.4134 50.78 73.182 50.5452 72.8217L50.1263 73.0947L50.5452 72.8217L42.3803 60.2939L42.148 59.9374L41.7589 60.1098C32.5355 64.1961 29.4985 72.0525 27.8649 79.4342C27.588 80.6812 27.5095 81.5395 27.5364 82.1369C27.5631 82.7301 27.6959 83.1133 27.8909 83.3566L27.8911 83.3567C28.0774 83.589 28.4022 83.7911 28.9322 83.9372C29.4653 84.0842 30.2485 84.1866 31.4104 84.1866H42.9524C43.7205 84.1866 44.3433 84.8094 44.3433 85.5777C44.3433 86.346 43.7205 86.9688 42.9524 86.9688H31.4104C29.335 86.9688 27.0202 86.7171 25.7209 85.0977C25.0622 84.2767 24.7942 83.256 24.7566 82.151C24.719 81.043 24.9144 79.8866 25.1485 78.832L25.1486 78.8317C26.2023 74.0703 27.8616 68.9455 31.2973 64.6337C34.7222 60.3353 39.9433 56.8065 48.1965 55.2872L48.606 55.2118V54.7955V47.7547V47.5496L48.462 47.4035C44.772 43.6626 42.7322 39.5377 42.7322 36.0243V30.3397C42.7322 27.2642 42.7348 24.2144 43.3757 21.5264C44.0115 18.8596 45.2665 16.5906 47.7532 15.041L47.8722 14.9669L47.9352 14.8417C49.2823 12.1688 51.3503 10.631 54.2873 10.1122C56.9087 9.64926 59.8559 10.024 63.3856 10.4787L63.4495 9.98279L63.3856 10.4787L63.4254 10.4838C69.132 11.2189 75.7383 12.0698 82.6127 9.14251C83.0305 8.96467 83.508 9.00173 83.8928 9.24147L83.8929 9.24158C84.278 9.48125 84.522 9.89377 84.5467 10.3467C84.944 17.6475 84.191 22.8725 82.3184 26.3974C80.9402 28.9913 79.1791 30.2429 77.7447 31.0434L77.4884 31.1865V31.48V36.0243C77.4884 39.5277 75.4603 43.6392 71.7898 47.3718L71.6463 47.5178V47.7224V54.7955V55.2118L72.0558 55.2872C80.3088 56.8065 85.5299 60.3353 88.9549 64.6339C92.3905 68.9459 94.0498 74.0711 95.1037 78.833ZM49.614 17.1752L49.6139 17.1753C47.9174 18.1006 46.9135 19.4635 46.33 21.2386C45.755 22.9878 45.5854 25.1458 45.5348 27.6863L45.52 28.4272L46.2125 28.1636C48.6729 27.2272 50.3778 26.1479 52.3662 24.0211L52.3662 24.021C52.6375 23.7308 53.008 23.58 53.383 23.58C53.6545 23.58 53.927 23.659 54.1656 23.8217L54.1656 23.8217C59.2422 27.2819 65.5232 28.7548 75.6445 28.9408L75.7717 28.9431L75.8846 28.8843C77.1961 28.2015 78.686 27.3039 79.8613 25.0918C81.2881 22.4065 81.9376 18.3562 81.86 13.0928L81.8501 12.4214L81.2097 12.6233C74.566 14.718 68.2829 13.9147 63.0302 13.238C59.5508 12.7898 56.8534 12.4861 54.7958 12.8437C53.7501 13.0255 52.8455 13.3806 52.0755 13.9876C51.3064 14.5939 50.7025 15.4271 50.2196 16.5174L50.2196 16.5174C50.0956 16.7975 49.8828 17.0287 49.614 17.1752ZM45.8567 31.2452L45.5144 31.359V31.7197V36.0243C45.5144 39.0232 47.5854 42.7048 50.9018 45.9053L51.2491 45.5455L50.9018 45.9053C52.4386 47.3883 54.1182 48.6323 55.7135 49.5084C57.2967 50.3778 58.8456 50.9117 60.1103 50.9117C61.375 50.9117 62.9239 50.3778 64.5071 49.5084C66.1024 48.6324 67.782 47.3884 69.3187 45.9053C72.6354 42.7048 74.7064 39.0232 74.7064 36.0243V32.1886V31.7039L74.2219 31.6888C64.996 31.4027 58.9137 29.9715 53.9023 26.9566L53.5787 26.7619L53.303 27.0199C50.8533 29.3116 48.5747 30.3416 45.8567 31.2452ZM51.5444 69.2589L51.8965 69.7992L52.332 69.3235L57.5807 63.5907L57.9824 63.1519L57.4811 62.8317L49.85 57.9569L49.6889 57.8539L49.5002 57.8848C48.0679 58.1189 46.7317 58.4169 45.483 58.7724L44.8307 58.9581L45.201 59.5263L51.5444 69.2589ZM51.3882 55.3643V55.6383L51.6191 55.7857L59.8571 61.0481L60.1262 61.22L60.3954 61.0481L68.6334 55.7857L68.8642 55.6383V55.3643V50.9534V49.9874L68.0755 50.5452C65.2213 52.5638 62.3537 53.6942 60.1105 53.6942C57.8755 53.6942 55.0206 52.5722 52.1763 50.5674L51.3882 50.0119V50.9761V55.3643ZM67.9205 69.3237L68.356 69.7994L68.7081 69.259L75.0514 59.5263L75.4217 58.9581L74.7695 58.7724C73.521 58.4169 72.1846 58.1189 70.7523 57.8848L70.5636 57.8539L70.4024 57.9569L62.7712 62.8317L62.2699 63.1519L62.6716 63.5907L67.9205 69.3237Z" fill="#282828" stroke="white"/>
<path d="M52.0218 83.6863C50.9774 83.6863 50.1309 84.5328 50.1309 85.5774C50.1309 86.6218 50.9774 87.4685 52.0218 87.4685H52.0325C53.0769 87.4685 53.9182 86.622 53.9182 85.5774C53.9182 84.5328 53.0662 83.6863 52.0218 83.6863Z" fill="#282828"/>
</g>
<defs>
<clipPath id="clip0">
<rect width="96" height="96" fill="white"/>
</clipPath>
</defs>
</svg>
