<svg width="96" height="96" viewBox="0 0 96 96" fill="none" xmlns="http://www.w3.org/2000/svg">
<g clip-path="url(#clip0)">
<path d="M96.0003 26.2423C95.9924 25.7743 95.7436 25.328 95.3476 25.0773L65.6102 6.24714C65.4645 6.15489 65.3031 6.09021 65.1339 6.05627L35.0322 0.0300432C33.5407 -0.269206 32.7194 1.78354 34.004 2.59691L47.4753 11.127L36.6301 14.3456L27.443 8.52826C26.9773 8.23332 26.382 8.23782 25.9205 8.5397L14.782 15.8308C13.3095 16.7945 14.7829 19.1917 16.3223 18.1841L26.7035 11.3889L53.8307 28.5661L31.133 43.423L4.00581 26.2458L10.1147 22.2472C11.5872 21.2835 10.1138 18.8863 8.57442 19.8939L0.638138 25.0888C0.247765 25.3439 0.00195312 25.7994 0.00195312 26.2653V75.7659C0.00195312 76.2477 0.248702 76.6961 0.655951 76.9539L30.3935 95.784C30.7303 95.997 31.1645 96.0578 31.5459 95.9442L83.0937 80.6463C84.7809 80.1457 84.0573 77.4262 82.2935 77.9501L32.5518 92.7119V46.1449L93.1889 28.1495V74.7163L89.3491 75.8559C87.6622 76.3565 88.3852 79.0752 90.1493 78.5521L94.9955 77.114C95.5923 76.937 96.0016 76.3884 96.0016 75.7659V26.2653C96.0016 26.2576 96.0004 26.2499 96.0003 26.2423ZM64.326 8.76301L87.4392 23.3986L65.0256 18.9112L41.9123 4.27559L64.326 8.76301ZM57.1806 27.3584L39.7846 16.3432L50.6297 13.1246L63.7414 21.4271C63.8871 21.5193 64.0485 21.584 64.2176 21.618L88.7579 26.531L39.943 41.0178L57.1984 29.7232C57.5985 29.4612 57.8382 29.0141 57.8346 28.5359C57.831 28.0578 57.5847 27.6142 57.1806 27.3584ZM2.81444 28.8202L29.7395 45.8693V92.041L2.81444 74.9921V28.8202Z" fill="#282828"/>
<path d="M87.4983 55.0388C87.1424 54.7733 86.6819 54.6915 86.2565 54.8183L38.681 68.9756C38.0847 69.153 37.6758 69.7012 37.6758 70.3233V84.0455C37.6758 84.4895 37.8854 84.9074 38.2413 85.1727C38.4871 85.3561 38.7826 85.4517 39.082 85.4517C39.2163 85.4517 39.3513 85.4324 39.4831 85.3932L87.0586 71.2359C87.6548 71.0585 88.0638 70.5103 88.0638 69.8881V56.166C88.0638 55.722 87.8541 55.3041 87.4983 55.0388ZM85.2513 68.8395L40.4883 82.1598V71.372L85.2513 58.0517V68.8395Z" fill="#F4CF87"/>
<path d="M54.6914 76.0003C55.468 76.0003 56.0977 75.3706 56.0977 74.594V70.6091C56.0977 68.8494 53.2852 68.7691 53.2852 70.6091V74.594C53.2852 75.3708 53.9148 76.0003 54.6914 76.0003Z" fill="#F4CF87"/>
<path d="M73.3535 70.2805C74.1301 70.2805 74.7598 69.6508 74.7598 68.8742V64.8891C74.7598 63.1294 71.9473 63.0492 71.9473 64.8891V68.8742C71.9473 69.6508 72.5769 70.2805 73.3535 70.2805Z" fill="#F4CF87"/>
<path d="M77.502 69.1555C78.2786 69.1555 78.9082 68.5258 78.9082 67.7492V63.7641C78.9082 62.0044 76.0957 61.9242 76.0957 63.7641V67.7492C76.0957 68.5258 76.7253 69.1555 77.502 69.1555Z" fill="#F4CF87"/>
<path d="M81.6543 68.0305C82.4309 68.0305 83.0606 67.4008 83.0606 66.6242V62.6391C83.0606 60.8794 80.248 60.7992 80.248 62.6391V66.6242C80.248 67.4008 80.8777 68.0305 81.6543 68.0305Z" fill="#F4CF87"/>
<path d="M44.127 79.1433C44.9036 79.1433 45.5332 78.5137 45.5332 77.7371V73.7521C45.5332 71.9924 42.7207 71.9122 42.7207 73.7521V77.7371C42.7207 78.5137 43.3503 79.1433 44.127 79.1433Z" fill="#F4CF87"/>
<path d="M48.1914 78.1431C48.968 78.1431 49.5977 77.5135 49.5977 76.7368V72.7519C49.5977 70.9922 46.7852 70.9119 46.7852 72.7519V76.7368C46.7852 77.5135 47.4148 78.1431 48.1914 78.1431Z" fill="#F4CF87"/>
<path d="M62.0332 73.73C62.8098 73.73 63.4395 73.1004 63.4395 72.3237V68.3388C63.4395 66.5791 60.627 66.4989 60.627 68.3388V72.3237C60.627 73.1004 61.2566 73.73 62.0332 73.73Z" fill="#F4CF87"/>
<path d="M66.0098 72.7117C66.7864 72.7117 67.416 72.0821 67.416 71.3054V67.3205C67.416 65.5608 64.6035 65.4805 64.6035 67.3205V71.3054C64.6035 72.0821 65.2331 72.7117 66.0098 72.7117Z" fill="#F4CF87"/>
</g>
<defs>
<clipPath id="clip0">
<rect width="96" height="96" fill="white"/>
</clipPath>
</defs>
</svg>
