<svg width="23" height="23" viewBox="0 0 23 23" fill="none" xmlns="http://www.w3.org/2000/svg">
<g clip-path="url(#clip0)">
<path d="M11.3361 11.0792C12.8582 11.0792 14.1762 10.5333 15.2531 9.45619C16.33 8.3793 16.8759 7.06166 16.8759 5.53941C16.8759 4.01768 16.33 2.69986 15.2529 1.62262C14.1759 0.545904 12.858 0 11.3361 0C9.8139 0 8.49625 0.545904 7.41936 1.6228C6.34247 2.69969 5.79639 4.01751 5.79639 5.53941C5.79639 7.06166 6.34247 8.37948 7.41953 9.45637C8.4966 10.5331 9.81442 11.0792 11.3361 11.0792Z" fill="white"/>
<path d="M21.0292 17.6858C20.9981 17.2376 20.9353 16.7488 20.8428 16.2325C20.7494 15.7124 20.6292 15.2207 20.4854 14.7713C20.3367 14.3068 20.1346 13.8482 19.8847 13.4086C19.6254 12.9524 19.3207 12.5551 18.9789 12.2282C18.6215 11.8862 18.1838 11.6112 17.6777 11.4106C17.1734 11.2111 16.6145 11.11 16.0167 11.11C15.7819 11.11 15.5548 11.2064 15.1163 11.4919C14.8465 11.6679 14.5308 11.8714 14.1784 12.0966C13.8771 12.2885 13.469 12.4684 12.9648 12.6312C12.473 12.7904 11.9736 12.8711 11.4807 12.8711C10.9878 12.8711 10.4885 12.7904 9.99614 12.6312C9.49252 12.4686 9.08437 12.2887 8.78343 12.0967C8.43441 11.8737 8.11855 11.6702 7.84463 11.4917C7.40665 11.2062 7.17941 11.1099 6.94462 11.1099C6.3466 11.1099 5.78789 11.2111 5.28375 11.4108C4.77803 11.611 4.34022 11.886 3.98242 12.2283C3.64077 12.5554 3.33597 12.9525 3.07697 13.4086C2.82727 13.8482 2.62512 14.3067 2.47632 14.7715C2.3326 15.2209 2.2124 15.7124 2.11905 16.2325C2.02657 16.7481 1.96375 17.2371 1.93269 17.6863C1.90216 18.1264 1.88672 18.5832 1.88672 19.0445C1.88672 20.2451 2.26838 21.2171 3.02099 21.9339C3.76431 22.6412 4.74784 23.0001 5.94389 23.0001H17.0185C18.2145 23.0001 19.1977 22.6414 19.9412 21.9339C20.694 21.2176 21.0757 20.2455 21.0757 19.0443C21.0755 18.5809 21.0599 18.1238 21.0292 17.6858Z" fill="white"/>
</g>
<defs>
<clipPath id="clip0">
<rect width="22.9999" height="23" fill="white"/>
</clipPath>
</defs>
</svg>
