<svg width="29" height="26" viewBox="0 0 29 26" fill="none" xmlns="http://www.w3.org/2000/svg">
<path d="M12.7533 3.13206C13.5161 1.76425 15.4839 1.76425 16.2467 3.13206L27.3413 23.0259C28.0848 24.359 27.121 26 25.5946 26H3.40538C1.87897 26 0.915186 24.359 1.65865 23.0259L12.7533 3.13206Z" fill="#FF3434"/>
<path d="M15.166 18.9437H13.8589L13.2241 9H15.8008L15.166 18.9437ZM13 21.7324C13 20.8811 13.4979 20.4554 14.4938 20.4554C14.9751 20.4554 15.3444 20.5649 15.6017 20.784C15.8672 21.0031 16 21.3192 16 21.7324C16 22.133 15.8672 22.446 15.6017 22.6714C15.3361 22.8905 14.9668 23 14.4938 23C14.0622 23 13.7054 22.903 13.4232 22.7089C13.1411 22.5086 13 22.1831 13 21.7324Z" fill="white"/>
</svg>
