<svg width="92" height="15" viewBox="0 0 92 15" fill="none" xmlns="http://www.w3.org/2000/svg">
<path d="M5.95288 3.01465C3.45288 3.01465 1.45288 5.01465 1.45288 7.51465C1.45288 10.0146 3.45288 12.0146 5.95288 12.0146C8.45288 12.0146 10.4529 10.0146 10.4529 7.51465C10.4529 5.01465 8.45288 3.01465 5.95288 3.01465Z" fill="white" fill-opacity="0.2"/>
<path d="M90.7935 8.22176C91.1841 7.83123 91.1841 7.19807 90.7935 6.80754L84.4296 0.443581C84.039 0.0530562 83.4059 0.0530562 83.0154 0.443581C82.6248 0.834105 82.6248 1.46727 83.0154 1.85779L88.6722 7.51465L83.0154 13.1715C82.6248 13.562 82.6248 14.1952 83.0154 14.5857C83.4059 14.9762 84.039 14.9762 84.4296 14.5857L90.7935 8.22176ZM11.4194 6.90096C11.3592 6.35197 10.8653 5.95577 10.3163 6.01602C9.76731 6.07627 9.37111 6.57016 9.43136 7.11914L11.4194 6.90096ZM6.34838 4.03617C6.89737 4.09642 7.39126 3.70022 7.45151 3.15123C7.51176 2.60225 7.11556 2.10836 6.56657 2.04811L6.34838 4.03617ZM5.33919 2.04811C4.7902 2.10836 4.394 2.60225 4.45425 3.15123C4.5145 3.70022 5.00839 4.09642 5.55738 4.03617L5.33919 2.04811ZM2.4744 7.11914C2.53465 6.57016 2.13845 6.07627 1.58947 6.01602C1.04048 5.95577 0.546592 6.35197 0.486341 6.90096L2.4744 7.11914ZM0.486341 8.12834C0.546592 8.67733 1.04048 9.07353 1.58947 9.01328C2.13845 8.95303 2.53465 8.45914 2.4744 7.91015L0.486341 8.12834ZM5.55738 10.9931C5.00839 10.9329 4.5145 11.3291 4.45425 11.8781C4.394 12.4271 4.7902 12.9209 5.33919 12.9812L5.55738 10.9931ZM6.56657 12.9812C7.11556 12.9209 7.51176 12.4271 7.45151 11.8781C7.39126 11.3291 6.89737 10.9329 6.34838 10.9931L6.56657 12.9812ZM9.43136 7.91015C9.37111 8.45914 9.76731 8.95303 10.3163 9.01328C10.8653 9.07353 11.3592 8.67733 11.4194 8.12834L9.43136 7.91015ZM10.97 8.51465C11.5223 8.51465 11.97 8.06693 11.97 7.51465C11.97 6.96236 11.5223 6.51465 10.97 6.51465V8.51465ZM17.1752 6.51465C16.6229 6.51465 16.1752 6.96236 16.1752 7.51465C16.1752 8.06693 16.6229 8.51465 17.1752 8.51465V6.51465ZM18.2094 8.51465C18.7617 8.51465 19.2094 8.06693 19.2094 7.51465C19.2094 6.96236 18.7617 6.51465 18.2094 6.51465V8.51465ZM24.4146 6.51465C23.8623 6.51465 23.4146 6.96236 23.4146 7.51465C23.4146 8.06693 23.8623 8.51465 24.4146 8.51465V6.51465ZM25.4488 8.51465C26.0011 8.51465 26.4488 8.06693 26.4488 7.51465C26.4488 6.96236 26.0011 6.51465 25.4488 6.51465V8.51465ZM31.654 6.51465C31.1017 6.51465 30.654 6.96236 30.654 7.51465C30.654 8.06693 31.1017 8.51465 31.654 8.51465V6.51465ZM32.6882 8.51465C33.2405 8.51465 33.6882 8.06693 33.6882 7.51465C33.6882 6.96236 33.2405 6.51465 32.6882 6.51465V8.51465ZM38.8934 6.51465C38.3411 6.51465 37.8934 6.96236 37.8934 7.51465C37.8934 8.06693 38.3411 8.51465 38.8934 8.51465V6.51465ZM39.9276 8.51465C40.4799 8.51465 40.9276 8.06693 40.9276 7.51465C40.9276 6.96236 40.4799 6.51465 39.9276 6.51465V8.51465ZM46.1328 6.51465C45.5806 6.51465 45.1328 6.96236 45.1328 7.51465C45.1328 8.06693 45.5806 8.51465 46.1328 8.51465V6.51465ZM47.167 8.51465C47.7193 8.51465 48.167 8.06693 48.167 7.51465C48.167 6.96236 47.7193 6.51465 47.167 6.51465V8.51465ZM53.3723 6.51465C52.82 6.51465 52.3723 6.96236 52.3723 7.51465C52.3723 8.06693 52.82 8.51465 53.3723 8.51465V6.51465ZM54.4065 8.51465C54.9587 8.51465 55.4065 8.06693 55.4065 7.51465C55.4065 6.96236 54.9587 6.51465 54.4065 6.51465V8.51465ZM60.6117 6.51465C60.0594 6.51465 59.6117 6.96236 59.6117 7.51465C59.6117 8.06693 60.0594 8.51465 60.6117 8.51465V6.51465ZM61.6459 8.51465C62.1982 8.51465 62.6459 8.06693 62.6459 7.51465C62.6459 6.96236 62.1982 6.51465 61.6459 6.51465V8.51465ZM67.8511 6.51465C67.2988 6.51465 66.8511 6.96236 66.8511 7.51465C66.8511 8.06693 67.2988 8.51465 67.8511 8.51465V6.51465ZM68.8853 8.51465C69.4376 8.51465 69.8853 8.06693 69.8853 7.51465C69.8853 6.96236 69.4376 6.51465 68.8853 6.51465V8.51465ZM75.0905 6.51465C74.5382 6.51465 74.0905 6.96236 74.0905 7.51465C74.0905 8.06693 74.5382 8.51465 75.0905 8.51465V6.51465ZM76.1247 8.51465C76.677 8.51465 77.1247 8.06693 77.1247 7.51465C77.1247 6.96236 76.677 6.51465 76.1247 6.51465V8.51465ZM82.3299 6.51465C81.7776 6.51465 81.3299 6.96236 81.3299 7.51465C81.3299 8.06693 81.7776 8.51465 82.3299 8.51465V6.51465ZM83.3641 8.51465C83.9164 8.51465 84.3641 8.06693 84.3641 7.51465C84.3641 6.96236 83.9164 6.51465 83.3641 6.51465V8.51465ZM89.5693 6.51465C89.017 6.51465 88.5693 6.96236 88.5693 7.51465C88.5693 8.06693 89.017 8.51465 89.5693 8.51465V6.51465ZM11.4529 7.51465C11.4529 7.30752 11.4416 7.10274 11.4194 6.90096L9.43136 7.11914C9.44555 7.24846 9.45288 7.3804 9.45288 7.51465H11.4529ZM6.56657 2.04811C6.36479 2.02596 6.16001 2.01465 5.95288 2.01465V4.01465C6.08713 4.01465 6.21907 4.02198 6.34838 4.03617L6.56657 2.04811ZM5.95288 2.01465C5.74575 2.01465 5.54097 2.02596 5.33919 2.04811L5.55738 4.03617C5.68669 4.02198 5.81863 4.01465 5.95288 4.01465V2.01465ZM0.486341 6.90096C0.464196 7.10274 0.452881 7.30752 0.452881 7.51465H2.45288C2.45288 7.3804 2.46021 7.24846 2.4744 7.11914L0.486341 6.90096ZM0.452881 7.51465C0.452881 7.72178 0.464196 7.92656 0.486341 8.12834L2.4744 7.91015C2.46021 7.78084 2.45288 7.6489 2.45288 7.51465H0.452881ZM5.33919 12.9812C5.54097 13.0033 5.74575 13.0146 5.95288 13.0146V11.0146C5.81863 11.0146 5.68669 11.0073 5.55738 10.9931L5.33919 12.9812ZM5.95288 13.0146C6.16001 13.0146 6.36479 13.0033 6.56657 12.9812L6.34838 10.9931C6.21907 11.0073 6.08713 11.0146 5.95288 11.0146V13.0146ZM11.4194 8.12834C11.4416 7.92656 11.4529 7.72178 11.4529 7.51465H9.45288C9.45288 7.6489 9.44555 7.78084 9.43136 7.91015L11.4194 8.12834ZM10.4529 8.51465H10.97V6.51465H10.4529V8.51465ZM17.1752 8.51465H18.2094V6.51465H17.1752V8.51465ZM24.4146 8.51465H25.4488V6.51465H24.4146V8.51465ZM31.654 8.51465H32.6882V6.51465H31.654V8.51465ZM38.8934 8.51465H39.9276V6.51465H38.8934V8.51465ZM46.1328 8.51465H47.167V6.51465H46.1328V8.51465ZM53.3723 8.51465H54.4065V6.51465H53.3723V8.51465ZM60.6117 8.51465H61.6459V6.51465H60.6117V8.51465ZM67.8511 8.51465H68.8853V6.51465H67.8511V8.51465ZM75.0905 8.51465H76.1247V6.51465H75.0905V8.51465ZM82.3299 8.51465H83.3641V6.51465H82.3299V8.51465ZM89.5693 8.51465H90.0864V6.51465H89.5693V8.51465Z" fill="#121C42" fill-opacity="0.2"/>
</svg>
