<svg width="1096" height="180" viewBox="0 0 1096 180" fill="none" xmlns="http://www.w3.org/2000/svg">
<path d="M1079.46 1C1081.96 1 1083.96 2.99369 1083.96 5.4858C1083.96 7.97792 1081.96 9.97161 1079.46 9.97161C1076.96 9.97161 1074.96 7.97792 1074.96 5.4858C1074.96 2.99369 1076.96 1 1079.46 1Z" fill="white" fill-opacity="0.2"/>
<path d="M1083.96 5.4858C1083.96 2.99369 1081.96 1 1079.46 1C1076.96 1 1074.96 2.99369 1074.96 5.4858C1074.96 7.97792 1076.96 9.97161 1079.46 9.97161C1081.96 9.97161 1083.96 7.97792 1083.96 5.4858ZM1083.96 5.4858V5.4858C1090.06 5.4858 1095 10.4272 1095 16.5226L1095 63.2259C1095 74.2716 1086.05 83.2258 1075 83.2258H21C9.95429 83.2258 1.00002 92.1801 1.00002 103.226V162.161C1.00002 171.461 8.53908 179 17.839 179V179" stroke="#121C42" stroke-opacity="0.2" stroke-width="2" stroke-linecap="round" stroke-linejoin="round" stroke-dasharray="1 6"/>
</svg>
