<svg width="18" height="19" viewBox="0 0 18 19" fill="none" xmlns="http://www.w3.org/2000/svg">
<path d="M15.8906 3.23608H2.10938C0.946266 3.23608 0 4.18235 0 5.34546V14.3455C0 15.5086 0.946266 16.4548 2.10938 16.4548H15.8906C17.0537 16.4548 18 15.5086 18 14.3455V5.34546C18 4.18235 17.0537 3.23608 15.8906 3.23608ZM16.5938 14.3455C16.5938 14.7332 16.2783 15.0486 15.8906 15.0486H2.10938C1.72167 15.0486 1.40625 14.7332 1.40625 14.3455V5.34546C1.40625 4.95776 1.72167 4.64233 2.10938 4.64233H15.8906C16.2783 4.64233 16.5938 4.95776 16.5938 5.34546V14.3455Z" fill="#8370F2"/>
<path d="M16.4743 4.11279L8.99996 9.67228L1.5256 4.11279L0.686279 5.24113L8.99996 11.4249L17.3136 5.24113L16.4743 4.11279Z" fill="#8370F2"/>
</svg>
