<svg width="14" height="15" viewBox="0 0 14 15" fill="none" xmlns="http://www.w3.org/2000/svg">
<g clip-path="url(#clip0)">
<path d="M13.1585 6.24764C13.1012 6.23834 13.0433 6.23405 12.9853 6.2348H3.10854L3.32391 6.13464C3.53442 6.035 3.72593 5.89939 3.88986 5.73396L6.65954 2.96428C7.02431 2.61607 7.08561 2.0559 6.80479 1.63704C6.47795 1.19069 5.85118 1.09378 5.4048 1.42061C5.36874 1.44703 5.33446 1.47583 5.30225 1.50682L0.293786 6.51528C-0.0976257 6.90625 -0.0979701 7.54048 0.293003 7.93189C0.293253 7.93214 0.293535 7.93242 0.293786 7.93267L5.30225 12.9411C5.69397 13.3318 6.3282 13.3309 6.71886 12.9392C6.7496 12.9083 6.7783 12.8755 6.80479 12.841C7.08561 12.4221 7.02431 11.8619 6.65954 11.5137L3.89487 8.73904C3.7479 8.59191 3.57893 8.46855 3.39402 8.37342L3.09352 8.23819H12.9301C13.4418 8.25719 13.8908 7.89974 13.9869 7.39677C14.0755 6.85069 13.7046 6.33623 13.1585 6.24764Z" fill="white"/>
</g>
<defs>
<clipPath id="clip0">
<rect width="14" height="14" fill="white" transform="translate(0 0.230225)"/>
</clipPath>
</defs>
</svg>
