<svg width="18" height="19" viewBox="0 0 18 19" fill="none" xmlns="http://www.w3.org/2000/svg">
<g clip-path="url(#clip0)">
<path d="M8.32078 14.2223L5.59712 16.9459C5.10218 17.4409 4.44412 17.7133 3.74483 17.7133C2.30014 17.7133 1.12516 16.5383 1.12516 15.0936C1.12516 14.3938 1.39761 13.7363 1.89254 13.2413L6.77814 8.35573C7.76967 7.36586 9.4967 7.36697 10.4838 8.35684L11.2803 7.56251C9.86586 6.14473 7.39832 6.14473 5.98273 7.56032L1.09717 12.4459C0.389655 13.1534 0.000183105 14.0933 0.000183105 15.0936C0.000183105 17.1585 1.67999 18.8383 3.74486 18.8383C4.74518 18.8383 5.68504 18.4488 6.39255 17.7413L9.84166 14.2922C9.6842 14.3074 9.53011 14.3383 9.36985 14.3383C9.00958 14.3383 8.65897 14.2968 8.32078 14.2223Z" fill="#949BAB"/>
<path d="M14.2555 0.838257C13.2552 0.838257 12.3153 1.22773 11.6078 1.93525L8.15871 5.38432C8.31616 5.36914 8.47025 5.33824 8.63052 5.33824C8.98922 5.33824 9.33447 5.38857 9.67133 5.46251L12.4032 2.73062C12.8982 2.23569 13.5557 1.96324 14.2555 1.96324C15.7002 1.96324 16.8752 3.13822 16.8752 4.58291C16.8752 5.28275 16.6027 5.94027 16.1078 6.4352L11.2222 11.3209C10.2301 12.3113 8.50304 12.3096 7.51429 11.3181L6.71777 12.1124C7.42529 12.8222 8.36737 13.2133 9.36988 13.2133C10.3702 13.2133 11.3101 12.8238 12.0176 12.1163L16.9032 7.2307C17.6107 6.52318 18.0002 5.58329 18.0002 4.58301C18.0002 2.51807 16.3204 0.838257 14.2555 0.838257V0.838257Z" fill="#949BAB"/>
</g>
<defs>
<clipPath id="clip0">
<rect width="18" height="18" fill="white" transform="translate(0.000183105 0.838257)"/>
</clipPath>
</defs>
</svg>
