<svg width="18" height="19" viewBox="0 0 18 19" fill="none" xmlns="http://www.w3.org/2000/svg">
<g clip-path="url(#clip0)">
<path d="M9.00024 0.838257C5.27807 0.838257 2.25024 3.86609 2.25024 7.58825C2.25024 13.4127 8.38282 18.4977 8.64428 18.7114C8.74756 18.796 8.87389 18.8383 9.00024 18.8383C9.1266 18.8383 9.25292 18.796 9.3562 18.7114C9.61767 18.4977 15.7502 13.4127 15.7502 7.58825C15.7502 3.86609 12.7224 0.838257 9.00024 0.838257V0.838257ZM8.99969 17.5292C7.71097 16.3674 3.37522 12.1212 3.37522 7.58822C3.37522 4.48677 5.89876 1.96323 9.00021 1.96323C12.1017 1.96323 14.6252 4.48677 14.6252 7.58822C14.6252 12.114 10.2878 16.3668 8.99969 17.5292Z" fill="#949BAB"/>
<path d="M9.00024 4.21326C7.13914 4.21326 5.62524 5.72715 5.62524 7.58825C5.62524 9.44934 7.13914 10.9632 9.00024 10.9632C10.8613 10.9632 12.3752 9.44934 12.3752 7.58825C12.3752 5.72715 10.8613 4.21326 9.00024 4.21326ZM9.00024 9.83823C7.75934 9.83823 6.75025 8.82914 6.75025 7.58825C6.75025 6.34736 7.75934 5.33827 9.00024 5.33827C10.2411 5.33827 11.2502 6.34736 11.2502 7.58825C11.2502 8.82917 10.2411 9.83823 9.00024 9.83823Z" fill="#949BAB"/>
</g>
<defs>
<clipPath id="clip0">
<rect width="18" height="18" fill="white" transform="translate(0.000244141 0.838257)"/>
</clipPath>
</defs>
</svg>
