<svg width="15" height="15" viewBox="0 0 15 15" fill="none" xmlns="http://www.w3.org/2000/svg">
<g clip-path="url(#clip0)">
<path d="M1.61247 6.53954C1.66976 6.53024 1.72773 6.52595 1.78574 6.5267H11.6625L11.4471 6.42654C11.2366 6.3269 11.0451 6.19129 10.8811 6.02586L8.11145 3.25618C7.74668 2.90797 7.68539 2.3478 7.96621 1.92894C8.29304 1.48259 8.91982 1.38568 9.3662 1.71251C9.40226 1.73893 9.43654 1.76773 9.46875 1.79872L14.4772 6.80718C14.8686 7.19815 14.869 7.83238 14.478 8.22379C14.4777 8.22404 14.4775 8.22432 14.4772 8.22457L9.46875 13.233C9.07702 13.6237 8.4428 13.6228 8.05214 13.2311C8.0214 13.2002 7.99269 13.1674 7.96621 13.1329C7.68539 12.714 7.74668 12.1538 8.11145 11.8056L10.8761 9.03094C11.0231 8.88381 11.1921 8.76045 11.377 8.66532L11.6775 8.53009H1.84086C1.32915 8.54909 0.880205 8.19164 0.784074 7.68867C0.695518 7.14259 1.06639 6.62813 1.61247 6.53954Z" fill="white"/>
</g>
<defs>
<clipPath id="clip0">
<rect width="14" height="14" fill="white" transform="matrix(-1 0 0 1 14.771 0.522217)"/>
</clipPath>
</defs>
</svg>
