<svg width="18" height="19" viewBox="0 0 18 19" fill="none" xmlns="http://www.w3.org/2000/svg">
<g clip-path="url(#clip0)">
<path d="M16.3126 5.33824H13.5001V3.65077C13.5001 2.72023 12.7432 1.96326 11.8126 1.96326H6.18763C5.25709 1.96326 4.50012 2.72023 4.50012 3.65077V5.33828H1.68763C0.757096 5.33824 0.00012207 6.09521 0.00012207 7.02575V16.0258C0.00012207 16.9563 0.757096 17.7133 1.68763 17.7133H16.3127C17.2432 17.7133 18.0002 16.9563 18.0002 16.0258V7.02575C18.0001 6.09521 17.2432 5.33824 16.3126 5.33824ZM5.62513 3.65077C5.62513 3.34041 5.87727 3.08826 6.18763 3.08826H11.8126C12.123 3.08826 12.3751 3.34041 12.3751 3.65077V5.33828H5.62513V3.65077ZM16.8751 16.0258C16.8751 16.3361 16.623 16.5883 16.3126 16.5883H1.68763C1.37728 16.5883 1.12513 16.3361 1.12513 16.0258V10.9632H4.50012V12.0882H5.62513V10.9632H12.3751V12.0882H13.5001V10.9632H16.8751V16.0258ZM16.8751 9.83827H1.12513V7.02575C1.12513 6.7154 1.37728 6.46325 1.68763 6.46325H16.3127C16.623 6.46325 16.8752 6.7154 16.8752 7.02575V9.83827H16.8751Z" fill="#949BAB"/>
</g>
<defs>
<clipPath id="clip0">
<rect width="18" height="18" fill="white" transform="translate(0.00012207 0.838257)"/>
</clipPath>
</defs>
</svg>
