<svg width="19" height="19" viewBox="0 0 19 19" fill="none" xmlns="http://www.w3.org/2000/svg">
<g clip-path="url(#clip0)">
<path d="M17.3364 2.17628H16.458C16.1492 1.30237 15.3163 0.67627 14.3364 0.67627C13.3566 0.67627 12.5237 1.30233 12.2149 2.17628H11.208C10.8992 1.30237 10.0663 0.676305 9.08643 0.676305C8.10655 0.676305 7.2737 1.30237 6.96489 2.17632H5.95798C5.64916 1.3024 4.81631 0.676305 3.83644 0.676305C2.85656 0.676305 2.02371 1.30237 1.7149 2.17628H0.836414C0.422203 2.17628 0.0864258 2.51209 0.0864258 2.9263V6.67632V17.1763C0.0864258 17.5905 0.422203 17.9263 0.836414 17.9263H17.3364C17.7506 17.9263 18.0864 17.5905 18.0864 17.1763V6.67628V2.9263C18.0864 2.51209 17.7506 2.17628 17.3364 2.17628ZM1.58644 3.67629H2.33643C2.75064 3.67629 3.08641 3.34052 3.08641 2.9263C3.08641 2.51178 3.42188 2.17632 3.8364 2.17632C4.25093 2.17632 4.58643 2.51174 4.58643 2.9263C4.58643 3.34087 4.25096 3.67629 3.83644 3.67629C3.42223 3.67629 3.08645 4.01207 3.08645 4.42628C3.08645 4.84049 3.42223 5.17627 3.83644 5.17627C4.81631 5.17627 5.64916 4.55021 5.95798 3.67626H7.58641C8.00062 3.67626 8.3364 3.34048 8.3364 2.92627C8.3364 2.51174 8.67186 2.17628 9.08639 2.17628C9.50092 2.17628 9.83638 2.51174 9.83638 2.92627C9.83638 3.3408 9.50095 3.67629 9.08643 3.67629C8.67221 3.67629 8.33644 4.01207 8.33644 4.42628C8.33644 4.84049 8.67221 5.17627 9.08643 5.17627C10.0663 5.17627 10.8992 4.55021 11.208 3.67626H12.8364C13.2506 3.67629 13.5864 3.34052 13.5864 2.9263C13.5864 2.51178 13.9219 2.17632 14.3364 2.17632C14.7509 2.17632 15.0864 2.51178 15.0864 2.9263C15.0864 3.34083 14.751 3.67629 14.3364 3.67629C13.9222 3.67629 13.5864 4.01207 13.5864 4.42628C13.5864 4.84049 13.9222 5.17627 14.3364 5.17627C15.3163 5.17627 16.1491 4.55021 16.458 3.67626H16.5864V5.92626H1.58644V3.67629ZM1.58644 16.4263V7.4263H16.5865V16.4263H1.58644Z" fill="#8370F2"/>
<path d="M4.58642 9.67627C4.17242 9.67627 3.83643 10.0123 3.83643 10.4263C3.83643 10.8403 4.17242 11.1762 4.58642 11.1762C5.00042 11.1762 5.33641 10.8403 5.33641 10.4263C5.33641 10.0123 5.00042 9.67627 4.58642 9.67627Z" fill="#8370F2"/>
<path d="M9.08641 9.67627C8.67241 9.67627 8.33643 10.0123 8.33643 10.4263C8.33643 10.8403 8.67241 11.1762 9.08641 11.1762C9.5004 11.1762 9.83639 10.8403 9.83639 10.4263C9.83639 10.0123 9.5004 9.67627 9.08641 9.67627Z" fill="#8370F2"/>
<path d="M13.5864 9.67627C13.1724 9.67627 12.8364 10.0123 12.8364 10.4263C12.8364 10.8403 13.1724 11.1762 13.5864 11.1762C14.0004 11.1762 14.3364 10.8403 14.3364 10.4263C14.3364 10.0123 14.0004 9.67627 13.5864 9.67627Z" fill="#8370F2"/>
<path d="M4.58642 13.4263C4.17242 13.4263 3.83643 13.7623 3.83643 14.1763C3.83643 14.5903 4.17242 14.9263 4.58642 14.9263C5.00042 14.9263 5.33641 14.5903 5.33641 14.1763C5.33641 13.7623 5.00042 13.4263 4.58642 13.4263Z" fill="#8370F2"/>
<path d="M9.08641 13.4263C8.67241 13.4263 8.33643 13.7623 8.33643 14.1763C8.33643 14.5903 8.67241 14.9263 9.08641 14.9263C9.5004 14.9263 9.83639 14.5903 9.83639 14.1763C9.83639 13.7623 9.5004 13.4263 9.08641 13.4263Z" fill="#8370F2"/>
<path d="M13.5864 13.4263C13.1724 13.4263 12.8364 13.7623 12.8364 14.1763C12.8364 14.5903 13.1724 14.9263 13.5864 14.9263C14.0004 14.9263 14.3364 14.5903 14.3364 14.1763C14.3364 13.7623 14.0004 13.4263 13.5864 13.4263Z" fill="#8370F2"/>
</g>
<defs>
<clipPath id="clip0">
<rect width="18" height="18" fill="white" transform="translate(0.0864258 0.30127)"/>
</clipPath>
</defs>
</svg>
