<svg width="63" height="63" viewBox="0 0 63 63" fill="none" xmlns="http://www.w3.org/2000/svg">
<g clip-path="url(#clip0)">
<path d="M0.711426 46.8241V46.8269C0.748532 48.2032 0.759977 49.5874 0.992132 50.9553C1.23814 52.4024 1.58981 53.8136 2.26073 55.127C3.16778 56.9047 4.41349 58.4059 5.98593 59.6322C7.1149 60.5128 8.3482 61.2118 9.71341 61.6527C11.7041 62.2949 13.7579 62.541 15.8416 62.553C17.1416 62.5612 18.4408 62.5938 19.7414 62.5883C29.186 62.5486 38.6308 62.6565 48.0757 62.53C49.329 62.513 50.5618 62.3602 51.7918 62.1352C54.1494 61.7037 56.233 60.6977 58.0157 59.1073C60.0933 57.2543 61.495 54.9865 62.1277 52.2494C62.5418 50.4604 62.6454 48.6453 62.6631 46.8239V46.4605C62.6631 46.3195 62.6095 15.5115 62.6046 15.1043C62.5907 13.9857 62.5083 12.8755 62.2986 11.7749C62.0435 10.4336 61.6832 9.12673 61.0409 7.91331C60.3628 6.63134 59.5133 5.47864 58.4626 4.47135C56.8532 2.92807 54.996 1.83669 52.8338 1.25937C50.8809 0.738079 48.8886 0.622664 46.8818 0.624471C46.8785 0.623989 46.8709 0.603629 46.8705 0.59375H16.4945C16.4938 0.604111 16.4935 0.614472 16.4928 0.624471C15.3538 0.645313 14.2131 0.636759 13.08 0.777233C11.8386 0.931561 10.6091 1.16396 9.43415 1.59791C7.58342 2.28244 5.97545 3.34864 4.60191 4.77205C3.04574 6.38473 1.94882 8.2498 1.36681 10.4216C0.847562 12.3593 0.734558 14.3356 0.731787 16.3258" fill="#FFFC00"/>
<path d="M31.9683 52.9038C31.8396 52.9038 31.7169 52.8991 31.6235 52.8946C31.5494 52.901 31.4729 52.9038 31.3963 52.9038C28.6932 52.9038 26.8858 51.6259 25.2909 50.4975C24.1477 49.69 23.0696 48.9276 21.8065 48.7175C21.1862 48.6146 20.5691 48.5625 19.9729 48.5625C18.8986 48.5625 18.0496 48.7291 17.4298 48.8503C17.0484 48.9246 16.7195 48.9886 16.4653 48.9886C16.199 48.9886 15.8755 48.9296 15.7407 48.4692C15.6339 48.1061 15.5572 47.7543 15.4833 47.4155C15.2982 46.569 15.164 46.0523 14.847 46.0032C11.4568 45.4801 9.45363 44.7096 9.05462 43.7764C9.01281 43.6783 8.98944 43.5796 8.98426 43.482C8.96872 43.2039 9.16509 42.9599 9.43929 42.9145C12.1317 42.4711 14.5256 41.0481 16.555 38.6835C18.1271 36.8529 18.8991 35.1039 18.982 34.9108C18.9856 34.9021 18.9898 34.8929 18.9941 34.8846C19.3853 34.0909 19.4631 33.4051 19.2262 32.8467C18.7893 31.8165 17.3426 31.3575 16.3854 31.0538C16.1473 30.9785 15.9222 30.9071 15.7428 30.8359C14.8943 30.5008 13.4988 29.7926 13.6847 28.8152C13.8201 28.1025 14.7628 27.6061 15.5247 27.6061C15.7363 27.6061 15.9237 27.6432 16.0815 27.7173C16.9425 28.1207 17.717 28.3251 18.3831 28.3251C19.2115 28.3251 19.6116 28.0097 19.7083 27.9201C19.6845 27.4782 19.6553 27.011 19.6271 26.5691C19.6271 26.5686 19.6265 26.5633 19.6265 26.5633C19.4321 23.4701 19.1895 19.6207 20.1742 17.4133C23.1212 10.8056 29.3711 10.2918 31.2158 10.2918C31.265 10.2918 32.0199 10.2843 32.0199 10.2843C32.054 10.2837 32.0909 10.2832 32.1293 10.2832C33.979 10.2832 40.2419 10.7976 43.1908 17.4093C44.1754 19.6182 43.9326 23.4708 43.7376 26.5673L43.7284 26.7155C43.7017 27.1359 43.677 27.5338 43.6562 27.9196C43.7472 28.0035 44.1134 28.2926 44.8582 28.3219C45.4933 28.2975 46.223 28.0941 47.0266 27.7178C47.275 27.6012 47.55 27.577 47.7368 27.577C48.019 27.577 48.3062 27.6319 48.5456 27.7318L48.5584 27.7367C49.2403 27.9788 49.6869 28.4625 49.6965 28.9706C49.7051 29.4443 49.353 30.1524 47.6216 30.8362C47.4442 30.9064 47.218 30.9782 46.979 31.054C46.0209 31.3581 44.5754 31.8168 44.1385 32.8464C43.9012 33.4048 43.9793 34.0904 44.3706 34.8839C44.3749 34.8926 44.3786 34.9014 44.3829 34.9105C44.5033 35.1929 47.4194 41.842 53.9255 42.9139C54.1996 42.9595 54.3963 43.2038 54.3807 43.4814C54.3749 43.5812 54.3508 43.681 54.3086 43.7784C53.9124 44.7064 51.9094 45.4759 48.5181 45.9997C48.1999 46.0489 48.0658 46.5633 47.8824 47.4054C47.8065 47.7532 47.7293 48.0942 47.6239 48.4525C47.5252 48.7894 47.3057 48.9541 46.9532 48.9541H46.9001C46.6706 48.9541 46.3454 48.9124 45.9353 48.8322C45.2185 48.6927 44.4145 48.5628 43.3922 48.5628C42.7961 48.5628 42.1791 48.6151 41.5581 48.7179C40.2964 48.928 39.2183 49.6891 38.0772 50.4958C36.4791 51.6258 34.6712 52.9038 31.9683 52.9038Z" fill="white"/>
<path d="M32.1292 10.8276C33.8707 10.8276 39.8674 11.2954 42.6934 17.6311C43.6239 19.7173 43.3854 23.4965 43.1941 26.5323C43.1642 27.0141 43.1346 27.4811 43.1105 27.927L43.1004 28.1186L43.2283 28.2614C43.28 28.3187 43.7637 28.8242 44.8395 28.8658L44.8569 28.8668L44.8749 28.8664C45.5862 28.8393 46.3874 28.6184 47.2575 28.2108C47.3856 28.1508 47.5562 28.1215 47.7367 28.1215C47.9423 28.1215 48.1609 28.1602 48.3411 28.2361L48.3684 28.2469C48.8246 28.4068 49.1471 28.7082 49.152 28.981C49.1547 29.1352 49.0394 29.6907 47.4221 30.3296C47.2641 30.392 47.056 30.4584 46.8148 30.5344C45.7624 30.8686 44.1723 31.3729 43.6372 32.6339C43.3359 33.3442 43.4184 34.1825 43.8822 35.1251C44.0731 35.5705 47.0772 42.3373 53.8372 43.4512C53.8358 43.4832 53.8277 43.5183 53.8096 43.5596C53.695 43.8295 52.9667 44.7618 48.435 45.4611C47.7259 45.5697 47.5521 46.3646 47.3507 47.2887C47.2779 47.6195 47.204 47.9535 47.1023 48.2984C47.0712 48.4026 47.0654 48.4085 46.9537 48.4085C46.9383 48.4085 46.9202 48.4085 46.9005 48.4085C46.6995 48.4085 46.3945 48.3668 46.0409 48.2974C45.397 48.172 44.5173 48.0182 43.3926 48.0182C42.7649 48.0182 42.1184 48.0727 41.4696 48.181C40.0828 48.4116 38.9551 49.2093 37.7607 50.0536C36.1567 51.187 34.4988 52.3598 31.9693 52.3598C31.8589 52.3598 31.751 52.3561 31.643 52.3507L31.6145 52.3495L31.586 52.3516C31.5239 52.357 31.4614 52.3598 31.3976 52.3598C28.8684 52.3598 27.2099 51.1874 25.6066 50.0536C24.412 49.2093 23.2836 48.4116 21.897 48.181C21.2489 48.0731 20.6017 48.0182 19.9744 48.0182C18.85 48.0182 17.9692 48.1902 17.3266 48.3158C16.973 48.385 16.6669 48.4443 16.4665 48.4443C16.3024 48.4443 16.2993 48.4346 16.2646 48.3161C16.1629 47.9709 16.0886 47.629 16.0162 47.2987C15.8143 46.3737 15.6404 45.5744 14.9317 45.4657C10.4003 44.7658 9.67188 43.8319 9.55695 43.5628C9.539 43.5203 9.53093 43.4842 9.52912 43.4522C16.289 42.3392 19.2925 35.5722 19.4839 35.1251C19.9486 34.1832 20.031 33.3451 19.7287 32.6339C19.1936 31.3736 17.6038 30.8686 16.5521 30.535C16.3103 30.4585 16.1021 30.392 15.9439 30.3296C14.5782 29.79 14.1581 29.2464 14.2205 28.917C14.2929 28.5372 14.9514 28.1509 15.5261 28.1509C15.6553 28.1509 15.7685 28.1718 15.8522 28.2109C16.7856 28.6484 17.6375 28.8701 18.3849 28.8701C19.5596 28.8701 20.0825 28.3236 20.1386 28.2611L20.2659 28.1187L20.2557 27.928C20.232 27.4824 20.2027 27.0156 20.1719 26.5347C19.9811 23.4982 19.7426 19.7215 20.6728 17.6352C23.4883 11.3228 29.4558 10.8362 31.2173 10.8362C31.2607 10.8362 32.0266 10.8283 32.0266 10.8283C32.0579 10.8281 32.0927 10.8276 32.1292 10.8276ZM32.1292 9.73877H32.1272C32.087 9.73877 32.0493 9.73877 32.0134 9.73925C31.7272 9.74214 31.2566 9.74672 31.2143 9.7472C30.1823 9.7472 28.1175 9.89298 25.8996 10.872C24.6315 11.4313 23.4908 12.1877 22.5094 13.12C21.3394 14.2309 20.3862 15.6006 19.6768 17.1916C18.638 19.5211 18.8846 23.4448 19.0826 26.598L19.0834 26.6029C19.1046 26.9406 19.1269 27.2933 19.1472 27.6369C18.9948 27.7068 18.7477 27.7807 18.3835 27.7807C17.7975 27.7807 17.1007 27.5934 16.3129 27.2242C16.0811 27.1163 15.8166 27.0617 15.5247 27.0617C15.0557 27.0617 14.5612 27.1998 14.1323 27.4519C13.5927 27.7688 13.2441 28.2166 13.1494 28.713C13.087 29.0415 13.09 29.6906 13.811 30.3489C14.2076 30.7112 14.7903 31.0454 15.5423 31.3426C15.7396 31.4204 15.9738 31.4946 16.2218 31.5732C17.0826 31.8468 18.3855 32.2602 18.7252 33.0598C18.8973 33.4652 18.8233 33.9986 18.5056 34.6434C18.4973 34.661 18.4889 34.6782 18.4814 34.6963C18.402 34.8817 17.6613 36.5594 16.142 38.3289C15.2787 39.3351 14.3277 40.176 13.3172 40.8289C12.0838 41.6261 10.7492 42.1473 9.35082 42.3776C8.8017 42.4678 8.40955 42.957 8.44015 43.513C8.44955 43.6732 8.48714 43.833 8.55231 43.9875C8.55279 43.9885 8.5534 43.9895 8.55388 43.9903C8.77591 44.5097 9.2907 44.9509 10.1276 45.34C11.1503 45.815 12.6799 46.2146 14.6734 46.5273C14.7741 46.7188 14.8787 47.2002 14.9511 47.5299C15.0269 47.8802 15.1059 48.2404 15.2185 48.6231C15.3401 49.0376 15.6554 49.533 16.4653 49.533C16.7723 49.533 17.1253 49.4638 17.5341 49.3846C18.1327 49.2671 18.9513 49.1069 19.9731 49.1069C20.5395 49.1069 21.1266 49.1568 21.7175 49.2549C22.8566 49.4446 23.8386 50.1383 24.9748 50.9416C26.6378 52.1172 28.5203 53.4478 31.3964 53.4478C31.4748 53.4478 31.5535 53.4453 31.6312 53.4399C31.7262 53.4443 31.844 53.4478 31.9684 53.4478C34.8453 53.4478 36.7272 52.1167 38.3885 50.9421L38.3911 50.9397C39.5276 50.1373 40.5085 49.4446 41.6472 49.2549C42.2379 49.1569 42.8248 49.1069 43.3915 49.1069C44.3676 49.1069 45.1405 49.2313 45.8306 49.3659C46.2809 49.4546 46.6309 49.4972 46.8994 49.4972L46.9257 49.4977H46.9529C47.5453 49.4977 47.9805 49.1725 48.1467 48.6035C48.257 48.229 48.3358 47.8772 48.4135 47.521C48.4812 47.2121 48.5894 46.7169 48.6901 46.5233C50.685 46.2101 52.2139 45.8113 53.2367 45.3364C54.0717 44.9491 54.5859 44.5084 54.8093 43.9912C54.8763 43.8361 54.9154 43.6754 54.9242 43.5118C54.9557 42.9568 54.5629 42.4666 54.0134 42.3764C47.7987 41.3522 44.999 34.9665 44.8833 34.6952C44.8758 34.6774 44.8674 34.6597 44.8586 34.6425C44.5409 33.9974 44.4675 33.4646 44.6398 33.0584C44.9788 32.2596 46.2808 31.8462 47.1422 31.5728C47.3915 31.4942 47.6266 31.4195 47.8224 31.3422C48.6704 31.0072 49.2765 30.6439 49.6763 30.2313C50.1539 29.7394 50.2469 29.2681 50.2411 28.9597C50.2266 28.2134 49.6561 27.5503 48.7487 27.2257C48.4422 27.0989 48.0927 27.0321 47.7368 27.0321C47.4945 27.0321 47.1358 27.0653 46.7962 27.2239C46.0691 27.5641 45.4178 27.7501 44.8587 27.7766C44.5613 27.7615 44.3528 27.6971 44.2178 27.6355C44.2347 27.3445 44.2535 27.0454 44.2729 26.7337L44.281 26.6002C44.4801 23.4449 44.7276 19.5182 43.6883 17.187C42.9759 15.5903 42.0193 14.2172 40.8446 13.1039C39.8593 12.1709 38.7148 11.4147 37.4421 10.8557C35.2273 9.88394 33.1626 9.73877 32.1292 9.73877Z" fill="#020202"/>
</g>
<defs>
<clipPath id="clip0">
<rect width="61.9518" height="62" fill="white" transform="translate(0.711426 0.59375)"/>
</clipPath>
</defs>
</svg>
