<svg width="18" height="19" viewBox="0 0 18 19" fill="none" xmlns="http://www.w3.org/2000/svg">
    <g clip-path="url(#clip0)">
        <path d="M16.3127 3.08826H1.68776C0.757205 3.08826 0.000244141 3.84522 0.000244141 4.77577V14.9008C0.000244141 15.8313 0.757205 16.5883 1.68776 16.5883H16.3127C17.2433 16.5883 18.0002 15.8313 18.0002 14.9008V4.77577C18.0002 3.84522 17.2433 3.08826 16.3127 3.08826ZM16.3127 4.21325C16.3892 4.21325 16.4619 4.22911 16.5283 4.2568L9.00024 10.7814L1.47212 4.2568C1.53859 4.22915 1.61129 4.21325 1.68772 4.21325H16.3127ZM16.3127 15.4632H1.68776C1.3774 15.4632 1.12524 15.2111 1.12524 14.9007V5.44537L8.63165 11.9509C8.73768 12.0426 8.86896 12.0883 9.00024 12.0883C9.13153 12.0883 9.26281 12.0427 9.36884 11.9509L16.8752 5.44537V14.9008C16.8752 15.2111 16.6231 15.4632 16.3127 15.4632Z"
              fill="#8370F2"/>
    </g>
    <defs>
        <clipPath id="clip0">
            <rect width="18" height="18" fill="white" transform="translate(0.000244141 0.838257)"/>
        </clipPath>
    </defs>
</svg>
