<svg width="18" height="19" viewBox="0 0 18 19" fill="none" xmlns="http://www.w3.org/2000/svg">
<g clip-path="url(#clip0)">
<path d="M16.5559 12.6532C15.4538 12.6532 14.3718 12.4808 13.3464 12.142C12.8352 11.9676 12.2531 12.1029 11.9196 12.4428L9.89568 13.9706C7.54851 12.7177 6.1027 11.2724 4.86689 8.9428L6.34978 6.97162C6.73504 6.58687 6.87323 6.02484 6.70767 5.49749C6.36735 4.46671 6.19448 3.38516 6.19448 2.28266C6.19453 1.48621 5.54657 0.838257 4.75017 0.838257H1.4445C0.648136 0.838257 0.000183105 1.48621 0.000183105 2.28257C0.000183105 11.4115 7.42696 18.8383 16.5559 18.8383C17.3523 18.8383 18.0002 18.1903 18.0002 17.3939V14.0975C18.0002 13.3011 17.3522 12.6532 16.5559 12.6532ZM17.0002 17.3939C17.0002 17.6391 16.801 17.8383 16.5559 17.8383C7.97821 17.8383 1.00021 10.8602 1.00021 2.28262C1.00021 2.03751 1.19943 1.83829 1.44454 1.83829H4.75021C4.99532 1.83829 5.19454 2.03751 5.19454 2.28262C5.19454 3.49208 5.38448 4.6791 5.75606 5.80363C5.80781 5.96966 5.76581 6.14151 5.59786 6.31635L3.87909 8.59265C3.76387 8.74546 3.74578 8.95007 3.83221 9.12046C5.23504 11.8778 6.93965 13.5824 9.71648 15.0052C9.88542 15.0936 10.0925 15.0751 10.2458 14.9594L12.5744 13.1952C12.6921 13.0776 12.8684 13.0356 13.0275 13.0897C14.1599 13.4638 15.3469 13.6532 16.5559 13.6532C16.801 13.6532 17.0002 13.8524 17.0002 14.0976V17.3939Z" fill="#949BAB"/>
</g>
<defs>
<clipPath id="clip0">
<rect width="18" height="18" fill="white" transform="translate(0.000183105 0.838257)"/>
</clipPath>
</defs>
</svg>
