<svg width="13" height="13" viewBox="0 0 13 13" fill="none" xmlns="http://www.w3.org/2000/svg">
    <g clip-path="url(#clip0)">
        <path d="M1.62727 6.11647C1.67637 6.1085 1.72606 6.10483 1.77578 6.10547H10.2415L10.0569 6.01961C9.87651 5.93421 9.71235 5.81798 9.57184 5.67617L7.19783 3.30216C6.88517 3.00369 6.83263 2.52355 7.07333 2.16453C7.35347 1.78194 7.89071 1.69887 8.27332 1.97902C8.30423 2.00166 8.33361 2.02635 8.36122 2.05291L12.6542 6.34588C12.9897 6.681 12.99 7.22462 12.6549 7.56012C12.6546 7.56033 12.6544 7.56057 12.6542 7.56079L8.36122 11.8538C8.02546 12.1886 7.48183 12.1878 7.14698 11.8521C7.12063 11.8256 7.09603 11.7975 7.07333 11.7679C6.83263 11.4089 6.88517 10.9287 7.19783 10.6303L9.56755 8.25195C9.69352 8.12585 9.83835 8.02011 9.99684 7.93857L10.2544 7.82266H1.82303C1.38442 7.83894 0.999614 7.53256 0.917215 7.10144C0.841311 6.63337 1.15921 6.1924 1.62727 6.11647Z"
              fill="#FD7E41"/>
    </g>
    <defs>
        <clipPath id="clip0">
            <rect width="12" height="12" fill="white" transform="matrix(-1 0 0 1 12.906 0.95874)"/>
        </clipPath>
    </defs>
</svg>
