<svg width="21" height="21" viewBox="0 0 21 21" fill="none" xmlns="http://www.w3.org/2000/svg">
<g opacity="0.5" clip-path="url(#clip0)">
<path d="M12.6379 10.805L20.5027 2.94022C20.9913 2.452 20.9913 1.65986 20.5027 1.17165C20.014 0.683019 19.2227 0.683019 18.7341 1.17165L10.8693 9.0364L3.00418 1.17165C2.51555 0.683019 1.72424 0.683019 1.23561 1.17165C0.746983 1.65986 0.746983 2.452 1.23561 2.94022L9.10078 10.805L1.23561 18.6697C0.746983 19.1579 0.746983 19.9501 1.23561 20.4383C1.47993 20.6822 1.80012 20.8043 2.1199 20.8043C2.43967 20.8043 2.75987 20.6822 3.00418 20.4379L10.8693 12.5731L18.7341 20.4379C18.9784 20.6822 19.2986 20.8043 19.6184 20.8043C19.9382 20.8043 20.2584 20.6822 20.5027 20.4379C20.9913 19.9497 20.9913 19.1575 20.5027 18.6693L12.6379 10.805Z" fill="#949BAB"/>
</g>
<defs>
<clipPath id="clip0">
<rect width="20" height="20" fill="white" transform="translate(0.869141 0.804199)"/>
</clipPath>
</defs>
</svg>
