<svg width="18" height="19" viewBox="0 0 18 19" fill="none" xmlns="http://www.w3.org/2000/svg">
<g clip-path="url(#clip0)">
<path d="M9.00015 9.83826C6.51888 9.83826 4.50012 7.81953 4.50012 5.33824C4.50012 2.85695 6.51888 0.838257 9.00015 0.838257C11.4814 0.838257 13.5002 2.85698 13.5002 5.33827C13.5002 7.81956 11.4814 9.83826 9.00015 9.83826ZM9.00015 1.96327C7.13907 1.96327 5.62514 3.47717 5.62514 5.33827C5.62514 7.19938 7.13904 8.71328 9.00015 8.71328C10.8613 8.71328 12.3752 7.19935 12.3752 5.33827C12.3752 3.4772 10.8612 1.96327 9.00015 1.96327Z" fill="#949BAB"/>
<path d="M16.3126 18.8382H1.68763C1.3767 18.8382 1.12512 18.5866 1.12512 18.2757V14.4036C1.12512 13.8224 1.4223 13.2764 1.90021 12.9775C6.12445 10.3424 11.8797 10.343 16.0995 12.977C16.578 13.2763 16.8752 13.8224 16.8752 14.4035V18.2757C16.8752 18.5866 16.6236 18.8382 16.3126 18.8382ZM2.25013 17.7132H15.7502V14.4036C15.7502 14.2075 15.6557 14.0262 15.5035 13.9312C11.6412 11.5202 6.36176 11.5186 2.49626 13.9317C2.34465 14.0262 2.25017 14.2075 2.25017 14.4036L2.25013 17.7132Z" fill="#949BAB"/>
</g>
<defs>
<clipPath id="clip0">
<rect width="18" height="18" fill="white" transform="translate(0.00012207 0.838257)"/>
</clipPath>
</defs>
</svg>
