<svg width="40" height="40" viewBox="0 0 40 40" fill="none" xmlns="http://www.w3.org/2000/svg">
<path d="M36.4866 29.4087C30.4049 26.4647 29.4357 21.9193 29.3925 21.5821C29.3403 21.1738 29.2811 20.8527 29.7317 20.4373C30.1661 20.0359 32.0937 18.8429 32.6285 18.4696C33.5125 17.8515 33.9018 17.2344 33.6148 16.4758C33.4141 15.951 32.9255 15.7534 32.4107 15.7534C32.2484 15.7539 32.0865 15.772 31.9281 15.8076C30.9568 16.0183 30.0136 16.5049 29.4678 16.6364C29.4022 16.6533 29.3348 16.6624 29.2671 16.6635C28.9761 16.6635 28.8657 16.534 28.8938 16.1838C28.962 15.1222 29.1065 13.0502 28.939 11.1146C28.7092 8.45161 27.8503 7.13214 26.8318 5.96518C26.3391 5.39926 24.0514 2.96802 19.6364 2.96802C15.2214 2.96802 12.9367 5.39926 12.447 5.95816C11.4256 7.12512 10.5677 8.44459 10.3399 11.1076C10.1723 13.0432 10.3228 15.1142 10.385 16.1768C10.4051 16.5099 10.3028 16.6564 10.0118 16.6564C9.94406 16.6553 9.8767 16.6462 9.8111 16.6293C9.26625 16.4979 8.32305 16.0113 7.35176 15.8005C7.19332 15.765 7.03149 15.7469 6.86912 15.7464C6.35237 15.7464 5.86572 15.947 5.66504 16.4688C5.37807 17.2274 5.76538 17.8445 6.65239 18.4626C7.1872 18.8358 9.11474 20.0279 9.54921 20.4302C9.99874 20.8456 9.94054 21.1667 9.88836 21.5751C9.84522 21.9173 8.87492 26.4627 2.7943 29.4017C2.43809 29.5742 1.83204 29.9395 2.90066 30.5295C4.57835 31.4566 5.69514 31.3573 6.56308 31.9162C7.29958 32.3908 6.86411 33.4143 7.39992 33.7835C8.05815 34.2381 10.0038 33.7514 12.5173 34.5812C14.6244 35.2756 15.9048 37.2372 19.6414 37.2372C23.3781 37.2372 24.6956 35.2666 26.7656 34.5812C29.2741 33.7514 31.2237 34.2381 31.8829 33.7835C32.4178 33.4143 31.9833 32.3908 32.7198 31.9162C33.5877 31.3573 34.7035 31.4566 36.3822 30.5295C37.4488 29.9465 36.8428 29.5813 36.4866 29.4087Z" fill="white"/>
<path d="M39.1325 29.0625C38.8596 28.32 38.3398 27.9227 37.7478 27.5935C37.6364 27.5283 37.5341 27.4761 37.4468 27.436C37.2702 27.3447 37.0896 27.2564 36.91 27.1631C35.0647 26.1848 33.6238 24.9506 32.6244 23.4876C32.3406 23.0758 32.0944 22.6392 31.8889 22.1832C31.8036 21.9394 31.8076 21.8009 31.8689 21.6745C31.9296 21.5771 32.0099 21.4933 32.1047 21.4286C32.4217 21.2189 32.7488 21.0062 32.9706 20.8627C33.3659 20.6068 33.679 20.4042 33.8807 20.2607C34.6382 19.7309 35.168 19.168 35.4992 18.5388C35.7302 18.1042 35.8649 17.6249 35.8942 17.1335C35.9234 16.6421 35.8465 16.1502 35.6687 15.6912C35.167 14.3707 33.9198 13.5509 32.4087 13.5509C32.09 13.5506 31.7721 13.5843 31.4605 13.6513C31.3772 13.6693 31.2939 13.6884 31.2126 13.7095C31.2267 12.8064 31.2066 11.8532 31.1263 10.915C30.8414 7.61679 29.6865 5.88793 28.4824 4.50925C27.7113 3.64532 26.8031 2.91441 25.7943 2.34592C23.9671 1.30238 21.895 0.772583 19.6364 0.772583C17.3777 0.772583 15.3157 1.30238 13.4865 2.34592C12.4752 2.91458 11.5652 3.64696 10.7934 4.51327C9.5893 5.89194 8.43438 7.62382 8.14941 10.919C8.06914 11.8572 8.04907 12.8154 8.06212 13.7135C7.98084 13.6924 7.89856 13.6733 7.81528 13.6553C7.50367 13.5883 7.1858 13.5546 6.86706 13.5549C5.35494 13.5549 4.1057 14.3747 3.60601 15.6952C3.42739 16.1544 3.34973 16.6467 3.3783 17.1386C3.40687 17.6304 3.541 18.1104 3.77157 18.5459C4.10369 19.175 4.63349 19.7379 5.39106 20.2677C5.59174 20.4082 5.9058 20.6109 6.30115 20.8697C6.51487 21.0082 6.82693 21.2109 7.13297 21.4136C7.24004 21.4828 7.33105 21.5742 7.39987 21.6815C7.46409 21.8129 7.4661 21.9544 7.37077 22.2153C7.16802 22.6617 6.92592 23.0892 6.64732 23.4926C5.67001 24.9225 4.27126 26.1346 2.4852 27.1049C1.539 27.6066 0.555661 27.9417 0.140252 29.0705C-0.172809 29.9224 0.0318845 30.8917 0.827583 31.7085C1.11961 32.0133 1.45832 32.2697 1.83099 32.4681C2.60641 32.8942 3.43095 33.2241 4.28631 33.4504C4.46283 33.4959 4.63041 33.5709 4.78199 33.6722C5.07198 33.926 5.03084 34.3083 5.41715 34.8682C5.61107 35.1576 5.85747 35.4081 6.14361 35.6067C6.95436 36.1666 7.86545 36.2017 8.83072 36.2389C9.70268 36.272 10.691 36.3101 11.8199 36.6824C12.2874 36.8369 12.7731 37.1359 13.336 37.4851C14.6876 38.3159 16.5379 39.4528 19.6344 39.4528C22.7309 39.4528 24.5942 38.3099 25.9558 37.4761C26.5147 37.1329 26.9973 36.8369 27.4519 36.6864C28.5807 36.3131 29.5691 36.276 30.441 36.2429C31.4063 36.2057 32.3174 36.1706 33.1281 35.6107C33.467 35.3744 33.7494 35.066 33.9549 34.7077C34.2329 34.2351 34.2258 33.9049 34.4867 33.6742C34.6289 33.5777 34.7863 33.5058 34.9523 33.4614C35.8194 33.2344 36.6551 32.9015 37.4408 32.4701C37.8367 32.2577 38.1931 31.9787 38.4943 31.6453L38.5044 31.6332C39.2509 30.8345 39.4385 29.8933 39.1325 29.0625ZM36.3802 30.5415C34.7015 31.4687 33.5857 31.3693 32.7177 31.9282C31.9802 32.4029 32.4167 33.4263 31.8809 33.7956C31.2227 34.2501 29.2771 33.7635 26.7635 34.5933C24.6905 35.2786 23.368 37.2493 19.6394 37.2493C15.9107 37.2493 14.6194 35.2826 12.5122 34.5883C10.0037 33.7584 8.05409 34.2451 7.39486 33.7906C6.86004 33.4213 7.29452 32.3978 6.55802 31.9232C5.68907 31.3643 4.57329 31.4637 2.8956 30.5415C1.82697 29.9515 2.43303 29.5863 2.78924 29.4137C8.86986 26.4697 9.84015 21.9243 9.88329 21.5872C9.93547 21.1788 9.99367 20.8577 9.54414 20.4423C9.10967 20.0409 7.18213 18.8479 6.64732 18.4746C5.76232 17.8565 5.373 17.2394 5.65997 16.4809C5.86065 15.9561 6.35031 15.7584 6.86405 15.7584C7.02642 15.7589 7.18825 15.7771 7.34669 15.8126C8.31799 16.0233 9.26118 16.51 9.80603 16.6414C9.87164 16.6582 9.93899 16.6673 10.0067 16.6685C10.2977 16.6685 10.4 16.522 10.38 16.1889C10.3178 15.1263 10.1673 13.0552 10.3348 11.1197C10.5646 8.45664 11.4225 7.13717 12.442 5.97021C12.9316 5.40931 15.2324 2.97806 19.6324 2.97806C24.0323 2.97806 26.3391 5.39927 26.8288 5.95817C27.8492 7.12513 28.7081 8.4446 28.9359 11.1076C29.1035 13.0432 28.959 15.1152 28.8908 16.1768C28.8677 16.527 28.973 16.6564 29.264 16.6564C29.3317 16.6554 29.3991 16.6463 29.4647 16.6294C30.0106 16.4979 30.9538 16.0113 31.925 15.8005C32.0835 15.765 32.2453 15.7469 32.4077 15.7464C32.9244 15.7464 33.4111 15.947 33.6118 16.4688C33.8987 17.2274 33.5114 17.8445 32.6254 18.4626C32.0906 18.8358 30.1631 20.0279 29.7286 20.4302C29.2781 20.8457 29.3373 21.1667 29.3894 21.5751C29.4326 21.9173 30.4019 26.4627 36.4835 29.4017C36.8427 29.5813 37.4488 29.9465 36.3802 30.5415Z" fill="black"/>
</svg>
