<svg width="13" height="13" viewBox="0 0 13 13" fill="none" xmlns="http://www.w3.org/2000/svg">
<g clip-path="url(#clip0)">
<path d="M0.978103 5.64186C1.0272 5.63389 1.07689 5.63022 1.12661 5.63086H9.59237L9.40777 5.545C9.22734 5.4596 9.06318 5.34337 8.92267 5.20156L6.54866 2.82755C6.236 2.52909 6.18346 2.04894 6.42416 1.68992C6.7043 1.30733 7.24154 1.22426 7.62415 1.50441C7.65506 1.52705 7.68444 1.55174 7.71205 1.5783L12.005 5.87127C12.3405 6.20639 12.3408 6.75001 12.0057 7.08551C12.0055 7.08572 12.0052 7.08596 12.005 7.08618L7.71205 11.3791C7.37629 11.714 6.83266 11.7132 6.49781 11.3775C6.47146 11.351 6.44686 11.3229 6.42416 11.2933C6.18346 10.9343 6.236 10.4541 6.54866 10.1556L8.91838 7.77735C9.04435 7.65124 9.18918 7.5455 9.34767 7.46396L9.60525 7.34805H1.17386C0.735254 7.36434 0.350444 7.05795 0.268045 6.62683C0.192141 6.15876 0.510036 5.71779 0.978103 5.64186Z" fill="#949BAB"/>
</g>
<defs>
<clipPath id="clip0">
<rect width="12" height="12" fill="white" transform="matrix(-1 0 0 1 12.2568 0.484131)"/>
</clipPath>
</defs>
</svg>
