<svg width="238" height="61" viewBox="0 0 238 61" fill="none" xmlns="http://www.w3.org/2000/svg">
<g clip-path="url(#clip0)">
<path d="M0 44.9186V44.9213C0.0359092 46.2532 0.0469853 47.5928 0.271651 48.9165C0.509725 50.317 0.850046 51.6826 1.49933 52.9536C2.37712 54.674 3.58265 56.1268 5.10436 57.3136C6.19691 58.1657 7.39042 58.8422 8.7116 59.2689C10.6381 59.8903 12.6256 60.1285 14.6421 60.1402C15.9002 60.1481 17.1575 60.1796 18.4161 60.1743C27.556 60.1358 36.6962 60.2403 45.8364 60.1179C47.0492 60.1015 48.2423 59.9535 49.4327 59.7358C51.7142 59.3182 53.7306 58.3447 55.4557 56.8056C57.4663 55.0124 58.8228 52.8177 59.4351 50.1689C59.8358 48.4376 59.9361 46.6811 59.9533 44.9184V44.5667C59.9533 44.4303 59.9014 14.6161 59.8966 14.2221C59.8832 13.1395 59.8034 12.0652 59.6005 11C59.3536 9.70204 59.0049 8.43729 58.3834 7.26301C57.7271 6.02239 56.905 4.90688 55.8883 3.93208C54.3308 2.43858 52.5334 1.38241 50.441 0.823716C48.5511 0.319238 46.6231 0.207547 44.681 0.209296C44.6778 0.208829 44.6705 0.189126 44.67 0.179565H15.2739C15.2733 0.189592 15.273 0.199619 15.2723 0.209296C14.17 0.229465 13.0662 0.221187 11.9695 0.357129C10.7682 0.506479 9.57843 0.731378 8.44135 1.15133C6.65032 1.81378 5.09421 2.84559 3.76499 4.22308C2.25902 5.78374 1.19748 7.58864 0.634241 9.69038C0.131745 11.5656 0.0223857 13.4781 0.0197042 15.4041" fill="#FFFC00"/>
<path d="M48.4033 40.345C41.7526 37.1256 40.6927 32.1549 40.6455 31.7862C40.5884 31.3396 40.5237 30.9885 41.0164 30.5342C41.4915 30.0953 43.5994 28.7906 44.1842 28.3824C45.1509 27.7065 45.5767 27.0317 45.2628 26.2021C45.0434 25.6283 44.509 25.4121 43.9461 25.4121C43.7686 25.4126 43.5916 25.4325 43.4183 25.4714C42.3561 25.7018 41.3247 26.234 40.7278 26.3777C40.6561 26.3962 40.5824 26.4061 40.5083 26.4073C40.1901 26.4073 40.0694 26.2658 40.1001 25.8828C40.1748 24.7219 40.3328 22.456 40.1495 20.3394C39.8982 17.4272 38.959 15.9843 37.8452 14.7081C37.3065 14.0893 34.8047 11.4305 29.9766 11.4305C25.1486 11.4305 22.6501 14.0893 22.1146 14.7004C20.9976 15.9766 20.0594 17.4195 19.8103 20.3317C19.6271 22.4483 19.7917 24.7131 19.8597 25.8752C19.8816 26.2394 19.7697 26.3997 19.4515 26.3997C19.3775 26.3984 19.3038 26.3884 19.2321 26.37C18.6362 26.2263 17.6048 25.6941 16.5426 25.4637C16.3694 25.4248 16.1924 25.405 16.0148 25.4044C15.4497 25.4044 14.9175 25.6239 14.6981 26.1945C14.3843 27.024 14.8078 27.6988 15.7778 28.3748C16.3627 28.7829 18.4705 30.0865 18.9457 30.5265C19.4372 30.9808 19.3736 31.3319 19.3165 31.7785C19.2694 32.1527 18.2083 37.1234 11.5588 40.3373C11.1692 40.526 10.5065 40.9255 11.6751 41.5707C13.5097 42.5845 14.731 42.4759 15.6802 43.0871C16.4856 43.6061 16.0093 44.7253 16.5953 45.1291C17.3151 45.6262 19.4427 45.094 22.1914 46.0015C24.4957 46.7608 25.8958 48.906 29.9821 48.906C34.0684 48.906 35.5091 46.7509 37.7728 46.0015C40.516 45.094 42.648 45.6262 43.3689 45.1291C43.9538 44.7253 43.4787 43.6061 44.2841 43.0871C45.2332 42.4759 46.4534 42.5845 48.2892 41.5707C49.4556 40.9331 48.7928 40.5337 48.4033 40.345Z" fill="white"/>
<path d="M51.2966 39.9668C50.9982 39.1548 50.4298 38.7203 49.7824 38.3603C49.6606 38.289 49.5486 38.232 49.4532 38.1881C49.2601 38.0882 49.0625 37.9917 48.8661 37.8896C46.8482 36.8198 45.2725 35.4701 44.1797 33.8703C43.8693 33.4199 43.6001 32.9425 43.3753 32.4438C43.2821 32.1772 43.2865 32.0257 43.3534 31.8875C43.4198 31.781 43.5076 31.6894 43.6113 31.6187C43.958 31.3893 44.3157 31.1567 44.5582 30.9998C44.9905 30.72 45.3329 30.4983 45.5534 30.3414C46.3819 29.7621 46.9613 29.1465 47.3234 28.4585C47.576 27.9832 47.7233 27.459 47.7553 26.9216C47.7873 26.3843 47.7032 25.8464 47.5088 25.3444C46.9602 23.9004 45.5962 23.0039 43.9437 23.0039C43.5952 23.0036 43.2476 23.0404 42.9068 23.1136C42.8157 23.1334 42.7247 23.1542 42.6358 23.1773C42.6511 22.1897 42.6292 21.1473 42.5414 20.1213C42.2298 16.5146 40.9668 14.624 39.6501 13.1163C38.8069 12.1715 37.8137 11.3722 36.7105 10.7506C34.7123 9.60939 32.4464 9.03003 29.9764 9.03003C27.5065 9.03003 25.2516 9.60939 23.2512 10.7506C22.1453 11.3724 21.1501 12.1733 20.3061 13.1207C18.9894 14.6284 17.7264 16.5223 17.4148 20.1257C17.327 21.1517 17.305 22.1996 17.3193 23.1817C17.2304 23.1586 17.1405 23.1378 17.0494 23.118C16.7086 23.0447 16.361 23.008 16.0125 23.0083C14.3588 23.0083 12.9927 23.9048 12.4463 25.3488C12.251 25.851 12.166 26.3893 12.1973 26.9272C12.2285 27.4651 12.3752 27.99 12.6273 28.4662C12.9905 29.1542 13.5699 29.7697 14.3984 30.3491C14.6178 30.5027 14.9613 30.7244 15.3936 31.0075C15.6273 31.1589 15.9686 31.3805 16.3032 31.6022C16.4203 31.6779 16.5198 31.7778 16.5951 31.8952C16.6653 32.0389 16.6675 32.1936 16.5633 32.4789C16.3416 32.9671 16.0768 33.4346 15.7721 33.8758C14.7034 35.4394 13.1738 36.7649 11.2206 37.826C10.1859 38.3746 9.11056 38.7411 8.65628 39.9755C8.31393 40.9071 8.53777 41.9671 9.40792 42.8603C9.72727 43.1937 10.0977 43.4741 10.5052 43.6909C11.3532 44.1569 12.2549 44.5177 13.1902 44.7652C13.3833 44.815 13.5665 44.8969 13.7323 45.0077C14.0494 45.2853 14.0044 45.7034 14.4269 46.3156C14.6389 46.6321 14.9084 46.906 15.2213 47.1232C16.1079 47.7355 17.1042 47.7739 18.1598 47.8145C19.1134 47.8507 20.1942 47.8924 21.4286 48.2995C21.94 48.4685 22.471 48.7955 23.0866 49.1773C24.5647 50.0859 26.588 51.3291 29.9743 51.3291C33.3605 51.3291 35.3981 50.0793 36.8871 49.1675C37.4983 48.7922 38.0261 48.4685 38.5232 48.3039C39.7576 47.8957 40.8384 47.8551 41.792 47.8189C42.8476 47.7783 43.8439 47.7399 44.7305 47.1276C45.1011 46.8692 45.4099 46.532 45.6346 46.1401C45.9386 45.6232 45.9309 45.2622 46.2162 45.0099C46.3717 44.9044 46.5438 44.8258 46.7253 44.7772C47.6735 44.529 48.5875 44.1649 49.4466 43.6931C49.8796 43.4609 50.2693 43.1557 50.5987 42.7912L50.6097 42.778C51.4261 41.9046 51.6313 40.8753 51.2966 39.9668ZM48.2868 41.5842C46.451 42.598 45.2308 42.4894 44.2817 43.1006C43.4752 43.6196 43.9525 44.7388 43.3666 45.1426C42.6468 45.6397 40.5191 45.1075 37.7704 46.015C35.5035 46.7644 34.0572 48.9195 29.9797 48.9195C25.9022 48.9195 24.49 46.7688 22.1858 46.0095C19.4426 45.102 17.3105 45.6342 16.5896 45.1372C16.0048 44.7334 16.4799 43.6141 15.6745 43.0951C14.7242 42.4839 13.5041 42.5926 11.6694 41.5842C10.5008 40.939 11.1636 40.5396 11.5531 40.3508C18.2026 37.1314 19.2637 32.1607 19.3109 31.792C19.3679 31.3454 19.4316 30.9943 18.94 30.54C18.4649 30.1011 16.357 28.7964 15.7721 28.3883C14.8043 27.7123 14.3786 27.0375 14.6924 26.208C14.9119 25.6341 15.4474 25.4179 16.0092 25.4179C16.1867 25.4185 16.3637 25.4383 16.537 25.4772C17.5991 25.7076 18.6306 26.2398 19.2264 26.3835C19.2981 26.4019 19.3718 26.4119 19.4458 26.4132C19.7641 26.4132 19.876 26.253 19.854 25.8887C19.786 24.7266 19.6214 22.4618 19.8047 20.3452C20.0559 17.433 20.9941 15.9901 22.1089 14.7139C22.6444 14.1006 25.1605 11.4419 29.9721 11.4419C34.7836 11.4419 37.3063 14.0896 37.8418 14.7008C38.9577 15.9769 39.897 17.4198 40.146 20.332C40.3293 22.4487 40.1713 24.7146 40.0967 25.8755C40.0714 26.2584 40.1866 26.4 40.5049 26.4C40.5789 26.3988 40.6526 26.3889 40.7243 26.3704C41.3212 26.2266 42.3527 25.6944 43.4148 25.464C43.5881 25.4252 43.7651 25.4053 43.9426 25.4048C44.5077 25.4048 45.0399 25.6242 45.2594 26.1948C45.5732 27.0243 45.1497 27.6992 44.1808 28.3751C43.5959 28.7833 41.488 30.0869 41.0129 30.5269C40.5202 30.9811 40.585 31.3323 40.642 31.7789C40.6892 32.153 41.7492 37.1237 48.3998 40.3377C48.7926 40.5341 49.4554 40.9335 48.2868 41.5842Z" fill="black"/>
</g>
<path d="M87.0199 26.3283C85.1613 26.3283 83.7542 25.9225 82.7988 25.111C81.8433 24.2995 81.3197 23.1673 81.2281 21.7145H84.2712C84.3498 22.4344 84.5854 22.9972 84.978 23.4029C85.3838 23.8087 86.0644 24.0116 87.0199 24.0116C87.7136 24.0116 88.2698 23.8414 88.6887 23.5011C89.1206 23.1477 89.3366 22.6962 89.3366 22.1464C89.3366 21.5836 89.1533 21.1779 88.7868 20.9292C88.4203 20.6805 87.7201 20.4776 86.6861 20.3206C84.8537 20.085 83.5514 19.653 82.7791 19.0248C82.0069 18.3834 81.6208 17.3952 81.6208 16.0602C81.6208 14.8429 82.0854 13.8417 83.0147 13.0563C83.9571 12.271 85.194 11.8783 86.7254 11.8783C88.3091 11.8783 89.546 12.2317 90.436 12.9385C91.3391 13.6453 91.8561 14.6924 91.987 16.0798H89.0617C88.8654 14.8364 88.0866 14.2147 86.7254 14.2147C86.0448 14.2147 85.5212 14.3587 85.1547 14.6466C84.8013 14.9346 84.6246 15.3207 84.6246 15.805C84.6246 16.3285 84.7948 16.7212 85.1351 16.9829C85.4885 17.2316 86.1887 17.4345 87.2358 17.5916C89.0421 17.8272 90.3509 18.2525 91.1624 18.8677C91.9739 19.4698 92.3797 20.4645 92.3797 21.8519C92.3797 23.1346 91.8889 24.2014 90.9072 25.0521C89.9386 25.9029 88.6429 26.3283 87.0199 26.3283ZM94.8662 26.1123V12.0747H98.5572L103.897 21.3218V12.0747H106.725V26.1123H103.544L97.6933 16.1191V26.1123H94.8662ZM108.841 26.1123L113.455 12.0747H117.598L122.152 26.1123H118.834L117.872 22.9907H112.787L111.825 26.1123H108.841ZM115.34 14.6662L113.475 20.7329H117.185L115.34 14.6662ZM124.267 26.1123V12.0747H129.117C130.844 12.0747 132.166 12.4543 133.083 13.2134C134.012 13.9725 134.477 15.0851 134.477 16.551V16.6295C134.477 18.0693 134.012 19.1622 133.083 19.9083C132.153 20.6412 130.864 21.0077 129.215 21.0077H127.428V26.1123H124.267ZM127.428 18.7892H129.038C130.622 18.7892 131.414 18.0758 131.414 16.6492V16.5706C131.414 15.1832 130.622 14.4895 129.038 14.4895H127.428V18.7892ZM147.624 26.3283C145.373 26.3283 143.632 25.6869 142.402 24.4042C141.184 23.1215 140.576 21.3807 140.576 19.1818V19.0248C140.576 16.9175 141.23 15.1963 142.539 13.8613C143.861 12.5262 145.53 11.8587 147.545 11.8587C149.299 11.8587 150.733 12.2906 151.845 13.1545C152.971 14.0183 153.612 15.288 153.769 16.9633H150.51C150.274 15.2356 149.293 14.3717 147.565 14.3717C146.453 14.3717 145.569 14.784 144.915 15.6086C144.26 16.4332 143.933 17.5654 143.933 19.0051V19.1622C143.933 20.6151 144.254 21.7472 144.895 22.5587C145.536 23.3571 146.433 23.7563 147.585 23.7563C148.475 23.7563 149.201 23.5338 149.764 23.0888C150.327 22.6307 150.674 21.9566 150.805 21.0666H153.926C153.756 22.7681 153.102 24.0705 151.963 24.9736C150.837 25.8767 149.391 26.3283 147.624 26.3283ZM156.185 26.1123V12.0747H161.211C162.913 12.0747 164.241 12.4346 165.196 13.1545C166.152 13.8613 166.63 14.9215 166.63 16.335V16.4136C166.63 18.3245 165.668 19.568 163.744 20.1439L167.454 26.1123H164.077L160.72 20.6936H159.346V26.1123H156.185ZM159.346 18.5339H161.132C162.729 18.5339 163.528 17.8599 163.528 16.5117V16.4332C163.528 15.7395 163.325 15.2487 162.919 14.9607C162.526 14.6597 161.931 14.5092 161.132 14.5092H159.346V18.5339ZM169.572 26.1123V12.0747H178.721V14.5484H172.733V17.8272H177.524V20.1439H172.733V23.6385H179.035V26.1123H169.572ZM180.345 26.1123L184.959 12.0747H189.102L193.657 26.1123H190.339L189.377 22.9907H184.292L183.33 26.1123H180.345ZM186.844 14.6662L184.979 20.7329H188.689L186.844 14.6662ZM197.14 26.1123V14.5484H193.351V12.0747H204.129V14.5484H200.34V26.1123H197.14ZM206.381 26.1123V12.0747H209.581V26.1123H206.381ZM216.437 26.1123L211.744 12.0747H215.102L218.439 22.8532L221.777 12.0747H224.761L220.088 26.1123H216.437ZM226.845 26.1123V12.0747H235.994V14.5484H230.006V17.8272H234.797V20.1439H230.006V23.6385H236.309V26.1123H226.845ZM88.4334 45.3283C86.1822 45.3283 84.4414 44.6869 83.211 43.4042C81.9938 42.1215 81.3852 40.3807 81.3852 38.1818V38.0248C81.3852 35.9175 82.0396 34.1963 83.3485 32.8613C84.6704 31.5262 86.3392 30.8587 88.3549 30.8587C90.1088 30.8587 91.542 31.2906 92.6545 32.1545C93.7802 33.0183 94.4215 34.288 94.5786 35.9633H91.3195C91.0839 34.2356 90.1022 33.3717 88.3745 33.3717C87.262 33.3717 86.3785 33.784 85.7241 34.6086C85.0696 35.4332 84.7424 36.5654 84.7424 38.0051V38.1622C84.7424 39.6151 85.0631 40.7472 85.7044 41.5587C86.3458 42.3571 87.2424 42.7563 88.3942 42.7563C89.2842 42.7563 90.0106 42.5338 90.5734 42.0888C91.1363 41.6307 91.4831 40.9566 91.614 40.0666H94.7356C94.5655 41.7681 93.9111 43.0705 92.7723 43.9736C91.6467 44.8767 90.2004 45.3283 88.4334 45.3283ZM96.9944 45.1123V31.0747H100.175V36.8075H105.81V31.0747H108.99V45.1123H105.81V39.3206H100.175V45.1123H96.9944ZM111.084 45.1123L115.698 31.0747H119.841L124.396 45.1123H121.078L120.116 41.9907H115.031L114.069 45.1123H111.084ZM117.583 33.6662L115.718 39.7329H119.428L117.583 33.6662ZM126.511 45.1123V31.0747H129.691V42.6189H135.404V45.1123H126.511ZM137.693 45.1123V31.0747H140.874V42.6189H146.587V45.1123H137.693ZM148.875 45.1123V31.0747H158.024V33.5484H152.036V36.8272H156.827V39.1439H152.036V42.6385H158.339V45.1123H148.875ZM160.748 45.1123V31.0747H164.439L169.779 40.3218V31.0747H172.606V45.1123H169.426L163.575 35.1191V45.1123H160.748ZM182.243 45.3283C179.991 45.3283 178.237 44.6738 176.981 43.365C175.724 42.043 175.096 40.3153 175.096 38.1818V38.0248C175.096 35.9175 175.764 34.1963 177.099 32.8613C178.447 31.5262 180.161 30.8587 182.243 30.8587C183.329 30.8587 184.304 31.0223 185.168 31.3495C186.045 31.6637 186.791 32.2003 187.406 32.9595C188.021 33.7186 188.381 34.6544 188.486 35.767H185.325C185.063 34.1702 184.049 33.3717 182.282 33.3717C181.078 33.3717 180.129 33.7971 179.435 34.6479C178.754 35.4856 178.414 36.6243 178.414 38.064V38.2211C178.414 39.6478 178.735 40.7799 179.376 41.6176C180.017 42.4553 180.999 42.8741 182.321 42.8741C183.434 42.8741 184.265 42.5993 184.815 42.0495C185.377 41.4998 185.672 40.7865 185.698 39.9095H182.537V37.5928H188.839V39.085C188.839 40.9828 188.257 42.5011 187.092 43.6398C185.927 44.7655 184.311 45.3283 182.243 45.3283ZM191.338 45.1123V31.0747H200.487V33.5484H194.499V36.8272H199.289V39.1439H194.499V42.6385H200.801V45.1123H191.338Z" fill="#121C42"/>
<defs>
<clipPath id="clip0">
<rect width="59.9534" height="60" fill="white" transform="translate(0 0.179565)"/>
</clipPath>
</defs>
</svg>
