<svg width="25" height="25" viewBox="0 0 25 25" fill="none" xmlns="http://www.w3.org/2000/svg">
<path d="M9.92744 8.43416C9.86047 8.50113 9.82699 8.57813 9.82699 8.66519C9.82699 8.75224 9.86047 8.82925 9.92744 8.89621L13.875 12.8438L9.92744 16.7913C9.86047 16.8583 9.82699 16.9353 9.82699 17.0223C9.82699 17.1094 9.86047 17.1864 9.92744 17.2534L10.4297 17.7556C10.4966 17.8226 10.5736 17.856 10.6607 17.856C10.7478 17.856 10.8248 17.8226 10.8917 17.7556L15.5725 13.0748C15.6395 13.0078 15.673 12.9308 15.673 12.8438C15.673 12.7567 15.6395 12.6797 15.5725 12.6127L10.8917 7.93193C10.8248 7.86496 10.7478 7.83148 10.6607 7.83148C10.5736 7.83148 10.4966 7.86496 10.4297 7.93193L9.92744 8.43416Z" fill="white"/>
</svg>
