<svg width="6" height="11" viewBox="0 0 6 11" fill="none" xmlns="http://www.w3.org/2000/svg">
<path d="M0.24775 1.4341C0.180786 1.50106 0.147304 1.57807 0.147304 1.66513C0.147304 1.75218 0.180786 1.82919 0.24775 1.89615L4.1953 5.8437L0.247751 9.79124C0.180787 9.85821 0.147304 9.93522 0.147304 10.0223C0.147304 10.1093 0.180787 10.1863 0.247751 10.2533L0.749984 10.7555C0.816948 10.8225 0.893957 10.856 0.98101 10.856C1.06806 10.856 1.14507 10.8225 1.21204 10.7555L5.89284 6.07473C5.9598 6.00776 5.99329 5.93075 5.99329 5.8437C5.99329 5.75664 5.9598 5.67964 5.89284 5.61267L1.21204 0.931868C1.14507 0.864903 1.06806 0.831421 0.981009 0.831421C0.893956 0.831421 0.816947 0.864903 0.749983 0.931868L0.24775 1.4341Z" fill="#FA7846"/>
</svg>
