<svg width="171" height="62" viewBox="0 0 171 62" fill="none" xmlns="http://www.w3.org/2000/svg">
<path d="M7.70325 60.0491C15.3746 46.2673 26.01 34.3436 39.6069 24.2808C53.205 14.214 67.7703 7.48186 83.3041 4.08289C94.9424 1.34523 106.117 0.933082 116.811 2.84117C127.51 4.75149 137.56 9.18983 146.965 16.1546C156.366 23.121 163.827 33.1486 169.34 46.2472M34.3752 48.6817C30.6107 50.2854 27.8043 51.5376 25.9593 52.4314C24.1143 53.3253 21.781 54.5124 18.9559 55.98C17.2105 56.8968 15.4709 57.8405 13.7883 58.8703C11.8668 60.0464 5.49523 62.7875 6.11106 57.8519L6.06083 57.0917C5.73605 52.1839 6.14028 47.0818 5.46036 42.1001C4.81555 37.373 3.23217 33.6554 0.995605 29.5104" stroke="#FA7846" stroke-width="1.5" stroke-miterlimit="10" stroke-linecap="round" stroke-linejoin="round"/>
</svg>
