<svg width="24" height="25" viewBox="0 0 24 25" fill="none" xmlns="http://www.w3.org/2000/svg">
<path fill-rule="evenodd" clip-rule="evenodd" d="M3.09545 4.7124H1V3.2124H3.10237C3.99119 3.21754 4.78673 3.77965 5.07571 4.62374L5.88095 6.87364H19C19.2334 6.87364 19.4535 6.98228 19.5954 7.16754C19.7373 7.3528 19.7849 7.59357 19.7241 7.8189L17.9292 14.4757C17.8409 14.803 17.5441 15.0304 17.2051 15.0304H7.73527C7.41849 15.0304 7.13587 14.8314 7.02913 14.5332L3.65713 5.11157C3.57859 4.87958 3.35588 4.71463 3.09545 4.7124ZM6.4178 8.37364L8.26343 13.5304H16.6305L18.021 8.37364H6.4178Z" fill="white"/>
<path d="M8.07249 21.2698C9.00243 21.2698 9.7563 20.5247 9.7563 19.6056C9.7563 18.6865 9.00243 17.9414 8.07249 17.9414C7.14254 17.9414 6.38867 18.6865 6.38867 19.6056C6.38867 20.5247 7.14254 21.2698 8.07249 21.2698Z" fill="white"/>
<path d="M17.1643 21.2698C18.0942 21.2698 18.8481 20.5247 18.8481 19.6056C18.8481 18.6865 18.0942 17.9414 17.1643 17.9414C16.2343 17.9414 15.4805 18.6865 15.4805 19.6056C15.4805 20.5247 16.2343 21.2698 17.1643 21.2698Z" fill="white"/>
</svg>
