<svg width="37" height="37" viewBox="0 0 37 37" fill="none" xmlns="http://www.w3.org/2000/svg">
<mask id="mask0" style="mask-type:alpha" maskUnits="userSpaceOnUse" x="0" y="0" width="37" height="37">
<rect x="0.602051" y="0.177856" width="36" height="36" fill="#C4C4C4"/>
</mask>
<g mask="url(#mask0)">
<path d="M18.8317 2.17798V9.25801M6.50614 15.1147V32.1778H19.4245M19.3878 32.1778H30.6986V15.1147M19.9115 9.59625H4.31982V15.1147H19.9115M19.3878 15.1147H32.8849V9.59625H19.3878V15.1147ZM23.0943 4.54601C22.7886 4.55229 22.4869 4.61565 22.2062 4.73714C22.113 4.77747 22.0198 4.8225 21.9349 4.87801C21.8632 4.92462 21.7967 4.98012 21.7323 5.03668C21.6349 5.12309 21.5432 5.21578 21.4547 5.31056C21.217 5.56349 20.9997 5.83527 20.7897 6.11177C20.4745 6.52704 20.1791 6.95749 19.8926 7.39316C19.4664 8.04146 19.0637 8.70394 18.6699 9.37213L18.6023 9.48784C19.314 9.48524 20.0262 9.47056 20.7368 9.43548C21.317 9.4072 21.8973 9.36692 22.4738 9.29938C22.81 9.26061 23.1462 9.21295 23.4782 9.1438C23.6337 9.11183 23.7877 9.07516 23.939 9.0291C24.0417 8.99872 24.1432 8.96365 24.2397 8.91758C24.3475 8.86623 24.447 8.79608 24.5412 8.72483C24.7769 8.54577 24.9764 8.32214 25.1273 8.06823C25.266 7.83571 25.3639 7.57861 25.4153 7.31252C25.4776 6.98888 25.4713 6.65429 25.3949 6.33381C25.2445 5.7054 24.8251 5.14351 24.2537 4.83611C24.0553 4.72825 23.8443 4.64812 23.6232 4.59995C23.5138 4.57638 23.4028 4.56172 23.2907 4.55229C23.2252 4.5481 23.1598 4.54601 23.0943 4.54601ZM14.5214 3.0478C14.1946 3.05932 13.8731 3.12582 13.572 3.25621C12.8933 3.55104 12.3665 4.14593 12.1565 4.8555C12.0811 5.10895 12.0465 5.37393 12.0528 5.63785C12.0596 5.93373 12.1188 6.22698 12.2261 6.50191C12.3409 6.79462 12.5105 7.06482 12.7247 7.29633C12.7566 7.33031 12.7886 7.36337 12.8232 7.39476C12.8922 7.4571 12.9687 7.51156 13.0467 7.56283C13.1646 7.64036 13.2871 7.71102 13.4117 7.77756C13.7919 7.98021 14.1894 8.15097 14.5889 8.30905C15.0665 8.49861 15.5515 8.67038 16.0395 8.83174C16.8397 9.09665 17.6488 9.33286 18.4614 9.55799L18.6028 9.59676C18.4457 9.0202 18.2808 8.44474 18.1048 7.87339C17.8519 7.05072 17.5801 6.23169 17.2555 5.43467C17.1204 5.10372 16.9769 4.77642 16.8114 4.4596C16.702 4.25118 16.5852 4.04014 16.4349 3.85738C16.394 3.80764 16.3485 3.7626 16.3013 3.71914C16.2306 3.6542 16.1568 3.59241 16.0783 3.53481C15.796 3.32691 15.4697 3.1808 15.1267 3.1054C14.9874 3.07554 14.8466 3.05879 14.7041 3.05093C14.6434 3.0478 14.5821 3.04727 14.5214 3.0478Z" stroke="#FC8C5F" stroke-width="1.5" stroke-miterlimit="10" stroke-linecap="round" stroke-linejoin="round"/>
<path fill-rule="evenodd" clip-rule="evenodd" d="M18.6021 8.84607C19.0163 8.84607 19.3521 9.18186 19.3521 9.59607V32.1776C19.3521 32.5918 19.0163 32.9276 18.6021 32.9276C18.1878 32.9276 17.8521 32.5918 17.8521 32.1776V9.59607C17.8521 9.18186 18.1878 8.84607 18.6021 8.84607Z" fill="#FC8C5F"/>
</g>
</svg>
