<svg width="24" height="25" viewBox="0 0 24 25" fill="none" xmlns="http://www.w3.org/2000/svg">
<path d="M12.0156 9.00684C10.0156 9.00684 8.42188 10.6318 8.42188 12.6006C8.42188 14.6006 10.0156 16.1943 12.0156 16.1943C13.9844 16.1943 15.6094 14.6006 15.6094 12.6006C15.6094 10.6318 13.9844 9.00684 12.0156 9.00684ZM12.0156 14.9443C10.7344 14.9443 9.67188 13.9131 9.67188 12.6006C9.67188 11.3193 10.7031 10.2881 12.0156 10.2881C13.2969 10.2881 14.3281 11.3193 14.3281 12.6006C14.3281 13.9131 13.2969 14.9443 12.0156 14.9443ZM16.5781 8.88184C16.5781 8.41309 16.2031 8.03809 15.7344 8.03809C15.2656 8.03809 14.8906 8.41309 14.8906 8.88184C14.8906 9.35059 15.2656 9.72559 15.7344 9.72559C16.2031 9.72559 16.5781 9.35059 16.5781 8.88184ZM18.9531 9.72559C18.8906 8.60059 18.6406 7.60059 17.8281 6.78809C17.0156 5.97559 16.0156 5.72559 14.8906 5.66309C13.7344 5.60059 10.2656 5.60059 9.10938 5.66309C7.98438 5.72559 7.01562 5.97559 6.17188 6.78809C5.35938 7.60059 5.10938 8.60059 5.04688 9.72559C4.98438 10.8818 4.98438 14.3506 5.04688 15.5068C5.10938 16.6318 5.35938 17.6006 6.17188 18.4443C7.01562 19.2568 7.98438 19.5068 9.10938 19.5693C10.2656 19.6318 13.7344 19.6318 14.8906 19.5693C16.0156 19.5068 17.0156 19.2568 17.8281 18.4443C18.6406 17.6006 18.8906 16.6318 18.9531 15.5068C19.0156 14.3506 19.0156 10.8818 18.9531 9.72559ZM17.4531 16.7256C17.2344 17.3506 16.7344 17.8193 16.1406 18.0693C15.2031 18.4443 13.0156 18.3506 12.0156 18.3506C10.9844 18.3506 8.79688 18.4443 7.89062 18.0693C7.26562 17.8193 6.79688 17.3506 6.54688 16.7256C6.17188 15.8193 6.26562 13.6318 6.26562 12.6006C6.26562 11.6006 6.17188 9.41309 6.54688 8.47559C6.79688 7.88184 7.26562 7.41309 7.89062 7.16309C8.79688 6.78809 10.9844 6.88184 12.0156 6.88184C13.0156 6.88184 15.2031 6.78809 16.1406 7.16309C16.7344 7.38184 17.2031 7.88184 17.4531 8.47559C17.8281 9.41309 17.7344 11.6006 17.7344 12.6006C17.7344 13.6318 17.8281 15.8193 17.4531 16.7256Z" fill="white"/>
</svg>
