<svg width="24" height="24" viewBox="0 0 24 24" fill="none" xmlns="http://www.w3.org/2000/svg">
<path d="M11.3247 20.3912C10.746 19.5232 9.9744 18.4622 9.00993 17.112C7.85257 15.4724 7.081 14.315 6.79165 13.7363C6.21298 12.9647 5.82719 12.2896 5.6343 11.7109C5.44141 11.1323 5.44141 10.4571 5.44141 9.78201C5.44141 8.62465 5.73074 7.46728 6.30943 6.50282C6.8881 5.53835 7.65967 4.67033 8.72059 4.09165C9.68506 3.51298 10.8424 3.22363 11.9998 3.22363C13.1571 3.22363 14.3145 3.51298 15.2789 4.09165C16.2434 4.67033 17.1115 5.44191 17.6901 6.50282C18.2688 7.46728 18.5582 8.62465 18.5582 9.78201C18.5582 10.5536 18.4617 11.1323 18.2688 11.7109C18.0759 12.2896 17.6901 12.9647 17.2079 13.8327C16.8221 14.4114 16.0505 15.4724 14.9896 17.2084L12.675 20.4876C12.4821 20.6805 12.2892 20.777 11.9998 20.777C11.7104 20.777 11.4211 20.6805 11.3247 20.3912ZM11.9998 12.4825C12.7713 12.4825 13.4464 12.1931 13.9287 11.7109C14.5074 11.1323 14.7003 10.5536 14.7003 9.78201C14.7003 9.01044 14.4109 8.3353 13.9287 7.85307C13.35 7.2744 12.7713 6.98505 11.9998 6.98505C11.2282 6.98505 10.5531 7.2744 10.0708 7.85307C9.49216 8.3353 9.20283 9.01044 9.20283 9.78201C9.20283 10.5536 9.49216 11.1323 10.0708 11.7109C10.5531 12.2896 11.2282 12.4825 11.9998 12.4825Z" stroke="#FA7846" stroke-width="1.5" stroke-linecap="round" stroke-linejoin="round"/>
</svg>
