<svg width="175" height="68" viewBox="0 0 175 68" fill="none" xmlns="http://www.w3.org/2000/svg">
<path d="M30.2264 7.22363H63.3284V60.0079H7.15869V8.09058V8.09191L14.4434 18.3891L30.2264 7.22363Z" fill="#D8D1C1"/>
<path d="M34.2677 10.2228C34.2677 15.6528 32.4979 20.6832 29.4855 24.8082C28.0702 26.7452 26.3815 28.4831 24.4723 29.9661C21.1134 32.5789 17.0734 34.4097 12.6484 35.1718C12.2806 35.2355 11.9102 35.2913 11.5385 35.339L8.03352 33.0993L7.86358 32.9918V10.3011L14.2761 19.3662L30.4441 7.92862H34.1614C34.2305 8.68538 34.2677 9.4501 34.2677 10.2228ZM6.45363 32.0903L3.03629 29.9063V35.1173C2.52515 35.0217 2.01799 34.9142 1.5188 34.7907V1.51746H1.65156L6.45496 8.30833C6.45363 8.30833 6.45363 32.0903 6.45363 32.0903ZM32.4408 6.52L33.8202 5.54418C33.868 5.78714 33.9105 6.03143 33.9504 6.27704L33.9889 6.52H32.4408Z" fill="#66C0FF"/>
<path d="M49.6576 14.0225C49.6576 17.4492 52.435 20.2279 55.863 20.2279C59.2896 20.2279 62.0684 17.4505 62.0684 14.0225C62.0684 10.5959 59.2909 7.81714 55.863 7.81714C52.435 7.81714 49.6576 10.5946 49.6576 14.0225Z" fill="#CB6362"/>
<path d="M35.509 2.62867L35.2209 2.22241H3.86743L14.6107 17.4119L30.8371 5.93449V5.93183L33.5441 4.01605L33.5455 4.01738L35.509 2.62867Z" fill="#F2EFEA"/>
<path d="M20.4788 41.0573C21.2382 37.5019 22.7066 34.2106 24.7339 31.3376C26.1638 29.3077 27.8738 27.4862 29.8042 25.9302C34.3606 22.2579 40.1544 20.0607 46.462 20.0607C47.24 20.0607 48.0087 20.0939 48.7682 20.1589C54.2725 20.6316 59.2977 22.7837 63.3284 26.1014C64.8538 27.356 66.2372 28.7766 67.4507 30.3379V64.1954H45.8155L49.3616 59.6216L47.8388 58.5463L35.5303 50.6773L35.7812 50.6627L36.1197 50.6415L36.4596 50.6163L36.7995 50.5884L37.1394 50.5565L37.4792 50.522L37.8191 50.4835L38.159 50.4424L38.4989 50.3959L38.8374 50.3468L39.1746 50.2937L39.5105 50.2366L39.8451 50.1755L39.9964 50.1463L40.1491 50.1144L40.3031 50.0799L40.4571 50.0427L40.6125 50.0042L40.7678 49.9631L40.9245 49.9193L41.0811 49.8741L41.2378 49.8263L41.3958 49.7772L41.5538 49.7254L41.7118 49.6723L41.8711 49.6179L42.0304 49.5608L42.1897 49.5024L42.349 49.4426L42.5083 49.3816L42.6677 49.3192L42.827 49.2554L42.9863 49.1891L43.1443 49.1227L43.3023 49.0536L43.4603 48.9846L43.6169 48.9142L43.7736 48.8425L43.9302 48.7695L44.0869 48.6952L44.2409 48.6208L44.3949 48.5452L44.5489 48.4682L44.7003 48.3912L44.8516 48.3128L45.0016 48.2345L45.1503 48.1548L45.299 48.0752L45.4451 47.9955L45.5911 47.9145L45.7345 47.8335L45.8766 47.7512L46.0173 47.6689L46.1567 47.5866L46.2948 47.5043L46.4315 47.422L46.5669 47.3397L46.6997 47.256L46.8311 47.1737L46.9599 47.0914L47.0874 47.0091L47.2122 46.9268L47.3356 46.8444L47.4564 46.7621L47.5746 46.6811L47.6914 46.6002L47.8056 46.5192L47.9171 46.4395L48.026 46.3599L48.1322 46.2815L48.2358 46.2032L48.3367 46.1262L48.4349 46.0492L48.5305 45.9735L48.6234 45.8992L48.7137 45.8248L48.8 45.7531C50.3879 44.4043 54.4066 39.492 54.0973 39.33L54.08 39.3207L54.0561 39.3074L54.0269 39.2915L53.9911 39.2716L53.9499 39.249L53.9035 39.2238L53.8517 39.1959L53.7946 39.1654L53.7322 39.1322L53.6645 39.0964L53.5915 39.0579L53.5145 39.0167L53.4321 38.9742L53.3459 38.9291L53.2556 38.8813L53.16 38.8322L53.0604 38.7804L52.9569 38.7273L52.8493 38.6728L52.7378 38.6157L52.6236 38.5573L52.5055 38.4976L52.3833 38.4365L52.2585 38.3741L52.1297 38.3104L51.9983 38.2467L51.8642 38.1816L51.7275 38.1152L51.5881 38.0488L51.446 37.9811L51.3013 37.9134L51.1539 37.8444L51.0052 37.7754L50.8579 37.705L50.7052 37.6359L50.5498 37.5656L50.3932 37.4965L50.2352 37.4262L50.0759 37.3571L49.9152 37.2868L49.7533 37.2177L49.59 37.1487L49.4253 37.081L49.2607 37.0133L49.0948 36.9469L48.9275 36.8805L48.7602 36.8155L48.5929 36.7517L48.4256 36.6893L48.2583 36.6283L48.0911 36.5672L47.9238 36.5075L47.7565 36.4504L47.5892 36.3946L47.4233 36.3402L47.2586 36.2871L47.094 36.2366L46.9294 36.1875L46.7661 36.141L46.6041 36.0959L46.4435 36.0534L46.2841 36.0136L46.1275 35.9764L45.9708 35.9406C45.8248 35.9087 45.6801 35.8782 45.5354 35.8503C45.392 35.8224 45.2486 35.7945 45.1065 35.7693C44.9645 35.7441 44.8237 35.7202 44.6843 35.6989C44.5436 35.6764 44.4055 35.6564 44.2661 35.6365C44.1281 35.6179 43.9913 35.6007 43.8546 35.5847C43.7178 35.5688 43.5824 35.5542 43.4483 35.5423C43.3142 35.529 43.1801 35.5184 43.0474 35.5091C42.9146 35.4998 42.7832 35.4918 42.6517 35.4838C42.5203 35.4772 42.3915 35.4719 42.2614 35.4679C42.1326 35.4639 42.0038 35.4613 41.8764 35.4613C41.7489 35.4599 41.6228 35.46 41.4967 35.4626C41.3706 35.4639 41.2458 35.4679 41.1223 35.4719C40.9988 35.4759 40.8753 35.4825 40.7532 35.4892C40.6311 35.4971 40.5102 35.5051 40.3894 35.5144C40.2686 35.5237 40.1491 35.5356 40.031 35.5476C39.9128 35.5595 39.7946 35.5728 39.6778 35.5887C39.561 35.6047 39.4455 35.6206 39.33 35.6379C39.2145 35.6551 39.1003 35.6737 38.9874 35.6949C38.7604 35.7348 38.5374 35.7799 38.317 35.829C38.2068 35.8529 38.0979 35.8795 37.9891 35.906C37.8802 35.9326 37.7727 35.9605 37.6651 35.9897C37.5589 36.0189 37.4527 36.0494 37.3465 36.08C37.2416 36.1105 37.1367 36.1437 37.0332 36.1769C36.9296 36.2101 36.826 36.2446 36.7251 36.2804C36.6229 36.3163 36.522 36.3521 36.4211 36.3893C36.3202 36.4265 36.2206 36.465 36.1224 36.5048C36.0228 36.5446 35.9259 36.5845 35.8277 36.6256C35.7307 36.6668 35.6338 36.7093 35.5369 36.7531C35.3444 36.8407 35.1572 36.931 34.97 37.0239C34.8771 37.0704 34.7855 37.1195 34.6939 37.1673C34.6023 37.2164 34.512 37.2655 34.4217 37.316C34.3314 37.3664 34.2425 37.4169 34.1548 37.4687C34.0672 37.5204 33.9796 37.5735 33.892 37.6267C33.8043 37.6798 33.7194 37.7342 33.6331 37.7886C33.5481 37.8431 33.4631 37.8988 33.3782 37.9559L33.1272 38.1272C33.0449 38.1856 32.9626 38.244 32.8803 38.3024L32.6387 38.4817C32.559 38.5414 32.4794 38.6025 32.401 38.6649L32.1674 38.8521L31.9377 39.0432L31.712 39.2371L31.4903 39.4336L31.2712 39.634L31.0561 39.8372L30.845 40.043L30.6286 40.2541L30.4255 40.4651L30.225 40.6789L30.0285 40.894L29.836 41.1117L29.6475 41.3308L29.4616 41.5512L29.2798 41.7729L29.1005 41.9959L28.9253 42.2203L28.7527 42.446L28.5841 42.673L28.4181 42.9L28.2561 43.1284L28.0968 43.3567L27.9402 43.5851C27.5923 44.0989 27.2538 44.6432 26.9338 45.1889L20.9501 41.364L20.4749 41.0599L20.4788 41.0573Z" fill="#EB8E51"/>
<path d="M49.3617 59.6229L45.8155 64.1966H3.03638V29.9064L8.03228 33.0993L13.53 36.6136L20.9542 41.3599L26.9378 45.1848C25.5186 47.6011 24.4565 50.0374 24.4565 50.0374C24.4565 50.0374 29.7591 50.9919 35.5317 50.6786L47.8402 58.5475L49.3617 59.6229Z" fill="#D89795"/>
<path d="M48.8027 45.7518C46.9944 47.2865 43.0713 49.5661 39.8491 50.1755C32.7236 51.5257 24.4578 50.0361 24.4578 50.0361C24.4578 50.0361 26.0523 46.3784 27.9455 43.5811C31.2473 38.702 36.6216 33.8947 45.9655 35.9352C49.2819 36.6601 53.7919 39.1627 54.1013 39.326C54.408 39.4907 50.3905 44.4029 48.8027 45.7518ZM32.1182 44.314C31.396 40.5076 33.8774 36.842 37.6598 36.1251C41.4422 35.4082 45.0946 37.9121 45.8168 41.7184C46.539 45.5234 44.0577 49.1904 40.2752 49.9073C36.4928 50.6242 32.8405 48.1203 32.1182 44.314Z" fill="#FFEEC0"/>
<path d="M32.1182 44.3139C31.3959 40.5089 33.8773 36.842 37.6597 36.1264C41.4422 35.4095 45.0945 37.9134 45.8167 41.7197C46.539 45.5247 44.0576 49.1917 40.2752 49.9073C36.4927 50.6242 32.8404 48.1203 32.1182 44.3139Z" fill="#66C0FF"/>
<path d="M34.9712 10.2228C34.9712 12.9644 34.5317 15.609 33.7166 18.0944C32.8735 20.666 31.6269 23.0664 30.051 25.2238C29.3248 26.2169 28.5282 27.1608 27.6652 28.0477C26.7996 28.9372 25.8769 29.7643 24.9024 30.5224C23.1605 31.8779 21.2368 33.029 19.175 33.9371C17.1596 34.8239 15.0102 35.4785 12.7651 35.8661L12.4438 35.9206L10.5958 34.739C11.2503 34.6752 11.8955 34.5889 12.5288 34.4788C14.6583 34.1123 16.6963 33.4923 18.6081 32.6493C20.5623 31.789 22.3852 30.6976 24.0394 29.4098C24.9741 28.6836 25.849 27.9016 26.6589 27.0679C27.4727 26.2301 28.2281 25.3353 28.9185 24.3927C30.4081 22.3548 31.5844 20.0885 32.3797 17.6602C33.1484 15.3169 33.5626 12.817 33.5626 10.2228C33.5626 9.5696 33.5373 8.92703 33.4856 8.2964C33.4325 7.63922 33.3555 7.00328 33.2572 6.38725C33.2081 6.0819 33.1537 5.78716 33.0966 5.50172L33.0408 5.23486L33.9489 4.59229L34.2822 4.35729C34.3499 4.64539 34.4149 4.93614 34.4733 5.2269C34.5371 5.54686 34.5955 5.86151 34.6446 6.16819C34.7535 6.84662 34.8371 7.51973 34.8902 8.18753C34.9433 8.8633 34.9712 9.54172 34.9712 10.2228ZM3.03619 35.8303C2.46796 35.7281 1.90769 35.6086 1.35274 35.4732L0.813721 35.3404V0.8125H33.163L33.3355 1.27054L33.4285 1.5188H2.51044L3.00831 2.22378H2.22367V34.2345C2.49318 34.2942 2.76402 34.35 3.03752 34.4018L3.03619 35.8303Z" fill="black"/>
<path d="M50.3614 14.0225C50.3614 15.5414 50.9774 16.9168 51.9731 17.9125C52.9675 18.9082 54.343 19.5243 55.8631 19.5243C57.3819 19.5243 58.7574 18.9082 59.7518 17.9125C60.7475 16.9181 61.3635 15.5427 61.3635 14.0225C61.3635 12.5037 60.7475 11.1283 59.7518 10.1326C58.7574 9.13816 57.3819 8.52213 55.8631 8.52213C54.3443 8.52213 52.9689 9.13816 51.9731 10.1326C50.9774 11.1283 50.3614 12.5037 50.3614 14.0225ZM50.9761 18.9082C49.7254 17.6576 48.9528 15.9304 48.9528 14.0212C48.9528 12.1134 49.7268 10.3861 50.9761 9.1355C52.2267 7.88487 53.954 7.11218 55.8631 7.11218C57.7709 7.11218 59.4982 7.8862 60.7488 9.1355C61.9995 10.3861 62.7721 12.1134 62.7721 14.0212C62.7721 15.929 61.9981 17.6576 60.7488 18.9082C59.4982 20.1589 57.7709 20.9316 55.8631 20.9316C53.9553 20.9316 52.2267 20.1589 50.9761 18.9082Z" fill="black"/>
<path d="M69.673 32.5072V60.7527L69.6704 60.7912C69.6545 61.0607 69.6465 61.2213 69.6372 61.3767C69.3995 65.7127 69.361 66.4204 64.9427 66.4204H27.6971L27.4887 66.2199C26.8288 65.58 26.1982 64.9055 25.6021 64.1979H27.4767C27.7329 64.4741 27.9958 64.7449 28.264 65.0117H64.9413C68.0294 65.0117 68.0573 64.4926 68.2326 61.3076L68.2631 60.7553H68.2618V32.7076C67.5515 31.5964 66.7522 30.5383 65.8773 29.5439C64.952 28.4937 63.9496 27.5232 62.8808 26.6443C60.8934 25.0087 58.6523 23.6624 56.2267 22.672C53.8741 21.7121 51.3476 21.0882 48.7083 20.8611C48.31 20.8266 47.9369 20.8027 47.5891 20.7868C47.2479 20.7722 46.8708 20.7642 46.4593 20.7642C43.4416 20.7642 40.5486 21.2793 37.8615 22.2259C35.0708 23.2084 32.4992 24.6569 30.2422 26.477C29.3022 27.2351 28.4153 28.0569 27.5882 28.9385C26.7664 29.8161 26.003 30.752 25.306 31.7398C24.2505 33.236 23.3531 34.8438 22.6335 36.5392C21.9697 38.1045 21.4559 39.7508 21.1094 41.4594L20.9514 41.3585L19.8441 40.6509C20.2039 39.0418 20.7071 37.4858 21.339 35.9949C22.1011 34.1959 23.0477 32.5005 24.155 30.9313C24.8878 29.8917 25.6937 28.904 26.5633 27.9759C27.4329 27.0479 28.3676 26.181 29.3606 25.3817C31.7424 23.4633 34.4521 21.9352 37.3928 20.8996C40.2313 19.8999 43.2836 19.3556 46.458 19.3556C46.8244 19.3556 47.2213 19.3649 47.6475 19.3835C48.0684 19.4021 48.46 19.426 48.8225 19.4578C51.6065 19.6968 54.2724 20.3553 56.7538 21.3683C59.3068 22.4105 61.67 23.8311 63.7717 25.561C64.9108 26.4983 65.9689 27.5192 66.9328 28.6145C67.8953 29.7085 68.7756 30.8848 69.5602 32.1341L69.6704 32.3094L69.673 32.5072Z" fill="black"/>
<path d="M68.9682 67.2329H0V0H70.4856V67.2329H68.9682ZM3.03631 64.1966H67.4493V3.03631H3.03631V64.1966Z" fill="black"/>
<path d="M32.381 8.13715C32.3226 7.36446 32.2602 6.59178 32.2124 5.81909L31.2405 6.50548L29.6447 7.6353C29.6075 8.03226 29.585 8.42525 29.5597 8.80495C29.4336 10.7021 29.2066 12.59 29.1017 14.4899C28.9835 16.6008 28.9238 18.7144 28.8428 20.8267C28.8136 21.5835 28.7738 22.3389 28.7286 23.0957C28.6463 21.6233 28.556 20.1523 28.4472 18.6813C28.2945 16.6128 28.1139 14.547 27.9068 12.4838C27.8073 11.4881 27.6904 10.495 27.5882 9.49931C27.5749 9.37185 27.5643 9.24307 27.555 9.11429L24.9781 10.9371C24.37 13.7969 24.4497 16.8106 24.2957 19.7102C24.2001 21.4998 24.1178 23.2908 24.0394 25.0818C23.9067 23.6957 23.7819 22.3097 23.6703 20.9223C23.527 19.13 23.3358 17.3178 23.3278 15.5201C23.3225 14.3638 23.43 13.1968 23.4207 12.0378L21.2394 13.5805C21.2248 13.6907 21.2115 13.8009 21.1956 13.911C21.0469 14.9745 20.8889 16.0353 20.7495 17.1C20.4747 19.1937 20.2331 21.2927 20.0047 23.3917C19.714 26.0656 19.4484 28.7421 19.1882 31.4199C19.2028 30.9168 19.2148 30.4123 19.2241 29.9104C19.2652 27.761 19.2759 25.6142 19.3807 23.4647C19.4856 21.3325 19.629 19.2043 19.7419 17.0735C19.7857 16.2357 19.8255 15.398 19.8547 14.5603L16.8821 16.6632C16.2356 19.8575 15.8266 23.1049 15.3089 26.3231C15.3248 26.1439 15.3407 25.966 15.3606 25.7868C15.5797 23.6931 15.909 21.614 16.1745 19.527C16.282 18.6759 16.3776 17.8223 16.452 16.9673L14.4419 18.3892L13.8578 17.5634C13.6958 18.4343 13.5551 19.3092 13.3679 20.1602C12.7333 23.0399 12.1146 25.9222 11.5078 28.8085C11.1056 30.7176 10.6847 32.6268 10.2864 34.5412L11.4016 35.2542C12.3721 30.2437 13.4781 25.2544 14.568 20.2704C14.6782 19.7686 14.7831 19.2667 14.8867 18.7649C14.6464 21.2954 14.2229 23.8139 13.9268 26.3364C13.5883 29.2174 13.5471 32.105 13.5763 34.9953C14.0928 34.8877 14.6039 34.7656 15.1084 34.6288C15.1084 34.6049 15.1071 34.581 15.1071 34.5572C15.4828 32.19 15.9581 29.8387 16.4002 27.4835C16.9286 24.6609 17.2977 21.8132 17.7517 18.9786C17.9296 17.8674 18.1208 16.7575 18.3385 15.6516C18.2443 18.429 18.0478 21.2051 17.9004 23.9812C17.7252 27.2525 17.6548 30.5384 17.6097 33.8177C18.5934 33.4446 19.548 33.0158 20.4694 32.5352C20.9075 27.9893 21.3443 23.4422 21.882 18.907C21.9391 19.7858 22.0188 20.6647 22.0865 21.5383C22.3307 24.7233 22.6666 27.899 22.9242 31.0827C23.4539 30.7296 23.9704 30.3565 24.4696 29.9675C24.755 29.7458 25.0338 29.5188 25.3086 29.2864C25.3551 28.2084 25.4215 27.129 25.4653 26.0563C25.6339 21.9273 25.7892 17.7917 26.0242 13.6668C26.0601 13.0494 26.1026 12.4267 26.165 11.8041C26.2552 12.6285 26.3415 13.453 26.4225 14.2775C26.6257 16.3406 26.8022 18.4078 26.9509 20.4762C27.0996 22.546 27.2125 24.6171 27.32 26.6896C27.332 26.9113 27.3439 27.133 27.3559 27.3547C28.1192 26.5515 28.8295 25.7018 29.4827 24.8096C29.7045 24.5056 29.9195 24.1949 30.128 23.8816C30.189 22.9722 30.2528 22.0627 30.2952 21.1507C30.4718 17.3563 30.5103 13.5499 30.8728 9.76616C30.8741 9.78608 30.8754 9.80466 30.8768 9.82325C31.0042 11.4855 31.1556 13.145 31.3919 14.7953C31.6441 16.5623 31.9681 18.3228 32.1978 20.0912C32.6877 18.976 33.0966 17.8209 33.4179 16.6301C33.2386 15.4949 33.0474 14.3611 32.8895 13.2233C32.6545 11.5359 32.5084 9.83785 32.381 8.13715ZM10.1961 34.4828C10.4895 28.8191 10.9675 23.1567 11.3963 17.505C11.4733 16.4973 11.5742 15.5148 11.711 14.5271L10.0249 12.1426C8.81008 15.3091 8.37993 18.7437 7.93384 22.0853C7.4851 25.4522 6.98989 28.8098 6.59558 32.182L7.75992 32.9268C7.92986 31.3589 8.12104 29.7936 8.32682 28.231C8.61226 26.0669 8.94285 23.9108 9.24422 21.7494C9.51107 19.8336 9.75536 17.9126 10.1098 16.0114C10.2054 15.5042 10.3077 14.9984 10.4205 14.4952C10.236 15.5945 10.0501 16.6739 9.9638 17.7904C9.71022 21.0737 9.47523 24.3582 9.24289 27.6441C9.10349 29.6329 8.95878 31.6231 8.83132 33.6132L10.1961 34.4828Z" fill="black"/>
<path d="M49.9178 60.053L45.6813 65.5176H1.8042V28.2866C8.31228 32.4474 14.8217 36.6083 21.3298 40.7691L27.2975 44.5847C27.0506 44.9857 26.8129 45.3932 26.5859 45.7955L20.5757 41.9533C14.7885 38.2532 9.00133 34.5531 3.21282 30.8543V64.109H44.9949L48.3552 59.7755L47.4338 59.125L47.4351 59.1237L34.3035 50.729C35.0934 50.7091 35.898 50.6679 36.7065 50.5989L48.2171 57.9567L48.245 57.9739L50.3679 59.4742L49.9178 60.053Z" fill="black"/>
<path d="M7.15859 6.52002H64.032V60.7129H6.45361V6.52002H7.15859ZM62.622 7.92997H7.86356V59.3043H62.6233C62.622 59.3043 62.622 7.92997 62.622 7.92997Z" fill="black"/>
<path d="M69.6732 1.51748V50.9255L48.1947 20.5651H48.192L38.5348 6.91167L38.5361 6.91034L36.3176 3.77446L34.354 5.1645V5.16715L31.647 7.08161L31.6456 7.08028L14.2762 19.3676L1.15112 0.8125H34.2226H40.5076H69.6719C69.6732 0.8125 69.6732 1.51748 69.6732 1.51748ZM35.5091 2.62871L35.221 2.22245H3.86747L14.6107 17.4106L30.8371 5.9332V5.93055L33.5442 4.01476L33.5455 4.01609L35.5091 2.62871ZM38.5148 2.22245L37.4647 2.9646L39.6832 6.10048H39.6858L49.3431 19.7539L49.3417 19.7552L68.2632 46.5032V2.22245H38.5148Z" fill="black"/>
<path d="M36.1438 43.5452L36.1451 43.5439C36.0044 42.7951 36.1783 42.0596 36.5726 41.4768C36.9695 40.89 37.5896 40.4572 38.341 40.3138L38.3463 40.3111V40.3124C39.0924 40.1717 39.8266 40.3483 40.4081 40.7479C40.9923 41.1475 41.4238 41.7715 41.5672 42.5243L41.5698 42.5349C41.7079 43.2824 41.5353 44.0152 41.141 44.5967C40.744 45.1835 40.1227 45.6177 39.3726 45.7597L39.3619 45.7624V45.7637C38.6171 45.9018 37.8856 45.7252 37.3041 45.3269C36.7213 44.926 36.2885 44.302 36.1451 43.5506L36.1438 43.5452ZM49.2568 46.2895C48.2253 47.1657 46.5325 48.273 44.6712 49.193C43.1457 49.9471 41.4941 50.5804 39.9766 50.8672C32.7224 52.2413 24.3583 50.7344 24.3344 50.7304L23.4529 50.5738L23.8113 49.7559C23.8126 49.7519 23.956 49.4254 24.207 48.8903L22.1226 47.9145C22.0349 47.8733 21.9925 47.8548 21.9194 47.8016C21.8053 47.718 21.7163 47.5932 21.6765 47.4432C21.5862 47.1033 21.7721 46.7581 22.0934 46.6718C22.2593 46.628 22.4279 46.6612 22.5647 46.7502L24.746 47.7711C25.1071 47.0449 25.5545 46.1833 26.0537 45.303L23.2298 43.5771C23.1648 43.5373 23.1316 43.5147 23.0758 43.4603C22.9789 43.3647 22.9099 43.2372 22.8873 43.0899C22.8342 42.742 23.0572 42.4207 23.3865 42.3703C23.5551 42.3451 23.7197 42.3955 23.8458 42.5004L26.6857 44.2369C26.9047 43.8798 27.1304 43.528 27.3601 43.1881C27.6469 42.7646 27.9482 42.3411 28.2669 41.9229L25.9833 39.7309C25.9342 39.6845 25.9077 39.6513 25.8692 39.5929C25.7948 39.48 25.755 39.3406 25.7656 39.1919C25.7882 38.8414 26.0749 38.5759 26.4069 38.5971C26.5781 38.6091 26.7268 38.6954 26.8277 38.8228L29.0435 40.951C29.8627 39.9792 30.7814 39.0525 31.817 38.2227L29.9902 35.5993C29.9384 35.5236 29.9131 35.4891 29.8786 35.4068C29.8255 35.2794 29.8136 35.132 29.8521 34.9873C29.9437 34.6474 30.2769 34.4443 30.5969 34.5319C30.7615 34.577 30.8916 34.6912 30.966 34.8373L32.8087 37.4859C33.3 37.1474 33.8151 36.8327 34.3554 36.5446C34.9263 36.2406 35.5251 35.9671 36.153 35.7321L35.2489 33.0768C35.2091 32.96 35.1772 32.8843 35.1666 32.7661C35.1547 32.6334 35.1839 32.494 35.2595 32.3692C35.4401 32.0691 35.8172 31.9669 36.1013 32.1408C36.2473 32.2311 36.3402 32.3758 36.3708 32.5365L37.328 35.3457C38.3768 35.047 39.5014 34.8505 40.7055 34.7802L40.5953 31.9629C40.5913 31.8687 40.5927 31.8102 40.6166 31.7147C40.6471 31.5952 40.7108 31.4823 40.8104 31.392C41.0693 31.157 41.4596 31.1677 41.6827 31.4159C41.7968 31.5434 41.8433 31.708 41.8287 31.87L41.9415 34.7523C42.9851 34.7642 44.087 34.8691 45.2474 35.0762L45.8899 32.2324C45.9099 32.1475 45.9231 32.097 45.9656 32.0174C46.0254 31.9058 46.1196 31.8089 46.2431 31.7452C46.5538 31.5859 46.9295 31.6987 47.0808 31.9961C47.1592 32.1501 47.1618 32.3227 47.1047 32.4754L46.4595 35.3298C47.3211 35.5436 48.2425 35.8569 49.1427 36.21L50.1941 33.4578C50.2234 33.3822 50.2353 33.3516 50.2738 33.2879C50.3495 33.1618 50.469 33.0596 50.6217 33.0064C50.9522 32.8936 51.308 33.0582 51.4143 33.3755C51.47 33.5388 51.4488 33.7101 51.3704 33.8522L50.2897 36.6827C51.1713 37.0637 51.9944 37.4554 52.6715 37.7926L53.8863 35.6007C53.962 35.4626 54.0098 35.3524 54.1266 35.2475C54.2116 35.1718 54.3178 35.1161 54.4399 35.0935C54.7825 35.0284 55.1117 35.2422 55.1741 35.5701C55.206 35.7387 55.1608 35.906 55.0639 36.0361L53.7774 38.3582C54.0337 38.4936 54.2262 38.5971 54.339 38.6582L54.428 38.706C54.4877 38.7365 54.5422 38.7777 54.5913 38.8228C54.9285 39.1428 54.8475 39.6393 54.4572 40.2407C54.2554 40.5514 53.9567 40.963 53.5982 41.4263C52.337 43.058 50.3004 45.4039 49.2568 46.2895ZM45.4293 47.1976C46.6175 46.5191 47.6491 45.8089 48.3487 45.2154C49.3245 44.387 51.2695 42.1406 52.4843 40.5673C52.7618 40.2076 52.9994 39.8863 53.1747 39.63C51.8099 38.9091 48.4151 37.1925 45.8156 36.6243C44.6486 36.3694 43.5467 36.226 42.5071 36.1768C42.7753 36.3176 43.0342 36.4729 43.2825 36.6442C44.9075 37.7581 46.1103 39.4946 46.5073 41.5883V41.591C46.891 43.6116 46.4529 45.5964 45.4293 47.1976ZM31.8887 40.015C30.5703 41.2179 29.4644 42.5933 28.5284 43.9767C27.218 45.9137 26.0564 48.2623 25.4815 49.4864C27.238 49.74 31.3284 50.2233 35.6539 49.9697C35.306 49.8011 34.9714 49.6072 34.6528 49.3882C33.0278 48.2743 31.8249 46.5377 31.4267 44.4441V44.4427C31.1332 42.8934 31.3231 41.3653 31.8887 40.015ZM32.8087 44.1825V44.1852C33.134 45.8965 34.1178 47.3157 35.4454 48.2265C36.7731 49.1359 38.4432 49.5382 40.1426 49.2182V49.2169L40.1479 49.2156C41.8446 48.8943 43.2506 47.9092 44.1521 46.5776C45.0549 45.2433 45.4505 43.5625 45.1266 41.8498V41.8472C44.8013 40.1359 43.8175 38.7166 42.4899 37.8059C41.1622 36.8964 39.4921 36.4942 37.7927 36.8154H37.7874C36.0906 37.1381 34.6847 38.1218 33.7832 39.4535C32.8817 40.7891 32.4848 42.4712 32.8087 44.1825Z" fill="black"/>
<path d="M94.7887 30.8087L79.3969 33.2524L81.8406 48.6443L97.2325 46.2006L94.7887 30.8087Z" fill="#EDE4E6"/>
<path d="M88.3304 34.7164C88.584 33.9185 88.9637 33.3423 89.743 33.3423C90.4865 33.3423 90.9021 33.9371 91.1556 34.7164L94.9248 46.4899H93.8733L92.6599 42.7021H86.8249L85.6114 46.4899H84.5599L88.3304 34.7164ZM87.0984 41.81H92.3877L90.2688 35.0138C90.1599 34.6434 90.0152 34.2716 89.743 34.2716C89.4722 34.2716 89.3262 34.6434 89.2173 35.0138L87.0984 41.81Z" fill="#363634" stroke="#363634" stroke-width="1.1999" stroke-miterlimit="10"/>
<path d="M99.8198 35.1239C99.8198 33.9357 100.363 33.4896 101.523 33.4896H104.894C107.213 33.4896 107.865 35.0682 107.865 37.2973C107.865 39.6007 107.304 41.1966 105.04 41.1966H104.259V41.2895L107.956 46.4899H106.741L103.317 41.6241C103.172 41.4196 102.972 41.2337 102.972 40.9549V40.7319C102.972 40.4531 103.135 40.3044 103.407 40.3044H104.983C106.722 40.3044 106.814 38.9489 106.814 37.296C106.814 35.5501 106.596 34.3805 104.712 34.3805H101.523C100.98 34.3805 100.798 34.5663 100.798 35.1226V46.4872H99.8198V35.1239Z" fill="#363634" stroke="#363634" stroke-width="1.1999" stroke-miterlimit="10"/>
<path d="M116.164 46.4899V34.3818H111.943V33.4896H121.363V34.3818H117.142V46.4899H116.164Z" fill="#363634" stroke="#363634" stroke-width="1.1999" stroke-miterlimit="10"/>
<path d="M90.3046 66.2704C86.1916 66.2704 85.468 63.2991 85.468 59.7716C85.468 56.2427 86.1371 53.2715 90.4865 53.2715H93.402V54.1637H90.4865C87.2245 54.1637 86.5182 56.2427 86.5182 59.7716C86.5182 63.2991 87.1528 65.3795 90.3232 65.3795H93.6025V66.2717H90.3046V66.2704Z" fill="#363634" stroke="#363634" stroke-width="1.1999" stroke-miterlimit="10"/>
<path d="M101.724 54.4969C101.977 53.699 102.357 53.1228 103.136 53.1228C103.88 53.1228 104.295 53.7176 104.549 54.4969L108.318 66.2704H107.267L106.053 62.4827H100.218L99.0046 66.2704H97.9531L101.724 54.4969ZM100.492 61.5918H105.781L103.662 54.7956C103.553 54.4252 103.408 54.0535 103.136 54.0535C102.865 54.0535 102.719 54.4252 102.61 54.7956L100.492 61.5918Z" fill="#363634" stroke="#363634" stroke-width="1.1999" stroke-miterlimit="10"/>
<path d="M121.763 64.9706C121.763 65.8442 121.382 66.4191 120.604 66.4191C120.025 66.4191 119.644 66.2146 119.336 65.4725L114.879 54.4969C114.825 54.3482 114.699 54.1809 114.498 54.1809C114.371 54.1809 114.19 54.2367 114.19 54.5527V66.2704H113.212V54.4411C113.212 53.16 114.19 53.1228 114.408 53.1228C115.114 53.1228 115.458 53.4932 115.657 53.9951L120.15 65.0264C120.223 65.2123 120.349 65.361 120.548 65.361C120.783 65.361 120.783 65.1565 120.783 65.0264V53.2715H121.762V64.9706H121.763Z" fill="#363634" stroke="#363634" stroke-width="1.1999" stroke-miterlimit="10"/>
<path d="M131.134 65.0636C131.207 65.3238 131.314 65.4167 131.442 65.4167C131.569 65.4167 131.677 65.3238 131.75 65.0636L135.191 53.2715H136.224L132.545 65.5654C132.436 65.9372 132.164 66.4191 131.44 66.4191C130.715 66.4191 130.443 65.9358 130.336 65.5654L126.657 53.2715H127.69L131.134 65.0636Z" fill="#363634" stroke="#363634" stroke-width="1.1999" stroke-miterlimit="10"/>
<path d="M143.076 54.4969C143.329 53.699 143.709 53.1228 144.488 53.1228C145.232 53.1228 145.647 53.7176 145.901 54.4969L149.67 66.2704H148.619L147.405 62.4827H141.57L140.357 66.2704H139.305L143.076 54.4969ZM141.844 61.5918H147.133L145.014 54.7956C144.905 54.4252 144.76 54.0535 144.488 54.0535C144.217 54.0535 144.071 54.4252 143.963 54.7956L141.844 61.5918Z" fill="#363634" stroke="#363634" stroke-width="1.1999" stroke-miterlimit="10"/>
<path d="M154.22 65.3795H159.201C159.962 65.3795 160.688 64.9706 160.688 63.1518C160.688 62.2981 160.361 61.852 159.058 61.0528L156.177 59.2698C154.927 58.5077 154.021 57.8399 154.021 56.2056C154.021 54.3482 154.892 53.2715 156.883 53.2715H161.141V54.1637H156.883C155.561 54.1637 155.072 54.7199 155.072 56.2069C155.072 57.042 155.29 57.5067 156.394 58.2302L159.149 60.0132C160.507 60.8855 161.74 61.4431 161.74 63.1518C161.74 64.7489 161.161 66.2717 159.202 66.2717H154.221V65.3795H154.22Z" fill="#363634" stroke="#363634" stroke-width="1.1999" stroke-miterlimit="10"/>
<path d="M92.4289 18.5551C92.5364 19.0689 92.7873 19.1061 92.8949 19.1061C93.0024 19.1061 93.2533 19.0689 93.3609 18.5551L96.7318 1.1073H105.049L99.2051 22.9642C98.4882 25.6832 96.838 27.1157 92.8949 27.1157C88.9505 27.1157 87.3015 25.646 86.5846 22.9642L80.7404 1.1073H89.0593L92.4289 18.5551Z" fill="#EB8E51"/>
<path d="M109.927 26.821V1.1073H118.031V26.821H109.927Z" fill="#EB8E51"/>
<path d="M130.041 3.93511C130.937 1.10724 132.91 0.8125 135.778 0.8125C138.647 0.8125 140.618 1.10724 141.514 3.93511L148.649 26.8209H140.115L138.86 21.5316H132.693L131.439 26.8209H122.905L130.041 3.93511ZM133.698 15.8732H137.858L136.102 9.15007C136.066 8.92968 135.958 8.5991 135.779 8.5991C135.6 8.5991 135.492 8.92968 135.456 9.15007L133.698 15.8732Z" fill="#EB8E51"/>
<path d="M152.447 5.1473C152.447 2.57567 153.881 1.1073 156.392 1.1073H168.044C173.781 1.1073 174.498 4.3401 174.498 9.8498C174.498 13.8911 173.996 18.9972 169.693 18.9972H169.478V19.1446L175 26.8223H166.324L162.845 20.8719C162.057 19.5495 161.554 18.4848 161.554 17.0151V16.0977C161.554 13.8938 161.948 13.1954 164.099 13.1954H164.242C166.393 13.1954 166.751 12.4971 166.751 10.2932C166.751 8.08935 166.393 7.50121 164.242 7.50121H161.769C160.692 7.50121 160.19 8.015 160.19 9.11694V26.8223H152.446V5.1473H152.447Z" fill="#EB8E51"/>
<defs>
<clipPath id="clip0">
<rect width="175" height="67.2329" fill="white"/>
</clipPath>
</defs>
</svg>
