<svg width="24" height="24" viewBox="0 0 24 24" fill="none" xmlns="http://www.w3.org/2000/svg">
<path fill-rule="evenodd" clip-rule="evenodd" d="M3.60855 5.47516C3.79483 5.31101 4.03939 5.21143 4.3072 5.21143H19.6928C19.9606 5.21143 20.2052 5.31101 20.3915 5.47516C20.6065 5.60702 20.75 5.84427 20.75 6.11503V16.0382C20.75 17.557 19.5188 18.7882 18 18.7882H6C4.48122 18.7882 3.25 17.557 3.25 16.0382V6.11503C3.25 5.84427 3.39348 5.60702 3.60855 5.47516ZM4.75 7.83856V16.0382C4.75 16.7286 5.30964 17.2882 6 17.2882H18C18.6904 17.2882 19.25 16.7286 19.25 16.0382V7.83856L12.4713 13.3141C12.1963 13.5362 11.8037 13.5362 11.5287 13.3141L4.75 7.83856ZM5.9319 6.86503L12 11.7666L18.0681 6.86503H5.9319Z" fill="#FA7846"/>
</svg>
