<svg width="140" height="26" viewBox="0 0 140 26" fill="none" xmlns="http://www.w3.org/2000/svg">
<path d="M60.8269 17.2046V11.9975C60.8269 10.0326 59.5962 8.70999 57.6155 8.69263C56.4667 8.61696 55.3682 9.1835 54.7485 10.1715C54.1836 9.21266 53.1489 8.64542 52.0519 8.69263C51.0977 8.64577 50.1902 9.1158 49.6655 9.92847V8.88704H47.8894V17.2046H49.6826V12.598C49.6826 11.1539 50.4667 10.3902 51.6803 10.3902C52.8939 10.3902 53.4564 11.1712 53.4564 12.5807V17.2046H55.2394V12.598C55.2394 11.1539 56.0576 10.3902 57.2371 10.3902C58.4166 10.3902 59.0303 11.1712 59.0303 12.5807V17.2046H60.8269ZM87.3597 8.89398H84.4586V6.37371H82.6654V8.89398H81.0086V10.5464H82.6654V14.3337C82.6654 16.2639 83.3984 17.4129 85.4984 17.4129C86.2828 17.4153 87.0519 17.1928 87.7177 16.7707L87.2063 15.2224C86.7297 15.5116 86.1891 15.6727 85.6347 15.6911C84.7484 15.6911 84.4552 15.1356 84.4552 14.3025V10.5464H87.3563L87.3597 8.89398ZM102.506 8.68569C101.624 8.65966 100.799 9.12726 100.355 9.90417V8.89398H98.5961V17.2046H100.372V12.5459C100.372 11.1574 100.952 10.4075 102.114 10.4075C102.495 10.402 102.872 10.4728 103.226 10.6158L103.771 8.91134C103.365 8.76345 102.938 8.68708 102.506 8.68569ZM79.6075 9.55355C78.6018 8.94536 77.4458 8.64403 76.2768 8.68569C74.2109 8.68569 72.8677 9.69588 72.8677 11.3448C72.8677 12.7022 73.8564 13.5353 75.6836 13.7957L76.5189 13.9172C77.4904 14.056 77.9541 14.3164 77.9541 14.785C77.9541 15.4272 77.3064 15.7952 76.0927 15.7952C75.1136 15.8268 74.1526 15.521 73.3655 14.9274L72.5575 16.3333C73.5918 17.0696 74.831 17.4483 76.0927 17.4129C78.4484 17.4129 79.8154 16.2812 79.8154 14.7017C79.8154 13.2402 78.7382 12.4765 76.9655 12.2162L76.1302 12.0947C75.3632 11.9905 74.7461 11.8343 74.7461 11.2789C74.7461 10.6714 75.3257 10.3069 76.3007 10.3069C77.1939 10.3204 78.0693 10.5651 78.8439 11.0185L79.6075 9.55355ZM127.171 8.68569C126.289 8.65966 125.463 9.12726 125.02 9.90417V8.89398H123.261V17.2046H125.037V12.5459C125.037 11.1574 125.616 10.4075 126.779 10.4075C127.159 10.402 127.537 10.4728 127.89 10.6158L128.436 8.91134C128.03 8.76345 127.602 8.68708 127.171 8.68569ZM104.299 13.0493C104.299 15.5696 106.024 17.4129 108.653 17.4129C109.719 17.4667 110.766 17.1126 111.588 16.4201L110.736 14.9586C110.122 15.4349 109.374 15.6966 108.602 15.705C107.184 15.705 106.144 14.6427 106.144 13.0458C106.144 11.449 107.187 10.4041 108.602 10.3867C109.374 10.395 110.122 10.6568 110.736 11.1331L111.588 9.67158C110.766 8.97903 109.719 8.62494 108.653 8.67875C106.024 8.67875 104.299 10.5221 104.299 13.0424V13.0493ZM120.929 13.0493V8.88356H119.153V9.89376C118.538 9.0863 117.578 8.63223 116.576 8.67528C114.288 8.67528 112.485 10.5013 112.485 13.0389C112.485 15.5765 114.278 17.4025 116.576 17.4025C117.578 17.4456 118.538 16.9915 119.153 16.184V17.1907H120.929V13.0493ZM114.322 13.0493C114.322 11.5878 115.26 10.3902 116.797 10.3902C118.266 10.3902 119.255 11.5392 119.255 13.0493C119.255 14.5594 118.266 15.7084 116.797 15.7084C115.26 15.7084 114.322 14.5073 114.322 13.0493ZM92.8927 8.68569C90.5063 8.68569 88.8291 10.4596 88.8291 13.0493C88.8291 15.6911 90.5711 17.4129 93.012 17.4129C94.2307 17.4563 95.4226 17.0411 96.3597 16.2465L95.4904 14.9065C94.8123 15.4588 93.9723 15.7643 93.104 15.7744C91.9586 15.7744 90.9188 15.2363 90.6631 13.7401H96.7245C96.7415 13.5145 96.7586 13.2888 96.7586 13.0458C96.7586 10.4561 95.1699 8.68222 92.8824 8.68222L92.8927 8.68569ZM92.8586 10.3034C94.004 10.3034 94.737 11.0324 94.9245 12.3203H90.6938C90.8813 11.1192 91.5972 10.3034 92.862 10.3034H92.8586ZM137.398 13.0493V5.55444H135.622V9.9007C135.008 9.09324 134.047 8.63917 133.045 8.68222C130.757 8.68222 128.954 10.5082 128.954 13.0458C128.954 15.5835 130.747 17.4094 133.045 17.4094C134.047 17.4525 135.008 16.9984 135.622 16.191V17.1977H137.398V13.0493ZM139.474 16.4374C139.545 16.4371 139.614 16.4513 139.679 16.4791C139.741 16.5062 139.798 16.5451 139.846 16.5937C139.894 16.6412 139.932 16.6978 139.958 16.7603C140.014 16.8912 140.014 17.039 139.958 17.1699C139.932 17.2324 139.894 17.2886 139.846 17.3365C139.798 17.3848 139.741 17.4237 139.679 17.4511C139.614 17.4792 139.545 17.4935 139.474 17.4928C139.262 17.4955 139.068 17.3681 138.983 17.1699C138.929 17.039 138.929 16.8912 138.983 16.7603C139.037 16.6329 139.137 16.5319 139.263 16.4791C139.332 16.4499 139.406 16.4357 139.481 16.4374H139.474ZM139.474 17.3747C139.528 17.3754 139.582 17.365 139.631 17.3435C139.678 17.3227 139.721 17.2935 139.757 17.2567C139.915 17.0956 139.915 16.8346 139.757 16.6735C139.721 16.6367 139.678 16.6072 139.631 16.5867C139.581 16.5655 139.528 16.5548 139.474 16.5555C139.419 16.5548 139.365 16.5652 139.314 16.5867C139.108 16.6763 139.012 16.9189 139.1 17.129C139.12 17.1765 139.149 17.2199 139.185 17.2567C139.222 17.2938 139.266 17.3234 139.314 17.3435C139.367 17.3661 139.424 17.3765 139.481 17.3747H139.474ZM139.505 16.7152C139.556 16.7117 139.607 16.7263 139.648 16.7568C139.682 16.7846 139.701 16.8269 139.699 16.8714C139.701 16.9092 139.686 16.946 139.658 16.972C139.627 17.0005 139.588 17.0175 139.546 17.0206L139.703 17.2046H139.58L139.433 17.0206H139.386V17.2046H139.283V16.7186L139.505 16.7152ZM139.386 16.8054V16.9373H139.505C139.526 16.9436 139.549 16.9436 139.57 16.9373C139.585 16.9266 139.595 16.9082 139.594 16.8887C139.595 16.8693 139.585 16.8509 139.57 16.8401C139.549 16.8339 139.526 16.8339 139.505 16.8401L139.386 16.8054ZM130.798 13.0493C130.798 11.5878 131.736 10.3902 133.273 10.3902C134.743 10.3902 135.731 11.5392 135.731 13.0493C135.731 14.5594 134.743 15.7084 133.273 15.7084C131.736 15.7084 130.798 14.5073 130.798 13.0493ZM70.8325 13.0493V8.88356H69.0564V9.89376C68.4421 9.09324 67.4862 8.64369 66.4893 8.68569C64.2019 8.68569 62.3984 10.5117 62.3984 13.0493C62.3984 15.5869 64.1916 17.4129 66.4893 17.4129C67.4916 17.456 68.4523 17.0019 69.0666 16.1944V17.2012H70.8427L70.8325 13.0493ZM64.2257 13.0493C64.2257 11.5878 65.1632 10.3902 66.7007 10.3902C68.17 10.3902 69.1587 11.5392 69.1587 13.0493C69.1587 14.5594 68.17 15.7084 66.7007 15.7084C65.1632 15.7084 64.2257 14.5108 64.2257 13.0493Z" fill="white"/>
<path d="M25.2259 3.16968H14.4873V22.8216H25.2259V3.16968Z" fill="#FF5F00"/>
<path d="M15.1691 13.0011C15.166 9.16686 16.8947 5.54406 19.8565 3.17687C14.5275 -1.0878 6.81204 -0.145999 2.62364 5.28057C-1.56475 10.7071 -0.639528 18.5637 4.68955 22.8288C9.1401 26.3905 15.4056 26.3905 19.8562 22.8288C16.8937 20.4605 15.165 16.8363 15.1691 13.0011Z" fill="#EB001B"/>
<path d="M39.7143 13.0008C39.7143 19.9028 34.2192 25.4981 27.4413 25.4977C24.6902 25.4977 22.0192 24.5563 19.8564 22.8251C25.1855 18.5604 26.1107 10.7038 21.9223 5.27687C21.3183 4.49441 20.6249 3.78797 19.8564 3.17317C25.1848 -1.09255 32.9003 -0.152131 37.0897 5.27375C38.7908 7.47673 39.715 10.1983 39.7143 13.0008Z" fill="#F79E1B"/>
<path d="M38.535 20.7387V20.336H38.6952V20.2562H38.2964V20.3395H38.4566V20.7422L38.535 20.7387ZM39.3225 20.7387V20.2527H39.2168L39.0736 20.5998L38.9305 20.2527H38.8043V20.7387H38.8759V20.3742L39.0089 20.6901H39.1009L39.2339 20.3742V20.7422L39.3225 20.7387Z" fill="#F79E1B"/>
</svg>
