<svg width="24" height="24" viewBox="0 0 24 24" fill="none" xmlns="http://www.w3.org/2000/svg">
<path fill-rule="evenodd" clip-rule="evenodd" d="M9.19864 4.28231C9.1747 4.29443 9.14939 4.30584 9.12271 4.31624L6.84504 5.83469C6.70621 5.93795 6.52947 6.18283 6.42861 6.66695C6.32817 7.14909 6.32052 7.797 6.45787 8.5753L6.45911 8.58233L6.45907 8.58234C6.74076 10.2724 7.49944 12.3671 8.73902 14.2741C10.0018 16.2169 11.4379 17.8335 12.8374 18.8599C12.8499 18.8691 12.8621 18.8786 12.874 18.8886C13.3562 19.2904 13.9352 19.5489 14.5604 19.7305C14.8372 19.7795 15.1264 19.7327 15.3759 19.6235L17.5672 17.8133L17.6071 17.7734L14.4868 14.9456L14.3189 15.1136C14.2938 15.1387 14.2669 15.162 14.2385 15.1833C13.4922 15.743 12.4283 15.5471 11.8935 14.834C11.8852 14.8229 11.8772 14.8116 11.8695 14.8001C11.7326 14.5947 11.5865 14.3939 11.4268 14.1745C11.3657 14.0906 11.3026 14.0039 11.2373 13.9132C11.0135 13.6023 10.7759 13.2606 10.5603 12.886C10.1473 12.2642 9.7305 11.5345 9.41325 10.7943L9.40625 10.7774C9.05916 9.90963 9.43157 9.06839 10.0511 8.60375L10.0511 8.60374L10.4496 8.30489C10.4561 8.29996 10.4628 8.29515 10.4695 8.29044L9.19864 4.28231ZM10.4857 8.3413C10.4857 8.34205 10.4858 8.34313 10.4858 8.34452C10.4858 8.34737 10.4855 8.34891 10.4855 8.34893C10.4855 8.34895 10.4858 8.34754 10.4867 8.34452L10.4869 8.34509C10.4869 8.3449 10.4868 8.3447 10.4867 8.34452M10.6242 3.81547C10.4046 2.99612 9.6011 2.63689 8.88853 2.78326C8.84986 2.78848 8.81076 2.79641 8.77149 2.80741C8.69133 2.82985 8.62141 2.86201 8.56178 2.89778C8.53534 2.91364 8.51179 2.9297 8.49119 2.94495C8.45673 2.96098 8.4234 2.97967 8.39151 3.00093L6.0006 4.59487C5.99389 4.59934 5.98726 4.60392 5.9807 4.60861C5.42327 5.00678 5.10651 5.65847 4.96014 6.36102C4.81173 7.07341 4.81916 7.91855 4.98007 8.83243C5.29656 10.728 6.13161 13.0151 7.48135 15.0916C8.80362 17.1259 10.3494 18.8906 11.9321 20.0561C12.6327 20.6342 13.4294 20.9675 14.1803 21.182C14.1998 21.1876 14.2194 21.1924 14.2392 21.1963C14.9244 21.3333 15.5917 21.1948 16.1163 20.9325C16.1671 20.9071 16.2148 20.876 16.2586 20.8399L18.55 18.9471C18.5683 18.932 18.5858 18.916 18.6026 18.8992L18.7022 18.7996L18.2127 18.31L18.7022 18.7996C18.9722 18.5296 19.1461 18.1712 19.1461 17.7712C19.1461 17.3712 18.9722 17.0127 18.7022 16.7428C18.6936 16.7341 18.6847 16.7256 18.6756 16.7174L15.4981 13.8378C15.0922 13.4466 14.3152 13.2313 13.6714 13.6603C13.6303 13.6877 13.592 13.7191 13.557 13.7541L13.3147 13.9964C13.2928 14.0053 13.2614 14.0107 13.2206 14.0043C13.1664 13.9958 13.1251 13.9702 13.1007 13.9428C12.9497 13.7178 12.7831 13.4888 12.6232 13.2692C12.5658 13.1903 12.5092 13.1126 12.4546 13.0368C12.2347 12.7313 12.0289 12.433 11.8496 12.1191C11.8411 12.1042 11.832 12.0895 11.8225 12.0752C11.4451 11.5092 11.0728 10.8564 10.7964 10.2138C10.7669 10.136 10.7699 10.0718 10.7892 10.0137C10.8112 9.94773 10.8621 9.87051 10.9511 9.80374L11.2759 9.56018C11.621 9.39456 11.819 9.09099 11.9099 8.81829C12.0104 8.51697 12.0111 8.17875 11.912 7.87693L10.6242 3.81547Z" fill="#FA7846"/>
</svg>
