<svg width="24" height="24" viewBox="0 0 24 24" fill="none" xmlns="http://www.w3.org/2000/svg">
<path fill-rule="evenodd" clip-rule="evenodd" d="M9.19876 4.28243C9.17482 4.29455 9.14951 4.30597 9.12283 4.31636L6.84517 5.83481C6.70633 5.93808 6.52959 6.18295 6.42873 6.66707C6.32829 7.14921 6.32064 7.79712 6.45799 8.57542L6.45923 8.58245L6.4592 8.58246C6.74088 10.2726 7.49956 12.3672 8.73914 14.2743C10.0019 16.217 11.438 17.8337 12.8376 18.8601C12.8501 18.8692 12.8623 18.8788 12.8742 18.8887C13.3564 19.2905 13.9353 19.549 14.5605 19.7306C14.8373 19.7796 15.1265 19.7328 15.376 19.6236L17.5673 17.8134L17.6072 17.7735L14.4869 14.9457L14.319 15.1137C14.2939 15.1388 14.267 15.1621 14.2386 15.1834C13.4923 15.7431 12.4285 15.5472 11.8936 14.8342C11.8853 14.8231 11.8773 14.8117 11.8696 14.8002C11.7327 14.5949 11.5866 14.3941 11.4269 14.1747C11.3658 14.0907 11.3028 14.004 11.2375 13.9133C11.0136 13.6024 10.7761 13.2607 10.5604 12.8861C10.1474 12.2643 9.73062 11.5346 9.41337 10.7944L9.40637 10.7775C9.05928 9.90975 9.43169 9.06852 10.0512 8.60387L10.0512 8.60386L10.4497 8.30501C10.4563 8.30008 10.4629 8.29527 10.4696 8.29057L9.19876 4.28243ZM10.4858 8.34143C10.4858 8.34217 10.4859 8.34325 10.4859 8.34464C10.4859 8.34749 10.4856 8.34903 10.4856 8.34905C10.4856 8.34907 10.4859 8.34767 10.4869 8.34465L10.487 8.34521C10.487 8.34502 10.4869 8.34483 10.4869 8.34464M10.6243 3.81559C10.4047 2.99624 9.60122 2.63702 8.88865 2.78338C8.84999 2.78861 8.81088 2.79654 8.77162 2.80753C8.69146 2.82997 8.62153 2.86213 8.5619 2.8979C8.53547 2.91376 8.51192 2.92982 8.49132 2.94507C8.45685 2.9611 8.42352 2.97979 8.39163 3.00105L6.00073 4.59499C5.99402 4.59947 5.98738 4.60405 5.98082 4.60873C5.42339 5.0069 5.10663 5.65859 4.96026 6.36114C4.81185 7.07353 4.81928 7.91867 4.98019 8.83255C5.29668 10.7281 6.13173 13.0152 7.48148 15.0917C8.80375 17.126 10.3495 18.8907 11.9322 20.0562C12.6328 20.6343 13.4295 20.9676 14.1804 21.1822C14.1999 21.1877 14.2195 21.1925 14.2394 21.1964C14.9245 21.3335 15.5918 21.1949 16.1165 20.9326C16.1672 20.9072 16.215 20.8762 16.2587 20.84L18.5501 18.9472C18.5684 18.9321 18.586 18.9161 18.6028 18.8993L18.7024 18.7997L18.2128 18.3102L18.7024 18.7997C18.9723 18.5298 19.1462 18.1713 19.1462 17.7713C19.1462 17.3713 18.9723 17.0128 18.7024 16.7429C18.6937 16.7342 18.6848 16.7257 18.6757 16.7175L15.4982 13.8379C15.0923 13.4467 14.3153 13.2314 13.6716 13.6604C13.6304 13.6878 13.5921 13.7193 13.5572 13.7542L13.3149 13.9965C13.2929 14.0054 13.2615 14.0109 13.2208 14.0044C13.1666 13.9959 13.1252 13.9704 13.1008 13.9429C12.9498 13.7179 12.7832 13.489 12.6234 13.2694C12.5659 13.1904 12.5094 13.1127 12.4547 13.0369C12.2348 12.7314 12.0291 12.4331 11.8497 12.1193C11.8412 12.1043 11.8321 12.0897 11.8226 12.0753C11.4453 11.5093 11.0729 10.8565 10.7965 10.2139C10.767 10.1361 10.77 10.0719 10.7893 10.0139C10.8113 9.94785 10.8622 9.87063 10.9512 9.80386L11.276 9.5603C11.6211 9.39468 11.8192 9.09111 11.9101 8.81841C12.0105 8.51709 12.0112 8.17888 11.9121 7.87705L10.6243 3.81559Z" fill="#E3AC9C"/>
</svg>
