<svg width="25" height="24" viewBox="0 0 25 24" fill="none" xmlns="http://www.w3.org/2000/svg">
<path fill-rule="evenodd" clip-rule="evenodd" d="M12.6246 3.92773C11.2081 3.92773 9.79555 4.47178 8.71503 5.57028C7.63586 6.66763 7.29116 8.40327 7.35593 10.0445C7.37222 10.4572 7.05182 10.8054 6.63923 10.8234C4.58097 10.9132 2.88281 12.3942 2.88281 14.3185C2.88281 16.4028 4.54255 18.0722 6.56268 18.0722H17.9871C20.3886 18.0722 22.3664 16.0792 22.3664 13.6074C22.3664 11.4755 20.6262 9.81692 18.455 9.45846C18.1393 9.40633 17.8914 9.15962 17.8378 8.84415C17.6228 7.57894 17.3118 6.35326 16.5417 5.57033C15.461 4.47156 14.0422 3.92773 12.6246 3.92773ZM7.64559 4.51847C9.01875 3.12243 10.8214 2.42773 12.6246 2.42773C14.4268 2.42773 16.2363 3.12076 17.6111 4.51847C18.5989 5.52275 18.9984 6.9194 19.2252 8.08733C21.7148 8.708 23.8664 10.762 23.8664 13.6074C23.8664 16.8841 21.2404 19.5722 17.9871 19.5722H6.56268C3.69084 19.5722 1.38281 17.2077 1.38281 14.3185C1.38281 11.6668 3.47702 9.80633 5.85181 9.40191C5.8931 7.74091 6.32919 5.85706 7.64555 4.51852L7.64559 4.51847ZM13.3606 10.3971V15.5037C13.3606 15.9179 13.0248 16.2537 12.6106 16.2537C12.1964 16.2537 11.8606 15.9179 11.8606 15.5037V10.4229L10.2557 11.9063C9.95146 12.1874 9.47696 12.1688 9.19581 11.8646C8.91467 11.5604 8.93335 11.0859 9.23754 10.8047L11.8008 8.43563C11.801 8.43543 11.8013 8.43523 11.8015 8.43503C11.91 8.33438 12.0427 8.24229 12.2089 8.18325C12.3527 8.13214 12.4854 8.11894 12.5895 8.11691C12.5965 8.11672 12.6036 8.11662 12.6106 8.11662C12.6117 8.11662 12.6128 8.11663 12.6139 8.11663C12.6185 8.11661 12.623 8.11661 12.6275 8.11663L12.6389 8.11667L12.6389 8.11676C12.9402 8.12248 13.2406 8.24271 13.4479 8.43512C13.4483 8.43552 13.4487 8.43591 13.4491 8.43631L16.0117 10.8047C16.3159 11.0859 16.3346 11.5604 16.0534 11.8646C15.7723 12.1688 15.2978 12.1874 14.9936 11.9063L13.3606 10.3971Z" fill="#FC8C5F"/>
</svg>
