<svg width="24" height="25" viewBox="0 0 24 25" fill="none" xmlns="http://www.w3.org/2000/svg">
<path fill-rule="evenodd" clip-rule="evenodd" d="M11.8615 3.06396C10.5818 3.06396 9.55664 4.08911 9.55664 5.36885V7.59024C9.55664 8.86998 10.5818 9.89513 11.8615 9.89513C13.1413 9.89513 14.1664 8.86998 14.1664 7.59024V5.36885C14.1664 4.08911 13.1413 3.06396 11.8615 3.06396ZM8.05664 5.36885C8.05664 3.26068 9.75336 1.56396 11.8615 1.56396C13.9697 1.56396 15.6664 3.26068 15.6664 5.36885V7.59024C15.6664 9.69841 13.9697 11.3951 11.8615 11.3951C9.75336 11.3951 8.05664 9.69841 8.05664 7.59024V5.36885ZM4.87958 20.1686H19.12C18.7425 16.3929 16.0461 13.6156 13.0004 13.6156H10.9752C7.95341 13.6156 5.25638 16.3916 4.87958 20.1686ZM3.33603 20.9068C3.41025 16.1808 6.70291 12.1156 10.9752 12.1156H13.0004C17.2955 12.1156 20.5885 16.1791 20.6637 20.9067C20.6669 21.1076 20.5894 21.3015 20.4484 21.4447C20.3074 21.588 20.1148 21.6686 19.9138 21.6686H4.08594C3.88498 21.6686 3.69244 21.588 3.55146 21.4448C3.41048 21.3016 3.33287 21.1078 3.33603 20.9068Z" fill="#FA7846"/>
</svg>
