<svg width="76" height="26" viewBox="0 0 76 26" fill="none" xmlns="http://www.w3.org/2000/svg">
<path d="M39.1524 8.54774C39.1093 11.9874 42.1754 13.907 44.4852 15.0482C46.8584 16.2192 47.6554 16.97 47.6464 18.0171C47.6283 19.6198 45.7533 20.327 43.9983 20.3546C40.9368 20.4028 39.1569 19.5165 37.7416 18.846L36.6388 24.079C38.0586 24.7425 40.6877 25.3212 43.4141 25.3464C49.8135 25.3464 54.0005 22.1433 54.0231 17.1767C54.048 10.8737 45.425 10.5247 45.4838 7.70735C45.5042 6.85317 46.3081 5.9416 48.0699 5.70969C48.9417 5.59258 51.3488 5.50303 54.0775 6.7774L55.1486 1.71437C53.6812 1.17248 51.7949 0.653542 49.4467 0.653542C43.4232 0.653542 39.1863 3.90031 39.1524 8.54774ZM65.4406 1.08981C64.2721 1.08981 63.2871 1.78096 62.8478 2.84178L53.7061 24.9745H60.101L61.3736 21.4085H69.1883L69.9265 24.9745H75.5628L70.6444 1.08981H65.4406ZM66.3351 7.54202L68.1806 16.5108H63.1263L66.3351 7.54202ZM31.3988 1.08981L26.3581 24.9745H32.4518L37.4902 1.08981H31.3988ZM22.384 1.08981L16.0412 17.3466L13.4755 3.52374C13.1743 1.98072 11.9855 1.08981 10.6653 1.08981H0.296306L0.151367 1.78325C2.27997 2.25167 4.69842 3.00711 6.16354 3.81536C7.06027 4.30903 7.31615 4.74071 7.61053 5.91404L12.4701 24.9745H18.9102L28.7834 1.08981H22.384Z" fill="white"/>
</svg>
