<svg width="114" height="116" viewBox="0 0 114 116" fill="none" xmlns="http://www.w3.org/2000/svg">
<path d="M93.2264 0.590235C88.9737 2.36484 86.8139 7.34297 88.3948 11.7449C89.0405 13.4965 90.8885 15.5938 92.5807 16.4465C93.7163 17.0227 94.0725 17.0918 96.1877 17.0918C98.2807 17.0918 98.6592 17.0227 99.7725 16.4465C101.264 15.709 103.135 13.727 103.825 12.2059C104.537 10.6156 104.537 6.74375 103.825 5.15352C103.135 3.63242 101.264 1.65039 99.7725 0.912891C98.1026 0.0601578 94.8741 -0.101171 93.2264 0.590235ZM98.3698 4.04727C100.151 4.99219 101.086 6.60547 101.086 8.67969C101.086 11.6758 99.0823 13.75 96.1877 13.75C93.3377 13.75 91.2448 11.6066 91.2448 8.67969C91.2448 6.67461 92.269 4.96914 94.0725 4.00117C95.0299 3.4711 97.3233 3.49414 98.3698 4.04727Z" fill="#FC8C5F"/>
<path d="M103.349 13.4319C99.0967 15.2065 96.937 20.1846 98.5178 24.5866C99.1635 26.3382 101.012 28.4354 102.704 29.2882C103.839 29.8643 104.196 29.9335 106.311 29.9335C108.404 29.9335 108.782 29.8643 109.896 29.2882C111.387 28.5507 113.258 26.5686 113.948 25.0475C114.66 23.4573 114.66 19.5854 113.948 17.9952C113.258 16.4741 111.387 14.4921 109.896 13.7546C108.226 12.9018 104.997 12.7405 103.349 13.4319ZM108.493 16.8889C110.274 17.8339 111.209 19.4471 111.209 21.5214C111.209 24.5175 109.205 26.5917 106.311 26.5917C103.461 26.5917 101.368 24.4483 101.368 21.5214C101.368 19.5163 102.392 17.8108 104.196 16.8428C105.153 16.3128 107.446 16.3358 108.493 16.8889Z" fill="#FC8C5F"/>
<path d="M39.2322 25.4117C36.783 26.0801 35.9814 26.9328 36.4936 28.2465C36.9389 29.3527 37.7404 29.5371 39.4326 28.9609C43.24 27.6242 47.2924 29.4219 49.0068 33.2016C50.5654 36.6586 49.8975 41.0836 47.0475 46.0617C45.667 48.4355 44.8877 49.3805 43.8412 49.9336C43.3736 50.1871 42.9506 50.3945 42.9061 50.3945C42.8615 50.3945 42.3494 49.5879 41.7928 48.5969C41.2584 47.6059 40.635 46.6609 40.4346 46.4996C40.2342 46.3383 40.0783 45.9465 40.0783 45.6699C40.0783 44.8402 40.9467 42.1207 41.7705 40.3922C42.6166 38.5945 42.7279 37.5113 42.1268 36.9582C41.6592 36.5203 40.7018 36.4512 40.0561 36.8199C39.4772 37.1195 38.0967 40.0695 37.4065 42.4664L36.8498 44.3562L35.4693 44.4715C34.7123 44.5637 33.6881 44.8172 33.1982 45.0707L32.3299 45.5316L32.1963 44.7941C32.0182 43.7801 32.4189 39.4012 32.8643 37.5344C33.0647 36.6816 33.51 35.3219 33.8662 34.5152C34.69 32.6484 34.69 31.9109 33.933 31.2887C32.7529 30.3207 31.8178 30.9199 30.7713 33.2707C29.3686 36.4512 28.5447 41.5676 28.8342 45.5547L28.99 47.5137L27.9881 48.0668L26.9639 48.5969L25.0936 47.3063C19.6607 43.5727 13.649 41.8902 9.28496 42.8812C6.83575 43.4574 5.0545 44.4715 3.34004 46.223C-2.2709 52.077 -0.578708 61.2727 6.79121 65.0523C8.75059 66.0434 11.7119 66.9883 12.9143 66.9883C13.2482 66.9883 13.5822 67.0574 13.649 67.1266C13.7381 67.2188 11.5783 68.5785 8.86192 70.1227C6.14551 71.6898 3.58496 73.3031 3.18418 73.718C2.27129 74.6168 1.69239 76.3684 1.84825 77.7281C1.93731 78.673 4.45332 83.8125 5.98965 86.2324C7.0584 87.8918 8.99551 88.8367 10.8213 88.5371C11.4225 88.4449 13.7604 87.2465 17.501 85.1031L23.2678 81.7844L23.3791 96.5805C23.4904 110.086 23.535 111.423 23.8912 112.229C24.4924 113.566 25.717 114.811 27.0084 115.41L28.1662 115.963H57.3342C86.4576 115.963 86.5022 115.963 87.5041 115.479C88.9514 114.788 89.842 113.912 90.4877 112.575L91.0666 111.377V91.6023C91.0666 72.3352 91.0443 71.782 90.6213 70.9062C90.1982 70.0766 89.4858 69.3852 88.5061 68.9242C88.2611 68.809 79.0209 68.6707 67.1979 68.6016L46.3127 68.4863L57.7127 61.918C63.9693 58.2996 69.3799 55.05 69.7361 54.6812C70.7826 53.6211 71.1166 52.7223 71.1389 51.0859C71.1389 49.6109 71.0943 49.4957 69.0459 45.7391C67.9104 43.6188 66.708 41.6137 66.374 41.268C65.4389 40.277 64.2588 39.793 62.9006 39.793C61.4756 39.793 61.5201 39.7699 55.5975 43.1809C53.2818 44.5176 51.367 45.5547 51.3225 45.5086C51.2557 45.4625 51.4783 44.7941 51.7678 44.0336C54.1502 37.9492 53.4377 32.1875 49.8529 28.477C47.092 25.6191 42.8615 24.3977 39.2322 25.4117ZM64.192 43.9875C65.0158 45.1398 67.9104 50.7172 67.9104 51.1551C67.9104 51.3625 67.6877 51.7773 67.4205 52.1C66.9529 52.607 49.8752 62.6094 49.4744 62.6094C49.3186 62.5863 44.4647 53.598 44.576 53.5059C44.6205 53.4598 48.6061 51.1551 53.4377 48.3664C59.6721 44.748 62.433 43.273 62.9451 43.25C63.5018 43.25 63.769 43.4113 64.192 43.9875ZM16.9443 46.9375C18.9705 47.6289 22.11 49.2422 23.1342 50.118L23.6463 50.5328L22.533 51.2703C21.9096 51.6852 21.1303 52.4688 20.7963 52.9988L20.1951 54.0129L18.0576 53.4598C16.8775 53.1832 15.1408 52.8605 14.1834 52.7914C12.5803 52.6531 12.4244 52.6762 11.9123 53.1602C11.2443 53.8285 11.1775 54.8195 11.801 55.4648C12.2686 55.9488 12.2463 55.9488 15.3635 56.4789C18.4807 57.009 19.8166 57.4699 19.8166 58C19.8166 58.2535 20.2619 59.3367 20.8408 60.4199C21.9764 62.6785 21.9541 62.7938 20.351 63.4391C18.926 63.9922 13.2928 63.7848 10.9104 63.0703C7.57051 62.0793 5.23262 60.2125 4.05254 57.5852C3.54043 56.4789 3.45137 55.9488 3.45137 54.3125C3.45137 52.6762 3.54043 52.1461 4.05254 51.0398C6.07871 46.5227 11.133 44.9324 16.9443 46.9375ZM37.5178 48.4125C38.1857 48.8734 39.967 51.9848 39.7221 52.2383C39.4549 52.5148 25.1381 60.7656 24.9377 60.7656C24.7373 60.7656 23.4014 58.1844 23.1565 57.3086C22.8893 56.3867 23.2455 55.2113 23.9803 54.4969C24.4924 54.0129 29.4354 51.0859 34.2893 48.3895C35.4025 47.7672 36.5604 47.7672 37.5178 48.4125ZM43.6631 59.0832C44.7986 61.2266 45.9119 63.2777 46.1346 63.6695L46.5354 64.384L39.0541 68.7168C34.935 71.0906 31.4838 72.9344 31.3947 72.8191C31.1498 72.5887 26.474 63.923 26.5631 63.877C26.6299 63.8078 41.5256 55.2344 41.5479 55.2344C41.5701 55.2344 42.5053 56.9629 43.6631 59.0832ZM26.14 70.3301C27.4314 72.727 28.4111 74.7551 28.3221 74.8473C28.0326 75.1469 10.9994 84.8957 10.5318 85.057C9.48536 85.4027 9.01778 84.8727 7.03614 81.1852C5.98965 79.2262 5.12129 77.4285 5.12129 77.175C5.12129 76.9215 5.29942 76.5066 5.49981 76.2531C6.01192 75.6309 23.4459 65.5824 23.624 65.7898C23.7131 65.882 24.8486 67.9102 26.14 70.3301ZM47.6486 79.9867C47.6486 87.6383 47.6709 87.9148 48.1162 88.5141C48.7397 89.3438 49.8975 89.3438 50.5209 88.5141C50.9662 87.9148 50.9885 87.6383 50.9885 79.9637V72.0586L57.2897 72.1047L63.5686 72.1738V92.3398V112.506L57.2897 112.575L50.9885 112.621V103.909C50.9885 95.4051 50.9662 95.1516 50.5209 94.5523C49.9197 93.7687 48.94 93.7457 48.2053 94.5293L47.6486 95.0824V103.863V112.644L38.1189 112.575C29.324 112.506 28.5447 112.483 27.9658 112.091C26.6967 111.215 26.719 111.446 26.719 94.9441V79.7793L33.3541 75.9305L39.967 72.1047L43.819 72.0816L47.6486 72.0586V79.9867ZM87.3705 72.1969C87.6822 72.3352 87.7268 74.248 87.7268 91.5332V110.731L87.1479 111.446C86.8361 111.838 86.2127 112.252 85.7674 112.391C85.2775 112.529 81.4033 112.621 75.9928 112.621H67.0197V92.3398V72.0586H77.017C82.5166 72.0586 87.1701 72.1277 87.3705 72.1969Z" fill="#FC8C5F"/>
<path d="M81.6261 28.523L81.0472 28.9839L81.1808 34.446C81.4925 45.9695 79.9785 53.8746 76.6164 58.4609C75.4363 60.0742 75.3027 60.6273 75.8593 61.4109C76.7722 62.6785 77.9746 62.3789 79.2437 60.6043C83.0734 55.2804 84.8324 46.6609 84.5429 34.7918C84.4539 30.8507 84.3425 29.5371 84.0753 29.007C83.541 27.9238 82.6058 27.7394 81.6261 28.523Z" fill="#FC8C5F"/>
<path d="M100.796 43.0886C100.396 43.5035 99.5051 44.8402 98.8148 46.0617L97.5457 48.2742L94.6512 49.0117C91.4004 49.8414 90.6211 50.3253 90.6211 51.5468C90.6211 52.5148 90.866 52.9296 92.8922 55.4418L94.6512 57.6082L94.473 60.0511C94.1613 64.1996 94.2059 64.6375 94.9184 65.2828C95.809 66.0894 96.5437 65.9742 99.5941 64.6835L102.311 63.5312L104.96 64.6835C107.721 65.905 108.679 66.0664 109.502 65.4902C110.237 64.9371 110.348 64.0843 110.126 60.6964L109.925 57.6082L111.862 55.2113C113.889 52.6761 114.178 52.0769 113.866 51.1089C113.532 50.164 112.508 49.6339 109.636 48.9195L106.986 48.2511L105.539 45.739C104.737 44.3332 103.847 42.9964 103.557 42.766C102.711 42.0746 101.62 42.1898 100.796 43.0886ZM103.402 48.7582C103.958 49.7492 104.626 50.7402 104.849 50.9476C105.094 51.1781 106.207 51.5929 107.32 51.8925C108.434 52.1921 109.413 52.4687 109.458 52.5378C109.502 52.5839 108.946 53.3906 108.211 54.3355C107.476 55.2804 106.808 56.2945 106.719 56.571C106.652 56.8707 106.652 58.1382 106.697 59.4058C106.764 60.6503 106.786 61.6875 106.764 61.6875C106.741 61.6875 105.984 61.3648 105.071 60.973C102.867 60.005 101.709 60.005 99.5496 60.95C98.659 61.3648 97.8797 61.6875 97.8352 61.6875C97.7684 61.6875 97.7906 60.6273 97.8797 59.3136C98.0578 56.548 97.9687 56.3175 96.0762 54.0128L94.8738 52.5148L96.7887 52.0308C99.5273 51.3164 99.7945 51.1089 101.086 48.8964C101.709 47.8132 102.266 46.9375 102.311 46.9375C102.355 46.9375 102.845 47.7441 103.402 48.7582Z" fill="#FC8C5F"/>
</svg>
