<svg width="53" height="101" viewBox="0 0 53 101" fill="none" xmlns="http://www.w3.org/2000/svg">
<path d="M52.6275 99.4834C52.8945 99.4129 53.0539 99.1394 52.9835 98.8724L51.8356 94.5212C51.7652 94.2542 51.4916 94.0949 51.2246 94.1653C50.9576 94.2357 50.7983 94.5093 50.8687 94.7763L51.889 98.644L48.0213 99.6643C47.7543 99.7347 47.595 100.008 47.6654 100.275C47.7358 100.542 48.0094 100.702 48.2764 100.631L52.6275 99.4834ZM0.574823 2.99429C12.115 1.24768 20.7402 0.981297 27.109 1.8914C33.4748 2.80108 37.5389 4.87858 40.0268 7.77862C42.515 10.6791 43.4926 14.479 43.5234 18.9741C43.5543 23.4735 42.6361 28.6136 41.3873 34.1397C38.8999 45.1463 35.0933 57.677 35.1563 69.2995C35.1878 75.1274 36.1895 80.761 38.8288 85.8945C41.4703 91.0324 45.7367 95.6388 52.2483 99.432L52.7517 98.5679C46.3883 94.861 42.2641 90.3892 39.7181 85.4373C37.1699 80.4809 36.1872 75.013 36.1562 69.2941C36.0942 57.8228 39.8501 45.4785 42.3627 34.3601C43.6139 28.8237 44.5551 23.5888 44.5234 18.9672C44.4917 14.3412 43.485 10.2739 40.7857 7.12751C38.0861 3.98068 33.7596 1.83162 27.2504 0.901454C20.7442 -0.0282942 12.01 0.252186 0.425177 2.00555L0.574823 2.99429Z" fill="#D95656"/>
</svg>
