<svg width="65" height="91" viewBox="0 0 65 91" fill="none" xmlns="http://www.w3.org/2000/svg">
<path d="M50.0046 90.567C50.042 90.8406 50.2941 91.0321 50.5677 90.9947L55.0263 90.3856C55.2999 90.3482 55.4914 90.0961 55.454 89.8225C55.4166 89.5489 55.1645 89.3574 54.8909 89.3948L50.9277 89.9362L50.3863 85.973C50.3489 85.6994 50.0968 85.5079 49.8232 85.5453C49.5496 85.5827 49.3581 85.8348 49.3955 86.1084L50.0046 90.567ZM0.5 1C18.6094 1 40.8369 10.4394 53.6105 26.3131C59.9885 34.2391 63.9998 43.756 63.9844 54.4987C63.9689 65.242 59.926 77.2637 50.1018 90.1968L50.8982 90.8017C60.824 77.7348 64.9686 65.5066 64.9844 54.5001C65.0002 43.4929 60.8865 33.76 54.3895 25.6862C41.4131 9.56024 18.8906 0 0.5 0V1Z" fill="#1E2533"/>
</svg>
