<svg width="90" height="71" viewBox="0 0 90 71" fill="none" xmlns="http://www.w3.org/2000/svg">
<path d="M80.0046 70.5677C80.042 70.8413 80.2941 71.0328 80.5677 70.9954L85.0263 70.3863C85.2999 70.3489 85.4914 70.0968 85.454 69.8232C85.4166 69.5496 85.1645 69.3581 84.8909 69.3955L80.9277 69.9369L80.3863 65.9737C80.3489 65.7001 80.0968 65.5086 79.8232 65.546C79.5496 65.5834 79.3581 65.8355 79.3955 66.1091L80.0046 70.5677ZM0 0C0 11.667 7.69097 18.6426 18.3525 23.3557C28.9979 28.0617 42.7704 30.5895 55.206 33.301C61.439 34.6601 67.3395 36.065 72.3823 37.8113C77.4323 39.5601 81.5702 41.6344 84.3155 44.3038C87.037 46.95 88.3998 50.1876 87.9068 54.3484C87.4094 58.5464 85.0172 63.7267 80.1018 70.1976L80.8982 70.8024C85.8578 64.2733 88.3718 58.9224 88.8998 54.4661C89.4323 49.9725 87.9396 46.4328 85.0126 43.5868C82.1095 40.764 77.806 38.6313 72.7095 36.8664C67.6058 35.099 61.6547 33.6836 55.419 32.324C42.9171 29.598 29.2833 27.0945 18.7568 22.4411C8.24653 17.7949 1 11.083 1 0H0Z" fill="#5E77AA"/>
</svg>
