<svg width="93" height="90" viewBox="0 0 93 90" fill="none" xmlns="http://www.w3.org/2000/svg">
<path d="M71.5198 89.9992C71.2438 90.01 71.0114 89.7951 71.0006 89.5191L70.8242 85.0226C70.8134 84.7467 71.0283 84.5142 71.3043 84.5034C71.5802 84.4926 71.8126 84.7075 71.8235 84.9834L71.9802 88.9803L75.9771 88.8236C76.2531 88.8128 76.4855 89.0277 76.4963 89.3036C76.5072 89.5796 76.2922 89.812 76.0163 89.8228L71.5198 89.9992ZM0.853073 6.30741C37.4642 -4.97676 67.577 2.43325 82.3781 19.5025C89.783 28.0422 93.3254 38.9746 91.9187 51.1098C90.5129 63.2371 84.1697 76.5324 71.8673 89.839L71.133 89.1601C83.3305 75.967 89.5499 62.8606 90.9254 50.9946C92.3 39.1366 88.8426 28.4841 81.6226 20.1576C67.1738 3.49464 37.5368 -3.95274 1.14761 7.26304L0.853073 6.30741Z" fill="#FA7846"/>
</svg>
