<svg width="80" height="80" viewBox="0 0 80 80" fill="none" xmlns="http://www.w3.org/2000/svg">
<path fill-rule="evenodd" clip-rule="evenodd" d="M16.7273 40C16.7273 37.4595 17.1582 35.024 17.9273 32.7395L4.46547 22.6738C1.84183 27.8898 0.363647 33.7671 0.363647 40C0.363647 46.2275 1.84001 52.1013 4.46001 57.3138L17.9146 47.2284C17.1527 44.9547 16.7273 42.528 16.7273 40Z" fill="#FBBC05"/>
<path fill-rule="evenodd" clip-rule="evenodd" d="M40.3636 16.8889C46 16.8889 51.0909 18.8444 55.0909 22.0444L66.7273 10.6667C59.6364 4.62221 50.5455 0.888876 40.3636 0.888876C24.5564 0.888876 10.9709 9.74043 4.46545 22.6738L17.9273 32.7395C21.0291 23.52 29.8709 16.8889 40.3636 16.8889Z" fill="#EA4335"/>
<path fill-rule="evenodd" clip-rule="evenodd" d="M40.3636 63.1111C29.8709 63.1111 21.0291 56.48 17.9273 47.2604L4.46545 57.3244C10.9709 70.2595 24.5564 79.1111 40.3636 79.1111C50.12 79.1111 59.4345 75.7191 66.4255 69.3635L53.6473 59.6907C50.0418 61.9147 45.5018 63.1111 40.3636 63.1111Z" fill="#34A853"/>
<path fill-rule="evenodd" clip-rule="evenodd" d="M78.5455 40C78.5455 37.6889 78.1818 35.2 77.6364 32.8889H40.3636V48H61.8182C60.7455 53.152 57.8255 57.1129 53.6473 59.6907L66.4255 69.3635C73.7691 62.6898 78.5455 52.7484 78.5455 40Z" fill="#4285F4"/>
</svg>
