<svg width="100" height="100" viewBox="0 0 100 100" fill="none" xmlns="http://www.w3.org/2000/svg">
<g clip-path="url(#clip0_108_247)">
<path d="M62.4023 0.117203C50.1562 1.46486 39.7656 8.76954 34.5312 19.7266C32.5781 23.8281 31.25 29.5117 31.25 33.7891C31.25 34.7852 31.3281 35.0586 31.7383 35.4492C32.3438 36.0742 33.2617 36.0938 33.8672 35.4883C34.2578 35.0977 34.3164 34.7852 34.4336 32.8125C35 22.2852 40.6055 13.0078 49.6484 7.55861C53.2227 5.41017 57.3828 3.98439 61.6797 3.41798C74.8047 1.6797 87.793 8.67189 93.6523 20.6055C94.7656 22.8906 95.9375 26.4453 96.4062 29.0039C96.9141 31.7188 96.9141 37.0312 96.4062 39.7461C94.1406 52.0508 85.2344 61.6211 73.2422 64.6484C71.4844 65.0976 70.8984 65.332 70.5664 65.7226C70.0391 66.3281 70.0195 66.6211 70.4102 67.3828C70.8203 68.1836 71.4844 68.3008 73.4375 67.8906C81.3672 66.2695 89.043 61.1719 94.0625 54.1992C95.4883 52.207 97.7734 47.7539 98.5352 45.4102C99.8047 41.6406 100 40.2148 100 34.5117C100 28.7109 99.8047 27.2266 98.6133 23.5938C97.793 21.0547 95.5664 16.6602 94.0039 14.4727C88.8281 7.24611 80.8984 2.18752 72.168 0.566422C70.0781 0.175797 64.3164 -0.0781097 62.4023 0.117203Z" fill="#FA7846"/>
<path d="M61.5039 6.62109C61.0546 6.97266 61.0351 7.12891 60.9374 9.96094L60.8398 12.9297L59.7851 13.3008C56.3281 14.5117 53.3984 17.5781 52.207 21.1719C51.5039 23.3594 51.4648 26.3867 52.1289 28.5156C53.2226 32.0703 55.7617 34.9609 59.0624 36.4258C60.7617 37.1875 61.7578 37.3438 65.1757 37.4805C67.9492 37.5781 68.3984 37.6562 68.8671 38.0078C69.9023 38.7695 70.2148 39.3945 70.2148 40.625C70.2148 41.8555 69.9023 42.4805 68.8671 43.2422C68.3593 43.6328 68.0078 43.6523 61.6601 43.75C54.1015 43.8672 54.1406 43.8477 52.7539 45.4297C51.0546 47.3633 51.1523 49.8047 53.0273 51.6602C54.2968 52.9492 54.9609 53.125 58.2812 53.125H60.9374V55.7617C60.9374 58.3203 60.957 58.4375 61.4257 58.8867C61.8945 59.375 61.9335 59.375 65.6249 59.375C69.3163 59.375 69.3554 59.375 69.8242 58.8867C70.2929 58.4375 70.3124 58.3398 70.3124 55.5664C70.3124 53.0273 70.3515 52.7148 70.664 52.6172C76.9921 50.625 80.7226 44.375 79.3945 37.9883C78.5156 33.7109 75.0195 29.9414 70.7031 28.6133C69.9609 28.3789 68.5742 28.2422 66.2695 28.1445C63.3007 28.0469 62.8515 27.9883 62.3828 27.6172C61.3476 26.8555 61.0351 26.2305 61.0351 25C61.0351 23.7695 61.3476 23.1445 62.3828 22.3828C62.8906 21.9922 63.2421 21.9727 69.5898 21.875C77.1484 21.7578 77.1093 21.7773 78.4374 20.2539C80.1952 18.2617 80.1171 15.8398 78.2226 13.9648C76.9531 12.6758 76.289 12.5 72.9687 12.5H70.3124V9.86328C70.3124 7.30469 70.2929 7.1875 69.8242 6.73828C69.3554 6.25 69.3163 6.25 65.664 6.25C62.3046 6.25 61.914 6.28906 61.5039 6.62109ZM67.1874 12.0117C67.1874 14.5703 67.207 14.6875 67.6757 15.1367C68.1445 15.625 68.1835 15.625 71.8749 15.625C75.5663 15.625 75.6054 15.625 76.0742 16.1133C76.6601 16.6797 76.6992 17.5586 76.1913 18.1836L75.8203 18.6523L69.1015 18.75C62.4609 18.8477 62.4023 18.8477 61.4257 19.3359C60.1757 19.9414 59.0039 21.1328 58.3984 22.3633C57.7539 23.7109 57.7343 26.25 58.3593 27.5391C59.0429 28.9258 59.8242 29.7656 61.1718 30.4688C62.3828 31.1133 62.4414 31.1328 65.7226 31.2695C69.4726 31.4258 70.4296 31.6406 72.1874 32.7734C73.6718 33.75 74.6874 34.9023 75.5078 36.6211C78.1249 42.0703 74.9804 48.418 68.9843 49.8047C67.3437 50.1758 67.1874 50.5078 67.1874 53.6328V56.25H65.6249H64.0624V53.6133C64.0624 51.0547 64.0429 50.9375 63.5742 50.4883C63.1054 50 63.0663 50 59.3749 50C55.6835 50 55.6445 50 55.1757 49.5117C54.5898 48.9453 54.5507 48.0664 55.0585 47.4414L55.4296 46.9727L62.1484 46.875L68.8476 46.7773L70.0781 46.1133C71.4453 45.3711 72.0507 44.7461 72.8124 43.2812C73.2421 42.4414 73.3203 42.0312 73.3203 40.625C73.3398 39.1016 73.2812 38.8672 72.6757 37.7344C71.9335 36.3867 71.1132 35.5859 69.7265 34.9219C68.9843 34.5703 68.3398 34.4922 65.5273 34.3555C61.7773 34.1992 60.8203 33.9844 59.0624 32.8516C57.5781 31.875 56.5624 30.7227 55.7421 29.0039C53.1249 23.5547 56.2695 17.207 62.2656 15.8203C63.9062 15.4492 64.0624 15.1172 64.0624 11.9922V9.375H65.6249H67.1874V12.0117Z" fill="#FA7846"/>
<path d="M22.3633 17.6758C21.9531 18.0664 21.875 18.3398 21.875 19.2383V20.3125H20.8008C19.4922 20.3125 18.75 20.8789 18.75 21.875C18.75 22.8711 19.4922 23.4375 20.8008 23.4375H21.875V24.5117C21.875 25.8203 22.4414 26.5625 23.4375 26.5625C24.4336 26.5625 25 25.8203 25 24.5117V23.4375H26.0742C27.3828 23.4375 28.125 22.8711 28.125 21.875C28.125 20.8789 27.3828 20.3125 26.0742 20.3125H25V19.2383C25 17.9297 24.4336 17.1875 23.4375 17.1875C23.0664 17.1875 22.6562 17.3633 22.3633 17.6758Z" fill="#FC8C5F"/>
<path d="M30.332 37.793C29.8242 38.1445 29.7266 38.4375 26.0742 51.1719C23.8086 59.043 23.3008 60.6055 22.7148 61.5234C21.9336 62.7148 20.293 64.3555 19.3555 64.9023L18.75 65.2539V64.3555C18.75 63.6719 18.6328 63.3398 18.2617 62.9883L17.793 62.5H9.375H0.957031L0.488281 62.9883L0 63.457V81.25V99.043L0.488281 99.5117L0.957031 100H9.375H17.793L18.2617 99.5117C18.6133 99.1602 18.75 98.8281 18.75 98.2422C18.75 97.8125 18.8086 97.4609 18.8672 97.4609C18.9453 97.4609 20.957 98.0273 23.3594 98.7305L27.7344 100.02L41.9531 99.9609L56.1523 99.9023L57.2656 99.3555C58.6719 98.6719 60.0195 97.1875 60.4492 95.8789C61.0547 94.0625 60.7422 91.5039 59.7852 90.2344L59.4141 89.7656L60.293 88.9844C61.6211 87.8125 62.3047 86.25 62.3047 84.3555C62.3047 83.0469 62.2266 82.6953 61.6602 81.6016L61.0352 80.332L61.8945 79.5898C63.1836 78.457 63.8672 76.8555 63.8672 74.9805C63.8672 73.6914 63.7891 73.3203 63.2227 72.2266L62.5977 70.957L63.5156 70.1367C64.0234 69.6875 64.668 68.8281 64.9805 68.2031C65.4492 67.2656 65.5273 66.8555 65.5273 65.5273C65.5078 64.1211 65.4492 63.8281 64.8438 62.7344C64.1406 61.4063 63.3203 60.6055 61.9141 59.9219C61.0352 59.4727 60.9961 59.4727 50.1367 59.4141L39.2188 59.3555L39.3359 58.6328C40.0195 54.3555 40.6445 48.3594 40.5469 47.0508C40.1562 42.3047 37.4805 38.8867 33.3008 37.793C31.8359 37.4219 30.8594 37.4219 30.332 37.793ZM33.6523 41.2109C35 41.8555 35.8789 42.6953 36.5234 44.0234C37.6367 46.2891 37.6562 47.0898 36.7383 54.3359C36.3086 57.832 35.9375 60.8789 35.9375 61.0938C35.9375 61.3086 36.1133 61.6797 36.3086 61.9336L36.6797 62.4023L48.5938 62.5C60.2539 62.5977 60.5273 62.5977 61.0547 63.0078C62.0898 63.7695 62.4023 64.3945 62.4023 65.625C62.4023 66.8555 62.0898 67.4805 61.0547 68.2422C60.5664 68.6328 60.1758 68.6523 55.625 68.75C50.7812 68.8477 50.7422 68.8477 50.3711 69.3164C49.9023 69.9023 49.9023 70.7227 50.3711 71.3086C50.7422 71.7773 50.8203 71.7773 54.8438 71.875C59.3359 71.9727 59.4531 72.0117 60.4297 73.3203C60.9961 74.082 60.9961 75.918 60.4297 76.6797C59.4336 78.0078 59.4336 78.0273 54.0625 78.125C49.2188 78.2227 49.1797 78.2227 48.8086 78.6914C48.3398 79.2773 48.3398 80.0977 48.8086 80.6836C49.1797 81.1523 49.2578 81.1523 53.2812 81.25C57.7734 81.3477 57.8906 81.3867 58.8672 82.6953C59.4336 83.457 59.4336 85.293 58.8672 86.0547C57.8711 87.3828 57.8711 87.4023 52.5 87.5C47.6562 87.5977 47.6172 87.5977 47.2461 88.0664C46.7773 88.6523 46.7773 89.4727 47.2461 90.0586C47.6172 90.5273 47.6953 90.5273 51.7188 90.625C55.4883 90.7227 55.8789 90.7617 56.3672 91.1328C57.4023 91.8945 57.7148 92.5195 57.7148 93.75C57.7148 94.9805 57.4023 95.6055 56.3672 96.3672C55.8398 96.7773 55.625 96.7773 42.0703 96.8359L28.3203 96.875L24.8633 95.8984C22.9492 95.3516 20.8008 94.7266 20.0781 94.5117L18.75 94.1211V81.3867L18.7695 68.6523L20.3125 67.9297C22.2266 67.0117 23.8281 65.5664 25.2734 63.418L26.3672 61.8164L29.2969 51.5625C30.8984 45.918 32.2656 41.1914 32.3242 41.0547C32.4414 40.7227 32.6758 40.7617 33.6523 41.2109ZM15.625 81.25V96.875H9.375H3.125V81.25V65.625H9.375H15.625V81.25Z" fill="white"/>
<path d="M80.1758 75.4883C79.7656 75.8789 79.6875 76.1523 79.6875 77.0508V78.125H78.6133C77.3047 78.125 76.5625 78.6914 76.5625 79.6875C76.5625 80.6836 77.3047 81.25 78.6133 81.25H79.6875V82.3242C79.6875 83.6328 80.2539 84.375 81.25 84.375C82.2461 84.375 82.8125 83.6328 82.8125 82.3242V81.25H83.8867C85.1953 81.25 85.9375 80.6836 85.9375 79.6875C85.9375 78.6914 85.1953 78.125 83.8867 78.125H82.8125V77.0508C82.8125 75.7422 82.2461 75 81.25 75C80.8789 75 80.4688 75.1758 80.1758 75.4883Z" fill="#FC8C5F"/>
</g>
<defs>
<clipPath id="clip0_108_247">
<rect width="100" height="100" fill="white"/>
</clipPath>
</defs>
</svg>
