<svg width="97" height="167" viewBox="0 0 97 167" fill="none" xmlns="http://www.w3.org/2000/svg">
<path d="M0.593133 162.709C0.432629 162.934 0.484675 163.246 0.709381 163.407L4.37118 166.022C4.59589 166.183 4.90816 166.131 5.06867 165.906C5.22917 165.681 5.17713 165.369 4.95242 165.209L1.69749 162.884L4.02244 159.629C4.18294 159.404 4.1309 159.092 3.90619 158.931C3.68148 158.771 3.36921 158.823 3.20871 159.048L0.593133 162.709ZM53 1C52.7714 1.44468 52.7716 1.44477 52.772 1.445C52.7725 1.44527 52.7733 1.44564 52.7743 1.44616C52.7763 1.44721 52.7794 1.44881 52.7836 1.45096C52.7919 1.45526 52.8045 1.46176 52.8212 1.47044C52.8547 1.48778 52.9048 1.51382 52.9708 1.54832C53.1028 1.61733 53.2986 1.72022 53.5524 1.85525C54.0601 2.12531 54.8001 2.5239 55.7277 3.03711C57.583 4.06361 60.1879 5.54825 63.1846 7.37975C69.1817 11.0451 76.7315 16.09 82.981 21.6243C86.1057 24.3914 88.8941 27.2712 90.9996 30.1524C93.1079 33.0375 94.5096 35.8943 94.9036 38.6184C95.2946 41.322 94.6981 43.9199 92.7575 46.3374C90.8034 48.7718 87.4634 51.0505 82.3201 53.0335L82.6799 53.9665C87.9116 51.9495 91.4309 49.5876 93.5374 46.9634C95.6574 44.3223 96.3226 41.4437 95.8933 38.4753C95.467 35.5275 93.9663 32.5172 91.807 29.5624C89.645 26.6038 86.8006 23.6711 83.644 20.8757C77.331 15.285 69.7246 10.2049 63.7061 6.5265C60.6949 4.68613 58.0772 3.19421 56.2118 2.16211C55.279 1.64602 54.5342 1.24481 54.0221 0.972391C53.766 0.836178 53.5681 0.732157 53.434 0.662067C53.367 0.627021 53.3158 0.600458 53.2814 0.582595C53.2641 0.573663 53.2511 0.566906 53.2422 0.562351C53.2378 0.560074 53.2345 0.558347 53.2322 0.557174C53.2311 0.556587 53.2302 0.556124 53.2296 0.55583C53.229 0.555505 53.2286 0.55532 53 1ZM82.3201 53.0335C61.4462 61.0812 51.9346 73.0696 48.7016 86.382C45.4803 99.6465 48.5178 114.133 52.5221 127.147L53.4779 126.853C49.4822 113.867 46.5197 99.6035 49.6734 86.618C52.8154 73.6804 62.0538 61.9188 82.6799 53.9665L82.3201 53.0335ZM52.5221 127.147C54.4535 133.424 52.3038 138.741 47.8928 143.244C43.4637 147.765 36.788 151.422 29.81 154.287C22.8415 157.15 15.6177 159.205 10.1313 160.546C7.38929 161.215 5.08383 161.706 3.46467 162.029C2.65514 162.191 2.0173 162.31 1.58238 162.389C1.36493 162.429 1.19822 162.458 1.08615 162.478C1.03011 162.488 0.987743 162.495 0.959522 162.5C0.945412 162.502 0.934839 162.504 0.927865 162.505C0.924378 162.506 0.921791 162.506 0.920111 162.506C0.919271 162.507 0.918693 162.507 0.918272 162.507C0.917922 162.507 0.917801 162.507 1 163C1.0822 163.493 1.08254 163.493 1.0831 163.493C1.08359 163.493 1.08438 163.493 1.08537 163.493C1.08733 163.492 1.09021 163.492 1.09399 163.491C1.10154 163.49 1.11269 163.488 1.12739 163.486C1.15679 163.481 1.20035 163.473 1.2576 163.463C1.3721 163.443 1.54132 163.413 1.76137 163.373C2.20145 163.293 2.84486 163.173 3.66033 163.01C5.29117 162.684 7.61071 162.191 10.3687 161.517C15.8823 160.17 23.1585 158.1 30.19 155.213C37.212 152.328 44.0363 148.61 48.6072 143.944C53.1962 139.259 55.5465 133.576 53.4779 126.853L52.5221 127.147Z" fill="#FA7846"/>
</svg>
