<svg width="71" height="71" viewBox="0 0 71 71" fill="none" xmlns="http://www.w3.org/2000/svg">
<circle cx="35.5" cy="35.5" r="35.5" fill="#FC8C5F"/>
<path d="M22.7883 16.1388C21.3916 16.5663 20.2236 17.5281 19.6002 18.757C18.961 20.0089 19.0005 18.7418 19.0005 35.4586C19.0005 52.1754 18.961 50.9083 19.6002 52.1602C20.1053 53.1601 20.9023 53.9311 21.9361 54.4196C23.2145 55.0303 22.4096 54.9997 34.9647 54.9997C44.8842 54.9997 46.2257 54.9845 46.7623 54.8776C48.7273 54.4883 50.3529 52.9769 50.858 51.0839C50.9921 50.5572 51 49.9618 51 38.6188V26.7033L50.7712 26.4132C50.4318 25.9857 40.7254 16.1617 40.5518 16.0701C40.4492 16.0167 37.561 15.9938 31.8082 16.0014C23.8379 16.0014 23.1908 16.0091 22.7883 16.1388ZM39.1235 21.047C39.1235 24.6194 39.155 24.8713 39.6127 25.7109C40.102 26.5964 40.9148 27.2758 41.9328 27.6574L42.4773 27.8635L45.7759 27.8864L49.0666 27.9093V38.9623C49.0666 46.1604 49.035 50.1603 48.9877 50.4274C48.751 51.6335 47.8198 52.6258 46.5966 52.9769C46.2494 53.0762 44.7816 53.0914 35.0121 53.0914C24.0904 53.0914 23.8221 53.0914 23.3249 52.9388C22.307 52.6334 21.4468 51.8014 21.1311 50.8167C20.9733 50.3358 20.9733 50.0687 20.9733 35.4586C20.9733 20.7799 20.9733 20.5814 21.1311 20.0929C21.4389 19.1234 22.2991 18.2914 23.3092 17.9784C23.7511 17.841 24.1535 17.8334 31.4531 17.8334L39.1235 17.8258V21.047ZM44.8447 23.0927L47.6541 25.9552L45.2709 25.9781C42.9113 25.9934 42.8877 25.9934 42.4852 25.8178C41.9407 25.5735 41.5698 25.2453 41.3331 24.7949C41.1358 24.4285 41.1358 24.4209 41.1121 21.8714L41.0884 19.3143L41.5619 19.7723C41.8223 20.0242 43.298 21.5203 44.8447 23.0927Z" fill="white"/>
<path d="M34.5717 29.0612C34.3744 29.168 33.1276 30.4122 31.3205 32.2824C29.0004 34.7021 28.3849 35.3815 28.3454 35.5876C28.2823 35.9234 28.448 36.3509 28.7242 36.5493C28.9688 36.7249 29.4739 36.7554 29.7501 36.618C29.8606 36.557 30.847 35.5723 31.9518 34.4197L33.9562 32.3282L33.9957 37.5798C34.0272 41.572 34.0588 42.862 34.1298 42.9918C34.3034 43.2818 34.6664 43.4727 35.0373 43.4727C35.4082 43.465 35.6055 43.3582 35.8265 43.0376C35.9606 42.8391 35.9685 42.5261 35.9685 37.5722C35.9685 34.6868 35.9922 32.3282 36.0316 32.3358C36.0632 32.3358 36.9944 33.29 38.0992 34.4426C39.4486 35.8547 40.1983 36.5875 40.3877 36.6562C40.9638 36.8928 41.6503 36.4348 41.6503 35.8165C41.6424 35.641 41.603 35.4273 41.5477 35.3357C41.3425 34.9845 35.6134 29.1222 35.3688 29.0077C35.0373 28.8551 34.9426 28.8627 34.5717 29.0612Z" fill="white"/>
<path d="M26.5284 46.7236C25.7788 47.0823 25.905 48.2044 26.7178 48.4334C26.923 48.4945 29.4877 48.5098 35.1774 48.4945C43.0451 48.4716 43.3528 48.464 43.5659 48.3266C44.0078 48.0365 44.1341 47.5174 43.8579 47.0823C43.5422 46.5709 44.0946 46.6015 35.0038 46.6015C27.8384 46.6015 26.7415 46.6167 26.5284 46.7236Z" fill="white"/>
</svg>
