<svg width="71" height="71" viewBox="0 0 71 71" fill="none" xmlns="http://www.w3.org/2000/svg">
<circle cx="35.5" cy="35.5" r="35.5" fill="#FC8C5F"/>
<path d="M20.3281 15.6797C20.0625 15.7813 20 16.1406 20 17.5313C20 18.9922 20.0469 19.2188 20.3672 19.3672C20.6406 19.4922 20.8125 19.4766 21.0234 19.3047C21.1719 19.1875 21.2188 19.0547 21.25 18.6563L21.2891 18.1641H31.3672H41.4453L41.4844 18.6563C41.5156 19.0547 41.5625 19.1875 41.7109 19.3047C42.0156 19.5547 42.4844 19.4453 42.6484 19.086C42.7891 18.7891 42.7656 16.2188 42.6172 15.9453C42.4297 15.5703 41.9844 15.5078 41.6797 15.8203C41.5156 15.9766 41.4844 16.086 41.4844 16.4453V16.875H31.3672H21.25V16.4453C21.25 16.086 21.2188 15.9766 21.0547 15.8203C20.875 15.6328 20.5781 15.5781 20.3281 15.6797Z" fill="white"/>
<path d="M20.2266 23.5859L20.0391 23.7344L20.0156 39.0391C20.0078 47.4531 20.0156 54.4141 20.0391 54.5078C20.0625 54.6016 20.1562 54.7578 20.25 54.8438C20.4219 55 20.4766 55 31.3672 55C42.2578 55 42.3125 55 42.4844 54.8438C42.5781 54.7578 42.6719 54.6016 42.6953 54.5078C42.7187 54.4141 42.7266 47.4531 42.7187 39.0391L42.6953 23.7344L42.5078 23.5859C42.3281 23.4375 42.0391 23.4375 31.3672 23.4375C20.6953 23.4375 20.4062 23.4375 20.2266 23.5859ZM41.4844 39.2188V53.75H31.3672H21.25V39.2188V24.6875H31.3672H41.4844V39.2188Z" fill="white"/>
<path d="M46.5234 23.6328C46.3359 23.8203 46.2812 24.0781 46.375 24.3359C46.4453 24.5234 46.8281 24.6875 47.1875 24.6875H47.5V39.2188V53.75H47.1094C46.7891 53.75 46.6719 53.7891 46.5234 53.9453C46.2656 54.1953 46.2656 54.5547 46.5234 54.8047C46.7109 55 46.7266 55 48.1094 55C49.4062 55 49.5234 54.9844 49.7188 54.8359C49.875 54.7109 49.9219 54.6094 49.9219 54.375C49.9219 53.9609 49.6484 53.75 49.1328 53.75H48.75V39.2188V24.6875H49.1328C49.6484 24.6875 49.9219 24.4766 49.9219 24.0703C49.9219 23.8672 49.8672 23.7266 49.7422 23.6094C49.5703 23.4453 49.4922 23.4375 48.1328 23.4375C46.7266 23.4375 46.7109 23.4375 46.5234 23.6328Z" fill="white"/>
</svg>
