<svg width="71" height="71" viewBox="0 0 71 71" fill="none" xmlns="http://www.w3.org/2000/svg">
<circle cx="35.5" cy="35.5" r="35.5" fill="#FC8C5F"/>
<g clip-path="url(#clip0_1314_658)">
<path d="M15 20.8984V26.7969L21.8203 26.7812L28.6328 26.7578L28.6562 20.875L28.6719 15H21.8359H15V20.8984ZM26.3281 20.8594V24.375H21.8359H17.3438V20.8594V17.3438H21.8359H26.3281V20.8594Z" fill="white"/>
<path d="M31.3281 26.8359V38.6719H43.1641H55V26.8359V15H43.1641H31.3281V26.8359ZM52.6562 26.8359V36.3281H51.0156H49.375H47.0312H43.1641H39.2969C39.2969 36.3047 39.2969 36.3517 39.2969 36.3281C39.2969 36.3516 36.9375 36.3281 36.9375 36.3281H35.3047H33.6719V26.8359V17.3438H43.1641H52.6562V26.8359Z" fill="white"/>
<path d="M15 42.2266V55H21.8359H28.6719V42.2266V29.4531H21.8359H15V42.2266ZM26.3281 36.875V41.9453L24.9219 43.125C24.1562 43.7656 23.4766 44.2969 23.4219 44.2969C23.3672 44.2969 22.5625 44.0469 21.6406 43.7344L19.9688 43.1797L18.75 43.5781C18.0781 43.8047 17.4922 43.9844 17.4375 43.9844C17.3672 43.9844 17.3438 42.625 17.3438 37.8906V31.7969H21.8359H26.3281V36.875ZM26.3125 48.8438L26.2891 52.6172L21.8203 52.6406L17.3438 52.6562V49.5859V46.5234L18.6562 46.0859L19.9609 45.6484L21.9609 46.3203L23.9688 46.9844L25.0859 46.0391C25.7031 45.5156 26.2344 45.0859 26.2734 45.0859C26.3047 45.0781 26.3203 46.7734 26.3125 48.8438Z" fill="white"/>
<path d="M20.9609 34.0703C20.1094 34.3984 19.5078 35.2969 19.5078 36.2422C19.5078 36.9453 19.7422 37.4688 20.2734 37.9531C21.2031 38.8047 22.4688 38.8047 23.3984 37.9531C23.9297 37.4688 24.1641 36.9453 24.1641 36.2422C24.1641 34.5938 22.5156 33.4766 20.9609 34.0703Z" fill="white"/>
<path d="M31.3281 48.1641V55H43.1641H55V48.1641V41.3281H43.1641H31.3281V48.1641ZM52.6562 48.1641V52.6562H43.1641H33.6719V48.1641V43.6719H43.1641H52.6562V48.1641Z" fill="white"/>
</g>
<defs>
<clipPath id="clip0_1314_658">
<rect width="40" height="40" fill="white" transform="translate(15 15)"/>
</clipPath>
</defs>
</svg>
