<svg width="71" height="71" viewBox="0 0 71 71" fill="none" xmlns="http://www.w3.org/2000/svg">
<circle cx="35.5" cy="35.5" r="35.5" fill="#FC8C5F"/>
<path d="M24.2891 16.3438C21.8907 16.5547 19.5938 18.2031 18.4688 20.5156C18.2813 20.9062 18.0235 21.5703 17.9063 22L17.6954 22.7734L17.6719 37.7891L17.6563 52.8125H16.8438C16.1641 52.8125 16.0235 52.8359 15.9141 52.9531C15.7344 53.1484 15.7501 53.3828 15.9454 53.5625C16.1016 53.7031 16.2579 53.7109 18.4141 53.7109C20.6016 53.7109 20.7188 53.7031 20.8282 53.5625C20.9688 53.3594 20.9688 53.0859 20.8126 52.9375C20.7188 52.8359 20.4922 52.8125 19.6407 52.8125H18.5938L18.6094 37.8281L18.6329 22.8516L18.8126 22.2266C19.1876 20.8906 19.7969 19.8906 20.8047 18.9297C22.1329 17.6797 23.8594 17.0938 25.6719 17.2734C28.2969 17.5391 30.5313 19.5391 31.2188 22.25C31.3204 22.6562 31.4063 23.1172 31.4063 23.2812C31.4063 23.5703 31.4063 23.5703 30.9766 23.6641C29.9063 23.9062 28.8047 24.7344 28.3047 25.6719C27.9297 26.3828 27.7891 26.9688 27.7813 27.875C27.7735 28.9375 27.7344 28.9062 29.1876 28.9062H30.2969L30.5391 29.3281C31.2266 30.5547 32.9844 30.4922 33.5547 29.2266C33.6876 28.9297 33.7188 28.9062 34.0001 28.9062H34.2969V29.2578C34.2969 29.5078 34.3438 29.6562 34.4532 29.7656C34.6094 29.9219 34.711 29.9219 41.3672 29.9219H48.1329L48.3204 29.7266L48.5157 29.5391V24.2188C48.5157 19.0078 48.5157 18.9062 48.3594 18.75C48.2032 18.5938 48.1016 18.5938 41.3829 18.5938C34.8672 18.5938 34.5469 18.6016 34.4297 18.7344C34.3126 18.8672 34.2969 19.1719 34.2969 21.5469C34.2969 23.0156 34.2813 24.2188 34.2657 24.2188C34.2501 24.2188 34.0469 24.125 33.8282 24.0078C33.6016 23.8906 33.1876 23.7422 32.8985 23.6719L32.3829 23.5469L32.3204 23C32.1329 21.3047 31.2266 19.4922 29.9766 18.3125C28.3907 16.8125 26.461 16.1484 24.2891 16.3438ZM47.5782 23.9531C47.5782 28.1562 47.5704 28.375 47.4454 28.2734C47.3672 28.2109 46.7735 27.6641 46.1172 27.0547C45.2344 26.2266 44.8829 25.9375 44.7344 25.9375C44.5938 25.9375 44.1641 26.25 43.2422 27.0312C42.5313 27.6328 41.9219 28.1328 41.8907 28.1484C41.8516 28.1562 41.1251 27.4219 40.2813 26.5234C39.4376 25.6172 38.6641 24.8594 38.5782 24.8203C38.3516 24.7422 38.1797 24.8672 37.0313 25.9844L36.0469 26.9453L35.8751 26.4219C35.7813 26.1328 35.6016 25.7266 35.4688 25.5234L35.2344 25.1484V22.3438V19.5312H41.4063H47.5782V23.9531ZM33.0235 24.6875C34.1954 25.0938 35.0079 26.1641 35.1329 27.4766L35.1797 27.9688H31.9219C28.8751 27.9688 28.6719 27.9609 28.6719 27.8281C28.6719 27.7578 28.711 27.4688 28.7501 27.1953C29.0782 25.2188 31.0938 24.0312 33.0235 24.6875ZM39.6094 27.1641C40.2344 27.8281 40.8594 28.5078 41.0001 28.6797L41.2657 28.9844L38.4219 28.9766C36.711 28.9766 35.6563 28.9453 35.7579 28.9062C35.9454 28.8281 36.0938 28.6016 36.0938 28.3828C36.0938 28.2578 38.336 25.9297 38.4376 25.9453C38.461 25.9453 38.9844 26.4922 39.6094 27.1641ZM46.0782 28.3047C46.4297 28.6484 46.7188 28.9375 46.7188 28.9531C46.7188 29.0156 42.586 28.9844 42.5547 28.9219C42.5313 28.8906 43.0079 28.4531 43.6094 27.9453L44.7032 27.0234L45.0704 27.3516C45.2657 27.5312 45.7188 27.9609 46.0782 28.3047ZM32.4766 29.1016C32.2266 29.3281 31.9688 29.3516 31.6407 29.1797C31.2501 28.9766 31.3672 28.9062 32.0547 28.9062L32.6954 28.9141L32.4766 29.1016Z" fill="white"/>
<path d="M41.2891 22.0234C40.4844 22.2187 40 22.828 40 23.6327C40 25.1405 41.7813 25.8359 42.7969 24.7343C43.4453 24.0312 43.4141 23.1093 42.7188 22.4452C42.3359 22.078 41.7656 21.914 41.2891 22.0234ZM42.1328 23.2109C42.375 23.4687 42.3984 23.6562 42.2266 23.9843C42.1016 24.2265 41.6797 24.414 41.4375 24.328C40.9453 24.1484 40.7813 23.5859 41.0938 23.1796C41.3672 22.828 41.7813 22.8437 42.1328 23.2109Z" fill="white"/>
<path d="M30.6641 25.4062C30.2344 25.6406 29.4531 26.5469 29.4531 26.8125C29.4531 27 29.7266 27.2656 29.9297 27.2656C30.0313 27.2656 30.3203 27.0234 30.7109 26.6172C31.3828 25.9141 31.4766 25.6641 31.1563 25.4375C30.9531 25.2891 30.875 25.2891 30.6641 25.4062Z" fill="white"/>
<path d="M33.6406 33.8281C33.2422 33.9531 32.8906 34.25 32.6953 34.6406C32.5078 35.0156 32.5 35.0859 32.5 36.5859V38.1406L32.3281 38.0938C31.7422 37.9219 31.2265 37.875 30.7734 37.9609C29.3906 38.2031 28.3594 39.2109 28.125 40.5547C27.8984 41.875 28.6172 43.2422 29.8594 43.8281C30.1328 43.9609 30.414 44.0625 30.4922 44.0625C30.6172 44.0625 30.625 44.3281 30.625 48.4922C30.625 52.75 30.6328 52.9375 30.7812 53.1797C31.0703 53.6641 31.2344 53.7109 32.539 53.7109C33.5312 53.7109 33.75 53.6875 33.9297 53.5703C34.3515 53.2969 34.414 53.1094 34.4375 51.9375L34.4687 50.8594H41.1797H47.8906V51.9141C47.8906 53.6094 47.9922 53.7109 49.7265 53.7109C50.9922 53.7109 51.289 53.6328 51.5 53.2578C51.5781 53.125 51.6094 52.0391 51.6406 48.6016L51.6797 44.1172L52.0859 43.9766C52.914 43.6953 53.5312 43.125 53.9375 42.2656C54.1484 41.8125 54.1797 41.6797 54.1797 41.0547C54.1719 40.125 53.9765 39.6172 53.3594 38.9531C52.8281 38.3906 52.2969 38.1016 51.5469 37.9609C51.0547 37.8672 50.664 37.9062 49.9453 38.0938L49.7734 38.1406L49.75 36.4609L49.7265 34.7812L49.4922 34.4453C49.3672 34.2656 49.1172 34.0391 48.9453 33.9531C48.6328 33.7891 48.5703 33.7891 41.25 33.7734C37.1875 33.7656 33.7656 33.7891 33.6406 33.8281ZM48.6797 34.9141C48.8125 35.0781 48.8281 35.2422 48.8281 36.9297V38.7656L48.5547 39.0938C47.9765 39.8047 47.9297 39.9922 47.9062 41.9453L47.8828 43.6875L47.6719 43.6406C46.039 43.2891 45.5312 43.1953 44.7656 43.0859C44.2734 43.0078 43.8515 42.9375 43.8359 42.9219C43.8203 42.9062 44.0078 42.3281 44.2578 41.6406C44.6875 40.4531 44.7031 40.3828 44.5781 40.2031C44.2812 39.75 43.8672 39.9062 43.6406 40.5547C43.5625 40.7891 43.3437 41.3984 43.1562 41.9141L42.8125 42.8516L41.2656 42.8359L39.7265 42.8203L39.3594 42.0547C38.3359 39.9453 38.2812 39.875 37.9062 40.0781C37.5547 40.2812 37.5937 40.5156 38.1562 41.7266C38.4375 42.3359 38.6719 42.8516 38.6719 42.8828C38.6719 42.9219 38.3281 42.9844 37.914 43.0391C37.2969 43.1094 35.7344 43.4062 34.6406 43.6484C34.4687 43.6875 34.4687 43.6797 34.4375 42.0156L34.414 40.3516L34.1484 39.7891C34.0078 39.4844 33.789 39.1328 33.664 39.0156L33.4375 38.7969V37.0234C33.4375 35.1641 33.4765 34.9297 33.7812 34.7812C33.8906 34.7266 36.3047 34.7031 41.2344 34.7109L48.5312 34.7266L48.6797 34.9141ZM32.1797 39.0625C32.6484 39.2656 33.2187 39.8594 33.375 40.2969C33.4531 40.5234 33.4765 41.8438 33.4765 46.6797V52.7734H32.539H31.6015L31.5625 48.1875C31.5156 42.9297 31.5937 43.3828 30.75 43.1641C29.8672 42.9297 29.2422 42.2969 29.0625 41.4375C28.8281 40.3359 29.5781 39.2031 30.7422 38.8984C31.1094 38.8047 31.7344 38.875 32.1797 39.0625ZM52 39.0703C53.289 39.6875 53.6719 41.3516 52.7734 42.3984C52.4219 42.8125 52.0937 43.0078 51.5234 43.1641C50.6719 43.3828 50.75 42.9297 50.7031 48.1875L50.664 52.7734L49.75 52.7969L48.8281 52.8203V46.6797C48.8281 40 48.8125 40.3047 49.2656 39.7109C49.8672 38.9219 51.1015 38.6328 52 39.0703ZM42.9375 43.8281C44.5625 43.9609 46.3125 44.2578 47.6015 44.6172L47.8906 44.6953L47.875 46.4297L47.8515 48.1641L41.1562 48.1875L34.4531 48.2031V46.4531V44.6953L34.8672 44.5781C35.9922 44.2578 38.3203 43.875 39.6094 43.8047C40.6406 43.7422 42.0078 43.7578 42.9375 43.8281ZM47.8906 49.5312V49.9219H41.1719H34.4531V49.5312V49.1406H41.1719H47.8906V49.5312Z" fill="white"/>
</svg>
