<svg width="26" height="25" viewBox="0 0 26 25" fill="none" xmlns="http://www.w3.org/2000/svg">
<g opacity="0.8" clip-path="url(#clip0_1314_251)">
<path d="M2.5603 2.79786C2.32105 2.87598 1.91089 3.29591 1.83765 3.54493C1.75464 3.8379 1.75464 18.0371 1.83765 18.3301C1.91577 18.5986 2.32105 19.0039 2.5896 19.082C2.74585 19.126 4.2937 19.1406 9.12281 19.1406H15.4509L15.6267 19.4971C15.8709 19.9854 16.1589 20.3711 16.5837 20.791C17.033 21.2305 17.3113 21.4356 17.8435 21.6992C19.3181 22.4414 20.9343 22.4463 22.4041 21.7236C24.367 20.752 25.5046 18.5498 25.1482 16.416C25.0457 15.8203 24.9089 15.3955 24.6404 14.8682C24.3865 14.3604 24.1765 14.0723 23.742 13.6328C23.322 13.208 22.9363 12.9199 22.448 12.6758L22.0916 12.5V8.12501C22.0916 4.88282 22.0769 3.6963 22.033 3.5547C22.0037 3.44727 21.8816 3.25196 21.7644 3.12501C21.3836 2.7002 22.282 2.73438 11.9158 2.73927C5.36792 2.74415 2.68237 2.7588 2.5603 2.79786ZM21.1882 3.6377L21.3103 3.75489V8.00782V12.2559L21.1882 12.2266C21.1199 12.2119 20.949 12.1826 20.8074 12.1631L20.5535 12.1338L20.5291 8.31055L20.5046 4.48243L20.3875 4.38966C20.2752 4.29688 20.0701 4.29688 11.9255 4.29688H3.58081L3.46362 4.41895L3.34155 4.53614V10.9277C3.34155 17.1533 3.34644 17.3242 3.43433 17.4365L3.5271 17.5537L9.30835 17.5781L15.0847 17.6025L15.114 17.8565C15.1336 17.9981 15.1628 18.169 15.1775 18.2373L15.2068 18.3594H9.00562H2.79956L2.68237 18.2373L2.5603 18.1201V10.9375V3.75489L2.68237 3.6377L2.79956 3.51563H11.9353H21.0711L21.1882 3.6377ZM19.7478 8.59376C19.7478 11.3672 19.7332 12.1143 19.6892 12.1289C19.655 12.1436 19.5232 12.1631 19.3962 12.1777L19.1668 12.207L17.5457 10.2393C16.657 9.16016 15.8464 8.20313 15.7488 8.11524C15.5291 7.91505 15.1238 7.79298 14.8259 7.83204C14.3328 7.9004 14.2888 7.94434 12.2234 10.4492C11.1638 11.7383 10.2849 12.7832 10.2703 12.7783C10.2507 12.7734 9.78199 12.207 9.23023 11.5234C8.67359 10.8399 8.14136 10.2197 8.03882 10.1465C7.62866 9.84864 7.03296 9.85841 6.62769 10.1709C6.51538 10.2588 5.90503 10.9277 5.27515 11.6602L4.1228 12.9932V9.03809V5.07813H11.9353H19.7478V8.59376ZM15.2654 8.73048C15.3093 8.77442 16.0271 9.62403 16.8621 10.6201L18.3709 12.4219L17.9851 12.6074C16.9255 13.1055 16.0466 13.9844 15.5437 15.0586C15.3386 15.5029 15.1726 16.0498 15.1189 16.4844L15.0847 16.7725L14.2986 16.7871L13.5125 16.7969L12.1599 15.1367C11.4177 14.2236 10.8123 13.4522 10.8123 13.4277C10.8123 13.3447 14.5671 8.81837 14.7332 8.70118C14.9089 8.57423 15.1238 8.58399 15.2654 8.73048ZM7.51636 10.7227C7.57984 10.7471 12.3113 16.5234 12.4431 16.7334C12.4724 16.7822 11.6277 16.7969 8.30249 16.7969H4.1228V15.4883V14.1846L5.58277 12.5C6.38843 11.5723 7.09644 10.7861 7.15991 10.7568C7.28687 10.6885 7.39429 10.6787 7.51636 10.7227ZM21.1882 13.0274C22.7752 13.4619 23.8933 14.5899 24.3181 16.1914C24.45 16.6943 24.4451 17.7149 24.3035 18.2373C24.0154 19.2969 23.3709 20.2051 22.5017 20.7666C19.7185 22.5684 16.0711 20.7373 15.8562 17.4365C15.7781 16.2256 16.2322 15.044 17.1111 14.1602C17.7556 13.5205 18.488 13.1299 19.3816 12.959C19.8406 12.8711 20.739 12.9053 21.1882 13.0274Z" fill="#1E2533"/>
<path d="M10.0312 5.72754C9.58198 5.85449 9.2353 6.15723 9.02534 6.61133C8.88373 6.91406 8.86909 7.43164 8.98627 7.77832C9.08393 8.07617 9.44038 8.4668 9.75776 8.63281C9.9726 8.74512 10.0654 8.76465 10.4462 8.76465C10.8271 8.76465 10.9199 8.74512 11.1347 8.63281C11.4619 8.46191 11.8085 8.07129 11.9111 7.76367C12.2382 6.77734 11.579 5.76172 10.5683 5.68848C10.3828 5.67383 10.1582 5.69336 10.0312 5.72754ZM10.8613 6.55273C11.1054 6.71875 11.2128 6.89941 11.2421 7.16797C11.3251 8.04199 10.1191 8.37891 9.73335 7.58789C9.46967 7.04102 9.84077 6.44531 10.4462 6.44531C10.6318 6.44531 10.7441 6.47461 10.8613 6.55273Z" fill="#1E2533"/>
<path d="M19.9578 13.7354C19.8992 13.7695 19.3914 14.4434 18.825 15.2344C17.7215 16.7773 17.6873 16.8408 17.9168 17.0654C18.0242 17.1777 18.0731 17.1875 18.5028 17.1875H18.9666V18.8232V20.4639L19.0887 20.5811C19.2059 20.7031 19.2156 20.7031 20.1385 20.7031C21.0613 20.7031 21.0711 20.7031 21.1883 20.5811L21.3104 20.4639V18.8232V17.1875H21.7694C22.1844 17.1875 22.2332 17.1777 22.3553 17.0654C22.5897 16.8457 22.5653 16.7871 21.452 15.2344C20.4803 13.8721 20.3143 13.6768 20.1385 13.6768C20.0994 13.6768 20.0164 13.7012 19.9578 13.7354ZM20.7391 15.5664L21.3153 16.3818L21.0174 16.4062C20.5096 16.4502 20.5291 16.3721 20.5291 18.291V19.9219H20.1385H19.7479V18.291C19.7479 16.3721 19.7674 16.4502 19.2596 16.4062L18.9617 16.3818L19.5379 15.5664C19.8553 15.1172 20.1239 14.751 20.1385 14.751C20.1531 14.751 20.4217 15.1172 20.7391 15.5664Z" fill="#1E2533"/>
</g>
<defs>
<clipPath id="clip0_1314_251">
<rect width="25" height="25" fill="white" transform="translate(0.998047)"/>
</clipPath>
</defs>
</svg>
