<svg width="26" height="25" viewBox="0 0 26 25" fill="none" xmlns="http://www.w3.org/2000/svg">
<g opacity="0.8">
<path d="M7.71191 1.63086C7.53125 1.70899 7.37012 1.88477 7.30176 2.06543C7.26758 2.15332 7.24805 2.91016 7.24805 4.22363V6.24512L5.15332 6.25977C3.12207 6.27442 3.05371 6.2793 2.92188 6.37696C2.84863 6.43067 2.74121 6.53809 2.6875 6.61133L2.58496 6.74317V14.8438V22.9443L2.6875 23.0762C2.74121 23.1494 2.84863 23.2568 2.92188 23.3105L3.05371 23.4131H11.1543H19.2549L19.3867 23.3105C19.46 23.2568 19.5674 23.1494 19.6211 23.0762C19.7188 22.9443 19.7236 22.876 19.7383 20.8496L19.7529 18.7549L21.8477 18.7402C23.874 18.7256 23.9424 18.7207 24.0742 18.623C24.1475 18.5693 24.2549 18.4619 24.3086 18.3887L24.4111 18.2568V10.1611V2.06543L24.2793 1.89453C24.0059 1.53321 24.7139 1.5625 15.832 1.5625C9.29883 1.56738 7.83398 1.57715 7.71191 1.63086ZM10.0312 3.13965C10.0312 3.14453 9.75781 3.42285 9.4209 3.75977L8.81055 4.37012V3.74512V3.125H9.4209C9.75781 3.125 10.0312 3.12988 10.0312 3.13965ZM11.3984 5.68848L8.83496 8.25196L8.82031 7.41211L8.81055 6.57227L10.5293 4.84863L12.2529 3.125H13.1074H13.9619L11.3984 5.68848ZM13.3516 7.6416L8.83496 12.1582L8.82031 11.3184L8.81055 10.4785L12.4824 6.80176L16.1592 3.125H17.0137H17.8682L13.3516 7.6416ZM15.3047 9.59473L8.83496 16.0645L8.82031 15.2246L8.81055 14.3848L14.4355 8.75488L20.0654 3.125H20.9199H21.7744L15.3047 9.59473ZM17.248 11.5576L11.6182 17.1875H10.7637H9.90918L16.3789 10.7178L22.8486 4.24805L22.8633 5.08789L22.873 5.92774L17.248 11.5576ZM7.25781 13.0273L7.27246 18.2471L7.4043 18.418C7.67285 18.7744 7.29199 18.75 13.0293 18.75H18.1855V20.3125V21.875H11.1543H4.12305V14.8438V7.8125H5.68555H7.24805L7.25781 13.0273ZM19.2012 13.5107L15.5244 17.1875H14.6699H13.8154L18.332 12.6709L22.8486 8.1543L22.8633 8.99414L22.873 9.83399L19.2012 13.5107ZM21.1543 15.4639L19.4307 17.1875H18.5762H17.7217L20.2852 14.624L22.8486 12.0605L22.8633 12.9004L22.873 13.7402L21.1543 15.4639ZM22.873 16.5771V17.1875H22.2529H21.6279L22.2383 16.5771C22.5752 16.2402 22.8535 15.9668 22.8584 15.9668C22.8682 15.9668 22.873 16.2402 22.873 16.5771Z" fill="#1E2533"/>
</g>
</svg>
