<svg width="26" height="25" viewBox="0 0 26 25" fill="none" xmlns="http://www.w3.org/2000/svg">
<g opacity="0.8">
<path d="M8.4934 3.19336C8.31274 3.27148 8.15161 3.44726 8.08325 3.62793C8.00024 3.83789 8.01489 5.58105 8.09789 5.77636C8.37133 6.43554 9.37231 6.37207 9.55297 5.68359L9.61157 5.46875H15.4514H21.2913L21.3498 5.68359C21.5305 6.37207 22.5315 6.43554 22.8049 5.77636C22.9026 5.55176 22.9026 3.82324 22.8049 3.59863C22.5315 2.93945 21.5305 3.00293 21.3498 3.6914L21.2913 3.90625H15.4465H9.6018L9.5725 3.73535C9.48461 3.27636 8.93286 2.99804 8.4934 3.19336Z" fill="#1E2533"/>
<path d="M4.58703 7.09961C4.50403 7.13379 4.37707 7.23633 4.30383 7.31934C3.95227 7.73926 4.16223 8.41309 4.68957 8.55469L4.90442 8.61328V14.4531V20.293L4.68957 20.3516C4.0011 20.5322 3.93762 21.5332 4.5968 21.8066C4.82141 21.9043 6.54992 21.9043 6.77453 21.8066C7.43371 21.5332 7.37024 20.5322 6.68176 20.3516L6.46692 20.293V14.4531V8.61328L6.68176 8.55469C7.37024 8.37402 7.43371 7.37305 6.77453 7.09961C6.55481 7.00684 4.79699 7.00684 4.58703 7.09961Z" fill="#1E2533"/>
<path d="M9.22559 7.0752C8.78613 7.18262 8.38574 7.51465 8.17578 7.93457L8.05371 8.17871V14.4531V20.7275L8.16602 20.9473C8.33691 21.2988 8.53223 21.5039 8.86914 21.6846L9.17676 21.8506H15.4512H21.7256L22.0332 21.6846C22.375 21.499 22.5215 21.3477 22.7168 20.9766L22.8486 20.7275V14.4531V8.17871L22.6826 7.87109C22.502 7.53418 22.2969 7.33887 21.9453 7.16797L21.7256 7.05566L15.5488 7.0459C12.1504 7.0459 9.30859 7.05566 9.22559 7.0752ZM21.3105 14.4531V20.3125H15.4512H9.5918V14.4531V8.59375H15.4512H21.3105V14.4531Z" fill="#1E2533"/>
</g>
</svg>
