<svg width="25" height="25" viewBox="0 0 25 25" fill="none" xmlns="http://www.w3.org/2000/svg">
<g opacity="0.8" clip-path="url(#clip0_1314_275)">
<path d="M15.1463 0.0830078C14.9412 0.180664 14.8728 0.283203 14.7264 0.712891C14.6629 0.898438 14.4041 1.45996 14.1502 1.95801C13.6082 3.00781 13.5203 3.3252 13.6229 3.8916C13.6521 4.07227 13.7059 4.28711 13.74 4.37012L13.8084 4.52637L12.8953 4.55566C11.5721 4.59961 10.5467 4.78027 9.3748 5.18555C7.45586 5.85449 5.62969 7.10938 4.42851 8.59375C1.65019 12.0264 1.52812 16.7041 4.1209 20.2051C4.57012 20.8105 5.3709 21.6504 5.93242 22.1045C7.64629 23.4912 9.86797 24.3945 12.0945 24.6191L12.6951 24.6777L12.8172 24.5605C13.0662 24.3262 12.9002 23.9258 12.5437 23.9258C12.4705 23.9258 12.1482 23.8916 11.8309 23.8525C7.53398 23.2959 4.01836 20.2637 3.17852 16.3965C2.45586 13.0469 3.82793 9.5752 6.72832 7.41211C8.67656 5.95703 10.9959 5.22949 13.5008 5.2832L14.282 5.29785L14.5506 5.51758C14.702 5.63965 14.9266 5.79102 15.0535 5.85938C15.2635 5.97168 15.283 5.99609 15.283 6.16211C15.283 6.25977 15.449 6.94824 15.6492 7.68555C16.0105 9.01855 16.0154 9.03809 15.9324 9.19434C15.8201 9.41406 15.8348 9.72168 15.9812 10.2051C16.1521 10.752 16.3914 10.9863 16.7918 10.9863C16.9236 10.9863 16.9285 10.9912 17.0848 11.6797C17.1678 12.0654 17.2361 12.4023 17.2361 12.4268C17.2361 12.4561 17.1092 12.5391 16.9578 12.6172C16.3377 12.9199 15.742 13.4473 15.532 13.8818C15.0291 14.917 15.6102 15.9229 17.1482 16.6846C17.6805 16.9482 18.076 17.207 18.2957 17.4365C18.4324 17.5879 18.4715 17.7002 18.6766 18.5791C18.7986 19.1162 18.9695 19.7852 19.0525 20.0684C19.2527 20.7471 19.2625 20.8691 19.1404 21.2158C18.9109 21.8799 18.408 22.5195 17.7977 22.9248C17.2361 23.2959 16.0643 23.6572 14.8436 23.833C14.4236 23.8965 14.1014 23.9648 14.0525 24.0088C13.8572 24.1846 13.9256 24.5117 14.1844 24.6094C14.448 24.707 16.4109 24.3213 17.2605 23.999C18.2518 23.6279 19.0428 22.9736 19.5164 22.1289L19.6629 21.875L19.9168 22.4463C20.2195 23.1396 20.9568 24.4824 21.1375 24.6777C21.2986 24.8535 21.6062 25 21.826 25C22.2166 25 22.6023 24.6924 22.7098 24.3018C22.7781 24.0479 22.7342 22.5732 22.6268 21.6309C22.4998 20.5176 22.075 18.584 21.8699 18.1787C21.7771 18.0078 21.5721 17.9443 21.3914 18.0371C21.1668 18.1543 21.1619 18.2861 21.3572 18.9795C21.7234 20.2881 21.8846 21.2598 21.9725 22.6807C22.0408 23.7842 22.0262 24.165 21.9139 24.2383C21.7723 24.3262 21.6844 24.2285 21.3475 23.6279C20.6053 22.3145 20.1707 21.2891 19.7947 19.9707C19.575 19.209 17.6219 10.8301 17.6512 10.7959C17.7 10.7471 18.6766 10.5029 18.7059 10.5371C18.7303 10.5664 20.3758 15.7764 20.6395 16.6602C20.7176 16.9336 20.8641 17.0898 21.0447 17.0898C21.2107 17.0898 21.3865 16.9043 21.3865 16.7285C21.3865 16.6504 21.0984 15.6738 20.7518 14.5557C20.4002 13.4375 20.1023 12.4854 20.0877 12.4414C20.0682 12.3828 20.1414 12.3193 20.3709 12.2021C20.7664 11.9922 21.3572 11.4014 21.5721 11.001C21.7869 10.5957 21.9236 10.0342 21.9236 9.56543C21.9236 8.61328 21.5672 7.88574 20.7615 7.19727C20.3221 6.82129 19.4041 6.19629 18.9061 5.93262C18.6082 5.78125 18.5496 5.72754 18.5008 5.57129C18.4715 5.47363 18.4178 5.34668 18.3787 5.29297C18.325 5.2002 18.3396 5.14648 18.5057 4.80469C18.9354 3.94043 18.9646 3.125 18.5936 2.36328C18.3543 1.86523 18.0564 1.60645 17.0603 1.00586C16.7625 0.830078 16.3572 0.551758 16.1668 0.385742C15.6785 -0.0244141 15.4783 -0.0830078 15.1463 0.0830078ZM16.7723 1.68945C17.5291 2.14355 17.7732 2.3584 17.9539 2.72949C18.076 2.97363 18.0906 3.05664 18.0906 3.49121C18.0906 3.97461 18.0857 3.98438 17.8709 4.41406C17.7488 4.65332 17.617 4.86816 17.5779 4.8877C17.4656 4.94141 15.8055 5.37109 15.7127 5.37109C15.6687 5.37109 15.4686 5.25879 15.2635 5.12695C14.6629 4.72168 14.3455 4.17969 14.3455 3.56445C14.3455 3.17383 14.4285 2.94922 14.8582 2.17285C15.1268 1.68945 15.3416 1.2207 15.4588 0.839844C15.4686 0.800781 15.5955 0.869141 15.8055 1.04004C15.991 1.18652 16.4256 1.47949 16.7723 1.68945ZM17.7732 5.72266C17.8855 5.98633 18.4617 8.21777 18.4227 8.25195C18.3836 8.29102 16.9139 8.69629 16.7723 8.70605C16.7039 8.71582 16.6258 8.48633 16.3572 7.49512C16.1717 6.82129 16.0203 6.23535 16.0154 6.18652C16.0154 6.1377 16.0545 6.08398 16.1033 6.06934C16.2059 6.02539 17.6365 5.625 17.6902 5.62012C17.7098 5.61523 17.7488 5.66406 17.7732 5.72266ZM19.7166 7.30957C20.5418 7.89551 20.8934 8.30078 21.0936 8.8916C21.1863 9.15527 21.1961 9.28223 21.1814 9.67773C21.1619 10.0879 21.1375 10.1904 20.9812 10.5127C20.8885 10.7178 20.7176 10.9814 20.6053 11.1035C20.4051 11.3232 19.9852 11.6211 19.8826 11.6211C19.8387 11.6211 19.4334 10.4541 19.4334 10.3223C19.4334 10.2979 19.5018 10.2393 19.5848 10.1953C19.6727 10.1416 19.7703 10.0195 19.8338 9.87793C19.9266 9.66797 19.9314 9.61914 19.8777 9.37012C19.7508 8.75 19.6775 8.5791 19.4334 8.34961C19.2088 8.13477 19.1941 8.10059 19.0232 7.48047C18.9256 7.12402 18.8475 6.81152 18.8475 6.78223C18.8475 6.7334 19.2186 6.95312 19.7166 7.30957ZM19.1014 9.24805C19.1502 9.43359 19.1844 9.58984 19.1795 9.59473C19.1453 9.62891 16.782 10.2588 16.7674 10.2393C16.7527 10.2295 16.7039 10.0732 16.6502 9.89258C16.5867 9.66797 16.577 9.56055 16.6111 9.53613C16.699 9.4873 18.8621 8.89648 18.9402 8.90625C18.9793 8.90625 19.0477 9.04785 19.1014 9.24805ZM17.8025 14.7803C17.9978 15.6348 18.1639 16.3477 18.1639 16.3623C18.1639 16.4062 17.0555 15.8203 16.7869 15.6348C15.9617 15.0684 15.8738 14.3408 16.5623 13.7451C16.782 13.5596 17.3875 13.1738 17.4217 13.2031C17.4314 13.2129 17.6023 13.9209 17.8025 14.7803Z" fill="#1E2533"/>
<path d="M11.9384 6.31348C11.6015 6.42578 11.3622 6.57715 11.1181 6.81641C10.1855 7.75391 10.4638 9.30176 11.6698 9.88281C11.9628 10.0195 12.0263 10.0342 12.4755 10.0342C12.9247 10.0342 12.9882 10.0195 13.2861 9.87793C13.6718 9.6875 14.0185 9.34082 14.1991 8.94531C14.3163 8.70117 14.331 8.6084 14.331 8.1543C14.331 7.7002 14.3163 7.60742 14.1991 7.36328C14.0136 6.96777 13.6718 6.62109 13.2861 6.43555C13.0175 6.30371 12.8954 6.2793 12.5487 6.26465C12.2948 6.25488 12.0556 6.27441 11.9384 6.31348ZM12.9638 7.09961C13.3984 7.2998 13.623 7.65625 13.623 8.1543C13.623 8.65234 13.3984 9.00879 12.9638 9.20898C12.3925 9.47754 11.7138 9.24316 11.4159 8.67188C11.2646 8.39355 11.2646 7.91504 11.4159 7.63672C11.538 7.39746 11.8749 7.09473 12.0849 7.03613C12.3632 6.95313 12.7099 6.97754 12.9638 7.09961Z" fill="#1E2533"/>
<path d="M7.56836 8.2959C7.04102 8.4668 6.5918 8.8623 6.35742 9.36523C6.24512 9.60938 6.22559 9.70703 6.22559 10.1562C6.22559 10.6104 6.24023 10.6982 6.35742 10.9521C6.54297 11.3428 6.92871 11.7383 7.31934 11.9287C7.61719 12.0703 7.68066 12.085 8.12988 12.085C8.78418 12.0801 9.0918 11.9629 9.49707 11.5527C9.95605 11.0938 10.1465 10.5762 10.0879 9.96582C10.0586 9.60449 9.8584 9.14062 9.61914 8.86719C9.11621 8.30078 8.28125 8.06641 7.56836 8.2959ZM8.7793 9.11133C9.375 9.47754 9.5459 10.2539 9.16504 10.8252C8.62793 11.6211 7.45117 11.5332 7.05078 10.6689C6.7627 10.0537 7.02148 9.35059 7.6416 9.04785C7.9834 8.88184 8.44727 8.91113 8.7793 9.11133Z" fill="#1E2533"/>
<path d="M5.90819 12.8125C5.5078 12.8955 5.12206 13.1104 4.81933 13.4131C4.50683 13.7256 4.33105 14.0283 4.22362 14.4287C3.76952 16.1816 5.5078 17.7051 7.21191 17.0508C7.73925 16.8506 8.13964 16.46 8.41308 15.8789C8.54491 15.6006 8.56933 15.4834 8.58398 15.0879C8.59862 14.707 8.58398 14.5703 8.49609 14.3115C8.38378 13.9697 8.14452 13.5791 7.9248 13.3691C7.68066 13.1397 7.22655 12.9004 6.88476 12.8223C6.49413 12.7295 6.27929 12.7295 5.90819 12.8125ZM7.08495 13.6816C7.56347 13.9355 7.81737 14.3262 7.85155 14.873C7.88085 15.3467 7.77831 15.6445 7.46581 15.9863C7.15331 16.3281 6.83593 16.4697 6.36718 16.4697C5.78612 16.4697 5.31737 16.1719 5.01952 15.6152C4.85839 15.3125 4.85839 14.668 5.02441 14.3555C5.43945 13.5596 6.31835 13.2715 7.08495 13.6816Z" fill="#1E2533"/>
<path d="M8.44727 17.6562C7.90527 17.8027 7.46094 18.1787 7.20703 18.7012C7.07031 18.9941 7.05566 19.0576 7.05566 19.5068C7.06055 19.9365 7.0752 20.0293 7.19238 20.2734C7.39258 20.6836 7.71484 21.0156 8.0957 21.2012C8.39844 21.3525 8.45215 21.3623 8.93555 21.3623C9.38965 21.3623 9.48242 21.3477 9.72656 21.2305C10.1172 21.0498 10.4688 20.7031 10.6592 20.3174C10.8057 20.0195 10.8154 19.9561 10.8154 19.5068C10.8154 19.0625 10.8008 18.9893 10.6641 18.7012C10.2539 17.8467 9.3457 17.417 8.44727 17.6562ZM9.45801 18.4473C10.0342 18.7402 10.2637 19.4141 9.99023 19.9951C9.79004 20.4297 9.43359 20.6543 8.93555 20.6543C8.4375 20.6543 8.08105 20.4297 7.88086 19.9951C7.56836 19.3311 7.91504 18.5938 8.64258 18.3545C8.83301 18.291 9.24316 18.3398 9.45801 18.4473Z" fill="#1E2533"/>
<path d="M12.9149 19.1064C12.2118 19.3408 11.7723 19.8047 11.5916 20.5078C11.4354 21.1182 11.6014 21.7383 12.0457 22.2168C12.993 23.2422 14.6092 22.9785 15.1952 21.6992C15.2879 21.499 15.3075 21.3769 15.3075 20.9473C15.3075 20.4932 15.2928 20.4004 15.1756 20.1562C14.995 19.7656 14.6532 19.4141 14.2674 19.2285C13.9989 19.0967 13.8914 19.0723 13.5301 19.0576C13.2762 19.0478 13.0321 19.0674 12.9149 19.1064ZM13.8231 19.834C14.2821 19.9707 14.5995 20.4248 14.5995 20.9375C14.5995 21.9482 13.452 22.4853 12.6952 21.8359C12.1776 21.3965 12.1239 20.6885 12.5633 20.1855C12.8954 19.8096 13.3348 19.6875 13.8231 19.834Z" fill="#1E2533"/>
</g>
<defs>
<clipPath id="clip0_1314_275">
<rect width="25" height="25" fill="white"/>
</clipPath>
</defs>
</svg>
