<svg width="26" height="25" viewBox="0 0 26 25" fill="none" xmlns="http://www.w3.org/2000/svg">
<g opacity="0.8" clip-path="url(#clip0_1314_287)">
<path d="M4.48909 0.71776C3.4637 0.864244 2.53596 1.50389 2.08186 2.37303C1.70588 3.10057 1.72541 2.73436 1.74006 9.09667L1.75471 14.7705L1.88166 15.0976C2.15998 15.8154 2.63362 16.3916 3.24885 16.7529C3.68342 17.0117 4.09846 17.1435 4.61116 17.1826L5.0262 17.2119L5.05061 18.6865L5.07502 20.1562L5.22151 20.3662C5.48518 20.7373 5.97835 20.8984 6.40803 20.7471C6.49104 20.7178 7.58967 19.9072 8.84456 18.9453L11.1297 17.1924L12.8924 17.1875H14.6551L17.4578 19.9072C19.0008 21.4014 20.5487 22.9004 20.9002 23.2422C21.4129 23.7451 21.6034 23.8965 21.9012 24.0381C23.6883 24.9121 25.6805 23.3496 25.1922 21.4599C25.036 20.8642 25.0506 20.8838 22.1405 18.0371L21.286 17.1973L21.6278 17.1191C22.7459 16.8652 23.6834 15.9814 23.9813 14.8877C24.0643 14.5996 24.0692 14.1699 24.0692 8.91112V3.24706L23.9178 2.83202C23.576 1.8701 22.8582 1.17674 21.8719 0.83983L21.4813 0.707994L13.0584 0.703112C8.42464 0.698229 4.57209 0.707994 4.48909 0.71776ZM21.3739 1.73339C21.9989 1.86522 22.5164 2.2412 22.8387 2.79296C23.117 3.26171 23.117 3.21776 23.117 8.94042C23.117 12.5244 23.1024 14.2822 23.0633 14.4775C22.9657 15.0146 22.6727 15.4687 22.2235 15.8057C21.8182 16.0986 21.4276 16.2109 20.7782 16.2109H20.2557L18.5321 14.5361C17.5799 13.6182 16.7645 12.8369 16.7157 12.8027C16.6668 12.7685 15.91 12.5537 15.036 12.3291L13.4442 11.9141H10.1873C8.16585 11.9141 6.86213 11.9336 6.75471 11.9629C6.50081 12.0361 6.39338 12.1728 6.39338 12.4365C6.39338 12.6172 6.4178 12.6758 6.5301 12.7734L6.66682 12.8906H9.61604H12.5653L12.619 13.0957C12.8826 14.082 13.3709 15.8154 13.41 15.8935C13.4393 15.9473 13.5076 16.04 13.5614 16.0986L13.659 16.2109H12.3407C11.6131 16.2109 10.9539 16.2256 10.8758 16.2402C10.7879 16.2598 9.81624 16.9726 8.41487 18.0469C7.14045 19.0234 6.08577 19.8242 6.06624 19.8242C6.04182 19.8242 6.02717 19.1113 6.02717 18.2373C6.02717 16.5283 6.01253 16.4355 5.76838 16.2988C5.70979 16.2646 5.36799 16.2305 4.97737 16.2109C4.3426 16.1865 4.26936 16.1719 3.96174 16.0303C3.50764 15.8154 3.13655 15.4541 2.91194 14.9951L2.73127 14.6289L2.71662 9.06249C2.70686 3.59374 2.70686 3.48631 2.80452 3.16893C3.01448 2.46581 3.65413 1.89452 4.41584 1.7285C4.62092 1.68456 6.65706 1.66991 12.8631 1.66503C19.7918 1.66014 21.0907 1.67479 21.3739 1.73339ZM14.953 13.3105L16.203 13.6377L19.3182 16.665C21.0321 18.3252 22.4334 19.6924 22.4334 19.7021C22.4334 19.707 22.0086 20.1221 21.4862 20.625L20.534 21.5381L17.8338 18.916C16.3494 17.4756 14.9432 16.1084 14.7088 15.874L14.2791 15.4541L14.0643 14.6728C13.6297 13.1006 13.6004 12.9883 13.6541 12.9883C13.6834 12.9883 14.2694 13.1348 14.953 13.3105ZM23.6395 20.8594C24.1522 21.3818 24.245 21.5381 24.2791 21.9482C24.3084 22.3291 24.1668 22.6709 23.8739 22.9443C23.5809 23.2178 23.3514 23.3057 22.9461 23.3105C22.4823 23.3154 22.2381 23.1885 21.6815 22.6514L21.2371 22.2266L22.1649 21.3183C22.6776 20.8203 23.117 20.415 23.1414 20.415C23.1707 20.4101 23.3905 20.6152 23.6395 20.8594Z" fill="#1E2533"/>
<path d="M6.53516 5.29296C6.31055 5.51757 6.31055 5.71288 6.53516 5.93749L6.70117 6.10351H12.8584C19.5576 6.10351 19.2207 6.11816 19.3477 5.83495C19.46 5.58593 19.3818 5.31249 19.1572 5.19531C19.0401 5.13671 18.0977 5.12695 12.8584 5.12695H6.70117L6.53516 5.29296Z" fill="#1E2533"/>
<path d="M6.71097 8.50098C6.52542 8.5791 6.42288 8.69141 6.38871 8.8623C6.35453 9.04297 6.46195 9.29687 6.60843 9.375C6.67191 9.40918 8.7471 9.42383 12.9073 9.42383H19.1036L19.2549 9.29687C19.377 9.19434 19.4063 9.13574 19.4063 8.97461C19.4063 8.87207 19.3819 8.74023 19.3526 8.68164C19.2207 8.44238 19.4063 8.44727 12.9024 8.45215C9.02054 8.45215 6.7891 8.47168 6.71097 8.50098Z" fill="#1E2533"/>
</g>
<defs>
<clipPath id="clip0_1314_287">
<rect width="25" height="25" fill="white" transform="translate(0.998047)"/>
</clipPath>
</defs>
</svg>
