<svg width="208" height="124" viewBox="0 0 208 124" fill="none" xmlns="http://www.w3.org/2000/svg">
<path d="M204.183 32.343C204.396 32.5181 204.711 32.4869 204.886 32.2733L207.739 28.7933C207.914 28.5798 207.883 28.2647 207.67 28.0896C207.456 27.9146 207.141 27.9458 206.966 28.1593L204.43 31.2527L201.337 28.7167C201.123 28.5416 200.808 28.5728 200.633 28.7864C200.458 28.9999 200.489 29.3149 200.703 29.49L204.183 32.343ZM1 122.957C1.22808 123.402 1.22849 123.402 1.22912 123.401C1.22964 123.401 1.2305 123.401 1.23152 123.4C1.23357 123.399 1.23652 123.398 1.24037 123.396C1.24806 123.392 1.25932 123.386 1.27411 123.378C1.30368 123.363 1.34731 123.34 1.40455 123.31C1.51904 123.249 1.68793 123.159 1.9075 123.038C2.34663 122.798 2.98849 122.438 3.80314 121.959C5.43238 121.002 7.75315 119.568 10.5258 117.658C16.0703 113.839 23.4267 108.114 30.6749 100.489C45.17 85.2407 59.2597 62.3622 57.4989 31.9275L56.5006 31.9852C58.24 62.0512 44.3299 84.673 29.9501 99.8C22.7607 107.363 15.461 113.044 9.95855 116.834C7.20779 118.729 4.90746 120.15 3.29646 121.097C2.491 121.571 1.85796 121.925 1.42722 122.161C1.21185 122.279 1.04707 122.367 0.936601 122.426C0.881369 122.455 0.839718 122.477 0.812115 122.491C0.798313 122.498 0.788024 122.504 0.781305 122.507C0.777945 122.509 0.775478 122.51 0.773911 122.511C0.773128 122.511 0.77263 122.512 0.772237 122.512C0.771964 122.512 0.771918 122.512 1 122.957ZM57.4989 31.9275C56.6248 16.8187 59.7412 9.91743 65.2376 7.30596C68.0208 5.9836 71.4946 5.71318 75.555 6.12993C79.612 6.54632 84.1995 7.64216 89.1806 9.00061C99.1158 11.7102 110.596 15.4626 122.264 16.773C133.95 18.0855 145.892 16.9602 156.773 9.87534L156.227 9.03734C145.607 15.9521 133.925 17.0764 122.376 15.7793C110.809 14.4802 99.446 10.7637 89.4437 8.03585C84.4559 6.67556 79.8013 5.5605 75.6571 5.13515C71.5163 4.71016 67.8299 4.96717 64.8085 6.40273C58.6956 9.30709 55.6245 16.8436 56.5006 31.9852L57.4989 31.9275ZM156.773 9.87534C167.469 2.91069 175.725 0.878877 182.08 1.65615C188.42 2.43169 192.964 6.01606 196.22 10.5004C199.482 14.9927 201.43 20.364 202.563 24.6316C203.129 26.762 203.489 28.6095 203.708 29.9232C203.817 30.5799 203.891 31.1028 203.937 31.4604C203.96 31.6392 203.977 31.7767 203.987 31.8688C203.992 31.9149 203.996 31.9497 203.999 31.9727C204 31.9841 204.001 31.9927 204.001 31.9982C204.002 32.0009 204.002 32.0029 204.002 32.0042C204.002 32.0048 204.002 32.0051 204.002 32.0055C204.002 32.0056 204.002 32.0056 204.5 31.9563C204.997 31.9071 204.997 31.9067 204.997 31.9061C204.997 31.9056 204.997 31.9048 204.997 31.9039C204.997 31.9021 204.996 31.8995 204.996 31.8961C204.995 31.8894 204.994 31.8797 204.993 31.867C204.99 31.8416 204.986 31.8044 204.981 31.7558C204.97 31.6586 204.953 31.5159 204.929 31.3317C204.881 30.9632 204.805 30.4285 204.694 29.7591C204.471 28.4205 204.105 26.5414 203.53 24.375C202.381 20.0491 200.393 14.5455 197.029 9.91292C193.66 5.27241 188.891 1.48185 182.201 0.663547C175.525 -0.153013 167.031 2.00244 156.227 9.03734L156.773 9.87534Z" fill="#FA7846"/>
</svg>
