<svg width="164" height="97" viewBox="0 0 164 97" fill="none" xmlns="http://www.w3.org/2000/svg">
<path d="M60 6.50061L59.7852 6.95214L60 6.50061ZM104 52.5015L104.153 52.0255L104 52.5015ZM162 52.5015L162.462 52.3093L162 52.5015ZM138.002 95.4526C137.975 95.7274 138.176 95.9721 138.451 95.9991L142.93 96.4392C143.204 96.4662 143.449 96.2653 143.476 95.9905C143.503 95.7157 143.302 95.471 143.027 95.444L139.047 95.0528L139.438 91.0719C139.465 90.7971 139.264 90.5524 138.989 90.5254C138.714 90.4984 138.47 90.6993 138.443 90.9741L138.002 95.4526ZM0.5 2.50147C0.571217 2.99637 0.57129 2.99636 0.571513 2.99633C0.571787 2.99629 0.572159 2.99624 0.572705 2.99616C0.573796 2.996 0.575483 2.99576 0.577761 2.99543C0.582317 2.99478 0.589238 2.9938 0.598496 2.99249C0.617012 2.98987 0.644878 2.98596 0.681871 2.98082C0.755858 2.97056 0.866353 2.95542 1.01158 2.93604C1.30204 2.89729 1.73142 2.84161 2.28552 2.7741C3.39374 2.63907 5.0007 2.45675 6.99285 2.26797C10.9777 1.89037 16.501 1.48718 22.6551 1.38462C34.9898 1.17905 49.7613 2.18439 59.7852 6.95214L60.2148 6.04909C49.9635 1.17323 34.9851 0.17899 22.6385 0.384755C16.452 0.487857 10.902 0.893061 6.89851 1.27243C4.89653 1.46214 3.28065 1.64545 2.16457 1.78144C1.60651 1.84943 1.17337 1.9056 0.879346 1.94482C0.732333 1.96444 0.620096 1.97981 0.544411 1.99032C0.506568 1.99557 0.477864 1.9996 0.458519 2.00234C0.448846 2.0037 0.441513 2.00475 0.436548 2.00546C0.434066 2.00581 0.432175 2.00608 0.43088 2.00627C0.430232 2.00636 0.429708 2.00643 0.429384 2.00648C0.429009 2.00653 0.428783 2.00657 0.5 2.50147ZM59.7852 6.95214C70.0982 11.8574 75.5041 21.4302 81.1455 30.8319C86.757 40.1837 92.6034 49.362 103.847 52.9775L104.153 52.0255C93.3111 48.5391 87.6326 39.6994 82.003 30.3174C76.4033 20.9852 70.8519 11.1085 60.2148 6.04909L59.7852 6.95214ZM103.847 52.9775C109.36 54.7503 115.239 54.2912 121.046 52.9737C126.844 51.6583 132.649 49.4658 137.976 47.7356C143.342 45.9929 148.203 44.7261 152.245 45.152C154.251 45.3634 156.041 45.9911 157.589 47.1789C159.138 48.3679 160.476 50.1419 161.538 52.6936L162.462 52.3093C161.348 49.6333 159.915 47.7032 158.197 46.3855C156.478 45.0665 154.505 44.3847 152.35 44.1575C148.07 43.7065 143.018 45.0467 137.667 46.7845C132.278 48.535 126.563 50.6965 120.825 51.9985C115.096 53.2982 109.421 53.7195 104.153 52.0255L103.847 52.9775ZM161.538 52.6936C163.309 56.948 162.797 61.7017 160.964 66.4949C159.131 71.2871 155.998 76.0644 152.617 80.3153C149.238 84.5627 145.628 88.2644 142.861 90.9054C141.478 92.2254 140.307 93.2793 139.482 94.0025C139.069 94.3641 138.744 94.643 138.522 94.8311C138.411 94.9251 138.325 94.9965 138.268 95.0442C138.24 95.068 138.218 95.0859 138.204 95.0978C138.196 95.1037 138.191 95.1081 138.188 95.111C138.186 95.1124 138.185 95.1135 138.184 95.1142C138.183 95.1145 138.183 95.1147 138.183 95.1149C138.183 95.115 138.183 95.115 138.5 95.5015C138.817 95.8879 138.817 95.8877 138.818 95.8875C138.818 95.8873 138.819 95.8869 138.819 95.8865C138.82 95.8856 138.822 95.8843 138.824 95.8827C138.828 95.8794 138.833 95.8746 138.841 95.8683C138.856 95.8557 138.879 95.837 138.908 95.8123C138.968 95.7631 139.055 95.69 139.168 95.5942C139.394 95.4026 139.724 95.12 140.141 94.7544C140.975 94.0232 142.157 92.9598 143.551 91.6288C146.339 88.9679 149.984 85.232 153.399 80.9378C156.812 76.6471 160.014 71.7785 161.898 66.8521C163.782 61.9265 164.368 56.8884 162.462 52.3093L161.538 52.6936Z" fill="#FA7846"/>
</svg>
