<svg width="85" height="85" viewBox="0 0 85 85" fill="none" xmlns="http://www.w3.org/2000/svg">
<circle cx="42.5" cy="42.5" r="42.5" fill="#D95656"/>
<path d="M38.8262 16.0967C38.1407 16.1846 37.2969 16.6328 36.875 17.125C36.3916 17.6963 32.7266 23.0664 32.4454 23.6289C31.9883 24.543 31.9532 24.8506 31.9532 29.1045V33.0332L30.7227 34.0615C29.4307 35.1514 28.9737 35.6699 28.543 36.5225C27.875 37.8496 27.8399 38.3857 28.1299 42.0156C28.3936 45.3379 28.4024 45.3994 29.0088 45.3994C29.2637 45.3994 29.378 45.3467 29.5098 45.1709C29.6856 44.9424 29.6856 44.916 29.4483 41.9277C29.1758 38.5615 29.1934 38.1924 29.6592 37.208C30.002 36.4961 30.3623 36.083 31.3819 35.2305C39.9864 28.0059 44.8116 24.0068 45.128 23.8398C45.4004 23.708 45.6729 23.6465 46.0069 23.6465C47.6856 23.6553 48.626 25.5361 47.6241 26.8809C47.2989 27.3203 40.1622 33.2529 39.8194 33.376C39.3448 33.5342 38.9053 33.877 36.9454 35.5996C35.2666 37.0586 35.1172 37.2168 35.1172 37.4805C35.1172 37.8232 35.4248 38.1484 35.75 38.1484C36.0137 38.1484 35.9961 38.166 38.211 36.2324C39.1163 35.4502 39.9952 34.7471 40.1622 34.6768C40.6016 34.4922 41.1026 34.5186 41.5157 34.7383C41.7178 34.8525 43.1416 36.0215 44.6885 37.3311C47.7911 39.9766 47.8614 40.0645 47.8614 40.9873C47.8614 41.8311 47.4922 42.4551 46.7803 42.8154L46.4463 42.9912L45.9893 42.6045C45.7344 42.3936 44.8291 41.6289 43.9678 40.8994C43.1065 40.1699 42.2188 39.4844 41.9903 39.3789C41.1465 38.9746 39.96 39.0713 39.1954 39.5898C39.0284 39.6953 38.0528 40.5303 37.0069 41.4355C35.2315 42.9824 35.1172 43.0967 35.1172 43.3867C35.1172 43.7559 35.3721 44.0371 35.7237 44.0371C36.0313 44.0371 36.0664 44.0107 38.8174 41.5938C39.3799 41.1016 39.9864 40.6357 40.1622 40.5654C40.584 40.3896 41.0762 40.3984 41.4541 40.5918C41.6299 40.6797 43.0625 41.8486 44.6358 43.1934C47.7998 45.8916 47.8614 45.9619 47.8614 46.9111C47.8614 47.5615 47.6416 48.0449 47.167 48.4492C46.543 48.9766 45.6729 49.0996 44.961 48.748C44.794 48.6689 43.8448 47.9131 42.8516 47.0693C41.375 45.8037 41.0147 45.5312 40.7862 45.5312C40.5664 45.5312 40.3907 45.6543 39.837 46.2168C39.0811 46.9814 39.002 47.2188 39.3799 47.5967C39.6875 47.9131 39.9776 47.8779 40.4258 47.4648C40.6368 47.2715 40.8213 47.1133 40.8477 47.1133C40.8653 47.1133 41.5508 47.6846 42.3682 48.3877C43.2998 49.1875 44.0733 49.7676 44.4336 49.9434C44.9522 50.207 45.0664 50.2334 45.8399 50.2334C46.5606 50.2334 46.7452 50.1982 47.1758 49.9961C47.8438 49.6885 48.5206 49.0381 48.8633 48.3877C49.1182 47.8955 49.1358 47.7988 49.1358 46.9375C49.1358 46.0674 49.1182 45.9707 48.8457 45.4258C48.6612 45.0391 48.3975 44.6875 48.0723 44.3975L47.5889 43.9492L48.1075 43.4658C48.793 42.833 49.1182 42.1475 49.1622 41.2158C49.2325 39.7832 48.8809 39.1855 47.0264 37.6035C45.9366 36.6719 45.6641 36.3994 45.6993 36.2588C45.7168 36.1621 46.042 34.5273 46.4112 32.6201C47.0879 29.1748 47.0879 29.1572 47.3604 28.9287C48.2041 28.2432 48.7666 27.6191 49.0303 27.083C49.2852 26.5645 49.3116 26.4238 49.3204 25.668L49.3379 24.833L49.8038 24.6396C51.0518 24.1299 52.0274 24.3936 52.3877 25.3516C52.5108 25.6855 52.502 25.9932 52.1768 29.8164C51.9483 32.6553 51.8604 34.0527 51.9131 34.3164C51.9483 34.5361 52.3614 35.4941 52.8184 36.4521C54.0752 39.1064 54.3916 40.3018 54.3916 42.4111C54.3829 44.3359 54.1104 45.4873 53.126 47.7021C52.8448 48.3525 52.6075 48.9502 52.6075 49.0381C52.6075 49.3105 52.9502 49.6621 53.2139 49.6621C53.6358 49.6621 53.8028 49.4336 54.4004 48.0801C55.376 45.8652 55.71 44.4326 55.71 42.4111C55.71 41.084 55.6133 40.3105 55.2881 39.0713C55.0245 38.0869 54.7959 37.5156 53.9522 35.7842C53.5918 35.0283 53.2579 34.3076 53.2227 34.1846C53.1788 34.0439 53.293 32.3125 53.4952 29.8779C53.8643 25.4482 53.8643 25.1934 53.4512 24.4814C53.17 24.0068 52.5987 23.4971 52.1065 23.2773C51.3155 22.9258 50.4454 22.9785 49.294 23.4355L48.7315 23.6641L48.292 23.251C48.0547 23.0312 47.6329 22.7412 47.3516 22.6094C46.9122 22.3984 46.7452 22.3721 45.9717 22.3721C45.1895 22.3721 45.0401 22.3984 44.6094 22.6094C44.3106 22.7588 43.045 23.7432 41.4454 25.0879L38.7647 27.3291L38.7383 26.8193C38.712 26.3096 38.7207 26.2832 39.336 25.3516C39.837 24.5957 39.9512 24.3584 39.9073 24.1826C39.837 23.8838 39.5469 23.6465 39.2569 23.6465C38.9581 23.6465 38.7295 23.8838 38.0088 24.9648L37.4463 25.7998L37.42 27.1445L37.3936 28.4893L35.3545 30.1855L33.3155 31.8906L33.2891 28.5596C33.2715 25.29 33.2715 25.2109 33.4737 24.6309C33.7373 23.8398 37.6924 18.0391 38.1758 17.7139C39.2217 17.0283 40.6016 17.3975 41.1377 18.5049C41.3399 18.918 41.375 19.0762 41.3399 19.5508C41.3135 20.0605 41.2608 20.1836 40.7598 20.9395C40.461 21.3965 40.2149 21.8535 40.2149 21.959C40.2149 22.2139 40.584 22.5918 40.8301 22.5918C41.1729 22.5918 41.3663 22.416 41.8936 21.6074C42.4825 20.7021 42.6758 20.1572 42.6758 19.375C42.6758 17.3447 40.8653 15.8066 38.8262 16.0967ZM45.0049 32.9541C44.7413 34.2725 44.5127 35.3711 44.4952 35.3887C44.4776 35.4062 44.0557 35.0723 43.5459 34.6504C43.045 34.2197 42.4825 33.7715 42.3067 33.6572L41.9815 33.4375L43.7129 31.9785C44.6622 31.1787 45.4532 30.5283 45.462 30.5371C45.4707 30.5459 45.2686 31.6357 45.0049 32.9541Z" fill="white"/>
<path d="M48.1253 16.1757C47.8704 16.4306 47.844 16.6239 47.8792 18.2236C47.9056 19.5946 47.9143 19.7001 48.0989 19.8759C48.3362 20.1132 48.7581 20.1308 49.0042 19.9111C49.1712 19.7616 49.18 19.6474 49.18 18.0653C49.18 16.4218 49.1712 16.3778 48.9778 16.1933C48.7229 15.956 48.3538 15.9472 48.1253 16.1757Z" fill="white"/>
<path d="M52.8096 17.1426C52.5898 17.2305 52.4316 17.4678 51.6143 18.9531C51.2891 19.542 51.0254 20.1045 51.0254 20.21C51.0254 20.4736 51.4033 20.834 51.6846 20.834C51.8076 20.834 52.001 20.7461 52.1064 20.6318C52.4404 20.3066 53.6621 17.9863 53.6621 17.6963C53.6621 17.2832 53.2051 16.9844 52.8096 17.1426Z" fill="white"/>
<path d="M54.9278 21.036C53.5655 21.8798 53.3282 22.1171 53.4337 22.5302C53.4952 22.8026 53.9434 23.0663 54.1983 22.9872C54.4884 22.8905 56.7735 21.4491 56.9405 21.2558C57.0196 21.1591 57.0899 20.9833 57.0899 20.8603C57.0899 20.5878 56.7208 20.2187 56.4483 20.2187C56.3341 20.2187 55.6485 20.5878 54.9278 21.036Z" fill="white"/>
<path d="M28.8329 47.1308C28.6044 47.3066 28.5956 47.3506 28.6395 47.8515C28.7626 49.1347 29.3866 50.7871 30.2128 52.0351C30.4764 52.4482 31.3202 53.5556 32.0672 54.4961L33.4383 56.2012L33.4647 58.372C33.4911 60.3584 33.5087 60.5605 33.6581 60.7275C33.8778 60.9648 34.4139 60.9824 34.6161 60.7539C34.7479 60.6133 34.7655 60.2969 34.7655 58.1699V55.7529L33.1659 53.7402C32.2782 52.624 31.452 51.5605 31.3202 51.3672C30.6962 50.4092 30.0985 48.8799 29.9667 47.8955C29.9227 47.5527 29.8348 47.3594 29.659 47.1836C29.369 46.8847 29.1581 46.876 28.8329 47.1308Z" fill="white"/>
<path d="M51.7021 51.0859C51.623 51.1475 51.166 52.0879 50.6738 53.1602L49.7949 55.1289V57.8799V60.6397L50.0234 60.8154C50.4014 61.1143 50.7793 61.044 50.9814 60.6397C51.0869 60.4375 51.1133 59.919 51.1133 57.9063V55.4102L51.9482 53.5557C52.4053 52.5273 52.7832 51.6397 52.7832 51.5693C52.7832 51.499 52.7041 51.3408 52.5986 51.209C52.3965 50.9541 51.957 50.8926 51.7021 51.0859Z" fill="white"/>
</svg>
