<svg width="85" height="85" viewBox="0 0 85 85" fill="none" xmlns="http://www.w3.org/2000/svg">
<circle cx="42.5" cy="42.5" r="42.5" fill="#68C38E"/>
<g clip-path="url(#clip0_1425_177)">
<path d="M42.0168 20.2109C41.8234 20.3164 40.6984 21.0459 39.5207 21.8281L37.385 23.2344L36.9279 23.1992C35.135 23.0498 31.6896 22.9092 31.5051 22.9795C31.3908 23.0234 31.2062 23.1465 31.1096 23.2607C31.0041 23.375 30.3625 24.5791 29.6857 25.9326L28.4553 28.3936L25.9504 29.6504C23.2258 31.0127 22.9797 31.1885 22.9973 31.7598C22.9973 31.9355 23.0676 33.2627 23.1467 34.7129L23.2961 37.332L21.7316 39.7139C20.8439 41.0586 20.1408 42.2188 20.1144 42.377C20.0529 42.7373 20.0881 42.7988 21.8107 45.418L23.2785 47.6416L23.1291 50.5684C22.9797 53.2842 22.9797 53.5039 23.1203 53.7148C23.3137 54.0137 23.507 54.1279 26.135 55.4463L28.4553 56.6064L29.6857 59.0674C30.925 61.5459 31.1271 61.8799 31.4963 62.0205C31.6633 62.082 34.9152 61.9502 36.84 61.8008L37.3762 61.7568L39.6437 63.251C42.175 64.9209 42.3156 65 42.6144 65C42.7463 65 43.7834 64.376 45.2775 63.3828L47.7297 61.7744L50.6213 61.9326C53.3898 62.0908 53.5217 62.0908 53.7853 61.9414C54.0139 61.8184 54.2863 61.335 55.3762 59.1992L56.6945 56.6064L59.2434 55.3232C60.6408 54.6113 61.8537 53.9434 61.9416 53.8379C62.1437 53.5918 62.1437 53.0732 61.968 49.9795L61.8273 47.6592L63.4182 45.2686C64.8156 43.168 65.0002 42.8428 65.0002 42.5264C65.0002 42.1396 64.9123 41.9814 62.9611 39.0195L61.8537 37.3408L62.0119 34.4932C62.1701 31.8125 62.1701 31.6279 62.0295 31.3379C61.8977 31.0566 61.634 30.9072 59.2873 29.7031L56.6945 28.3848L55.3762 25.8008C54.3039 23.7002 54.0051 23.1816 53.7941 23.0586C53.5393 22.918 53.3811 22.918 50.6301 23.0674L47.7385 23.2168L45.4445 21.7051C44.1789 20.8789 43.0627 20.1582 42.9572 20.0967C42.6848 19.9473 42.4035 19.9824 42.0168 20.2109ZM44.9523 23.6387C47.009 24.9834 47.2111 25.0977 47.5803 25.0977C47.8 25.0977 49.0393 25.0361 50.3488 24.957C51.6496 24.8867 52.7482 24.8516 52.7922 24.8955C52.8273 24.9307 53.3811 25.9941 54.0227 27.251C54.6643 28.5078 55.2443 29.6064 55.3234 29.7031C55.4025 29.791 56.5363 30.3975 57.8371 31.0479C59.1467 31.6982 60.2189 32.2432 60.2277 32.252C60.2453 32.2607 60.1838 33.4912 60.1047 34.9766C59.9992 36.8662 59.9816 37.7451 60.0432 37.9121C60.0959 38.0439 60.7814 39.125 61.5637 40.3203L62.9963 42.5L61.4934 44.7939L59.9904 47.0879V47.6328C59.9904 47.9229 60.0519 49.1973 60.1223 50.4453C60.2014 51.6934 60.2453 52.7305 60.2365 52.7393C60.2189 52.7568 59.1467 53.3018 57.8371 53.9521C56.5363 54.6025 55.4025 55.209 55.3234 55.2969C55.2443 55.3936 54.6555 56.5098 54.0139 57.7842C53.3635 59.0498 52.7922 60.1133 52.7307 60.1396C52.6691 60.1572 51.5617 60.1133 50.2521 60.043C48.9514 59.9639 47.7297 59.9023 47.5363 59.9023C47.2199 59.9023 46.9035 60.0869 44.9699 61.3525C43.7482 62.1611 42.7023 62.8291 42.6408 62.8555C42.5793 62.8818 41.4894 62.2139 40.2238 61.3877L37.9123 59.8672L35.1437 60.0166C33.6144 60.1045 32.3576 60.1572 32.3488 60.1484C32.3312 60.1309 31.8039 59.0762 31.1623 57.793C30.5207 56.5098 29.9318 55.3936 29.8527 55.2969C29.7736 55.209 28.6486 54.6025 27.3391 53.9521C26.0383 53.3018 24.9484 52.748 24.9309 52.7305C24.9133 52.7129 24.966 51.4912 25.0451 50.0146C25.133 48.5381 25.1682 47.2549 25.1418 47.1494C25.1066 47.0527 24.4299 45.9805 23.6389 44.7764C22.8478 43.5723 22.1975 42.5527 22.1975 42.5C22.1975 42.4561 22.8391 41.4365 23.6301 40.2412C24.4211 39.0459 25.0891 37.9824 25.133 37.8857C25.1682 37.7891 25.133 36.4971 25.0451 35.0029C24.966 33.5176 24.9133 32.2871 24.9309 32.2695C24.9484 32.252 26.0471 31.6982 27.3654 31.0391C29.343 30.0459 29.8 29.7822 29.9406 29.5537C30.0285 29.3955 30.6086 28.2793 31.215 27.0752C31.8303 25.8623 32.34 24.8691 32.3488 24.8516C32.3664 24.834 33.4387 24.8867 34.7482 24.957C36.049 25.0361 37.3059 25.0977 37.5519 25.0977C37.965 25.0977 38.0793 25.0361 40.2238 23.6123C41.4543 22.7861 42.5178 22.1357 42.5881 22.1445C42.6584 22.1621 43.7219 22.8301 44.9523 23.6387Z" fill="white"/>
<path d="M40.1798 28.7012C34.8009 29.668 30.3712 33.7373 29.044 38.9317C28.6046 40.6367 28.4727 42.8428 28.7012 44.3984C29.5714 50.3223 33.9044 54.9541 39.7315 56.2109C40.9884 56.4834 43.3526 56.5449 44.6094 56.3516C46.7891 56 48.547 55.3233 50.3399 54.1279C57.0196 49.6895 58.5753 40.5488 53.7501 34.1065C51.7022 31.3731 48.793 29.5274 45.3565 28.7891C44.0645 28.5078 41.5069 28.4639 40.1798 28.7012ZM44.2139 30.5029C49.3731 31.2324 53.3721 34.9942 54.462 40.1358C54.7345 41.4365 54.7345 43.5635 54.462 44.8643C53.671 48.582 51.3946 51.5879 48.0636 53.293C41.3136 56.7471 33.0606 53.1699 30.9425 45.8838C30.5557 44.5303 30.4327 43.5723 30.4854 42.1045C30.5557 40.2588 30.8985 38.835 31.6456 37.2705C33.9307 32.5156 39.046 29.7647 44.2139 30.5029Z" fill="white"/>
<path d="M35.2092 39.1818V45H33.8058V40.4943H33.7717L32.4705 41.2898V40.0739L33.9052 39.1818H35.2092ZM38.9016 45.142C38.3941 45.142 37.9566 45.0218 37.5891 44.7812C37.2217 44.5388 36.9386 44.1913 36.7397 43.7386C36.5408 43.2841 36.4424 42.7377 36.4442 42.0994C36.4461 41.4612 36.5456 40.9195 36.7425 40.4744C36.9414 40.0275 37.2236 39.6875 37.5891 39.4545C37.9566 39.2197 38.3941 39.1023 38.9016 39.1023C39.4092 39.1023 39.8467 39.2197 40.2141 39.4545C40.5835 39.6875 40.8675 40.0275 41.0664 40.4744C41.2653 40.9214 41.3638 41.4631 41.3619 42.0994C41.3619 42.7396 41.2624 43.2869 41.0636 43.7415C40.8647 44.196 40.5816 44.5436 40.2141 44.7841C39.8486 45.0227 39.4111 45.142 38.9016 45.142ZM38.9016 43.9915C39.2047 43.9915 39.4499 43.8371 39.6374 43.5284C39.8249 43.2178 39.9177 42.7415 39.9158 42.0994C39.9158 41.679 39.8732 41.3324 39.788 41.0597C39.7028 40.785 39.5844 40.5805 39.4329 40.446C39.2814 40.3116 39.1043 40.2443 38.9016 40.2443C38.6005 40.2443 38.3571 40.3968 38.1715 40.7017C37.9859 41.0047 37.8922 41.4706 37.8903 42.0994C37.8884 42.5256 37.9291 42.8788 38.0124 43.1591C38.0977 43.4394 38.217 43.6487 38.3704 43.7869C38.5238 43.9233 38.7009 43.9915 38.9016 43.9915ZM44.5735 45.142C44.0659 45.142 43.6284 45.0218 43.261 44.7812C42.8936 44.5388 42.6104 44.1913 42.4116 43.7386C42.2127 43.2841 42.1142 42.7377 42.1161 42.0994C42.118 41.4612 42.2174 40.9195 42.4144 40.4744C42.6133 40.0275 42.8955 39.6875 43.261 39.4545C43.6284 39.2197 44.0659 39.1023 44.5735 39.1023C45.0811 39.1023 45.5186 39.2197 45.886 39.4545C46.2553 39.6875 46.5394 40.0275 46.7383 40.4744C46.9371 40.9214 47.0356 41.4631 47.0337 42.0994C47.0337 42.7396 46.9343 43.2869 46.7354 43.7415C46.5366 44.196 46.2534 44.5436 45.886 44.7841C45.5205 45.0227 45.083 45.142 44.5735 45.142ZM44.5735 43.9915C44.8765 43.9915 45.1218 43.8371 45.3093 43.5284C45.4968 43.2178 45.5896 42.7415 45.5877 42.0994C45.5877 41.679 45.5451 41.3324 45.4599 41.0597C45.3746 40.785 45.2563 40.5805 45.1048 40.446C44.9532 40.3116 44.7762 40.2443 44.5735 40.2443C44.2724 40.2443 44.029 40.3968 43.8434 40.7017C43.6578 41.0047 43.564 41.4706 43.5621 42.0994C43.5603 42.5256 43.601 42.8788 43.6843 43.1591C43.7695 43.4394 43.8888 43.6487 44.0423 43.7869C44.1957 43.9233 44.3728 43.9915 44.5735 43.9915ZM51.0977 43.9091V43.6023C51.0977 43.3636 51.1488 43.143 51.2511 42.9403C51.3552 42.7377 51.5058 42.5748 51.7028 42.4517C51.8997 42.3286 52.1403 42.267 52.4244 42.267C52.7141 42.267 52.9575 42.3286 53.1545 42.4517C53.3533 42.5729 53.503 42.7348 53.6033 42.9375C53.7056 43.1383 53.7567 43.3598 53.7567 43.6023V43.9091C53.7567 44.1477 53.7056 44.3684 53.6033 44.571C53.5011 44.7737 53.3505 44.9366 53.1516 45.0597C52.9528 45.1828 52.7103 45.2443 52.4244 45.2443C52.1365 45.2443 51.8941 45.1828 51.6971 45.0597C51.5001 44.9366 51.3505 44.7737 51.2482 44.571C51.1478 44.3684 51.0977 44.1477 51.0977 43.9091ZM52.0039 43.6023V43.9091C52.0039 44.0303 52.0333 44.1468 52.092 44.2585C52.1526 44.3703 52.2634 44.4261 52.4244 44.4261C52.5891 44.4261 52.6999 44.3722 52.7567 44.2642C52.8136 44.1544 52.842 44.036 52.842 43.9091V43.6023C52.842 43.4754 52.8145 43.3561 52.7596 43.2443C52.7066 43.1307 52.5948 43.0739 52.4244 43.0739C52.2653 43.0739 52.1554 43.1307 52.0948 43.2443C52.0342 43.3561 52.0039 43.4754 52.0039 43.6023ZM48.0806 40.5795V40.2727C48.0806 40.0303 48.1327 39.8087 48.2369 39.608C48.3429 39.4053 48.4944 39.2434 48.6914 39.1222C48.8884 38.9991 49.127 38.9375 49.4073 38.9375C49.6971 38.9375 49.9405 38.9991 50.1374 39.1222C50.3363 39.2434 50.4869 39.4053 50.5891 39.608C50.6914 39.8087 50.7425 40.0303 50.7425 40.2727V40.5795C50.7425 40.822 50.6905 41.0436 50.5863 41.2443C50.484 41.4451 50.3335 41.6051 50.1346 41.7244C49.9357 41.8437 49.6933 41.9034 49.4073 41.9034C49.1213 41.9034 48.8789 41.8428 48.68 41.7216C48.4831 41.6004 48.3335 41.4394 48.2312 41.2386C48.1308 41.0379 48.0806 40.8182 48.0806 40.5795ZM48.9954 40.2727V40.5795C48.9954 40.7064 49.0247 40.8248 49.0835 40.9347C49.1441 41.0426 49.252 41.0966 49.4073 41.0966C49.574 41.0966 49.6848 41.0426 49.7397 40.9347C49.7965 40.8248 49.8249 40.7064 49.8249 40.5795V40.2727C49.8249 40.1458 49.7984 40.0265 49.7454 39.9148C49.6924 39.8011 49.5797 39.7443 49.4073 39.7443C49.2482 39.7443 49.1393 39.8021 49.0806 39.9176C49.0238 40.0331 48.9954 40.1515 48.9954 40.2727ZM48.5096 45L52.5096 39.1818H53.2852L49.2852 45H48.5096Z" fill="white"/>
</g>
<defs>
<clipPath id="clip0_1425_177">
<rect width="45" height="45" fill="white" transform="translate(20 20)"/>
</clipPath>
</defs>
</svg>
