<svg width="80" height="80" viewBox="0 0 80 80" fill="none" xmlns="http://www.w3.org/2000/svg">
<circle cx="40" cy="40" r="40" fill="#F29543"/>
<path d="M39.3135 18.0527C34.1016 18.457 29.4521 21.2871 26.6836 25.7607C25.585 27.5185 24.7764 29.7685 24.4688 31.9131C24.293 33.0996 24.293 35.2441 24.46 36.4131C24.8027 38.83 25.7344 41.2646 27.0352 43.1631C27.29 43.541 27.4834 43.9013 27.4658 43.9541C27.4395 44.0156 25.9541 46.6875 24.1611 49.9043C21.6914 54.3252 20.9004 55.8193 20.9004 56.039C20.9004 56.4785 21.3047 56.8476 21.7793 56.8476C21.9727 56.8476 23.625 56.6631 25.4443 56.4433C27.2549 56.2236 28.7754 56.0742 28.8105 56.1181C28.8457 56.1533 29.4785 57.6123 30.2168 59.3525C31.7197 62.9033 31.8164 63.0527 32.4492 62.9736C32.6777 62.9384 32.8711 62.8506 32.9854 62.7099C33.082 62.5957 34.6025 59.7656 36.3691 56.4257L39.5771 50.3437H40.333H41.0889L44.4902 56.4697C46.3623 59.8447 47.9707 62.6748 48.0498 62.7627C48.1377 62.8506 48.375 62.9472 48.5684 62.9736C49.1748 63.0527 49.2715 62.8857 50.7744 59.3525C51.5215 57.6123 52.1543 56.1533 52.1895 56.1181C52.2246 56.0742 53.7451 56.2236 55.5557 56.4433C57.375 56.6631 59.0273 56.8476 59.2207 56.8476C59.6953 56.8476 60.0996 56.4785 60.0996 56.039C60.0996 55.8281 59.2383 54.1494 56.8652 49.6845L53.6221 43.6289L54.0791 42.917C57.3838 37.8369 57.498 31.1308 54.3691 25.9277C53.0508 23.7216 51.0557 21.7177 48.832 20.3379C46.1074 18.6679 42.5391 17.8066 39.3135 18.0527ZM42.8291 19.9687C46.0107 20.54 48.498 21.8408 50.7393 24.1084C52.9014 26.2968 54.2549 28.9951 54.7471 32.1064C54.8877 33.0029 54.8965 35.4199 54.7471 36.2812C54.2197 39.4629 52.9453 42.0117 50.748 44.2617C48.5068 46.5644 45.8086 47.9443 42.5215 48.4629C41.2646 48.6562 38.8916 48.5947 37.6436 48.3222C34.7959 47.7158 32.3086 46.3799 30.3047 44.3672C28.0898 42.1523 26.7188 39.4365 26.209 36.2812C26.0156 35.0156 26.0771 32.5722 26.3496 31.3154C27.6768 25.1015 32.6777 20.5576 38.9619 19.8457C39.876 19.7402 41.9326 19.8105 42.8291 19.9687ZM55.0811 50.08C56.4785 52.708 57.6211 54.8789 57.6035 54.8965C57.5859 54.9052 56.2236 54.7558 54.5713 54.5537C51.3457 54.167 51.2051 54.167 50.9326 54.5976C50.8711 54.6943 50.3086 55.9775 49.6846 57.4453C49.0605 58.9043 48.5244 60.0732 48.498 60.0381C48.3662 59.8798 43.04 50.2295 43.0752 50.2031C43.0928 50.1855 43.4795 50.0888 43.9365 49.9834C46.0283 49.5351 48.1904 48.5683 49.9043 47.3203C50.5107 46.8808 51.7939 45.791 52.1367 45.4306C52.2861 45.2812 52.4268 45.1845 52.4619 45.2197C52.4971 45.2636 53.6748 47.4433 55.0811 50.08ZM30.7617 47.1093C32.3525 48.3134 34.1367 49.1923 36.1055 49.7636C36.5186 49.8779 37.0459 50.0009 37.2744 50.0361C37.5029 50.0713 37.6875 50.1152 37.6875 50.1416C37.6875 50.291 32.458 60.0029 32.4141 59.9502C32.3701 59.915 31.8604 58.7285 31.2627 57.331C30.6738 55.9248 30.1289 54.6943 30.0674 54.5976C29.7949 54.167 29.6543 54.167 26.4287 54.5537C24.7764 54.7558 23.4229 54.9052 23.4053 54.8965C23.3965 54.8789 28.0898 46.4326 28.5908 45.5713L28.7402 45.3252L29.4258 45.9756C29.8037 46.3359 30.4102 46.8457 30.7617 47.1093Z" fill="white"/>
<path d="M38.9182 21.9287C38.0393 22.0693 37.1779 22.2715 36.5012 22.5C32.5021 23.8711 29.426 27.2549 28.468 31.3593C27.8615 33.9257 28.1076 36.7119 29.1447 39.1025C29.4523 39.8144 30.0412 40.0078 30.551 39.5771C30.9289 39.2607 30.9553 39.0146 30.6916 38.2851C30.0061 36.3867 29.7687 34.7959 29.9445 33.1787C30.0676 32.0009 30.2082 31.4033 30.6213 30.331C31.509 28.0107 33.3283 25.9804 35.552 24.8291C36.967 24.0996 38.215 23.748 39.8059 23.625C40.4387 23.581 40.8078 23.5107 40.966 23.4052C41.2736 23.2119 41.4143 22.7812 41.2824 22.4209C41.133 21.9638 40.8781 21.8672 39.9553 21.8759C39.507 21.8847 39.0412 21.9111 38.9182 21.9287Z" fill="white"/>
<path d="M48.1729 25.3124C48.0674 25.3652 47.918 25.5409 47.8389 25.7079C47.4961 26.4198 48.1377 27.123 48.8936 26.8769C49.4912 26.6747 49.6494 25.9364 49.1924 25.4794C48.9024 25.1894 48.5508 25.1279 48.1729 25.3124Z" fill="white"/>
<path d="M50.2908 28.1074C50.0184 28.2129 49.8162 28.5381 49.8162 28.872C49.8162 29.0215 49.9569 29.4609 50.1239 29.8388C50.8182 31.3506 51.0907 32.8183 51.0203 34.6377C50.9324 37.0898 50.0975 39.2168 48.4891 41.0976C46.7049 43.1982 44.1649 44.4726 41.2557 44.7363C40.1922 44.833 40.1131 44.8506 39.8758 45.0967C39.4539 45.5185 39.5682 46.1777 40.1219 46.4326C40.6932 46.705 43.0487 46.3799 44.6307 45.8086C47.5838 44.7539 50.1326 42.4951 51.5477 39.6738C51.9783 38.8125 52.5057 37.1601 52.6727 36.1582C52.8397 35.0859 52.8397 33.3105 52.6727 32.2383C52.4178 30.6386 51.6532 28.582 51.1785 28.2129C50.9237 28.0107 50.616 27.9756 50.2908 28.1074Z" fill="white"/>
<path d="M40.1924 28.3623C40.0957 28.4062 39.252 29.2061 38.3291 30.1465C36.7383 31.7461 36.6328 31.8691 36.6328 32.1768C36.6328 32.6074 36.835 32.9062 37.2129 33.0293C37.6611 33.1787 37.8896 33.0557 38.7861 32.1504C39.2168 31.7109 39.6035 31.3594 39.6387 31.3594C39.6826 31.3594 39.709 32.959 39.709 34.9102V38.4609L38.6279 38.4873C37.4062 38.5225 37.125 38.6367 37.002 39.1201C36.9053 39.5068 36.9668 39.7529 37.2217 40.0166L37.4502 40.2363H40.5439H43.6377L43.8662 40.0166C44.1562 39.7178 44.2178 39.3838 44.0332 39.0059C43.8311 38.5928 43.4971 38.4873 42.3721 38.4873L41.4668 38.4785V33.8818C41.4668 31.0957 41.4316 29.1709 41.3789 28.9775C41.3262 28.8018 41.2119 28.5908 41.124 28.5117C40.9307 28.3359 40.4385 28.2568 40.1924 28.3623Z" fill="white"/>
<path d="M31.8252 41.5986C31.5703 41.7744 31.4209 42.2578 31.5264 42.5479C31.6758 42.9346 31.9746 43.1367 32.3789 43.1367C32.6865 43.1367 32.792 43.0928 32.9766 42.8643C33.126 42.6973 33.2051 42.4863 33.2051 42.3018C33.2051 42.1172 33.126 41.9062 32.9766 41.7393C32.792 41.5107 32.6865 41.4668 32.3789 41.4668C32.1768 41.4668 31.9307 41.5283 31.8252 41.5986Z" fill="white"/>
</svg>
