<svg width="85" height="85" viewBox="0 0 85 85" fill="none" xmlns="http://www.w3.org/2000/svg">
<circle cx="42.5" cy="42.5" r="42.5" fill="#5E77AA"/>
<g clip-path="url(#clip0_1425_180)">
<path d="M40.8301 20.0615C35.917 20.5273 31.9883 22.083 28.376 25.001C23.8584 28.6309 20.9756 33.79 20.167 39.6875C20.0088 40.7861 20.0088 44.2139 20.167 45.3125C20.8701 50.4277 23.041 54.831 26.6006 58.3994C33.0078 64.7978 42.4912 66.7314 50.9375 63.3564C55.1123 61.6865 58.8037 58.6455 61.3613 54.7519C63.8486 50.9814 65.1494 46.3057 64.9736 41.7529C64.7891 37.0068 63.3301 32.8936 60.3769 28.8066L60.2363 28.6133H60.9922C61.8447 28.6133 62.1787 28.499 62.3457 28.1299C62.5654 27.6465 62.4424 27.207 62.0117 26.9873C61.8096 26.8818 61.3789 26.8555 59.8672 26.8555H57.9687L57.6875 27.1103L57.3975 27.3652V29.3867C57.3975 31.4082 57.3975 31.4082 57.6084 31.6367C57.8633 31.9092 58.3115 32.0059 58.5928 31.8652C58.9971 31.6543 59.1113 31.4258 59.1113 30.7666L59.1201 30.1514L59.375 30.459C59.7441 30.8984 60.8955 32.8408 61.2734 33.667C62.1172 35.5039 62.7324 37.5605 63.0312 39.5557C63.1543 40.3291 63.1894 41.1201 63.1894 42.5C63.1894 44.6445 63.0576 45.7607 62.583 47.6416C61.6689 51.2275 59.8144 54.4531 57.1338 57.1338C54.4531 59.8232 51.2363 61.6689 47.6416 62.583C45.7695 63.0576 44.6445 63.1894 42.5 63.1894C40.417 63.1894 39.3799 63.0752 37.5342 62.6269C33.834 61.7217 30.2041 59.6299 27.6025 56.9053C24.5352 53.6973 22.6543 49.874 21.9687 45.4883C21.749 44.0732 21.749 40.9268 21.9687 39.5117C22.1445 38.3428 22.6016 36.5146 22.9443 35.5566C25.3262 28.9561 30.9424 23.9287 37.7012 22.3291C39.7314 21.8457 41.9199 21.6963 44.6797 21.8457L45.5059 21.8896L45.7607 21.5996C46.1299 21.1865 46.0684 20.6064 45.6113 20.3076C45.2598 20.0791 42.2803 19.9209 40.8301 20.0615Z" fill="white"/>
<path d="M48.0195 21.1338C47.7822 21.3447 47.7295 21.4502 47.7295 21.7402C47.7295 22.1797 48.0195 22.5225 48.4414 22.6016C49.2588 22.751 49.7861 21.7314 49.1885 21.1338C48.8369 20.7822 48.4062 20.7822 48.0195 21.1338Z" fill="white"/>
<path d="M40.5487 25.8359C38.2372 26.1348 35.9784 26.8818 34.1502 27.9541C33.3504 28.4199 33.1834 28.6133 33.1834 29.0352C33.1834 29.4219 33.3065 29.6328 33.6229 29.7998C33.9745 29.9844 34.1327 29.9668 34.5897 29.7119C36.4178 28.6924 37.9383 28.0947 39.6873 27.7256C40.9266 27.4531 43.8622 27.4268 45.0926 27.6729C49.118 28.4727 52.4403 30.5996 54.7518 33.834C56.7381 36.6201 57.7577 40.3027 57.4588 43.6514C57.3446 44.8994 57.0194 46.4814 56.6766 47.4658C56.325 48.4766 55.367 50.3047 54.7342 51.2012C53.9784 52.2734 52.2645 53.9785 51.2098 54.7256C47.6239 57.248 43.1239 58.1094 38.9403 57.0811C31.0741 55.1387 26.1961 47.3867 27.8221 39.415C28.1473 37.833 28.8241 36.084 29.6239 34.7744C30.0106 34.1328 30.0194 33.8164 29.6766 33.4297C29.4657 33.1924 29.3602 33.1396 29.0614 33.1484C28.6043 33.166 28.4549 33.2979 27.9627 34.1416C26.2665 37.0332 25.4666 40.7334 25.8094 44.0908C26.2137 48.1514 27.954 51.7373 30.8719 54.5498C33.4032 56.9756 36.2069 58.3994 39.7401 59.0322C41.2694 59.3047 43.6864 59.3047 45.2684 59.0322C48.9334 58.3906 52.0096 56.7646 54.5497 54.1279C56.9842 51.5967 58.4168 48.749 59.0321 45.2598C59.3133 43.6602 59.3133 41.3398 59.0321 39.7402C58.4168 36.251 56.9842 33.4033 54.5497 30.8721C52.036 28.2617 48.8719 26.583 45.3123 25.9678C43.994 25.7393 41.7967 25.6777 40.5487 25.8359Z" fill="white"/>
<path d="M42.0078 29.2988C41.6914 29.5449 41.6211 29.7998 41.6211 30.5908C41.6211 31.3467 41.6299 31.3643 41.9199 31.6543C42.2539 31.9883 42.5352 32.0322 42.9395 31.8213C43.3174 31.6279 43.3789 31.4434 43.3789 30.5029C43.3789 29.6856 43.3701 29.6416 43.124 29.3955C42.8164 29.0967 42.3066 29.0527 42.0078 29.2988Z" fill="white"/>
<path d="M30.67 30.6699C30.3448 30.9951 30.292 31.2852 30.4942 31.6807C30.626 31.9268 30.96 32.1289 31.25 32.1289C31.6983 32.1289 32.1289 31.6982 32.1289 31.2588C32.1289 30.96 31.9268 30.626 31.6807 30.4941C31.2852 30.292 30.9951 30.3447 30.67 30.6699Z" fill="white"/>
<path d="M50.1903 33.6758C50.0497 33.7461 48.5731 35.1523 46.9296 36.8047L43.9237 39.8017L43.5018 39.6523C42.9657 39.4677 42.0341 39.4677 41.4979 39.6523L41.0761 39.8017L39.5643 38.2988C38.7382 37.4814 37.9735 36.7607 37.8681 36.708C37.121 36.33 36.33 37.1211 36.7079 37.8681C36.7606 37.9736 37.4813 38.7383 38.2987 39.5644L39.8016 41.0761L39.6522 41.498C39.2831 42.5879 39.5643 43.8008 40.3817 44.6181C41.2343 45.4707 42.4647 45.7256 43.6161 45.2949C44.3104 45.04 45.0399 44.3105 45.2948 43.6162C45.5321 43.0009 45.5497 42.0957 45.3475 41.498L45.1981 41.0761L48.2743 37.9912C50.3134 35.9433 51.3768 34.8183 51.412 34.6601C51.4999 34.2822 51.2626 33.8164 50.9022 33.667C50.5243 33.5088 50.5155 33.5088 50.1903 33.6758ZM43.1766 41.4453C43.9413 41.9023 43.9061 43.1855 43.1239 43.5986C42.2626 44.0381 41.2694 43.458 41.2694 42.5175C41.2694 41.7705 41.7616 41.2695 42.4999 41.2695C42.7372 41.2695 43.0097 41.3398 43.1766 41.4453Z" fill="white"/>
<path d="M29.3955 41.876C29.0615 42.2187 29.0439 42.7197 29.3515 43.0537C29.624 43.3525 29.8613 43.4052 30.7314 43.3613C31.4081 43.3349 31.4521 43.3174 31.6982 43.0449C31.9794 42.7285 32.0146 42.4385 31.8212 42.0605C31.6279 41.6826 31.4433 41.6211 30.5029 41.6211C29.6855 41.6211 29.6415 41.6299 29.3955 41.876Z" fill="white"/>
<path d="M53.3368 41.9287C53.0555 42.21 53.0291 42.2715 53.0731 42.6143C53.1082 42.8604 53.1961 43.0449 53.3543 43.1768C53.5565 43.3613 53.6795 43.3789 54.4618 43.3789C55.3231 43.3789 55.3495 43.3701 55.6043 43.124C56.035 42.6934 55.912 41.999 55.3582 41.7178C55.2528 41.665 54.8221 41.6211 54.409 41.6211C53.6532 41.6211 53.6444 41.6211 53.3368 41.9287Z" fill="white"/>
<path d="M42.0957 53.1347C41.7178 53.2841 41.6211 53.5566 41.6211 54.4794C41.6211 55.3232 41.6299 55.3495 41.876 55.6044C42.3066 56.0351 43.001 55.912 43.2822 55.3583C43.335 55.2529 43.3789 54.8222 43.3789 54.4091C43.3789 53.6533 43.3701 53.6357 43.0801 53.3456C42.7725 53.038 42.4824 52.9765 42.0957 53.1347Z" fill="white"/>
</g>
<defs>
<clipPath id="clip0_1425_180">
<rect width="45" height="45" fill="white" transform="translate(20 20)"/>
</clipPath>
</defs>
</svg>
